%TF.GenerationSoftware,KiCad,Pcbnew,(7.0.0)*%
%TF.CreationDate,2024-01-19T16:55:20+05:30*%
%TF.ProjectId,Programmer,50726f67-7261-46d6-9d65-722e6b696361,rev?*%
%TF.SameCoordinates,Original*%
%TF.FileFunction,Drillmap*%
%TF.FilePolarity,Positive*%
%FSLAX45Y45*%
G04 Gerber Fmt 4.5, Leading zero omitted, Abs format (unit mm)*
G04 Created by KiCad (PCBNEW (7.0.0)) date 2024-01-19 16:55:20*
%MOMM*%
%LPD*%
G01*
G04 APERTURE LIST*
%ADD10C,0.100000*%
%ADD11C,0.200000*%
%ADD12C,0.030000*%
%ADD13C,0.060000*%
%ADD14C,0.085000*%
G04 APERTURE END LIST*
D10*
X17364897Y-10591807D02*
G75*
G03*
X17517297Y-10439400I-7J152407D01*
G01*
X14278430Y-10439400D02*
G75*
G03*
X14430823Y-10591800I152390J-10D01*
G01*
X14278423Y-10439400D02*
X14278423Y-9093200D01*
X14577060Y-8940800D02*
X14430823Y-8940800D01*
X17517297Y-9093200D02*
X17517297Y-10439400D01*
X14430823Y-8940793D02*
G75*
G03*
X14278423Y-9093200I7J-152407D01*
G01*
X14430823Y-10591800D02*
X17364897Y-10591800D01*
X17517290Y-9093200D02*
G75*
G03*
X17364897Y-8940800I-152390J10D01*
G01*
X17364897Y-8940800D02*
X14577060Y-8940800D01*
D11*
D12*
X14584920Y-10310100D02*
X14614920Y-10340100D01*
X14614920Y-10310100D02*
X14584920Y-10340100D01*
X14678900Y-10305020D02*
X14708900Y-10335020D01*
X14708900Y-10305020D02*
X14678900Y-10335020D01*
X14722080Y-9116300D02*
X14752080Y-9146300D01*
X14752080Y-9116300D02*
X14722080Y-9146300D01*
X14757640Y-10172940D02*
X14787640Y-10202940D01*
X14787640Y-10172940D02*
X14757640Y-10202940D01*
X14861780Y-10188180D02*
X14891780Y-10218180D01*
X14891780Y-10188180D02*
X14861780Y-10218180D01*
X14955760Y-9438880D02*
X14985760Y-9468880D01*
X14985760Y-9438880D02*
X14955760Y-9468880D01*
X15161500Y-10365980D02*
X15191500Y-10395980D01*
X15191500Y-10365980D02*
X15161500Y-10395980D01*
X15181820Y-9192500D02*
X15211820Y-9222500D01*
X15211820Y-9192500D02*
X15181820Y-9222500D01*
X15379940Y-10038320D02*
X15409940Y-10068320D01*
X15409940Y-10038320D02*
X15379940Y-10068320D01*
X15468840Y-9433800D02*
X15498840Y-9463800D01*
X15498840Y-9433800D02*
X15468840Y-9463800D01*
X15468840Y-9555720D02*
X15498840Y-9585720D01*
X15498840Y-9555720D02*
X15468840Y-9585720D01*
X15527260Y-9510000D02*
X15557260Y-9540000D01*
X15557260Y-9510000D02*
X15527260Y-9540000D01*
X15819360Y-9644620D02*
X15849360Y-9674620D01*
X15849360Y-9644620D02*
X15819360Y-9674620D01*
X16116540Y-9139160D02*
X16146540Y-9169160D01*
X16146540Y-9139160D02*
X16116540Y-9169160D01*
X16284180Y-10269460D02*
X16314180Y-10299460D01*
X16314180Y-10269460D02*
X16284180Y-10299460D01*
X16418800Y-10348200D02*
X16448800Y-10378200D01*
X16448800Y-10348200D02*
X16418800Y-10378200D01*
X16428960Y-9631920D02*
X16458960Y-9661920D01*
X16458960Y-9631920D02*
X16428960Y-9661920D01*
X16520400Y-9360140D02*
X16550400Y-9390140D01*
X16550400Y-9360140D02*
X16520400Y-9390140D01*
D13*
X14455370Y-9434080D02*
G75*
G03*
X14455370Y-9434080I-30000J0D01*
G01*
D11*
X14390370Y-9464080D02*
X14460370Y-9464080D01*
X14460370Y-9464080D02*
G75*
G03*
X14460370Y-9404080I0J30000D01*
G01*
X14460370Y-9404080D02*
X14390370Y-9404080D01*
X14390370Y-9404080D02*
G75*
G03*
X14390370Y-9464080I0J-30000D01*
G01*
D13*
X14455370Y-10134080D02*
G75*
G03*
X14455370Y-10134080I-30000J0D01*
G01*
D11*
X14460370Y-10104080D02*
X14390370Y-10104080D01*
X14390370Y-10104080D02*
G75*
G03*
X14390370Y-10164080I0J-30000D01*
G01*
X14390370Y-10164080D02*
X14460370Y-10164080D01*
X14460370Y-10164080D02*
G75*
G03*
X14460370Y-10104080I0J30000D01*
G01*
D14*
X14695370Y-9491580D02*
X14695370Y-9576580D01*
X14652870Y-9534080D02*
X14737870Y-9534080D01*
X14695370Y-9991580D02*
X14695370Y-10076580D01*
X14652870Y-10034080D02*
X14737870Y-10034080D01*
D10*
X16913656Y-9542576D02*
X16913656Y-9471864D01*
X16842944Y-9471864D01*
X16842944Y-9542576D01*
X16913656Y-9542576D01*
X16913656Y-9796576D02*
X16913656Y-9725864D01*
X16842944Y-9725864D01*
X16842944Y-9796576D01*
X16913656Y-9796576D01*
X16913656Y-10050576D02*
X16913656Y-9979864D01*
X16842944Y-9979864D01*
X16842944Y-10050576D01*
X16913656Y-10050576D01*
X17167656Y-9542576D02*
X17167656Y-9471864D01*
X17096944Y-9471864D01*
X17096944Y-9542576D01*
X17167656Y-9542576D01*
X17167656Y-9796576D02*
X17167656Y-9725864D01*
X17096944Y-9725864D01*
X17096944Y-9796576D01*
X17167656Y-9796576D01*
X17167656Y-10050576D02*
X17167656Y-9979864D01*
X17096944Y-9979864D01*
X17096944Y-10050576D01*
X17167656Y-10050576D01*
D11*
X14521042Y-10890276D02*
X14521042Y-10690276D01*
X14521042Y-10690276D02*
X14568661Y-10690276D01*
X14568661Y-10690276D02*
X14597233Y-10699800D01*
X14597233Y-10699800D02*
X14616280Y-10718848D01*
X14616280Y-10718848D02*
X14625804Y-10737895D01*
X14625804Y-10737895D02*
X14635328Y-10775990D01*
X14635328Y-10775990D02*
X14635328Y-10804562D01*
X14635328Y-10804562D02*
X14625804Y-10842657D01*
X14625804Y-10842657D02*
X14616280Y-10861705D01*
X14616280Y-10861705D02*
X14597233Y-10880752D01*
X14597233Y-10880752D02*
X14568661Y-10890276D01*
X14568661Y-10890276D02*
X14521042Y-10890276D01*
X14721042Y-10890276D02*
X14721042Y-10756943D01*
X14721042Y-10795038D02*
X14730566Y-10775990D01*
X14730566Y-10775990D02*
X14740090Y-10766467D01*
X14740090Y-10766467D02*
X14759137Y-10756943D01*
X14759137Y-10756943D02*
X14778185Y-10756943D01*
X14844852Y-10890276D02*
X14844852Y-10756943D01*
X14844852Y-10690276D02*
X14835328Y-10699800D01*
X14835328Y-10699800D02*
X14844852Y-10709324D01*
X14844852Y-10709324D02*
X14854375Y-10699800D01*
X14854375Y-10699800D02*
X14844852Y-10690276D01*
X14844852Y-10690276D02*
X14844852Y-10709324D01*
X14968661Y-10890276D02*
X14949613Y-10880752D01*
X14949613Y-10880752D02*
X14940090Y-10861705D01*
X14940090Y-10861705D02*
X14940090Y-10690276D01*
X15073423Y-10890276D02*
X15054375Y-10880752D01*
X15054375Y-10880752D02*
X15044852Y-10861705D01*
X15044852Y-10861705D02*
X15044852Y-10690276D01*
X15269613Y-10890276D02*
X15269613Y-10690276D01*
X15269613Y-10690276D02*
X15336280Y-10833133D01*
X15336280Y-10833133D02*
X15402947Y-10690276D01*
X15402947Y-10690276D02*
X15402947Y-10890276D01*
X15583899Y-10890276D02*
X15583899Y-10785514D01*
X15583899Y-10785514D02*
X15574375Y-10766467D01*
X15574375Y-10766467D02*
X15555328Y-10756943D01*
X15555328Y-10756943D02*
X15517232Y-10756943D01*
X15517232Y-10756943D02*
X15498185Y-10766467D01*
X15583899Y-10880752D02*
X15564852Y-10890276D01*
X15564852Y-10890276D02*
X15517232Y-10890276D01*
X15517232Y-10890276D02*
X15498185Y-10880752D01*
X15498185Y-10880752D02*
X15488661Y-10861705D01*
X15488661Y-10861705D02*
X15488661Y-10842657D01*
X15488661Y-10842657D02*
X15498185Y-10823610D01*
X15498185Y-10823610D02*
X15517232Y-10814086D01*
X15517232Y-10814086D02*
X15564852Y-10814086D01*
X15564852Y-10814086D02*
X15583899Y-10804562D01*
X15679137Y-10756943D02*
X15679137Y-10956943D01*
X15679137Y-10766467D02*
X15698185Y-10756943D01*
X15698185Y-10756943D02*
X15736280Y-10756943D01*
X15736280Y-10756943D02*
X15755328Y-10766467D01*
X15755328Y-10766467D02*
X15764852Y-10775990D01*
X15764852Y-10775990D02*
X15774375Y-10795038D01*
X15774375Y-10795038D02*
X15774375Y-10852181D01*
X15774375Y-10852181D02*
X15764852Y-10871229D01*
X15764852Y-10871229D02*
X15755328Y-10880752D01*
X15755328Y-10880752D02*
X15736280Y-10890276D01*
X15736280Y-10890276D02*
X15698185Y-10890276D01*
X15698185Y-10890276D02*
X15679137Y-10880752D01*
X15860090Y-10871229D02*
X15869613Y-10880752D01*
X15869613Y-10880752D02*
X15860090Y-10890276D01*
X15860090Y-10890276D02*
X15850566Y-10880752D01*
X15850566Y-10880752D02*
X15860090Y-10871229D01*
X15860090Y-10871229D02*
X15860090Y-10890276D01*
X15860090Y-10766467D02*
X15869613Y-10775990D01*
X15869613Y-10775990D02*
X15860090Y-10785514D01*
X15860090Y-10785514D02*
X15850566Y-10775990D01*
X15850566Y-10775990D02*
X15860090Y-10766467D01*
X15860090Y-10766467D02*
X15860090Y-10785514D01*
D12*
X14243423Y-11221800D02*
X14273423Y-11251800D01*
X14273423Y-11221800D02*
X14243423Y-11251800D01*
D11*
X14559137Y-11110276D02*
X14578185Y-11110276D01*
X14578185Y-11110276D02*
X14597233Y-11119800D01*
X14597233Y-11119800D02*
X14606756Y-11129324D01*
X14606756Y-11129324D02*
X14616280Y-11148371D01*
X14616280Y-11148371D02*
X14625804Y-11186467D01*
X14625804Y-11186467D02*
X14625804Y-11234086D01*
X14625804Y-11234086D02*
X14616280Y-11272181D01*
X14616280Y-11272181D02*
X14606756Y-11291228D01*
X14606756Y-11291228D02*
X14597233Y-11300752D01*
X14597233Y-11300752D02*
X14578185Y-11310276D01*
X14578185Y-11310276D02*
X14559137Y-11310276D01*
X14559137Y-11310276D02*
X14540090Y-11300752D01*
X14540090Y-11300752D02*
X14530566Y-11291228D01*
X14530566Y-11291228D02*
X14521042Y-11272181D01*
X14521042Y-11272181D02*
X14511518Y-11234086D01*
X14511518Y-11234086D02*
X14511518Y-11186467D01*
X14511518Y-11186467D02*
X14521042Y-11148371D01*
X14521042Y-11148371D02*
X14530566Y-11129324D01*
X14530566Y-11129324D02*
X14540090Y-11119800D01*
X14540090Y-11119800D02*
X14559137Y-11110276D01*
X14711518Y-11291228D02*
X14721042Y-11300752D01*
X14721042Y-11300752D02*
X14711518Y-11310276D01*
X14711518Y-11310276D02*
X14701994Y-11300752D01*
X14701994Y-11300752D02*
X14711518Y-11291228D01*
X14711518Y-11291228D02*
X14711518Y-11310276D01*
X14787709Y-11110276D02*
X14911518Y-11110276D01*
X14911518Y-11110276D02*
X14844852Y-11186467D01*
X14844852Y-11186467D02*
X14873423Y-11186467D01*
X14873423Y-11186467D02*
X14892471Y-11195990D01*
X14892471Y-11195990D02*
X14901994Y-11205514D01*
X14901994Y-11205514D02*
X14911518Y-11224562D01*
X14911518Y-11224562D02*
X14911518Y-11272181D01*
X14911518Y-11272181D02*
X14901994Y-11291228D01*
X14901994Y-11291228D02*
X14892471Y-11300752D01*
X14892471Y-11300752D02*
X14873423Y-11310276D01*
X14873423Y-11310276D02*
X14816280Y-11310276D01*
X14816280Y-11310276D02*
X14797233Y-11300752D01*
X14797233Y-11300752D02*
X14787709Y-11291228D01*
X15035328Y-11110276D02*
X15054375Y-11110276D01*
X15054375Y-11110276D02*
X15073423Y-11119800D01*
X15073423Y-11119800D02*
X15082947Y-11129324D01*
X15082947Y-11129324D02*
X15092471Y-11148371D01*
X15092471Y-11148371D02*
X15101994Y-11186467D01*
X15101994Y-11186467D02*
X15101994Y-11234086D01*
X15101994Y-11234086D02*
X15092471Y-11272181D01*
X15092471Y-11272181D02*
X15082947Y-11291228D01*
X15082947Y-11291228D02*
X15073423Y-11300752D01*
X15073423Y-11300752D02*
X15054375Y-11310276D01*
X15054375Y-11310276D02*
X15035328Y-11310276D01*
X15035328Y-11310276D02*
X15016280Y-11300752D01*
X15016280Y-11300752D02*
X15006756Y-11291228D01*
X15006756Y-11291228D02*
X14997233Y-11272181D01*
X14997233Y-11272181D02*
X14987709Y-11234086D01*
X14987709Y-11234086D02*
X14987709Y-11186467D01*
X14987709Y-11186467D02*
X14997233Y-11148371D01*
X14997233Y-11148371D02*
X15006756Y-11129324D01*
X15006756Y-11129324D02*
X15016280Y-11119800D01*
X15016280Y-11119800D02*
X15035328Y-11110276D01*
X15225804Y-11110276D02*
X15244852Y-11110276D01*
X15244852Y-11110276D02*
X15263899Y-11119800D01*
X15263899Y-11119800D02*
X15273423Y-11129324D01*
X15273423Y-11129324D02*
X15282947Y-11148371D01*
X15282947Y-11148371D02*
X15292471Y-11186467D01*
X15292471Y-11186467D02*
X15292471Y-11234086D01*
X15292471Y-11234086D02*
X15282947Y-11272181D01*
X15282947Y-11272181D02*
X15273423Y-11291228D01*
X15273423Y-11291228D02*
X15263899Y-11300752D01*
X15263899Y-11300752D02*
X15244852Y-11310276D01*
X15244852Y-11310276D02*
X15225804Y-11310276D01*
X15225804Y-11310276D02*
X15206756Y-11300752D01*
X15206756Y-11300752D02*
X15197233Y-11291228D01*
X15197233Y-11291228D02*
X15187709Y-11272181D01*
X15187709Y-11272181D02*
X15178185Y-11234086D01*
X15178185Y-11234086D02*
X15178185Y-11186467D01*
X15178185Y-11186467D02*
X15187709Y-11148371D01*
X15187709Y-11148371D02*
X15197233Y-11129324D01*
X15197233Y-11129324D02*
X15206756Y-11119800D01*
X15206756Y-11119800D02*
X15225804Y-11110276D01*
X15378185Y-11310276D02*
X15378185Y-11176943D01*
X15378185Y-11195990D02*
X15387709Y-11186467D01*
X15387709Y-11186467D02*
X15406756Y-11176943D01*
X15406756Y-11176943D02*
X15435328Y-11176943D01*
X15435328Y-11176943D02*
X15454375Y-11186467D01*
X15454375Y-11186467D02*
X15463899Y-11205514D01*
X15463899Y-11205514D02*
X15463899Y-11310276D01*
X15463899Y-11205514D02*
X15473423Y-11186467D01*
X15473423Y-11186467D02*
X15492471Y-11176943D01*
X15492471Y-11176943D02*
X15521042Y-11176943D01*
X15521042Y-11176943D02*
X15540090Y-11186467D01*
X15540090Y-11186467D02*
X15549614Y-11205514D01*
X15549614Y-11205514D02*
X15549614Y-11310276D01*
X15644852Y-11310276D02*
X15644852Y-11176943D01*
X15644852Y-11195990D02*
X15654375Y-11186467D01*
X15654375Y-11186467D02*
X15673423Y-11176943D01*
X15673423Y-11176943D02*
X15701995Y-11176943D01*
X15701995Y-11176943D02*
X15721042Y-11186467D01*
X15721042Y-11186467D02*
X15730566Y-11205514D01*
X15730566Y-11205514D02*
X15730566Y-11310276D01*
X15730566Y-11205514D02*
X15740090Y-11186467D01*
X15740090Y-11186467D02*
X15759137Y-11176943D01*
X15759137Y-11176943D02*
X15787709Y-11176943D01*
X15787709Y-11176943D02*
X15806756Y-11186467D01*
X15806756Y-11186467D02*
X15816280Y-11205514D01*
X15816280Y-11205514D02*
X15816280Y-11310276D01*
X16174375Y-11100752D02*
X16002947Y-11357895D01*
X16399137Y-11110276D02*
X16418185Y-11110276D01*
X16418185Y-11110276D02*
X16437233Y-11119800D01*
X16437233Y-11119800D02*
X16446756Y-11129324D01*
X16446756Y-11129324D02*
X16456280Y-11148371D01*
X16456280Y-11148371D02*
X16465804Y-11186467D01*
X16465804Y-11186467D02*
X16465804Y-11234086D01*
X16465804Y-11234086D02*
X16456280Y-11272181D01*
X16456280Y-11272181D02*
X16446756Y-11291228D01*
X16446756Y-11291228D02*
X16437233Y-11300752D01*
X16437233Y-11300752D02*
X16418185Y-11310276D01*
X16418185Y-11310276D02*
X16399137Y-11310276D01*
X16399137Y-11310276D02*
X16380090Y-11300752D01*
X16380090Y-11300752D02*
X16370566Y-11291228D01*
X16370566Y-11291228D02*
X16361042Y-11272181D01*
X16361042Y-11272181D02*
X16351518Y-11234086D01*
X16351518Y-11234086D02*
X16351518Y-11186467D01*
X16351518Y-11186467D02*
X16361042Y-11148371D01*
X16361042Y-11148371D02*
X16370566Y-11129324D01*
X16370566Y-11129324D02*
X16380090Y-11119800D01*
X16380090Y-11119800D02*
X16399137Y-11110276D01*
X16551518Y-11291228D02*
X16561042Y-11300752D01*
X16561042Y-11300752D02*
X16551518Y-11310276D01*
X16551518Y-11310276D02*
X16541995Y-11300752D01*
X16541995Y-11300752D02*
X16551518Y-11291228D01*
X16551518Y-11291228D02*
X16551518Y-11310276D01*
X16684852Y-11110276D02*
X16703899Y-11110276D01*
X16703899Y-11110276D02*
X16722947Y-11119800D01*
X16722947Y-11119800D02*
X16732471Y-11129324D01*
X16732471Y-11129324D02*
X16741995Y-11148371D01*
X16741995Y-11148371D02*
X16751518Y-11186467D01*
X16751518Y-11186467D02*
X16751518Y-11234086D01*
X16751518Y-11234086D02*
X16741995Y-11272181D01*
X16741995Y-11272181D02*
X16732471Y-11291228D01*
X16732471Y-11291228D02*
X16722947Y-11300752D01*
X16722947Y-11300752D02*
X16703899Y-11310276D01*
X16703899Y-11310276D02*
X16684852Y-11310276D01*
X16684852Y-11310276D02*
X16665804Y-11300752D01*
X16665804Y-11300752D02*
X16656280Y-11291228D01*
X16656280Y-11291228D02*
X16646756Y-11272181D01*
X16646756Y-11272181D02*
X16637233Y-11234086D01*
X16637233Y-11234086D02*
X16637233Y-11186467D01*
X16637233Y-11186467D02*
X16646756Y-11148371D01*
X16646756Y-11148371D02*
X16656280Y-11129324D01*
X16656280Y-11129324D02*
X16665804Y-11119800D01*
X16665804Y-11119800D02*
X16684852Y-11110276D01*
X16941995Y-11310276D02*
X16827709Y-11310276D01*
X16884852Y-11310276D02*
X16884852Y-11110276D01*
X16884852Y-11110276D02*
X16865804Y-11138848D01*
X16865804Y-11138848D02*
X16846757Y-11157895D01*
X16846757Y-11157895D02*
X16827709Y-11167419D01*
X17132471Y-11310276D02*
X17018185Y-11310276D01*
X17075328Y-11310276D02*
X17075328Y-11110276D01*
X17075328Y-11110276D02*
X17056280Y-11138848D01*
X17056280Y-11138848D02*
X17037233Y-11157895D01*
X17037233Y-11157895D02*
X17018185Y-11167419D01*
X17246757Y-11195990D02*
X17227709Y-11186467D01*
X17227709Y-11186467D02*
X17218185Y-11176943D01*
X17218185Y-11176943D02*
X17208661Y-11157895D01*
X17208661Y-11157895D02*
X17208661Y-11148371D01*
X17208661Y-11148371D02*
X17218185Y-11129324D01*
X17218185Y-11129324D02*
X17227709Y-11119800D01*
X17227709Y-11119800D02*
X17246757Y-11110276D01*
X17246757Y-11110276D02*
X17284852Y-11110276D01*
X17284852Y-11110276D02*
X17303899Y-11119800D01*
X17303899Y-11119800D02*
X17313423Y-11129324D01*
X17313423Y-11129324D02*
X17322947Y-11148371D01*
X17322947Y-11148371D02*
X17322947Y-11157895D01*
X17322947Y-11157895D02*
X17313423Y-11176943D01*
X17313423Y-11176943D02*
X17303899Y-11186467D01*
X17303899Y-11186467D02*
X17284852Y-11195990D01*
X17284852Y-11195990D02*
X17246757Y-11195990D01*
X17246757Y-11195990D02*
X17227709Y-11205514D01*
X17227709Y-11205514D02*
X17218185Y-11215038D01*
X17218185Y-11215038D02*
X17208661Y-11234086D01*
X17208661Y-11234086D02*
X17208661Y-11272181D01*
X17208661Y-11272181D02*
X17218185Y-11291228D01*
X17218185Y-11291228D02*
X17227709Y-11300752D01*
X17227709Y-11300752D02*
X17246757Y-11310276D01*
X17246757Y-11310276D02*
X17284852Y-11310276D01*
X17284852Y-11310276D02*
X17303899Y-11300752D01*
X17303899Y-11300752D02*
X17313423Y-11291228D01*
X17313423Y-11291228D02*
X17322947Y-11272181D01*
X17322947Y-11272181D02*
X17322947Y-11234086D01*
X17322947Y-11234086D02*
X17313423Y-11215038D01*
X17313423Y-11215038D02*
X17303899Y-11205514D01*
X17303899Y-11205514D02*
X17284852Y-11195990D01*
X17399138Y-11110276D02*
X17399138Y-11148371D01*
X17475328Y-11110276D02*
X17475328Y-11148371D01*
X17738185Y-11386467D02*
X17728661Y-11376943D01*
X17728661Y-11376943D02*
X17709614Y-11348371D01*
X17709614Y-11348371D02*
X17700090Y-11329324D01*
X17700090Y-11329324D02*
X17690566Y-11300752D01*
X17690566Y-11300752D02*
X17681042Y-11253133D01*
X17681042Y-11253133D02*
X17681042Y-11215038D01*
X17681042Y-11215038D02*
X17690566Y-11167419D01*
X17690566Y-11167419D02*
X17700090Y-11138848D01*
X17700090Y-11138848D02*
X17709614Y-11119800D01*
X17709614Y-11119800D02*
X17728661Y-11091229D01*
X17728661Y-11091229D02*
X17738185Y-11081705D01*
X17919138Y-11310276D02*
X17804852Y-11310276D01*
X17861995Y-11310276D02*
X17861995Y-11110276D01*
X17861995Y-11110276D02*
X17842947Y-11138848D01*
X17842947Y-11138848D02*
X17823899Y-11157895D01*
X17823899Y-11157895D02*
X17804852Y-11167419D01*
X18033423Y-11195990D02*
X18014376Y-11186467D01*
X18014376Y-11186467D02*
X18004852Y-11176943D01*
X18004852Y-11176943D02*
X17995328Y-11157895D01*
X17995328Y-11157895D02*
X17995328Y-11148371D01*
X17995328Y-11148371D02*
X18004852Y-11129324D01*
X18004852Y-11129324D02*
X18014376Y-11119800D01*
X18014376Y-11119800D02*
X18033423Y-11110276D01*
X18033423Y-11110276D02*
X18071519Y-11110276D01*
X18071519Y-11110276D02*
X18090566Y-11119800D01*
X18090566Y-11119800D02*
X18100090Y-11129324D01*
X18100090Y-11129324D02*
X18109614Y-11148371D01*
X18109614Y-11148371D02*
X18109614Y-11157895D01*
X18109614Y-11157895D02*
X18100090Y-11176943D01*
X18100090Y-11176943D02*
X18090566Y-11186467D01*
X18090566Y-11186467D02*
X18071519Y-11195990D01*
X18071519Y-11195990D02*
X18033423Y-11195990D01*
X18033423Y-11195990D02*
X18014376Y-11205514D01*
X18014376Y-11205514D02*
X18004852Y-11215038D01*
X18004852Y-11215038D02*
X17995328Y-11234086D01*
X17995328Y-11234086D02*
X17995328Y-11272181D01*
X17995328Y-11272181D02*
X18004852Y-11291228D01*
X18004852Y-11291228D02*
X18014376Y-11300752D01*
X18014376Y-11300752D02*
X18033423Y-11310276D01*
X18033423Y-11310276D02*
X18071519Y-11310276D01*
X18071519Y-11310276D02*
X18090566Y-11300752D01*
X18090566Y-11300752D02*
X18100090Y-11291228D01*
X18100090Y-11291228D02*
X18109614Y-11272181D01*
X18109614Y-11272181D02*
X18109614Y-11234086D01*
X18109614Y-11234086D02*
X18100090Y-11215038D01*
X18100090Y-11215038D02*
X18090566Y-11205514D01*
X18090566Y-11205514D02*
X18071519Y-11195990D01*
X18315328Y-11310276D02*
X18315328Y-11110276D01*
X18401042Y-11310276D02*
X18401042Y-11205514D01*
X18401042Y-11205514D02*
X18391519Y-11186467D01*
X18391519Y-11186467D02*
X18372471Y-11176943D01*
X18372471Y-11176943D02*
X18343899Y-11176943D01*
X18343899Y-11176943D02*
X18324852Y-11186467D01*
X18324852Y-11186467D02*
X18315328Y-11195990D01*
X18524852Y-11310276D02*
X18505804Y-11300752D01*
X18505804Y-11300752D02*
X18496280Y-11291228D01*
X18496280Y-11291228D02*
X18486757Y-11272181D01*
X18486757Y-11272181D02*
X18486757Y-11215038D01*
X18486757Y-11215038D02*
X18496280Y-11195990D01*
X18496280Y-11195990D02*
X18505804Y-11186467D01*
X18505804Y-11186467D02*
X18524852Y-11176943D01*
X18524852Y-11176943D02*
X18553423Y-11176943D01*
X18553423Y-11176943D02*
X18572471Y-11186467D01*
X18572471Y-11186467D02*
X18581995Y-11195990D01*
X18581995Y-11195990D02*
X18591519Y-11215038D01*
X18591519Y-11215038D02*
X18591519Y-11272181D01*
X18591519Y-11272181D02*
X18581995Y-11291228D01*
X18581995Y-11291228D02*
X18572471Y-11300752D01*
X18572471Y-11300752D02*
X18553423Y-11310276D01*
X18553423Y-11310276D02*
X18524852Y-11310276D01*
X18705804Y-11310276D02*
X18686757Y-11300752D01*
X18686757Y-11300752D02*
X18677233Y-11281705D01*
X18677233Y-11281705D02*
X18677233Y-11110276D01*
X18858185Y-11300752D02*
X18839138Y-11310276D01*
X18839138Y-11310276D02*
X18801042Y-11310276D01*
X18801042Y-11310276D02*
X18781995Y-11300752D01*
X18781995Y-11300752D02*
X18772471Y-11281705D01*
X18772471Y-11281705D02*
X18772471Y-11205514D01*
X18772471Y-11205514D02*
X18781995Y-11186467D01*
X18781995Y-11186467D02*
X18801042Y-11176943D01*
X18801042Y-11176943D02*
X18839138Y-11176943D01*
X18839138Y-11176943D02*
X18858185Y-11186467D01*
X18858185Y-11186467D02*
X18867709Y-11205514D01*
X18867709Y-11205514D02*
X18867709Y-11224562D01*
X18867709Y-11224562D02*
X18772471Y-11243609D01*
X18943900Y-11300752D02*
X18962947Y-11310276D01*
X18962947Y-11310276D02*
X19001042Y-11310276D01*
X19001042Y-11310276D02*
X19020090Y-11300752D01*
X19020090Y-11300752D02*
X19029614Y-11281705D01*
X19029614Y-11281705D02*
X19029614Y-11272181D01*
X19029614Y-11272181D02*
X19020090Y-11253133D01*
X19020090Y-11253133D02*
X19001042Y-11243609D01*
X19001042Y-11243609D02*
X18972471Y-11243609D01*
X18972471Y-11243609D02*
X18953423Y-11234086D01*
X18953423Y-11234086D02*
X18943900Y-11215038D01*
X18943900Y-11215038D02*
X18943900Y-11205514D01*
X18943900Y-11205514D02*
X18953423Y-11186467D01*
X18953423Y-11186467D02*
X18972471Y-11176943D01*
X18972471Y-11176943D02*
X19001042Y-11176943D01*
X19001042Y-11176943D02*
X19020090Y-11186467D01*
X19096281Y-11386467D02*
X19105804Y-11376943D01*
X19105804Y-11376943D02*
X19124852Y-11348371D01*
X19124852Y-11348371D02*
X19134376Y-11329324D01*
X19134376Y-11329324D02*
X19143900Y-11300752D01*
X19143900Y-11300752D02*
X19153423Y-11253133D01*
X19153423Y-11253133D02*
X19153423Y-11215038D01*
X19153423Y-11215038D02*
X19143900Y-11167419D01*
X19143900Y-11167419D02*
X19134376Y-11138848D01*
X19134376Y-11138848D02*
X19124852Y-11119800D01*
X19124852Y-11119800D02*
X19105804Y-11091229D01*
X19105804Y-11091229D02*
X19096281Y-11081705D01*
D13*
X14273423Y-11500800D02*
G75*
G03*
X14273423Y-11500800I-30000J0D01*
G01*
D11*
X14559137Y-11374276D02*
X14578185Y-11374276D01*
X14578185Y-11374276D02*
X14597233Y-11383800D01*
X14597233Y-11383800D02*
X14606756Y-11393324D01*
X14606756Y-11393324D02*
X14616280Y-11412371D01*
X14616280Y-11412371D02*
X14625804Y-11450467D01*
X14625804Y-11450467D02*
X14625804Y-11498086D01*
X14625804Y-11498086D02*
X14616280Y-11536181D01*
X14616280Y-11536181D02*
X14606756Y-11555228D01*
X14606756Y-11555228D02*
X14597233Y-11564752D01*
X14597233Y-11564752D02*
X14578185Y-11574276D01*
X14578185Y-11574276D02*
X14559137Y-11574276D01*
X14559137Y-11574276D02*
X14540090Y-11564752D01*
X14540090Y-11564752D02*
X14530566Y-11555228D01*
X14530566Y-11555228D02*
X14521042Y-11536181D01*
X14521042Y-11536181D02*
X14511518Y-11498086D01*
X14511518Y-11498086D02*
X14511518Y-11450467D01*
X14511518Y-11450467D02*
X14521042Y-11412371D01*
X14521042Y-11412371D02*
X14530566Y-11393324D01*
X14530566Y-11393324D02*
X14540090Y-11383800D01*
X14540090Y-11383800D02*
X14559137Y-11374276D01*
X14711518Y-11555228D02*
X14721042Y-11564752D01*
X14721042Y-11564752D02*
X14711518Y-11574276D01*
X14711518Y-11574276D02*
X14701994Y-11564752D01*
X14701994Y-11564752D02*
X14711518Y-11555228D01*
X14711518Y-11555228D02*
X14711518Y-11574276D01*
X14892471Y-11374276D02*
X14854375Y-11374276D01*
X14854375Y-11374276D02*
X14835328Y-11383800D01*
X14835328Y-11383800D02*
X14825804Y-11393324D01*
X14825804Y-11393324D02*
X14806756Y-11421895D01*
X14806756Y-11421895D02*
X14797233Y-11459990D01*
X14797233Y-11459990D02*
X14797233Y-11536181D01*
X14797233Y-11536181D02*
X14806756Y-11555228D01*
X14806756Y-11555228D02*
X14816280Y-11564752D01*
X14816280Y-11564752D02*
X14835328Y-11574276D01*
X14835328Y-11574276D02*
X14873423Y-11574276D01*
X14873423Y-11574276D02*
X14892471Y-11564752D01*
X14892471Y-11564752D02*
X14901994Y-11555228D01*
X14901994Y-11555228D02*
X14911518Y-11536181D01*
X14911518Y-11536181D02*
X14911518Y-11488562D01*
X14911518Y-11488562D02*
X14901994Y-11469514D01*
X14901994Y-11469514D02*
X14892471Y-11459990D01*
X14892471Y-11459990D02*
X14873423Y-11450467D01*
X14873423Y-11450467D02*
X14835328Y-11450467D01*
X14835328Y-11450467D02*
X14816280Y-11459990D01*
X14816280Y-11459990D02*
X14806756Y-11469514D01*
X14806756Y-11469514D02*
X14797233Y-11488562D01*
X15035328Y-11374276D02*
X15054375Y-11374276D01*
X15054375Y-11374276D02*
X15073423Y-11383800D01*
X15073423Y-11383800D02*
X15082947Y-11393324D01*
X15082947Y-11393324D02*
X15092471Y-11412371D01*
X15092471Y-11412371D02*
X15101994Y-11450467D01*
X15101994Y-11450467D02*
X15101994Y-11498086D01*
X15101994Y-11498086D02*
X15092471Y-11536181D01*
X15092471Y-11536181D02*
X15082947Y-11555228D01*
X15082947Y-11555228D02*
X15073423Y-11564752D01*
X15073423Y-11564752D02*
X15054375Y-11574276D01*
X15054375Y-11574276D02*
X15035328Y-11574276D01*
X15035328Y-11574276D02*
X15016280Y-11564752D01*
X15016280Y-11564752D02*
X15006756Y-11555228D01*
X15006756Y-11555228D02*
X14997233Y-11536181D01*
X14997233Y-11536181D02*
X14987709Y-11498086D01*
X14987709Y-11498086D02*
X14987709Y-11450467D01*
X14987709Y-11450467D02*
X14997233Y-11412371D01*
X14997233Y-11412371D02*
X15006756Y-11393324D01*
X15006756Y-11393324D02*
X15016280Y-11383800D01*
X15016280Y-11383800D02*
X15035328Y-11374276D01*
X15225804Y-11374276D02*
X15244852Y-11374276D01*
X15244852Y-11374276D02*
X15263899Y-11383800D01*
X15263899Y-11383800D02*
X15273423Y-11393324D01*
X15273423Y-11393324D02*
X15282947Y-11412371D01*
X15282947Y-11412371D02*
X15292471Y-11450467D01*
X15292471Y-11450467D02*
X15292471Y-11498086D01*
X15292471Y-11498086D02*
X15282947Y-11536181D01*
X15282947Y-11536181D02*
X15273423Y-11555228D01*
X15273423Y-11555228D02*
X15263899Y-11564752D01*
X15263899Y-11564752D02*
X15244852Y-11574276D01*
X15244852Y-11574276D02*
X15225804Y-11574276D01*
X15225804Y-11574276D02*
X15206756Y-11564752D01*
X15206756Y-11564752D02*
X15197233Y-11555228D01*
X15197233Y-11555228D02*
X15187709Y-11536181D01*
X15187709Y-11536181D02*
X15178185Y-11498086D01*
X15178185Y-11498086D02*
X15178185Y-11450467D01*
X15178185Y-11450467D02*
X15187709Y-11412371D01*
X15187709Y-11412371D02*
X15197233Y-11393324D01*
X15197233Y-11393324D02*
X15206756Y-11383800D01*
X15206756Y-11383800D02*
X15225804Y-11374276D01*
X15378185Y-11574276D02*
X15378185Y-11440943D01*
X15378185Y-11459990D02*
X15387709Y-11450467D01*
X15387709Y-11450467D02*
X15406756Y-11440943D01*
X15406756Y-11440943D02*
X15435328Y-11440943D01*
X15435328Y-11440943D02*
X15454375Y-11450467D01*
X15454375Y-11450467D02*
X15463899Y-11469514D01*
X15463899Y-11469514D02*
X15463899Y-11574276D01*
X15463899Y-11469514D02*
X15473423Y-11450467D01*
X15473423Y-11450467D02*
X15492471Y-11440943D01*
X15492471Y-11440943D02*
X15521042Y-11440943D01*
X15521042Y-11440943D02*
X15540090Y-11450467D01*
X15540090Y-11450467D02*
X15549614Y-11469514D01*
X15549614Y-11469514D02*
X15549614Y-11574276D01*
X15644852Y-11574276D02*
X15644852Y-11440943D01*
X15644852Y-11459990D02*
X15654375Y-11450467D01*
X15654375Y-11450467D02*
X15673423Y-11440943D01*
X15673423Y-11440943D02*
X15701995Y-11440943D01*
X15701995Y-11440943D02*
X15721042Y-11450467D01*
X15721042Y-11450467D02*
X15730566Y-11469514D01*
X15730566Y-11469514D02*
X15730566Y-11574276D01*
X15730566Y-11469514D02*
X15740090Y-11450467D01*
X15740090Y-11450467D02*
X15759137Y-11440943D01*
X15759137Y-11440943D02*
X15787709Y-11440943D01*
X15787709Y-11440943D02*
X15806756Y-11450467D01*
X15806756Y-11450467D02*
X15816280Y-11469514D01*
X15816280Y-11469514D02*
X15816280Y-11574276D01*
X16174375Y-11364752D02*
X16002947Y-11621895D01*
X16399137Y-11374276D02*
X16418185Y-11374276D01*
X16418185Y-11374276D02*
X16437233Y-11383800D01*
X16437233Y-11383800D02*
X16446756Y-11393324D01*
X16446756Y-11393324D02*
X16456280Y-11412371D01*
X16456280Y-11412371D02*
X16465804Y-11450467D01*
X16465804Y-11450467D02*
X16465804Y-11498086D01*
X16465804Y-11498086D02*
X16456280Y-11536181D01*
X16456280Y-11536181D02*
X16446756Y-11555228D01*
X16446756Y-11555228D02*
X16437233Y-11564752D01*
X16437233Y-11564752D02*
X16418185Y-11574276D01*
X16418185Y-11574276D02*
X16399137Y-11574276D01*
X16399137Y-11574276D02*
X16380090Y-11564752D01*
X16380090Y-11564752D02*
X16370566Y-11555228D01*
X16370566Y-11555228D02*
X16361042Y-11536181D01*
X16361042Y-11536181D02*
X16351518Y-11498086D01*
X16351518Y-11498086D02*
X16351518Y-11450467D01*
X16351518Y-11450467D02*
X16361042Y-11412371D01*
X16361042Y-11412371D02*
X16370566Y-11393324D01*
X16370566Y-11393324D02*
X16380090Y-11383800D01*
X16380090Y-11383800D02*
X16399137Y-11374276D01*
X16551518Y-11555228D02*
X16561042Y-11564752D01*
X16561042Y-11564752D02*
X16551518Y-11574276D01*
X16551518Y-11574276D02*
X16541995Y-11564752D01*
X16541995Y-11564752D02*
X16551518Y-11555228D01*
X16551518Y-11555228D02*
X16551518Y-11574276D01*
X16684852Y-11374276D02*
X16703899Y-11374276D01*
X16703899Y-11374276D02*
X16722947Y-11383800D01*
X16722947Y-11383800D02*
X16732471Y-11393324D01*
X16732471Y-11393324D02*
X16741995Y-11412371D01*
X16741995Y-11412371D02*
X16751518Y-11450467D01*
X16751518Y-11450467D02*
X16751518Y-11498086D01*
X16751518Y-11498086D02*
X16741995Y-11536181D01*
X16741995Y-11536181D02*
X16732471Y-11555228D01*
X16732471Y-11555228D02*
X16722947Y-11564752D01*
X16722947Y-11564752D02*
X16703899Y-11574276D01*
X16703899Y-11574276D02*
X16684852Y-11574276D01*
X16684852Y-11574276D02*
X16665804Y-11564752D01*
X16665804Y-11564752D02*
X16656280Y-11555228D01*
X16656280Y-11555228D02*
X16646756Y-11536181D01*
X16646756Y-11536181D02*
X16637233Y-11498086D01*
X16637233Y-11498086D02*
X16637233Y-11450467D01*
X16637233Y-11450467D02*
X16646756Y-11412371D01*
X16646756Y-11412371D02*
X16656280Y-11393324D01*
X16656280Y-11393324D02*
X16665804Y-11383800D01*
X16665804Y-11383800D02*
X16684852Y-11374276D01*
X16827709Y-11393324D02*
X16837233Y-11383800D01*
X16837233Y-11383800D02*
X16856280Y-11374276D01*
X16856280Y-11374276D02*
X16903899Y-11374276D01*
X16903899Y-11374276D02*
X16922947Y-11383800D01*
X16922947Y-11383800D02*
X16932471Y-11393324D01*
X16932471Y-11393324D02*
X16941995Y-11412371D01*
X16941995Y-11412371D02*
X16941995Y-11431419D01*
X16941995Y-11431419D02*
X16932471Y-11459990D01*
X16932471Y-11459990D02*
X16818185Y-11574276D01*
X16818185Y-11574276D02*
X16941995Y-11574276D01*
X17008661Y-11374276D02*
X17132471Y-11374276D01*
X17132471Y-11374276D02*
X17065804Y-11450467D01*
X17065804Y-11450467D02*
X17094376Y-11450467D01*
X17094376Y-11450467D02*
X17113423Y-11459990D01*
X17113423Y-11459990D02*
X17122947Y-11469514D01*
X17122947Y-11469514D02*
X17132471Y-11488562D01*
X17132471Y-11488562D02*
X17132471Y-11536181D01*
X17132471Y-11536181D02*
X17122947Y-11555228D01*
X17122947Y-11555228D02*
X17113423Y-11564752D01*
X17113423Y-11564752D02*
X17094376Y-11574276D01*
X17094376Y-11574276D02*
X17037233Y-11574276D01*
X17037233Y-11574276D02*
X17018185Y-11564752D01*
X17018185Y-11564752D02*
X17008661Y-11555228D01*
X17303899Y-11374276D02*
X17265804Y-11374276D01*
X17265804Y-11374276D02*
X17246757Y-11383800D01*
X17246757Y-11383800D02*
X17237233Y-11393324D01*
X17237233Y-11393324D02*
X17218185Y-11421895D01*
X17218185Y-11421895D02*
X17208661Y-11459990D01*
X17208661Y-11459990D02*
X17208661Y-11536181D01*
X17208661Y-11536181D02*
X17218185Y-11555228D01*
X17218185Y-11555228D02*
X17227709Y-11564752D01*
X17227709Y-11564752D02*
X17246757Y-11574276D01*
X17246757Y-11574276D02*
X17284852Y-11574276D01*
X17284852Y-11574276D02*
X17303899Y-11564752D01*
X17303899Y-11564752D02*
X17313423Y-11555228D01*
X17313423Y-11555228D02*
X17322947Y-11536181D01*
X17322947Y-11536181D02*
X17322947Y-11488562D01*
X17322947Y-11488562D02*
X17313423Y-11469514D01*
X17313423Y-11469514D02*
X17303899Y-11459990D01*
X17303899Y-11459990D02*
X17284852Y-11450467D01*
X17284852Y-11450467D02*
X17246757Y-11450467D01*
X17246757Y-11450467D02*
X17227709Y-11459990D01*
X17227709Y-11459990D02*
X17218185Y-11469514D01*
X17218185Y-11469514D02*
X17208661Y-11488562D01*
X17399138Y-11374276D02*
X17399138Y-11412371D01*
X17475328Y-11374276D02*
X17475328Y-11412371D01*
X17738185Y-11650467D02*
X17728661Y-11640943D01*
X17728661Y-11640943D02*
X17709614Y-11612371D01*
X17709614Y-11612371D02*
X17700090Y-11593324D01*
X17700090Y-11593324D02*
X17690566Y-11564752D01*
X17690566Y-11564752D02*
X17681042Y-11517133D01*
X17681042Y-11517133D02*
X17681042Y-11479038D01*
X17681042Y-11479038D02*
X17690566Y-11431419D01*
X17690566Y-11431419D02*
X17700090Y-11402848D01*
X17700090Y-11402848D02*
X17709614Y-11383800D01*
X17709614Y-11383800D02*
X17728661Y-11355228D01*
X17728661Y-11355228D02*
X17738185Y-11345705D01*
X17852471Y-11374276D02*
X17871519Y-11374276D01*
X17871519Y-11374276D02*
X17890566Y-11383800D01*
X17890566Y-11383800D02*
X17900090Y-11393324D01*
X17900090Y-11393324D02*
X17909614Y-11412371D01*
X17909614Y-11412371D02*
X17919138Y-11450467D01*
X17919138Y-11450467D02*
X17919138Y-11498086D01*
X17919138Y-11498086D02*
X17909614Y-11536181D01*
X17909614Y-11536181D02*
X17900090Y-11555228D01*
X17900090Y-11555228D02*
X17890566Y-11564752D01*
X17890566Y-11564752D02*
X17871519Y-11574276D01*
X17871519Y-11574276D02*
X17852471Y-11574276D01*
X17852471Y-11574276D02*
X17833423Y-11564752D01*
X17833423Y-11564752D02*
X17823899Y-11555228D01*
X17823899Y-11555228D02*
X17814376Y-11536181D01*
X17814376Y-11536181D02*
X17804852Y-11498086D01*
X17804852Y-11498086D02*
X17804852Y-11450467D01*
X17804852Y-11450467D02*
X17814376Y-11412371D01*
X17814376Y-11412371D02*
X17823899Y-11393324D01*
X17823899Y-11393324D02*
X17833423Y-11383800D01*
X17833423Y-11383800D02*
X17852471Y-11374276D01*
X18124852Y-11574276D02*
X18124852Y-11374276D01*
X18210566Y-11574276D02*
X18210566Y-11469514D01*
X18210566Y-11469514D02*
X18201042Y-11450467D01*
X18201042Y-11450467D02*
X18181995Y-11440943D01*
X18181995Y-11440943D02*
X18153423Y-11440943D01*
X18153423Y-11440943D02*
X18134376Y-11450467D01*
X18134376Y-11450467D02*
X18124852Y-11459990D01*
X18334376Y-11574276D02*
X18315328Y-11564752D01*
X18315328Y-11564752D02*
X18305804Y-11555228D01*
X18305804Y-11555228D02*
X18296280Y-11536181D01*
X18296280Y-11536181D02*
X18296280Y-11479038D01*
X18296280Y-11479038D02*
X18305804Y-11459990D01*
X18305804Y-11459990D02*
X18315328Y-11450467D01*
X18315328Y-11450467D02*
X18334376Y-11440943D01*
X18334376Y-11440943D02*
X18362947Y-11440943D01*
X18362947Y-11440943D02*
X18381995Y-11450467D01*
X18381995Y-11450467D02*
X18391519Y-11459990D01*
X18391519Y-11459990D02*
X18401042Y-11479038D01*
X18401042Y-11479038D02*
X18401042Y-11536181D01*
X18401042Y-11536181D02*
X18391519Y-11555228D01*
X18391519Y-11555228D02*
X18381995Y-11564752D01*
X18381995Y-11564752D02*
X18362947Y-11574276D01*
X18362947Y-11574276D02*
X18334376Y-11574276D01*
X18515328Y-11574276D02*
X18496280Y-11564752D01*
X18496280Y-11564752D02*
X18486757Y-11545705D01*
X18486757Y-11545705D02*
X18486757Y-11374276D01*
X18667709Y-11564752D02*
X18648661Y-11574276D01*
X18648661Y-11574276D02*
X18610566Y-11574276D01*
X18610566Y-11574276D02*
X18591519Y-11564752D01*
X18591519Y-11564752D02*
X18581995Y-11545705D01*
X18581995Y-11545705D02*
X18581995Y-11469514D01*
X18581995Y-11469514D02*
X18591519Y-11450467D01*
X18591519Y-11450467D02*
X18610566Y-11440943D01*
X18610566Y-11440943D02*
X18648661Y-11440943D01*
X18648661Y-11440943D02*
X18667709Y-11450467D01*
X18667709Y-11450467D02*
X18677233Y-11469514D01*
X18677233Y-11469514D02*
X18677233Y-11488562D01*
X18677233Y-11488562D02*
X18581995Y-11507609D01*
X18753423Y-11564752D02*
X18772471Y-11574276D01*
X18772471Y-11574276D02*
X18810566Y-11574276D01*
X18810566Y-11574276D02*
X18829614Y-11564752D01*
X18829614Y-11564752D02*
X18839138Y-11545705D01*
X18839138Y-11545705D02*
X18839138Y-11536181D01*
X18839138Y-11536181D02*
X18829614Y-11517133D01*
X18829614Y-11517133D02*
X18810566Y-11507609D01*
X18810566Y-11507609D02*
X18781995Y-11507609D01*
X18781995Y-11507609D02*
X18762947Y-11498086D01*
X18762947Y-11498086D02*
X18753423Y-11479038D01*
X18753423Y-11479038D02*
X18753423Y-11469514D01*
X18753423Y-11469514D02*
X18762947Y-11450467D01*
X18762947Y-11450467D02*
X18781995Y-11440943D01*
X18781995Y-11440943D02*
X18810566Y-11440943D01*
X18810566Y-11440943D02*
X18829614Y-11450467D01*
X19044852Y-11498086D02*
X19197233Y-11498086D01*
X19121042Y-11574276D02*
X19121042Y-11421895D01*
X19402947Y-11393324D02*
X19412471Y-11383800D01*
X19412471Y-11383800D02*
X19431519Y-11374276D01*
X19431519Y-11374276D02*
X19479138Y-11374276D01*
X19479138Y-11374276D02*
X19498185Y-11383800D01*
X19498185Y-11383800D02*
X19507709Y-11393324D01*
X19507709Y-11393324D02*
X19517233Y-11412371D01*
X19517233Y-11412371D02*
X19517233Y-11431419D01*
X19517233Y-11431419D02*
X19507709Y-11459990D01*
X19507709Y-11459990D02*
X19393423Y-11574276D01*
X19393423Y-11574276D02*
X19517233Y-11574276D01*
X19713423Y-11564752D02*
X19732471Y-11574276D01*
X19732471Y-11574276D02*
X19770566Y-11574276D01*
X19770566Y-11574276D02*
X19789614Y-11564752D01*
X19789614Y-11564752D02*
X19799138Y-11545705D01*
X19799138Y-11545705D02*
X19799138Y-11536181D01*
X19799138Y-11536181D02*
X19789614Y-11517133D01*
X19789614Y-11517133D02*
X19770566Y-11507609D01*
X19770566Y-11507609D02*
X19741995Y-11507609D01*
X19741995Y-11507609D02*
X19722947Y-11498086D01*
X19722947Y-11498086D02*
X19713423Y-11479038D01*
X19713423Y-11479038D02*
X19713423Y-11469514D01*
X19713423Y-11469514D02*
X19722947Y-11450467D01*
X19722947Y-11450467D02*
X19741995Y-11440943D01*
X19741995Y-11440943D02*
X19770566Y-11440943D01*
X19770566Y-11440943D02*
X19789614Y-11450467D01*
X19913423Y-11574276D02*
X19894376Y-11564752D01*
X19894376Y-11564752D02*
X19884852Y-11545705D01*
X19884852Y-11545705D02*
X19884852Y-11374276D01*
X20018185Y-11574276D02*
X19999138Y-11564752D01*
X19999138Y-11564752D02*
X19989614Y-11555228D01*
X19989614Y-11555228D02*
X19980090Y-11536181D01*
X19980090Y-11536181D02*
X19980090Y-11479038D01*
X19980090Y-11479038D02*
X19989614Y-11459990D01*
X19989614Y-11459990D02*
X19999138Y-11450467D01*
X19999138Y-11450467D02*
X20018185Y-11440943D01*
X20018185Y-11440943D02*
X20046757Y-11440943D01*
X20046757Y-11440943D02*
X20065804Y-11450467D01*
X20065804Y-11450467D02*
X20075328Y-11459990D01*
X20075328Y-11459990D02*
X20084852Y-11479038D01*
X20084852Y-11479038D02*
X20084852Y-11536181D01*
X20084852Y-11536181D02*
X20075328Y-11555228D01*
X20075328Y-11555228D02*
X20065804Y-11564752D01*
X20065804Y-11564752D02*
X20046757Y-11574276D01*
X20046757Y-11574276D02*
X20018185Y-11574276D01*
X20141995Y-11440943D02*
X20218185Y-11440943D01*
X20170566Y-11374276D02*
X20170566Y-11545705D01*
X20170566Y-11545705D02*
X20180090Y-11564752D01*
X20180090Y-11564752D02*
X20199138Y-11574276D01*
X20199138Y-11574276D02*
X20218185Y-11574276D01*
X20275328Y-11564752D02*
X20294376Y-11574276D01*
X20294376Y-11574276D02*
X20332471Y-11574276D01*
X20332471Y-11574276D02*
X20351519Y-11564752D01*
X20351519Y-11564752D02*
X20361042Y-11545705D01*
X20361042Y-11545705D02*
X20361042Y-11536181D01*
X20361042Y-11536181D02*
X20351519Y-11517133D01*
X20351519Y-11517133D02*
X20332471Y-11507609D01*
X20332471Y-11507609D02*
X20303900Y-11507609D01*
X20303900Y-11507609D02*
X20284852Y-11498086D01*
X20284852Y-11498086D02*
X20275328Y-11479038D01*
X20275328Y-11479038D02*
X20275328Y-11469514D01*
X20275328Y-11469514D02*
X20284852Y-11450467D01*
X20284852Y-11450467D02*
X20303900Y-11440943D01*
X20303900Y-11440943D02*
X20332471Y-11440943D01*
X20332471Y-11440943D02*
X20351519Y-11450467D01*
X20427709Y-11650467D02*
X20437233Y-11640943D01*
X20437233Y-11640943D02*
X20456281Y-11612371D01*
X20456281Y-11612371D02*
X20465804Y-11593324D01*
X20465804Y-11593324D02*
X20475328Y-11564752D01*
X20475328Y-11564752D02*
X20484852Y-11517133D01*
X20484852Y-11517133D02*
X20484852Y-11479038D01*
X20484852Y-11479038D02*
X20475328Y-11431419D01*
X20475328Y-11431419D02*
X20465804Y-11402848D01*
X20465804Y-11402848D02*
X20456281Y-11383800D01*
X20456281Y-11383800D02*
X20437233Y-11355228D01*
X20437233Y-11355228D02*
X20427709Y-11345705D01*
D14*
X14230923Y-11722300D02*
X14230923Y-11807300D01*
X14188423Y-11764800D02*
X14273423Y-11764800D01*
D11*
X14559137Y-11638276D02*
X14578185Y-11638276D01*
X14578185Y-11638276D02*
X14597233Y-11647800D01*
X14597233Y-11647800D02*
X14606756Y-11657324D01*
X14606756Y-11657324D02*
X14616280Y-11676371D01*
X14616280Y-11676371D02*
X14625804Y-11714467D01*
X14625804Y-11714467D02*
X14625804Y-11762086D01*
X14625804Y-11762086D02*
X14616280Y-11800181D01*
X14616280Y-11800181D02*
X14606756Y-11819228D01*
X14606756Y-11819228D02*
X14597233Y-11828752D01*
X14597233Y-11828752D02*
X14578185Y-11838276D01*
X14578185Y-11838276D02*
X14559137Y-11838276D01*
X14559137Y-11838276D02*
X14540090Y-11828752D01*
X14540090Y-11828752D02*
X14530566Y-11819228D01*
X14530566Y-11819228D02*
X14521042Y-11800181D01*
X14521042Y-11800181D02*
X14511518Y-11762086D01*
X14511518Y-11762086D02*
X14511518Y-11714467D01*
X14511518Y-11714467D02*
X14521042Y-11676371D01*
X14521042Y-11676371D02*
X14530566Y-11657324D01*
X14530566Y-11657324D02*
X14540090Y-11647800D01*
X14540090Y-11647800D02*
X14559137Y-11638276D01*
X14711518Y-11819228D02*
X14721042Y-11828752D01*
X14721042Y-11828752D02*
X14711518Y-11838276D01*
X14711518Y-11838276D02*
X14701994Y-11828752D01*
X14701994Y-11828752D02*
X14711518Y-11819228D01*
X14711518Y-11819228D02*
X14711518Y-11838276D01*
X14835328Y-11723990D02*
X14816280Y-11714467D01*
X14816280Y-11714467D02*
X14806756Y-11704943D01*
X14806756Y-11704943D02*
X14797233Y-11685895D01*
X14797233Y-11685895D02*
X14797233Y-11676371D01*
X14797233Y-11676371D02*
X14806756Y-11657324D01*
X14806756Y-11657324D02*
X14816280Y-11647800D01*
X14816280Y-11647800D02*
X14835328Y-11638276D01*
X14835328Y-11638276D02*
X14873423Y-11638276D01*
X14873423Y-11638276D02*
X14892471Y-11647800D01*
X14892471Y-11647800D02*
X14901994Y-11657324D01*
X14901994Y-11657324D02*
X14911518Y-11676371D01*
X14911518Y-11676371D02*
X14911518Y-11685895D01*
X14911518Y-11685895D02*
X14901994Y-11704943D01*
X14901994Y-11704943D02*
X14892471Y-11714467D01*
X14892471Y-11714467D02*
X14873423Y-11723990D01*
X14873423Y-11723990D02*
X14835328Y-11723990D01*
X14835328Y-11723990D02*
X14816280Y-11733514D01*
X14816280Y-11733514D02*
X14806756Y-11743038D01*
X14806756Y-11743038D02*
X14797233Y-11762086D01*
X14797233Y-11762086D02*
X14797233Y-11800181D01*
X14797233Y-11800181D02*
X14806756Y-11819228D01*
X14806756Y-11819228D02*
X14816280Y-11828752D01*
X14816280Y-11828752D02*
X14835328Y-11838276D01*
X14835328Y-11838276D02*
X14873423Y-11838276D01*
X14873423Y-11838276D02*
X14892471Y-11828752D01*
X14892471Y-11828752D02*
X14901994Y-11819228D01*
X14901994Y-11819228D02*
X14911518Y-11800181D01*
X14911518Y-11800181D02*
X14911518Y-11762086D01*
X14911518Y-11762086D02*
X14901994Y-11743038D01*
X14901994Y-11743038D02*
X14892471Y-11733514D01*
X14892471Y-11733514D02*
X14873423Y-11723990D01*
X15092471Y-11638276D02*
X14997233Y-11638276D01*
X14997233Y-11638276D02*
X14987709Y-11733514D01*
X14987709Y-11733514D02*
X14997233Y-11723990D01*
X14997233Y-11723990D02*
X15016280Y-11714467D01*
X15016280Y-11714467D02*
X15063899Y-11714467D01*
X15063899Y-11714467D02*
X15082947Y-11723990D01*
X15082947Y-11723990D02*
X15092471Y-11733514D01*
X15092471Y-11733514D02*
X15101994Y-11752562D01*
X15101994Y-11752562D02*
X15101994Y-11800181D01*
X15101994Y-11800181D02*
X15092471Y-11819228D01*
X15092471Y-11819228D02*
X15082947Y-11828752D01*
X15082947Y-11828752D02*
X15063899Y-11838276D01*
X15063899Y-11838276D02*
X15016280Y-11838276D01*
X15016280Y-11838276D02*
X14997233Y-11828752D01*
X14997233Y-11828752D02*
X14987709Y-11819228D01*
X15225804Y-11638276D02*
X15244852Y-11638276D01*
X15244852Y-11638276D02*
X15263899Y-11647800D01*
X15263899Y-11647800D02*
X15273423Y-11657324D01*
X15273423Y-11657324D02*
X15282947Y-11676371D01*
X15282947Y-11676371D02*
X15292471Y-11714467D01*
X15292471Y-11714467D02*
X15292471Y-11762086D01*
X15292471Y-11762086D02*
X15282947Y-11800181D01*
X15282947Y-11800181D02*
X15273423Y-11819228D01*
X15273423Y-11819228D02*
X15263899Y-11828752D01*
X15263899Y-11828752D02*
X15244852Y-11838276D01*
X15244852Y-11838276D02*
X15225804Y-11838276D01*
X15225804Y-11838276D02*
X15206756Y-11828752D01*
X15206756Y-11828752D02*
X15197233Y-11819228D01*
X15197233Y-11819228D02*
X15187709Y-11800181D01*
X15187709Y-11800181D02*
X15178185Y-11762086D01*
X15178185Y-11762086D02*
X15178185Y-11714467D01*
X15178185Y-11714467D02*
X15187709Y-11676371D01*
X15187709Y-11676371D02*
X15197233Y-11657324D01*
X15197233Y-11657324D02*
X15206756Y-11647800D01*
X15206756Y-11647800D02*
X15225804Y-11638276D01*
X15378185Y-11838276D02*
X15378185Y-11704943D01*
X15378185Y-11723990D02*
X15387709Y-11714467D01*
X15387709Y-11714467D02*
X15406756Y-11704943D01*
X15406756Y-11704943D02*
X15435328Y-11704943D01*
X15435328Y-11704943D02*
X15454375Y-11714467D01*
X15454375Y-11714467D02*
X15463899Y-11733514D01*
X15463899Y-11733514D02*
X15463899Y-11838276D01*
X15463899Y-11733514D02*
X15473423Y-11714467D01*
X15473423Y-11714467D02*
X15492471Y-11704943D01*
X15492471Y-11704943D02*
X15521042Y-11704943D01*
X15521042Y-11704943D02*
X15540090Y-11714467D01*
X15540090Y-11714467D02*
X15549614Y-11733514D01*
X15549614Y-11733514D02*
X15549614Y-11838276D01*
X15644852Y-11838276D02*
X15644852Y-11704943D01*
X15644852Y-11723990D02*
X15654375Y-11714467D01*
X15654375Y-11714467D02*
X15673423Y-11704943D01*
X15673423Y-11704943D02*
X15701995Y-11704943D01*
X15701995Y-11704943D02*
X15721042Y-11714467D01*
X15721042Y-11714467D02*
X15730566Y-11733514D01*
X15730566Y-11733514D02*
X15730566Y-11838276D01*
X15730566Y-11733514D02*
X15740090Y-11714467D01*
X15740090Y-11714467D02*
X15759137Y-11704943D01*
X15759137Y-11704943D02*
X15787709Y-11704943D01*
X15787709Y-11704943D02*
X15806756Y-11714467D01*
X15806756Y-11714467D02*
X15816280Y-11733514D01*
X15816280Y-11733514D02*
X15816280Y-11838276D01*
X16174375Y-11628752D02*
X16002947Y-11885895D01*
X16399137Y-11638276D02*
X16418185Y-11638276D01*
X16418185Y-11638276D02*
X16437233Y-11647800D01*
X16437233Y-11647800D02*
X16446756Y-11657324D01*
X16446756Y-11657324D02*
X16456280Y-11676371D01*
X16456280Y-11676371D02*
X16465804Y-11714467D01*
X16465804Y-11714467D02*
X16465804Y-11762086D01*
X16465804Y-11762086D02*
X16456280Y-11800181D01*
X16456280Y-11800181D02*
X16446756Y-11819228D01*
X16446756Y-11819228D02*
X16437233Y-11828752D01*
X16437233Y-11828752D02*
X16418185Y-11838276D01*
X16418185Y-11838276D02*
X16399137Y-11838276D01*
X16399137Y-11838276D02*
X16380090Y-11828752D01*
X16380090Y-11828752D02*
X16370566Y-11819228D01*
X16370566Y-11819228D02*
X16361042Y-11800181D01*
X16361042Y-11800181D02*
X16351518Y-11762086D01*
X16351518Y-11762086D02*
X16351518Y-11714467D01*
X16351518Y-11714467D02*
X16361042Y-11676371D01*
X16361042Y-11676371D02*
X16370566Y-11657324D01*
X16370566Y-11657324D02*
X16380090Y-11647800D01*
X16380090Y-11647800D02*
X16399137Y-11638276D01*
X16551518Y-11819228D02*
X16561042Y-11828752D01*
X16561042Y-11828752D02*
X16551518Y-11838276D01*
X16551518Y-11838276D02*
X16541995Y-11828752D01*
X16541995Y-11828752D02*
X16551518Y-11819228D01*
X16551518Y-11819228D02*
X16551518Y-11838276D01*
X16684852Y-11638276D02*
X16703899Y-11638276D01*
X16703899Y-11638276D02*
X16722947Y-11647800D01*
X16722947Y-11647800D02*
X16732471Y-11657324D01*
X16732471Y-11657324D02*
X16741995Y-11676371D01*
X16741995Y-11676371D02*
X16751518Y-11714467D01*
X16751518Y-11714467D02*
X16751518Y-11762086D01*
X16751518Y-11762086D02*
X16741995Y-11800181D01*
X16741995Y-11800181D02*
X16732471Y-11819228D01*
X16732471Y-11819228D02*
X16722947Y-11828752D01*
X16722947Y-11828752D02*
X16703899Y-11838276D01*
X16703899Y-11838276D02*
X16684852Y-11838276D01*
X16684852Y-11838276D02*
X16665804Y-11828752D01*
X16665804Y-11828752D02*
X16656280Y-11819228D01*
X16656280Y-11819228D02*
X16646756Y-11800181D01*
X16646756Y-11800181D02*
X16637233Y-11762086D01*
X16637233Y-11762086D02*
X16637233Y-11714467D01*
X16637233Y-11714467D02*
X16646756Y-11676371D01*
X16646756Y-11676371D02*
X16656280Y-11657324D01*
X16656280Y-11657324D02*
X16665804Y-11647800D01*
X16665804Y-11647800D02*
X16684852Y-11638276D01*
X16818185Y-11638276D02*
X16941995Y-11638276D01*
X16941995Y-11638276D02*
X16875328Y-11714467D01*
X16875328Y-11714467D02*
X16903899Y-11714467D01*
X16903899Y-11714467D02*
X16922947Y-11723990D01*
X16922947Y-11723990D02*
X16932471Y-11733514D01*
X16932471Y-11733514D02*
X16941995Y-11752562D01*
X16941995Y-11752562D02*
X16941995Y-11800181D01*
X16941995Y-11800181D02*
X16932471Y-11819228D01*
X16932471Y-11819228D02*
X16922947Y-11828752D01*
X16922947Y-11828752D02*
X16903899Y-11838276D01*
X16903899Y-11838276D02*
X16846757Y-11838276D01*
X16846757Y-11838276D02*
X16827709Y-11828752D01*
X16827709Y-11828752D02*
X16818185Y-11819228D01*
X17008661Y-11638276D02*
X17132471Y-11638276D01*
X17132471Y-11638276D02*
X17065804Y-11714467D01*
X17065804Y-11714467D02*
X17094376Y-11714467D01*
X17094376Y-11714467D02*
X17113423Y-11723990D01*
X17113423Y-11723990D02*
X17122947Y-11733514D01*
X17122947Y-11733514D02*
X17132471Y-11752562D01*
X17132471Y-11752562D02*
X17132471Y-11800181D01*
X17132471Y-11800181D02*
X17122947Y-11819228D01*
X17122947Y-11819228D02*
X17113423Y-11828752D01*
X17113423Y-11828752D02*
X17094376Y-11838276D01*
X17094376Y-11838276D02*
X17037233Y-11838276D01*
X17037233Y-11838276D02*
X17018185Y-11828752D01*
X17018185Y-11828752D02*
X17008661Y-11819228D01*
X17313423Y-11638276D02*
X17218185Y-11638276D01*
X17218185Y-11638276D02*
X17208661Y-11733514D01*
X17208661Y-11733514D02*
X17218185Y-11723990D01*
X17218185Y-11723990D02*
X17237233Y-11714467D01*
X17237233Y-11714467D02*
X17284852Y-11714467D01*
X17284852Y-11714467D02*
X17303899Y-11723990D01*
X17303899Y-11723990D02*
X17313423Y-11733514D01*
X17313423Y-11733514D02*
X17322947Y-11752562D01*
X17322947Y-11752562D02*
X17322947Y-11800181D01*
X17322947Y-11800181D02*
X17313423Y-11819228D01*
X17313423Y-11819228D02*
X17303899Y-11828752D01*
X17303899Y-11828752D02*
X17284852Y-11838276D01*
X17284852Y-11838276D02*
X17237233Y-11838276D01*
X17237233Y-11838276D02*
X17218185Y-11828752D01*
X17218185Y-11828752D02*
X17208661Y-11819228D01*
X17399138Y-11638276D02*
X17399138Y-11676371D01*
X17475328Y-11638276D02*
X17475328Y-11676371D01*
X17738185Y-11914467D02*
X17728661Y-11904943D01*
X17728661Y-11904943D02*
X17709614Y-11876371D01*
X17709614Y-11876371D02*
X17700090Y-11857324D01*
X17700090Y-11857324D02*
X17690566Y-11828752D01*
X17690566Y-11828752D02*
X17681042Y-11781133D01*
X17681042Y-11781133D02*
X17681042Y-11743038D01*
X17681042Y-11743038D02*
X17690566Y-11695419D01*
X17690566Y-11695419D02*
X17700090Y-11666848D01*
X17700090Y-11666848D02*
X17709614Y-11647800D01*
X17709614Y-11647800D02*
X17728661Y-11619228D01*
X17728661Y-11619228D02*
X17738185Y-11609705D01*
X17804852Y-11657324D02*
X17814376Y-11647800D01*
X17814376Y-11647800D02*
X17833423Y-11638276D01*
X17833423Y-11638276D02*
X17881042Y-11638276D01*
X17881042Y-11638276D02*
X17900090Y-11647800D01*
X17900090Y-11647800D02*
X17909614Y-11657324D01*
X17909614Y-11657324D02*
X17919138Y-11676371D01*
X17919138Y-11676371D02*
X17919138Y-11695419D01*
X17919138Y-11695419D02*
X17909614Y-11723990D01*
X17909614Y-11723990D02*
X17795328Y-11838276D01*
X17795328Y-11838276D02*
X17919138Y-11838276D01*
X18124852Y-11838276D02*
X18124852Y-11638276D01*
X18210566Y-11838276D02*
X18210566Y-11733514D01*
X18210566Y-11733514D02*
X18201042Y-11714467D01*
X18201042Y-11714467D02*
X18181995Y-11704943D01*
X18181995Y-11704943D02*
X18153423Y-11704943D01*
X18153423Y-11704943D02*
X18134376Y-11714467D01*
X18134376Y-11714467D02*
X18124852Y-11723990D01*
X18334376Y-11838276D02*
X18315328Y-11828752D01*
X18315328Y-11828752D02*
X18305804Y-11819228D01*
X18305804Y-11819228D02*
X18296280Y-11800181D01*
X18296280Y-11800181D02*
X18296280Y-11743038D01*
X18296280Y-11743038D02*
X18305804Y-11723990D01*
X18305804Y-11723990D02*
X18315328Y-11714467D01*
X18315328Y-11714467D02*
X18334376Y-11704943D01*
X18334376Y-11704943D02*
X18362947Y-11704943D01*
X18362947Y-11704943D02*
X18381995Y-11714467D01*
X18381995Y-11714467D02*
X18391519Y-11723990D01*
X18391519Y-11723990D02*
X18401042Y-11743038D01*
X18401042Y-11743038D02*
X18401042Y-11800181D01*
X18401042Y-11800181D02*
X18391519Y-11819228D01*
X18391519Y-11819228D02*
X18381995Y-11828752D01*
X18381995Y-11828752D02*
X18362947Y-11838276D01*
X18362947Y-11838276D02*
X18334376Y-11838276D01*
X18515328Y-11838276D02*
X18496280Y-11828752D01*
X18496280Y-11828752D02*
X18486757Y-11809705D01*
X18486757Y-11809705D02*
X18486757Y-11638276D01*
X18667709Y-11828752D02*
X18648661Y-11838276D01*
X18648661Y-11838276D02*
X18610566Y-11838276D01*
X18610566Y-11838276D02*
X18591519Y-11828752D01*
X18591519Y-11828752D02*
X18581995Y-11809705D01*
X18581995Y-11809705D02*
X18581995Y-11733514D01*
X18581995Y-11733514D02*
X18591519Y-11714467D01*
X18591519Y-11714467D02*
X18610566Y-11704943D01*
X18610566Y-11704943D02*
X18648661Y-11704943D01*
X18648661Y-11704943D02*
X18667709Y-11714467D01*
X18667709Y-11714467D02*
X18677233Y-11733514D01*
X18677233Y-11733514D02*
X18677233Y-11752562D01*
X18677233Y-11752562D02*
X18581995Y-11771609D01*
X18753423Y-11828752D02*
X18772471Y-11838276D01*
X18772471Y-11838276D02*
X18810566Y-11838276D01*
X18810566Y-11838276D02*
X18829614Y-11828752D01*
X18829614Y-11828752D02*
X18839138Y-11809705D01*
X18839138Y-11809705D02*
X18839138Y-11800181D01*
X18839138Y-11800181D02*
X18829614Y-11781133D01*
X18829614Y-11781133D02*
X18810566Y-11771609D01*
X18810566Y-11771609D02*
X18781995Y-11771609D01*
X18781995Y-11771609D02*
X18762947Y-11762086D01*
X18762947Y-11762086D02*
X18753423Y-11743038D01*
X18753423Y-11743038D02*
X18753423Y-11733514D01*
X18753423Y-11733514D02*
X18762947Y-11714467D01*
X18762947Y-11714467D02*
X18781995Y-11704943D01*
X18781995Y-11704943D02*
X18810566Y-11704943D01*
X18810566Y-11704943D02*
X18829614Y-11714467D01*
X18905804Y-11914467D02*
X18915328Y-11904943D01*
X18915328Y-11904943D02*
X18934376Y-11876371D01*
X18934376Y-11876371D02*
X18943900Y-11857324D01*
X18943900Y-11857324D02*
X18953423Y-11828752D01*
X18953423Y-11828752D02*
X18962947Y-11781133D01*
X18962947Y-11781133D02*
X18962947Y-11743038D01*
X18962947Y-11743038D02*
X18953423Y-11695419D01*
X18953423Y-11695419D02*
X18943900Y-11666848D01*
X18943900Y-11666848D02*
X18934376Y-11647800D01*
X18934376Y-11647800D02*
X18915328Y-11619228D01*
X18915328Y-11619228D02*
X18905804Y-11609705D01*
D10*
X14258779Y-12064156D02*
X14258779Y-11993444D01*
X14188067Y-11993444D01*
X14188067Y-12064156D01*
X14258779Y-12064156D01*
D11*
X14625804Y-12102276D02*
X14511518Y-12102276D01*
X14568661Y-12102276D02*
X14568661Y-11902276D01*
X14568661Y-11902276D02*
X14549613Y-11930848D01*
X14549613Y-11930848D02*
X14530566Y-11949895D01*
X14530566Y-11949895D02*
X14511518Y-11959419D01*
X14711518Y-12083228D02*
X14721042Y-12092752D01*
X14721042Y-12092752D02*
X14711518Y-12102276D01*
X14711518Y-12102276D02*
X14701994Y-12092752D01*
X14701994Y-12092752D02*
X14711518Y-12083228D01*
X14711518Y-12083228D02*
X14711518Y-12102276D01*
X14844852Y-11902276D02*
X14863899Y-11902276D01*
X14863899Y-11902276D02*
X14882947Y-11911800D01*
X14882947Y-11911800D02*
X14892471Y-11921324D01*
X14892471Y-11921324D02*
X14901994Y-11940371D01*
X14901994Y-11940371D02*
X14911518Y-11978467D01*
X14911518Y-11978467D02*
X14911518Y-12026086D01*
X14911518Y-12026086D02*
X14901994Y-12064181D01*
X14901994Y-12064181D02*
X14892471Y-12083228D01*
X14892471Y-12083228D02*
X14882947Y-12092752D01*
X14882947Y-12092752D02*
X14863899Y-12102276D01*
X14863899Y-12102276D02*
X14844852Y-12102276D01*
X14844852Y-12102276D02*
X14825804Y-12092752D01*
X14825804Y-12092752D02*
X14816280Y-12083228D01*
X14816280Y-12083228D02*
X14806756Y-12064181D01*
X14806756Y-12064181D02*
X14797233Y-12026086D01*
X14797233Y-12026086D02*
X14797233Y-11978467D01*
X14797233Y-11978467D02*
X14806756Y-11940371D01*
X14806756Y-11940371D02*
X14816280Y-11921324D01*
X14816280Y-11921324D02*
X14825804Y-11911800D01*
X14825804Y-11911800D02*
X14844852Y-11902276D01*
X15035328Y-11902276D02*
X15054375Y-11902276D01*
X15054375Y-11902276D02*
X15073423Y-11911800D01*
X15073423Y-11911800D02*
X15082947Y-11921324D01*
X15082947Y-11921324D02*
X15092471Y-11940371D01*
X15092471Y-11940371D02*
X15101994Y-11978467D01*
X15101994Y-11978467D02*
X15101994Y-12026086D01*
X15101994Y-12026086D02*
X15092471Y-12064181D01*
X15092471Y-12064181D02*
X15082947Y-12083228D01*
X15082947Y-12083228D02*
X15073423Y-12092752D01*
X15073423Y-12092752D02*
X15054375Y-12102276D01*
X15054375Y-12102276D02*
X15035328Y-12102276D01*
X15035328Y-12102276D02*
X15016280Y-12092752D01*
X15016280Y-12092752D02*
X15006756Y-12083228D01*
X15006756Y-12083228D02*
X14997233Y-12064181D01*
X14997233Y-12064181D02*
X14987709Y-12026086D01*
X14987709Y-12026086D02*
X14987709Y-11978467D01*
X14987709Y-11978467D02*
X14997233Y-11940371D01*
X14997233Y-11940371D02*
X15006756Y-11921324D01*
X15006756Y-11921324D02*
X15016280Y-11911800D01*
X15016280Y-11911800D02*
X15035328Y-11902276D01*
X15225804Y-11902276D02*
X15244852Y-11902276D01*
X15244852Y-11902276D02*
X15263899Y-11911800D01*
X15263899Y-11911800D02*
X15273423Y-11921324D01*
X15273423Y-11921324D02*
X15282947Y-11940371D01*
X15282947Y-11940371D02*
X15292471Y-11978467D01*
X15292471Y-11978467D02*
X15292471Y-12026086D01*
X15292471Y-12026086D02*
X15282947Y-12064181D01*
X15282947Y-12064181D02*
X15273423Y-12083228D01*
X15273423Y-12083228D02*
X15263899Y-12092752D01*
X15263899Y-12092752D02*
X15244852Y-12102276D01*
X15244852Y-12102276D02*
X15225804Y-12102276D01*
X15225804Y-12102276D02*
X15206756Y-12092752D01*
X15206756Y-12092752D02*
X15197233Y-12083228D01*
X15197233Y-12083228D02*
X15187709Y-12064181D01*
X15187709Y-12064181D02*
X15178185Y-12026086D01*
X15178185Y-12026086D02*
X15178185Y-11978467D01*
X15178185Y-11978467D02*
X15187709Y-11940371D01*
X15187709Y-11940371D02*
X15197233Y-11921324D01*
X15197233Y-11921324D02*
X15206756Y-11911800D01*
X15206756Y-11911800D02*
X15225804Y-11902276D01*
X15378185Y-12102276D02*
X15378185Y-11968943D01*
X15378185Y-11987990D02*
X15387709Y-11978467D01*
X15387709Y-11978467D02*
X15406756Y-11968943D01*
X15406756Y-11968943D02*
X15435328Y-11968943D01*
X15435328Y-11968943D02*
X15454375Y-11978467D01*
X15454375Y-11978467D02*
X15463899Y-11997514D01*
X15463899Y-11997514D02*
X15463899Y-12102276D01*
X15463899Y-11997514D02*
X15473423Y-11978467D01*
X15473423Y-11978467D02*
X15492471Y-11968943D01*
X15492471Y-11968943D02*
X15521042Y-11968943D01*
X15521042Y-11968943D02*
X15540090Y-11978467D01*
X15540090Y-11978467D02*
X15549614Y-11997514D01*
X15549614Y-11997514D02*
X15549614Y-12102276D01*
X15644852Y-12102276D02*
X15644852Y-11968943D01*
X15644852Y-11987990D02*
X15654375Y-11978467D01*
X15654375Y-11978467D02*
X15673423Y-11968943D01*
X15673423Y-11968943D02*
X15701995Y-11968943D01*
X15701995Y-11968943D02*
X15721042Y-11978467D01*
X15721042Y-11978467D02*
X15730566Y-11997514D01*
X15730566Y-11997514D02*
X15730566Y-12102276D01*
X15730566Y-11997514D02*
X15740090Y-11978467D01*
X15740090Y-11978467D02*
X15759137Y-11968943D01*
X15759137Y-11968943D02*
X15787709Y-11968943D01*
X15787709Y-11968943D02*
X15806756Y-11978467D01*
X15806756Y-11978467D02*
X15816280Y-11997514D01*
X15816280Y-11997514D02*
X15816280Y-12102276D01*
X16174375Y-11892752D02*
X16002947Y-12149895D01*
X16399137Y-11902276D02*
X16418185Y-11902276D01*
X16418185Y-11902276D02*
X16437233Y-11911800D01*
X16437233Y-11911800D02*
X16446756Y-11921324D01*
X16446756Y-11921324D02*
X16456280Y-11940371D01*
X16456280Y-11940371D02*
X16465804Y-11978467D01*
X16465804Y-11978467D02*
X16465804Y-12026086D01*
X16465804Y-12026086D02*
X16456280Y-12064181D01*
X16456280Y-12064181D02*
X16446756Y-12083228D01*
X16446756Y-12083228D02*
X16437233Y-12092752D01*
X16437233Y-12092752D02*
X16418185Y-12102276D01*
X16418185Y-12102276D02*
X16399137Y-12102276D01*
X16399137Y-12102276D02*
X16380090Y-12092752D01*
X16380090Y-12092752D02*
X16370566Y-12083228D01*
X16370566Y-12083228D02*
X16361042Y-12064181D01*
X16361042Y-12064181D02*
X16351518Y-12026086D01*
X16351518Y-12026086D02*
X16351518Y-11978467D01*
X16351518Y-11978467D02*
X16361042Y-11940371D01*
X16361042Y-11940371D02*
X16370566Y-11921324D01*
X16370566Y-11921324D02*
X16380090Y-11911800D01*
X16380090Y-11911800D02*
X16399137Y-11902276D01*
X16551518Y-12083228D02*
X16561042Y-12092752D01*
X16561042Y-12092752D02*
X16551518Y-12102276D01*
X16551518Y-12102276D02*
X16541995Y-12092752D01*
X16541995Y-12092752D02*
X16551518Y-12083228D01*
X16551518Y-12083228D02*
X16551518Y-12102276D01*
X16684852Y-11902276D02*
X16703899Y-11902276D01*
X16703899Y-11902276D02*
X16722947Y-11911800D01*
X16722947Y-11911800D02*
X16732471Y-11921324D01*
X16732471Y-11921324D02*
X16741995Y-11940371D01*
X16741995Y-11940371D02*
X16751518Y-11978467D01*
X16751518Y-11978467D02*
X16751518Y-12026086D01*
X16751518Y-12026086D02*
X16741995Y-12064181D01*
X16741995Y-12064181D02*
X16732471Y-12083228D01*
X16732471Y-12083228D02*
X16722947Y-12092752D01*
X16722947Y-12092752D02*
X16703899Y-12102276D01*
X16703899Y-12102276D02*
X16684852Y-12102276D01*
X16684852Y-12102276D02*
X16665804Y-12092752D01*
X16665804Y-12092752D02*
X16656280Y-12083228D01*
X16656280Y-12083228D02*
X16646756Y-12064181D01*
X16646756Y-12064181D02*
X16637233Y-12026086D01*
X16637233Y-12026086D02*
X16637233Y-11978467D01*
X16637233Y-11978467D02*
X16646756Y-11940371D01*
X16646756Y-11940371D02*
X16656280Y-11921324D01*
X16656280Y-11921324D02*
X16665804Y-11911800D01*
X16665804Y-11911800D02*
X16684852Y-11902276D01*
X16818185Y-11902276D02*
X16941995Y-11902276D01*
X16941995Y-11902276D02*
X16875328Y-11978467D01*
X16875328Y-11978467D02*
X16903899Y-11978467D01*
X16903899Y-11978467D02*
X16922947Y-11987990D01*
X16922947Y-11987990D02*
X16932471Y-11997514D01*
X16932471Y-11997514D02*
X16941995Y-12016562D01*
X16941995Y-12016562D02*
X16941995Y-12064181D01*
X16941995Y-12064181D02*
X16932471Y-12083228D01*
X16932471Y-12083228D02*
X16922947Y-12092752D01*
X16922947Y-12092752D02*
X16903899Y-12102276D01*
X16903899Y-12102276D02*
X16846757Y-12102276D01*
X16846757Y-12102276D02*
X16827709Y-12092752D01*
X16827709Y-12092752D02*
X16818185Y-12083228D01*
X17037233Y-12102276D02*
X17075328Y-12102276D01*
X17075328Y-12102276D02*
X17094376Y-12092752D01*
X17094376Y-12092752D02*
X17103899Y-12083228D01*
X17103899Y-12083228D02*
X17122947Y-12054657D01*
X17122947Y-12054657D02*
X17132471Y-12016562D01*
X17132471Y-12016562D02*
X17132471Y-11940371D01*
X17132471Y-11940371D02*
X17122947Y-11921324D01*
X17122947Y-11921324D02*
X17113423Y-11911800D01*
X17113423Y-11911800D02*
X17094376Y-11902276D01*
X17094376Y-11902276D02*
X17056280Y-11902276D01*
X17056280Y-11902276D02*
X17037233Y-11911800D01*
X17037233Y-11911800D02*
X17027709Y-11921324D01*
X17027709Y-11921324D02*
X17018185Y-11940371D01*
X17018185Y-11940371D02*
X17018185Y-11987990D01*
X17018185Y-11987990D02*
X17027709Y-12007038D01*
X17027709Y-12007038D02*
X17037233Y-12016562D01*
X17037233Y-12016562D02*
X17056280Y-12026086D01*
X17056280Y-12026086D02*
X17094376Y-12026086D01*
X17094376Y-12026086D02*
X17113423Y-12016562D01*
X17113423Y-12016562D02*
X17122947Y-12007038D01*
X17122947Y-12007038D02*
X17132471Y-11987990D01*
X17303899Y-11968943D02*
X17303899Y-12102276D01*
X17256280Y-11892752D02*
X17208661Y-12035609D01*
X17208661Y-12035609D02*
X17332471Y-12035609D01*
X17399138Y-11902276D02*
X17399138Y-11940371D01*
X17475328Y-11902276D02*
X17475328Y-11940371D01*
X17738185Y-12178467D02*
X17728661Y-12168943D01*
X17728661Y-12168943D02*
X17709614Y-12140371D01*
X17709614Y-12140371D02*
X17700090Y-12121324D01*
X17700090Y-12121324D02*
X17690566Y-12092752D01*
X17690566Y-12092752D02*
X17681042Y-12045133D01*
X17681042Y-12045133D02*
X17681042Y-12007038D01*
X17681042Y-12007038D02*
X17690566Y-11959419D01*
X17690566Y-11959419D02*
X17700090Y-11930848D01*
X17700090Y-11930848D02*
X17709614Y-11911800D01*
X17709614Y-11911800D02*
X17728661Y-11883228D01*
X17728661Y-11883228D02*
X17738185Y-11873705D01*
X17900090Y-11902276D02*
X17861995Y-11902276D01*
X17861995Y-11902276D02*
X17842947Y-11911800D01*
X17842947Y-11911800D02*
X17833423Y-11921324D01*
X17833423Y-11921324D02*
X17814376Y-11949895D01*
X17814376Y-11949895D02*
X17804852Y-11987990D01*
X17804852Y-11987990D02*
X17804852Y-12064181D01*
X17804852Y-12064181D02*
X17814376Y-12083228D01*
X17814376Y-12083228D02*
X17823899Y-12092752D01*
X17823899Y-12092752D02*
X17842947Y-12102276D01*
X17842947Y-12102276D02*
X17881042Y-12102276D01*
X17881042Y-12102276D02*
X17900090Y-12092752D01*
X17900090Y-12092752D02*
X17909614Y-12083228D01*
X17909614Y-12083228D02*
X17919138Y-12064181D01*
X17919138Y-12064181D02*
X17919138Y-12016562D01*
X17919138Y-12016562D02*
X17909614Y-11997514D01*
X17909614Y-11997514D02*
X17900090Y-11987990D01*
X17900090Y-11987990D02*
X17881042Y-11978467D01*
X17881042Y-11978467D02*
X17842947Y-11978467D01*
X17842947Y-11978467D02*
X17823899Y-11987990D01*
X17823899Y-11987990D02*
X17814376Y-11997514D01*
X17814376Y-11997514D02*
X17804852Y-12016562D01*
X18124852Y-12102276D02*
X18124852Y-11902276D01*
X18210566Y-12102276D02*
X18210566Y-11997514D01*
X18210566Y-11997514D02*
X18201042Y-11978467D01*
X18201042Y-11978467D02*
X18181995Y-11968943D01*
X18181995Y-11968943D02*
X18153423Y-11968943D01*
X18153423Y-11968943D02*
X18134376Y-11978467D01*
X18134376Y-11978467D02*
X18124852Y-11987990D01*
X18334376Y-12102276D02*
X18315328Y-12092752D01*
X18315328Y-12092752D02*
X18305804Y-12083228D01*
X18305804Y-12083228D02*
X18296280Y-12064181D01*
X18296280Y-12064181D02*
X18296280Y-12007038D01*
X18296280Y-12007038D02*
X18305804Y-11987990D01*
X18305804Y-11987990D02*
X18315328Y-11978467D01*
X18315328Y-11978467D02*
X18334376Y-11968943D01*
X18334376Y-11968943D02*
X18362947Y-11968943D01*
X18362947Y-11968943D02*
X18381995Y-11978467D01*
X18381995Y-11978467D02*
X18391519Y-11987990D01*
X18391519Y-11987990D02*
X18401042Y-12007038D01*
X18401042Y-12007038D02*
X18401042Y-12064181D01*
X18401042Y-12064181D02*
X18391519Y-12083228D01*
X18391519Y-12083228D02*
X18381995Y-12092752D01*
X18381995Y-12092752D02*
X18362947Y-12102276D01*
X18362947Y-12102276D02*
X18334376Y-12102276D01*
X18515328Y-12102276D02*
X18496280Y-12092752D01*
X18496280Y-12092752D02*
X18486757Y-12073705D01*
X18486757Y-12073705D02*
X18486757Y-11902276D01*
X18667709Y-12092752D02*
X18648661Y-12102276D01*
X18648661Y-12102276D02*
X18610566Y-12102276D01*
X18610566Y-12102276D02*
X18591519Y-12092752D01*
X18591519Y-12092752D02*
X18581995Y-12073705D01*
X18581995Y-12073705D02*
X18581995Y-11997514D01*
X18581995Y-11997514D02*
X18591519Y-11978467D01*
X18591519Y-11978467D02*
X18610566Y-11968943D01*
X18610566Y-11968943D02*
X18648661Y-11968943D01*
X18648661Y-11968943D02*
X18667709Y-11978467D01*
X18667709Y-11978467D02*
X18677233Y-11997514D01*
X18677233Y-11997514D02*
X18677233Y-12016562D01*
X18677233Y-12016562D02*
X18581995Y-12035609D01*
X18753423Y-12092752D02*
X18772471Y-12102276D01*
X18772471Y-12102276D02*
X18810566Y-12102276D01*
X18810566Y-12102276D02*
X18829614Y-12092752D01*
X18829614Y-12092752D02*
X18839138Y-12073705D01*
X18839138Y-12073705D02*
X18839138Y-12064181D01*
X18839138Y-12064181D02*
X18829614Y-12045133D01*
X18829614Y-12045133D02*
X18810566Y-12035609D01*
X18810566Y-12035609D02*
X18781995Y-12035609D01*
X18781995Y-12035609D02*
X18762947Y-12026086D01*
X18762947Y-12026086D02*
X18753423Y-12007038D01*
X18753423Y-12007038D02*
X18753423Y-11997514D01*
X18753423Y-11997514D02*
X18762947Y-11978467D01*
X18762947Y-11978467D02*
X18781995Y-11968943D01*
X18781995Y-11968943D02*
X18810566Y-11968943D01*
X18810566Y-11968943D02*
X18829614Y-11978467D01*
X18905804Y-12178467D02*
X18915328Y-12168943D01*
X18915328Y-12168943D02*
X18934376Y-12140371D01*
X18934376Y-12140371D02*
X18943900Y-12121324D01*
X18943900Y-12121324D02*
X18953423Y-12092752D01*
X18953423Y-12092752D02*
X18962947Y-12045133D01*
X18962947Y-12045133D02*
X18962947Y-12007038D01*
X18962947Y-12007038D02*
X18953423Y-11959419D01*
X18953423Y-11959419D02*
X18943900Y-11930848D01*
X18943900Y-11930848D02*
X18934376Y-11911800D01*
X18934376Y-11911800D02*
X18915328Y-11883228D01*
X18915328Y-11883228D02*
X18905804Y-11873705D01*
M02*
