%TF.GenerationSoftware,KiCad,Pcbnew,(7.0.0)*%
%TF.CreationDate,2024-01-19T16:55:17+05:30*%
%TF.ProjectId,Programmer,50726f67-7261-46d6-9d65-722e6b696361,rev?*%
%TF.SameCoordinates,Original*%
%TF.FileFunction,Copper,L2,Inr*%
%TF.FilePolarity,Positive*%
%FSLAX46Y46*%
G04 Gerber Fmt 4.6, Leading zero omitted, Abs format (unit mm)*
G04 Created by KiCad (PCBNEW (7.0.0)) date 2024-01-19 16:55:17*
%MOMM*%
%LPD*%
G01*
G04 APERTURE LIST*
G04 Aperture macros list*
%AMRoundRect*
0 Rectangle with rounded corners*
0 $1 Rounding radius*
0 $2 $3 $4 $5 $6 $7 $8 $9 X,Y pos of 4 corners*
0 Add a 4 corners polygon primitive as box body*
4,1,4,$2,$3,$4,$5,$6,$7,$8,$9,$2,$3,0*
0 Add four circle primitives for the rounded corners*
1,1,$1+$1,$2,$3*
1,1,$1+$1,$4,$5*
1,1,$1+$1,$6,$7*
1,1,$1+$1,$8,$9*
0 Add four rect primitives between the rounded corners*
20,1,$1+$1,$2,$3,$4,$5,0*
20,1,$1+$1,$4,$5,$6,$7,0*
20,1,$1+$1,$6,$7,$8,$9,0*
20,1,$1+$1,$8,$9,$2,$3,0*%
G04 Aperture macros list end*
%TA.AperFunction,ComponentPad*%
%ADD10RoundRect,0.250000X-0.600000X-0.600000X0.600000X-0.600000X0.600000X0.600000X-0.600000X0.600000X0*%
%TD*%
%TA.AperFunction,ComponentPad*%
%ADD11C,1.700000*%
%TD*%
%TA.AperFunction,ComponentPad*%
%ADD12O,1.900000X1.200000*%
%TD*%
%TA.AperFunction,ComponentPad*%
%ADD13C,1.450000*%
%TD*%
%TA.AperFunction,ViaPad*%
%ADD14C,0.500000*%
%TD*%
%TA.AperFunction,Conductor*%
%ADD15C,0.200000*%
%TD*%
G04 APERTURE END LIST*
D10*
%TO.N,ESP_EN*%
%TO.C,J2*%
X168783000Y-95072200D03*
D11*
%TO.N,VOUT*%
X171323000Y-95072200D03*
%TO.N,RXD*%
X168783000Y-97612200D03*
%TO.N,GND*%
X171323000Y-97612200D03*
%TO.N,TXD*%
X168783000Y-100152200D03*
%TO.N,ESP_IO0_B*%
X171323000Y-100152200D03*
%TD*%
D12*
%TO.N,GND_USB*%
%TO.C,J3*%
X144253699Y-94340799D03*
D13*
X146953700Y-95340800D03*
X146953700Y-100340800D03*
D12*
X144253699Y-101340799D03*
%TD*%
D14*
%TO.N,GND*%
X161315400Y-91541600D03*
X153949400Y-100533200D03*
X149707600Y-94538800D03*
X151765000Y-103809800D03*
%TO.N,VOUT*%
X164338000Y-103632000D03*
%TO.N,GND_USB*%
X162991800Y-102844600D03*
X165354000Y-93751400D03*
X164439600Y-96469200D03*
%TO.N,V_USB*%
X147370800Y-91313000D03*
%TO.N,RXD*%
X155422600Y-95250000D03*
%TO.N,TXD*%
X154838400Y-95707200D03*
%TO.N,ESP_IO0_B*%
X154838400Y-94488000D03*
%TO.N,RTS*%
X151968200Y-92075000D03*
X158343600Y-96596200D03*
%TO.N,D-*%
X145999200Y-103251000D03*
%TO.N,D+*%
X146939000Y-103200200D03*
%TO.N,CP_D+*%
X148767800Y-102031800D03*
%TO.N,CP_D-*%
X147726400Y-101879400D03*
%TD*%
D15*
%TO.N,ESP_IO0_B*%
X168165491Y-98933000D02*
X170103800Y-98933000D01*
X163720491Y-94488000D02*
X168165491Y-98933000D01*
X170103800Y-98933000D02*
X171323000Y-100152200D01*
X154838400Y-94488000D02*
X163720491Y-94488000D01*
%TO.N,RTS*%
X151968200Y-92075000D02*
X151968200Y-93614818D01*
X151968200Y-93614818D02*
X154949582Y-96596200D01*
X154949582Y-96596200D02*
X158343600Y-96596200D01*
%TD*%
%TA.AperFunction,Conductor*%
%TO.N,GND*%
G36*
X173859091Y-89442839D02*
G01*
X173899319Y-89469719D01*
X175096681Y-90667081D01*
X175123561Y-90707309D01*
X175133000Y-90754762D01*
X175133000Y-104520438D01*
X175123561Y-104567891D01*
X175096681Y-104608119D01*
X173848519Y-105856281D01*
X173808291Y-105883161D01*
X173760838Y-105892600D01*
X144170962Y-105892600D01*
X144123509Y-105883161D01*
X144083281Y-105856281D01*
X142860519Y-104633519D01*
X142833639Y-104593291D01*
X142824200Y-104545838D01*
X142824200Y-102109987D01*
X142839652Y-102050043D01*
X142882157Y-102005038D01*
X142941122Y-101986189D01*
X143001850Y-101998194D01*
X143049206Y-102038059D01*
X143068214Y-102064752D01*
X143220322Y-102209786D01*
X143397128Y-102323413D01*
X143402611Y-102325608D01*
X143402613Y-102325609D01*
X143510452Y-102368781D01*
X143592243Y-102401525D01*
X143798615Y-102441300D01*
X144653171Y-102441300D01*
X144656125Y-102441300D01*
X144812918Y-102426328D01*
X145014575Y-102367116D01*
X145201382Y-102270811D01*
X145366586Y-102140892D01*
X145504219Y-101982056D01*
X145609304Y-101800044D01*
X145678044Y-101601433D01*
X145707954Y-101393402D01*
X145697954Y-101183470D01*
X145687913Y-101142081D01*
X145667535Y-101058081D01*
X145670169Y-100990341D01*
X145708032Y-100934110D01*
X145769807Y-100906194D01*
X145837032Y-100914935D01*
X145889614Y-100957722D01*
X146008221Y-101127110D01*
X146008224Y-101127114D01*
X146011327Y-101131545D01*
X146162955Y-101283173D01*
X146167387Y-101286276D01*
X146167389Y-101286278D01*
X146227718Y-101328521D01*
X146338609Y-101406168D01*
X146343509Y-101408453D01*
X146343511Y-101408454D01*
X146509513Y-101485862D01*
X146532953Y-101496792D01*
X146687295Y-101538148D01*
X146734848Y-101550890D01*
X146734850Y-101550890D01*
X146740081Y-101552292D01*
X146879822Y-101564517D01*
X146944700Y-101589823D01*
X146985708Y-101646109D01*
X146989646Y-101711291D01*
X146990087Y-101711341D01*
X146989308Y-101718247D01*
X146989308Y-101718251D01*
X146973656Y-101857166D01*
X146971151Y-101879400D01*
X146971931Y-101886323D01*
X146989306Y-102040535D01*
X146989307Y-102040542D01*
X146990087Y-102047459D01*
X146992386Y-102054030D01*
X146992387Y-102054033D01*
X147043413Y-102199859D01*
X147045944Y-102207090D01*
X147049644Y-102212978D01*
X147049648Y-102212986D01*
X147077945Y-102258021D01*
X147096951Y-102323993D01*
X147077945Y-102389964D01*
X147026752Y-102435712D01*
X146959067Y-102447212D01*
X146945923Y-102445731D01*
X146939000Y-102444951D01*
X146932077Y-102445731D01*
X146777864Y-102463106D01*
X146777855Y-102463107D01*
X146770941Y-102463887D01*
X146764371Y-102466185D01*
X146764366Y-102466187D01*
X146617878Y-102517445D01*
X146617872Y-102517447D01*
X146611310Y-102519744D01*
X146605422Y-102523443D01*
X146605417Y-102523446D01*
X146494648Y-102593047D01*
X146428676Y-102612053D01*
X146362705Y-102593047D01*
X146332786Y-102574248D01*
X146332781Y-102574245D01*
X146326890Y-102570544D01*
X146320324Y-102568246D01*
X146320321Y-102568245D01*
X146173833Y-102516987D01*
X146173830Y-102516986D01*
X146167259Y-102514687D01*
X146160342Y-102513907D01*
X146160335Y-102513906D01*
X146006123Y-102496531D01*
X145999200Y-102495751D01*
X145992277Y-102496531D01*
X145838064Y-102513906D01*
X145838055Y-102513907D01*
X145831141Y-102514687D01*
X145824571Y-102516985D01*
X145824566Y-102516987D01*
X145678078Y-102568245D01*
X145678072Y-102568247D01*
X145671510Y-102570544D01*
X145665619Y-102574245D01*
X145665618Y-102574246D01*
X145534210Y-102656815D01*
X145534205Y-102656818D01*
X145528310Y-102660523D01*
X145523385Y-102665447D01*
X145523381Y-102665451D01*
X145413651Y-102775181D01*
X145413647Y-102775185D01*
X145408723Y-102780110D01*
X145405018Y-102786005D01*
X145405015Y-102786010D01*
X145322446Y-102917418D01*
X145318744Y-102923310D01*
X145316447Y-102929872D01*
X145316445Y-102929878D01*
X145265187Y-103076366D01*
X145265185Y-103076371D01*
X145262887Y-103082941D01*
X145262107Y-103089855D01*
X145262106Y-103089864D01*
X145250455Y-103193277D01*
X145243951Y-103251000D01*
X145244731Y-103257923D01*
X145262106Y-103412135D01*
X145262107Y-103412142D01*
X145262887Y-103419059D01*
X145265186Y-103425630D01*
X145265187Y-103425633D01*
X145303029Y-103533781D01*
X145318744Y-103578690D01*
X145408723Y-103721890D01*
X145528310Y-103841477D01*
X145671510Y-103931456D01*
X145831141Y-103987313D01*
X145999200Y-104006249D01*
X146167259Y-103987313D01*
X146326890Y-103931456D01*
X146443552Y-103858151D01*
X146509525Y-103839145D01*
X146575495Y-103858152D01*
X146611310Y-103880656D01*
X146770941Y-103936513D01*
X146777864Y-103937293D01*
X146918338Y-103953121D01*
X146939000Y-103955449D01*
X147107059Y-103936513D01*
X147266690Y-103880656D01*
X147409890Y-103790677D01*
X147529477Y-103671090D01*
X147619456Y-103527890D01*
X147675313Y-103368259D01*
X147694249Y-103200200D01*
X147675313Y-103032141D01*
X147619456Y-102872510D01*
X147601919Y-102844600D01*
X162236551Y-102844600D01*
X162237331Y-102851520D01*
X162237331Y-102851523D01*
X162254706Y-103005735D01*
X162254707Y-103005742D01*
X162255487Y-103012659D01*
X162257786Y-103019230D01*
X162257787Y-103019233D01*
X162280079Y-103082941D01*
X162311344Y-103172290D01*
X162401323Y-103315490D01*
X162520910Y-103435077D01*
X162664110Y-103525056D01*
X162823741Y-103580913D01*
X162991800Y-103599849D01*
X163159859Y-103580913D01*
X163319490Y-103525056D01*
X163397754Y-103475878D01*
X163463726Y-103456872D01*
X163529698Y-103475878D01*
X163575447Y-103527069D01*
X163586947Y-103594754D01*
X163583531Y-103625075D01*
X163582751Y-103632000D01*
X163583531Y-103638923D01*
X163600906Y-103793135D01*
X163600907Y-103793142D01*
X163601687Y-103800059D01*
X163603986Y-103806630D01*
X163603987Y-103806633D01*
X163648468Y-103933754D01*
X163657544Y-103959690D01*
X163747523Y-104102890D01*
X163867110Y-104222477D01*
X164010310Y-104312456D01*
X164169941Y-104368313D01*
X164338000Y-104387249D01*
X164506059Y-104368313D01*
X164665690Y-104312456D01*
X164808890Y-104222477D01*
X164928477Y-104102890D01*
X165018456Y-103959690D01*
X165074313Y-103800059D01*
X165093249Y-103632000D01*
X165074313Y-103463941D01*
X165018456Y-103304310D01*
X164928477Y-103161110D01*
X164808890Y-103041523D01*
X164665690Y-102951544D01*
X164659124Y-102949246D01*
X164659121Y-102949245D01*
X164512633Y-102897987D01*
X164512630Y-102897986D01*
X164506059Y-102895687D01*
X164499142Y-102894907D01*
X164499135Y-102894906D01*
X164344923Y-102877531D01*
X164338000Y-102876751D01*
X164331077Y-102877531D01*
X164176864Y-102894906D01*
X164176855Y-102894907D01*
X164169941Y-102895687D01*
X164163371Y-102897985D01*
X164163366Y-102897987D01*
X164016878Y-102949245D01*
X164016872Y-102949247D01*
X164010310Y-102951544D01*
X164004422Y-102955243D01*
X164004413Y-102955248D01*
X163932043Y-103000721D01*
X163866071Y-103019727D01*
X163800099Y-103000720D01*
X163754351Y-102949527D01*
X163742852Y-102881844D01*
X163747049Y-102844600D01*
X163728113Y-102676541D01*
X163672256Y-102516910D01*
X163582277Y-102373710D01*
X163462690Y-102254123D01*
X163319490Y-102164144D01*
X163312924Y-102161846D01*
X163312921Y-102161845D01*
X163166433Y-102110587D01*
X163166430Y-102110586D01*
X163159859Y-102108287D01*
X163152942Y-102107507D01*
X163152935Y-102107506D01*
X162998723Y-102090131D01*
X162991800Y-102089351D01*
X162984877Y-102090131D01*
X162830664Y-102107506D01*
X162830655Y-102107507D01*
X162823741Y-102108287D01*
X162817171Y-102110585D01*
X162817166Y-102110587D01*
X162670678Y-102161845D01*
X162670672Y-102161847D01*
X162664110Y-102164144D01*
X162658219Y-102167845D01*
X162658218Y-102167846D01*
X162526810Y-102250415D01*
X162526805Y-102250418D01*
X162520910Y-102254123D01*
X162515985Y-102259047D01*
X162515981Y-102259051D01*
X162406251Y-102368781D01*
X162406247Y-102368785D01*
X162401323Y-102373710D01*
X162397618Y-102379605D01*
X162397615Y-102379610D01*
X162315046Y-102511018D01*
X162311344Y-102516910D01*
X162309047Y-102523472D01*
X162309045Y-102523478D01*
X162257787Y-102669966D01*
X162257785Y-102669971D01*
X162255487Y-102676541D01*
X162254707Y-102683455D01*
X162254706Y-102683464D01*
X162239145Y-102821579D01*
X162236551Y-102844600D01*
X147601919Y-102844600D01*
X147587454Y-102821579D01*
X147568448Y-102755606D01*
X147587456Y-102689633D01*
X147638650Y-102643885D01*
X147706332Y-102632387D01*
X147726400Y-102634649D01*
X147746476Y-102632387D01*
X147768414Y-102629914D01*
X147894459Y-102615713D01*
X148054090Y-102559856D01*
X148081148Y-102542853D01*
X148133234Y-102524628D01*
X148188073Y-102530806D01*
X148234800Y-102560166D01*
X148296910Y-102622277D01*
X148440110Y-102712256D01*
X148599741Y-102768113D01*
X148606664Y-102768893D01*
X148758578Y-102786010D01*
X148767800Y-102787049D01*
X148777022Y-102786010D01*
X148829384Y-102780110D01*
X148935859Y-102768113D01*
X149095490Y-102712256D01*
X149238690Y-102622277D01*
X149358277Y-102502690D01*
X149448256Y-102359490D01*
X149504113Y-102199859D01*
X149520544Y-102054033D01*
X149522269Y-102038723D01*
X149523049Y-102031800D01*
X149504113Y-101863741D01*
X149448256Y-101704110D01*
X149358277Y-101560910D01*
X149238690Y-101441323D01*
X149095490Y-101351344D01*
X149088924Y-101349046D01*
X149088921Y-101349045D01*
X148942433Y-101297787D01*
X148942430Y-101297786D01*
X148935859Y-101295487D01*
X148928942Y-101294707D01*
X148928935Y-101294706D01*
X148774723Y-101277331D01*
X148767800Y-101276551D01*
X148760877Y-101277331D01*
X148606664Y-101294706D01*
X148606655Y-101294707D01*
X148599741Y-101295487D01*
X148593171Y-101297785D01*
X148593166Y-101297787D01*
X148446678Y-101349045D01*
X148446672Y-101349047D01*
X148440110Y-101351344D01*
X148434222Y-101355043D01*
X148434215Y-101355047D01*
X148413050Y-101368346D01*
X148360962Y-101386571D01*
X148306125Y-101380392D01*
X148259399Y-101351032D01*
X148202218Y-101293851D01*
X148197290Y-101288923D01*
X148182040Y-101279341D01*
X148159175Y-101264974D01*
X148054090Y-101198944D01*
X148047521Y-101196645D01*
X148047516Y-101196643D01*
X148043781Y-101195336D01*
X147995968Y-101164876D01*
X147966710Y-101116318D01*
X147962121Y-101059813D01*
X147983161Y-101007171D01*
X148019068Y-100955891D01*
X148109692Y-100761547D01*
X148165192Y-100554419D01*
X148183881Y-100340800D01*
X148165192Y-100127181D01*
X148109692Y-99920053D01*
X148019068Y-99725710D01*
X147896073Y-99550055D01*
X147744445Y-99398427D01*
X147740014Y-99395324D01*
X147740010Y-99395321D01*
X147573220Y-99278533D01*
X147573218Y-99278531D01*
X147568791Y-99275432D01*
X147563894Y-99273148D01*
X147563888Y-99273145D01*
X147379353Y-99187095D01*
X147379346Y-99187092D01*
X147374447Y-99184808D01*
X147369220Y-99183407D01*
X147369219Y-99183407D01*
X147172551Y-99130709D01*
X147172541Y-99130707D01*
X147167319Y-99129308D01*
X147161927Y-99128836D01*
X147161920Y-99128835D01*
X146959095Y-99111091D01*
X146953700Y-99110619D01*
X146948305Y-99111091D01*
X146745479Y-99128835D01*
X146745470Y-99128836D01*
X146740081Y-99129308D01*
X146734860Y-99130706D01*
X146734848Y-99130709D01*
X146538180Y-99183407D01*
X146538175Y-99183408D01*
X146532953Y-99184808D01*
X146528057Y-99187090D01*
X146528046Y-99187095D01*
X146343520Y-99273142D01*
X146343516Y-99273144D01*
X146338610Y-99275432D01*
X146334177Y-99278535D01*
X146334170Y-99278540D01*
X146167390Y-99395321D01*
X146167385Y-99395324D01*
X146162955Y-99398427D01*
X146159131Y-99402250D01*
X146159125Y-99402256D01*
X146015156Y-99546225D01*
X146015150Y-99546231D01*
X146011327Y-99550055D01*
X146008224Y-99554485D01*
X146008221Y-99554490D01*
X145891440Y-99721270D01*
X145891435Y-99721277D01*
X145888332Y-99725710D01*
X145886044Y-99730616D01*
X145886042Y-99730620D01*
X145799995Y-99915146D01*
X145799990Y-99915157D01*
X145797708Y-99920053D01*
X145796308Y-99925275D01*
X145796307Y-99925280D01*
X145743609Y-100121948D01*
X145743606Y-100121960D01*
X145742208Y-100127181D01*
X145741736Y-100132570D01*
X145741735Y-100132579D01*
X145728640Y-100282269D01*
X145723519Y-100340800D01*
X145723991Y-100346195D01*
X145741735Y-100549020D01*
X145741736Y-100549027D01*
X145742208Y-100554419D01*
X145743608Y-100559646D01*
X145743610Y-100559654D01*
X145773954Y-100672900D01*
X145772818Y-100741059D01*
X145735826Y-100798319D01*
X145674159Y-100827373D01*
X145606453Y-100819441D01*
X145553174Y-100776922D01*
X145439186Y-100616848D01*
X145287078Y-100471814D01*
X145187910Y-100408082D01*
X145115244Y-100361382D01*
X145115241Y-100361380D01*
X145110272Y-100358187D01*
X145104792Y-100355993D01*
X145104786Y-100355990D01*
X144920639Y-100282269D01*
X144920632Y-100282267D01*
X144915157Y-100280075D01*
X144909362Y-100278958D01*
X144909355Y-100278956D01*
X144714582Y-100241417D01*
X144714579Y-100241416D01*
X144708785Y-100240300D01*
X143851275Y-100240300D01*
X143848346Y-100240579D01*
X143848339Y-100240580D01*
X143700362Y-100254710D01*
X143700356Y-100254711D01*
X143694482Y-100255272D01*
X143688812Y-100256936D01*
X143688811Y-100256937D01*
X143498487Y-100312821D01*
X143498482Y-100312822D01*
X143492825Y-100314484D01*
X143487584Y-100317185D01*
X143487581Y-100317187D01*
X143311268Y-100408082D01*
X143311264Y-100408084D01*
X143306018Y-100410789D01*
X143301376Y-100414438D01*
X143301372Y-100414442D01*
X143145459Y-100537054D01*
X143145452Y-100537060D01*
X143140814Y-100540708D01*
X143136950Y-100545167D01*
X143136945Y-100545172D01*
X143041913Y-100654845D01*
X142993188Y-100689193D01*
X142934065Y-100696834D01*
X142878209Y-100676000D01*
X142838530Y-100631509D01*
X142824200Y-100573642D01*
X142824200Y-95109987D01*
X142839652Y-95050043D01*
X142882157Y-95005038D01*
X142941122Y-94986189D01*
X143001850Y-94998194D01*
X143049206Y-95038059D01*
X143068214Y-95064752D01*
X143220322Y-95209786D01*
X143397128Y-95323413D01*
X143402611Y-95325608D01*
X143402613Y-95325609D01*
X143586760Y-95399330D01*
X143592243Y-95401525D01*
X143798615Y-95441300D01*
X144653171Y-95441300D01*
X144656125Y-95441300D01*
X144812918Y-95426328D01*
X145014575Y-95367116D01*
X145201382Y-95270811D01*
X145366586Y-95140892D01*
X145504219Y-94982056D01*
X145549938Y-94902867D01*
X145590700Y-94860288D01*
X145646517Y-94841340D01*
X145704778Y-94850307D01*
X145752314Y-94885162D01*
X145778386Y-94938029D01*
X145777100Y-94996961D01*
X145743610Y-95121945D01*
X145743608Y-95121955D01*
X145742208Y-95127181D01*
X145741736Y-95132570D01*
X145741735Y-95132579D01*
X145726423Y-95307608D01*
X145723519Y-95340800D01*
X145723991Y-95346195D01*
X145741735Y-95549020D01*
X145741736Y-95549027D01*
X145742208Y-95554419D01*
X145743607Y-95559641D01*
X145743609Y-95559651D01*
X145788134Y-95725818D01*
X145797708Y-95761547D01*
X145799992Y-95766446D01*
X145799995Y-95766453D01*
X145886045Y-95950988D01*
X145886048Y-95950994D01*
X145888332Y-95955891D01*
X145891431Y-95960318D01*
X145891433Y-95960320D01*
X146008221Y-96127110D01*
X146008224Y-96127114D01*
X146011327Y-96131545D01*
X146162955Y-96283173D01*
X146167387Y-96286276D01*
X146167389Y-96286278D01*
X146198503Y-96308064D01*
X146338609Y-96406168D01*
X146343509Y-96408453D01*
X146343511Y-96408454D01*
X146473781Y-96469200D01*
X146532953Y-96496792D01*
X146687295Y-96538148D01*
X146734848Y-96550890D01*
X146734850Y-96550890D01*
X146740081Y-96552292D01*
X146953700Y-96570981D01*
X147167319Y-96552292D01*
X147374447Y-96496792D01*
X147568791Y-96406168D01*
X147744445Y-96283173D01*
X147896073Y-96131545D01*
X148019068Y-95955891D01*
X148109692Y-95761547D01*
X148165192Y-95554419D01*
X148183881Y-95340800D01*
X148165192Y-95127181D01*
X148109692Y-94920053D01*
X148101678Y-94902868D01*
X148072987Y-94841340D01*
X148019068Y-94725710D01*
X147896073Y-94550055D01*
X147744445Y-94398427D01*
X147740014Y-94395324D01*
X147740010Y-94395321D01*
X147573220Y-94278533D01*
X147573218Y-94278531D01*
X147568791Y-94275432D01*
X147563894Y-94273148D01*
X147563888Y-94273145D01*
X147379353Y-94187095D01*
X147379346Y-94187092D01*
X147374447Y-94184808D01*
X147369220Y-94183407D01*
X147369219Y-94183407D01*
X147172551Y-94130709D01*
X147172541Y-94130707D01*
X147167319Y-94129308D01*
X147161927Y-94128836D01*
X147161920Y-94128835D01*
X146959095Y-94111091D01*
X146953700Y-94110619D01*
X146948305Y-94111091D01*
X146745479Y-94128835D01*
X146745470Y-94128836D01*
X146740081Y-94129308D01*
X146734860Y-94130706D01*
X146734848Y-94130709D01*
X146538180Y-94183407D01*
X146538175Y-94183408D01*
X146532953Y-94184808D01*
X146528057Y-94187090D01*
X146528046Y-94187095D01*
X146343520Y-94273142D01*
X146343516Y-94273144D01*
X146338610Y-94275432D01*
X146334177Y-94278535D01*
X146334170Y-94278540D01*
X146167390Y-94395321D01*
X146167385Y-94395324D01*
X146162955Y-94398427D01*
X146159131Y-94402250D01*
X146159125Y-94402256D01*
X146015156Y-94546225D01*
X146015150Y-94546231D01*
X146011327Y-94550055D01*
X146008225Y-94554484D01*
X146008225Y-94554485D01*
X145896452Y-94714113D01*
X145852409Y-94752834D01*
X145795499Y-94766987D01*
X145738450Y-94753406D01*
X145694022Y-94715129D01*
X145672151Y-94660716D01*
X145676688Y-94613230D01*
X145674720Y-94612753D01*
X145676111Y-94607015D01*
X145678044Y-94601433D01*
X145707954Y-94393402D01*
X145697954Y-94183470D01*
X145648404Y-93979224D01*
X145561096Y-93788047D01*
X145439186Y-93616848D01*
X145287078Y-93471814D01*
X145187910Y-93408082D01*
X145115244Y-93361382D01*
X145115241Y-93361380D01*
X145110272Y-93358187D01*
X145104792Y-93355993D01*
X145104786Y-93355990D01*
X144920639Y-93282269D01*
X144920632Y-93282267D01*
X144915157Y-93280075D01*
X144909362Y-93278958D01*
X144909355Y-93278956D01*
X144714582Y-93241417D01*
X144714579Y-93241416D01*
X144708785Y-93240300D01*
X143851275Y-93240300D01*
X143848346Y-93240579D01*
X143848339Y-93240580D01*
X143700362Y-93254710D01*
X143700356Y-93254711D01*
X143694482Y-93255272D01*
X143688812Y-93256936D01*
X143688811Y-93256937D01*
X143498487Y-93312821D01*
X143498482Y-93312822D01*
X143492825Y-93314484D01*
X143487584Y-93317185D01*
X143487581Y-93317187D01*
X143311268Y-93408082D01*
X143311264Y-93408084D01*
X143306018Y-93410789D01*
X143301376Y-93414438D01*
X143301372Y-93414442D01*
X143145459Y-93537054D01*
X143145452Y-93537060D01*
X143140814Y-93540708D01*
X143136950Y-93545167D01*
X143136945Y-93545172D01*
X143041913Y-93654845D01*
X142993188Y-93689193D01*
X142934065Y-93696834D01*
X142878209Y-93676000D01*
X142838530Y-93631509D01*
X142824200Y-93573642D01*
X142824200Y-92075000D01*
X151212951Y-92075000D01*
X151213731Y-92081923D01*
X151231106Y-92236135D01*
X151231107Y-92236142D01*
X151231887Y-92243059D01*
X151287744Y-92402690D01*
X151291446Y-92408581D01*
X151348694Y-92499691D01*
X151367700Y-92565663D01*
X151367700Y-93567331D01*
X151366638Y-93583516D01*
X151362518Y-93614818D01*
X151363579Y-93622877D01*
X151367700Y-93654179D01*
X151382094Y-93763520D01*
X151382095Y-93763526D01*
X151383156Y-93771580D01*
X151386265Y-93779086D01*
X151386266Y-93779089D01*
X151430732Y-93886439D01*
X151443664Y-93917659D01*
X151539918Y-94043100D01*
X151546364Y-94048046D01*
X151564969Y-94062322D01*
X151577164Y-94073017D01*
X154491381Y-96987234D01*
X154502071Y-96999422D01*
X154521300Y-97024482D01*
X154576828Y-97067090D01*
X154646741Y-97120736D01*
X154792820Y-97181244D01*
X154949582Y-97201882D01*
X154957641Y-97200821D01*
X154980884Y-97197761D01*
X154997069Y-97196700D01*
X157852937Y-97196700D01*
X157918908Y-97215705D01*
X158015910Y-97276656D01*
X158175541Y-97332513D01*
X158343600Y-97351449D01*
X158511659Y-97332513D01*
X158671290Y-97276656D01*
X158814490Y-97186677D01*
X158934077Y-97067090D01*
X159024056Y-96923890D01*
X159079913Y-96764259D01*
X159098849Y-96596200D01*
X159079913Y-96428141D01*
X159024056Y-96268510D01*
X158934077Y-96125310D01*
X158814490Y-96005723D01*
X158802692Y-95998310D01*
X158721721Y-95947432D01*
X158671290Y-95915744D01*
X158664724Y-95913446D01*
X158664721Y-95913445D01*
X158518233Y-95862187D01*
X158518230Y-95862186D01*
X158511659Y-95859887D01*
X158504742Y-95859107D01*
X158504735Y-95859106D01*
X158350523Y-95841731D01*
X158343600Y-95840951D01*
X158336677Y-95841731D01*
X158182464Y-95859106D01*
X158182455Y-95859107D01*
X158175541Y-95859887D01*
X158168971Y-95862185D01*
X158168966Y-95862187D01*
X158022478Y-95913445D01*
X158022472Y-95913447D01*
X158015910Y-95915744D01*
X158010019Y-95919445D01*
X158010018Y-95919446D01*
X157918909Y-95976694D01*
X157852937Y-95995700D01*
X156037629Y-95995700D01*
X155981334Y-95982185D01*
X155937311Y-95944585D01*
X155915156Y-95891098D01*
X155919698Y-95833382D01*
X155949948Y-95784019D01*
X155977648Y-95756319D01*
X156013077Y-95720890D01*
X156103056Y-95577690D01*
X156158913Y-95418059D01*
X156177849Y-95250000D01*
X156175188Y-95226383D01*
X156186688Y-95158699D01*
X156232436Y-95107506D01*
X156298408Y-95088500D01*
X163420394Y-95088500D01*
X163467847Y-95097939D01*
X163508075Y-95124819D01*
X164038863Y-95655607D01*
X164068223Y-95702333D01*
X164074402Y-95757170D01*
X164056177Y-95809258D01*
X164017156Y-95848280D01*
X163974615Y-95875011D01*
X163974605Y-95875018D01*
X163968710Y-95878723D01*
X163963785Y-95883647D01*
X163963781Y-95883651D01*
X163854051Y-95993381D01*
X163854047Y-95993385D01*
X163849123Y-95998310D01*
X163845418Y-96004205D01*
X163845415Y-96004210D01*
X163780914Y-96106863D01*
X163759144Y-96141510D01*
X163756847Y-96148072D01*
X163756845Y-96148078D01*
X163705587Y-96294566D01*
X163705585Y-96294571D01*
X163703287Y-96301141D01*
X163702507Y-96308055D01*
X163702506Y-96308064D01*
X163689718Y-96421566D01*
X163684351Y-96469200D01*
X163685131Y-96476123D01*
X163702506Y-96630335D01*
X163702507Y-96630342D01*
X163703287Y-96637259D01*
X163705586Y-96643830D01*
X163705587Y-96643833D01*
X163741068Y-96745234D01*
X163759144Y-96796890D01*
X163800025Y-96861951D01*
X163840768Y-96926794D01*
X163849123Y-96940090D01*
X163968710Y-97059677D01*
X164111910Y-97149656D01*
X164271541Y-97205513D01*
X164439600Y-97224449D01*
X164607659Y-97205513D01*
X164767290Y-97149656D01*
X164910490Y-97059677D01*
X165030077Y-96940090D01*
X165060517Y-96891644D01*
X165099539Y-96852623D01*
X165151627Y-96834397D01*
X165206466Y-96840575D01*
X165253192Y-96869936D01*
X167637799Y-99254543D01*
X167667824Y-99303220D01*
X167672809Y-99360194D01*
X167651694Y-99413346D01*
X167612074Y-99469931D01*
X167608965Y-99474371D01*
X167606677Y-99479277D01*
X167606675Y-99479281D01*
X167511386Y-99683627D01*
X167511383Y-99683632D01*
X167509097Y-99688537D01*
X167507698Y-99693757D01*
X167507694Y-99693769D01*
X167449337Y-99911565D01*
X167449335Y-99911571D01*
X167447937Y-99916792D01*
X167427341Y-100152200D01*
X167427813Y-100157595D01*
X167445170Y-100355990D01*
X167447937Y-100387608D01*
X167449336Y-100392830D01*
X167449337Y-100392834D01*
X167507694Y-100610630D01*
X167507697Y-100610638D01*
X167509097Y-100615863D01*
X167511385Y-100620770D01*
X167511386Y-100620772D01*
X167606678Y-100825127D01*
X167606681Y-100825133D01*
X167608965Y-100830030D01*
X167612064Y-100834457D01*
X167612066Y-100834459D01*
X167741399Y-101019166D01*
X167741402Y-101019170D01*
X167744505Y-101023601D01*
X167911599Y-101190695D01*
X167916031Y-101193798D01*
X167916033Y-101193800D01*
X168034214Y-101276551D01*
X168105170Y-101326235D01*
X168319337Y-101426103D01*
X168547592Y-101487263D01*
X168783000Y-101507859D01*
X169018408Y-101487263D01*
X169246663Y-101426103D01*
X169460830Y-101326235D01*
X169654401Y-101190695D01*
X169821495Y-101023601D01*
X169951424Y-100838042D01*
X169995743Y-100799176D01*
X170053000Y-100785165D01*
X170110257Y-100799176D01*
X170154575Y-100838042D01*
X170281395Y-101019161D01*
X170281401Y-101019168D01*
X170284505Y-101023601D01*
X170451599Y-101190695D01*
X170456031Y-101193798D01*
X170456033Y-101193800D01*
X170574214Y-101276551D01*
X170645170Y-101326235D01*
X170859337Y-101426103D01*
X171087592Y-101487263D01*
X171323000Y-101507859D01*
X171558408Y-101487263D01*
X171786663Y-101426103D01*
X172000830Y-101326235D01*
X172194401Y-101190695D01*
X172361495Y-101023601D01*
X172497035Y-100830030D01*
X172596903Y-100615863D01*
X172658063Y-100387608D01*
X172678659Y-100152200D01*
X172658063Y-99916792D01*
X172596903Y-99688537D01*
X172497035Y-99474371D01*
X172361495Y-99280799D01*
X172194401Y-99113705D01*
X172189970Y-99110602D01*
X172189966Y-99110599D01*
X172008405Y-98983469D01*
X171969540Y-98939151D01*
X171955529Y-98881894D01*
X171969539Y-98824638D01*
X172008405Y-98780320D01*
X172073248Y-98734915D01*
X172080681Y-98726803D01*
X172074768Y-98717521D01*
X170969446Y-97612199D01*
X171681431Y-97612199D01*
X171688095Y-97623742D01*
X172428321Y-98363968D01*
X172437603Y-98369881D01*
X172445715Y-98362448D01*
X172493492Y-98294216D01*
X172498888Y-98284871D01*
X172594143Y-98080597D01*
X172597831Y-98070463D01*
X172656166Y-97852753D01*
X172658041Y-97842122D01*
X172677685Y-97617595D01*
X172677685Y-97606805D01*
X172658041Y-97382277D01*
X172656166Y-97371646D01*
X172597831Y-97153936D01*
X172594143Y-97143802D01*
X172498889Y-96939532D01*
X172493491Y-96930182D01*
X172445714Y-96861949D01*
X172437603Y-96854516D01*
X172428324Y-96860427D01*
X171688095Y-97600657D01*
X171681431Y-97612199D01*
X170969446Y-97612199D01*
X170217674Y-96860427D01*
X170208396Y-96854516D01*
X170200282Y-96861951D01*
X170154880Y-96926794D01*
X170110562Y-96965660D01*
X170053305Y-96979671D01*
X169996048Y-96965660D01*
X169951730Y-96926794D01*
X169860770Y-96796890D01*
X169821495Y-96740799D01*
X169654401Y-96573705D01*
X169652027Y-96572042D01*
X169615385Y-96519300D01*
X169610425Y-96454432D01*
X169638989Y-96395981D01*
X169689124Y-96362747D01*
X169688933Y-96362338D01*
X169691662Y-96361065D01*
X169693215Y-96360036D01*
X169693962Y-96359788D01*
X169702334Y-96357014D01*
X169851656Y-96264912D01*
X169975712Y-96140856D01*
X170067814Y-95991534D01*
X170070835Y-95982415D01*
X170071865Y-95980862D01*
X170073138Y-95978133D01*
X170073547Y-95978324D01*
X170106781Y-95928189D01*
X170165232Y-95899625D01*
X170230100Y-95904585D01*
X170282842Y-95941227D01*
X170284505Y-95943601D01*
X170451599Y-96110695D01*
X170456032Y-96113799D01*
X170456038Y-96113804D01*
X170637593Y-96240930D01*
X170676459Y-96285248D01*
X170690470Y-96342505D01*
X170676459Y-96399762D01*
X170637594Y-96444080D01*
X170572750Y-96489484D01*
X170565316Y-96497596D01*
X170571227Y-96506874D01*
X171311457Y-97247104D01*
X171323000Y-97253768D01*
X171334542Y-97247104D01*
X172074771Y-96506874D01*
X172080682Y-96497595D01*
X172073251Y-96489486D01*
X172008405Y-96444080D01*
X171969539Y-96399762D01*
X171955529Y-96342505D01*
X171969540Y-96285248D01*
X172008406Y-96240930D01*
X172189961Y-96113804D01*
X172189961Y-96113803D01*
X172194401Y-96110695D01*
X172361495Y-95943601D01*
X172497035Y-95750030D01*
X172596903Y-95535863D01*
X172658063Y-95307608D01*
X172678659Y-95072200D01*
X172658063Y-94836792D01*
X172596903Y-94608537D01*
X172497035Y-94394371D01*
X172361495Y-94200799D01*
X172194401Y-94033705D01*
X172189970Y-94030602D01*
X172189966Y-94030599D01*
X172005259Y-93901266D01*
X172005257Y-93901264D01*
X172000830Y-93898165D01*
X171995933Y-93895881D01*
X171995927Y-93895878D01*
X171791572Y-93800586D01*
X171791570Y-93800585D01*
X171786663Y-93798297D01*
X171781438Y-93796897D01*
X171781430Y-93796894D01*
X171563634Y-93738537D01*
X171563630Y-93738536D01*
X171558408Y-93737137D01*
X171553020Y-93736665D01*
X171553017Y-93736665D01*
X171328395Y-93717013D01*
X171323000Y-93716541D01*
X171317605Y-93717013D01*
X171092982Y-93736665D01*
X171092977Y-93736665D01*
X171087592Y-93737137D01*
X171082371Y-93738535D01*
X171082365Y-93738537D01*
X170864569Y-93796894D01*
X170864557Y-93796898D01*
X170859337Y-93798297D01*
X170854432Y-93800583D01*
X170854427Y-93800586D01*
X170650081Y-93895875D01*
X170650077Y-93895877D01*
X170645171Y-93898165D01*
X170640738Y-93901268D01*
X170640731Y-93901273D01*
X170456034Y-94030599D01*
X170456029Y-94030602D01*
X170451599Y-94033705D01*
X170447775Y-94037528D01*
X170447769Y-94037534D01*
X170288334Y-94196969D01*
X170288328Y-94196975D01*
X170284505Y-94200799D01*
X170282843Y-94203172D01*
X170230100Y-94239815D01*
X170165232Y-94244775D01*
X170106781Y-94216211D01*
X170073547Y-94166075D01*
X170073138Y-94166267D01*
X170071865Y-94163537D01*
X170070836Y-94161985D01*
X170070086Y-94159723D01*
X170067814Y-94152866D01*
X169996134Y-94036653D01*
X169979502Y-94009688D01*
X169979500Y-94009685D01*
X169975712Y-94003544D01*
X169851656Y-93879488D01*
X169845515Y-93875700D01*
X169845511Y-93875697D01*
X169708480Y-93791177D01*
X169702334Y-93787386D01*
X169677295Y-93779089D01*
X169542225Y-93734331D01*
X169542224Y-93734330D01*
X169535797Y-93732201D01*
X169529064Y-93731513D01*
X169529059Y-93731512D01*
X169436140Y-93722019D01*
X169436123Y-93722018D01*
X169433009Y-93721700D01*
X169429860Y-93721700D01*
X168136140Y-93721700D01*
X168136120Y-93721700D01*
X168132992Y-93721701D01*
X168129860Y-93722020D01*
X168129858Y-93722021D01*
X168036938Y-93731512D01*
X168036928Y-93731513D01*
X168030203Y-93732201D01*
X168023781Y-93734328D01*
X168023776Y-93734330D01*
X167870521Y-93785114D01*
X167870517Y-93785115D01*
X167863666Y-93787386D01*
X167857522Y-93791175D01*
X167857519Y-93791177D01*
X167720488Y-93875697D01*
X167720480Y-93875703D01*
X167714344Y-93879488D01*
X167709242Y-93884589D01*
X167709238Y-93884593D01*
X167595393Y-93998438D01*
X167595389Y-93998442D01*
X167590288Y-94003544D01*
X167586503Y-94009680D01*
X167586497Y-94009688D01*
X167511852Y-94130709D01*
X167498186Y-94152866D01*
X167495915Y-94159717D01*
X167495914Y-94159721D01*
X167453341Y-94288198D01*
X167443001Y-94319403D01*
X167442313Y-94326133D01*
X167442312Y-94326140D01*
X167432819Y-94419059D01*
X167432818Y-94419077D01*
X167432500Y-94422191D01*
X167432500Y-94425338D01*
X167432500Y-94425339D01*
X167432500Y-95719059D01*
X167432500Y-95719078D01*
X167432501Y-95722208D01*
X167432820Y-95725340D01*
X167432821Y-95725341D01*
X167442312Y-95818261D01*
X167442313Y-95818269D01*
X167443001Y-95824997D01*
X167445129Y-95831419D01*
X167445130Y-95831423D01*
X167495088Y-95982185D01*
X167498186Y-95991534D01*
X167504651Y-96002015D01*
X167586497Y-96134711D01*
X167586500Y-96134715D01*
X167590288Y-96140856D01*
X167714344Y-96264912D01*
X167720485Y-96268700D01*
X167720488Y-96268702D01*
X167737737Y-96279341D01*
X167863666Y-96357014D01*
X167871481Y-96359603D01*
X167872785Y-96360036D01*
X167874337Y-96361065D01*
X167877067Y-96362338D01*
X167876875Y-96362747D01*
X167927011Y-96395981D01*
X167955575Y-96454432D01*
X167950615Y-96519300D01*
X167913972Y-96572043D01*
X167911599Y-96573705D01*
X167907775Y-96577528D01*
X167907769Y-96577534D01*
X167748334Y-96736969D01*
X167748328Y-96736975D01*
X167744505Y-96740799D01*
X167741402Y-96745229D01*
X167741399Y-96745234D01*
X167612073Y-96929931D01*
X167612068Y-96929938D01*
X167608965Y-96934371D01*
X167606677Y-96939277D01*
X167606675Y-96939281D01*
X167511386Y-97143627D01*
X167511383Y-97143632D01*
X167509097Y-97148537D01*
X167507697Y-97153758D01*
X167507693Y-97153772D01*
X167505759Y-97160993D01*
X167473665Y-97216579D01*
X167418078Y-97248672D01*
X167353891Y-97248672D01*
X167298304Y-97216578D01*
X164178690Y-94096964D01*
X164167995Y-94084769D01*
X164163637Y-94079090D01*
X164148773Y-94059718D01*
X164023332Y-93963464D01*
X163917095Y-93919459D01*
X163884762Y-93906066D01*
X163884759Y-93906065D01*
X163877253Y-93902956D01*
X163869199Y-93901895D01*
X163869193Y-93901894D01*
X163728550Y-93883379D01*
X163720491Y-93882318D01*
X163712432Y-93883379D01*
X163689189Y-93886439D01*
X163673004Y-93887500D01*
X155329063Y-93887500D01*
X155263091Y-93868494D01*
X155166090Y-93807544D01*
X155159524Y-93805246D01*
X155159521Y-93805245D01*
X155013033Y-93753987D01*
X155013030Y-93753986D01*
X155006459Y-93751687D01*
X155003914Y-93751400D01*
X164598751Y-93751400D01*
X164599531Y-93758323D01*
X164616906Y-93912535D01*
X164616907Y-93912542D01*
X164617687Y-93919459D01*
X164619986Y-93926030D01*
X164619987Y-93926033D01*
X164669407Y-94067269D01*
X164673544Y-94079090D01*
X164763523Y-94222290D01*
X164883110Y-94341877D01*
X165026310Y-94431856D01*
X165185941Y-94487713D01*
X165354000Y-94506649D01*
X165522059Y-94487713D01*
X165681690Y-94431856D01*
X165824890Y-94341877D01*
X165944477Y-94222290D01*
X166034456Y-94079090D01*
X166090313Y-93919459D01*
X166109249Y-93751400D01*
X166090313Y-93583341D01*
X166034456Y-93423710D01*
X165944477Y-93280510D01*
X165824890Y-93160923D01*
X165681690Y-93070944D01*
X165675124Y-93068646D01*
X165675121Y-93068645D01*
X165528633Y-93017387D01*
X165528630Y-93017386D01*
X165522059Y-93015087D01*
X165515142Y-93014307D01*
X165515135Y-93014306D01*
X165360923Y-92996931D01*
X165354000Y-92996151D01*
X165347077Y-92996931D01*
X165192864Y-93014306D01*
X165192855Y-93014307D01*
X165185941Y-93015087D01*
X165179371Y-93017385D01*
X165179366Y-93017387D01*
X165032878Y-93068645D01*
X165032872Y-93068647D01*
X165026310Y-93070944D01*
X165020419Y-93074645D01*
X165020418Y-93074646D01*
X164889010Y-93157215D01*
X164889005Y-93157218D01*
X164883110Y-93160923D01*
X164878185Y-93165847D01*
X164878181Y-93165851D01*
X164768451Y-93275581D01*
X164768447Y-93275585D01*
X164763523Y-93280510D01*
X164759818Y-93286405D01*
X164759815Y-93286410D01*
X164677246Y-93417818D01*
X164673544Y-93423710D01*
X164671247Y-93430272D01*
X164671245Y-93430278D01*
X164619987Y-93576766D01*
X164619985Y-93576771D01*
X164617687Y-93583341D01*
X164616907Y-93590255D01*
X164616906Y-93590264D01*
X164602097Y-93721700D01*
X164598751Y-93751400D01*
X155003914Y-93751400D01*
X154999542Y-93750907D01*
X154999535Y-93750906D01*
X154845323Y-93733531D01*
X154838400Y-93732751D01*
X154831477Y-93733531D01*
X154677264Y-93750906D01*
X154677255Y-93750907D01*
X154670341Y-93751687D01*
X154663771Y-93753985D01*
X154663766Y-93753987D01*
X154517278Y-93805245D01*
X154517272Y-93805247D01*
X154510710Y-93807544D01*
X154504819Y-93811245D01*
X154504818Y-93811246D01*
X154373410Y-93893815D01*
X154373405Y-93893818D01*
X154367510Y-93897523D01*
X154362585Y-93902447D01*
X154362581Y-93902451D01*
X154252851Y-94012181D01*
X154252847Y-94012185D01*
X154247923Y-94017110D01*
X154244218Y-94023005D01*
X154244215Y-94023010D01*
X154166484Y-94146719D01*
X154157944Y-94160310D01*
X154155647Y-94166872D01*
X154155645Y-94166878D01*
X154104387Y-94313366D01*
X154104385Y-94313371D01*
X154102087Y-94319941D01*
X154101307Y-94326855D01*
X154101306Y-94326864D01*
X154089894Y-94428153D01*
X154083151Y-94488000D01*
X154083931Y-94494923D01*
X154093318Y-94578235D01*
X154085184Y-94638283D01*
X154049567Y-94687307D01*
X153994971Y-94713599D01*
X153934436Y-94710880D01*
X153882417Y-94679800D01*
X152605019Y-93402402D01*
X152578139Y-93362174D01*
X152568700Y-93314721D01*
X152568700Y-92565663D01*
X152587706Y-92499691D01*
X152648656Y-92402690D01*
X152704513Y-92243059D01*
X152723449Y-92075000D01*
X152704513Y-91906941D01*
X152648656Y-91747310D01*
X152558677Y-91604110D01*
X152439090Y-91484523D01*
X152295890Y-91394544D01*
X152289324Y-91392246D01*
X152289321Y-91392245D01*
X152142833Y-91340987D01*
X152142830Y-91340986D01*
X152136259Y-91338687D01*
X152129342Y-91337907D01*
X152129335Y-91337906D01*
X151975123Y-91320531D01*
X151968200Y-91319751D01*
X151961277Y-91320531D01*
X151807064Y-91337906D01*
X151807055Y-91337907D01*
X151800141Y-91338687D01*
X151793571Y-91340985D01*
X151793566Y-91340987D01*
X151647078Y-91392245D01*
X151647072Y-91392247D01*
X151640510Y-91394544D01*
X151634619Y-91398245D01*
X151634618Y-91398246D01*
X151503210Y-91480815D01*
X151503205Y-91480818D01*
X151497310Y-91484523D01*
X151492385Y-91489447D01*
X151492381Y-91489451D01*
X151382651Y-91599181D01*
X151382647Y-91599185D01*
X151377723Y-91604110D01*
X151374018Y-91610005D01*
X151374015Y-91610010D01*
X151291446Y-91741418D01*
X151287744Y-91747310D01*
X151285447Y-91753872D01*
X151285445Y-91753878D01*
X151234187Y-91900366D01*
X151234185Y-91900371D01*
X151231887Y-91906941D01*
X151231107Y-91913855D01*
X151231106Y-91913864D01*
X151215845Y-92049313D01*
X151212951Y-92075000D01*
X142824200Y-92075000D01*
X142824200Y-91313000D01*
X146615551Y-91313000D01*
X146616331Y-91319923D01*
X146633706Y-91474135D01*
X146633707Y-91474142D01*
X146634487Y-91481059D01*
X146636786Y-91487630D01*
X146636787Y-91487633D01*
X146679608Y-91610010D01*
X146690344Y-91640690D01*
X146780323Y-91783890D01*
X146899910Y-91903477D01*
X147043110Y-91993456D01*
X147202741Y-92049313D01*
X147370800Y-92068249D01*
X147538859Y-92049313D01*
X147698490Y-91993456D01*
X147841690Y-91903477D01*
X147961277Y-91783890D01*
X148051256Y-91640690D01*
X148107113Y-91481059D01*
X148126049Y-91313000D01*
X148107113Y-91144941D01*
X148051256Y-90985310D01*
X147961277Y-90842110D01*
X147841690Y-90722523D01*
X147698490Y-90632544D01*
X147691924Y-90630246D01*
X147691921Y-90630245D01*
X147545433Y-90578987D01*
X147545430Y-90578986D01*
X147538859Y-90576687D01*
X147531942Y-90575907D01*
X147531935Y-90575906D01*
X147377723Y-90558531D01*
X147370800Y-90557751D01*
X147363877Y-90558531D01*
X147209664Y-90575906D01*
X147209655Y-90575907D01*
X147202741Y-90576687D01*
X147196171Y-90578985D01*
X147196166Y-90578987D01*
X147049678Y-90630245D01*
X147049672Y-90630247D01*
X147043110Y-90632544D01*
X147037219Y-90636245D01*
X147037218Y-90636246D01*
X146905810Y-90718815D01*
X146905805Y-90718818D01*
X146899910Y-90722523D01*
X146894985Y-90727447D01*
X146894981Y-90727451D01*
X146785251Y-90837181D01*
X146785247Y-90837185D01*
X146780323Y-90842110D01*
X146776618Y-90848005D01*
X146776615Y-90848010D01*
X146694046Y-90979418D01*
X146690344Y-90985310D01*
X146688047Y-90991872D01*
X146688045Y-90991878D01*
X146636787Y-91138366D01*
X146636785Y-91138371D01*
X146634487Y-91144941D01*
X146633707Y-91151855D01*
X146633706Y-91151864D01*
X146616331Y-91306077D01*
X146615551Y-91313000D01*
X142824200Y-91313000D01*
X142824200Y-90729362D01*
X142833639Y-90681909D01*
X142860519Y-90641681D01*
X144032481Y-89469719D01*
X144072709Y-89442839D01*
X144120162Y-89433400D01*
X173811638Y-89433400D01*
X173859091Y-89442839D01*
G37*
%TD.AperFunction*%
%TD*%
M02*
