%TF.GenerationSoftware,KiCad,Pcbnew,(7.0.0)*%
%TF.CreationDate,2024-01-19T16:55:17+05:30*%
%TF.ProjectId,Programmer,50726f67-7261-46d6-9d65-722e6b696361,rev?*%
%TF.SameCoordinates,Original*%
%TF.FileFunction,Legend,Top*%
%TF.FilePolarity,Positive*%
%FSLAX46Y46*%
G04 Gerber Fmt 4.6, Leading zero omitted, Abs format (unit mm)*
G04 Created by KiCad (PCBNEW (7.0.0)) date 2024-01-19 16:55:17*
%MOMM*%
%LPD*%
G01*
G04 APERTURE LIST*
%ADD10C,0.150000*%
%ADD11C,0.100000*%
%ADD12C,0.120000*%
G04 APERTURE END LIST*
D10*
%TO.C,J2*%
X169719666Y-88339580D02*
X169719666Y-89053866D01*
X169719666Y-89053866D02*
X169672047Y-89196723D01*
X169672047Y-89196723D02*
X169576809Y-89291961D01*
X169576809Y-89291961D02*
X169433952Y-89339580D01*
X169433952Y-89339580D02*
X169338714Y-89339580D01*
X170148238Y-88434819D02*
X170195857Y-88387200D01*
X170195857Y-88387200D02*
X170291095Y-88339580D01*
X170291095Y-88339580D02*
X170529190Y-88339580D01*
X170529190Y-88339580D02*
X170624428Y-88387200D01*
X170624428Y-88387200D02*
X170672047Y-88434819D01*
X170672047Y-88434819D02*
X170719666Y-88530057D01*
X170719666Y-88530057D02*
X170719666Y-88625295D01*
X170719666Y-88625295D02*
X170672047Y-88768152D01*
X170672047Y-88768152D02*
X170100619Y-89339580D01*
X170100619Y-89339580D02*
X170719666Y-89339580D01*
D11*
%TO.C,C5*%
X152939485Y-103480399D02*
X152968057Y-103508971D01*
X152968057Y-103508971D02*
X152996628Y-103594685D01*
X152996628Y-103594685D02*
X152996628Y-103651828D01*
X152996628Y-103651828D02*
X152968057Y-103737542D01*
X152968057Y-103737542D02*
X152910914Y-103794685D01*
X152910914Y-103794685D02*
X152853771Y-103823256D01*
X152853771Y-103823256D02*
X152739485Y-103851828D01*
X152739485Y-103851828D02*
X152653771Y-103851828D01*
X152653771Y-103851828D02*
X152539485Y-103823256D01*
X152539485Y-103823256D02*
X152482342Y-103794685D01*
X152482342Y-103794685D02*
X152425200Y-103737542D01*
X152425200Y-103737542D02*
X152396628Y-103651828D01*
X152396628Y-103651828D02*
X152396628Y-103594685D01*
X152396628Y-103594685D02*
X152425200Y-103508971D01*
X152425200Y-103508971D02*
X152453771Y-103480399D01*
X152396628Y-102937542D02*
X152396628Y-103223256D01*
X152396628Y-103223256D02*
X152682342Y-103251828D01*
X152682342Y-103251828D02*
X152653771Y-103223256D01*
X152653771Y-103223256D02*
X152625200Y-103166114D01*
X152625200Y-103166114D02*
X152625200Y-103023256D01*
X152625200Y-103023256D02*
X152653771Y-102966114D01*
X152653771Y-102966114D02*
X152682342Y-102937542D01*
X152682342Y-102937542D02*
X152739485Y-102908971D01*
X152739485Y-102908971D02*
X152882342Y-102908971D01*
X152882342Y-102908971D02*
X152939485Y-102937542D01*
X152939485Y-102937542D02*
X152968057Y-102966114D01*
X152968057Y-102966114D02*
X152996628Y-103023256D01*
X152996628Y-103023256D02*
X152996628Y-103166114D01*
X152996628Y-103166114D02*
X152968057Y-103223256D01*
X152968057Y-103223256D02*
X152939485Y-103251828D01*
%TO.C,C2*%
X149348800Y-100749685D02*
X149320228Y-100778257D01*
X149320228Y-100778257D02*
X149234514Y-100806828D01*
X149234514Y-100806828D02*
X149177371Y-100806828D01*
X149177371Y-100806828D02*
X149091657Y-100778257D01*
X149091657Y-100778257D02*
X149034514Y-100721114D01*
X149034514Y-100721114D02*
X149005943Y-100663971D01*
X149005943Y-100663971D02*
X148977371Y-100549685D01*
X148977371Y-100549685D02*
X148977371Y-100463971D01*
X148977371Y-100463971D02*
X149005943Y-100349685D01*
X149005943Y-100349685D02*
X149034514Y-100292542D01*
X149034514Y-100292542D02*
X149091657Y-100235400D01*
X149091657Y-100235400D02*
X149177371Y-100206828D01*
X149177371Y-100206828D02*
X149234514Y-100206828D01*
X149234514Y-100206828D02*
X149320228Y-100235400D01*
X149320228Y-100235400D02*
X149348800Y-100263971D01*
X149577371Y-100263971D02*
X149605943Y-100235400D01*
X149605943Y-100235400D02*
X149663086Y-100206828D01*
X149663086Y-100206828D02*
X149805943Y-100206828D01*
X149805943Y-100206828D02*
X149863086Y-100235400D01*
X149863086Y-100235400D02*
X149891657Y-100263971D01*
X149891657Y-100263971D02*
X149920228Y-100321114D01*
X149920228Y-100321114D02*
X149920228Y-100378257D01*
X149920228Y-100378257D02*
X149891657Y-100463971D01*
X149891657Y-100463971D02*
X149548800Y-100806828D01*
X149548800Y-100806828D02*
X149920228Y-100806828D01*
%TO.C,C3*%
X149323400Y-101689485D02*
X149294828Y-101718057D01*
X149294828Y-101718057D02*
X149209114Y-101746628D01*
X149209114Y-101746628D02*
X149151971Y-101746628D01*
X149151971Y-101746628D02*
X149066257Y-101718057D01*
X149066257Y-101718057D02*
X149009114Y-101660914D01*
X149009114Y-101660914D02*
X148980543Y-101603771D01*
X148980543Y-101603771D02*
X148951971Y-101489485D01*
X148951971Y-101489485D02*
X148951971Y-101403771D01*
X148951971Y-101403771D02*
X148980543Y-101289485D01*
X148980543Y-101289485D02*
X149009114Y-101232342D01*
X149009114Y-101232342D02*
X149066257Y-101175200D01*
X149066257Y-101175200D02*
X149151971Y-101146628D01*
X149151971Y-101146628D02*
X149209114Y-101146628D01*
X149209114Y-101146628D02*
X149294828Y-101175200D01*
X149294828Y-101175200D02*
X149323400Y-101203771D01*
X149523400Y-101146628D02*
X149894828Y-101146628D01*
X149894828Y-101146628D02*
X149694828Y-101375200D01*
X149694828Y-101375200D02*
X149780543Y-101375200D01*
X149780543Y-101375200D02*
X149837686Y-101403771D01*
X149837686Y-101403771D02*
X149866257Y-101432342D01*
X149866257Y-101432342D02*
X149894828Y-101489485D01*
X149894828Y-101489485D02*
X149894828Y-101632342D01*
X149894828Y-101632342D02*
X149866257Y-101689485D01*
X149866257Y-101689485D02*
X149837686Y-101718057D01*
X149837686Y-101718057D02*
X149780543Y-101746628D01*
X149780543Y-101746628D02*
X149609114Y-101746628D01*
X149609114Y-101746628D02*
X149551971Y-101718057D01*
X149551971Y-101718057D02*
X149523400Y-101689485D01*
%TO.C,Q1*%
X159581571Y-94268142D02*
X159553000Y-94325285D01*
X159553000Y-94325285D02*
X159495857Y-94382428D01*
X159495857Y-94382428D02*
X159410142Y-94468142D01*
X159410142Y-94468142D02*
X159381571Y-94525285D01*
X159381571Y-94525285D02*
X159381571Y-94582428D01*
X159524428Y-94553857D02*
X159495857Y-94611000D01*
X159495857Y-94611000D02*
X159438714Y-94668142D01*
X159438714Y-94668142D02*
X159324428Y-94696714D01*
X159324428Y-94696714D02*
X159124428Y-94696714D01*
X159124428Y-94696714D02*
X159010142Y-94668142D01*
X159010142Y-94668142D02*
X158953000Y-94611000D01*
X158953000Y-94611000D02*
X158924428Y-94553857D01*
X158924428Y-94553857D02*
X158924428Y-94439571D01*
X158924428Y-94439571D02*
X158953000Y-94382428D01*
X158953000Y-94382428D02*
X159010142Y-94325285D01*
X159010142Y-94325285D02*
X159124428Y-94296714D01*
X159124428Y-94296714D02*
X159324428Y-94296714D01*
X159324428Y-94296714D02*
X159438714Y-94325285D01*
X159438714Y-94325285D02*
X159495857Y-94382428D01*
X159495857Y-94382428D02*
X159524428Y-94439571D01*
X159524428Y-94439571D02*
X159524428Y-94553857D01*
X159524428Y-93725286D02*
X159524428Y-94068143D01*
X159524428Y-93896714D02*
X158924428Y-93896714D01*
X158924428Y-93896714D02*
X159010142Y-93953857D01*
X159010142Y-93953857D02*
X159067285Y-94011000D01*
X159067285Y-94011000D02*
X159095857Y-94068143D01*
%TO.C,R1*%
X155170200Y-90695228D02*
X154970200Y-90409514D01*
X154827343Y-90695228D02*
X154827343Y-90095228D01*
X154827343Y-90095228D02*
X155055914Y-90095228D01*
X155055914Y-90095228D02*
X155113057Y-90123800D01*
X155113057Y-90123800D02*
X155141628Y-90152371D01*
X155141628Y-90152371D02*
X155170200Y-90209514D01*
X155170200Y-90209514D02*
X155170200Y-90295228D01*
X155170200Y-90295228D02*
X155141628Y-90352371D01*
X155141628Y-90352371D02*
X155113057Y-90380942D01*
X155113057Y-90380942D02*
X155055914Y-90409514D01*
X155055914Y-90409514D02*
X154827343Y-90409514D01*
X155741628Y-90695228D02*
X155398771Y-90695228D01*
X155570200Y-90695228D02*
X155570200Y-90095228D01*
X155570200Y-90095228D02*
X155513057Y-90180942D01*
X155513057Y-90180942D02*
X155455914Y-90238085D01*
X155455914Y-90238085D02*
X155398771Y-90266657D01*
%TO.C,R7*%
X155449600Y-92041428D02*
X155249600Y-91755714D01*
X155106743Y-92041428D02*
X155106743Y-91441428D01*
X155106743Y-91441428D02*
X155335314Y-91441428D01*
X155335314Y-91441428D02*
X155392457Y-91470000D01*
X155392457Y-91470000D02*
X155421028Y-91498571D01*
X155421028Y-91498571D02*
X155449600Y-91555714D01*
X155449600Y-91555714D02*
X155449600Y-91641428D01*
X155449600Y-91641428D02*
X155421028Y-91698571D01*
X155421028Y-91698571D02*
X155392457Y-91727142D01*
X155392457Y-91727142D02*
X155335314Y-91755714D01*
X155335314Y-91755714D02*
X155106743Y-91755714D01*
X155649600Y-91441428D02*
X156049600Y-91441428D01*
X156049600Y-91441428D02*
X155792457Y-92041428D01*
%TO.C,D3*%
X162394628Y-101638856D02*
X161794628Y-101638856D01*
X161794628Y-101638856D02*
X161794628Y-101495999D01*
X161794628Y-101495999D02*
X161823200Y-101410285D01*
X161823200Y-101410285D02*
X161880342Y-101353142D01*
X161880342Y-101353142D02*
X161937485Y-101324571D01*
X161937485Y-101324571D02*
X162051771Y-101295999D01*
X162051771Y-101295999D02*
X162137485Y-101295999D01*
X162137485Y-101295999D02*
X162251771Y-101324571D01*
X162251771Y-101324571D02*
X162308914Y-101353142D01*
X162308914Y-101353142D02*
X162366057Y-101410285D01*
X162366057Y-101410285D02*
X162394628Y-101495999D01*
X162394628Y-101495999D02*
X162394628Y-101638856D01*
X161794628Y-101095999D02*
X161794628Y-100724571D01*
X161794628Y-100724571D02*
X162023200Y-100924571D01*
X162023200Y-100924571D02*
X162023200Y-100838856D01*
X162023200Y-100838856D02*
X162051771Y-100781714D01*
X162051771Y-100781714D02*
X162080342Y-100753142D01*
X162080342Y-100753142D02*
X162137485Y-100724571D01*
X162137485Y-100724571D02*
X162280342Y-100724571D01*
X162280342Y-100724571D02*
X162337485Y-100753142D01*
X162337485Y-100753142D02*
X162366057Y-100781714D01*
X162366057Y-100781714D02*
X162394628Y-100838856D01*
X162394628Y-100838856D02*
X162394628Y-101010285D01*
X162394628Y-101010285D02*
X162366057Y-101067428D01*
X162366057Y-101067428D02*
X162337485Y-101095999D01*
%TO.C,C6*%
X149371600Y-102603885D02*
X149343028Y-102632457D01*
X149343028Y-102632457D02*
X149257314Y-102661028D01*
X149257314Y-102661028D02*
X149200171Y-102661028D01*
X149200171Y-102661028D02*
X149114457Y-102632457D01*
X149114457Y-102632457D02*
X149057314Y-102575314D01*
X149057314Y-102575314D02*
X149028743Y-102518171D01*
X149028743Y-102518171D02*
X149000171Y-102403885D01*
X149000171Y-102403885D02*
X149000171Y-102318171D01*
X149000171Y-102318171D02*
X149028743Y-102203885D01*
X149028743Y-102203885D02*
X149057314Y-102146742D01*
X149057314Y-102146742D02*
X149114457Y-102089600D01*
X149114457Y-102089600D02*
X149200171Y-102061028D01*
X149200171Y-102061028D02*
X149257314Y-102061028D01*
X149257314Y-102061028D02*
X149343028Y-102089600D01*
X149343028Y-102089600D02*
X149371600Y-102118171D01*
X149885886Y-102061028D02*
X149771600Y-102061028D01*
X149771600Y-102061028D02*
X149714457Y-102089600D01*
X149714457Y-102089600D02*
X149685886Y-102118171D01*
X149685886Y-102118171D02*
X149628743Y-102203885D01*
X149628743Y-102203885D02*
X149600171Y-102318171D01*
X149600171Y-102318171D02*
X149600171Y-102546742D01*
X149600171Y-102546742D02*
X149628743Y-102603885D01*
X149628743Y-102603885D02*
X149657314Y-102632457D01*
X149657314Y-102632457D02*
X149714457Y-102661028D01*
X149714457Y-102661028D02*
X149828743Y-102661028D01*
X149828743Y-102661028D02*
X149885886Y-102632457D01*
X149885886Y-102632457D02*
X149914457Y-102603885D01*
X149914457Y-102603885D02*
X149943028Y-102546742D01*
X149943028Y-102546742D02*
X149943028Y-102403885D01*
X149943028Y-102403885D02*
X149914457Y-102346742D01*
X149914457Y-102346742D02*
X149885886Y-102318171D01*
X149885886Y-102318171D02*
X149828743Y-102289600D01*
X149828743Y-102289600D02*
X149714457Y-102289600D01*
X149714457Y-102289600D02*
X149657314Y-102318171D01*
X149657314Y-102318171D02*
X149628743Y-102346742D01*
X149628743Y-102346742D02*
X149600171Y-102403885D01*
%TO.C,R8*%
X150969428Y-94054599D02*
X150683714Y-94254599D01*
X150969428Y-94397456D02*
X150369428Y-94397456D01*
X150369428Y-94397456D02*
X150369428Y-94168885D01*
X150369428Y-94168885D02*
X150398000Y-94111742D01*
X150398000Y-94111742D02*
X150426571Y-94083171D01*
X150426571Y-94083171D02*
X150483714Y-94054599D01*
X150483714Y-94054599D02*
X150569428Y-94054599D01*
X150569428Y-94054599D02*
X150626571Y-94083171D01*
X150626571Y-94083171D02*
X150655142Y-94111742D01*
X150655142Y-94111742D02*
X150683714Y-94168885D01*
X150683714Y-94168885D02*
X150683714Y-94397456D01*
X150626571Y-93711742D02*
X150598000Y-93768885D01*
X150598000Y-93768885D02*
X150569428Y-93797456D01*
X150569428Y-93797456D02*
X150512285Y-93826028D01*
X150512285Y-93826028D02*
X150483714Y-93826028D01*
X150483714Y-93826028D02*
X150426571Y-93797456D01*
X150426571Y-93797456D02*
X150398000Y-93768885D01*
X150398000Y-93768885D02*
X150369428Y-93711742D01*
X150369428Y-93711742D02*
X150369428Y-93597456D01*
X150369428Y-93597456D02*
X150398000Y-93540314D01*
X150398000Y-93540314D02*
X150426571Y-93511742D01*
X150426571Y-93511742D02*
X150483714Y-93483171D01*
X150483714Y-93483171D02*
X150512285Y-93483171D01*
X150512285Y-93483171D02*
X150569428Y-93511742D01*
X150569428Y-93511742D02*
X150598000Y-93540314D01*
X150598000Y-93540314D02*
X150626571Y-93597456D01*
X150626571Y-93597456D02*
X150626571Y-93711742D01*
X150626571Y-93711742D02*
X150655142Y-93768885D01*
X150655142Y-93768885D02*
X150683714Y-93797456D01*
X150683714Y-93797456D02*
X150740857Y-93826028D01*
X150740857Y-93826028D02*
X150855142Y-93826028D01*
X150855142Y-93826028D02*
X150912285Y-93797456D01*
X150912285Y-93797456D02*
X150940857Y-93768885D01*
X150940857Y-93768885D02*
X150969428Y-93711742D01*
X150969428Y-93711742D02*
X150969428Y-93597456D01*
X150969428Y-93597456D02*
X150940857Y-93540314D01*
X150940857Y-93540314D02*
X150912285Y-93511742D01*
X150912285Y-93511742D02*
X150855142Y-93483171D01*
X150855142Y-93483171D02*
X150740857Y-93483171D01*
X150740857Y-93483171D02*
X150683714Y-93511742D01*
X150683714Y-93511742D02*
X150655142Y-93540314D01*
X150655142Y-93540314D02*
X150626571Y-93597456D01*
%TO.C,U2*%
X158496057Y-96369028D02*
X158496057Y-96854742D01*
X158496057Y-96854742D02*
X158524628Y-96911885D01*
X158524628Y-96911885D02*
X158553200Y-96940457D01*
X158553200Y-96940457D02*
X158610342Y-96969028D01*
X158610342Y-96969028D02*
X158724628Y-96969028D01*
X158724628Y-96969028D02*
X158781771Y-96940457D01*
X158781771Y-96940457D02*
X158810342Y-96911885D01*
X158810342Y-96911885D02*
X158838914Y-96854742D01*
X158838914Y-96854742D02*
X158838914Y-96369028D01*
X159096056Y-96426171D02*
X159124628Y-96397600D01*
X159124628Y-96397600D02*
X159181771Y-96369028D01*
X159181771Y-96369028D02*
X159324628Y-96369028D01*
X159324628Y-96369028D02*
X159381771Y-96397600D01*
X159381771Y-96397600D02*
X159410342Y-96426171D01*
X159410342Y-96426171D02*
X159438913Y-96483314D01*
X159438913Y-96483314D02*
X159438913Y-96540457D01*
X159438913Y-96540457D02*
X159410342Y-96626171D01*
X159410342Y-96626171D02*
X159067485Y-96969028D01*
X159067485Y-96969028D02*
X159438913Y-96969028D01*
%TO.C,R6*%
X155612828Y-103454999D02*
X155327114Y-103654999D01*
X155612828Y-103797856D02*
X155012828Y-103797856D01*
X155012828Y-103797856D02*
X155012828Y-103569285D01*
X155012828Y-103569285D02*
X155041400Y-103512142D01*
X155041400Y-103512142D02*
X155069971Y-103483571D01*
X155069971Y-103483571D02*
X155127114Y-103454999D01*
X155127114Y-103454999D02*
X155212828Y-103454999D01*
X155212828Y-103454999D02*
X155269971Y-103483571D01*
X155269971Y-103483571D02*
X155298542Y-103512142D01*
X155298542Y-103512142D02*
X155327114Y-103569285D01*
X155327114Y-103569285D02*
X155327114Y-103797856D01*
X155012828Y-102940714D02*
X155012828Y-103054999D01*
X155012828Y-103054999D02*
X155041400Y-103112142D01*
X155041400Y-103112142D02*
X155069971Y-103140714D01*
X155069971Y-103140714D02*
X155155685Y-103197856D01*
X155155685Y-103197856D02*
X155269971Y-103226428D01*
X155269971Y-103226428D02*
X155498542Y-103226428D01*
X155498542Y-103226428D02*
X155555685Y-103197856D01*
X155555685Y-103197856D02*
X155584257Y-103169285D01*
X155584257Y-103169285D02*
X155612828Y-103112142D01*
X155612828Y-103112142D02*
X155612828Y-102997856D01*
X155612828Y-102997856D02*
X155584257Y-102940714D01*
X155584257Y-102940714D02*
X155555685Y-102912142D01*
X155555685Y-102912142D02*
X155498542Y-102883571D01*
X155498542Y-102883571D02*
X155355685Y-102883571D01*
X155355685Y-102883571D02*
X155298542Y-102912142D01*
X155298542Y-102912142D02*
X155269971Y-102940714D01*
X155269971Y-102940714D02*
X155241400Y-102997856D01*
X155241400Y-102997856D02*
X155241400Y-103112142D01*
X155241400Y-103112142D02*
X155269971Y-103169285D01*
X155269971Y-103169285D02*
X155298542Y-103197856D01*
X155298542Y-103197856D02*
X155355685Y-103226428D01*
%TO.C,D1*%
X160770943Y-90771428D02*
X160770943Y-90171428D01*
X160770943Y-90171428D02*
X160913800Y-90171428D01*
X160913800Y-90171428D02*
X160999514Y-90200000D01*
X160999514Y-90200000D02*
X161056657Y-90257142D01*
X161056657Y-90257142D02*
X161085228Y-90314285D01*
X161085228Y-90314285D02*
X161113800Y-90428571D01*
X161113800Y-90428571D02*
X161113800Y-90514285D01*
X161113800Y-90514285D02*
X161085228Y-90628571D01*
X161085228Y-90628571D02*
X161056657Y-90685714D01*
X161056657Y-90685714D02*
X160999514Y-90742857D01*
X160999514Y-90742857D02*
X160913800Y-90771428D01*
X160913800Y-90771428D02*
X160770943Y-90771428D01*
X161685228Y-90771428D02*
X161342371Y-90771428D01*
X161513800Y-90771428D02*
X161513800Y-90171428D01*
X161513800Y-90171428D02*
X161456657Y-90257142D01*
X161456657Y-90257142D02*
X161399514Y-90314285D01*
X161399514Y-90314285D02*
X161342371Y-90342857D01*
%TO.C,R3*%
X158772200Y-104693028D02*
X158572200Y-104407314D01*
X158429343Y-104693028D02*
X158429343Y-104093028D01*
X158429343Y-104093028D02*
X158657914Y-104093028D01*
X158657914Y-104093028D02*
X158715057Y-104121600D01*
X158715057Y-104121600D02*
X158743628Y-104150171D01*
X158743628Y-104150171D02*
X158772200Y-104207314D01*
X158772200Y-104207314D02*
X158772200Y-104293028D01*
X158772200Y-104293028D02*
X158743628Y-104350171D01*
X158743628Y-104350171D02*
X158715057Y-104378742D01*
X158715057Y-104378742D02*
X158657914Y-104407314D01*
X158657914Y-104407314D02*
X158429343Y-104407314D01*
X158972200Y-104093028D02*
X159343628Y-104093028D01*
X159343628Y-104093028D02*
X159143628Y-104321600D01*
X159143628Y-104321600D02*
X159229343Y-104321600D01*
X159229343Y-104321600D02*
X159286486Y-104350171D01*
X159286486Y-104350171D02*
X159315057Y-104378742D01*
X159315057Y-104378742D02*
X159343628Y-104435885D01*
X159343628Y-104435885D02*
X159343628Y-104578742D01*
X159343628Y-104578742D02*
X159315057Y-104635885D01*
X159315057Y-104635885D02*
X159286486Y-104664457D01*
X159286486Y-104664457D02*
X159229343Y-104693028D01*
X159229343Y-104693028D02*
X159057914Y-104693028D01*
X159057914Y-104693028D02*
X159000771Y-104664457D01*
X159000771Y-104664457D02*
X158972200Y-104635885D01*
%TO.C,D2*%
X149197943Y-97807228D02*
X149197943Y-97207228D01*
X149197943Y-97207228D02*
X149340800Y-97207228D01*
X149340800Y-97207228D02*
X149426514Y-97235800D01*
X149426514Y-97235800D02*
X149483657Y-97292942D01*
X149483657Y-97292942D02*
X149512228Y-97350085D01*
X149512228Y-97350085D02*
X149540800Y-97464371D01*
X149540800Y-97464371D02*
X149540800Y-97550085D01*
X149540800Y-97550085D02*
X149512228Y-97664371D01*
X149512228Y-97664371D02*
X149483657Y-97721514D01*
X149483657Y-97721514D02*
X149426514Y-97778657D01*
X149426514Y-97778657D02*
X149340800Y-97807228D01*
X149340800Y-97807228D02*
X149197943Y-97807228D01*
X149769371Y-97264371D02*
X149797943Y-97235800D01*
X149797943Y-97235800D02*
X149855086Y-97207228D01*
X149855086Y-97207228D02*
X149997943Y-97207228D01*
X149997943Y-97207228D02*
X150055086Y-97235800D01*
X150055086Y-97235800D02*
X150083657Y-97264371D01*
X150083657Y-97264371D02*
X150112228Y-97321514D01*
X150112228Y-97321514D02*
X150112228Y-97378657D01*
X150112228Y-97378657D02*
X150083657Y-97464371D01*
X150083657Y-97464371D02*
X149740800Y-97807228D01*
X149740800Y-97807228D02*
X150112228Y-97807228D01*
%TO.C,R12*%
X145660828Y-92335714D02*
X145375114Y-92535714D01*
X145660828Y-92678571D02*
X145060828Y-92678571D01*
X145060828Y-92678571D02*
X145060828Y-92450000D01*
X145060828Y-92450000D02*
X145089400Y-92392857D01*
X145089400Y-92392857D02*
X145117971Y-92364286D01*
X145117971Y-92364286D02*
X145175114Y-92335714D01*
X145175114Y-92335714D02*
X145260828Y-92335714D01*
X145260828Y-92335714D02*
X145317971Y-92364286D01*
X145317971Y-92364286D02*
X145346542Y-92392857D01*
X145346542Y-92392857D02*
X145375114Y-92450000D01*
X145375114Y-92450000D02*
X145375114Y-92678571D01*
X145660828Y-91764286D02*
X145660828Y-92107143D01*
X145660828Y-91935714D02*
X145060828Y-91935714D01*
X145060828Y-91935714D02*
X145146542Y-91992857D01*
X145146542Y-91992857D02*
X145203685Y-92050000D01*
X145203685Y-92050000D02*
X145232257Y-92107143D01*
X145117971Y-91535714D02*
X145089400Y-91507142D01*
X145089400Y-91507142D02*
X145060828Y-91450000D01*
X145060828Y-91450000D02*
X145060828Y-91307142D01*
X145060828Y-91307142D02*
X145089400Y-91250000D01*
X145089400Y-91250000D02*
X145117971Y-91221428D01*
X145117971Y-91221428D02*
X145175114Y-91192857D01*
X145175114Y-91192857D02*
X145232257Y-91192857D01*
X145232257Y-91192857D02*
X145317971Y-91221428D01*
X145317971Y-91221428D02*
X145660828Y-91564285D01*
X145660828Y-91564285D02*
X145660828Y-91192857D01*
%TO.C,D4*%
X159626028Y-100013256D02*
X159026028Y-100013256D01*
X159026028Y-100013256D02*
X159026028Y-99870399D01*
X159026028Y-99870399D02*
X159054600Y-99784685D01*
X159054600Y-99784685D02*
X159111742Y-99727542D01*
X159111742Y-99727542D02*
X159168885Y-99698971D01*
X159168885Y-99698971D02*
X159283171Y-99670399D01*
X159283171Y-99670399D02*
X159368885Y-99670399D01*
X159368885Y-99670399D02*
X159483171Y-99698971D01*
X159483171Y-99698971D02*
X159540314Y-99727542D01*
X159540314Y-99727542D02*
X159597457Y-99784685D01*
X159597457Y-99784685D02*
X159626028Y-99870399D01*
X159626028Y-99870399D02*
X159626028Y-100013256D01*
X159226028Y-99156114D02*
X159626028Y-99156114D01*
X158997457Y-99298971D02*
X159426028Y-99441828D01*
X159426028Y-99441828D02*
X159426028Y-99070399D01*
%TO.C,D5*%
X143930743Y-93387528D02*
X143930743Y-92787528D01*
X143930743Y-92787528D02*
X144073600Y-92787528D01*
X144073600Y-92787528D02*
X144159314Y-92816100D01*
X144159314Y-92816100D02*
X144216457Y-92873242D01*
X144216457Y-92873242D02*
X144245028Y-92930385D01*
X144245028Y-92930385D02*
X144273600Y-93044671D01*
X144273600Y-93044671D02*
X144273600Y-93130385D01*
X144273600Y-93130385D02*
X144245028Y-93244671D01*
X144245028Y-93244671D02*
X144216457Y-93301814D01*
X144216457Y-93301814D02*
X144159314Y-93358957D01*
X144159314Y-93358957D02*
X144073600Y-93387528D01*
X144073600Y-93387528D02*
X143930743Y-93387528D01*
X144816457Y-92787528D02*
X144530743Y-92787528D01*
X144530743Y-92787528D02*
X144502171Y-93073242D01*
X144502171Y-93073242D02*
X144530743Y-93044671D01*
X144530743Y-93044671D02*
X144587886Y-93016100D01*
X144587886Y-93016100D02*
X144730743Y-93016100D01*
X144730743Y-93016100D02*
X144787886Y-93044671D01*
X144787886Y-93044671D02*
X144816457Y-93073242D01*
X144816457Y-93073242D02*
X144845028Y-93130385D01*
X144845028Y-93130385D02*
X144845028Y-93273242D01*
X144845028Y-93273242D02*
X144816457Y-93330385D01*
X144816457Y-93330385D02*
X144787886Y-93358957D01*
X144787886Y-93358957D02*
X144730743Y-93387528D01*
X144730743Y-93387528D02*
X144587886Y-93387528D01*
X144587886Y-93387528D02*
X144530743Y-93358957D01*
X144530743Y-93358957D02*
X144502171Y-93330385D01*
%TO.C,Q2*%
X151885371Y-95690542D02*
X151856800Y-95747685D01*
X151856800Y-95747685D02*
X151799657Y-95804828D01*
X151799657Y-95804828D02*
X151713942Y-95890542D01*
X151713942Y-95890542D02*
X151685371Y-95947685D01*
X151685371Y-95947685D02*
X151685371Y-96004828D01*
X151828228Y-95976257D02*
X151799657Y-96033400D01*
X151799657Y-96033400D02*
X151742514Y-96090542D01*
X151742514Y-96090542D02*
X151628228Y-96119114D01*
X151628228Y-96119114D02*
X151428228Y-96119114D01*
X151428228Y-96119114D02*
X151313942Y-96090542D01*
X151313942Y-96090542D02*
X151256800Y-96033400D01*
X151256800Y-96033400D02*
X151228228Y-95976257D01*
X151228228Y-95976257D02*
X151228228Y-95861971D01*
X151228228Y-95861971D02*
X151256800Y-95804828D01*
X151256800Y-95804828D02*
X151313942Y-95747685D01*
X151313942Y-95747685D02*
X151428228Y-95719114D01*
X151428228Y-95719114D02*
X151628228Y-95719114D01*
X151628228Y-95719114D02*
X151742514Y-95747685D01*
X151742514Y-95747685D02*
X151799657Y-95804828D01*
X151799657Y-95804828D02*
X151828228Y-95861971D01*
X151828228Y-95861971D02*
X151828228Y-95976257D01*
X151285371Y-95490543D02*
X151256800Y-95461971D01*
X151256800Y-95461971D02*
X151228228Y-95404829D01*
X151228228Y-95404829D02*
X151228228Y-95261971D01*
X151228228Y-95261971D02*
X151256800Y-95204829D01*
X151256800Y-95204829D02*
X151285371Y-95176257D01*
X151285371Y-95176257D02*
X151342514Y-95147686D01*
X151342514Y-95147686D02*
X151399657Y-95147686D01*
X151399657Y-95147686D02*
X151485371Y-95176257D01*
X151485371Y-95176257D02*
X151828228Y-95519114D01*
X151828228Y-95519114D02*
X151828228Y-95147686D01*
%TO.C,J3*%
X145111628Y-102943000D02*
X145540200Y-102943000D01*
X145540200Y-102943000D02*
X145625914Y-102971571D01*
X145625914Y-102971571D02*
X145683057Y-103028714D01*
X145683057Y-103028714D02*
X145711628Y-103114428D01*
X145711628Y-103114428D02*
X145711628Y-103171571D01*
X145111628Y-102714428D02*
X145111628Y-102343000D01*
X145111628Y-102343000D02*
X145340200Y-102543000D01*
X145340200Y-102543000D02*
X145340200Y-102457285D01*
X145340200Y-102457285D02*
X145368771Y-102400143D01*
X145368771Y-102400143D02*
X145397342Y-102371571D01*
X145397342Y-102371571D02*
X145454485Y-102343000D01*
X145454485Y-102343000D02*
X145597342Y-102343000D01*
X145597342Y-102343000D02*
X145654485Y-102371571D01*
X145654485Y-102371571D02*
X145683057Y-102400143D01*
X145683057Y-102400143D02*
X145711628Y-102457285D01*
X145711628Y-102457285D02*
X145711628Y-102628714D01*
X145711628Y-102628714D02*
X145683057Y-102685857D01*
X145683057Y-102685857D02*
X145654485Y-102714428D01*
%TO.C,R2*%
X161286800Y-104693028D02*
X161086800Y-104407314D01*
X160943943Y-104693028D02*
X160943943Y-104093028D01*
X160943943Y-104093028D02*
X161172514Y-104093028D01*
X161172514Y-104093028D02*
X161229657Y-104121600D01*
X161229657Y-104121600D02*
X161258228Y-104150171D01*
X161258228Y-104150171D02*
X161286800Y-104207314D01*
X161286800Y-104207314D02*
X161286800Y-104293028D01*
X161286800Y-104293028D02*
X161258228Y-104350171D01*
X161258228Y-104350171D02*
X161229657Y-104378742D01*
X161229657Y-104378742D02*
X161172514Y-104407314D01*
X161172514Y-104407314D02*
X160943943Y-104407314D01*
X161515371Y-104150171D02*
X161543943Y-104121600D01*
X161543943Y-104121600D02*
X161601086Y-104093028D01*
X161601086Y-104093028D02*
X161743943Y-104093028D01*
X161743943Y-104093028D02*
X161801086Y-104121600D01*
X161801086Y-104121600D02*
X161829657Y-104150171D01*
X161829657Y-104150171D02*
X161858228Y-104207314D01*
X161858228Y-104207314D02*
X161858228Y-104264457D01*
X161858228Y-104264457D02*
X161829657Y-104350171D01*
X161829657Y-104350171D02*
X161486800Y-104693028D01*
X161486800Y-104693028D02*
X161858228Y-104693028D01*
D12*
%TO.C,J2*%
X166803000Y-99662200D02*
X166803000Y-99662200D01*
X166803000Y-91162200D02*
X173303000Y-91162200D01*
X173303000Y-104062200D02*
X166803000Y-104062200D01*
X164103000Y-94572200D02*
X164103000Y-95572200D01*
X166803000Y-104062200D02*
X166803000Y-99662200D01*
X166803000Y-95562200D02*
X166803000Y-91162200D01*
X165493000Y-89862200D02*
X174613000Y-89862200D01*
X174613000Y-105362200D02*
X165493000Y-105362200D01*
X165493000Y-95562200D02*
X166803000Y-95562200D01*
X173303000Y-91162200D02*
X173303000Y-104062200D01*
X165103000Y-95072200D02*
X164103000Y-94572200D01*
X165493000Y-105362200D02*
X165493000Y-89862200D01*
X174613000Y-89862200D02*
X174613000Y-105362200D01*
X164103000Y-95572200D02*
X165103000Y-95072200D01*
X166803000Y-99662200D02*
X165493000Y-99662200D01*
%TO.C,C5*%
X153872800Y-103247164D02*
X153872800Y-103462836D01*
X153152800Y-103247164D02*
X153152800Y-103462836D01*
%TO.C,C2*%
X150979036Y-100921000D02*
X150763364Y-100921000D01*
X150979036Y-100201000D02*
X150763364Y-100201000D01*
%TO.C,C3*%
X150979036Y-101860800D02*
X150763364Y-101860800D01*
X150979036Y-101140800D02*
X150763364Y-101140800D01*
%TO.C,Q1*%
X158705000Y-94211000D02*
X158705000Y-92536000D01*
X158705000Y-94211000D02*
X158705000Y-94861000D01*
X155585000Y-94211000D02*
X155585000Y-93561000D01*
X155585000Y-94211000D02*
X155585000Y-94861000D01*
%TO.C,R1*%
X156871641Y-90854800D02*
X156564359Y-90854800D01*
X156871641Y-90094800D02*
X156564359Y-90094800D01*
%TO.C,R7*%
X156889759Y-91392600D02*
X157197041Y-91392600D01*
X156889759Y-92152600D02*
X157197041Y-92152600D01*
%TO.C,D3*%
X161639200Y-100117400D02*
X160169200Y-100117400D01*
X160169200Y-100117400D02*
X160169200Y-102402400D01*
X161639200Y-102402400D02*
X161639200Y-100117400D01*
%TO.C,C6*%
X150976436Y-102800600D02*
X150760764Y-102800600D01*
X150976436Y-102080600D02*
X150760764Y-102080600D01*
%TO.C,R8*%
X151891000Y-93800959D02*
X151891000Y-94108241D01*
X151131000Y-93800959D02*
X151131000Y-94108241D01*
%TO.C,U2*%
X152607000Y-101926400D02*
X152607000Y-101201400D01*
X153332000Y-96706400D02*
X152607000Y-96706400D01*
X153332000Y-101926400D02*
X152607000Y-101926400D01*
X157102000Y-96706400D02*
X157827000Y-96706400D01*
X157102000Y-101926400D02*
X157827000Y-101926400D01*
X157827000Y-96706400D02*
X157827000Y-97431400D01*
X157827000Y-101926400D02*
X157827000Y-101201400D01*
%TO.C,R6*%
X154098000Y-103508641D02*
X154098000Y-103201359D01*
X154858000Y-103508641D02*
X154858000Y-103201359D01*
%TO.C,D1*%
X160641400Y-91260600D02*
X160641400Y-89790600D01*
X160641400Y-89790600D02*
X158356400Y-89790600D01*
X158356400Y-91260600D02*
X160641400Y-91260600D01*
%TO.C,R3*%
X159053241Y-103989000D02*
X158745959Y-103989000D01*
X159053241Y-103229000D02*
X158745959Y-103229000D01*
%TO.C,D2*%
X150468600Y-96001400D02*
X149168600Y-96001400D01*
X149168600Y-99121400D02*
X151168600Y-99121400D01*
%TO.C,R12*%
X146633200Y-91665359D02*
X146633200Y-91972641D01*
X145873200Y-91665359D02*
X145873200Y-91972641D01*
%TO.C,D4*%
X160140600Y-100117400D02*
X158670600Y-100117400D01*
X158670600Y-100117400D02*
X158670600Y-102402400D01*
X160140600Y-102402400D02*
X160140600Y-100117400D01*
%TO.C,D5*%
X143460800Y-92823300D02*
X144930800Y-92823300D01*
X144930800Y-92823300D02*
X144930800Y-90538300D01*
X143460800Y-90538300D02*
X143460800Y-92823300D01*
%TO.C,Q2*%
X155286200Y-94208700D02*
X155286200Y-92533700D01*
X155286200Y-94208700D02*
X155286200Y-94858700D01*
X152166200Y-94208700D02*
X152166200Y-93558700D01*
X152166200Y-94208700D02*
X152166200Y-94858700D01*
%TO.C,J3*%
X147253700Y-93940800D02*
X147253700Y-94390800D01*
X145403700Y-93940800D02*
X147253700Y-93940800D01*
X142853700Y-93940800D02*
X143103700Y-93940800D01*
X147803700Y-96140800D02*
X147353700Y-96140800D01*
X147803700Y-96140800D02*
X147803700Y-96590800D01*
X147253700Y-101740800D02*
X147253700Y-101290800D01*
X145403700Y-101740800D02*
X147253700Y-101740800D01*
X142853700Y-101740800D02*
X143103700Y-101740800D01*
%TO.C,R2*%
X161258559Y-103229000D02*
X161565841Y-103229000D01*
X161258559Y-103989000D02*
X161565841Y-103989000D01*
%TD*%
M02*
