%TF.GenerationSoftware,KiCad,Pcbnew,(7.0.0)*%
%TF.CreationDate,2024-01-19T16:55:17+05:30*%
%TF.ProjectId,Programmer,50726f67-7261-46d6-9d65-722e6b696361,rev?*%
%TF.SameCoordinates,Original*%
%TF.FileFunction,Copper,L1,Top*%
%TF.FilePolarity,Positive*%
%FSLAX46Y46*%
G04 Gerber Fmt 4.6, Leading zero omitted, Abs format (unit mm)*
G04 Created by KiCad (PCBNEW (7.0.0)) date 2024-01-19 16:55:17*
%MOMM*%
%LPD*%
G01*
G04 APERTURE LIST*
G04 Aperture macros list*
%AMRoundRect*
0 Rectangle with rounded corners*
0 $1 Rounding radius*
0 $2 $3 $4 $5 $6 $7 $8 $9 X,Y pos of 4 corners*
0 Add a 4 corners polygon primitive as box body*
4,1,4,$2,$3,$4,$5,$6,$7,$8,$9,$2,$3,0*
0 Add four circle primitives for the rounded corners*
1,1,$1+$1,$2,$3*
1,1,$1+$1,$4,$5*
1,1,$1+$1,$6,$7*
1,1,$1+$1,$8,$9*
0 Add four rect primitives between the rounded corners*
20,1,$1+$1,$2,$3,$4,$5,0*
20,1,$1+$1,$4,$5,$6,$7,0*
20,1,$1+$1,$6,$7,$8,$9,0*
20,1,$1+$1,$8,$9,$2,$3,0*%
G04 Aperture macros list end*
%TA.AperFunction,ComponentPad*%
%ADD10RoundRect,0.250000X-0.600000X-0.600000X0.600000X-0.600000X0.600000X0.600000X-0.600000X0.600000X0*%
%TD*%
%TA.AperFunction,ComponentPad*%
%ADD11C,1.700000*%
%TD*%
%TA.AperFunction,SMDPad,CuDef*%
%ADD12RoundRect,0.140000X-0.170000X0.140000X-0.170000X-0.140000X0.170000X-0.140000X0.170000X0.140000X0*%
%TD*%
%TA.AperFunction,SMDPad,CuDef*%
%ADD13RoundRect,0.140000X0.140000X0.170000X-0.140000X0.170000X-0.140000X-0.170000X0.140000X-0.170000X0*%
%TD*%
%TA.AperFunction,SMDPad,CuDef*%
%ADD14RoundRect,0.150000X-0.150000X0.587500X-0.150000X-0.587500X0.150000X-0.587500X0.150000X0.587500X0*%
%TD*%
%TA.AperFunction,SMDPad,CuDef*%
%ADD15RoundRect,0.135000X0.135000X0.185000X-0.135000X0.185000X-0.135000X-0.185000X0.135000X-0.185000X0*%
%TD*%
%TA.AperFunction,SMDPad,CuDef*%
%ADD16RoundRect,0.135000X-0.135000X-0.185000X0.135000X-0.185000X0.135000X0.185000X-0.135000X0.185000X0*%
%TD*%
%TA.AperFunction,SMDPad,CuDef*%
%ADD17RoundRect,0.218750X-0.256250X0.218750X-0.256250X-0.218750X0.256250X-0.218750X0.256250X0.218750X0*%
%TD*%
%TA.AperFunction,SMDPad,CuDef*%
%ADD18RoundRect,0.135000X-0.185000X0.135000X-0.185000X-0.135000X0.185000X-0.135000X0.185000X0.135000X0*%
%TD*%
%TA.AperFunction,SMDPad,CuDef*%
%ADD19RoundRect,0.062500X-0.337500X-0.062500X0.337500X-0.062500X0.337500X0.062500X-0.337500X0.062500X0*%
%TD*%
%TA.AperFunction,SMDPad,CuDef*%
%ADD20RoundRect,0.062500X-0.062500X-0.337500X0.062500X-0.337500X0.062500X0.337500X-0.062500X0.337500X0*%
%TD*%
%TA.AperFunction,SMDPad,CuDef*%
%ADD21R,3.350000X3.350000*%
%TD*%
%TA.AperFunction,SMDPad,CuDef*%
%ADD22RoundRect,0.135000X0.185000X-0.135000X0.185000X0.135000X-0.185000X0.135000X-0.185000X-0.135000X0*%
%TD*%
%TA.AperFunction,SMDPad,CuDef*%
%ADD23RoundRect,0.218750X0.218750X0.256250X-0.218750X0.256250X-0.218750X-0.256250X0.218750X-0.256250X0*%
%TD*%
%TA.AperFunction,SMDPad,CuDef*%
%ADD24R,0.700000X1.000000*%
%TD*%
%TA.AperFunction,SMDPad,CuDef*%
%ADD25R,0.700000X0.600000*%
%TD*%
%TA.AperFunction,SMDPad,CuDef*%
%ADD26RoundRect,0.218750X0.256250X-0.218750X0.256250X0.218750X-0.256250X0.218750X-0.256250X-0.218750X0*%
%TD*%
%TA.AperFunction,SMDPad,CuDef*%
%ADD27R,1.350000X0.400000*%
%TD*%
%TA.AperFunction,ComponentPad*%
%ADD28O,1.900000X1.200000*%
%TD*%
%TA.AperFunction,SMDPad,CuDef*%
%ADD29R,1.900000X1.200000*%
%TD*%
%TA.AperFunction,ComponentPad*%
%ADD30C,1.450000*%
%TD*%
%TA.AperFunction,SMDPad,CuDef*%
%ADD31R,1.900000X1.500000*%
%TD*%
%TA.AperFunction,ViaPad*%
%ADD32C,0.500000*%
%TD*%
%TA.AperFunction,Conductor*%
%ADD33C,0.250000*%
%TD*%
%TA.AperFunction,Conductor*%
%ADD34C,0.200000*%
%TD*%
G04 APERTURE END LIST*
D10*
%TO.P,J2,1,Pin_1*%
%TO.N,ESP_EN*%
X168783000Y-95072200D03*
D11*
%TO.P,J2,2,Pin_2*%
%TO.N,VOUT*%
X171323000Y-95072200D03*
%TO.P,J2,3,Pin_3*%
%TO.N,RXD*%
X168783000Y-97612200D03*
%TO.P,J2,4,Pin_4*%
%TO.N,GND*%
X171323000Y-97612200D03*
%TO.P,J2,5,Pin_5*%
%TO.N,TXD*%
X168783000Y-100152200D03*
%TO.P,J2,6,Pin_6*%
%TO.N,ESP_IO0_B*%
X171323000Y-100152200D03*
%TD*%
D12*
%TO.P,C5,1*%
%TO.N,VOUT*%
X153512800Y-102875000D03*
%TO.P,C5,2*%
%TO.N,GND*%
X153512800Y-103835000D03*
%TD*%
D13*
%TO.P,C2,1*%
%TO.N,VOUT*%
X151351200Y-100561000D03*
%TO.P,C2,2*%
%TO.N,GND*%
X150391200Y-100561000D03*
%TD*%
%TO.P,C3,1*%
%TO.N,VOUT*%
X151351200Y-101500800D03*
%TO.P,C3,2*%
%TO.N,GND*%
X150391200Y-101500800D03*
%TD*%
D14*
%TO.P,Q1,1,C*%
%TO.N,ESP_EN*%
X158095000Y-93273500D03*
%TO.P,Q1,2,B*%
%TO.N,Net-(Q1-B)*%
X156195000Y-93273500D03*
%TO.P,Q1,3,E*%
%TO.N,RTS*%
X157145000Y-95148500D03*
%TD*%
D15*
%TO.P,R1,1*%
%TO.N,Net-(D1-A)*%
X157228000Y-90474800D03*
%TO.P,R1,2*%
%TO.N,VOUT*%
X156208000Y-90474800D03*
%TD*%
D16*
%TO.P,R7,1*%
%TO.N,DTR*%
X156533400Y-91772600D03*
%TO.P,R7,2*%
%TO.N,Net-(Q1-B)*%
X157553400Y-91772600D03*
%TD*%
D17*
%TO.P,D3,1,K*%
%TO.N,TXT*%
X160904200Y-100814900D03*
%TO.P,D3,2,A*%
%TO.N,Net-(D3-A)*%
X160904200Y-102389900D03*
%TD*%
D13*
%TO.P,C6,1*%
%TO.N,VOUT*%
X151348600Y-102440600D03*
%TO.P,C6,2*%
%TO.N,GND*%
X150388600Y-102440600D03*
%TD*%
D18*
%TO.P,R8,1*%
%TO.N,RTS*%
X151511000Y-93444600D03*
%TO.P,R8,2*%
%TO.N,Net-(Q2-B)*%
X151511000Y-94464600D03*
%TD*%
D19*
%TO.P,U2,1,~{DCD}*%
%TO.N,unconnected-(U2-~{DCD}-Pad1)*%
X152767000Y-97816400D03*
%TO.P,U2,2,~{RI}/CLK*%
%TO.N,unconnected-(U2-~{RI}{slash}CLK-Pad2)*%
X152767000Y-98316400D03*
%TO.P,U2,3,GND*%
%TO.N,GND*%
X152767000Y-98816400D03*
%TO.P,U2,4,D+*%
%TO.N,CP_D+*%
X152767000Y-99316400D03*
%TO.P,U2,5,D-*%
%TO.N,CP_D-*%
X152767000Y-99816400D03*
%TO.P,U2,6,VDD*%
%TO.N,VOUT*%
X152767000Y-100316400D03*
%TO.P,U2,7,VREGIN*%
X152767000Y-100816400D03*
D20*
%TO.P,U2,8,VBUS*%
X153717000Y-101766400D03*
%TO.P,U2,9,~{RST}*%
%TO.N,Net-(U2-~{RST})*%
X154217000Y-101766400D03*
%TO.P,U2,10,NC*%
%TO.N,unconnected-(U2-NC-Pad10)*%
X154717000Y-101766400D03*
%TO.P,U2,11,~{SUSPEND}*%
%TO.N,unconnected-(U2-~{SUSPEND}-Pad11)*%
X155217000Y-101766400D03*
%TO.P,U2,12,SUSPEND*%
%TO.N,unconnected-(U2-SUSPEND-Pad12)*%
X155717000Y-101766400D03*
%TO.P,U2,13,CHREN*%
%TO.N,unconnected-(U2-CHREN-Pad13)*%
X156217000Y-101766400D03*
%TO.P,U2,14,CHR1*%
%TO.N,unconnected-(U2-CHR1-Pad14)*%
X156717000Y-101766400D03*
D19*
%TO.P,U2,15,CHR0*%
%TO.N,unconnected-(U2-CHR0-Pad15)*%
X157667000Y-100816400D03*
%TO.P,U2,16,~{WAKEUP}/GPIO.3*%
%TO.N,unconnected-(U2-~{WAKEUP}{slash}GPIO.3-Pad16)*%
X157667000Y-100316400D03*
%TO.P,U2,17,RS485/GPIO.2*%
%TO.N,unconnected-(U2-RS485{slash}GPIO.2-Pad17)*%
X157667000Y-99816400D03*
%TO.P,U2,18,~{RXT}/GPIO.1*%
%TO.N,RXT*%
X157667000Y-99316400D03*
%TO.P,U2,19,~{TXT}/GPIO.0*%
%TO.N,TXT*%
X157667000Y-98816400D03*
%TO.P,U2,20,GPIO.6*%
%TO.N,unconnected-(U2-GPIO.6-Pad20)*%
X157667000Y-98316400D03*
%TO.P,U2,21,GPIO.5*%
%TO.N,unconnected-(U2-GPIO.5-Pad21)*%
X157667000Y-97816400D03*
D20*
%TO.P,U2,22,GPIO.4*%
%TO.N,unconnected-(U2-GPIO.4-Pad22)*%
X156717000Y-96866400D03*
%TO.P,U2,23,~{CTS}*%
%TO.N,unconnected-(U2-~{CTS}-Pad23)*%
X156217000Y-96866400D03*
%TO.P,U2,24,~{RTS}*%
%TO.N,RTS*%
X155717000Y-96866400D03*
%TO.P,U2,25,RXD*%
%TO.N,RXD*%
X155217000Y-96866400D03*
%TO.P,U2,26,TXD*%
%TO.N,TXD*%
X154717000Y-96866400D03*
%TO.P,U2,27,~{DSR}*%
%TO.N,unconnected-(U2-~{DSR}-Pad27)*%
X154217000Y-96866400D03*
%TO.P,U2,28,~{DTR}*%
%TO.N,DTR*%
X153717000Y-96866400D03*
D21*
%TO.P,U2,29,GND*%
%TO.N,GND*%
X155216999Y-99316399D03*
%TD*%
D22*
%TO.P,R6,1*%
%TO.N,VOUT*%
X154478000Y-103865000D03*
%TO.P,R6,2*%
%TO.N,Net-(U2-~{RST})*%
X154478000Y-102845000D03*
%TD*%
D23*
%TO.P,D1,1,K*%
%TO.N,GND*%
X159943900Y-90525600D03*
%TO.P,D1,2,A*%
%TO.N,Net-(D1-A)*%
X158368900Y-90525600D03*
%TD*%
D15*
%TO.P,R3,1*%
%TO.N,Net-(D4-A)*%
X159409600Y-103609000D03*
%TO.P,R3,2*%
%TO.N,VOUT*%
X158389600Y-103609000D03*
%TD*%
D24*
%TO.P,D2,1,A*%
%TO.N,GND_USB*%
X150818599Y-98311399D03*
D25*
%TO.P,D2,2,K*%
%TO.N,V_USB*%
X150818599Y-96611399D03*
%TO.P,D2,3,K*%
%TO.N,D-*%
X148818599Y-96611399D03*
%TO.P,D2,4,K*%
%TO.N,D+*%
X148818599Y-98511399D03*
%TD*%
D18*
%TO.P,R12,1*%
%TO.N,V_USB*%
X146253200Y-91309000D03*
%TO.P,R12,2*%
%TO.N,Net-(D5-A)*%
X146253200Y-92329000D03*
%TD*%
D17*
%TO.P,D4,1,K*%
%TO.N,RXT*%
X159405600Y-100814900D03*
%TO.P,D4,2,A*%
%TO.N,Net-(D4-A)*%
X159405600Y-102389900D03*
%TD*%
D26*
%TO.P,D5,1,K*%
%TO.N,GND_USB*%
X144195800Y-92125800D03*
%TO.P,D5,2,A*%
%TO.N,Net-(D5-A)*%
X144195800Y-90550800D03*
%TD*%
D14*
%TO.P,Q2,1,C*%
%TO.N,ESP_IO0_B*%
X154676200Y-93271200D03*
%TO.P,Q2,2,B*%
%TO.N,Net-(Q2-B)*%
X152776200Y-93271200D03*
%TO.P,Q2,3,E*%
%TO.N,DTR*%
X153726200Y-95146200D03*
%TD*%
D27*
%TO.P,J3,1,VBUS*%
%TO.N,V_USB*%
X146953699Y-96540799D03*
%TO.P,J3,2,D-*%
%TO.N,D-*%
X146953699Y-97190799D03*
%TO.P,J3,3,D+*%
%TO.N,D+*%
X146953699Y-97840799D03*
%TO.P,J3,4,ID*%
%TO.N,unconnected-(J3-ID-Pad4)*%
X146953699Y-98490799D03*
%TO.P,J3,5,GND*%
%TO.N,GND_USB*%
X146953699Y-99140799D03*
D28*
%TO.P,J3,6,Shield*%
X144253699Y-94340799D03*
D29*
X144253699Y-94940799D03*
D30*
X146953700Y-95340800D03*
D31*
X144253699Y-96840799D03*
X144253699Y-98840799D03*
D30*
X146953700Y-100340800D03*
D29*
X144253699Y-100740799D03*
D28*
X144253699Y-101340799D03*
%TD*%
D16*
%TO.P,R2,1*%
%TO.N,Net-(D3-A)*%
X160902200Y-103609000D03*
%TO.P,R2,2*%
%TO.N,VOUT*%
X161922200Y-103609000D03*
%TD*%
D32*
%TO.N,GND*%
X161315400Y-91541600D03*
X153949400Y-100533200D03*
X149707600Y-94538800D03*
X151765000Y-103809800D03*
%TO.N,VOUT*%
X164338000Y-103632000D03*
%TO.N,GND_USB*%
X162991800Y-102844600D03*
X165354000Y-93751400D03*
X164439600Y-96469200D03*
%TO.N,V_USB*%
X147370800Y-91313000D03*
%TO.N,RXD*%
X155422600Y-95250000D03*
%TO.N,TXD*%
X154838400Y-95707200D03*
%TO.N,ESP_IO0_B*%
X154838400Y-94488000D03*
%TO.N,RTS*%
X151968200Y-92075000D03*
X158343600Y-96596200D03*
%TO.N,D-*%
X145999200Y-103251000D03*
%TO.N,D+*%
X146939000Y-103200200D03*
%TO.N,CP_D+*%
X148767800Y-102031800D03*
%TO.N,CP_D-*%
X147726400Y-101879400D03*
%TD*%
D33*
%TO.N,VOUT*%
X172999400Y-95783400D02*
X172288200Y-95072200D01*
X172288200Y-95072200D02*
X171323000Y-95072200D01*
X172999400Y-100137501D02*
X172999400Y-95783400D01*
X169527901Y-103609000D02*
X172999400Y-100137501D01*
X164338000Y-103632000D02*
X164361000Y-103609000D01*
X164361000Y-103609000D02*
X169527901Y-103609000D01*
%TO.N,ESP_EN*%
X168732200Y-95021400D02*
X168783000Y-95072200D01*
X159131000Y-95021400D02*
X168732200Y-95021400D01*
X158095000Y-93273500D02*
X158095000Y-93985400D01*
X158095000Y-93985400D02*
X159131000Y-95021400D01*
%TO.N,VOUT*%
X168427400Y-92862400D02*
X169113200Y-92862400D01*
X169113200Y-92862400D02*
X171323000Y-95072200D01*
D34*
%TO.N,GND*%
X161290000Y-91567000D02*
X161315400Y-91541600D01*
D33*
X152767000Y-98816400D02*
X154717000Y-98816400D01*
X151765000Y-103809800D02*
X151765000Y-103824609D01*
X150388600Y-102448209D02*
X151750191Y-103809800D01*
D34*
X160578800Y-91567000D02*
X161290000Y-91567000D01*
D33*
X151775391Y-103835000D02*
X153512800Y-103835000D01*
X150391200Y-102438000D02*
X150388600Y-102440600D01*
X151765000Y-103824609D02*
X151775391Y-103835000D01*
D34*
X159943900Y-90932100D02*
X160502600Y-91490800D01*
X161340800Y-91567000D02*
X161391600Y-91567000D01*
X159943900Y-90525600D02*
X159943900Y-90932100D01*
D33*
X151750191Y-103809800D02*
X151765000Y-103809800D01*
X150388600Y-102440600D02*
X150388600Y-102448209D01*
D34*
X160502600Y-91490800D02*
X160578800Y-91567000D01*
X161315400Y-91541600D02*
X161340800Y-91567000D01*
D33*
X154717000Y-98816400D02*
X155217000Y-99316400D01*
X150391200Y-100561000D02*
X150391200Y-102438000D01*
%TO.N,VOUT*%
X158133600Y-103865000D02*
X158389600Y-103609000D01*
X151595800Y-100316400D02*
X151351200Y-100561000D01*
X152767000Y-100316400D02*
X151595800Y-100316400D01*
X164315000Y-103609000D02*
X164338000Y-103632000D01*
X159034600Y-104254000D02*
X161277200Y-104254000D01*
X153512800Y-102875000D02*
X153537462Y-102875000D01*
%TO.N,ESP_EN*%
X168427400Y-94335600D02*
X169113200Y-95021400D01*
%TO.N,VOUT*%
X151348600Y-102440600D02*
X151348600Y-102631400D01*
X153717000Y-102670800D02*
X153512800Y-102875000D01*
X151351200Y-102438000D02*
X151348600Y-102440600D01*
X151351200Y-100561000D02*
X151351200Y-102438000D01*
X151348600Y-102631400D02*
X151561800Y-102844600D01*
X152767000Y-100816400D02*
X151606600Y-100816400D01*
X154478000Y-103815538D02*
X154478000Y-103865000D01*
X154478000Y-103865000D02*
X158133600Y-103865000D01*
X165290600Y-89725600D02*
X156957200Y-89725600D01*
X161922200Y-103609000D02*
X164315000Y-103609000D01*
X153482400Y-102844600D02*
X153512800Y-102875000D01*
X153537462Y-102875000D02*
X154478000Y-103815538D01*
X161277200Y-104254000D02*
X161922200Y-103609000D01*
X151561800Y-102844600D02*
X153482400Y-102844600D01*
X158389600Y-103609000D02*
X159034600Y-104254000D01*
%TO.N,ESP_EN*%
X168402000Y-95732600D02*
X169113200Y-95021400D01*
%TO.N,VOUT*%
X168427400Y-92862400D02*
X165290600Y-89725600D01*
X151606600Y-100816400D02*
X151351200Y-100561000D01*
X156957200Y-89725600D02*
X156208000Y-90474800D01*
X153717000Y-101766400D02*
X153717000Y-102670800D01*
%TO.N,Net-(D1-A)*%
X157228000Y-90474800D02*
X158318100Y-90474800D01*
X158318100Y-90474800D02*
X158368900Y-90525600D01*
%TO.N,GND_USB*%
X144195800Y-92125800D02*
X144253700Y-92183700D01*
X144253700Y-92183700D02*
X144253700Y-101340800D01*
D34*
X146953700Y-99140800D02*
X149333628Y-99140800D01*
D33*
X145953700Y-94340800D02*
X146953700Y-95340800D01*
X144253700Y-94340800D02*
X145953700Y-94340800D01*
X146953700Y-99140800D02*
X146953700Y-100340800D01*
D34*
X150163028Y-98311400D02*
X150818600Y-98311400D01*
X149333628Y-99140800D02*
X150163028Y-98311400D01*
D33*
%TO.N,TXT*%
X157667000Y-98816400D02*
X160157400Y-98816400D01*
X160904200Y-99563200D02*
X160904200Y-100814900D01*
X160157400Y-98816400D02*
X160904200Y-99563200D01*
%TO.N,Net-(D3-A)*%
X160904200Y-103607000D02*
X160902200Y-103609000D01*
X160904200Y-102389900D02*
X160904200Y-103607000D01*
%TO.N,RXT*%
X158828600Y-99316400D02*
X159405600Y-99893400D01*
X159405600Y-99893400D02*
X159405600Y-100814900D01*
X157667000Y-99316400D02*
X158828600Y-99316400D01*
%TO.N,Net-(D4-A)*%
X159405600Y-102389900D02*
X159405600Y-103605000D01*
X159405600Y-103605000D02*
X159409600Y-103609000D01*
%TO.N,V_USB*%
X147374800Y-91309000D02*
X147370800Y-91313000D01*
X147417600Y-91309000D02*
X147374800Y-91309000D01*
X150265200Y-95965800D02*
X150265200Y-95962400D01*
X150265200Y-95962400D02*
X150799800Y-95427800D01*
X150265200Y-95965800D02*
X150910800Y-96611400D01*
X150799800Y-91998800D02*
X150114000Y-91313000D01*
X146953700Y-96540800D02*
X147428700Y-96540800D01*
X146255200Y-91311000D02*
X146253200Y-91309000D01*
X150799800Y-95427800D02*
X150799800Y-91998800D01*
X147366800Y-91309000D02*
X146253200Y-91309000D01*
X147428700Y-96540800D02*
X148003700Y-95965800D01*
X148003700Y-95965800D02*
X150265200Y-95965800D01*
X147370800Y-91313000D02*
X147366800Y-91309000D01*
X150114000Y-91313000D02*
X147370800Y-91313000D01*
D34*
%TO.N,RXD*%
X155217000Y-96106418D02*
X155422600Y-95900818D01*
X155217000Y-96866400D02*
X155217000Y-96106418D01*
X155422600Y-95900818D02*
X155422600Y-95250000D01*
X155422600Y-95250000D02*
X155422600Y-95199200D01*
%TO.N,TXD*%
X154717000Y-95803200D02*
X154838400Y-95681800D01*
X154717000Y-96866400D02*
X154717000Y-95803200D01*
%TO.N,ESP_IO0_B*%
X154813000Y-94488000D02*
X154838400Y-94488000D01*
X154838400Y-94488000D02*
X154838400Y-94513400D01*
X154676200Y-93271200D02*
X154676200Y-94351200D01*
X154676200Y-94351200D02*
X154813000Y-94488000D01*
X154838400Y-94513400D02*
X154838400Y-94513400D01*
D33*
%TO.N,Net-(Q1-B)*%
X156967300Y-93273500D02*
X157353000Y-92887800D01*
X156195000Y-93273500D02*
X156967300Y-93273500D01*
X157353000Y-92887800D02*
X157353000Y-91973000D01*
X157353000Y-91973000D02*
X157553400Y-91772600D01*
D34*
%TO.N,RTS*%
X151993600Y-92075000D02*
X151968200Y-92100400D01*
X157145000Y-95880200D02*
X157810200Y-96545400D01*
X157861000Y-96596200D02*
X158343600Y-96596200D01*
X151968200Y-92075000D02*
X151993600Y-92075000D01*
D33*
X156921200Y-96139000D02*
X157145000Y-95915200D01*
X157145000Y-95915200D02*
X157145000Y-95148500D01*
X155717000Y-96418392D02*
X155996392Y-96139000D01*
D34*
X157810200Y-96545400D02*
X157861000Y-96596200D01*
X151511000Y-92557600D02*
X151968200Y-92100400D01*
X151968200Y-92100400D02*
X151968200Y-92075000D01*
D33*
X155717000Y-96866400D02*
X155717000Y-96418392D01*
D34*
X157145000Y-95148500D02*
X157145000Y-95880200D01*
D33*
X155996392Y-96139000D02*
X156921200Y-96139000D01*
D34*
X151511000Y-93444600D02*
X151511000Y-92557600D01*
D33*
%TO.N,Net-(Q2-B)*%
X151511000Y-94464600D02*
X152499600Y-94464600D01*
X152776200Y-94188000D02*
X152776200Y-93271200D01*
X152499600Y-94464600D02*
X152776200Y-94188000D01*
%TO.N,DTR*%
X153726200Y-96857200D02*
X153717000Y-96866400D01*
X154765549Y-91772600D02*
X156533400Y-91772600D01*
X153726200Y-92811949D02*
X154765549Y-91772600D01*
X153726200Y-95146200D02*
X153726200Y-92811949D01*
X153726200Y-95146200D02*
X153726200Y-96857200D01*
%TO.N,Net-(U2-~{RST})*%
X154217000Y-102584000D02*
X154478000Y-102845000D01*
X154217000Y-101766400D02*
X154217000Y-102584000D01*
D34*
%TO.N,D-*%
X145503700Y-97536000D02*
X145848900Y-97190800D01*
X146953700Y-97190800D02*
X148331400Y-97190800D01*
X145503700Y-102755500D02*
X145503700Y-97536000D01*
X145999200Y-103251000D02*
X145503700Y-102755500D01*
X148331400Y-97190800D02*
X148910800Y-96611400D01*
X145848900Y-97190800D02*
X146953700Y-97190800D01*
%TO.N,D+*%
X148240200Y-97840800D02*
X148910800Y-98511400D01*
X145903700Y-98015800D02*
X145903700Y-102164900D01*
X145903700Y-102164900D02*
X146939000Y-103200200D01*
X146953700Y-97840800D02*
X146078700Y-97840800D01*
X146953700Y-97840800D02*
X148240200Y-97840800D01*
X146078700Y-97840800D02*
X145903700Y-98015800D01*
D33*
%TO.N,Net-(D5-A)*%
X144652800Y-90550800D02*
X144195800Y-90550800D01*
X145237200Y-91744800D02*
X145237200Y-91135200D01*
X146253200Y-92329000D02*
X145821400Y-92329000D01*
X145821400Y-92329000D02*
X145237200Y-91744800D01*
X145237200Y-91135200D02*
X144652800Y-90550800D01*
D34*
%TO.N,CP_D+*%
X149592714Y-99447400D02*
X147710714Y-101329400D01*
X147710714Y-101329400D02*
X147498582Y-101329400D01*
X152354348Y-99316400D02*
X152223348Y-99447400D01*
X147176400Y-101651582D02*
X147176400Y-102107218D01*
X147176400Y-102107218D02*
X147498582Y-102429400D01*
X147498582Y-102429400D02*
X148370200Y-102429400D01*
X148370200Y-102429400D02*
X148767800Y-102031800D01*
X152767000Y-99316400D02*
X152354348Y-99316400D01*
X152223348Y-99447400D02*
X149592714Y-99447400D01*
X147498582Y-101329400D02*
X147176400Y-101651582D01*
%TO.N,CP_D-*%
X152767000Y-99816400D02*
X152736000Y-99847400D01*
X149758400Y-99847400D02*
X147726400Y-101879400D01*
X152736000Y-99847400D02*
X149758400Y-99847400D01*
%TD*%
%TA.AperFunction,NonConductor*%
G36*
X155928502Y-89447211D02*
G01*
X155972705Y-89485569D01*
X155994392Y-89539928D01*
X155988732Y-89598180D01*
X155956985Y-89647346D01*
X155906224Y-89676476D01*
X155826099Y-89699754D01*
X155826096Y-89699755D01*
X155818607Y-89701931D01*
X155811896Y-89705899D01*
X155811891Y-89705902D01*
X155687119Y-89779692D01*
X155687115Y-89779694D01*
X155680402Y-89783665D01*
X155674887Y-89789179D01*
X155674883Y-89789183D01*
X155572383Y-89891683D01*
X155572379Y-89891687D01*
X155566865Y-89897202D01*
X155562894Y-89903915D01*
X155562892Y-89903919D01*
X155489102Y-90028691D01*
X155489099Y-90028696D01*
X155485131Y-90035407D01*
X155482955Y-90042896D01*
X155482954Y-90042899D01*
X155442103Y-90183507D01*
X155442101Y-90183516D01*
X155440335Y-90189596D01*
X155439838Y-90195904D01*
X155439837Y-90195913D01*
X155437691Y-90223184D01*
X155437690Y-90223200D01*
X155437500Y-90225619D01*
X155437500Y-90228063D01*
X155437500Y-90228064D01*
X155437500Y-90721556D01*
X155437500Y-90721581D01*
X155437501Y-90723980D01*
X155440335Y-90760004D01*
X155442101Y-90766082D01*
X155442102Y-90766088D01*
X155482687Y-90905780D01*
X155485131Y-90914193D01*
X155512209Y-90959980D01*
X155529473Y-91022126D01*
X155513187Y-91084537D01*
X155467758Y-91130324D01*
X155405477Y-91147100D01*
X154843320Y-91147100D01*
X154832267Y-91146579D01*
X154824881Y-91144928D01*
X154817083Y-91145173D01*
X154757693Y-91147039D01*
X154753799Y-91147100D01*
X154726199Y-91147100D01*
X154722348Y-91147586D01*
X154722317Y-91147588D01*
X154722189Y-91147605D01*
X154710578Y-91148518D01*
X154674720Y-91149645D01*
X154674713Y-91149646D01*
X154666921Y-91149891D01*
X154659437Y-91152065D01*
X154659426Y-91152067D01*
X154647677Y-91155481D01*
X154628632Y-91159425D01*
X154616496Y-91160958D01*
X154616493Y-91160958D01*
X154608757Y-91161936D01*
X154601509Y-91164805D01*
X154601499Y-91164808D01*
X154568141Y-91178015D01*
X154557099Y-91181796D01*
X154522646Y-91191807D01*
X154522641Y-91191808D01*
X154515159Y-91193983D01*
X154508451Y-91197949D01*
X154508446Y-91197952D01*
X154497913Y-91204181D01*
X154480449Y-91212736D01*
X154469073Y-91217240D01*
X154469066Y-91217243D01*
X154461817Y-91220114D01*
X154455511Y-91224694D01*
X154455506Y-91224698D01*
X154426476Y-91245789D01*
X154416718Y-91252198D01*
X154385847Y-91270456D01*
X154379128Y-91274430D01*
X154373612Y-91279944D01*
X154373605Y-91279951D01*
X154364956Y-91288600D01*
X154350173Y-91301226D01*
X154340276Y-91308417D01*
X154340269Y-91308423D01*
X154333962Y-91313006D01*
X154328995Y-91319008D01*
X154328984Y-91319020D01*
X154306119Y-91346659D01*
X154298259Y-91355297D01*
X153494704Y-92158853D01*
X153444103Y-92189498D01*
X153385063Y-92193212D01*
X153332058Y-92169612D01*
X153328065Y-92165619D01*
X153316624Y-92158853D01*
X153193313Y-92085927D01*
X153193311Y-92085926D01*
X153186598Y-92081956D01*
X153179105Y-92079779D01*
X153034857Y-92037870D01*
X153034850Y-92037868D01*
X153028769Y-92036102D01*
X153022458Y-92035605D01*
X153022451Y-92035604D01*
X152994328Y-92033391D01*
X152994314Y-92033390D01*
X152991894Y-92033200D01*
X152989449Y-92033200D01*
X152829552Y-92033200D01*
X152771611Y-92018830D01*
X152727099Y-91979052D01*
X152706332Y-91923085D01*
X152706327Y-91923044D01*
X152704513Y-91906941D01*
X152648656Y-91747310D01*
X152558677Y-91604110D01*
X152439090Y-91484523D01*
X152406523Y-91464060D01*
X152368901Y-91440420D01*
X152295890Y-91394544D01*
X152289324Y-91392246D01*
X152289321Y-91392245D01*
X152142833Y-91340987D01*
X152142830Y-91340986D01*
X152136259Y-91338687D01*
X152129342Y-91337907D01*
X152129335Y-91337906D01*
X151975123Y-91320531D01*
X151968200Y-91319751D01*
X151961277Y-91320531D01*
X151807064Y-91337906D01*
X151807055Y-91337907D01*
X151800141Y-91338687D01*
X151793571Y-91340985D01*
X151793566Y-91340987D01*
X151647078Y-91392245D01*
X151647072Y-91392247D01*
X151640510Y-91394544D01*
X151634619Y-91398245D01*
X151634618Y-91398246D01*
X151503210Y-91480815D01*
X151503205Y-91480818D01*
X151497310Y-91484523D01*
X151492385Y-91489448D01*
X151424127Y-91557706D01*
X151372286Y-91588732D01*
X151311937Y-91591578D01*
X151257406Y-91565568D01*
X151225741Y-91539373D01*
X151217100Y-91531510D01*
X150611286Y-90925695D01*
X150603842Y-90917514D01*
X150599786Y-90911123D01*
X150550775Y-90865098D01*
X150547978Y-90862387D01*
X150531227Y-90845636D01*
X150528471Y-90842880D01*
X150525290Y-90840412D01*
X150516414Y-90832830D01*
X150490269Y-90808278D01*
X150490267Y-90808276D01*
X150484582Y-90802938D01*
X150477749Y-90799182D01*
X150477743Y-90799177D01*
X150467025Y-90793285D01*
X150450766Y-90782606D01*
X150441095Y-90775104D01*
X150441092Y-90775102D01*
X150434936Y-90770327D01*
X150427779Y-90767229D01*
X150427776Y-90767228D01*
X150394849Y-90752978D01*
X150384363Y-90747841D01*
X150352932Y-90730562D01*
X150352923Y-90730558D01*
X150346092Y-90726803D01*
X150338535Y-90724862D01*
X150338531Y-90724861D01*
X150326688Y-90721820D01*
X150308284Y-90715519D01*
X150297057Y-90710660D01*
X150297050Y-90710658D01*
X150289896Y-90707562D01*
X150282192Y-90706341D01*
X150282190Y-90706341D01*
X150246759Y-90700729D01*
X150235324Y-90698361D01*
X150200571Y-90689438D01*
X150200563Y-90689437D01*
X150193019Y-90687500D01*
X150185223Y-90687500D01*
X150172983Y-90687500D01*
X150153597Y-90685974D01*
X150133804Y-90682840D01*
X150126038Y-90683574D01*
X150126035Y-90683574D01*
X150090324Y-90686950D01*
X150078655Y-90687500D01*
X147821676Y-90687500D01*
X147755704Y-90668494D01*
X147704382Y-90636246D01*
X147704380Y-90636245D01*
X147698490Y-90632544D01*
X147691924Y-90630246D01*
X147691921Y-90630245D01*
X147545433Y-90578987D01*
X147545430Y-90578986D01*
X147538859Y-90576687D01*
X147531942Y-90575907D01*
X147531935Y-90575906D01*
X147377723Y-90558531D01*
X147370800Y-90557751D01*
X147363877Y-90558531D01*
X147209664Y-90575906D01*
X147209655Y-90575907D01*
X147202741Y-90576687D01*
X147196171Y-90578985D01*
X147196166Y-90578987D01*
X147049678Y-90630245D01*
X147049672Y-90630247D01*
X147043110Y-90632544D01*
X147037222Y-90636243D01*
X147037217Y-90636246D01*
X146992262Y-90664494D01*
X146926290Y-90683500D01*
X146891158Y-90683500D01*
X146828037Y-90666232D01*
X146699308Y-90590102D01*
X146699306Y-90590101D01*
X146692593Y-90586131D01*
X146675827Y-90581260D01*
X146544492Y-90543103D01*
X146544485Y-90543101D01*
X146538404Y-90541335D01*
X146532093Y-90540838D01*
X146532086Y-90540837D01*
X146504815Y-90538691D01*
X146504800Y-90538690D01*
X146502381Y-90538500D01*
X146499935Y-90538500D01*
X146006443Y-90538500D01*
X146006417Y-90538500D01*
X146004020Y-90538501D01*
X146001606Y-90538690D01*
X146001603Y-90538691D01*
X145974311Y-90540838D01*
X145974309Y-90540838D01*
X145967996Y-90541335D01*
X145961918Y-90543100D01*
X145961911Y-90543102D01*
X145821299Y-90583954D01*
X145821296Y-90583955D01*
X145813807Y-90586131D01*
X145807095Y-90590100D01*
X145807089Y-90590103D01*
X145745101Y-90626762D01*
X145693650Y-90643479D01*
X145639978Y-90636698D01*
X145594301Y-90607710D01*
X145176580Y-90189989D01*
X145146555Y-90141312D01*
X145108349Y-90026013D01*
X145020081Y-89882909D01*
X144901191Y-89764019D01*
X144895041Y-89760225D01*
X144895039Y-89760224D01*
X144764235Y-89679543D01*
X144764234Y-89679542D01*
X144758087Y-89675751D01*
X144751232Y-89673479D01*
X144744684Y-89670426D01*
X144745811Y-89668008D01*
X144699230Y-89635989D01*
X144672069Y-89572506D01*
X144683071Y-89504339D01*
X144728826Y-89452625D01*
X144795145Y-89433400D01*
X155871629Y-89433400D01*
X155928502Y-89447211D01*
G37*
%TD.AperFunction*%
%TA.AperFunction,NonConductor*%
G36*
X143169185Y-90480942D02*
G01*
X143206785Y-90524965D01*
X143220300Y-90581260D01*
X143220300Y-90817474D01*
X143220618Y-90820588D01*
X143220619Y-90820605D01*
X143229675Y-90909247D01*
X143229676Y-90909252D01*
X143230364Y-90915985D01*
X143232493Y-90922412D01*
X143232494Y-90922413D01*
X143280001Y-91065781D01*
X143283251Y-91075587D01*
X143287042Y-91081734D01*
X143287043Y-91081735D01*
X143364935Y-91208018D01*
X143371519Y-91218691D01*
X143376629Y-91223800D01*
X143376629Y-91223801D01*
X143403447Y-91250619D01*
X143435541Y-91306206D01*
X143435541Y-91370394D01*
X143403447Y-91425981D01*
X143376629Y-91452798D01*
X143376625Y-91452802D01*
X143371519Y-91457909D01*
X143367728Y-91464054D01*
X143367724Y-91464060D01*
X143287043Y-91594864D01*
X143287040Y-91594869D01*
X143283251Y-91601013D01*
X143280980Y-91607864D01*
X143280979Y-91607868D01*
X143232596Y-91753878D01*
X143230364Y-91760615D01*
X143229676Y-91767345D01*
X143229675Y-91767352D01*
X143220619Y-91855994D01*
X143220618Y-91856012D01*
X143220300Y-91859126D01*
X143220300Y-92392474D01*
X143220618Y-92395588D01*
X143220619Y-92395605D01*
X143229675Y-92484247D01*
X143229676Y-92484252D01*
X143230364Y-92490985D01*
X143232493Y-92497412D01*
X143232494Y-92497413D01*
X143277486Y-92633191D01*
X143283251Y-92650587D01*
X143287042Y-92656734D01*
X143287043Y-92656735D01*
X143362843Y-92779626D01*
X143371519Y-92793691D01*
X143490409Y-92912581D01*
X143496560Y-92916375D01*
X143569297Y-92961240D01*
X143612478Y-93006346D01*
X143628200Y-93066778D01*
X143628200Y-93181909D01*
X143616994Y-93233420D01*
X143585403Y-93275622D01*
X143539135Y-93300886D01*
X143498487Y-93312821D01*
X143498482Y-93312822D01*
X143492825Y-93314484D01*
X143487584Y-93317185D01*
X143487581Y-93317187D01*
X143311268Y-93408082D01*
X143311264Y-93408084D01*
X143306018Y-93410789D01*
X143301376Y-93414438D01*
X143301372Y-93414442D01*
X143145459Y-93537054D01*
X143145452Y-93537060D01*
X143140814Y-93540708D01*
X143136950Y-93545167D01*
X143136945Y-93545172D01*
X143016513Y-93684158D01*
X142967788Y-93718506D01*
X142908665Y-93726147D01*
X142852809Y-93705313D01*
X142813130Y-93660822D01*
X142798800Y-93602955D01*
X142798800Y-90754760D01*
X142808239Y-90707307D01*
X142835118Y-90667081D01*
X143008622Y-90493577D01*
X143057982Y-90463329D01*
X143115698Y-90458787D01*
X143169185Y-90480942D01*
G37*
%TD.AperFunction*%
%TA.AperFunction,NonConductor*%
G36*
X165027601Y-90360539D02*
G01*
X165067829Y-90387419D01*
X167930107Y-93249698D01*
X167937559Y-93257887D01*
X167941614Y-93264277D01*
X167965183Y-93286410D01*
X167990623Y-93310300D01*
X167993419Y-93313010D01*
X168012929Y-93332520D01*
X168016109Y-93334987D01*
X168024971Y-93342555D01*
X168038420Y-93355185D01*
X168051132Y-93367123D01*
X168051134Y-93367124D01*
X168056818Y-93372462D01*
X168063651Y-93376218D01*
X168063652Y-93376219D01*
X168074373Y-93382113D01*
X168090634Y-93392794D01*
X168106464Y-93405073D01*
X168146555Y-93422421D01*
X168157035Y-93427555D01*
X168195308Y-93448597D01*
X168214716Y-93453580D01*
X168233119Y-93459881D01*
X168244344Y-93464739D01*
X168244346Y-93464739D01*
X168251504Y-93467837D01*
X168294658Y-93474671D01*
X168306180Y-93477064D01*
X168306772Y-93477216D01*
X168306992Y-93477273D01*
X168363786Y-93509736D01*
X168396157Y-93566582D01*
X168395096Y-93631991D01*
X168360897Y-93687758D01*
X168303079Y-93718361D01*
X168301495Y-93718715D01*
X168274451Y-93721700D01*
X168136141Y-93721700D01*
X168136121Y-93721700D01*
X168132992Y-93721701D01*
X168129861Y-93722020D01*
X168129857Y-93722021D01*
X168036938Y-93731512D01*
X168036928Y-93731513D01*
X168030203Y-93732201D01*
X168023781Y-93734328D01*
X168023776Y-93734330D01*
X167870521Y-93785114D01*
X167870517Y-93785115D01*
X167863666Y-93787386D01*
X167857522Y-93791175D01*
X167857519Y-93791177D01*
X167720488Y-93875697D01*
X167720480Y-93875703D01*
X167714344Y-93879488D01*
X167709242Y-93884589D01*
X167709238Y-93884593D01*
X167595393Y-93998438D01*
X167595389Y-93998442D01*
X167590288Y-94003544D01*
X167586503Y-94009680D01*
X167586497Y-94009688D01*
X167501977Y-94146719D01*
X167498186Y-94152866D01*
X167495915Y-94159717D01*
X167495914Y-94159721D01*
X167445817Y-94310904D01*
X167419938Y-94355229D01*
X167378326Y-94385277D01*
X167328111Y-94395900D01*
X166059752Y-94395900D01*
X165996751Y-94378703D01*
X165951224Y-94331881D01*
X165935801Y-94268422D01*
X165954758Y-94205928D01*
X165960387Y-94196969D01*
X166034456Y-94079090D01*
X166090313Y-93919459D01*
X166109249Y-93751400D01*
X166108338Y-93743319D01*
X166091093Y-93590264D01*
X166090313Y-93583341D01*
X166034456Y-93423710D01*
X165944477Y-93280510D01*
X165824890Y-93160923D01*
X165681690Y-93070944D01*
X165675124Y-93068646D01*
X165675121Y-93068645D01*
X165528633Y-93017387D01*
X165528630Y-93017386D01*
X165522059Y-93015087D01*
X165515142Y-93014307D01*
X165515135Y-93014306D01*
X165360923Y-92996931D01*
X165354000Y-92996151D01*
X165347077Y-92996931D01*
X165192864Y-93014306D01*
X165192855Y-93014307D01*
X165185941Y-93015087D01*
X165179371Y-93017385D01*
X165179366Y-93017387D01*
X165032878Y-93068645D01*
X165032872Y-93068647D01*
X165026310Y-93070944D01*
X165020419Y-93074645D01*
X165020418Y-93074646D01*
X164889010Y-93157215D01*
X164889005Y-93157218D01*
X164883110Y-93160923D01*
X164878185Y-93165847D01*
X164878181Y-93165851D01*
X164768451Y-93275581D01*
X164768447Y-93275585D01*
X164763523Y-93280510D01*
X164759818Y-93286405D01*
X164759815Y-93286410D01*
X164677246Y-93417818D01*
X164673544Y-93423710D01*
X164671247Y-93430272D01*
X164671245Y-93430278D01*
X164619987Y-93576766D01*
X164619985Y-93576771D01*
X164617687Y-93583341D01*
X164616907Y-93590255D01*
X164616906Y-93590264D01*
X164599531Y-93744477D01*
X164598751Y-93751400D01*
X164599531Y-93758323D01*
X164616906Y-93912535D01*
X164616907Y-93912542D01*
X164617687Y-93919459D01*
X164619986Y-93926030D01*
X164619987Y-93926033D01*
X164659003Y-94037536D01*
X164673544Y-94079090D01*
X164719901Y-94152866D01*
X164753242Y-94205928D01*
X164772199Y-94268422D01*
X164756776Y-94331881D01*
X164711249Y-94378703D01*
X164648248Y-94395900D01*
X159441453Y-94395900D01*
X159394000Y-94386461D01*
X159353772Y-94359581D01*
X158931819Y-93937628D01*
X158904939Y-93897400D01*
X158895500Y-93849947D01*
X158895500Y-92622751D01*
X158895500Y-92620306D01*
X158892598Y-92583431D01*
X158846744Y-92425602D01*
X158763081Y-92284135D01*
X158646865Y-92167919D01*
X158640151Y-92163948D01*
X158640148Y-92163946D01*
X158512113Y-92088227D01*
X158512111Y-92088226D01*
X158505398Y-92084256D01*
X158497481Y-92081956D01*
X158413304Y-92057500D01*
X158366875Y-92032291D01*
X158335154Y-91990043D01*
X158323899Y-91938427D01*
X158323899Y-91625099D01*
X158340512Y-91563100D01*
X158385899Y-91517713D01*
X158447899Y-91501100D01*
X158632425Y-91501100D01*
X158635574Y-91501100D01*
X158734085Y-91491036D01*
X158893687Y-91438149D01*
X159036791Y-91349881D01*
X159068719Y-91317953D01*
X159124306Y-91285859D01*
X159188494Y-91285859D01*
X159244081Y-91317953D01*
X159276009Y-91349881D01*
X159419113Y-91438149D01*
X159578715Y-91491036D01*
X159585449Y-91491723D01*
X159585450Y-91491724D01*
X159618235Y-91495073D01*
X159658854Y-91506433D01*
X159693315Y-91530750D01*
X160120599Y-91958034D01*
X160131289Y-91970222D01*
X160150518Y-91995282D01*
X160267536Y-92085073D01*
X160275959Y-92091536D01*
X160422038Y-92152044D01*
X160578800Y-92172682D01*
X160586859Y-92171621D01*
X160610102Y-92168561D01*
X160626287Y-92167500D01*
X160865161Y-92167500D01*
X160931132Y-92186505D01*
X160987710Y-92222056D01*
X161147341Y-92277913D01*
X161315400Y-92296849D01*
X161483459Y-92277913D01*
X161643090Y-92222056D01*
X161786290Y-92132077D01*
X161905877Y-92012490D01*
X161995856Y-91869290D01*
X162051713Y-91709659D01*
X162067948Y-91565568D01*
X162069869Y-91548523D01*
X162070649Y-91541600D01*
X162069426Y-91530750D01*
X162054497Y-91398246D01*
X162051713Y-91373541D01*
X161995856Y-91213910D01*
X161905877Y-91070710D01*
X161786290Y-90951123D01*
X161643090Y-90861144D01*
X161636524Y-90858846D01*
X161636521Y-90858845D01*
X161490033Y-90807587D01*
X161490030Y-90807586D01*
X161483459Y-90805287D01*
X161476542Y-90804507D01*
X161476535Y-90804506D01*
X161322323Y-90787131D01*
X161315400Y-90786351D01*
X161308477Y-90787131D01*
X161154264Y-90804506D01*
X161154255Y-90804507D01*
X161147341Y-90805287D01*
X161140774Y-90807584D01*
X161140769Y-90807586D01*
X161112512Y-90817474D01*
X161046852Y-90840449D01*
X160988566Y-90846189D01*
X160934145Y-90824537D01*
X160895733Y-90780321D01*
X160881900Y-90723407D01*
X160881900Y-90475100D01*
X160898513Y-90413100D01*
X160943900Y-90367713D01*
X161005900Y-90351100D01*
X164980148Y-90351100D01*
X165027601Y-90360539D01*
G37*
%TD.AperFunction*%
%TA.AperFunction,NonConductor*%
G36*
X156282500Y-94528113D02*
G01*
X156327887Y-94573500D01*
X156344500Y-94635500D01*
X156344500Y-94882505D01*
X156325493Y-94948478D01*
X156274300Y-94994226D01*
X156206613Y-95005725D01*
X156143184Y-94979450D01*
X156110898Y-94933943D01*
X156108378Y-94935157D01*
X156105355Y-94928880D01*
X156103056Y-94922310D01*
X156013077Y-94779110D01*
X155957148Y-94723181D01*
X155926898Y-94673818D01*
X155922356Y-94616102D01*
X155944511Y-94562615D01*
X155988534Y-94525015D01*
X156044829Y-94511500D01*
X156220500Y-94511500D01*
X156282500Y-94528113D01*
G37*
%TD.AperFunction*%
%TA.AperFunction,NonConductor*%
G36*
X149851001Y-91947939D02*
G01*
X149891229Y-91974819D01*
X150137981Y-92221571D01*
X150164861Y-92261799D01*
X150174300Y-92309252D01*
X150174300Y-93732224D01*
X150160467Y-93789138D01*
X150122055Y-93833354D01*
X150067634Y-93855006D01*
X150009346Y-93849266D01*
X149927910Y-93820770D01*
X149882230Y-93804786D01*
X149882227Y-93804785D01*
X149875659Y-93802487D01*
X149868742Y-93801707D01*
X149868735Y-93801706D01*
X149714523Y-93784331D01*
X149707600Y-93783551D01*
X149700677Y-93784331D01*
X149546464Y-93801706D01*
X149546455Y-93801707D01*
X149539541Y-93802487D01*
X149532971Y-93804785D01*
X149532966Y-93804787D01*
X149386478Y-93856045D01*
X149386472Y-93856047D01*
X149379910Y-93858344D01*
X149374019Y-93862045D01*
X149374018Y-93862046D01*
X149242610Y-93944615D01*
X149242605Y-93944618D01*
X149236710Y-93948323D01*
X149231785Y-93953247D01*
X149231781Y-93953251D01*
X149122051Y-94062981D01*
X149122047Y-94062985D01*
X149117123Y-94067910D01*
X149113418Y-94073805D01*
X149113415Y-94073810D01*
X149036029Y-94196969D01*
X149027144Y-94211110D01*
X149024847Y-94217672D01*
X149024845Y-94217678D01*
X148973587Y-94364166D01*
X148973585Y-94364171D01*
X148971287Y-94370741D01*
X148970507Y-94377655D01*
X148970506Y-94377664D01*
X148958075Y-94488000D01*
X148952351Y-94538800D01*
X148953131Y-94545723D01*
X148970506Y-94699935D01*
X148970507Y-94699942D01*
X148971287Y-94706859D01*
X148973586Y-94713430D01*
X148973587Y-94713433D01*
X148996568Y-94779110D01*
X149027144Y-94866490D01*
X149117123Y-95009690D01*
X149122051Y-95014618D01*
X149236052Y-95128619D01*
X149266302Y-95177982D01*
X149270844Y-95235698D01*
X149248689Y-95289185D01*
X149204666Y-95326785D01*
X149148371Y-95340300D01*
X148297462Y-95340300D01*
X148238611Y-95325445D01*
X148193861Y-95284439D01*
X148173934Y-95227107D01*
X148165664Y-95132579D01*
X148165192Y-95127181D01*
X148155272Y-95090161D01*
X148146396Y-95057033D01*
X148109692Y-94920053D01*
X148019068Y-94725710D01*
X147896073Y-94550055D01*
X147744445Y-94398427D01*
X147740014Y-94395324D01*
X147740010Y-94395321D01*
X147573220Y-94278533D01*
X147573218Y-94278531D01*
X147568791Y-94275432D01*
X147563894Y-94273148D01*
X147563888Y-94273145D01*
X147379353Y-94187095D01*
X147379346Y-94187092D01*
X147374447Y-94184808D01*
X147369220Y-94183407D01*
X147369219Y-94183407D01*
X147172551Y-94130709D01*
X147172541Y-94130707D01*
X147167319Y-94129308D01*
X147161927Y-94128836D01*
X147161920Y-94128835D01*
X146959095Y-94111091D01*
X146953700Y-94110619D01*
X146948305Y-94111091D01*
X146745471Y-94128836D01*
X146745466Y-94128836D01*
X146740081Y-94129308D01*
X146734858Y-94130707D01*
X146734849Y-94130709D01*
X146719887Y-94134718D01*
X146655701Y-94134717D01*
X146600115Y-94102624D01*
X146450986Y-93953495D01*
X146443542Y-93945314D01*
X146439486Y-93938923D01*
X146390475Y-93892898D01*
X146387678Y-93890187D01*
X146370927Y-93873436D01*
X146368171Y-93870680D01*
X146364990Y-93868212D01*
X146356114Y-93860630D01*
X146329969Y-93836078D01*
X146329967Y-93836076D01*
X146324282Y-93830738D01*
X146317449Y-93826982D01*
X146317443Y-93826977D01*
X146306725Y-93821085D01*
X146290466Y-93810406D01*
X146280795Y-93802904D01*
X146280792Y-93802902D01*
X146274636Y-93798127D01*
X146267479Y-93795029D01*
X146267476Y-93795028D01*
X146234549Y-93780778D01*
X146224063Y-93775641D01*
X146192632Y-93758362D01*
X146192623Y-93758358D01*
X146185792Y-93754603D01*
X146178235Y-93752662D01*
X146178231Y-93752661D01*
X146166388Y-93749620D01*
X146147984Y-93743319D01*
X146136757Y-93738460D01*
X146136750Y-93738458D01*
X146129596Y-93735362D01*
X146121892Y-93734141D01*
X146121890Y-93734141D01*
X146086459Y-93728529D01*
X146075024Y-93726161D01*
X146040271Y-93717238D01*
X146040263Y-93717237D01*
X146032719Y-93715300D01*
X146024923Y-93715300D01*
X146012683Y-93715300D01*
X145993297Y-93713774D01*
X145973504Y-93710640D01*
X145965738Y-93711374D01*
X145965735Y-93711374D01*
X145930024Y-93714750D01*
X145918355Y-93715300D01*
X145573220Y-93715300D01*
X145516400Y-93701515D01*
X145472212Y-93663227D01*
X145439186Y-93616848D01*
X145303949Y-93487900D01*
X145291351Y-93475888D01*
X145291349Y-93475886D01*
X145287078Y-93471814D01*
X145154816Y-93386814D01*
X145115244Y-93361382D01*
X145115241Y-93361380D01*
X145110272Y-93358187D01*
X145104792Y-93355993D01*
X145104786Y-93355990D01*
X144957114Y-93296872D01*
X144916217Y-93270128D01*
X144888828Y-93229661D01*
X144879200Y-93181754D01*
X144879200Y-92985934D01*
X144888639Y-92938481D01*
X144915519Y-92898253D01*
X144965060Y-92848712D01*
X145020081Y-92793691D01*
X145083265Y-92691253D01*
X145122175Y-92651773D01*
X145174405Y-92633191D01*
X145229512Y-92639227D01*
X145276482Y-92668672D01*
X145324107Y-92716297D01*
X145331556Y-92724483D01*
X145335614Y-92730877D01*
X145341299Y-92736215D01*
X145341301Y-92736218D01*
X145384639Y-92776915D01*
X145387435Y-92779625D01*
X145406930Y-92799120D01*
X145410015Y-92801513D01*
X145410101Y-92801580D01*
X145418973Y-92809158D01*
X145450818Y-92839062D01*
X145457648Y-92842817D01*
X145457651Y-92842819D01*
X145468371Y-92848712D01*
X145484622Y-92859386D01*
X145500464Y-92871674D01*
X145507621Y-92874771D01*
X145507623Y-92874772D01*
X145540555Y-92889022D01*
X145551050Y-92894164D01*
X145589308Y-92915197D01*
X145596862Y-92917136D01*
X145596866Y-92917138D01*
X145598639Y-92917593D01*
X145600052Y-92918399D01*
X145604118Y-92920009D01*
X145603888Y-92920587D01*
X145655483Y-92950016D01*
X145675602Y-92970135D01*
X145813807Y-93051869D01*
X145967996Y-93096665D01*
X146004019Y-93099500D01*
X146502380Y-93099499D01*
X146538404Y-93096665D01*
X146692593Y-93051869D01*
X146830798Y-92970135D01*
X146944335Y-92856598D01*
X147026069Y-92718393D01*
X147070865Y-92564204D01*
X147073700Y-92528181D01*
X147073699Y-92173528D01*
X147092705Y-92107557D01*
X147143898Y-92061809D01*
X147211582Y-92050309D01*
X147370800Y-92068249D01*
X147538859Y-92049313D01*
X147698490Y-91993456D01*
X147755704Y-91957505D01*
X147821676Y-91938500D01*
X149803548Y-91938500D01*
X149851001Y-91947939D01*
G37*
%TD.AperFunction*%
%TA.AperFunction,NonConductor*%
G36*
X172307157Y-96113222D02*
G01*
X172355909Y-96158883D01*
X172373900Y-96223211D01*
X172373900Y-96461189D01*
X172355909Y-96525517D01*
X172307157Y-96571178D01*
X172241790Y-96584924D01*
X172178776Y-96562764D01*
X172008841Y-96443774D01*
X171969976Y-96399456D01*
X171955965Y-96342199D01*
X171969976Y-96284942D01*
X172008839Y-96240626D01*
X172098071Y-96178146D01*
X172178777Y-96121636D01*
X172241791Y-96099476D01*
X172307157Y-96113222D01*
G37*
%TD.AperFunction*%
%TA.AperFunction,NonConductor*%
G36*
X170230100Y-95904585D02*
G01*
X170282842Y-95941227D01*
X170284505Y-95943601D01*
X170451599Y-96110695D01*
X170456032Y-96113799D01*
X170456038Y-96113804D01*
X170637158Y-96240625D01*
X170676024Y-96284943D01*
X170690035Y-96342200D01*
X170676024Y-96399457D01*
X170637160Y-96443774D01*
X170451599Y-96573705D01*
X170447775Y-96577528D01*
X170447769Y-96577534D01*
X170288334Y-96736969D01*
X170288328Y-96736975D01*
X170284505Y-96740799D01*
X170281402Y-96745229D01*
X170281399Y-96745234D01*
X170154575Y-96926359D01*
X170110257Y-96965225D01*
X170053000Y-96979236D01*
X169995743Y-96965225D01*
X169951425Y-96926359D01*
X169930096Y-96895898D01*
X169821495Y-96740799D01*
X169654401Y-96573705D01*
X169652027Y-96572042D01*
X169615385Y-96519300D01*
X169610425Y-96454432D01*
X169638989Y-96395981D01*
X169689124Y-96362747D01*
X169688933Y-96362338D01*
X169691662Y-96361065D01*
X169693215Y-96360036D01*
X169693962Y-96359788D01*
X169702334Y-96357014D01*
X169851656Y-96264912D01*
X169975712Y-96140856D01*
X170067814Y-95991534D01*
X170070835Y-95982415D01*
X170071865Y-95980862D01*
X170073138Y-95978133D01*
X170073547Y-95978324D01*
X170106781Y-95928189D01*
X170165232Y-95899625D01*
X170230100Y-95904585D01*
G37*
%TD.AperFunction*%
%TA.AperFunction,NonConductor*%
G36*
X152869778Y-95051247D02*
G01*
X152910828Y-95096005D01*
X152925700Y-95154888D01*
X152925700Y-95799394D01*
X152925890Y-95801814D01*
X152925891Y-95801828D01*
X152928104Y-95829951D01*
X152928105Y-95829958D01*
X152928602Y-95836269D01*
X152930368Y-95842350D01*
X152930370Y-95842357D01*
X152971062Y-95982415D01*
X152974456Y-95994098D01*
X152978426Y-96000811D01*
X152978427Y-96000813D01*
X153054146Y-96128848D01*
X153054148Y-96128851D01*
X153058119Y-96135565D01*
X153063637Y-96141083D01*
X153064381Y-96141827D01*
X153065417Y-96143377D01*
X153068417Y-96147245D01*
X153068143Y-96147457D01*
X153091261Y-96182055D01*
X153100700Y-96229508D01*
X153100700Y-96413991D01*
X153099639Y-96430176D01*
X153098996Y-96435064D01*
X153091500Y-96491999D01*
X153091500Y-96496052D01*
X153091500Y-96807411D01*
X153089973Y-96826806D01*
X153086840Y-96846596D01*
X153087573Y-96854353D01*
X153087573Y-96854361D01*
X153090950Y-96890079D01*
X153091500Y-96901747D01*
X153091500Y-97066900D01*
X153074887Y-97128900D01*
X153029500Y-97174287D01*
X152967500Y-97190900D01*
X152396654Y-97190900D01*
X152396638Y-97190900D01*
X152392600Y-97190901D01*
X152388585Y-97191429D01*
X152388577Y-97191430D01*
X152290586Y-97204330D01*
X152290584Y-97204330D01*
X152282528Y-97205391D01*
X152275026Y-97208498D01*
X152275020Y-97208500D01*
X152153078Y-97259011D01*
X152153075Y-97259012D01*
X152145571Y-97262121D01*
X152139126Y-97267065D01*
X152139123Y-97267068D01*
X152034410Y-97347417D01*
X152034406Y-97347420D01*
X152027964Y-97352364D01*
X152023020Y-97358806D01*
X152023017Y-97358810D01*
X151942668Y-97463523D01*
X151942665Y-97463526D01*
X151937721Y-97469971D01*
X151934612Y-97477475D01*
X151934611Y-97477478D01*
X151884101Y-97599418D01*
X151884099Y-97599423D01*
X151880991Y-97606928D01*
X151879930Y-97614984D01*
X151879930Y-97614986D01*
X151879627Y-97617289D01*
X151878754Y-97619374D01*
X151877827Y-97622836D01*
X151877358Y-97622710D01*
X151854522Y-97677291D01*
X151802499Y-97716330D01*
X151737873Y-97723667D01*
X151678423Y-97697283D01*
X151640506Y-97644436D01*
X151638356Y-97638672D01*
X151612396Y-97569069D01*
X151526146Y-97453854D01*
X151519451Y-97448842D01*
X151487495Y-97393494D01*
X151487495Y-97329306D01*
X151519451Y-97273957D01*
X151526146Y-97268946D01*
X151612396Y-97153731D01*
X151662691Y-97018883D01*
X151669100Y-96959273D01*
X151669099Y-96263528D01*
X151662691Y-96203917D01*
X151612396Y-96069069D01*
X151526146Y-95953854D01*
X151470434Y-95912148D01*
X151418030Y-95872918D01*
X151418028Y-95872917D01*
X151410931Y-95867604D01*
X151409579Y-95867099D01*
X151368315Y-95828933D01*
X151348630Y-95771685D01*
X151358394Y-95711943D01*
X151359831Y-95708621D01*
X151364960Y-95698156D01*
X151368033Y-95692567D01*
X151385997Y-95659892D01*
X151388978Y-95648283D01*
X151390979Y-95640489D01*
X151397280Y-95622083D01*
X151405238Y-95603695D01*
X151412069Y-95560556D01*
X151414439Y-95549115D01*
X151423360Y-95514374D01*
X151423359Y-95514374D01*
X151425300Y-95506819D01*
X151425300Y-95486783D01*
X151426825Y-95467397D01*
X151429960Y-95447604D01*
X151425850Y-95404124D01*
X151425300Y-95392455D01*
X151425300Y-95359100D01*
X151441913Y-95297100D01*
X151487300Y-95251713D01*
X151549299Y-95235100D01*
X151753759Y-95235099D01*
X151760180Y-95235099D01*
X151796204Y-95232265D01*
X151950393Y-95187469D01*
X152085836Y-95107368D01*
X152148958Y-95090100D01*
X152421825Y-95090100D01*
X152432880Y-95090621D01*
X152440267Y-95092273D01*
X152507472Y-95090161D01*
X152511368Y-95090100D01*
X152535048Y-95090100D01*
X152538950Y-95090100D01*
X152542913Y-95089599D01*
X152554563Y-95088680D01*
X152598227Y-95087309D01*
X152617461Y-95081719D01*
X152636517Y-95077774D01*
X152656392Y-95075264D01*
X152696995Y-95059187D01*
X152708050Y-95055402D01*
X152749990Y-95043218D01*
X152754025Y-95040831D01*
X152812398Y-95031350D01*
X152869778Y-95051247D01*
G37*
%TD.AperFunction*%
%TA.AperFunction,NonConductor*%
G36*
X149906100Y-96607913D02*
G01*
X149951487Y-96653300D01*
X149968100Y-96715299D01*
X149968100Y-96955960D01*
X149968100Y-96955978D01*
X149968101Y-96959272D01*
X149968453Y-96962550D01*
X149968454Y-96962561D01*
X149973679Y-97011168D01*
X149973680Y-97011173D01*
X149974509Y-97018883D01*
X149977219Y-97026149D01*
X149977220Y-97026153D01*
X149992418Y-97066900D01*
X150024804Y-97153731D01*
X150030118Y-97160830D01*
X150030119Y-97160831D01*
X150103616Y-97259011D01*
X150111054Y-97268946D01*
X150117748Y-97273957D01*
X150149705Y-97329306D01*
X150149705Y-97393494D01*
X150117748Y-97448842D01*
X150111054Y-97453854D01*
X150105744Y-97460946D01*
X150105741Y-97460950D01*
X150030119Y-97561968D01*
X150030116Y-97561972D01*
X150024804Y-97569069D01*
X150021704Y-97577378D01*
X150021704Y-97577380D01*
X149977670Y-97695441D01*
X149950721Y-97738210D01*
X149908942Y-97766668D01*
X149893853Y-97772919D01*
X149867692Y-97783755D01*
X149867690Y-97783756D01*
X149860187Y-97786864D01*
X149853742Y-97791808D01*
X149853739Y-97791811D01*
X149741189Y-97878173D01*
X149741184Y-97878177D01*
X149734746Y-97883118D01*
X149729805Y-97889556D01*
X149729804Y-97889558D01*
X149668481Y-97923039D01*
X149598792Y-97918053D01*
X149542861Y-97876183D01*
X149526146Y-97853854D01*
X149517802Y-97847608D01*
X149418031Y-97772919D01*
X149418030Y-97772918D01*
X149410931Y-97767604D01*
X149276083Y-97717309D01*
X149268370Y-97716479D01*
X149268367Y-97716479D01*
X149219780Y-97711255D01*
X149219769Y-97711254D01*
X149216473Y-97710900D01*
X149213151Y-97710900D01*
X149010897Y-97710900D01*
X148963444Y-97701461D01*
X148923216Y-97674581D01*
X148897716Y-97649081D01*
X148865622Y-97593494D01*
X148865622Y-97529306D01*
X148897716Y-97473719D01*
X148923217Y-97448218D01*
X148963445Y-97421338D01*
X149010898Y-97411899D01*
X149213161Y-97411899D01*
X149216472Y-97411899D01*
X149276083Y-97405491D01*
X149410931Y-97355196D01*
X149526146Y-97268946D01*
X149612396Y-97153731D01*
X149662691Y-97018883D01*
X149669100Y-96959273D01*
X149669099Y-96715299D01*
X149685712Y-96653300D01*
X149731099Y-96607913D01*
X149793099Y-96591300D01*
X149844100Y-96591300D01*
X149906100Y-96607913D01*
G37*
%TD.AperFunction*%
%TA.AperFunction,NonConductor*%
G36*
X172307157Y-98653222D02*
G01*
X172355909Y-98698883D01*
X172373900Y-98763211D01*
X172373900Y-99001189D01*
X172355909Y-99065517D01*
X172307157Y-99111178D01*
X172241790Y-99124924D01*
X172178777Y-99102764D01*
X172008842Y-98983775D01*
X171969976Y-98939457D01*
X171955965Y-98882200D01*
X171969976Y-98824943D01*
X172008842Y-98780625D01*
X172178777Y-98661636D01*
X172241790Y-98639476D01*
X172307157Y-98653222D01*
G37*
%TD.AperFunction*%
%TA.AperFunction,NonConductor*%
G36*
X170110257Y-98259176D02*
G01*
X170154575Y-98298042D01*
X170281395Y-98479161D01*
X170281401Y-98479168D01*
X170284505Y-98483601D01*
X170451599Y-98650695D01*
X170456032Y-98653799D01*
X170456038Y-98653804D01*
X170637158Y-98780625D01*
X170676024Y-98824943D01*
X170690035Y-98882200D01*
X170676024Y-98939457D01*
X170637159Y-98983775D01*
X170456041Y-99110595D01*
X170451599Y-99113705D01*
X170447775Y-99117528D01*
X170447769Y-99117534D01*
X170288334Y-99276969D01*
X170288328Y-99276975D01*
X170284505Y-99280799D01*
X170281402Y-99285229D01*
X170281399Y-99285234D01*
X170154575Y-99466359D01*
X170110257Y-99505225D01*
X170053000Y-99519236D01*
X169995743Y-99505225D01*
X169951425Y-99466359D01*
X169877207Y-99360365D01*
X169821495Y-99280799D01*
X169654401Y-99113705D01*
X169649968Y-99110601D01*
X169649961Y-99110595D01*
X169468842Y-98983775D01*
X169429976Y-98939457D01*
X169415965Y-98882200D01*
X169429976Y-98824943D01*
X169468842Y-98780625D01*
X169649961Y-98653804D01*
X169649961Y-98653803D01*
X169654401Y-98650695D01*
X169821495Y-98483601D01*
X169865713Y-98420452D01*
X169951425Y-98298042D01*
X169995743Y-98259176D01*
X170053000Y-98245165D01*
X170110257Y-98259176D01*
G37*
%TD.AperFunction*%
%TA.AperFunction,NonConductor*%
G36*
X149551859Y-100992130D02*
G01*
X149607539Y-101025059D01*
X149639059Y-101081549D01*
X149637840Y-101146225D01*
X149613557Y-101229807D01*
X149613060Y-101236115D01*
X149613059Y-101236124D01*
X149610891Y-101263675D01*
X149610890Y-101263690D01*
X149610700Y-101266110D01*
X149610700Y-101268555D01*
X149610700Y-101532225D01*
X149594548Y-101593420D01*
X149550300Y-101638673D01*
X149489482Y-101656194D01*
X149427940Y-101641419D01*
X149381706Y-101598197D01*
X149361984Y-101566810D01*
X149358277Y-101560910D01*
X149238690Y-101441323D01*
X149232789Y-101437615D01*
X149232784Y-101437611D01*
X149232179Y-101437231D01*
X149231673Y-101436725D01*
X149227347Y-101433275D01*
X149227735Y-101432787D01*
X149193159Y-101398209D01*
X149174934Y-101346121D01*
X149181114Y-101291284D01*
X149210472Y-101244561D01*
X149431084Y-101023949D01*
X149487171Y-100991724D01*
X149551859Y-100992130D01*
G37*
%TD.AperFunction*%
%TA.AperFunction,NonConductor*%
G36*
X153029500Y-101458512D02*
G01*
X153074887Y-101503899D01*
X153091500Y-101565899D01*
X153091500Y-102068765D01*
X153075210Y-102130202D01*
X153030621Y-102175496D01*
X152989427Y-102199859D01*
X152986091Y-102201832D01*
X152922970Y-102219100D01*
X152233723Y-102219100D01*
X152182104Y-102207845D01*
X152139856Y-102176124D01*
X152114647Y-102129695D01*
X152113682Y-102126375D01*
X152081094Y-102014205D01*
X152081094Y-102014204D01*
X152081950Y-102013956D01*
X152073614Y-101973705D01*
X152083005Y-101928359D01*
X152083694Y-101927195D01*
X152128843Y-101771793D01*
X152131700Y-101735490D01*
X152131700Y-101565899D01*
X152148313Y-101503900D01*
X152193700Y-101458513D01*
X152255700Y-101441900D01*
X152806342Y-101441900D01*
X152806350Y-101441900D01*
X152806352Y-101441899D01*
X152806358Y-101441899D01*
X152967500Y-101441899D01*
X153029500Y-101458512D01*
G37*
%TD.AperFunction*%
%TA.AperFunction,NonConductor*%
G36*
X158107818Y-94901921D02*
G01*
X158157180Y-94932170D01*
X158402991Y-95177982D01*
X158633707Y-95408698D01*
X158641159Y-95416887D01*
X158645214Y-95423277D01*
X158679320Y-95455305D01*
X158694223Y-95469300D01*
X158697019Y-95472010D01*
X158716529Y-95491520D01*
X158719709Y-95493987D01*
X158728571Y-95501555D01*
X158741290Y-95513500D01*
X158754732Y-95526123D01*
X158754734Y-95526124D01*
X158760418Y-95531462D01*
X158767251Y-95535218D01*
X158767252Y-95535219D01*
X158777973Y-95541113D01*
X158794234Y-95551794D01*
X158810064Y-95564073D01*
X158850155Y-95581421D01*
X158860635Y-95586555D01*
X158898908Y-95607597D01*
X158918316Y-95612580D01*
X158936719Y-95618881D01*
X158947944Y-95623739D01*
X158947946Y-95623739D01*
X158955104Y-95626837D01*
X158998258Y-95633671D01*
X159009644Y-95636029D01*
X159051981Y-95646900D01*
X159072017Y-95646900D01*
X159091415Y-95648427D01*
X159103486Y-95650339D01*
X159103487Y-95650339D01*
X159111196Y-95651560D01*
X159149276Y-95647960D01*
X159154676Y-95647450D01*
X159166345Y-95646900D01*
X163907240Y-95646900D01*
X163968434Y-95663052D01*
X164013687Y-95707299D01*
X164031209Y-95768115D01*
X164016435Y-95829657D01*
X163979150Y-95869542D01*
X163980053Y-95870675D01*
X163974608Y-95875016D01*
X163968710Y-95878723D01*
X163963785Y-95883647D01*
X163963781Y-95883651D01*
X163854051Y-95993381D01*
X163854047Y-95993385D01*
X163849123Y-95998310D01*
X163845418Y-96004205D01*
X163845415Y-96004210D01*
X163762846Y-96135618D01*
X163759144Y-96141510D01*
X163756847Y-96148072D01*
X163756845Y-96148078D01*
X163705587Y-96294566D01*
X163705585Y-96294571D01*
X163703287Y-96301141D01*
X163702507Y-96308055D01*
X163702506Y-96308064D01*
X163689718Y-96421566D01*
X163684351Y-96469200D01*
X163685131Y-96476123D01*
X163702506Y-96630335D01*
X163702507Y-96630342D01*
X163703287Y-96637259D01*
X163705586Y-96643830D01*
X163705587Y-96643833D01*
X163741068Y-96745234D01*
X163759144Y-96796890D01*
X163849123Y-96940090D01*
X163968710Y-97059677D01*
X164111910Y-97149656D01*
X164271541Y-97205513D01*
X164439600Y-97224449D01*
X164607659Y-97205513D01*
X164767290Y-97149656D01*
X164910490Y-97059677D01*
X165030077Y-96940090D01*
X165120056Y-96796890D01*
X165175913Y-96637259D01*
X165194849Y-96469200D01*
X165175913Y-96301141D01*
X165120056Y-96141510D01*
X165030077Y-95998310D01*
X164910490Y-95878723D01*
X164904590Y-95875015D01*
X164899147Y-95870675D01*
X164900049Y-95869542D01*
X164862765Y-95829657D01*
X164847991Y-95768115D01*
X164865513Y-95707299D01*
X164910766Y-95663052D01*
X164971960Y-95646900D01*
X167312830Y-95646900D01*
X167371151Y-95661471D01*
X167415766Y-95701761D01*
X167436187Y-95758297D01*
X167437548Y-95771619D01*
X167442312Y-95818261D01*
X167442313Y-95818269D01*
X167443001Y-95824997D01*
X167445129Y-95831419D01*
X167445130Y-95831423D01*
X167495164Y-95982415D01*
X167498186Y-95991534D01*
X167503909Y-96000813D01*
X167586497Y-96134711D01*
X167586500Y-96134715D01*
X167590288Y-96140856D01*
X167714344Y-96264912D01*
X167720485Y-96268700D01*
X167720488Y-96268702D01*
X167759764Y-96292927D01*
X167863666Y-96357014D01*
X167871481Y-96359603D01*
X167872785Y-96360036D01*
X167874337Y-96361065D01*
X167877067Y-96362338D01*
X167876875Y-96362747D01*
X167927011Y-96395981D01*
X167955575Y-96454432D01*
X167950615Y-96519300D01*
X167913972Y-96572043D01*
X167911599Y-96573705D01*
X167907775Y-96577528D01*
X167907769Y-96577534D01*
X167748334Y-96736969D01*
X167748328Y-96736975D01*
X167744505Y-96740799D01*
X167741402Y-96745229D01*
X167741399Y-96745234D01*
X167612073Y-96929931D01*
X167612068Y-96929938D01*
X167608965Y-96934371D01*
X167606677Y-96939277D01*
X167606675Y-96939281D01*
X167511386Y-97143627D01*
X167511383Y-97143632D01*
X167509097Y-97148537D01*
X167507698Y-97153757D01*
X167507694Y-97153769D01*
X167449337Y-97371565D01*
X167449335Y-97371571D01*
X167447937Y-97376792D01*
X167447465Y-97382177D01*
X167447465Y-97382182D01*
X167430387Y-97577380D01*
X167427341Y-97612200D01*
X167427813Y-97617595D01*
X167440855Y-97766669D01*
X167447937Y-97847608D01*
X167449336Y-97852830D01*
X167449337Y-97852834D01*
X167507694Y-98070630D01*
X167507697Y-98070638D01*
X167509097Y-98075863D01*
X167511385Y-98080770D01*
X167511386Y-98080772D01*
X167606678Y-98285127D01*
X167606681Y-98285133D01*
X167608965Y-98290030D01*
X167612064Y-98294457D01*
X167612066Y-98294459D01*
X167741399Y-98479166D01*
X167741402Y-98479170D01*
X167744505Y-98483601D01*
X167911599Y-98650695D01*
X167916032Y-98653799D01*
X167916038Y-98653804D01*
X168097158Y-98780625D01*
X168136024Y-98824943D01*
X168150035Y-98882200D01*
X168136024Y-98939457D01*
X168097159Y-98983775D01*
X167916041Y-99110595D01*
X167911599Y-99113705D01*
X167907775Y-99117528D01*
X167907769Y-99117534D01*
X167748334Y-99276969D01*
X167748328Y-99276975D01*
X167744505Y-99280799D01*
X167741402Y-99285229D01*
X167741399Y-99285234D01*
X167612073Y-99469931D01*
X167612068Y-99469938D01*
X167608965Y-99474371D01*
X167606677Y-99479277D01*
X167606675Y-99479281D01*
X167511386Y-99683627D01*
X167511383Y-99683632D01*
X167509097Y-99688537D01*
X167507698Y-99693757D01*
X167507694Y-99693769D01*
X167449337Y-99911565D01*
X167449335Y-99911571D01*
X167447937Y-99916792D01*
X167447465Y-99922177D01*
X167447465Y-99922182D01*
X167438197Y-100028119D01*
X167427341Y-100152200D01*
X167427813Y-100157595D01*
X167446959Y-100376436D01*
X167447937Y-100387608D01*
X167449336Y-100392830D01*
X167449337Y-100392834D01*
X167507694Y-100610630D01*
X167507697Y-100610638D01*
X167509097Y-100615863D01*
X167511385Y-100620770D01*
X167511386Y-100620772D01*
X167606678Y-100825127D01*
X167606681Y-100825133D01*
X167608965Y-100830030D01*
X167612064Y-100834457D01*
X167612066Y-100834459D01*
X167741399Y-101019166D01*
X167741402Y-101019170D01*
X167744505Y-101023601D01*
X167911599Y-101190695D01*
X167916031Y-101193798D01*
X167916033Y-101193800D01*
X168013549Y-101262081D01*
X168105170Y-101326235D01*
X168110070Y-101328520D01*
X168110072Y-101328521D01*
X168164443Y-101353874D01*
X168319337Y-101426103D01*
X168324567Y-101427504D01*
X168324569Y-101427505D01*
X168358979Y-101436725D01*
X168547592Y-101487263D01*
X168783000Y-101507859D01*
X169018408Y-101487263D01*
X169246663Y-101426103D01*
X169460830Y-101326235D01*
X169654401Y-101190695D01*
X169821495Y-101023601D01*
X169951424Y-100838042D01*
X169995743Y-100799176D01*
X170053000Y-100785165D01*
X170110257Y-100799176D01*
X170154575Y-100838042D01*
X170281395Y-101019161D01*
X170281401Y-101019168D01*
X170284505Y-101023601D01*
X170451599Y-101190695D01*
X170456031Y-101193798D01*
X170456033Y-101193800D01*
X170553549Y-101262081D01*
X170645170Y-101326235D01*
X170676244Y-101340725D01*
X170722215Y-101377620D01*
X170745956Y-101431574D01*
X170742101Y-101490394D01*
X170711521Y-101540788D01*
X169305129Y-102947181D01*
X169264901Y-102974061D01*
X169217448Y-102983500D01*
X164752271Y-102983500D01*
X164686299Y-102964493D01*
X164671588Y-102955249D01*
X164671581Y-102955245D01*
X164665690Y-102951544D01*
X164659124Y-102949246D01*
X164659121Y-102949245D01*
X164512633Y-102897987D01*
X164512630Y-102897986D01*
X164506059Y-102895687D01*
X164499142Y-102894907D01*
X164499135Y-102894906D01*
X164344923Y-102877531D01*
X164338000Y-102876751D01*
X164331077Y-102877531D01*
X164176864Y-102894906D01*
X164176855Y-102894907D01*
X164169941Y-102895687D01*
X164163371Y-102897985D01*
X164163366Y-102897987D01*
X164016878Y-102949245D01*
X164016872Y-102949247D01*
X164010310Y-102951544D01*
X164004422Y-102955243D01*
X164004411Y-102955249D01*
X163989701Y-102964493D01*
X163923729Y-102983500D01*
X163870155Y-102983500D01*
X163804199Y-102964504D01*
X163758451Y-102913336D01*
X163749110Y-102858484D01*
X163746269Y-102858484D01*
X163746269Y-102851522D01*
X163747049Y-102844600D01*
X163745849Y-102833954D01*
X163728893Y-102683464D01*
X163728113Y-102676541D01*
X163672256Y-102516910D01*
X163582277Y-102373710D01*
X163462690Y-102254123D01*
X163319490Y-102164144D01*
X163312924Y-102161846D01*
X163312921Y-102161845D01*
X163166433Y-102110587D01*
X163166430Y-102110586D01*
X163159859Y-102108287D01*
X163152942Y-102107507D01*
X163152935Y-102107506D01*
X162998723Y-102090131D01*
X162991800Y-102089351D01*
X162984877Y-102090131D01*
X162830664Y-102107506D01*
X162830655Y-102107507D01*
X162823741Y-102108287D01*
X162817171Y-102110585D01*
X162817166Y-102110587D01*
X162670678Y-102161845D01*
X162670672Y-102161847D01*
X162664110Y-102164144D01*
X162658219Y-102167845D01*
X162658218Y-102167846D01*
X162526810Y-102250415D01*
X162526805Y-102250418D01*
X162520910Y-102254123D01*
X162515985Y-102259047D01*
X162515981Y-102259051D01*
X162406251Y-102368781D01*
X162406247Y-102368785D01*
X162401323Y-102373710D01*
X162397618Y-102379605D01*
X162397615Y-102379610D01*
X162315446Y-102510382D01*
X162311344Y-102516910D01*
X162309047Y-102523472D01*
X162309045Y-102523478D01*
X162257787Y-102669966D01*
X162257785Y-102669971D01*
X162255487Y-102676541D01*
X162254706Y-102683463D01*
X162253159Y-102690247D01*
X162251017Y-102689758D01*
X162232607Y-102737449D01*
X162184182Y-102777442D01*
X162126280Y-102787872D01*
X162126245Y-102788787D01*
X162123815Y-102788691D01*
X162121381Y-102788500D01*
X162118936Y-102788500D01*
X162003296Y-102788500D01*
X161939482Y-102770819D01*
X161893866Y-102722819D01*
X161879510Y-102658428D01*
X161879700Y-102656574D01*
X161879700Y-102123226D01*
X161869636Y-102024715D01*
X161816749Y-101865113D01*
X161728481Y-101722009D01*
X161696553Y-101690081D01*
X161664459Y-101634494D01*
X161664459Y-101570306D01*
X161696553Y-101514719D01*
X161707373Y-101503899D01*
X161728481Y-101482791D01*
X161816749Y-101339687D01*
X161869636Y-101180085D01*
X161879700Y-101081574D01*
X161879700Y-100548226D01*
X161869636Y-100449715D01*
X161816749Y-100290113D01*
X161728481Y-100147009D01*
X161609591Y-100028119D01*
X161603446Y-100024328D01*
X161603444Y-100024327D01*
X161588604Y-100015174D01*
X161545423Y-99970067D01*
X161529700Y-99909635D01*
X161529700Y-99640975D01*
X161530221Y-99629919D01*
X161531873Y-99622533D01*
X161529761Y-99555313D01*
X161529700Y-99551419D01*
X161529700Y-99527742D01*
X161529700Y-99523850D01*
X161529198Y-99519883D01*
X161528281Y-99508226D01*
X161527580Y-99485911D01*
X161526910Y-99464573D01*
X161521318Y-99445328D01*
X161517374Y-99426283D01*
X161514864Y-99406408D01*
X161498779Y-99365783D01*
X161495006Y-99354762D01*
X161482818Y-99312810D01*
X161472617Y-99295560D01*
X161464063Y-99278101D01*
X161456686Y-99259468D01*
X161431008Y-99224125D01*
X161424601Y-99214371D01*
X161406342Y-99183496D01*
X161406341Y-99183494D01*
X161402370Y-99176780D01*
X161388205Y-99162614D01*
X161375570Y-99147822D01*
X161363794Y-99131613D01*
X161357783Y-99126640D01*
X161357781Y-99126638D01*
X161330141Y-99103773D01*
X161321500Y-99095910D01*
X160654686Y-98429095D01*
X160647242Y-98420914D01*
X160643186Y-98414523D01*
X160594175Y-98368498D01*
X160591378Y-98365787D01*
X160574627Y-98349036D01*
X160574626Y-98349035D01*
X160571871Y-98346280D01*
X160568690Y-98343812D01*
X160559814Y-98336230D01*
X160533669Y-98311678D01*
X160533667Y-98311676D01*
X160527982Y-98306338D01*
X160521149Y-98302582D01*
X160521143Y-98302577D01*
X160510425Y-98296685D01*
X160494166Y-98286006D01*
X160484495Y-98278504D01*
X160484492Y-98278502D01*
X160478336Y-98273727D01*
X160471179Y-98270629D01*
X160471176Y-98270628D01*
X160438249Y-98256378D01*
X160427763Y-98251241D01*
X160396332Y-98233962D01*
X160396323Y-98233958D01*
X160389492Y-98230203D01*
X160381935Y-98228262D01*
X160381931Y-98228261D01*
X160370088Y-98225220D01*
X160351684Y-98218919D01*
X160340457Y-98214060D01*
X160340450Y-98214058D01*
X160333296Y-98210962D01*
X160325592Y-98209741D01*
X160325590Y-98209741D01*
X160290159Y-98204129D01*
X160278724Y-98201761D01*
X160243971Y-98192838D01*
X160243963Y-98192837D01*
X160236419Y-98190900D01*
X160228623Y-98190900D01*
X160216383Y-98190900D01*
X160196997Y-98189374D01*
X160177204Y-98186240D01*
X160169438Y-98186974D01*
X160169435Y-98186974D01*
X160133724Y-98190350D01*
X160122055Y-98190900D01*
X158669559Y-98190900D01*
X158617156Y-98179283D01*
X158574572Y-98146609D01*
X158549786Y-98098999D01*
X158549652Y-98098499D01*
X158549651Y-98034305D01*
X158549898Y-98033380D01*
X158553009Y-98025872D01*
X158567500Y-97915801D01*
X158567499Y-97717000D01*
X158553009Y-97606928D01*
X158498688Y-97475788D01*
X158490635Y-97409856D01*
X158517766Y-97349225D01*
X158572295Y-97311295D01*
X158671290Y-97276656D01*
X158814490Y-97186677D01*
X158934077Y-97067090D01*
X159024056Y-96923890D01*
X159079913Y-96764259D01*
X159098849Y-96596200D01*
X159097578Y-96584924D01*
X159080693Y-96435064D01*
X159079913Y-96428141D01*
X159024056Y-96268510D01*
X158934077Y-96125310D01*
X158814490Y-96005723D01*
X158802692Y-95998310D01*
X158770581Y-95978133D01*
X158671290Y-95915744D01*
X158664724Y-95913446D01*
X158664721Y-95913445D01*
X158518233Y-95862187D01*
X158518230Y-95862186D01*
X158511659Y-95859887D01*
X158504742Y-95859107D01*
X158504735Y-95859106D01*
X158350523Y-95841731D01*
X158343600Y-95840951D01*
X158336677Y-95841731D01*
X158182458Y-95859107D01*
X158182452Y-95859108D01*
X158175541Y-95859887D01*
X158110450Y-95882662D01*
X158052166Y-95888402D01*
X157997745Y-95866749D01*
X157959333Y-95822534D01*
X157945500Y-95765620D01*
X157945500Y-95019852D01*
X157959015Y-94963557D01*
X157996615Y-94919534D01*
X158050102Y-94897379D01*
X158107818Y-94901921D01*
G37*
%TD.AperFunction*%
%TA.AperFunction,NonConductor*%
G36*
X158461951Y-101325038D02*
G01*
X158512376Y-101371018D01*
X158581319Y-101482791D01*
X158586429Y-101487901D01*
X158613247Y-101514719D01*
X158645341Y-101570306D01*
X158645341Y-101634494D01*
X158613247Y-101690081D01*
X158586429Y-101716898D01*
X158586425Y-101716902D01*
X158581319Y-101722009D01*
X158577528Y-101728154D01*
X158577524Y-101728160D01*
X158496843Y-101858964D01*
X158496840Y-101858969D01*
X158493051Y-101865113D01*
X158490780Y-101871964D01*
X158490779Y-101871968D01*
X158442294Y-102018286D01*
X158440164Y-102024715D01*
X158439476Y-102031445D01*
X158439475Y-102031452D01*
X158430419Y-102120094D01*
X158430418Y-102120112D01*
X158430100Y-102123226D01*
X158430100Y-102656574D01*
X158430290Y-102658438D01*
X158415928Y-102722828D01*
X158370313Y-102770822D01*
X158306504Y-102788500D01*
X158192843Y-102788500D01*
X158192817Y-102788500D01*
X158190420Y-102788501D01*
X158188006Y-102788690D01*
X158188003Y-102788691D01*
X158160711Y-102790838D01*
X158160709Y-102790838D01*
X158154396Y-102791335D01*
X158148318Y-102793100D01*
X158148311Y-102793102D01*
X158007699Y-102833954D01*
X158007696Y-102833955D01*
X158000207Y-102836131D01*
X157993496Y-102840099D01*
X157993491Y-102840102D01*
X157868719Y-102913892D01*
X157868715Y-102913894D01*
X157862002Y-102917865D01*
X157856487Y-102923379D01*
X157856483Y-102923383D01*
X157753983Y-103025883D01*
X157753979Y-103025887D01*
X157748465Y-103031402D01*
X157744494Y-103038115D01*
X157744492Y-103038119D01*
X157670700Y-103162895D01*
X157667799Y-103167799D01*
X157667790Y-103167814D01*
X157666731Y-103169607D01*
X157666608Y-103169534D01*
X157642855Y-103204096D01*
X157602949Y-103230308D01*
X157556098Y-103239500D01*
X155414537Y-103239500D01*
X155359099Y-103226417D01*
X155315359Y-103189930D01*
X155292547Y-103137737D01*
X155294855Y-103092900D01*
X155292759Y-103092518D01*
X155293895Y-103086293D01*
X155295665Y-103080204D01*
X155298500Y-103044181D01*
X155298499Y-102777999D01*
X155312510Y-102720743D01*
X155351378Y-102676425D01*
X155406313Y-102655062D01*
X155426472Y-102652409D01*
X155433982Y-102649297D01*
X155434904Y-102649051D01*
X155499093Y-102649050D01*
X155500016Y-102649297D01*
X155507528Y-102652409D01*
X155617599Y-102666900D01*
X155816400Y-102666899D01*
X155926472Y-102652409D01*
X155933982Y-102649297D01*
X155934904Y-102649051D01*
X155999093Y-102649050D01*
X156000016Y-102649297D01*
X156007528Y-102652409D01*
X156117599Y-102666900D01*
X156316400Y-102666899D01*
X156426472Y-102652409D01*
X156433982Y-102649297D01*
X156434904Y-102649051D01*
X156499093Y-102649050D01*
X156500016Y-102649297D01*
X156507528Y-102652409D01*
X156617599Y-102666900D01*
X156816400Y-102666899D01*
X156926472Y-102652409D01*
X157063429Y-102595679D01*
X157181036Y-102505436D01*
X157271279Y-102387829D01*
X157328009Y-102250872D01*
X157342500Y-102140801D01*
X157342499Y-101565898D01*
X157359112Y-101503899D01*
X157404499Y-101458512D01*
X157466499Y-101441899D01*
X158037345Y-101441899D01*
X158041400Y-101441899D01*
X158151472Y-101427409D01*
X158288429Y-101370679D01*
X158331353Y-101337742D01*
X158394833Y-101312700D01*
X158461951Y-101325038D01*
G37*
%TD.AperFunction*%
%TA.AperFunction,NonConductor*%
G36*
X173859091Y-89442839D02*
G01*
X173899319Y-89469719D01*
X175096681Y-90667081D01*
X175123561Y-90707309D01*
X175133000Y-90754762D01*
X175133000Y-104520438D01*
X175123561Y-104567891D01*
X175096681Y-104608119D01*
X173830926Y-105873872D01*
X173795162Y-105898799D01*
X173752980Y-105909808D01*
X173709579Y-105913226D01*
X173708697Y-105913293D01*
X173656944Y-105916997D01*
X173654337Y-105917184D01*
X173645486Y-105917500D01*
X144312656Y-105917500D01*
X144303812Y-105917184D01*
X144236238Y-105912352D01*
X144235390Y-105912289D01*
X144176740Y-105907691D01*
X144134535Y-105896688D01*
X144098751Y-105871751D01*
X142835119Y-104608119D01*
X142808239Y-104567891D01*
X142798800Y-104520438D01*
X142798800Y-102074318D01*
X142814252Y-102014374D01*
X142856757Y-101969369D01*
X142915721Y-101950520D01*
X142976450Y-101962525D01*
X143023807Y-102002391D01*
X143068214Y-102064752D01*
X143072491Y-102068830D01*
X143184360Y-102175497D01*
X143220322Y-102209786D01*
X143397128Y-102323413D01*
X143592243Y-102401525D01*
X143798615Y-102441300D01*
X144653171Y-102441300D01*
X144656125Y-102441300D01*
X144659076Y-102441018D01*
X144659080Y-102441018D01*
X144767413Y-102430674D01*
X144834264Y-102443009D01*
X144884566Y-102488736D01*
X144903200Y-102554112D01*
X144903200Y-102708013D01*
X144902138Y-102724198D01*
X144898018Y-102755500D01*
X144902388Y-102788691D01*
X144911470Y-102857682D01*
X144917594Y-102904201D01*
X144917595Y-102904206D01*
X144918656Y-102912262D01*
X144979164Y-103058341D01*
X144984111Y-103064788D01*
X145060813Y-103164749D01*
X145075418Y-103183782D01*
X145081864Y-103188728D01*
X145100469Y-103203004D01*
X145112664Y-103213699D01*
X145225204Y-103326239D01*
X145249242Y-103360117D01*
X145260743Y-103400033D01*
X145262107Y-103412143D01*
X145262108Y-103412148D01*
X145262887Y-103419059D01*
X145265185Y-103425626D01*
X145303029Y-103533781D01*
X145318744Y-103578690D01*
X145408723Y-103721890D01*
X145528310Y-103841477D01*
X145671510Y-103931456D01*
X145831141Y-103987313D01*
X145999200Y-104006249D01*
X146167259Y-103987313D01*
X146326890Y-103931456D01*
X146443552Y-103858151D01*
X146509525Y-103839145D01*
X146575495Y-103858152D01*
X146611310Y-103880656D01*
X146770941Y-103936513D01*
X146939000Y-103955449D01*
X147107059Y-103936513D01*
X147266690Y-103880656D01*
X147409890Y-103790677D01*
X147529477Y-103671090D01*
X147619456Y-103527890D01*
X147675313Y-103368259D01*
X147694249Y-103200200D01*
X147693092Y-103189930D01*
X147690597Y-103167782D01*
X147702097Y-103100097D01*
X147747845Y-103048906D01*
X147813817Y-103029900D01*
X148322713Y-103029900D01*
X148338898Y-103030961D01*
X148370200Y-103035082D01*
X148526962Y-103014444D01*
X148673041Y-102953936D01*
X148712333Y-102923786D01*
X148798482Y-102857682D01*
X148817710Y-102832622D01*
X148828389Y-102820444D01*
X148843041Y-102805792D01*
X148876919Y-102781755D01*
X148916832Y-102770256D01*
X148935859Y-102768113D01*
X149095490Y-102712256D01*
X149238690Y-102622277D01*
X149358277Y-102502690D01*
X149379106Y-102469540D01*
X149425340Y-102426319D01*
X149486882Y-102411544D01*
X149547700Y-102429065D01*
X149591948Y-102474318D01*
X149608100Y-102535513D01*
X149608100Y-102675290D01*
X149608290Y-102677710D01*
X149608291Y-102677724D01*
X149610459Y-102705275D01*
X149610460Y-102705282D01*
X149610957Y-102711593D01*
X149612723Y-102717674D01*
X149612725Y-102717681D01*
X149651527Y-102851235D01*
X149656106Y-102866995D01*
X149738483Y-103006287D01*
X149852913Y-103120717D01*
X149992205Y-103203094D01*
X150147607Y-103248243D01*
X150183910Y-103251100D01*
X150255539Y-103251100D01*
X150302992Y-103260539D01*
X150343220Y-103287419D01*
X151005997Y-103950197D01*
X151035358Y-103996924D01*
X151081712Y-104129399D01*
X151084544Y-104137490D01*
X151144723Y-104233264D01*
X151168320Y-104270819D01*
X151174523Y-104280690D01*
X151294110Y-104400277D01*
X151437310Y-104490256D01*
X151596941Y-104546113D01*
X151603864Y-104546893D01*
X151751447Y-104563522D01*
X151765000Y-104565049D01*
X151778553Y-104563522D01*
X151807014Y-104560315D01*
X151933059Y-104546113D01*
X152092690Y-104490256D01*
X152109796Y-104479507D01*
X152175770Y-104460500D01*
X152874518Y-104460500D01*
X152914685Y-104467186D01*
X152946171Y-104484175D01*
X152947113Y-104485117D01*
X153086405Y-104567494D01*
X153241807Y-104612643D01*
X153278110Y-104615500D01*
X153745045Y-104615500D01*
X153747490Y-104615500D01*
X153783793Y-104612643D01*
X153931227Y-104569808D01*
X153981363Y-104565863D01*
X154028944Y-104582154D01*
X154038607Y-104587869D01*
X154192796Y-104632665D01*
X154228819Y-104635500D01*
X154727180Y-104635499D01*
X154763204Y-104632665D01*
X154917393Y-104587869D01*
X155052836Y-104507768D01*
X155115958Y-104490500D01*
X158055825Y-104490500D01*
X158066880Y-104491021D01*
X158074267Y-104492673D01*
X158141472Y-104490561D01*
X158145368Y-104490500D01*
X158169048Y-104490500D01*
X158172950Y-104490500D01*
X158176913Y-104489999D01*
X158188563Y-104489080D01*
X158232227Y-104487709D01*
X158251461Y-104482119D01*
X158270517Y-104478174D01*
X158290147Y-104475694D01*
X158290393Y-104475664D01*
X158290420Y-104475880D01*
X158349315Y-104476343D01*
X158404277Y-104508267D01*
X158537307Y-104641297D01*
X158544756Y-104649483D01*
X158548814Y-104655877D01*
X158554499Y-104661215D01*
X158554501Y-104661218D01*
X158597839Y-104701915D01*
X158600635Y-104704625D01*
X158620130Y-104724120D01*
X158623215Y-104726513D01*
X158623301Y-104726580D01*
X158632173Y-104734158D01*
X158645480Y-104746654D01*
X158664018Y-104764062D01*
X158670848Y-104767817D01*
X158670851Y-104767819D01*
X158681571Y-104773712D01*
X158697822Y-104784386D01*
X158713664Y-104796674D01*
X158720821Y-104799771D01*
X158720823Y-104799772D01*
X158753755Y-104814022D01*
X158764250Y-104819164D01*
X158802508Y-104840197D01*
X158821912Y-104845179D01*
X158840314Y-104851480D01*
X158851541Y-104856338D01*
X158858705Y-104859438D01*
X158896297Y-104865391D01*
X158901839Y-104866269D01*
X158913282Y-104868639D01*
X158948025Y-104877560D01*
X158948026Y-104877560D01*
X158955581Y-104879500D01*
X158975617Y-104879500D01*
X158995002Y-104881025D01*
X159014796Y-104884160D01*
X159052876Y-104880560D01*
X159058276Y-104880050D01*
X159069945Y-104879500D01*
X161199425Y-104879500D01*
X161210480Y-104880021D01*
X161217867Y-104881673D01*
X161285072Y-104879561D01*
X161288968Y-104879500D01*
X161312648Y-104879500D01*
X161316550Y-104879500D01*
X161320513Y-104878999D01*
X161332163Y-104878080D01*
X161375827Y-104876709D01*
X161395061Y-104871119D01*
X161414117Y-104867174D01*
X161433992Y-104864664D01*
X161474595Y-104848587D01*
X161485650Y-104844802D01*
X161527590Y-104832618D01*
X161544829Y-104822422D01*
X161562303Y-104813862D01*
X161573674Y-104809360D01*
X161573676Y-104809358D01*
X161580932Y-104806486D01*
X161616269Y-104780811D01*
X161626024Y-104774403D01*
X161663620Y-104752170D01*
X161677784Y-104738005D01*
X161692579Y-104725368D01*
X161708787Y-104713594D01*
X161736628Y-104679938D01*
X161744479Y-104671309D01*
X161949971Y-104465818D01*
X161990199Y-104438938D01*
X162037652Y-104429499D01*
X162118957Y-104429499D01*
X162121380Y-104429499D01*
X162157404Y-104426665D01*
X162311593Y-104381869D01*
X162449798Y-104300135D01*
X162479113Y-104270819D01*
X162519342Y-104243939D01*
X162566795Y-104234500D01*
X163850520Y-104234500D01*
X163916491Y-104253505D01*
X164010310Y-104312456D01*
X164169941Y-104368313D01*
X164338000Y-104387249D01*
X164506059Y-104368313D01*
X164665690Y-104312456D01*
X164759508Y-104253505D01*
X164825480Y-104234500D01*
X169450126Y-104234500D01*
X169461181Y-104235021D01*
X169468568Y-104236673D01*
X169535773Y-104234561D01*
X169539669Y-104234500D01*
X169563349Y-104234500D01*
X169567251Y-104234500D01*
X169571214Y-104233999D01*
X169582864Y-104233080D01*
X169626528Y-104231709D01*
X169645762Y-104226119D01*
X169664818Y-104222174D01*
X169684693Y-104219664D01*
X169725296Y-104203587D01*
X169736351Y-104199802D01*
X169778291Y-104187618D01*
X169795530Y-104177422D01*
X169813004Y-104168862D01*
X169824375Y-104164360D01*
X169824377Y-104164358D01*
X169831633Y-104161486D01*
X169866970Y-104135811D01*
X169876725Y-104129403D01*
X169914321Y-104107170D01*
X169928485Y-104093005D01*
X169943280Y-104080368D01*
X169959488Y-104068594D01*
X169987329Y-104034938D01*
X169995180Y-104026309D01*
X173386711Y-100634779D01*
X173394881Y-100627345D01*
X173401277Y-100623287D01*
X173447318Y-100574257D01*
X173449935Y-100571555D01*
X173469520Y-100551972D01*
X173471985Y-100548793D01*
X173479567Y-100539917D01*
X173509462Y-100508083D01*
X173519113Y-100490524D01*
X173529790Y-100474271D01*
X173542073Y-100458437D01*
X173559426Y-100418333D01*
X173564558Y-100407862D01*
X173581835Y-100376436D01*
X173581835Y-100376435D01*
X173585597Y-100369593D01*
X173590577Y-100350192D01*
X173596881Y-100331782D01*
X173604838Y-100313397D01*
X173611672Y-100270242D01*
X173614038Y-100258822D01*
X173622960Y-100224075D01*
X173624900Y-100216520D01*
X173624900Y-100196484D01*
X173626425Y-100177098D01*
X173629560Y-100157305D01*
X173625450Y-100113825D01*
X173624900Y-100102156D01*
X173624900Y-95861175D01*
X173625421Y-95850119D01*
X173627073Y-95842733D01*
X173624961Y-95775513D01*
X173624900Y-95771619D01*
X173624900Y-95747942D01*
X173624900Y-95744050D01*
X173624398Y-95740083D01*
X173623481Y-95728426D01*
X173623118Y-95716865D01*
X173622110Y-95684773D01*
X173616518Y-95665528D01*
X173612574Y-95646483D01*
X173610064Y-95626608D01*
X173593979Y-95585983D01*
X173590206Y-95574962D01*
X173578018Y-95533010D01*
X173567817Y-95515760D01*
X173559263Y-95498301D01*
X173551886Y-95479668D01*
X173526208Y-95444325D01*
X173519801Y-95434571D01*
X173501542Y-95403696D01*
X173501541Y-95403694D01*
X173497570Y-95396980D01*
X173483405Y-95382815D01*
X173470770Y-95368022D01*
X173458994Y-95351813D01*
X173452983Y-95346840D01*
X173452981Y-95346838D01*
X173425341Y-95323973D01*
X173416700Y-95316110D01*
X172785486Y-94684895D01*
X172778042Y-94676714D01*
X172773986Y-94670323D01*
X172724975Y-94624298D01*
X172722178Y-94621587D01*
X172705427Y-94604836D01*
X172702671Y-94602080D01*
X172699490Y-94599612D01*
X172690614Y-94592030D01*
X172664469Y-94567478D01*
X172664467Y-94567476D01*
X172658782Y-94562138D01*
X172651949Y-94558382D01*
X172651943Y-94558377D01*
X172641225Y-94552485D01*
X172624966Y-94541806D01*
X172615295Y-94534304D01*
X172615292Y-94534302D01*
X172609136Y-94529527D01*
X172601984Y-94526432D01*
X172601974Y-94526426D01*
X172590877Y-94521624D01*
X172553678Y-94496720D01*
X172527746Y-94460230D01*
X172499325Y-94399281D01*
X172499322Y-94399277D01*
X172497035Y-94394371D01*
X172361495Y-94200799D01*
X172194401Y-94033705D01*
X172189970Y-94030602D01*
X172189966Y-94030599D01*
X172005259Y-93901266D01*
X172005257Y-93901264D01*
X172000830Y-93898165D01*
X171995933Y-93895881D01*
X171995927Y-93895878D01*
X171791572Y-93800586D01*
X171791570Y-93800585D01*
X171786663Y-93798297D01*
X171781438Y-93796897D01*
X171781430Y-93796894D01*
X171563634Y-93738537D01*
X171563630Y-93738536D01*
X171558408Y-93737137D01*
X171553020Y-93736665D01*
X171553017Y-93736665D01*
X171328395Y-93717013D01*
X171323000Y-93716541D01*
X171317605Y-93717013D01*
X171092985Y-93736665D01*
X171092983Y-93736665D01*
X171087592Y-93737137D01*
X171082373Y-93738535D01*
X171082358Y-93738538D01*
X170987124Y-93764055D01*
X170922938Y-93764054D01*
X170867352Y-93731961D01*
X169610486Y-92475095D01*
X169603042Y-92466914D01*
X169598986Y-92460523D01*
X169549975Y-92414498D01*
X169547178Y-92411787D01*
X169530427Y-92395036D01*
X169530427Y-92395035D01*
X169527671Y-92392280D01*
X169524490Y-92389812D01*
X169515614Y-92382230D01*
X169489469Y-92357678D01*
X169489467Y-92357676D01*
X169483782Y-92352338D01*
X169476949Y-92348582D01*
X169476943Y-92348577D01*
X169466225Y-92342685D01*
X169449966Y-92332006D01*
X169440295Y-92324504D01*
X169440292Y-92324502D01*
X169434136Y-92319727D01*
X169426979Y-92316629D01*
X169426976Y-92316628D01*
X169394049Y-92302378D01*
X169383563Y-92297241D01*
X169352132Y-92279962D01*
X169352123Y-92279958D01*
X169345292Y-92276203D01*
X169337735Y-92274262D01*
X169337731Y-92274261D01*
X169325888Y-92271220D01*
X169307484Y-92264919D01*
X169296257Y-92260060D01*
X169296250Y-92260058D01*
X169289096Y-92256962D01*
X169281392Y-92255741D01*
X169281390Y-92255741D01*
X169245959Y-92250129D01*
X169234524Y-92247761D01*
X169199771Y-92238838D01*
X169199763Y-92238837D01*
X169192219Y-92236900D01*
X169184423Y-92236900D01*
X169172183Y-92236900D01*
X169152797Y-92235374D01*
X169133004Y-92232240D01*
X169125238Y-92232974D01*
X169125235Y-92232974D01*
X169089524Y-92236350D01*
X169077855Y-92236900D01*
X168737852Y-92236900D01*
X168690399Y-92227461D01*
X168650171Y-92200581D01*
X166094672Y-89645081D01*
X166064422Y-89595718D01*
X166059880Y-89538002D01*
X166082035Y-89484515D01*
X166126058Y-89446915D01*
X166182353Y-89433400D01*
X173811638Y-89433400D01*
X173859091Y-89442839D01*
G37*
%TD.AperFunction*%
M02*
