M48
; DRILL file {KiCad (7.0.0)} date Fri Jan 19 16:55:19 2024
; FORMAT={-:-/ absolute / inch / decimal}
; #@! TF.CreationDate,2024-01-19T16:55:19+05:30
; #@! TF.GenerationSoftware,Kicad,Pcbnew,(7.0.0)
; #@! TF.FileFunction,Plated,1,4,PTH
FMAT,2
INCH
; #@! TA.AperFunction,Plated,PTH,ViaDrill
T1C0.0118
; #@! TA.AperFunction,Plated,PTH,ComponentDrill
T2C0.0236
; #@! TA.AperFunction,Plated,PTH,ComponentDrill
T3C0.0335
; #@! TA.AperFunction,Plated,PTH,ComponentDrill
T4C0.0394
%
G90
G05
T1
X5.748Y-4.065
X5.785Y-4.063
X5.802Y-3.595
X5.816Y-4.011
X5.857Y-4.017
X5.894Y-3.722
X5.975Y-4.087
X5.983Y-3.625
X6.061Y-3.958
X6.096Y-3.72
X6.096Y-3.768
X6.119Y-3.75
X6.234Y-3.803
X6.351Y-3.604
X6.417Y-4.049
X6.47Y-4.08
X6.474Y-3.798
X6.51Y-3.691
T3
X5.7856Y-3.7536
X5.7856Y-3.9504
T4
X6.645Y-3.743
X6.645Y-3.843
X6.645Y-3.943
X6.745Y-3.743
X6.745Y-3.843
X6.745Y-3.943
T2
G00X5.6655Y-3.7142
M15
G01X5.6931Y-3.7142
M16
G05
G00X5.6931Y-3.9898
M15
G01X5.6655Y-3.9898
M16
G05
T0
M30
