%TF.GenerationSoftware,KiCad,Pcbnew,(7.0.0)*%
%TF.CreationDate,2024-01-19T16:55:17+05:30*%
%TF.ProjectId,Programmer,50726f67-7261-46d6-9d65-722e6b696361,rev?*%
%TF.SameCoordinates,Original*%
%TF.FileFunction,Soldermask,Top*%
%TF.FilePolarity,Negative*%
%FSLAX46Y46*%
G04 Gerber Fmt 4.6, Leading zero omitted, Abs format (unit mm)*
G04 Created by KiCad (PCBNEW (7.0.0)) date 2024-01-19 16:55:17*
%MOMM*%
%LPD*%
G01*
G04 APERTURE LIST*
G04 Aperture macros list*
%AMRoundRect*
0 Rectangle with rounded corners*
0 $1 Rounding radius*
0 $2 $3 $4 $5 $6 $7 $8 $9 X,Y pos of 4 corners*
0 Add a 4 corners polygon primitive as box body*
4,1,4,$2,$3,$4,$5,$6,$7,$8,$9,$2,$3,0*
0 Add four circle primitives for the rounded corners*
1,1,$1+$1,$2,$3*
1,1,$1+$1,$4,$5*
1,1,$1+$1,$6,$7*
1,1,$1+$1,$8,$9*
0 Add four rect primitives between the rounded corners*
20,1,$1+$1,$2,$3,$4,$5,0*
20,1,$1+$1,$4,$5,$6,$7,0*
20,1,$1+$1,$6,$7,$8,$9,0*
20,1,$1+$1,$8,$9,$2,$3,0*%
G04 Aperture macros list end*
%ADD10RoundRect,0.250000X-0.600000X-0.600000X0.600000X-0.600000X0.600000X0.600000X-0.600000X0.600000X0*%
%ADD11C,1.700000*%
%ADD12RoundRect,0.140000X-0.170000X0.140000X-0.170000X-0.140000X0.170000X-0.140000X0.170000X0.140000X0*%
%ADD13RoundRect,0.140000X0.140000X0.170000X-0.140000X0.170000X-0.140000X-0.170000X0.140000X-0.170000X0*%
%ADD14RoundRect,0.150000X-0.150000X0.587500X-0.150000X-0.587500X0.150000X-0.587500X0.150000X0.587500X0*%
%ADD15RoundRect,0.135000X0.135000X0.185000X-0.135000X0.185000X-0.135000X-0.185000X0.135000X-0.185000X0*%
%ADD16RoundRect,0.135000X-0.135000X-0.185000X0.135000X-0.185000X0.135000X0.185000X-0.135000X0.185000X0*%
%ADD17RoundRect,0.218750X-0.256250X0.218750X-0.256250X-0.218750X0.256250X-0.218750X0.256250X0.218750X0*%
%ADD18RoundRect,0.135000X-0.185000X0.135000X-0.185000X-0.135000X0.185000X-0.135000X0.185000X0.135000X0*%
%ADD19RoundRect,0.062500X-0.337500X-0.062500X0.337500X-0.062500X0.337500X0.062500X-0.337500X0.062500X0*%
%ADD20RoundRect,0.062500X-0.062500X-0.337500X0.062500X-0.337500X0.062500X0.337500X-0.062500X0.337500X0*%
%ADD21R,3.350000X3.350000*%
%ADD22RoundRect,0.135000X0.185000X-0.135000X0.185000X0.135000X-0.185000X0.135000X-0.185000X-0.135000X0*%
%ADD23RoundRect,0.218750X0.218750X0.256250X-0.218750X0.256250X-0.218750X-0.256250X0.218750X-0.256250X0*%
%ADD24R,0.700000X1.000000*%
%ADD25R,0.700000X0.600000*%
%ADD26RoundRect,0.218750X0.256250X-0.218750X0.256250X0.218750X-0.256250X0.218750X-0.256250X-0.218750X0*%
%ADD27R,1.350000X0.400000*%
%ADD28O,1.900000X1.200000*%
%ADD29R,1.900000X1.200000*%
%ADD30C,1.450000*%
%ADD31R,1.900000X1.500000*%
G04 APERTURE END LIST*
D10*
%TO.C,J2*%
X168783000Y-95072200D03*
D11*
X171323000Y-95072200D03*
X168783000Y-97612200D03*
X171323000Y-97612200D03*
X168783000Y-100152200D03*
X171323000Y-100152200D03*
%TD*%
D12*
%TO.C,C5*%
X153512800Y-102875000D03*
X153512800Y-103835000D03*
%TD*%
D13*
%TO.C,C2*%
X151351200Y-100561000D03*
X150391200Y-100561000D03*
%TD*%
%TO.C,C3*%
X151351200Y-101500800D03*
X150391200Y-101500800D03*
%TD*%
D14*
%TO.C,Q1*%
X158095000Y-93273500D03*
X156195000Y-93273500D03*
X157145000Y-95148500D03*
%TD*%
D15*
%TO.C,R1*%
X157228000Y-90474800D03*
X156208000Y-90474800D03*
%TD*%
D16*
%TO.C,R7*%
X156533400Y-91772600D03*
X157553400Y-91772600D03*
%TD*%
D17*
%TO.C,D3*%
X160904200Y-100814900D03*
X160904200Y-102389900D03*
%TD*%
D13*
%TO.C,C6*%
X151348600Y-102440600D03*
X150388600Y-102440600D03*
%TD*%
D18*
%TO.C,R8*%
X151511000Y-93444600D03*
X151511000Y-94464600D03*
%TD*%
D19*
%TO.C,U2*%
X152767000Y-97816400D03*
X152767000Y-98316400D03*
X152767000Y-98816400D03*
X152767000Y-99316400D03*
X152767000Y-99816400D03*
X152767000Y-100316400D03*
X152767000Y-100816400D03*
D20*
X153717000Y-101766400D03*
X154217000Y-101766400D03*
X154717000Y-101766400D03*
X155217000Y-101766400D03*
X155717000Y-101766400D03*
X156217000Y-101766400D03*
X156717000Y-101766400D03*
D19*
X157667000Y-100816400D03*
X157667000Y-100316400D03*
X157667000Y-99816400D03*
X157667000Y-99316400D03*
X157667000Y-98816400D03*
X157667000Y-98316400D03*
X157667000Y-97816400D03*
D20*
X156717000Y-96866400D03*
X156217000Y-96866400D03*
X155717000Y-96866400D03*
X155217000Y-96866400D03*
X154717000Y-96866400D03*
X154217000Y-96866400D03*
X153717000Y-96866400D03*
D21*
X155216999Y-99316399D03*
%TD*%
D22*
%TO.C,R6*%
X154478000Y-103865000D03*
X154478000Y-102845000D03*
%TD*%
D23*
%TO.C,D1*%
X159943900Y-90525600D03*
X158368900Y-90525600D03*
%TD*%
D15*
%TO.C,R3*%
X159409600Y-103609000D03*
X158389600Y-103609000D03*
%TD*%
D24*
%TO.C,D2*%
X150818599Y-98311399D03*
D25*
X150818599Y-96611399D03*
X148818599Y-96611399D03*
X148818599Y-98511399D03*
%TD*%
D18*
%TO.C,R12*%
X146253200Y-91309000D03*
X146253200Y-92329000D03*
%TD*%
D17*
%TO.C,D4*%
X159405600Y-100814900D03*
X159405600Y-102389900D03*
%TD*%
D26*
%TO.C,D5*%
X144195800Y-92125800D03*
X144195800Y-90550800D03*
%TD*%
D14*
%TO.C,Q2*%
X154676200Y-93271200D03*
X152776200Y-93271200D03*
X153726200Y-95146200D03*
%TD*%
D27*
%TO.C,J3*%
X146953699Y-96540799D03*
X146953699Y-97190799D03*
X146953699Y-97840799D03*
X146953699Y-98490799D03*
X146953699Y-99140799D03*
D28*
X144253699Y-94340799D03*
D29*
X144253699Y-94940799D03*
D30*
X146953700Y-95340800D03*
D31*
X144253699Y-96840799D03*
X144253699Y-98840799D03*
D30*
X146953700Y-100340800D03*
D29*
X144253699Y-100740799D03*
D28*
X144253699Y-101340799D03*
%TD*%
D16*
%TO.C,R2*%
X160902200Y-103609000D03*
X161922200Y-103609000D03*
%TD*%
M02*
