%TF.GenerationSoftware,KiCad,Pcbnew,(7.0.0)*%
%TF.CreationDate,2024-01-19T16:55:20+05:30*%
%TF.ProjectId,Programmer,50726f67-7261-46d6-9d65-722e6b696361,rev?*%
%TF.SameCoordinates,Original*%
%TF.FileFunction,Drillmap*%
%TF.FilePolarity,Positive*%
%FSLAX45Y45*%
G04 Gerber Fmt 4.5, Leading zero omitted, Abs format (unit mm)*
G04 Created by KiCad (PCBNEW (7.0.0)) date 2024-01-19 16:55:20*
%MOMM*%
%LPD*%
G01*
G04 APERTURE LIST*
%ADD10C,0.100000*%
%ADD11C,0.200000*%
G04 APERTURE END LIST*
D10*
X17364897Y-10591807D02*
G75*
G03*
X17517297Y-10439400I-7J152407D01*
G01*
X14278430Y-10439400D02*
G75*
G03*
X14430823Y-10591800I152390J-10D01*
G01*
X14278423Y-10439400D02*
X14278423Y-9093200D01*
X14577060Y-8940800D02*
X14430823Y-8940800D01*
X17517297Y-9093200D02*
X17517297Y-10439400D01*
X14430823Y-8940793D02*
G75*
G03*
X14278423Y-9093200I7J-152407D01*
G01*
X14430823Y-10591800D02*
X17364897Y-10591800D01*
X17517290Y-9093200D02*
G75*
G03*
X17364897Y-8940800I-152390J10D01*
G01*
X17364897Y-8940800D02*
X14577060Y-8940800D01*
D11*
X14521042Y-10890276D02*
X14521042Y-10690276D01*
X14521042Y-10690276D02*
X14568661Y-10690276D01*
X14568661Y-10690276D02*
X14597233Y-10699800D01*
X14597233Y-10699800D02*
X14616280Y-10718848D01*
X14616280Y-10718848D02*
X14625804Y-10737895D01*
X14625804Y-10737895D02*
X14635328Y-10775990D01*
X14635328Y-10775990D02*
X14635328Y-10804562D01*
X14635328Y-10804562D02*
X14625804Y-10842657D01*
X14625804Y-10842657D02*
X14616280Y-10861705D01*
X14616280Y-10861705D02*
X14597233Y-10880752D01*
X14597233Y-10880752D02*
X14568661Y-10890276D01*
X14568661Y-10890276D02*
X14521042Y-10890276D01*
X14721042Y-10890276D02*
X14721042Y-10756943D01*
X14721042Y-10795038D02*
X14730566Y-10775990D01*
X14730566Y-10775990D02*
X14740090Y-10766467D01*
X14740090Y-10766467D02*
X14759137Y-10756943D01*
X14759137Y-10756943D02*
X14778185Y-10756943D01*
X14844852Y-10890276D02*
X14844852Y-10756943D01*
X14844852Y-10690276D02*
X14835328Y-10699800D01*
X14835328Y-10699800D02*
X14844852Y-10709324D01*
X14844852Y-10709324D02*
X14854375Y-10699800D01*
X14854375Y-10699800D02*
X14844852Y-10690276D01*
X14844852Y-10690276D02*
X14844852Y-10709324D01*
X14968661Y-10890276D02*
X14949613Y-10880752D01*
X14949613Y-10880752D02*
X14940090Y-10861705D01*
X14940090Y-10861705D02*
X14940090Y-10690276D01*
X15073423Y-10890276D02*
X15054375Y-10880752D01*
X15054375Y-10880752D02*
X15044852Y-10861705D01*
X15044852Y-10861705D02*
X15044852Y-10690276D01*
X15269613Y-10890276D02*
X15269613Y-10690276D01*
X15269613Y-10690276D02*
X15336280Y-10833133D01*
X15336280Y-10833133D02*
X15402947Y-10690276D01*
X15402947Y-10690276D02*
X15402947Y-10890276D01*
X15583899Y-10890276D02*
X15583899Y-10785514D01*
X15583899Y-10785514D02*
X15574375Y-10766467D01*
X15574375Y-10766467D02*
X15555328Y-10756943D01*
X15555328Y-10756943D02*
X15517232Y-10756943D01*
X15517232Y-10756943D02*
X15498185Y-10766467D01*
X15583899Y-10880752D02*
X15564852Y-10890276D01*
X15564852Y-10890276D02*
X15517232Y-10890276D01*
X15517232Y-10890276D02*
X15498185Y-10880752D01*
X15498185Y-10880752D02*
X15488661Y-10861705D01*
X15488661Y-10861705D02*
X15488661Y-10842657D01*
X15488661Y-10842657D02*
X15498185Y-10823610D01*
X15498185Y-10823610D02*
X15517232Y-10814086D01*
X15517232Y-10814086D02*
X15564852Y-10814086D01*
X15564852Y-10814086D02*
X15583899Y-10804562D01*
X15679137Y-10756943D02*
X15679137Y-10956943D01*
X15679137Y-10766467D02*
X15698185Y-10756943D01*
X15698185Y-10756943D02*
X15736280Y-10756943D01*
X15736280Y-10756943D02*
X15755328Y-10766467D01*
X15755328Y-10766467D02*
X15764852Y-10775990D01*
X15764852Y-10775990D02*
X15774375Y-10795038D01*
X15774375Y-10795038D02*
X15774375Y-10852181D01*
X15774375Y-10852181D02*
X15764852Y-10871229D01*
X15764852Y-10871229D02*
X15755328Y-10880752D01*
X15755328Y-10880752D02*
X15736280Y-10890276D01*
X15736280Y-10890276D02*
X15698185Y-10890276D01*
X15698185Y-10890276D02*
X15679137Y-10880752D01*
X15860090Y-10871229D02*
X15869613Y-10880752D01*
X15869613Y-10880752D02*
X15860090Y-10890276D01*
X15860090Y-10890276D02*
X15850566Y-10880752D01*
X15850566Y-10880752D02*
X15860090Y-10871229D01*
X15860090Y-10871229D02*
X15860090Y-10890276D01*
X15860090Y-10766467D02*
X15869613Y-10775990D01*
X15869613Y-10775990D02*
X15860090Y-10785514D01*
X15860090Y-10785514D02*
X15850566Y-10775990D01*
X15850566Y-10775990D02*
X15860090Y-10766467D01*
X15860090Y-10766467D02*
X15860090Y-10785514D01*
M02*
