<?xml version="1.0" standalone="no"?>
 <!DOCTYPE svg PUBLIC "-//W3C//DTD SVG 1.1//EN" 
 "http://www.w3.org/Graphics/SVG/1.1/DTD/svg11.dtd"> 
<svg
  xmlns:svg="http://www.w3.org/2000/svg"
  xmlns="http://www.w3.org/2000/svg"
  xmlns:xlink="http://www.w3.org/1999/xlink"
  version="1.1"
  width="29.700220cm" height="21.000720cm" viewBox="0 0 297002200 210007200">
<title>SVG Picture created as SPVMD_V2.0-User_Drawings.svg date 2022/02/19 10:50:18 </title>
  <desc>Picture generated by PCBNEW </desc>
<g style="fill:#000000; fill-opacity:1.000000;stroke:#000000; stroke-opacity:1.000000;
stroke-linecap:round; stroke-linejoin:round;"
 transform="translate(0 0) scale(1 1)">
</g>
<g style="fill:#000000; fill-opacity:0.0; 
stroke:#000000; stroke-width:0.000000; stroke-opacity:1; 
stroke-linecap:round; stroke-linejoin:round;">
</g>
<g style="fill:#000000; fill-opacity:0.0; 
stroke:#000000; stroke-width:21200.000000; stroke-opacity:1; 
stroke-linecap:round; stroke-linejoin:round;">
</g>
<g style="fill:#000000; fill-opacity:0.0; 
stroke:#000000; stroke-width:150000.000000; stroke-opacity:1; 
stroke-linecap:round; stroke-linejoin:round;">
<rect x="177002200.000000" y="166007200.000000" width="108000000.000000" height="32000000.000000" rx="0.000000" />
</g>
<g style="fill:#000000; fill-opacity:0.0; 
stroke:#000000; stroke-width:21200.000000; stroke-opacity:1; 
stroke-linecap:round; stroke-linejoin:round;">
</g>
<g style="fill:#000000; fill-opacity:0.0; 
stroke:#000000; stroke-width:150000.000000; stroke-opacity:1; 
stroke-linecap:round; stroke-linejoin:round;">
<rect x="10000000.000000" y="10000000.000000" width="277002200.000000" height="190007200.000000" rx="0.000000" />
</g>
<g style="fill:#000000; fill-opacity:0.0; 
stroke:#000000; stroke-width:21200.000000; stroke-opacity:1; 
stroke-linecap:round; stroke-linejoin:round;">
</g>
<g style="fill:#000000; fill-opacity:0.0; 
stroke:#000000; stroke-width:150000.000000; stroke-opacity:1; 
stroke-linecap:round; stroke-linejoin:round;">
<rect x="12000000.000000" y="12000000.000000" width="273002200.000000" height="186007200.000000" rx="0.000000" />
</g>
<g style="fill:#000000; fill-opacity:0.0; 
stroke:#000000; stroke-width:21200.000000; stroke-opacity:1; 
stroke-linecap:round; stroke-linejoin:round;">
</g>
<g style="fill:#000000; fill-opacity:0.0; 
stroke:#000000; stroke-width:150000.000000; stroke-opacity:1; 
stroke-linecap:round; stroke-linejoin:round;">
<path d="M60000000 12000000
L60000000 10000000
" />
</g>
<g style="fill:#000000; fill-opacity:0.0; 
stroke:#000000; stroke-width:21200.000000; stroke-opacity:1; 
stroke-linecap:round; stroke-linejoin:round;">
</g>
<g style="fill:#000000; fill-opacity:0.0; 
stroke:#000000; stroke-width:150000.000000; stroke-opacity:1; 
stroke-linecap:round; stroke-linejoin:round;">
<path d="M110000000 12000000
L110000000 10000000
" />
</g>
<g style="fill:#000000; fill-opacity:0.0; 
stroke:#000000; stroke-width:21200.000000; stroke-opacity:1; 
stroke-linecap:round; stroke-linejoin:round;">
</g>
<g style="fill:#000000; fill-opacity:0.0; 
stroke:#000000; stroke-width:150000.000000; stroke-opacity:1; 
stroke-linecap:round; stroke-linejoin:round;">
<path d="M160000000 12000000
L160000000 10000000
" />
</g>
<g style="fill:#000000; fill-opacity:0.0; 
stroke:#000000; stroke-width:21200.000000; stroke-opacity:1; 
stroke-linecap:round; stroke-linejoin:round;">
</g>
<g style="fill:#000000; fill-opacity:0.0; 
stroke:#000000; stroke-width:150000.000000; stroke-opacity:1; 
stroke-linecap:round; stroke-linejoin:round;">
<path d="M210000000 12000000
L210000000 10000000
" />
</g>
<g style="fill:#000000; fill-opacity:0.0; 
stroke:#000000; stroke-width:21200.000000; stroke-opacity:1; 
stroke-linecap:round; stroke-linejoin:round;">
</g>
<g style="fill:#000000; fill-opacity:0.0; 
stroke:#000000; stroke-width:150000.000000; stroke-opacity:1; 
stroke-linecap:round; stroke-linejoin:round;">
<path d="M260000000 12000000
L260000000 10000000
" />
</g>
<g style="fill:#000000; fill-opacity:0.0; 
stroke:#000000; stroke-width:21200.000000; stroke-opacity:1; 
stroke-linecap:round; stroke-linejoin:round;">
</g>
<g style="fill:#000000; fill-opacity:0.0; 
stroke:#000000; stroke-width:150000.000000; stroke-opacity:1; 
stroke-linecap:round; stroke-linejoin:round;">
<text x="35000000.000000" y="11650000.000000"
textLength="1433095.000000" font-size="1733333.000000" lengthAdjust="spacingAndGlyphs"
text-anchor="start" opacity="0">1</text>
<g class="stroked-text"><desc>1</desc>
<path d="M36065476 11588095
L35322619 11588095
" />
<path d="M35694047 11588095
L35694047 10288095
L35570238 10473809
L35446428 10597619
L35322619 10659523
" />
</g></g>
<g style="fill:#000000; fill-opacity:0.0; 
stroke:#000000; stroke-width:21200.000000; stroke-opacity:1; 
stroke-linecap:round; stroke-linejoin:round;">
</g>
<g style="fill:#000000; fill-opacity:0.0; 
stroke:#000000; stroke-width:150000.000000; stroke-opacity:1; 
stroke-linecap:round; stroke-linejoin:round;">
<text x="85000000.000000" y="11650000.000000"
textLength="1388095.000000" font-size="1733333.000000" lengthAdjust="spacingAndGlyphs"
text-anchor="start" opacity="0">2</text>
<g class="stroked-text"><desc>2</desc>
<path d="M85322619 10411904
L85384523 10350000
L85508333 10288095
L85817857 10288095
L85941666 10350000
L86003571 10411904
L86065476 10535714
L86065476 10659523
L86003571 10845238
L85260714 11588095
L86065476 11588095
" />
</g></g>
<g style="fill:#000000; fill-opacity:0.0; 
stroke:#000000; stroke-width:21200.000000; stroke-opacity:1; 
stroke-linecap:round; stroke-linejoin:round;">
</g>
<g style="fill:#000000; fill-opacity:0.0; 
stroke:#000000; stroke-width:150000.000000; stroke-opacity:1; 
stroke-linecap:round; stroke-linejoin:round;">
<text x="135000000.000000" y="11650000.000000"
textLength="1388095.000000" font-size="1733333.000000" lengthAdjust="spacingAndGlyphs"
text-anchor="start" opacity="0">3</text>
<g class="stroked-text"><desc>3</desc>
<path d="M135260714 10288095
L136065476 10288095
L135632142 10783333
L135817857 10783333
L135941666 10845238
L136003571 10907142
L136065476 11030952
L136065476 11340476
L136003571 11464285
L135941666 11526190
L135817857 11588095
L135446428 11588095
L135322619 11526190
L135260714 11464285
" />
</g></g>
<g style="fill:#000000; fill-opacity:0.0; 
stroke:#000000; stroke-width:21200.000000; stroke-opacity:1; 
stroke-linecap:round; stroke-linejoin:round;">
</g>
<g style="fill:#000000; fill-opacity:0.0; 
stroke:#000000; stroke-width:150000.000000; stroke-opacity:1; 
stroke-linecap:round; stroke-linejoin:round;">
<text x="185000000.000000" y="11650000.000000"
textLength="1388095.000000" font-size="1733333.000000" lengthAdjust="spacingAndGlyphs"
text-anchor="start" opacity="0">4</text>
<g class="stroked-text"><desc>4</desc>
<path d="M185941666 10721428
L185941666 11588095
" />
<path d="M185632142 10226190
L185322619 11154761
L186127380 11154761
" />
</g></g>
<g style="fill:#000000; fill-opacity:0.0; 
stroke:#000000; stroke-width:21200.000000; stroke-opacity:1; 
stroke-linecap:round; stroke-linejoin:round;">
</g>
<g style="fill:#000000; fill-opacity:0.0; 
stroke:#000000; stroke-width:150000.000000; stroke-opacity:1; 
stroke-linecap:round; stroke-linejoin:round;">
<text x="235000000.000000" y="11650000.000000"
textLength="1388095.000000" font-size="1733333.000000" lengthAdjust="spacingAndGlyphs"
text-anchor="start" opacity="0">5</text>
<g class="stroked-text"><desc>5</desc>
<path d="M236003571 10288095
L235384523 10288095
L235322619 10907142
L235384523 10845238
L235508333 10783333
L235817857 10783333
L235941666 10845238
L236003571 10907142
L236065476 11030952
L236065476 11340476
L236003571 11464285
L235941666 11526190
L235817857 11588095
L235508333 11588095
L235384523 11526190
L235322619 11464285
" />
</g></g>
<g style="fill:#000000; fill-opacity:0.0; 
stroke:#000000; stroke-width:21200.000000; stroke-opacity:1; 
stroke-linecap:round; stroke-linejoin:round;">
</g>
<g style="fill:#000000; fill-opacity:0.0; 
stroke:#000000; stroke-width:150000.000000; stroke-opacity:1; 
stroke-linecap:round; stroke-linejoin:round;">
<text x="285000000.000000" y="11650000.000000"
textLength="1388095.000000" font-size="1733333.000000" lengthAdjust="spacingAndGlyphs"
text-anchor="start" opacity="0">6</text>
<g class="stroked-text"><desc>6</desc>
<path d="M285941666 10288095
L285694047 10288095
L285570238 10350000
L285508333 10411904
L285384523 10597619
L285322619 10845238
L285322619 11340476
L285384523 11464285
L285446428 11526190
L285570238 11588095
L285817857 11588095
L285941666 11526190
L286003571 11464285
L286065476 11340476
L286065476 11030952
L286003571 10907142
L285941666 10845238
L285817857 10783333
L285570238 10783333
L285446428 10845238
L285384523 10907142
L285322619 11030952
" />
</g></g>
<g style="fill:#000000; fill-opacity:0.0; 
stroke:#000000; stroke-width:21200.000000; stroke-opacity:1; 
stroke-linecap:round; stroke-linejoin:round;">
</g>
<g style="fill:#000000; fill-opacity:0.0; 
stroke:#000000; stroke-width:150000.000000; stroke-opacity:1; 
stroke-linecap:round; stroke-linejoin:round;">
<path d="M60000000 198007200
L60000000 200007200
" />
</g>
<g style="fill:#000000; fill-opacity:0.0; 
stroke:#000000; stroke-width:21200.000000; stroke-opacity:1; 
stroke-linecap:round; stroke-linejoin:round;">
</g>
<g style="fill:#000000; fill-opacity:0.0; 
stroke:#000000; stroke-width:150000.000000; stroke-opacity:1; 
stroke-linecap:round; stroke-linejoin:round;">
<path d="M110000000 198007200
L110000000 200007200
" />
</g>
<g style="fill:#000000; fill-opacity:0.0; 
stroke:#000000; stroke-width:21200.000000; stroke-opacity:1; 
stroke-linecap:round; stroke-linejoin:round;">
</g>
<g style="fill:#000000; fill-opacity:0.0; 
stroke:#000000; stroke-width:150000.000000; stroke-opacity:1; 
stroke-linecap:round; stroke-linejoin:round;">
<path d="M160000000 198007200
L160000000 200007200
" />
</g>
<g style="fill:#000000; fill-opacity:0.0; 
stroke:#000000; stroke-width:21200.000000; stroke-opacity:1; 
stroke-linecap:round; stroke-linejoin:round;">
</g>
<g style="fill:#000000; fill-opacity:0.0; 
stroke:#000000; stroke-width:150000.000000; stroke-opacity:1; 
stroke-linecap:round; stroke-linejoin:round;">
<path d="M210000000 198007200
L210000000 200007200
" />
</g>
<g style="fill:#000000; fill-opacity:0.0; 
stroke:#000000; stroke-width:21200.000000; stroke-opacity:1; 
stroke-linecap:round; stroke-linejoin:round;">
</g>
<g style="fill:#000000; fill-opacity:0.0; 
stroke:#000000; stroke-width:150000.000000; stroke-opacity:1; 
stroke-linecap:round; stroke-linejoin:round;">
<path d="M260000000 198007200
L260000000 200007200
" />
</g>
<g style="fill:#000000; fill-opacity:0.0; 
stroke:#000000; stroke-width:21200.000000; stroke-opacity:1; 
stroke-linecap:round; stroke-linejoin:round;">
</g>
<g style="fill:#000000; fill-opacity:0.0; 
stroke:#000000; stroke-width:150000.000000; stroke-opacity:1; 
stroke-linecap:round; stroke-linejoin:round;">
<text x="35000000.000000" y="199657200.000000"
textLength="1388095.000000" font-size="1733333.000000" lengthAdjust="spacingAndGlyphs"
text-anchor="start" opacity="0">1</text>
<g class="stroked-text"><desc>1</desc>
<path d="M36065476 199595295
L35322619 199595295
" />
<path d="M35694047 199595295
L35694047 198295295
L35570238 198481009
L35446428 198604819
L35322619 198666723
" />
</g></g>
<g style="fill:#000000; fill-opacity:0.0; 
stroke:#000000; stroke-width:21200.000000; stroke-opacity:1; 
stroke-linecap:round; stroke-linejoin:round;">
</g>
<g style="fill:#000000; fill-opacity:0.0; 
stroke:#000000; stroke-width:150000.000000; stroke-opacity:1; 
stroke-linecap:round; stroke-linejoin:round;">
<text x="85000000.000000" y="199657200.000000"
textLength="1388095.000000" font-size="1733333.000000" lengthAdjust="spacingAndGlyphs"
text-anchor="start" opacity="0">2</text>
<g class="stroked-text"><desc>2</desc>
<path d="M85322619 198419104
L85384523 198357200
L85508333 198295295
L85817857 198295295
L85941666 198357200
L86003571 198419104
L86065476 198542914
L86065476 198666723
L86003571 198852438
L85260714 199595295
L86065476 199595295
" />
</g></g>
<g style="fill:#000000; fill-opacity:0.0; 
stroke:#000000; stroke-width:21200.000000; stroke-opacity:1; 
stroke-linecap:round; stroke-linejoin:round;">
</g>
<g style="fill:#000000; fill-opacity:0.0; 
stroke:#000000; stroke-width:150000.000000; stroke-opacity:1; 
stroke-linecap:round; stroke-linejoin:round;">
<text x="135000000.000000" y="199657200.000000"
textLength="1388095.000000" font-size="1733333.000000" lengthAdjust="spacingAndGlyphs"
text-anchor="start" opacity="0">3</text>
<g class="stroked-text"><desc>3</desc>
<path d="M135260714 198295295
L136065476 198295295
L135632142 198790533
L135817857 198790533
L135941666 198852438
L136003571 198914342
L136065476 199038152
L136065476 199347676
L136003571 199471485
L135941666 199533390
L135817857 199595295
L135446428 199595295
L135322619 199533390
L135260714 199471485
" />
</g></g>
<g style="fill:#000000; fill-opacity:0.0; 
stroke:#000000; stroke-width:21200.000000; stroke-opacity:1; 
stroke-linecap:round; stroke-linejoin:round;">
</g>
<g style="fill:#000000; fill-opacity:0.0; 
stroke:#000000; stroke-width:150000.000000; stroke-opacity:1; 
stroke-linecap:round; stroke-linejoin:round;">
<text x="185000000.000000" y="199657200.000000"
textLength="1388095.000000" font-size="1733333.000000" lengthAdjust="spacingAndGlyphs"
text-anchor="start" opacity="0">4</text>
<g class="stroked-text"><desc>4</desc>
<path d="M185941666 198728628
L185941666 199595295
" />
<path d="M185632142 198233390
L185322619 199161961
L186127380 199161961
" />
</g></g>
<g style="fill:#000000; fill-opacity:0.0; 
stroke:#000000; stroke-width:21200.000000; stroke-opacity:1; 
stroke-linecap:round; stroke-linejoin:round;">
</g>
<g style="fill:#000000; fill-opacity:0.0; 
stroke:#000000; stroke-width:150000.000000; stroke-opacity:1; 
stroke-linecap:round; stroke-linejoin:round;">
<text x="235000000.000000" y="199657200.000000"
textLength="1388095.000000" font-size="1733333.000000" lengthAdjust="spacingAndGlyphs"
text-anchor="start" opacity="0">5</text>
<g class="stroked-text"><desc>5</desc>
<path d="M236003571 198295295
L235384523 198295295
L235322619 198914342
L235384523 198852438
L235508333 198790533
L235817857 198790533
L235941666 198852438
L236003571 198914342
L236065476 199038152
L236065476 199347676
L236003571 199471485
L235941666 199533390
L235817857 199595295
L235508333 199595295
L235384523 199533390
L235322619 199471485
" />
</g></g>
<g style="fill:#000000; fill-opacity:0.0; 
stroke:#000000; stroke-width:21200.000000; stroke-opacity:1; 
stroke-linecap:round; stroke-linejoin:round;">
</g>
<g style="fill:#000000; fill-opacity:0.0; 
stroke:#000000; stroke-width:150000.000000; stroke-opacity:1; 
stroke-linecap:round; stroke-linejoin:round;">
<text x="285000000.000000" y="199657200.000000"
textLength="1388095.000000" font-size="1733333.000000" lengthAdjust="spacingAndGlyphs"
text-anchor="start" opacity="0">6</text>
<g class="stroked-text"><desc>6</desc>
<path d="M285941666 198295295
L285694047 198295295
L285570238 198357200
L285508333 198419104
L285384523 198604819
L285322619 198852438
L285322619 199347676
L285384523 199471485
L285446428 199533390
L285570238 199595295
L285817857 199595295
L285941666 199533390
L286003571 199471485
L286065476 199347676
L286065476 199038152
L286003571 198914342
L285941666 198852438
L285817857 198790533
L285570238 198790533
L285446428 198852438
L285384523 198914342
L285322619 199038152
" />
</g></g>
<g style="fill:#000000; fill-opacity:0.0; 
stroke:#000000; stroke-width:21200.000000; stroke-opacity:1; 
stroke-linecap:round; stroke-linejoin:round;">
</g>
<g style="fill:#000000; fill-opacity:0.0; 
stroke:#000000; stroke-width:150000.000000; stroke-opacity:1; 
stroke-linecap:round; stroke-linejoin:round;">
<path d="M10000000 60000000
L12000000 60000000
" />
</g>
<g style="fill:#000000; fill-opacity:0.0; 
stroke:#000000; stroke-width:21200.000000; stroke-opacity:1; 
stroke-linecap:round; stroke-linejoin:round;">
</g>
<g style="fill:#000000; fill-opacity:0.0; 
stroke:#000000; stroke-width:150000.000000; stroke-opacity:1; 
stroke-linecap:round; stroke-linejoin:round;">
<path d="M10000000 110000000
L12000000 110000000
" />
</g>
<g style="fill:#000000; fill-opacity:0.0; 
stroke:#000000; stroke-width:21200.000000; stroke-opacity:1; 
stroke-linecap:round; stroke-linejoin:round;">
</g>
<g style="fill:#000000; fill-opacity:0.0; 
stroke:#000000; stroke-width:150000.000000; stroke-opacity:1; 
stroke-linecap:round; stroke-linejoin:round;">
<path d="M10000000 160000000
L12000000 160000000
" />
</g>
<g style="fill:#000000; fill-opacity:0.0; 
stroke:#000000; stroke-width:21200.000000; stroke-opacity:1; 
stroke-linecap:round; stroke-linejoin:round;">
</g>
<g style="fill:#000000; fill-opacity:0.0; 
stroke:#000000; stroke-width:150000.000000; stroke-opacity:1; 
stroke-linecap:round; stroke-linejoin:round;">
<text x="11000000.000000" y="35650000.000000"
textLength="1264286.000000" font-size="1733333.000000" lengthAdjust="spacingAndGlyphs"
text-anchor="middle" opacity="0">A</text>
<g class="stroked-text"><desc>A</desc>
<path d="M10690476 35216666
L11309523 35216666
" />
<path d="M10566666 35588095
L11000000 34288095
L11433333 35588095
" />
</g></g>
<g style="fill:#000000; fill-opacity:0.0; 
stroke:#000000; stroke-width:21200.000000; stroke-opacity:1; 
stroke-linecap:round; stroke-linejoin:round;">
</g>
<g style="fill:#000000; fill-opacity:0.0; 
stroke:#000000; stroke-width:150000.000000; stroke-opacity:1; 
stroke-linecap:round; stroke-linejoin:round;">
<text x="11000000.000000" y="85650000.000000"
textLength="1450000.000000" font-size="1733333.000000" lengthAdjust="spacingAndGlyphs"
text-anchor="middle" opacity="0">B</text>
<g class="stroked-text"><desc>B</desc>
<path d="M11092857 84907142
L11278571 84969047
L11340476 85030952
L11402380 85154761
L11402380 85340476
L11340476 85464285
L11278571 85526190
L11154761 85588095
L10659523 85588095
L10659523 84288095
L11092857 84288095
L11216666 84350000
L11278571 84411904
L11340476 84535714
L11340476 84659523
L11278571 84783333
L11216666 84845238
L11092857 84907142
L10659523 84907142
" />
</g></g>
<g style="fill:#000000; fill-opacity:0.0; 
stroke:#000000; stroke-width:21200.000000; stroke-opacity:1; 
stroke-linecap:round; stroke-linejoin:round;">
</g>
<g style="fill:#000000; fill-opacity:0.0; 
stroke:#000000; stroke-width:150000.000000; stroke-opacity:1; 
stroke-linecap:round; stroke-linejoin:round;">
<text x="11000000.000000" y="135650000.000000"
textLength="1450000.000000" font-size="1733333.000000" lengthAdjust="spacingAndGlyphs"
text-anchor="middle" opacity="0">C</text>
<g class="stroked-text"><desc>C</desc>
<path d="M11402380 135464285
L11340476 135526190
L11154761 135588095
L11030952 135588095
L10845238 135526190
L10721428 135402380
L10659523 135278571
L10597619 135030952
L10597619 134845238
L10659523 134597619
L10721428 134473809
L10845238 134350000
L11030952 134288095
L11154761 134288095
L11340476 134350000
L11402380 134411904
" />
</g></g>
<g style="fill:#000000; fill-opacity:0.0; 
stroke:#000000; stroke-width:21200.000000; stroke-opacity:1; 
stroke-linecap:round; stroke-linejoin:round;">
</g>
<g style="fill:#000000; fill-opacity:0.0; 
stroke:#000000; stroke-width:150000.000000; stroke-opacity:1; 
stroke-linecap:round; stroke-linejoin:round;">
<text x="11000000.000000" y="185650000.000000"
textLength="1450000.000000" font-size="1733333.000000" lengthAdjust="spacingAndGlyphs"
text-anchor="middle" opacity="0">D</text>
<g class="stroked-text"><desc>D</desc>
<path d="M10659523 185588095
L10659523 184288095
L10969047 184288095
L11154761 184350000
L11278571 184473809
L11340476 184597619
L11402380 184845238
L11402380 185030952
L11340476 185278571
L11278571 185402380
L11154761 185526190
L10969047 185588095
L10659523 185588095
" />
</g></g>
<g style="fill:#000000; fill-opacity:0.0; 
stroke:#000000; stroke-width:21200.000000; stroke-opacity:1; 
stroke-linecap:round; stroke-linejoin:round;">
</g>
<g style="fill:#000000; fill-opacity:0.0; 
stroke:#000000; stroke-width:150000.000000; stroke-opacity:1; 
stroke-linecap:round; stroke-linejoin:round;">
<path d="M287002200 60000000
L285002200 60000000
" />
</g>
<g style="fill:#000000; fill-opacity:0.0; 
stroke:#000000; stroke-width:21200.000000; stroke-opacity:1; 
stroke-linecap:round; stroke-linejoin:round;">
</g>
<g style="fill:#000000; fill-opacity:0.0; 
stroke:#000000; stroke-width:150000.000000; stroke-opacity:1; 
stroke-linecap:round; stroke-linejoin:round;">
<path d="M287002200 110000000
L285002200 110000000
" />
</g>
<g style="fill:#000000; fill-opacity:0.0; 
stroke:#000000; stroke-width:21200.000000; stroke-opacity:1; 
stroke-linecap:round; stroke-linejoin:round;">
</g>
<g style="fill:#000000; fill-opacity:0.0; 
stroke:#000000; stroke-width:150000.000000; stroke-opacity:1; 
stroke-linecap:round; stroke-linejoin:round;">
<path d="M287002200 160000000
L285002200 160000000
" />
</g>
<g style="fill:#000000; fill-opacity:0.0; 
stroke:#000000; stroke-width:21200.000000; stroke-opacity:1; 
stroke-linecap:round; stroke-linejoin:round;">
</g>
<g style="fill:#000000; fill-opacity:0.0; 
stroke:#000000; stroke-width:150000.000000; stroke-opacity:1; 
stroke-linecap:round; stroke-linejoin:round;">
<text x="286002200.000000" y="35650000.000000"
textLength="1264286.000000" font-size="1733333.000000" lengthAdjust="spacingAndGlyphs"
text-anchor="middle" opacity="0">A</text>
<g class="stroked-text"><desc>A</desc>
<path d="M285692676 35216666
L286311723 35216666
" />
<path d="M285568866 35588095
L286002200 34288095
L286435533 35588095
" />
</g></g>
<g style="fill:#000000; fill-opacity:0.0; 
stroke:#000000; stroke-width:21200.000000; stroke-opacity:1; 
stroke-linecap:round; stroke-linejoin:round;">
</g>
<g style="fill:#000000; fill-opacity:0.0; 
stroke:#000000; stroke-width:150000.000000; stroke-opacity:1; 
stroke-linecap:round; stroke-linejoin:round;">
<text x="286002200.000000" y="85650000.000000"
textLength="1450000.000000" font-size="1733333.000000" lengthAdjust="spacingAndGlyphs"
text-anchor="middle" opacity="0">B</text>
<g class="stroked-text"><desc>B</desc>
<path d="M286095057 84907142
L286280771 84969047
L286342676 85030952
L286404580 85154761
L286404580 85340476
L286342676 85464285
L286280771 85526190
L286156961 85588095
L285661723 85588095
L285661723 84288095
L286095057 84288095
L286218866 84350000
L286280771 84411904
L286342676 84535714
L286342676 84659523
L286280771 84783333
L286218866 84845238
L286095057 84907142
L285661723 84907142
" />
</g></g>
<g style="fill:#000000; fill-opacity:0.0; 
stroke:#000000; stroke-width:21200.000000; stroke-opacity:1; 
stroke-linecap:round; stroke-linejoin:round;">
</g>
<g style="fill:#000000; fill-opacity:0.0; 
stroke:#000000; stroke-width:150000.000000; stroke-opacity:1; 
stroke-linecap:round; stroke-linejoin:round;">
<text x="286002200.000000" y="135650000.000000"
textLength="1450000.000000" font-size="1733333.000000" lengthAdjust="spacingAndGlyphs"
text-anchor="middle" opacity="0">C</text>
<g class="stroked-text"><desc>C</desc>
<path d="M286404580 135464285
L286342676 135526190
L286156961 135588095
L286033152 135588095
L285847438 135526190
L285723628 135402380
L285661723 135278571
L285599819 135030952
L285599819 134845238
L285661723 134597619
L285723628 134473809
L285847438 134350000
L286033152 134288095
L286156961 134288095
L286342676 134350000
L286404580 134411904
" />
</g></g>
<g style="fill:#000000; fill-opacity:0.0; 
stroke:#000000; stroke-width:21200.000000; stroke-opacity:1; 
stroke-linecap:round; stroke-linejoin:round;">
</g>
<g style="fill:#000000; fill-opacity:0.0; 
stroke:#000000; stroke-width:150000.000000; stroke-opacity:1; 
stroke-linecap:round; stroke-linejoin:round;">
<text x="286002200.000000" y="185650000.000000"
textLength="1450000.000000" font-size="1733333.000000" lengthAdjust="spacingAndGlyphs"
text-anchor="middle" opacity="0">D</text>
<g class="stroked-text"><desc>D</desc>
<path d="M285661723 185588095
L285661723 184288095
L285971247 184288095
L286156961 184350000
L286280771 184473809
L286342676 184597619
L286404580 184845238
L286404580 185030952
L286342676 185278571
L286280771 185402380
L286156961 185526190
L285971247 185588095
L285661723 185588095
" />
</g></g>
<g style="fill:#000000; fill-opacity:0.0; 
stroke:#000000; stroke-width:21200.000000; stroke-opacity:1; 
stroke-linecap:round; stroke-linejoin:round;">
</g>
<g style="fill:#000000; fill-opacity:0.0; 
stroke:#000000; stroke-width:150000.000000; stroke-opacity:1; 
stroke-linecap:round; stroke-linejoin:round;">
<text x="200002200.000000" y="193857200.000000"
textLength="7007143.000000" font-size="2000000.000000" lengthAdjust="spacingAndGlyphs"
text-anchor="start" opacity="0">Date: </text>
<g class="stroked-text"><desc>Date: </desc>
<path d="M200434342 193785771
L200434342 192285771
L200791485 192285771
L201005771 192357200
L201148628 192500057
L201220057 192642914
L201291485 192928628
L201291485 193142914
L201220057 193428628
L201148628 193571485
L201005771 193714342
L200791485 193785771
L200434342 193785771
" />
<path d="M202577200 193785771
L202577200 193000057
L202505771 192857200
L202362914 192785771
L202077200 192785771
L201934342 192857200
" />
<path d="M202577200 193714342
L202434342 193785771
L202077200 193785771
L201934342 193714342
L201862914 193571485
L201862914 193428628
L201934342 193285771
L202077200 193214342
L202434342 193214342
L202577200 193142914
" />
<path d="M203077200 192785771
L203648628 192785771
" />
<path d="M203291485 192285771
L203291485 193571485
L203362914 193714342
L203505771 193785771
L203648628 193785771
" />
<path d="M204720057 193714342
L204577200 193785771
L204291485 193785771
L204148628 193714342
L204077200 193571485
L204077200 193000057
L204148628 192857200
L204291485 192785771
L204577200 192785771
L204720057 192857200
L204791485 193000057
L204791485 193142914
L204077200 193285771
" />
<path d="M205434342 193642914
L205505771 193714342
L205434342 193785771
L205362914 193714342
L205434342 193642914
L205434342 193785771
" />
<path d="M205434342 192857200
L205505771 192928628
L205434342 193000057
L205362914 192928628
L205434342 192857200
L205434342 193000057
" />
</g></g>
<g style="fill:#000000; fill-opacity:0.0; 
stroke:#000000; stroke-width:21200.000000; stroke-opacity:1; 
stroke-linecap:round; stroke-linejoin:round;">
</g>
<g style="fill:#000000; fill-opacity:0.0; 
stroke:#000000; stroke-width:150000.000000; stroke-opacity:1; 
stroke-linecap:round; stroke-linejoin:round;">
<path d="M177002200 194507200
L285002200 194507200
" />
</g>
<g style="fill:#000000; fill-opacity:0.0; 
stroke:#000000; stroke-width:21200.000000; stroke-opacity:1; 
stroke-linecap:round; stroke-linejoin:round;">
</g>
<g style="fill:#000000; fill-opacity:0.0; 
stroke:#000000; stroke-width:150000.000000; stroke-opacity:1; 
stroke-linecap:round; stroke-linejoin:round;">
<text x="178002200.000000" y="196657200.000000"
textLength="31078571.000000" font-size="2000000.000000" lengthAdjust="spacingAndGlyphs"
text-anchor="start" opacity="0">KiCad E.D.A.  kicad (6.0.0)</text>
<g class="stroked-text"><desc>KiCad E.D.A.  kicad (6.0.0)</desc>
<path d="M178434342 196585771
L178434342 195085771
" />
<path d="M179291485 196585771
L178648628 195728628
" />
<path d="M179291485 195085771
L178434342 195942914
" />
<path d="M179934342 196585771
L179934342 195585771
" />
<path d="M179934342 195085771
L179862914 195157200
L179934342 195228628
L180005771 195157200
L179934342 195085771
L179934342 195228628
" />
<path d="M181505771 196442914
L181434342 196514342
L181220057 196585771
L181077200 196585771
L180862914 196514342
L180720057 196371485
L180648628 196228628
L180577200 195942914
L180577200 195728628
L180648628 195442914
L180720057 195300057
L180862914 195157200
L181077200 195085771
L181220057 195085771
L181434342 195157200
L181505771 195228628
" />
<path d="M182791485 196585771
L182791485 195800057
L182720057 195657200
L182577200 195585771
L182291485 195585771
L182148628 195657200
" />
<path d="M182791485 196514342
L182648628 196585771
L182291485 196585771
L182148628 196514342
L182077200 196371485
L182077200 196228628
L182148628 196085771
L182291485 196014342
L182648628 196014342
L182791485 195942914
" />
<path d="M184148628 196585771
L184148628 195085771
" />
<path d="M184148628 196514342
L184005771 196585771
L183720057 196585771
L183577200 196514342
L183505771 196442914
L183434342 196300057
L183434342 195871485
L183505771 195728628
L183577200 195657200
L183720057 195585771
L184005771 195585771
L184148628 195657200
" />
<path d="M186005771 195800057
L186505771 195800057
" />
<path d="M186720057 196585771
L186005771 196585771
L186005771 195085771
L186720057 195085771
" />
<path d="M187362914 196442914
L187434342 196514342
L187362914 196585771
L187291485 196514342
L187362914 196442914
L187362914 196585771
" />
<path d="M188077200 196585771
L188077200 195085771
L188434342 195085771
L188648628 195157200
L188791485 195300057
L188862914 195442914
L188934342 195728628
L188934342 195942914
L188862914 196228628
L188791485 196371485
L188648628 196514342
L188434342 196585771
L188077200 196585771
" />
<path d="M189577200 196442914
L189648628 196514342
L189577200 196585771
L189505771 196514342
L189577200 196442914
L189577200 196585771
" />
<path d="M190220057 196157200
L190934342 196157200
" />
<path d="M190077200 196585771
L190577200 195085771
L191077200 196585771
" />
<path d="M191577200 196442914
L191648628 196514342
L191577200 196585771
L191505771 196514342
L191577200 196442914
L191577200 196585771
" />
<path d="M194577200 196585771
L194577200 195085771
" />
<path d="M194720057 196014342
L195148628 196585771
" />
<path d="M195148628 195585771
L194577200 196157200
" />
<path d="M195791485 196585771
L195791485 195585771
" />
<path d="M195791485 195085771
L195720057 195157200
L195791485 195228628
L195862914 195157200
L195791485 195085771
L195791485 195228628
" />
<path d="M197148628 196514342
L197005771 196585771
L196720057 196585771
L196577200 196514342
L196505771 196442914
L196434342 196300057
L196434342 195871485
L196505771 195728628
L196577200 195657200
L196720057 195585771
L197005771 195585771
L197148628 195657200
" />
<path d="M198434342 196585771
L198434342 195800057
L198362914 195657200
L198220057 195585771
L197934342 195585771
L197791485 195657200
" />
<path d="M198434342 196514342
L198291485 196585771
L197934342 196585771
L197791485 196514342
L197720057 196371485
L197720057 196228628
L197791485 196085771
L197934342 196014342
L198291485 196014342
L198434342 195942914
" />
<path d="M199791485 196585771
L199791485 195085771
" />
<path d="M199791485 196514342
L199648628 196585771
L199362914 196585771
L199220057 196514342
L199148628 196442914
L199077200 196300057
L199077200 195871485
L199148628 195728628
L199220057 195657200
L199362914 195585771
L199648628 195585771
L199791485 195657200
" />
<path d="M202077200 197157200
L202005771 197085771
L201862914 196871485
L201791485 196728628
L201720057 196514342
L201648628 196157200
L201648628 195871485
L201720057 195514342
L201791485 195300057
L201862914 195157200
L202005771 194942914
L202077200 194871485
" />
<path d="M203291485 195085771
L203005771 195085771
L202862914 195157200
L202791485 195228628
L202648628 195442914
L202577200 195728628
L202577200 196300057
L202648628 196442914
L202720057 196514342
L202862914 196585771
L203148628 196585771
L203291485 196514342
L203362914 196442914
L203434342 196300057
L203434342 195942914
L203362914 195800057
L203291485 195728628
L203148628 195657200
L202862914 195657200
L202720057 195728628
L202648628 195800057
L202577200 195942914
" />
<path d="M204077200 196442914
L204148628 196514342
L204077200 196585771
L204005771 196514342
L204077200 196442914
L204077200 196585771
" />
<path d="M205077200 195085771
L205220057 195085771
L205362914 195157200
L205434342 195228628
L205505771 195371485
L205577200 195657200
L205577200 196014342
L205505771 196300057
L205434342 196442914
L205362914 196514342
L205220057 196585771
L205077200 196585771
L204934342 196514342
L204862914 196442914
L204791485 196300057
L204720057 196014342
L204720057 195657200
L204791485 195371485
L204862914 195228628
L204934342 195157200
L205077200 195085771
" />
<path d="M206220057 196442914
L206291485 196514342
L206220057 196585771
L206148628 196514342
L206220057 196442914
L206220057 196585771
" />
<path d="M207220057 195085771
L207362914 195085771
L207505771 195157200
L207577200 195228628
L207648628 195371485
L207720057 195657200
L207720057 196014342
L207648628 196300057
L207577200 196442914
L207505771 196514342
L207362914 196585771
L207220057 196585771
L207077200 196514342
L207005771 196442914
L206934342 196300057
L206862914 196014342
L206862914 195657200
L206934342 195371485
L207005771 195228628
L207077200 195157200
L207220057 195085771
" />
<path d="M208220057 197157200
L208291485 197085771
L208434342 196871485
L208505771 196728628
L208577200 196514342
L208648628 196157200
L208648628 195871485
L208577200 195514342
L208505771 195300057
L208434342 195157200
L208291485 194942914
L208220057 194871485
" />
</g></g>
<g style="fill:#000000; fill-opacity:0.0; 
stroke:#000000; stroke-width:21200.000000; stroke-opacity:1; 
stroke-linecap:round; stroke-linejoin:round;">
</g>
<g style="fill:#000000; fill-opacity:0.0; 
stroke:#000000; stroke-width:150000.000000; stroke-opacity:1; 
stroke-linecap:round; stroke-linejoin:round;">
<path d="M177002200 191507200
L285002200 191507200
" />
</g>
<g style="fill:#000000; fill-opacity:0.0; 
stroke:#000000; stroke-width:21200.000000; stroke-opacity:1; 
stroke-linecap:round; stroke-linejoin:round;">
</g>
<g style="fill:#000000; fill-opacity:0.0; 
stroke:#000000; stroke-width:300000.000000; stroke-opacity:1; 
stroke-linecap:round; stroke-linejoin:round;">
<text x="263002200.000000" y="193857200.000000"
textLength="5935714.000000" font-size="2000000.000000" lengthAdjust="spacingAndGlyphs"
text-anchor="start" opacity="0">Rev: </text>
<g class="stroked-text"><desc>Rev: </desc>
<path d="M264411485 193785771
L263911485 193071485
" />
<path d="M263554342 193785771
L263554342 192285771
L264125771 192285771
L264268628 192357200
L264340057 192428628
L264411485 192571485
L264411485 192785771
L264340057 192928628
L264268628 193000057
L264125771 193071485
L263554342 193071485
" />
<path d="M265625771 193714342
L265482914 193785771
L265197200 193785771
L265054342 193714342
L264982914 193571485
L264982914 193000057
L265054342 192857200
L265197200 192785771
L265482914 192785771
L265625771 192857200
L265697200 193000057
L265697200 193142914
L264982914 193285771
" />
<path d="M266197200 192785771
L266554342 193785771
L266911485 192785771
" />
<path d="M267482914 193642914
L267554342 193714342
L267482914 193785771
L267411485 193714342
L267482914 193642914
L267482914 193785771
" />
<path d="M267482914 192857200
L267554342 192928628
L267482914 193000057
L267411485 192928628
L267482914 192857200
L267482914 193000057
" />
</g></g>
<g style="fill:#000000; fill-opacity:0.0; 
stroke:#000000; stroke-width:21200.000000; stroke-opacity:1; 
stroke-linecap:round; stroke-linejoin:round;">
</g>
<g style="fill:#000000; fill-opacity:0.0; 
stroke:#000000; stroke-width:150000.000000; stroke-opacity:1; 
stroke-linecap:round; stroke-linejoin:round;">
<text x="178002200.000000" y="193857200.000000"
textLength="9604286.000000" font-size="2000000.000000" lengthAdjust="spacingAndGlyphs"
text-anchor="start" opacity="0">Size: A4</text>
<g class="stroked-text"><desc>Size: A4</desc>
<path d="M178362914 193714342
L178577200 193785771
L178934342 193785771
L179077200 193714342
L179148628 193642914
L179220057 193500057
L179220057 193357200
L179148628 193214342
L179077200 193142914
L178934342 193071485
L178648628 193000057
L178505771 192928628
L178434342 192857200
L178362914 192714342
L178362914 192571485
L178434342 192428628
L178505771 192357200
L178648628 192285771
L179005771 192285771
L179220057 192357200
" />
<path d="M179862914 193785771
L179862914 192785771
" />
<path d="M179862914 192285771
L179791485 192357200
L179862914 192428628
L179934342 192357200
L179862914 192285771
L179862914 192428628
" />
<path d="M180434342 192785771
L181220057 192785771
L180434342 193785771
L181220057 193785771
" />
<path d="M182362914 193714342
L182220057 193785771
L181934342 193785771
L181791485 193714342
L181720057 193571485
L181720057 193000057
L181791485 192857200
L181934342 192785771
L182220057 192785771
L182362914 192857200
L182434342 193000057
L182434342 193142914
L181720057 193285771
" />
<path d="M183077200 193642914
L183148628 193714342
L183077200 193785771
L183005771 193714342
L183077200 193642914
L183077200 193785771
" />
<path d="M183077200 192857200
L183148628 192928628
L183077200 193000057
L183005771 192928628
L183077200 192857200
L183077200 193000057
" />
<path d="M184862914 193357200
L185577200 193357200
" />
<path d="M184720057 193785771
L185220057 192285771
L185720057 193785771
" />
<path d="M186862914 192785771
L186862914 193785771
" />
<path d="M186505771 192214342
L186148628 193285771
L187077200 193285771
" />
</g></g>
<g style="fill:#000000; fill-opacity:0.0; 
stroke:#000000; stroke-width:21200.000000; stroke-opacity:1; 
stroke-linecap:round; stroke-linejoin:round;">
</g>
<g style="fill:#000000; fill-opacity:0.0; 
stroke:#000000; stroke-width:150000.000000; stroke-opacity:1; 
stroke-linecap:round; stroke-linejoin:round;">
<text x="263002200.000000" y="196657200.000000"
textLength="8507143.000000" font-size="2000000.000000" lengthAdjust="spacingAndGlyphs"
text-anchor="start" opacity="0">Id: 1/1</text>
<g class="stroked-text"><desc>Id: 1/1</desc>
<path d="M263434342 196585771
L263434342 195085771
" />
<path d="M264791485 196585771
L264791485 195085771
" />
<path d="M264791485 196514342
L264648628 196585771
L264362914 196585771
L264220057 196514342
L264148628 196442914
L264077200 196300057
L264077200 195871485
L264148628 195728628
L264220057 195657200
L264362914 195585771
L264648628 195585771
L264791485 195657200
" />
<path d="M265505771 196442914
L265577200 196514342
L265505771 196585771
L265434342 196514342
L265505771 196442914
L265505771 196585771
" />
<path d="M265505771 195657200
L265577200 195728628
L265505771 195800057
L265434342 195728628
L265505771 195657200
L265505771 195800057
" />
<path d="M268148628 196585771
L267291485 196585771
" />
<path d="M267720057 196585771
L267720057 195085771
L267577200 195300057
L267434342 195442914
L267291485 195514342
" />
<path d="M269862914 195014342
L268577200 196942914
" />
<path d="M271148628 196585771
L270291485 196585771
" />
<path d="M270720057 196585771
L270720057 195085771
L270577200 195300057
L270434342 195442914
L270291485 195514342
" />
</g></g>
<g style="fill:#000000; fill-opacity:0.0; 
stroke:#000000; stroke-width:21200.000000; stroke-opacity:1; 
stroke-linecap:round; stroke-linejoin:round;">
</g>
<g style="fill:#000000; fill-opacity:0.0; 
stroke:#000000; stroke-width:150000.000000; stroke-opacity:1; 
stroke-linecap:round; stroke-linejoin:round;">
<path d="M177002200 187507200
L285002200 187507200
" />
</g>
<g style="fill:#000000; fill-opacity:0.0; 
stroke:#000000; stroke-width:21200.000000; stroke-opacity:1; 
stroke-linecap:round; stroke-linejoin:round;">
</g>
<g style="fill:#000000; fill-opacity:0.0; 
stroke:#000000; stroke-width:400000.000000; stroke-opacity:1; 
stroke-linecap:round; stroke-linejoin:round;">
<text x="178002200.000000" y="190307200.000000"
textLength="9409643.000000" font-size="2666666.000000" lengthAdjust="spacingAndGlyphs"
text-anchor="start" opacity="0">Title: </text>
<g class="stroked-text"><desc>Title: </desc>
<path d="M178714580 188211961
L179857438 188211961
" />
<path d="M179036009 190211961
L179286009 188211961
" />
<path d="M180274104 190211961
L180440771 188878628
" />
<path d="M180524104 188211961
L180416961 188307200
L180500295 188402438
L180607438 188307200
L180524104 188211961
L180500295 188402438
" />
<path d="M181107438 188878628
L181869342 188878628
" />
<path d="M181476485 188211961
L181262200 189926247
L181333628 190116723
L181512200 190211961
L181702676 190211961
" />
<path d="M182655057 190211961
L182476485 190116723
L182405057 189926247
L182619342 188211961
" />
<path d="M184190771 190116723
L183988390 190211961
L183607438 190211961
L183428866 190116723
L183357438 189926247
L183452676 189164342
L183571723 188973866
L183774104 188878628
L184155057 188878628
L184333628 188973866
L184405057 189164342
L184381247 189354819
L183405057 189545295
" />
<path d="M185155057 190021485
L185238390 190116723
L185131247 190211961
L185047914 190116723
L185155057 190021485
L185131247 190211961
" />
<path d="M185286009 188973866
L185369342 189069104
L185262200 189164342
L185178866 189069104
L185286009 188973866
L185262200 189164342
" />
</g></g>
<g style="fill:#000000; fill-opacity:0.0; 
stroke:#000000; stroke-width:21200.000000; stroke-opacity:1; 
stroke-linecap:round; stroke-linejoin:round;">
</g>
<g style="fill:#000000; fill-opacity:0.0; 
stroke:#000000; stroke-width:150000.000000; stroke-opacity:1; 
stroke-linecap:round; stroke-linejoin:round;">
<text x="178002200.000000" y="186457200.000000"
textLength="31662857.000000" font-size="2000000.000000" lengthAdjust="spacingAndGlyphs"
text-anchor="start" opacity="0">File: SPVMD_V2.0.kicad_pcb</text>
<g class="stroked-text"><desc>File: SPVMD_V2.0.kicad_pcb</desc>
<path d="M178934342 185600057
L178434342 185600057
" />
<path d="M178434342 186385771
L178434342 184885771
L179148628 184885771
" />
<path d="M179720057 186385771
L179720057 185385771
" />
<path d="M179720057 184885771
L179648628 184957200
L179720057 185028628
L179791485 184957200
L179720057 184885771
L179720057 185028628
" />
<path d="M180648628 186385771
L180505771 186314342
L180434342 186171485
L180434342 184885771
" />
<path d="M181791485 186314342
L181648628 186385771
L181362914 186385771
L181220057 186314342
L181148628 186171485
L181148628 185600057
L181220057 185457200
L181362914 185385771
L181648628 185385771
L181791485 185457200
L181862914 185600057
L181862914 185742914
L181148628 185885771
" />
<path d="M182505771 186242914
L182577200 186314342
L182505771 186385771
L182434342 186314342
L182505771 186242914
L182505771 186385771
" />
<path d="M182505771 185457200
L182577200 185528628
L182505771 185600057
L182434342 185528628
L182505771 185457200
L182505771 185600057
" />
<path d="M184291485 186314342
L184505771 186385771
L184862914 186385771
L185005771 186314342
L185077200 186242914
L185148628 186100057
L185148628 185957200
L185077200 185814342
L185005771 185742914
L184862914 185671485
L184577200 185600057
L184434342 185528628
L184362914 185457200
L184291485 185314342
L184291485 185171485
L184362914 185028628
L184434342 184957200
L184577200 184885771
L184934342 184885771
L185148628 184957200
" />
<path d="M185791485 186385771
L185791485 184885771
L186362914 184885771
L186505771 184957200
L186577200 185028628
L186648628 185171485
L186648628 185385771
L186577200 185528628
L186505771 185600057
L186362914 185671485
L185791485 185671485
" />
<path d="M187077200 184885771
L187577200 186385771
L188077200 184885771
" />
<path d="M188577200 186385771
L188577200 184885771
L189077200 185957200
L189577200 184885771
L189577200 186385771
" />
<path d="M190291485 186385771
L190291485 184885771
L190648628 184885771
L190862914 184957200
L191005771 185100057
L191077200 185242914
L191148628 185528628
L191148628 185742914
L191077200 186028628
L191005771 186171485
L190862914 186314342
L190648628 186385771
L190291485 186385771
" />
<path d="M191434342 186528628
L192577200 186528628
" />
<path d="M192720057 184885771
L193220057 186385771
L193720057 184885771
" />
<path d="M194148628 185028628
L194220057 184957200
L194362914 184885771
L194720057 184885771
L194862914 184957200
L194934342 185028628
L195005771 185171485
L195005771 185314342
L194934342 185528628
L194077200 186385771
L195005771 186385771
" />
<path d="M195648628 186242914
L195720057 186314342
L195648628 186385771
L195577200 186314342
L195648628 186242914
L195648628 186385771
" />
<path d="M196648628 184885771
L196791485 184885771
L196934342 184957200
L197005771 185028628
L197077200 185171485
L197148628 185457200
L197148628 185814342
L197077200 186100057
L197005771 186242914
L196934342 186314342
L196791485 186385771
L196648628 186385771
L196505771 186314342
L196434342 186242914
L196362914 186100057
L196291485 185814342
L196291485 185457200
L196362914 185171485
L196434342 185028628
L196505771 184957200
L196648628 184885771
" />
<path d="M197791485 186242914
L197862914 186314342
L197791485 186385771
L197720057 186314342
L197791485 186242914
L197791485 186385771
" />
<path d="M198505771 186385771
L198505771 184885771
" />
<path d="M198648628 185814342
L199077200 186385771
" />
<path d="M199077200 185385771
L198505771 185957200
" />
<path d="M199720057 186385771
L199720057 185385771
" />
<path d="M199720057 184885771
L199648628 184957200
L199720057 185028628
L199791485 184957200
L199720057 184885771
L199720057 185028628
" />
<path d="M201077200 186314342
L200934342 186385771
L200648628 186385771
L200505771 186314342
L200434342 186242914
L200362914 186100057
L200362914 185671485
L200434342 185528628
L200505771 185457200
L200648628 185385771
L200934342 185385771
L201077200 185457200
" />
<path d="M202362914 186385771
L202362914 185600057
L202291485 185457200
L202148628 185385771
L201862914 185385771
L201720057 185457200
" />
<path d="M202362914 186314342
L202220057 186385771
L201862914 186385771
L201720057 186314342
L201648628 186171485
L201648628 186028628
L201720057 185885771
L201862914 185814342
L202220057 185814342
L202362914 185742914
" />
<path d="M203720057 186385771
L203720057 184885771
" />
<path d="M203720057 186314342
L203577200 186385771
L203291485 186385771
L203148628 186314342
L203077200 186242914
L203005771 186100057
L203005771 185671485
L203077200 185528628
L203148628 185457200
L203291485 185385771
L203577200 185385771
L203720057 185457200
" />
<path d="M204077200 186528628
L205220057 186528628
" />
<path d="M205577200 185385771
L205577200 186885771
" />
<path d="M205577200 185457200
L205720057 185385771
L206005771 185385771
L206148628 185457200
L206220057 185528628
L206291485 185671485
L206291485 186100057
L206220057 186242914
L206148628 186314342
L206005771 186385771
L205720057 186385771
L205577200 186314342
" />
<path d="M207577200 186314342
L207434342 186385771
L207148628 186385771
L207005771 186314342
L206934342 186242914
L206862914 186100057
L206862914 185671485
L206934342 185528628
L207005771 185457200
L207148628 185385771
L207434342 185385771
L207577200 185457200
" />
<path d="M208220057 186385771
L208220057 184885771
" />
<path d="M208220057 185457200
L208362914 185385771
L208648628 185385771
L208791485 185457200
L208862914 185528628
L208934342 185671485
L208934342 186100057
L208862914 186242914
L208791485 186314342
L208648628 186385771
L208362914 186385771
L208220057 186314342
" />
</g></g>
<g style="fill:#000000; fill-opacity:0.0; 
stroke:#000000; stroke-width:21200.000000; stroke-opacity:1; 
stroke-linecap:round; stroke-linejoin:round;">
</g>
<g style="fill:#000000; fill-opacity:0.0; 
stroke:#000000; stroke-width:150000.000000; stroke-opacity:1; 
stroke-linecap:round; stroke-linejoin:round;">
<path d="M177002200 181507200
L285002200 181507200
" />
</g>
<g style="fill:#000000; fill-opacity:0.0; 
stroke:#000000; stroke-width:21200.000000; stroke-opacity:1; 
stroke-linecap:round; stroke-linejoin:round;">
</g>
<g style="fill:#000000; fill-opacity:0.0; 
stroke:#000000; stroke-width:150000.000000; stroke-opacity:1; 
stroke-linecap:round; stroke-linejoin:round;">
<text x="178002200.000000" y="183757200.000000"
textLength="8221429.000000" font-size="2000000.000000" lengthAdjust="spacingAndGlyphs"
text-anchor="start" opacity="0">Sheet: </text>
<g class="stroked-text"><desc>Sheet: </desc>
<path d="M178362914 183614342
L178577200 183685771
L178934342 183685771
L179077200 183614342
L179148628 183542914
L179220057 183400057
L179220057 183257200
L179148628 183114342
L179077200 183042914
L178934342 182971485
L178648628 182900057
L178505771 182828628
L178434342 182757200
L178362914 182614342
L178362914 182471485
L178434342 182328628
L178505771 182257200
L178648628 182185771
L179005771 182185771
L179220057 182257200
" />
<path d="M179862914 183685771
L179862914 182185771
" />
<path d="M180505771 183685771
L180505771 182900057
L180434342 182757200
L180291485 182685771
L180077200 182685771
L179934342 182757200
L179862914 182828628
" />
<path d="M181791485 183614342
L181648628 183685771
L181362914 183685771
L181220057 183614342
L181148628 183471485
L181148628 182900057
L181220057 182757200
L181362914 182685771
L181648628 182685771
L181791485 182757200
L181862914 182900057
L181862914 183042914
L181148628 183185771
" />
<path d="M183077200 183614342
L182934342 183685771
L182648628 183685771
L182505771 183614342
L182434342 183471485
L182434342 182900057
L182505771 182757200
L182648628 182685771
L182934342 182685771
L183077200 182757200
L183148628 182900057
L183148628 183042914
L182434342 183185771
" />
<path d="M183577200 182685771
L184148628 182685771
" />
<path d="M183791485 182185771
L183791485 183471485
L183862914 183614342
L184005771 183685771
L184148628 183685771
" />
<path d="M184648628 183542914
L184720057 183614342
L184648628 183685771
L184577200 183614342
L184648628 183542914
L184648628 183685771
" />
<path d="M184648628 182757200
L184720057 182828628
L184648628 182900057
L184577200 182828628
L184648628 182757200
L184648628 182900057
" />
</g></g>
<g style="fill:#000000; fill-opacity:0.0; 
stroke:#000000; stroke-width:21200.000000; stroke-opacity:1; 
stroke-linecap:round; stroke-linejoin:round;">
</g>
<g style="fill:#000000; fill-opacity:0.0; 
stroke:#000000; stroke-width:300000.000000; stroke-opacity:1; 
stroke-linecap:round; stroke-linejoin:round;">
<text x="178002200.000000" y="180757200.000000"
textLength="150000.000000" font-size="2000000.000000" lengthAdjust="spacingAndGlyphs"
text-anchor="start" opacity="0"></text>
<g class="stroked-text"><desc></desc>
</g></g>
<g style="fill:#000000; fill-opacity:0.0; 
stroke:#000000; stroke-width:21200.000000; stroke-opacity:1; 
stroke-linecap:round; stroke-linejoin:round;">
</g>
<g style="fill:#000000; fill-opacity:0.0; 
stroke:#000000; stroke-width:150000.000000; stroke-opacity:1; 
stroke-linecap:round; stroke-linejoin:round;">
<text x="178002200.000000" y="177757200.000000"
textLength="300000.000000" font-size="2000000.000000" lengthAdjust="spacingAndGlyphs"
text-anchor="start" opacity="0"></text>
<g class="stroked-text"><desc></desc>
</g></g>
<g style="fill:#000000; fill-opacity:0.0; 
stroke:#000000; stroke-width:21200.000000; stroke-opacity:1; 
stroke-linecap:round; stroke-linejoin:round;">
</g>
<g style="fill:#000000; fill-opacity:0.0; 
stroke:#000000; stroke-width:150000.000000; stroke-opacity:1; 
stroke-linecap:round; stroke-linejoin:round;">
<text x="178002200.000000" y="174757200.000000"
textLength="150000.000000" font-size="2000000.000000" lengthAdjust="spacingAndGlyphs"
text-anchor="start" opacity="0"></text>
<g class="stroked-text"><desc></desc>
</g></g>
<g style="fill:#000000; fill-opacity:0.0; 
stroke:#000000; stroke-width:21200.000000; stroke-opacity:1; 
stroke-linecap:round; stroke-linejoin:round;">
</g>
<g style="fill:#000000; fill-opacity:0.0; 
stroke:#000000; stroke-width:150000.000000; stroke-opacity:1; 
stroke-linecap:round; stroke-linejoin:round;">
<text x="178002200.000000" y="171757200.000000"
textLength="150000.000000" font-size="2000000.000000" lengthAdjust="spacingAndGlyphs"
text-anchor="start" opacity="0"></text>
<g class="stroked-text"><desc></desc>
</g></g>
<g style="fill:#000000; fill-opacity:0.0; 
stroke:#000000; stroke-width:21200.000000; stroke-opacity:1; 
stroke-linecap:round; stroke-linejoin:round;">
</g>
<g style="fill:#000000; fill-opacity:0.0; 
stroke:#000000; stroke-width:150000.000000; stroke-opacity:1; 
stroke-linecap:round; stroke-linejoin:round;">
<text x="178002200.000000" y="168757200.000000"
textLength="150000.000000" font-size="2000000.000000" lengthAdjust="spacingAndGlyphs"
text-anchor="start" opacity="0"></text>
<g class="stroked-text"><desc></desc>
</g></g>
<g style="fill:#000000; fill-opacity:0.0; 
stroke:#000000; stroke-width:21200.000000; stroke-opacity:1; 
stroke-linecap:round; stroke-linejoin:round;">
</g>
<g style="fill:#000000; fill-opacity:0.0; 
stroke:#000000; stroke-width:150000.000000; stroke-opacity:1; 
stroke-linecap:round; stroke-linejoin:round;">
<path d="M197002200 191507200
L197002200 194507200
" />
</g>
<g style="fill:#000000; fill-opacity:0.0; 
stroke:#000000; stroke-width:21200.000000; stroke-opacity:1; 
stroke-linecap:round; stroke-linejoin:round;">
</g>
<g style="fill:#000000; fill-opacity:0.0; 
stroke:#000000; stroke-width:150000.000000; stroke-opacity:1; 
stroke-linecap:round; stroke-linejoin:round;">
<path d="M261002200 191507200
L261002200 198007200
" />
</g>
<g style="fill:#C2C2C2; fill-opacity:0.0; 
stroke:#C2C2C2; stroke-width:150000.000000; stroke-opacity:1; 
stroke-linecap:round; stroke-linejoin:round;">
<text x="175133000.000000" y="110094000.000000"
textLength="9769048.000000" font-size="1333333.000000" lengthAdjust="spacingAndGlyphs"
text-anchor="middle" opacity="0">44.1960 mm</text>
<g class="stroked-text"><desc>44.1960 mm</desc>
<path d="M170990142 109379714
L170990142 110046380
" />
<path d="M170752047 108998761
L170513952 109713047
L171133000 109713047
" />
<path d="M171942523 109379714
L171942523 110046380
" />
<path d="M171704428 108998761
L171466333 109713047
L172085380 109713047
" />
<path d="M172466333 109951142
L172513952 109998761
L172466333 110046380
L172418714 109998761
L172466333 109951142
L172466333 110046380
" />
<path d="M173466333 110046380
L172894904 110046380
" />
<path d="M173180619 110046380
L173180619 109046380
L173085380 109189238
L172990142 109284476
L172894904 109332095
" />
<path d="M173942523 110046380
L174133000 110046380
L174228238 109998761
L174275857 109951142
L174371095 109808285
L174418714 109617809
L174418714 109236857
L174371095 109141619
L174323476 109094000
L174228238 109046380
L174037761 109046380
L173942523 109094000
L173894904 109141619
L173847285 109236857
L173847285 109474952
L173894904 109570190
L173942523 109617809
L174037761 109665428
L174228238 109665428
L174323476 109617809
L174371095 109570190
L174418714 109474952
" />
<path d="M175275857 109046380
L175085380 109046380
L174990142 109094000
L174942523 109141619
L174847285 109284476
L174799666 109474952
L174799666 109855904
L174847285 109951142
L174894904 109998761
L174990142 110046380
L175180619 110046380
L175275857 109998761
L175323476 109951142
L175371095 109855904
L175371095 109617809
L175323476 109522571
L175275857 109474952
L175180619 109427333
L174990142 109427333
L174894904 109474952
L174847285 109522571
L174799666 109617809
" />
<path d="M175990142 109046380
L176085380 109046380
L176180619 109094000
L176228238 109141619
L176275857 109236857
L176323476 109427333
L176323476 109665428
L176275857 109855904
L176228238 109951142
L176180619 109998761
L176085380 110046380
L175990142 110046380
L175894904 109998761
L175847285 109951142
L175799666 109855904
L175752047 109665428
L175752047 109427333
L175799666 109236857
L175847285 109141619
L175894904 109094000
L175990142 109046380
" />
<path d="M177513952 110046380
L177513952 109379714
" />
<path d="M177513952 109474952
L177561571 109427333
L177656809 109379714
L177799666 109379714
L177894904 109427333
L177942523 109522571
L177942523 110046380
" />
<path d="M177942523 109522571
L177990142 109427333
L178085380 109379714
L178228238 109379714
L178323476 109427333
L178371095 109522571
L178371095 110046380
" />
<path d="M178847285 110046380
L178847285 109379714
" />
<path d="M178847285 109474952
L178894904 109427333
L178990142 109379714
L179133000 109379714
L179228238 109427333
L179275857 109522571
L179275857 110046380
" />
<path d="M179275857 109522571
L179323476 109427333
L179418714 109379714
L179561571 109379714
L179656809 109427333
L179704428 109522571
L179704428 110046380
" />
</g><path d="M153035000 99949000
L153035000 111330420
" />
<path d="M197231000 99949000
L197231000 111330420
" />
<path d="M153035000 110744000
L169748476 110744000
" />
<path d="M180517524 110744000
L197231000 110744000
" />
<path d="M153035000 110744000
L154161504 111330421
" />
<path d="M153035000 110744000
L154161504 110157579
" />
<path d="M197231000 110744000
L196104496 110157579
" />
<path d="M197231000 110744000
L196104496 111330421
" />
<g transform="rotate(-90.000000 208019000.000000 80010000.000000)">
<text x="208019000.000000" y="80510000.000000"
textLength="9814048.000000" font-size="1333333.000000" lengthAdjust="spacingAndGlyphs"
text-anchor="middle" opacity="0">33.0200 mm</text>
</g>
<g class="stroked-text"><desc>33.0200 mm</desc>
<path d="M207471380 84676666
L207471380 84057619
L207852333 84390952
L207852333 84248095
L207899952 84152857
L207947571 84105238
L208042809 84057619
L208280904 84057619
L208376142 84105238
L208423761 84152857
L208471380 84248095
L208471380 84533809
L208423761 84629047
L208376142 84676666
" />
<path d="M207471380 83724285
L207471380 83105238
L207852333 83438571
L207852333 83295714
L207899952 83200476
L207947571 83152857
L208042809 83105238
L208280904 83105238
L208376142 83152857
L208423761 83200476
L208471380 83295714
L208471380 83581428
L208423761 83676666
L208376142 83724285
" />
<path d="M208376142 82676666
L208423761 82629047
L208471380 82676666
L208423761 82724285
L208376142 82676666
L208471380 82676666
" />
<path d="M207471380 82010000
L207471380 81914761
L207519000 81819523
L207566619 81771904
L207661857 81724285
L207852333 81676666
L208090428 81676666
L208280904 81724285
L208376142 81771904
L208423761 81819523
L208471380 81914761
L208471380 82010000
L208423761 82105238
L208376142 82152857
L208280904 82200476
L208090428 82248095
L207852333 82248095
L207661857 82200476
L207566619 82152857
L207519000 82105238
L207471380 82010000
" />
<path d="M207566619 81295714
L207519000 81248095
L207471380 81152857
L207471380 80914761
L207519000 80819523
L207566619 80771904
L207661857 80724285
L207757095 80724285
L207899952 80771904
L208471380 81343333
L208471380 80724285
" />
<path d="M207471380 80105238
L207471380 80010000
L207519000 79914761
L207566619 79867142
L207661857 79819523
L207852333 79771904
L208090428 79771904
L208280904 79819523
L208376142 79867142
L208423761 79914761
L208471380 80010000
L208471380 80105238
L208423761 80200476
L208376142 80248095
L208280904 80295714
L208090428 80343333
L207852333 80343333
L207661857 80295714
L207566619 80248095
L207519000 80200476
L207471380 80105238
" />
<path d="M207471380 79152857
L207471380 79057619
L207519000 78962380
L207566619 78914761
L207661857 78867142
L207852333 78819523
L208090428 78819523
L208280904 78867142
L208376142 78914761
L208423761 78962380
L208471380 79057619
L208471380 79152857
L208423761 79248095
L208376142 79295714
L208280904 79343333
L208090428 79390952
L207852333 79390952
L207661857 79343333
L207566619 79295714
L207519000 79248095
L207471380 79152857
" />
<path d="M208471380 77629047
L207804714 77629047
" />
<path d="M207899952 77629047
L207852333 77581428
L207804714 77486190
L207804714 77343333
L207852333 77248095
L207947571 77200476
L208471380 77200476
" />
<path d="M207947571 77200476
L207852333 77152857
L207804714 77057619
L207804714 76914761
L207852333 76819523
L207947571 76771904
L208471380 76771904
" />
<path d="M208471380 76295714
L207804714 76295714
" />
<path d="M207899952 76295714
L207852333 76248095
L207804714 76152857
L207804714 76010000
L207852333 75914761
L207947571 75867142
L208471380 75867142
" />
<path d="M207947571 75867142
L207852333 75819523
L207804714 75724285
L207804714 75581428
L207852333 75486190
L207947571 75438571
L208471380 75438571
" />
</g><path d="M197231000 96520000
L209755420 96520000
" />
<path d="M197231000 63500000
L209755420 63500000
" />
<path d="M209169000 96520000
L209169000 85394524
" />
<path d="M209169000 74625476
L209169000 63500000
" />
<path d="M209169000 96520000
L209755421 95393496
" />
<path d="M209169000 96520000
L208582579 95393496
" />
<path d="M209169000 63500000
L208582579 64626504
" />
<path d="M209169000 63500000
L209755421 64626504
" />
<g transform="rotate(-90.000000 90925000.000000 80010000.000000)">
<text x="90925000.000000" y="80510000.000000"
textLength="9814048.000000" font-size="1333333.000000" lengthAdjust="spacingAndGlyphs"
text-anchor="middle" opacity="0">33.0200 mm</text>
</g>
<g class="stroked-text"><desc>33.0200 mm</desc>
<path d="M90377380 84676666
L90377380 84057619
L90758333 84390952
L90758333 84248095
L90805952 84152857
L90853571 84105238
L90948809 84057619
L91186904 84057619
L91282142 84105238
L91329761 84152857
L91377380 84248095
L91377380 84533809
L91329761 84629047
L91282142 84676666
" />
<path d="M90377380 83724285
L90377380 83105238
L90758333 83438571
L90758333 83295714
L90805952 83200476
L90853571 83152857
L90948809 83105238
L91186904 83105238
L91282142 83152857
L91329761 83200476
L91377380 83295714
L91377380 83581428
L91329761 83676666
L91282142 83724285
" />
<path d="M91282142 82676666
L91329761 82629047
L91377380 82676666
L91329761 82724285
L91282142 82676666
L91377380 82676666
" />
<path d="M90377380 82010000
L90377380 81914761
L90425000 81819523
L90472619 81771904
L90567857 81724285
L90758333 81676666
L90996428 81676666
L91186904 81724285
L91282142 81771904
L91329761 81819523
L91377380 81914761
L91377380 82010000
L91329761 82105238
L91282142 82152857
L91186904 82200476
L90996428 82248095
L90758333 82248095
L90567857 82200476
L90472619 82152857
L90425000 82105238
L90377380 82010000
" />
<path d="M90472619 81295714
L90425000 81248095
L90377380 81152857
L90377380 80914761
L90425000 80819523
L90472619 80771904
L90567857 80724285
L90663095 80724285
L90805952 80771904
L91377380 81343333
L91377380 80724285
" />
<path d="M90377380 80105238
L90377380 80010000
L90425000 79914761
L90472619 79867142
L90567857 79819523
L90758333 79771904
L90996428 79771904
L91186904 79819523
L91282142 79867142
L91329761 79914761
L91377380 80010000
L91377380 80105238
L91329761 80200476
L91282142 80248095
L91186904 80295714
L90996428 80343333
L90758333 80343333
L90567857 80295714
L90472619 80248095
L90425000 80200476
L90377380 80105238
" />
<path d="M90377380 79152857
L90377380 79057619
L90425000 78962380
L90472619 78914761
L90567857 78867142
L90758333 78819523
L90996428 78819523
L91186904 78867142
L91282142 78914761
L91329761 78962380
L91377380 79057619
L91377380 79152857
L91329761 79248095
L91282142 79295714
L91186904 79343333
L90996428 79390952
L90758333 79390952
L90567857 79343333
L90472619 79295714
L90425000 79248095
L90377380 79152857
" />
<path d="M91377380 77629047
L90710714 77629047
" />
<path d="M90805952 77629047
L90758333 77581428
L90710714 77486190
L90710714 77343333
L90758333 77248095
L90853571 77200476
L91377380 77200476
" />
<path d="M90853571 77200476
L90758333 77152857
L90710714 77057619
L90710714 76914761
L90758333 76819523
L90853571 76771904
L91377380 76771904
" />
<path d="M91377380 76295714
L90710714 76295714
" />
<path d="M90805952 76295714
L90758333 76248095
L90710714 76152857
L90710714 76010000
L90758333 75914761
L90853571 75867142
L91377380 75867142
" />
<path d="M90853571 75867142
L90758333 75819523
L90710714 75724285
L90710714 75581428
L90758333 75486190
L90853571 75438571
L91377380 75438571
" />
</g><path d="M101600000 96520000
L91488580 96520000
" />
<path d="M101600000 63500000
L91488580 63500000
" />
<path d="M92075000 96520000
L92075000 85394524
" />
<path d="M92075000 74625476
L92075000 63500000
" />
<path d="M92075000 96520000
L92661421 95393496
" />
<path d="M92075000 96520000
L91488579 95393496
" />
<path d="M92075000 63500000
L91488579 64626504
" />
<path d="M92075000 63500000
L92661421 64626504
" />
<text x="149415500.000000" y="117333000.000000"
textLength="9814048.000000" font-size="1333333.000000" lengthAdjust="spacingAndGlyphs"
text-anchor="middle" opacity="0">95.6310 mm</text>
<g class="stroked-text"><desc>95.6310 mm</desc>
<path d="M144891690 117285380
L145082166 117285380
L145177404 117237761
L145225023 117190142
L145320261 117047285
L145367880 116856809
L145367880 116475857
L145320261 116380619
L145272642 116333000
L145177404 116285380
L144986928 116285380
L144891690 116333000
L144844071 116380619
L144796452 116475857
L144796452 116713952
L144844071 116809190
L144891690 116856809
L144986928 116904428
L145177404 116904428
L145272642 116856809
L145320261 116809190
L145367880 116713952
" />
<path d="M146272642 116285380
L145796452 116285380
L145748833 116761571
L145796452 116713952
L145891690 116666333
L146129785 116666333
L146225023 116713952
L146272642 116761571
L146320261 116856809
L146320261 117094904
L146272642 117190142
L146225023 117237761
L146129785 117285380
L145891690 117285380
L145796452 117237761
L145748833 117190142
" />
<path d="M146748833 117190142
L146796452 117237761
L146748833 117285380
L146701214 117237761
L146748833 117190142
L146748833 117285380
" />
<path d="M147653595 116285380
L147463119 116285380
L147367880 116333000
L147320261 116380619
L147225023 116523476
L147177404 116713952
L147177404 117094904
L147225023 117190142
L147272642 117237761
L147367880 117285380
L147558357 117285380
L147653595 117237761
L147701214 117190142
L147748833 117094904
L147748833 116856809
L147701214 116761571
L147653595 116713952
L147558357 116666333
L147367880 116666333
L147272642 116713952
L147225023 116761571
L147177404 116856809
" />
<path d="M148082166 116285380
L148701214 116285380
L148367880 116666333
L148510738 116666333
L148605976 116713952
L148653595 116761571
L148701214 116856809
L148701214 117094904
L148653595 117190142
L148605976 117237761
L148510738 117285380
L148225023 117285380
L148129785 117237761
L148082166 117190142
" />
<path d="M149653595 117285380
L149082166 117285380
" />
<path d="M149367880 117285380
L149367880 116285380
L149272642 116428238
L149177404 116523476
L149082166 116571095
" />
<path d="M150272642 116285380
L150367880 116285380
L150463119 116333000
L150510738 116380619
L150558357 116475857
L150605976 116666333
L150605976 116904428
L150558357 117094904
L150510738 117190142
L150463119 117237761
L150367880 117285380
L150272642 117285380
L150177404 117237761
L150129785 117190142
L150082166 117094904
L150034547 116904428
L150034547 116666333
L150082166 116475857
L150129785 116380619
L150177404 116333000
L150272642 116285380
" />
<path d="M151796452 117285380
L151796452 116618714
" />
<path d="M151796452 116713952
L151844071 116666333
L151939309 116618714
L152082166 116618714
L152177404 116666333
L152225023 116761571
L152225023 117285380
" />
<path d="M152225023 116761571
L152272642 116666333
L152367880 116618714
L152510738 116618714
L152605976 116666333
L152653595 116761571
L152653595 117285380
" />
<path d="M153129785 117285380
L153129785 116618714
" />
<path d="M153129785 116713952
L153177404 116666333
L153272642 116618714
L153415500 116618714
L153510738 116666333
L153558357 116761571
L153558357 117285380
" />
<path d="M153558357 116761571
L153605976 116666333
L153701214 116618714
L153844071 116618714
L153939309 116666333
L153986928 116761571
L153986928 117285380
" />
</g><path d="M101600000 96520000
L101600000 118569420
" />
<path d="M197231000 96520000
L197231000 118569420
" />
<path d="M101600000 117983000
L144030976 117983000
" />
<path d="M154800024 117983000
L197231000 117983000
" />
<path d="M101600000 117983000
L102726504 118569421
" />
<path d="M101600000 117983000
L102726504 117396579
" />
<path d="M197231000 117983000
L196104496 117396579
" />
<path d="M197231000 117983000
L196104496 118569421
" />
<text x="149415500.000000" y="42022000.000000"
textLength="9814048.000000" font-size="1333333.000000" lengthAdjust="spacingAndGlyphs"
text-anchor="middle" opacity="0">95.6310 mm</text>
<g class="stroked-text"><desc>95.6310 mm</desc>
<path d="M144891690 41974380
L145082166 41974380
L145177404 41926761
L145225023 41879142
L145320261 41736285
L145367880 41545809
L145367880 41164857
L145320261 41069619
L145272642 41022000
L145177404 40974380
L144986928 40974380
L144891690 41022000
L144844071 41069619
L144796452 41164857
L144796452 41402952
L144844071 41498190
L144891690 41545809
L144986928 41593428
L145177404 41593428
L145272642 41545809
L145320261 41498190
L145367880 41402952
" />
<path d="M146272642 40974380
L145796452 40974380
L145748833 41450571
L145796452 41402952
L145891690 41355333
L146129785 41355333
L146225023 41402952
L146272642 41450571
L146320261 41545809
L146320261 41783904
L146272642 41879142
L146225023 41926761
L146129785 41974380
L145891690 41974380
L145796452 41926761
L145748833 41879142
" />
<path d="M146748833 41879142
L146796452 41926761
L146748833 41974380
L146701214 41926761
L146748833 41879142
L146748833 41974380
" />
<path d="M147653595 40974380
L147463119 40974380
L147367880 41022000
L147320261 41069619
L147225023 41212476
L147177404 41402952
L147177404 41783904
L147225023 41879142
L147272642 41926761
L147367880 41974380
L147558357 41974380
L147653595 41926761
L147701214 41879142
L147748833 41783904
L147748833 41545809
L147701214 41450571
L147653595 41402952
L147558357 41355333
L147367880 41355333
L147272642 41402952
L147225023 41450571
L147177404 41545809
" />
<path d="M148082166 40974380
L148701214 40974380
L148367880 41355333
L148510738 41355333
L148605976 41402952
L148653595 41450571
L148701214 41545809
L148701214 41783904
L148653595 41879142
L148605976 41926761
L148510738 41974380
L148225023 41974380
L148129785 41926761
L148082166 41879142
" />
<path d="M149653595 41974380
L149082166 41974380
" />
<path d="M149367880 41974380
L149367880 40974380
L149272642 41117238
L149177404 41212476
L149082166 41260095
" />
<path d="M150272642 40974380
L150367880 40974380
L150463119 41022000
L150510738 41069619
L150558357 41164857
L150605976 41355333
L150605976 41593428
L150558357 41783904
L150510738 41879142
L150463119 41926761
L150367880 41974380
L150272642 41974380
L150177404 41926761
L150129785 41879142
L150082166 41783904
L150034547 41593428
L150034547 41355333
L150082166 41164857
L150129785 41069619
L150177404 41022000
L150272642 40974380
" />
<path d="M151796452 41974380
L151796452 41307714
" />
<path d="M151796452 41402952
L151844071 41355333
L151939309 41307714
L152082166 41307714
L152177404 41355333
L152225023 41450571
L152225023 41974380
" />
<path d="M152225023 41450571
L152272642 41355333
L152367880 41307714
L152510738 41307714
L152605976 41355333
L152653595 41450571
L152653595 41974380
" />
<path d="M153129785 41974380
L153129785 41307714
" />
<path d="M153129785 41402952
L153177404 41355333
L153272642 41307714
L153415500 41307714
L153510738 41355333
L153558357 41450571
L153558357 41974380
" />
<path d="M153558357 41450571
L153605976 41355333
L153701214 41307714
L153844071 41307714
L153939309 41355333
L153986928 41450571
L153986928 41974380
" />
</g><path d="M197231000 63500000
L197231000 42085580
" />
<path d="M101600000 63500000
L101600000 42085580
" />
<path d="M197231000 42672000
L154800024 42672000
" />
<path d="M144030976 42672000
L101600000 42672000
" />
<path d="M197231000 42672000
L196104496 42085579
" />
<path d="M197231000 42672000
L196104496 43258421
" />
<path d="M101600000 42672000
L102726504 43258421
" />
<path d="M101600000 42672000
L102726504 42085579
" />
<g >
</g>
<g >
</g>
<g >
</g>
<g >
</g>
<g >
</g>
<g >
</g>
<g >
</g>
<g >
</g>
<g >
</g>
<g >
</g>
<g >
</g>
<g >
</g>
<g >
</g>
<g >
</g>
<g >
</g>
<g >
</g>
<g >
</g>
<g >
</g>
<g >
</g>
<g >
</g>
<g >
</g>
<g >
</g>
<g >
</g>
<g >
</g>
<g >
</g>
<g >
</g>
<g >
</g>
<g >
</g>
<g >
</g>
<g >
</g>
<g >
</g>
<g >
</g>
<g >
</g>
<g >
</g>
<g >
</g>
<g >
</g>
<g >
</g>
<g >
</g>
<g >
</g>
<g >
</g>
<g >
</g>
<g >
</g>
<g >
</g>
<g >
</g>
<g >
</g>
<g >
</g>
<g >
</g>
<g >
</g>
<g >
</g>
<g >
</g>
<g >
</g>
<g >
</g>
<g >
</g>
<g >
</g>
<g >
</g>
<g >
</g>
<g >
</g>
</g>
<g style="fill:#000000; fill-opacity:0.0; 
stroke:#000000; stroke-width:150000.000000; stroke-opacity:1; 
stroke-linecap:round; stroke-linejoin:round;">
</g>
<g style="fill:#D0D2CD; fill-opacity:0.0; 
stroke:#D0D2CD; stroke-width:150000.000000; stroke-opacity:1; 
stroke-linecap:round; stroke-linejoin:round;">
</g>
<g style="fill:#D0D2CD; fill-opacity:0.0; 
stroke:#D0D2CD; stroke-width:50000.000000; stroke-opacity:1; 
stroke-linecap:round; stroke-linejoin:round;">
<path d="M149098000 103124000
L149004002 103131616
" />
<path d="M122174000.000000 100076000.000000 A13589000.000000 13589000.000000 0.0 0 0 149004001.924586 103131615.982597" />
<path d="M153035000 103124000
L149098000 103124000
" />
<path d="M200533000 63500000
L200533000 96520000
" />
<path d="M98171000.000000 96520000.000000 A3556000.000000 3556000.000000 0.0 0 0 101600080.988835 100073734.312608" />
<path d="M101600000 60071000
L197231000 60071000
" />
<path d="M98171000 63500000
L98171000 96520000
" />
<path d="M101600081 100073734
L122174000 100076000
" />
<path d="M153035000 99949000
L153035000 103124000
" />
<path d="M200533000.000000 63500000.000000 A3429000.000000 3429000.000000 0.0 0 0 197230912.983888 60073349.435014" />
<path d="M197231000.000000 99949001.000000 A3302001.000000 3302001.000000 0.0 0 0 200530560.405279 96520093.984412" />
<path d="M197231000 99949000
L153035000 99949000
" />
<path d="M101600000.000000 60071000.000000 A3429001.000000 3429001.000000 0.0 0 0 98171000.000000 63500000.000000" />
<g >
</g>
<g >
</g>
<g >
</g>
<g >
</g>
<g >
</g>
<g >
</g>
<g >
</g>
<g >
</g>
<g >
</g>
<g >
</g>
<g >
</g>
<g >
</g>
<g >
</g>
<g >
</g>
<g >
</g>
<g >
</g>
<g >
</g>
<g >
</g>
<g >
</g>
<g >
</g>
<g >
</g>
<g >
</g>
<g >
</g>
<g >
</g>
<g >
</g>
<g >
</g>
<g >
</g>
<g >
</g>
<g >
</g>
<g >
</g>
<g >
</g>
<g >
</g>
<g >
</g>
<g >
</g>
<g >
</g>
<g >
</g>
<g >
</g>
<g >
</g>
<g >
</g>
<g >
</g>
<g >
</g>
<g >
</g>
<g >
</g>
<g >
</g>
<g >
</g>
<g >
</g>
<g >
</g>
<g >
</g>
<g >
</g>
<g >
</g>
<g >
</g>
<g >
</g>
<g >
</g>
<g >
</g>
<g >
</g>
<g >
</g>
<g >
</g>
</g> 
</svg>
