%TF.GenerationSoftware,KiCad,Pcbnew,(6.0.0)*%
%TF.CreationDate,2022-05-07T11:17:07+05:30*%
%TF.ProjectId,Motion_Control_Board2.0,4d6f7469-6f6e-45f4-936f-6e74726f6c5f,rev?*%
%TF.SameCoordinates,Original*%
%TF.FileFunction,Profile,NP*%
%FSLAX46Y46*%
G04 Gerber Fmt 4.6, Leading zero omitted, Abs format (unit mm)*
G04 Created by KiCad (PCBNEW (6.0.0)) date 2022-05-07 11:17:07*
%MOMM*%
%LPD*%
G01*
G04 APERTURE LIST*
%TA.AperFunction,Profile*%
%ADD10C,1.964069*%
%TD*%
G04 APERTURE END LIST*
D10*
X75508153Y-59994800D02*
X218262200Y-59994800D01*
X218262200Y-59994800D02*
X218578213Y-60002879D01*
X218578213Y-60002879D02*
X218890077Y-60026857D01*
X218890077Y-60026857D02*
X219197407Y-60066343D01*
X219197407Y-60066343D02*
X219499816Y-60120948D01*
X219499816Y-60120948D02*
X219796920Y-60190280D01*
X219796920Y-60190280D02*
X220088331Y-60273951D01*
X220088331Y-60273951D02*
X220373665Y-60371569D01*
X220373665Y-60371569D02*
X220652535Y-60482746D01*
X220652535Y-60482746D02*
X220924556Y-60607089D01*
X220924556Y-60607089D02*
X221189342Y-60744211D01*
X221189342Y-60744211D02*
X221446506Y-60893719D01*
X221446506Y-60893719D02*
X221695663Y-61055225D01*
X221695663Y-61055225D02*
X221936428Y-61228338D01*
X221936428Y-61228338D02*
X222168414Y-61412667D01*
X222168414Y-61412667D02*
X222391235Y-61607824D01*
X222391235Y-61607824D02*
X222604506Y-61813417D01*
X222604506Y-61813417D02*
X222807841Y-62029057D01*
X222807841Y-62029057D02*
X223000854Y-62254353D01*
X223000854Y-62254353D02*
X223183159Y-62488915D01*
X223183159Y-62488915D02*
X223354370Y-62732353D01*
X223354370Y-62732353D02*
X223514101Y-62984278D01*
X223514101Y-62984278D02*
X223661968Y-63244298D01*
X223661968Y-63244298D02*
X223797582Y-63512024D01*
X223797582Y-63512024D02*
X223920560Y-63787066D01*
X223920560Y-63787066D02*
X224030515Y-64069033D01*
X224030515Y-64069033D02*
X224127061Y-64357536D01*
X224127061Y-64357536D02*
X224209813Y-64652183D01*
X224209813Y-64652183D02*
X224278383Y-64952586D01*
X224278383Y-64952586D02*
X224332388Y-65258354D01*
X224332388Y-65258354D02*
X224371440Y-65569096D01*
X224371440Y-65569096D02*
X224395155Y-65884423D01*
X224395155Y-65884423D02*
X224403145Y-66203945D01*
X224403145Y-66203945D02*
X224403145Y-145866062D01*
X224403145Y-145866062D02*
X224395155Y-146185585D01*
X224395155Y-146185585D02*
X224371440Y-146500913D01*
X224371440Y-146500913D02*
X224332388Y-146811657D01*
X224332388Y-146811657D02*
X224278383Y-147117425D01*
X224278383Y-147117425D02*
X224209813Y-147417829D01*
X224209813Y-147417829D02*
X224127061Y-147712477D01*
X224127061Y-147712477D02*
X224030515Y-148000980D01*
X224030515Y-148000980D02*
X223920560Y-148282948D01*
X223920560Y-148282948D02*
X223797582Y-148557990D01*
X223797582Y-148557990D02*
X223661968Y-148825717D01*
X223661968Y-148825717D02*
X223514101Y-149085737D01*
X223514101Y-149085737D02*
X223354370Y-149337662D01*
X223354370Y-149337662D02*
X223183159Y-149581101D01*
X223183159Y-149581101D02*
X223000854Y-149815663D01*
X223000854Y-149815663D02*
X222807841Y-150040959D01*
X222807841Y-150040959D02*
X222604506Y-150256599D01*
X222604506Y-150256599D02*
X222391235Y-150462192D01*
X222391235Y-150462192D02*
X222168414Y-150657349D01*
X222168414Y-150657349D02*
X221936428Y-150841678D01*
X221936428Y-150841678D02*
X221695663Y-151014791D01*
X221695663Y-151014791D02*
X221446506Y-151176296D01*
X221446506Y-151176296D02*
X221189342Y-151325805D01*
X221189342Y-151325805D02*
X220924556Y-151462926D01*
X220924556Y-151462926D02*
X220652535Y-151587269D01*
X220652535Y-151587269D02*
X220373665Y-151698445D01*
X220373665Y-151698445D02*
X220088331Y-151796064D01*
X220088331Y-151796064D02*
X219796920Y-151879734D01*
X219796920Y-151879734D02*
X219499816Y-151949066D01*
X219499816Y-151949066D02*
X219197407Y-152003671D01*
X219197407Y-152003671D02*
X218890077Y-152043157D01*
X218890077Y-152043157D02*
X218578213Y-152067135D01*
X218578213Y-152067135D02*
X218262200Y-152075214D01*
X218262200Y-152075214D02*
X75508153Y-152075214D01*
X75508153Y-152075214D02*
X75192140Y-152067135D01*
X75192140Y-152067135D02*
X74880276Y-152043157D01*
X74880276Y-152043157D02*
X74572947Y-152003671D01*
X74572947Y-152003671D02*
X74270537Y-151949066D01*
X74270537Y-151949066D02*
X73973434Y-151879734D01*
X73973434Y-151879734D02*
X73682023Y-151796064D01*
X73682023Y-151796064D02*
X73396689Y-151698445D01*
X73396689Y-151698445D02*
X73117819Y-151587269D01*
X73117819Y-151587269D02*
X72845798Y-151462926D01*
X72845798Y-151462926D02*
X72581012Y-151325805D01*
X72581012Y-151325805D02*
X72323848Y-151176296D01*
X72323848Y-151176296D02*
X72074690Y-151014791D01*
X72074690Y-151014791D02*
X71833926Y-150841678D01*
X71833926Y-150841678D02*
X71601940Y-150657349D01*
X71601940Y-150657349D02*
X71379118Y-150462192D01*
X71379118Y-150462192D02*
X71165847Y-150256599D01*
X71165847Y-150256599D02*
X70962512Y-150040959D01*
X70962512Y-150040959D02*
X70769499Y-149815663D01*
X70769499Y-149815663D02*
X70587194Y-149581101D01*
X70587194Y-149581101D02*
X70415982Y-149337662D01*
X70415982Y-149337662D02*
X70256251Y-149085737D01*
X70256251Y-149085737D02*
X70108384Y-148825717D01*
X70108384Y-148825717D02*
X69972769Y-148557990D01*
X69972769Y-148557990D02*
X69849791Y-148282948D01*
X69849791Y-148282948D02*
X69739836Y-148000980D01*
X69739836Y-148000980D02*
X69643290Y-147712477D01*
X69643290Y-147712477D02*
X69560538Y-147417829D01*
X69560538Y-147417829D02*
X69491967Y-147117425D01*
X69491967Y-147117425D02*
X69437963Y-146811657D01*
X69437963Y-146811657D02*
X69398910Y-146500913D01*
X69398910Y-146500913D02*
X69375196Y-146185585D01*
X69375196Y-146185585D02*
X69367205Y-145866062D01*
X69367205Y-145866062D02*
X69367205Y-66203945D01*
X69367205Y-66203945D02*
X69375196Y-65884423D01*
X69375196Y-65884423D02*
X69398910Y-65569096D01*
X69398910Y-65569096D02*
X69437963Y-65258354D01*
X69437963Y-65258354D02*
X69491967Y-64952586D01*
X69491967Y-64952586D02*
X69560538Y-64652183D01*
X69560538Y-64652183D02*
X69643290Y-64357536D01*
X69643290Y-64357536D02*
X69739836Y-64069033D01*
X69739836Y-64069033D02*
X69849791Y-63787066D01*
X69849791Y-63787066D02*
X69972769Y-63512024D01*
X69972769Y-63512024D02*
X70108384Y-63244298D01*
X70108384Y-63244298D02*
X70256251Y-62984278D01*
X70256251Y-62984278D02*
X70415982Y-62732353D01*
X70415982Y-62732353D02*
X70587194Y-62488915D01*
X70587194Y-62488915D02*
X70769499Y-62254353D01*
X70769499Y-62254353D02*
X70962512Y-62029057D01*
X70962512Y-62029057D02*
X71165847Y-61813417D01*
X71165847Y-61813417D02*
X71379118Y-61607824D01*
X71379118Y-61607824D02*
X71601940Y-61412667D01*
X71601940Y-61412667D02*
X71833926Y-61228338D01*
X71833926Y-61228338D02*
X72074690Y-61055225D01*
X72074690Y-61055225D02*
X72323848Y-60893719D01*
X72323848Y-60893719D02*
X72581012Y-60744211D01*
X72581012Y-60744211D02*
X72845798Y-60607089D01*
X72845798Y-60607089D02*
X73117819Y-60482746D01*
X73117819Y-60482746D02*
X73396689Y-60371569D01*
X73396689Y-60371569D02*
X73682023Y-60273951D01*
X73682023Y-60273951D02*
X73973434Y-60190280D01*
X73973434Y-60190280D02*
X74270537Y-60120948D01*
X74270537Y-60120948D02*
X74572947Y-60066343D01*
X74572947Y-60066343D02*
X74880276Y-60026857D01*
X74880276Y-60026857D02*
X75192140Y-60002879D01*
X75192140Y-60002879D02*
X75508153Y-59994800D01*
X75508153Y-59994800D02*
X75508153Y-59994800D01*
M02*
