%TF.GenerationSoftware,KiCad,Pcbnew,(5.1.6)-1*%
%TF.CreationDate,2021-01-04T11:57:39+05:30*%
%TF.ProjectId,JoyStick2,4a6f7953-7469-4636-9b32-2e6b69636164,rev?*%
%TF.SameCoordinates,Original*%
%TF.FileFunction,Soldermask,Bot*%
%TF.FilePolarity,Negative*%
%FSLAX46Y46*%
G04 Gerber Fmt 4.6, Leading zero omitted, Abs format (unit mm)*
G04 Created by KiCad (PCBNEW (5.1.6)-1) date 2021-01-04 11:57:39*
%MOMM*%
%LPD*%
G01*
G04 APERTURE LIST*
%ADD10R,1.800000X1.800000*%
%ADD11O,1.800000X1.800000*%
%ADD12R,1.700000X1.700000*%
%ADD13O,1.700000X1.700000*%
%ADD14C,1.600000*%
%ADD15C,1.878000*%
%ADD16C,2.386000*%
%ADD17R,2.300000X2.300000*%
%ADD18O,2.300000X2.300000*%
%ADD19C,2.100000*%
%ADD20C,2.300000*%
G04 APERTURE END LIST*
D10*
%TO.C,J3*%
X129540000Y-67945000D03*
D11*
X129540000Y-65405000D03*
X132080000Y-67945000D03*
X132080000Y-65405000D03*
X134620000Y-67945000D03*
X134620000Y-65405000D03*
X137160000Y-67945000D03*
X137160000Y-65405000D03*
%TD*%
D12*
%TO.C,U1*%
X115570000Y-83820000D03*
D13*
X148590000Y-76200000D03*
X118110000Y-83820000D03*
X146050000Y-76200000D03*
X120650000Y-83820000D03*
X143510000Y-76200000D03*
X123190000Y-83820000D03*
X140970000Y-76200000D03*
X125730000Y-83820000D03*
X138430000Y-76200000D03*
X128270000Y-83820000D03*
X135890000Y-76200000D03*
X130810000Y-83820000D03*
X133350000Y-76200000D03*
X133350000Y-83820000D03*
X130810000Y-76200000D03*
X135890000Y-83820000D03*
X128270000Y-76200000D03*
X138430000Y-83820000D03*
X125730000Y-76200000D03*
X140970000Y-83820000D03*
X123190000Y-76200000D03*
X143510000Y-83820000D03*
X120650000Y-76200000D03*
X146050000Y-83820000D03*
X118110000Y-76200000D03*
X148590000Y-83820000D03*
X115570000Y-76200000D03*
%TD*%
%TO.C,C1*%
G36*
G01*
X134266250Y-79557500D02*
X133703750Y-79557500D01*
G75*
G02*
X133460000Y-79313750I0J243750D01*
G01*
X133460000Y-78826250D01*
G75*
G02*
X133703750Y-78582500I243750J0D01*
G01*
X134266250Y-78582500D01*
G75*
G02*
X134510000Y-78826250I0J-243750D01*
G01*
X134510000Y-79313750D01*
G75*
G02*
X134266250Y-79557500I-243750J0D01*
G01*
G37*
G36*
G01*
X134266250Y-81132500D02*
X133703750Y-81132500D01*
G75*
G02*
X133460000Y-80888750I0J243750D01*
G01*
X133460000Y-80401250D01*
G75*
G02*
X133703750Y-80157500I243750J0D01*
G01*
X134266250Y-80157500D01*
G75*
G02*
X134510000Y-80401250I0J-243750D01*
G01*
X134510000Y-80888750D01*
G75*
G02*
X134266250Y-81132500I-243750J0D01*
G01*
G37*
%TD*%
%TO.C,C2*%
G36*
G01*
X131091250Y-81132500D02*
X130528750Y-81132500D01*
G75*
G02*
X130285000Y-80888750I0J243750D01*
G01*
X130285000Y-80401250D01*
G75*
G02*
X130528750Y-80157500I243750J0D01*
G01*
X131091250Y-80157500D01*
G75*
G02*
X131335000Y-80401250I0J-243750D01*
G01*
X131335000Y-80888750D01*
G75*
G02*
X131091250Y-81132500I-243750J0D01*
G01*
G37*
G36*
G01*
X131091250Y-79557500D02*
X130528750Y-79557500D01*
G75*
G02*
X130285000Y-79313750I0J243750D01*
G01*
X130285000Y-78826250D01*
G75*
G02*
X130528750Y-78582500I243750J0D01*
G01*
X131091250Y-78582500D01*
G75*
G02*
X131335000Y-78826250I0J-243750D01*
G01*
X131335000Y-79313750D01*
G75*
G02*
X131091250Y-79557500I-243750J0D01*
G01*
G37*
%TD*%
%TO.C,C3*%
G36*
G01*
X126011250Y-81285000D02*
X125448750Y-81285000D01*
G75*
G02*
X125205000Y-81041250I0J243750D01*
G01*
X125205000Y-80553750D01*
G75*
G02*
X125448750Y-80310000I243750J0D01*
G01*
X126011250Y-80310000D01*
G75*
G02*
X126255000Y-80553750I0J-243750D01*
G01*
X126255000Y-81041250D01*
G75*
G02*
X126011250Y-81285000I-243750J0D01*
G01*
G37*
G36*
G01*
X126011250Y-79710000D02*
X125448750Y-79710000D01*
G75*
G02*
X125205000Y-79466250I0J243750D01*
G01*
X125205000Y-78978750D01*
G75*
G02*
X125448750Y-78735000I243750J0D01*
G01*
X126011250Y-78735000D01*
G75*
G02*
X126255000Y-78978750I0J-243750D01*
G01*
X126255000Y-79466250D01*
G75*
G02*
X126011250Y-79710000I-243750J0D01*
G01*
G37*
%TD*%
D14*
%TO.C,Y1*%
X133985000Y-90170000D03*
X138865000Y-90170000D03*
%TD*%
D15*
%TO.C,U2*%
X86995000Y-80645000D03*
X86995000Y-78105000D03*
X86995000Y-75565000D03*
D16*
X104775000Y-71437500D03*
X104775000Y-84772500D03*
X89535000Y-84772500D03*
X89535000Y-71437500D03*
D15*
X99695000Y-88265000D03*
X97155000Y-88265000D03*
X94615000Y-88265000D03*
X100330000Y-70485000D03*
X93980000Y-70485000D03*
X100330000Y-65405000D03*
X93980000Y-65405000D03*
%TD*%
%TO.C,U3*%
X163830000Y-66040000D03*
X170180000Y-66040000D03*
X163830000Y-71120000D03*
X170180000Y-71120000D03*
X164465000Y-88900000D03*
X167005000Y-88900000D03*
X169545000Y-88900000D03*
D16*
X159385000Y-72072500D03*
X159385000Y-85407500D03*
X174625000Y-85407500D03*
X174625000Y-72072500D03*
D15*
X156845000Y-76200000D03*
X156845000Y-78740000D03*
X156845000Y-81280000D03*
%TD*%
D17*
%TO.C,D1*%
X81915000Y-104775000D03*
D18*
X92075000Y-104775000D03*
%TD*%
D10*
%TO.C,J1*%
X92075000Y-110490000D03*
D11*
X89535000Y-110490000D03*
%TD*%
%TO.C,R1*%
G36*
G01*
X119585000Y-79528750D02*
X119585000Y-80491250D01*
G75*
G02*
X119316250Y-80760000I-268750J0D01*
G01*
X118778750Y-80760000D01*
G75*
G02*
X118510000Y-80491250I0J268750D01*
G01*
X118510000Y-79528750D01*
G75*
G02*
X118778750Y-79260000I268750J0D01*
G01*
X119316250Y-79260000D01*
G75*
G02*
X119585000Y-79528750I0J-268750D01*
G01*
G37*
G36*
G01*
X117710000Y-79528750D02*
X117710000Y-80491250D01*
G75*
G02*
X117441250Y-80760000I-268750J0D01*
G01*
X116903750Y-80760000D01*
G75*
G02*
X116635000Y-80491250I0J268750D01*
G01*
X116635000Y-79528750D01*
G75*
G02*
X116903750Y-79260000I268750J0D01*
G01*
X117441250Y-79260000D01*
G75*
G02*
X117710000Y-79528750I0J-268750D01*
G01*
G37*
%TD*%
D19*
%TO.C,SW1*%
X114300000Y-68635000D03*
X114300000Y-64135000D03*
X120800000Y-68635000D03*
X120800000Y-64135000D03*
%TD*%
%TO.C,SW2*%
X120800000Y-90170000D03*
X120800000Y-94670000D03*
X114300000Y-90170000D03*
X114300000Y-94670000D03*
%TD*%
%TO.C,SW3*%
X145415000Y-68635000D03*
X145415000Y-64135000D03*
X151915000Y-68635000D03*
X151915000Y-64135000D03*
%TD*%
%TO.C,SW4*%
X152550000Y-90170000D03*
X152550000Y-94670000D03*
X146050000Y-90170000D03*
X146050000Y-94670000D03*
%TD*%
D10*
%TO.C,J2*%
X94615000Y-55880000D03*
D11*
X97155000Y-55880000D03*
X99695000Y-55880000D03*
%TD*%
D20*
%TO.C,H1*%
X98425000Y-47625000D03*
%TD*%
%TO.C,H2*%
X73025000Y-117475000D03*
%TD*%
%TO.C,H3*%
X168275000Y-47625000D03*
%TD*%
%TO.C,H4*%
X193675000Y-117475000D03*
%TD*%
M02*
