%TF.GenerationSoftware,KiCad,Pcbnew,(5.1.6)-1*%
%TF.CreationDate,2021-01-04T11:57:39+05:30*%
%TF.ProjectId,JoyStick2,4a6f7953-7469-4636-9b32-2e6b69636164,rev?*%
%TF.SameCoordinates,Original*%
%TF.FileFunction,Legend,Bot*%
%TF.FilePolarity,Positive*%
%FSLAX46Y46*%
G04 Gerber Fmt 4.6, Leading zero omitted, Abs format (unit mm)*
G04 Created by KiCad (PCBNEW (5.1.6)-1) date 2021-01-04 11:57:39*
%MOMM*%
%LPD*%
G01*
G04 APERTURE LIST*
%ADD10C,0.150000*%
%ADD11C,0.120000*%
G04 APERTURE END LIST*
D10*
X90296904Y-107450000D02*
X90392142Y-107402380D01*
X90535000Y-107402380D01*
X90677857Y-107450000D01*
X90773095Y-107545238D01*
X90820714Y-107640476D01*
X90868333Y-107830952D01*
X90868333Y-107973809D01*
X90820714Y-108164285D01*
X90773095Y-108259523D01*
X90677857Y-108354761D01*
X90535000Y-108402380D01*
X90439761Y-108402380D01*
X90296904Y-108354761D01*
X90249285Y-108307142D01*
X90249285Y-107973809D01*
X90439761Y-107973809D01*
X89820714Y-108402380D02*
X89820714Y-107402380D01*
X89249285Y-108402380D01*
X89249285Y-107402380D01*
X88773095Y-108402380D02*
X88773095Y-107402380D01*
X88535000Y-107402380D01*
X88392142Y-107450000D01*
X88296904Y-107545238D01*
X88249285Y-107640476D01*
X88201666Y-107830952D01*
X88201666Y-107973809D01*
X88249285Y-108164285D01*
X88296904Y-108259523D01*
X88392142Y-108354761D01*
X88535000Y-108402380D01*
X88773095Y-108402380D01*
X93329047Y-108402380D02*
X93138571Y-108402380D01*
X93043333Y-108354761D01*
X92995714Y-108307142D01*
X92900476Y-108164285D01*
X92852857Y-107973809D01*
X92852857Y-107592857D01*
X92900476Y-107497619D01*
X92948095Y-107450000D01*
X93043333Y-107402380D01*
X93233809Y-107402380D01*
X93329047Y-107450000D01*
X93376666Y-107497619D01*
X93424285Y-107592857D01*
X93424285Y-107830952D01*
X93376666Y-107926190D01*
X93329047Y-107973809D01*
X93233809Y-108021428D01*
X93043333Y-108021428D01*
X92948095Y-107973809D01*
X92900476Y-107926190D01*
X92852857Y-107830952D01*
X92567142Y-107402380D02*
X92233809Y-108402380D01*
X91900476Y-107402380D01*
D11*
%TO.C,C1*%
X134495000Y-80020279D02*
X134495000Y-79694721D01*
X133475000Y-80020279D02*
X133475000Y-79694721D01*
%TO.C,C2*%
X130300000Y-80020279D02*
X130300000Y-79694721D01*
X131320000Y-80020279D02*
X131320000Y-79694721D01*
%TO.C,C3*%
X125220000Y-80172779D02*
X125220000Y-79847221D01*
X126240000Y-80172779D02*
X126240000Y-79847221D01*
%TO.C,R1*%
X118368578Y-79300000D02*
X117851422Y-79300000D01*
X118368578Y-80720000D02*
X117851422Y-80720000D01*
%TO.C,C1*%
D10*
X135772142Y-79690833D02*
X135819761Y-79643214D01*
X135867380Y-79500357D01*
X135867380Y-79405119D01*
X135819761Y-79262261D01*
X135724523Y-79167023D01*
X135629285Y-79119404D01*
X135438809Y-79071785D01*
X135295952Y-79071785D01*
X135105476Y-79119404D01*
X135010238Y-79167023D01*
X134915000Y-79262261D01*
X134867380Y-79405119D01*
X134867380Y-79500357D01*
X134915000Y-79643214D01*
X134962619Y-79690833D01*
X135867380Y-80643214D02*
X135867380Y-80071785D01*
X135867380Y-80357500D02*
X134867380Y-80357500D01*
X135010238Y-80262261D01*
X135105476Y-80167023D01*
X135153095Y-80071785D01*
%TO.C,C2*%
X128627142Y-79843333D02*
X128674761Y-79795714D01*
X128722380Y-79652857D01*
X128722380Y-79557619D01*
X128674761Y-79414761D01*
X128579523Y-79319523D01*
X128484285Y-79271904D01*
X128293809Y-79224285D01*
X128150952Y-79224285D01*
X127960476Y-79271904D01*
X127865238Y-79319523D01*
X127770000Y-79414761D01*
X127722380Y-79557619D01*
X127722380Y-79652857D01*
X127770000Y-79795714D01*
X127817619Y-79843333D01*
X127817619Y-80224285D02*
X127770000Y-80271904D01*
X127722380Y-80367142D01*
X127722380Y-80605238D01*
X127770000Y-80700476D01*
X127817619Y-80748095D01*
X127912857Y-80795714D01*
X128008095Y-80795714D01*
X128150952Y-80748095D01*
X128722380Y-80176666D01*
X128722380Y-80795714D01*
%TO.C,C3*%
X123547142Y-79690833D02*
X123594761Y-79643214D01*
X123642380Y-79500357D01*
X123642380Y-79405119D01*
X123594761Y-79262261D01*
X123499523Y-79167023D01*
X123404285Y-79119404D01*
X123213809Y-79071785D01*
X123070952Y-79071785D01*
X122880476Y-79119404D01*
X122785238Y-79167023D01*
X122690000Y-79262261D01*
X122642380Y-79405119D01*
X122642380Y-79500357D01*
X122690000Y-79643214D01*
X122737619Y-79690833D01*
X122642380Y-80024166D02*
X122642380Y-80643214D01*
X123023333Y-80309880D01*
X123023333Y-80452738D01*
X123070952Y-80547976D01*
X123118571Y-80595595D01*
X123213809Y-80643214D01*
X123451904Y-80643214D01*
X123547142Y-80595595D01*
X123594761Y-80547976D01*
X123642380Y-80452738D01*
X123642380Y-80167023D01*
X123594761Y-80071785D01*
X123547142Y-80024166D01*
%TO.C,R1*%
X118276666Y-78812380D02*
X118610000Y-78336190D01*
X118848095Y-78812380D02*
X118848095Y-77812380D01*
X118467142Y-77812380D01*
X118371904Y-77860000D01*
X118324285Y-77907619D01*
X118276666Y-78002857D01*
X118276666Y-78145714D01*
X118324285Y-78240952D01*
X118371904Y-78288571D01*
X118467142Y-78336190D01*
X118848095Y-78336190D01*
X117324285Y-78812380D02*
X117895714Y-78812380D01*
X117610000Y-78812380D02*
X117610000Y-77812380D01*
X117705238Y-77955238D01*
X117800476Y-78050476D01*
X117895714Y-78098095D01*
%TD*%
M02*
