%TF.GenerationSoftware,KiCad,Pcbnew,(5.1.6)-1*%
%TF.CreationDate,2021-01-04T11:57:39+05:30*%
%TF.ProjectId,JoyStick2,4a6f7953-7469-4636-9b32-2e6b69636164,rev?*%
%TF.SameCoordinates,Original*%
%TF.FileFunction,Paste,Top*%
%TF.FilePolarity,Positive*%
%FSLAX46Y46*%
G04 Gerber Fmt 4.6, Leading zero omitted, Abs format (unit mm)*
G04 Created by KiCad (PCBNEW (5.1.6)-1) date 2021-01-04 11:57:39*
%MOMM*%
%LPD*%
G01*
G04 APERTURE LIST*
%ADD10R,2.000000X1.500000*%
%ADD11R,2.000000X3.800000*%
G04 APERTURE END LIST*
%TO.C,C4*%
G36*
G01*
X132847500Y-94993750D02*
X132847500Y-95506250D01*
G75*
G02*
X132628750Y-95725000I-218750J0D01*
G01*
X132191250Y-95725000D01*
G75*
G02*
X131972500Y-95506250I0J218750D01*
G01*
X131972500Y-94993750D01*
G75*
G02*
X132191250Y-94775000I218750J0D01*
G01*
X132628750Y-94775000D01*
G75*
G02*
X132847500Y-94993750I0J-218750D01*
G01*
G37*
G36*
G01*
X134422500Y-94993750D02*
X134422500Y-95506250D01*
G75*
G02*
X134203750Y-95725000I-218750J0D01*
G01*
X133766250Y-95725000D01*
G75*
G02*
X133547500Y-95506250I0J218750D01*
G01*
X133547500Y-94993750D01*
G75*
G02*
X133766250Y-94775000I218750J0D01*
G01*
X134203750Y-94775000D01*
G75*
G02*
X134422500Y-94993750I0J-218750D01*
G01*
G37*
%TD*%
%TO.C,C5*%
G36*
G01*
X140137500Y-94993750D02*
X140137500Y-95506250D01*
G75*
G02*
X139918750Y-95725000I-218750J0D01*
G01*
X139481250Y-95725000D01*
G75*
G02*
X139262500Y-95506250I0J218750D01*
G01*
X139262500Y-94993750D01*
G75*
G02*
X139481250Y-94775000I218750J0D01*
G01*
X139918750Y-94775000D01*
G75*
G02*
X140137500Y-94993750I0J-218750D01*
G01*
G37*
G36*
G01*
X138562500Y-94993750D02*
X138562500Y-95506250D01*
G75*
G02*
X138343750Y-95725000I-218750J0D01*
G01*
X137906250Y-95725000D01*
G75*
G02*
X137687500Y-95506250I0J218750D01*
G01*
X137687500Y-94993750D01*
G75*
G02*
X137906250Y-94775000I218750J0D01*
G01*
X138343750Y-94775000D01*
G75*
G02*
X138562500Y-94993750I0J-218750D01*
G01*
G37*
%TD*%
%TO.C,C6*%
G36*
G01*
X94792500Y-94436250D02*
X94792500Y-93523750D01*
G75*
G02*
X95036250Y-93280000I243750J0D01*
G01*
X95523750Y-93280000D01*
G75*
G02*
X95767500Y-93523750I0J-243750D01*
G01*
X95767500Y-94436250D01*
G75*
G02*
X95523750Y-94680000I-243750J0D01*
G01*
X95036250Y-94680000D01*
G75*
G02*
X94792500Y-94436250I0J243750D01*
G01*
G37*
G36*
G01*
X96667500Y-94436250D02*
X96667500Y-93523750D01*
G75*
G02*
X96911250Y-93280000I243750J0D01*
G01*
X97398750Y-93280000D01*
G75*
G02*
X97642500Y-93523750I0J-243750D01*
G01*
X97642500Y-94436250D01*
G75*
G02*
X97398750Y-94680000I-243750J0D01*
G01*
X96911250Y-94680000D01*
G75*
G02*
X96667500Y-94436250I0J243750D01*
G01*
G37*
%TD*%
%TO.C,C7*%
G36*
G01*
X171967500Y-93523750D02*
X171967500Y-94436250D01*
G75*
G02*
X171723750Y-94680000I-243750J0D01*
G01*
X171236250Y-94680000D01*
G75*
G02*
X170992500Y-94436250I0J243750D01*
G01*
X170992500Y-93523750D01*
G75*
G02*
X171236250Y-93280000I243750J0D01*
G01*
X171723750Y-93280000D01*
G75*
G02*
X171967500Y-93523750I0J-243750D01*
G01*
G37*
G36*
G01*
X173842500Y-93523750D02*
X173842500Y-94436250D01*
G75*
G02*
X173598750Y-94680000I-243750J0D01*
G01*
X173111250Y-94680000D01*
G75*
G02*
X172867500Y-94436250I0J243750D01*
G01*
X172867500Y-93523750D01*
G75*
G02*
X173111250Y-93280000I243750J0D01*
G01*
X173598750Y-93280000D01*
G75*
G02*
X173842500Y-93523750I0J-243750D01*
G01*
G37*
%TD*%
%TO.C,C8*%
G36*
G01*
X96717500Y-96776250D02*
X96717500Y-96263750D01*
G75*
G02*
X96936250Y-96045000I218750J0D01*
G01*
X97373750Y-96045000D01*
G75*
G02*
X97592500Y-96263750I0J-218750D01*
G01*
X97592500Y-96776250D01*
G75*
G02*
X97373750Y-96995000I-218750J0D01*
G01*
X96936250Y-96995000D01*
G75*
G02*
X96717500Y-96776250I0J218750D01*
G01*
G37*
G36*
G01*
X95142500Y-96776250D02*
X95142500Y-96263750D01*
G75*
G02*
X95361250Y-96045000I218750J0D01*
G01*
X95798750Y-96045000D01*
G75*
G02*
X96017500Y-96263750I0J-218750D01*
G01*
X96017500Y-96776250D01*
G75*
G02*
X95798750Y-96995000I-218750J0D01*
G01*
X95361250Y-96995000D01*
G75*
G02*
X95142500Y-96776250I0J218750D01*
G01*
G37*
%TD*%
%TO.C,C9*%
G36*
G01*
X171887500Y-96263750D02*
X171887500Y-96776250D01*
G75*
G02*
X171668750Y-96995000I-218750J0D01*
G01*
X171231250Y-96995000D01*
G75*
G02*
X171012500Y-96776250I0J218750D01*
G01*
X171012500Y-96263750D01*
G75*
G02*
X171231250Y-96045000I218750J0D01*
G01*
X171668750Y-96045000D01*
G75*
G02*
X171887500Y-96263750I0J-218750D01*
G01*
G37*
G36*
G01*
X173462500Y-96263750D02*
X173462500Y-96776250D01*
G75*
G02*
X173243750Y-96995000I-218750J0D01*
G01*
X172806250Y-96995000D01*
G75*
G02*
X172587500Y-96776250I0J218750D01*
G01*
X172587500Y-96263750D01*
G75*
G02*
X172806250Y-96045000I218750J0D01*
G01*
X173243750Y-96045000D01*
G75*
G02*
X173462500Y-96263750I0J-218750D01*
G01*
G37*
%TD*%
%TO.C,C10*%
G36*
G01*
X96667500Y-100151250D02*
X96667500Y-99238750D01*
G75*
G02*
X96911250Y-98995000I243750J0D01*
G01*
X97398750Y-98995000D01*
G75*
G02*
X97642500Y-99238750I0J-243750D01*
G01*
X97642500Y-100151250D01*
G75*
G02*
X97398750Y-100395000I-243750J0D01*
G01*
X96911250Y-100395000D01*
G75*
G02*
X96667500Y-100151250I0J243750D01*
G01*
G37*
G36*
G01*
X94792500Y-100151250D02*
X94792500Y-99238750D01*
G75*
G02*
X95036250Y-98995000I243750J0D01*
G01*
X95523750Y-98995000D01*
G75*
G02*
X95767500Y-99238750I0J-243750D01*
G01*
X95767500Y-100151250D01*
G75*
G02*
X95523750Y-100395000I-243750J0D01*
G01*
X95036250Y-100395000D01*
G75*
G02*
X94792500Y-100151250I0J243750D01*
G01*
G37*
%TD*%
%TO.C,C11*%
G36*
G01*
X173842500Y-99238750D02*
X173842500Y-100151250D01*
G75*
G02*
X173598750Y-100395000I-243750J0D01*
G01*
X173111250Y-100395000D01*
G75*
G02*
X172867500Y-100151250I0J243750D01*
G01*
X172867500Y-99238750D01*
G75*
G02*
X173111250Y-98995000I243750J0D01*
G01*
X173598750Y-98995000D01*
G75*
G02*
X173842500Y-99238750I0J-243750D01*
G01*
G37*
G36*
G01*
X171967500Y-99238750D02*
X171967500Y-100151250D01*
G75*
G02*
X171723750Y-100395000I-243750J0D01*
G01*
X171236250Y-100395000D01*
G75*
G02*
X170992500Y-100151250I0J243750D01*
G01*
X170992500Y-99238750D01*
G75*
G02*
X171236250Y-98995000I243750J0D01*
G01*
X171723750Y-98995000D01*
G75*
G02*
X171967500Y-99238750I0J-243750D01*
G01*
G37*
%TD*%
%TO.C,C12*%
G36*
G01*
X95142500Y-102491250D02*
X95142500Y-101978750D01*
G75*
G02*
X95361250Y-101760000I218750J0D01*
G01*
X95798750Y-101760000D01*
G75*
G02*
X96017500Y-101978750I0J-218750D01*
G01*
X96017500Y-102491250D01*
G75*
G02*
X95798750Y-102710000I-218750J0D01*
G01*
X95361250Y-102710000D01*
G75*
G02*
X95142500Y-102491250I0J218750D01*
G01*
G37*
G36*
G01*
X96717500Y-102491250D02*
X96717500Y-101978750D01*
G75*
G02*
X96936250Y-101760000I218750J0D01*
G01*
X97373750Y-101760000D01*
G75*
G02*
X97592500Y-101978750I0J-218750D01*
G01*
X97592500Y-102491250D01*
G75*
G02*
X97373750Y-102710000I-218750J0D01*
G01*
X96936250Y-102710000D01*
G75*
G02*
X96717500Y-102491250I0J218750D01*
G01*
G37*
%TD*%
%TO.C,C13*%
G36*
G01*
X173462500Y-101978750D02*
X173462500Y-102491250D01*
G75*
G02*
X173243750Y-102710000I-218750J0D01*
G01*
X172806250Y-102710000D01*
G75*
G02*
X172587500Y-102491250I0J218750D01*
G01*
X172587500Y-101978750D01*
G75*
G02*
X172806250Y-101760000I218750J0D01*
G01*
X173243750Y-101760000D01*
G75*
G02*
X173462500Y-101978750I0J-218750D01*
G01*
G37*
G36*
G01*
X171887500Y-101978750D02*
X171887500Y-102491250D01*
G75*
G02*
X171668750Y-102710000I-218750J0D01*
G01*
X171231250Y-102710000D01*
G75*
G02*
X171012500Y-102491250I0J218750D01*
G01*
X171012500Y-101978750D01*
G75*
G02*
X171231250Y-101760000I218750J0D01*
G01*
X171668750Y-101760000D01*
G75*
G02*
X171887500Y-101978750I0J-218750D01*
G01*
G37*
%TD*%
D10*
%TO.C,U4*%
X90755000Y-100090000D03*
X90755000Y-95490000D03*
X90755000Y-97790000D03*
D11*
X84455000Y-97790000D03*
%TD*%
%TO.C,U5*%
X184150000Y-97155000D03*
D10*
X177850000Y-97155000D03*
X177850000Y-99455000D03*
X177850000Y-94855000D03*
%TD*%
%TO.C,R2*%
G36*
G01*
X165427500Y-63321250D02*
X165427500Y-62408750D01*
G75*
G02*
X165671250Y-62165000I243750J0D01*
G01*
X166158750Y-62165000D01*
G75*
G02*
X166402500Y-62408750I0J-243750D01*
G01*
X166402500Y-63321250D01*
G75*
G02*
X166158750Y-63565000I-243750J0D01*
G01*
X165671250Y-63565000D01*
G75*
G02*
X165427500Y-63321250I0J243750D01*
G01*
G37*
G36*
G01*
X167302500Y-63321250D02*
X167302500Y-62408750D01*
G75*
G02*
X167546250Y-62165000I243750J0D01*
G01*
X168033750Y-62165000D01*
G75*
G02*
X168277500Y-62408750I0J-243750D01*
G01*
X168277500Y-63321250D01*
G75*
G02*
X168033750Y-63565000I-243750J0D01*
G01*
X167546250Y-63565000D01*
G75*
G02*
X167302500Y-63321250I0J243750D01*
G01*
G37*
%TD*%
%TO.C,R3*%
G36*
G01*
X97605000Y-62686250D02*
X97605000Y-61773750D01*
G75*
G02*
X97848750Y-61530000I243750J0D01*
G01*
X98336250Y-61530000D01*
G75*
G02*
X98580000Y-61773750I0J-243750D01*
G01*
X98580000Y-62686250D01*
G75*
G02*
X98336250Y-62930000I-243750J0D01*
G01*
X97848750Y-62930000D01*
G75*
G02*
X97605000Y-62686250I0J243750D01*
G01*
G37*
G36*
G01*
X95730000Y-62686250D02*
X95730000Y-61773750D01*
G75*
G02*
X95973750Y-61530000I243750J0D01*
G01*
X96461250Y-61530000D01*
G75*
G02*
X96705000Y-61773750I0J-243750D01*
G01*
X96705000Y-62686250D01*
G75*
G02*
X96461250Y-62930000I-243750J0D01*
G01*
X95973750Y-62930000D01*
G75*
G02*
X95730000Y-62686250I0J243750D01*
G01*
G37*
%TD*%
%TO.C,R4*%
G36*
G01*
X119830000Y-60781250D02*
X119830000Y-59868750D01*
G75*
G02*
X120073750Y-59625000I243750J0D01*
G01*
X120561250Y-59625000D01*
G75*
G02*
X120805000Y-59868750I0J-243750D01*
G01*
X120805000Y-60781250D01*
G75*
G02*
X120561250Y-61025000I-243750J0D01*
G01*
X120073750Y-61025000D01*
G75*
G02*
X119830000Y-60781250I0J243750D01*
G01*
G37*
G36*
G01*
X117955000Y-60781250D02*
X117955000Y-59868750D01*
G75*
G02*
X118198750Y-59625000I243750J0D01*
G01*
X118686250Y-59625000D01*
G75*
G02*
X118930000Y-59868750I0J-243750D01*
G01*
X118930000Y-60781250D01*
G75*
G02*
X118686250Y-61025000I-243750J0D01*
G01*
X118198750Y-61025000D01*
G75*
G02*
X117955000Y-60781250I0J243750D01*
G01*
G37*
%TD*%
%TO.C,R5*%
G36*
G01*
X146530000Y-60781250D02*
X146530000Y-59868750D01*
G75*
G02*
X146773750Y-59625000I243750J0D01*
G01*
X147261250Y-59625000D01*
G75*
G02*
X147505000Y-59868750I0J-243750D01*
G01*
X147505000Y-60781250D01*
G75*
G02*
X147261250Y-61025000I-243750J0D01*
G01*
X146773750Y-61025000D01*
G75*
G02*
X146530000Y-60781250I0J243750D01*
G01*
G37*
G36*
G01*
X148405000Y-60781250D02*
X148405000Y-59868750D01*
G75*
G02*
X148648750Y-59625000I243750J0D01*
G01*
X149136250Y-59625000D01*
G75*
G02*
X149380000Y-59868750I0J-243750D01*
G01*
X149380000Y-60781250D01*
G75*
G02*
X149136250Y-61025000I-243750J0D01*
G01*
X148648750Y-61025000D01*
G75*
G02*
X148405000Y-60781250I0J243750D01*
G01*
G37*
%TD*%
%TO.C,R6*%
G36*
G01*
X117955000Y-98881250D02*
X117955000Y-97968750D01*
G75*
G02*
X118198750Y-97725000I243750J0D01*
G01*
X118686250Y-97725000D01*
G75*
G02*
X118930000Y-97968750I0J-243750D01*
G01*
X118930000Y-98881250D01*
G75*
G02*
X118686250Y-99125000I-243750J0D01*
G01*
X118198750Y-99125000D01*
G75*
G02*
X117955000Y-98881250I0J243750D01*
G01*
G37*
G36*
G01*
X119830000Y-98881250D02*
X119830000Y-97968750D01*
G75*
G02*
X120073750Y-97725000I243750J0D01*
G01*
X120561250Y-97725000D01*
G75*
G02*
X120805000Y-97968750I0J-243750D01*
G01*
X120805000Y-98881250D01*
G75*
G02*
X120561250Y-99125000I-243750J0D01*
G01*
X120073750Y-99125000D01*
G75*
G02*
X119830000Y-98881250I0J243750D01*
G01*
G37*
%TD*%
%TO.C,R7*%
G36*
G01*
X149675000Y-98881250D02*
X149675000Y-97968750D01*
G75*
G02*
X149918750Y-97725000I243750J0D01*
G01*
X150406250Y-97725000D01*
G75*
G02*
X150650000Y-97968750I0J-243750D01*
G01*
X150650000Y-98881250D01*
G75*
G02*
X150406250Y-99125000I-243750J0D01*
G01*
X149918750Y-99125000D01*
G75*
G02*
X149675000Y-98881250I0J243750D01*
G01*
G37*
G36*
G01*
X147800000Y-98881250D02*
X147800000Y-97968750D01*
G75*
G02*
X148043750Y-97725000I243750J0D01*
G01*
X148531250Y-97725000D01*
G75*
G02*
X148775000Y-97968750I0J-243750D01*
G01*
X148775000Y-98881250D01*
G75*
G02*
X148531250Y-99125000I-243750J0D01*
G01*
X148043750Y-99125000D01*
G75*
G02*
X147800000Y-98881250I0J243750D01*
G01*
G37*
%TD*%
M02*
