%TF.GenerationSoftware,KiCad,Pcbnew,(6.0.0)*%
%TF.CreationDate,2023-01-11T18:06:36+05:30*%
%TF.ProjectId,STM32+Rf,53544d33-322b-4526-962e-6b696361645f,rev?*%
%TF.SameCoordinates,Original*%
%TF.FileFunction,Legend,Top*%
%TF.FilePolarity,Positive*%
%FSLAX46Y46*%
G04 Gerber Fmt 4.6, Leading zero omitted, Abs format (unit mm)*
G04 Created by KiCad (PCBNEW (6.0.0)) date 2023-01-11 18:06:36*
%MOMM*%
%LPD*%
G01*
G04 APERTURE LIST*
%ADD10C,0.150000*%
%ADD11C,0.120000*%
G04 APERTURE END LIST*
D10*
%TO.C,U4*%
X141803980Y-122326304D02*
X142613504Y-122326304D01*
X142708742Y-122278685D01*
X142756361Y-122231066D01*
X142803980Y-122135828D01*
X142803980Y-121945352D01*
X142756361Y-121850114D01*
X142708742Y-121802495D01*
X142613504Y-121754876D01*
X141803980Y-121754876D01*
X142137314Y-120850114D02*
X142803980Y-120850114D01*
X141756361Y-121088209D02*
X142470647Y-121326304D01*
X142470647Y-120707257D01*
%TO.C,Y1*%
X146523809Y-129576190D02*
X146523809Y-130052380D01*
X146190476Y-129052380D02*
X146523809Y-129576190D01*
X146857142Y-129052380D01*
X147714285Y-130052380D02*
X147142857Y-130052380D01*
X147428571Y-130052380D02*
X147428571Y-129052380D01*
X147333333Y-129195238D01*
X147238095Y-129290476D01*
X147142857Y-129338095D01*
%TO.C,U3*%
X125845580Y-118174804D02*
X126655104Y-118174804D01*
X126750342Y-118127185D01*
X126797961Y-118079566D01*
X126845580Y-117984328D01*
X126845580Y-117793852D01*
X126797961Y-117698614D01*
X126750342Y-117650995D01*
X126655104Y-117603376D01*
X125845580Y-117603376D01*
X125845580Y-117222423D02*
X125845580Y-116603376D01*
X126226533Y-116936709D01*
X126226533Y-116793852D01*
X126274152Y-116698614D01*
X126321771Y-116650995D01*
X126417009Y-116603376D01*
X126655104Y-116603376D01*
X126750342Y-116650995D01*
X126797961Y-116698614D01*
X126845580Y-116793852D01*
X126845580Y-117079566D01*
X126797961Y-117174804D01*
X126750342Y-117222423D01*
%TO.C,U2*%
X128075595Y-123302380D02*
X128075595Y-124111904D01*
X128123214Y-124207142D01*
X128170833Y-124254761D01*
X128266071Y-124302380D01*
X128456547Y-124302380D01*
X128551785Y-124254761D01*
X128599404Y-124207142D01*
X128647023Y-124111904D01*
X128647023Y-123302380D01*
X129075595Y-123397619D02*
X129123214Y-123350000D01*
X129218452Y-123302380D01*
X129456547Y-123302380D01*
X129551785Y-123350000D01*
X129599404Y-123397619D01*
X129647023Y-123492857D01*
X129647023Y-123588095D01*
X129599404Y-123730952D01*
X129027976Y-124302380D01*
X129647023Y-124302380D01*
%TO.C,U1*%
X149638095Y-118302380D02*
X149638095Y-119111904D01*
X149685714Y-119207142D01*
X149733333Y-119254761D01*
X149828571Y-119302380D01*
X150019047Y-119302380D01*
X150114285Y-119254761D01*
X150161904Y-119207142D01*
X150209523Y-119111904D01*
X150209523Y-118302380D01*
X151209523Y-119302380D02*
X150638095Y-119302380D01*
X150923809Y-119302380D02*
X150923809Y-118302380D01*
X150828571Y-118445238D01*
X150733333Y-118540476D01*
X150638095Y-118588095D01*
%TO.C,R5*%
X139342333Y-113334180D02*
X139009000Y-112857990D01*
X138770904Y-113334180D02*
X138770904Y-112334180D01*
X139151857Y-112334180D01*
X139247095Y-112381800D01*
X139294714Y-112429419D01*
X139342333Y-112524657D01*
X139342333Y-112667514D01*
X139294714Y-112762752D01*
X139247095Y-112810371D01*
X139151857Y-112857990D01*
X138770904Y-112857990D01*
X140247095Y-112334180D02*
X139770904Y-112334180D01*
X139723285Y-112810371D01*
X139770904Y-112762752D01*
X139866142Y-112715133D01*
X140104238Y-112715133D01*
X140199476Y-112762752D01*
X140247095Y-112810371D01*
X140294714Y-112905609D01*
X140294714Y-113143704D01*
X140247095Y-113238942D01*
X140199476Y-113286561D01*
X140104238Y-113334180D01*
X139866142Y-113334180D01*
X139770904Y-113286561D01*
X139723285Y-113238942D01*
%TO.C,R4*%
X131799533Y-116168780D02*
X131466200Y-115692590D01*
X131228104Y-116168780D02*
X131228104Y-115168780D01*
X131609057Y-115168780D01*
X131704295Y-115216400D01*
X131751914Y-115264019D01*
X131799533Y-115359257D01*
X131799533Y-115502114D01*
X131751914Y-115597352D01*
X131704295Y-115644971D01*
X131609057Y-115692590D01*
X131228104Y-115692590D01*
X132656676Y-115502114D02*
X132656676Y-116168780D01*
X132418580Y-115121161D02*
X132180485Y-115835447D01*
X132799533Y-115835447D01*
%TO.C,R3*%
X143082380Y-116876666D02*
X142606190Y-117210000D01*
X143082380Y-117448095D02*
X142082380Y-117448095D01*
X142082380Y-117067142D01*
X142130000Y-116971904D01*
X142177619Y-116924285D01*
X142272857Y-116876666D01*
X142415714Y-116876666D01*
X142510952Y-116924285D01*
X142558571Y-116971904D01*
X142606190Y-117067142D01*
X142606190Y-117448095D01*
X142082380Y-116543333D02*
X142082380Y-115924285D01*
X142463333Y-116257619D01*
X142463333Y-116114761D01*
X142510952Y-116019523D01*
X142558571Y-115971904D01*
X142653809Y-115924285D01*
X142891904Y-115924285D01*
X142987142Y-115971904D01*
X143034761Y-116019523D01*
X143082380Y-116114761D01*
X143082380Y-116400476D01*
X143034761Y-116495714D01*
X142987142Y-116543333D01*
%TO.C,R2*%
X147493333Y-126609580D02*
X147160000Y-126133390D01*
X146921904Y-126609580D02*
X146921904Y-125609580D01*
X147302857Y-125609580D01*
X147398095Y-125657200D01*
X147445714Y-125704819D01*
X147493333Y-125800057D01*
X147493333Y-125942914D01*
X147445714Y-126038152D01*
X147398095Y-126085771D01*
X147302857Y-126133390D01*
X146921904Y-126133390D01*
X147874285Y-125704819D02*
X147921904Y-125657200D01*
X148017142Y-125609580D01*
X148255238Y-125609580D01*
X148350476Y-125657200D01*
X148398095Y-125704819D01*
X148445714Y-125800057D01*
X148445714Y-125895295D01*
X148398095Y-126038152D01*
X147826666Y-126609580D01*
X148445714Y-126609580D01*
%TO.C,R1*%
X148782380Y-117387666D02*
X148306190Y-117721000D01*
X148782380Y-117959095D02*
X147782380Y-117959095D01*
X147782380Y-117578142D01*
X147830000Y-117482904D01*
X147877619Y-117435285D01*
X147972857Y-117387666D01*
X148115714Y-117387666D01*
X148210952Y-117435285D01*
X148258571Y-117482904D01*
X148306190Y-117578142D01*
X148306190Y-117959095D01*
X148782380Y-116435285D02*
X148782380Y-117006714D01*
X148782380Y-116721000D02*
X147782380Y-116721000D01*
X147925238Y-116816238D01*
X148020476Y-116911476D01*
X148068095Y-117006714D01*
%TO.C,L3*%
X150882380Y-122566666D02*
X150882380Y-123042857D01*
X149882380Y-123042857D01*
X149882380Y-122328571D02*
X149882380Y-121709523D01*
X150263333Y-122042857D01*
X150263333Y-121900000D01*
X150310952Y-121804761D01*
X150358571Y-121757142D01*
X150453809Y-121709523D01*
X150691904Y-121709523D01*
X150787142Y-121757142D01*
X150834761Y-121804761D01*
X150882380Y-121900000D01*
X150882380Y-122185714D01*
X150834761Y-122280952D01*
X150787142Y-122328571D01*
%TO.C,L2*%
X151868333Y-120232380D02*
X151392142Y-120232380D01*
X151392142Y-119232380D01*
X152154047Y-119327619D02*
X152201666Y-119280000D01*
X152296904Y-119232380D01*
X152535000Y-119232380D01*
X152630238Y-119280000D01*
X152677857Y-119327619D01*
X152725476Y-119422857D01*
X152725476Y-119518095D01*
X152677857Y-119660952D01*
X152106428Y-120232380D01*
X152725476Y-120232380D01*
%TO.C,L1*%
X152122380Y-121501666D02*
X152122380Y-121977857D01*
X151122380Y-121977857D01*
X152122380Y-120644523D02*
X152122380Y-121215952D01*
X152122380Y-120930238D02*
X151122380Y-120930238D01*
X151265238Y-121025476D01*
X151360476Y-121120714D01*
X151408095Y-121215952D01*
%TO.C,J3*%
X133047380Y-126968333D02*
X133761666Y-126968333D01*
X133904523Y-127015952D01*
X133999761Y-127111190D01*
X134047380Y-127254047D01*
X134047380Y-127349285D01*
X133047380Y-126587380D02*
X133047380Y-125968333D01*
X133428333Y-126301666D01*
X133428333Y-126158809D01*
X133475952Y-126063571D01*
X133523571Y-126015952D01*
X133618809Y-125968333D01*
X133856904Y-125968333D01*
X133952142Y-126015952D01*
X133999761Y-126063571D01*
X134047380Y-126158809D01*
X134047380Y-126444523D01*
X133999761Y-126539761D01*
X133952142Y-126587380D01*
%TO.C,J2*%
X155702380Y-121733333D02*
X156416666Y-121733333D01*
X156559523Y-121780952D01*
X156654761Y-121876190D01*
X156702380Y-122019047D01*
X156702380Y-122114285D01*
X155797619Y-121304761D02*
X155750000Y-121257142D01*
X155702380Y-121161904D01*
X155702380Y-120923809D01*
X155750000Y-120828571D01*
X155797619Y-120780952D01*
X155892857Y-120733333D01*
X155988095Y-120733333D01*
X156130952Y-120780952D01*
X156702380Y-121352380D01*
X156702380Y-120733333D01*
%TO.C,J1*%
X124252380Y-122151733D02*
X124966666Y-122151733D01*
X125109523Y-122199352D01*
X125204761Y-122294590D01*
X125252380Y-122437447D01*
X125252380Y-122532685D01*
X125252380Y-121151733D02*
X125252380Y-121723161D01*
X125252380Y-121437447D02*
X124252380Y-121437447D01*
X124395238Y-121532685D01*
X124490476Y-121627923D01*
X124538095Y-121723161D01*
%TO.C,FB1*%
X126628166Y-112664971D02*
X126294833Y-112664971D01*
X126294833Y-113188780D02*
X126294833Y-112188780D01*
X126771023Y-112188780D01*
X127485309Y-112664971D02*
X127628166Y-112712590D01*
X127675785Y-112760209D01*
X127723404Y-112855447D01*
X127723404Y-112998304D01*
X127675785Y-113093542D01*
X127628166Y-113141161D01*
X127532928Y-113188780D01*
X127151976Y-113188780D01*
X127151976Y-112188780D01*
X127485309Y-112188780D01*
X127580547Y-112236400D01*
X127628166Y-112284019D01*
X127675785Y-112379257D01*
X127675785Y-112474495D01*
X127628166Y-112569733D01*
X127580547Y-112617352D01*
X127485309Y-112664971D01*
X127151976Y-112664971D01*
X128675785Y-113188780D02*
X128104357Y-113188780D01*
X128390071Y-113188780D02*
X128390071Y-112188780D01*
X128294833Y-112331638D01*
X128199595Y-112426876D01*
X128104357Y-112474495D01*
%TO.C,F1*%
X122320266Y-112674371D02*
X121986933Y-112674371D01*
X121986933Y-113198180D02*
X121986933Y-112198180D01*
X122463123Y-112198180D01*
X123367885Y-113198180D02*
X122796457Y-113198180D01*
X123082171Y-113198180D02*
X123082171Y-112198180D01*
X122986933Y-112341038D01*
X122891695Y-112436276D01*
X122796457Y-112483895D01*
%TO.C,D2*%
X138906780Y-116012795D02*
X137906780Y-116012795D01*
X137906780Y-115774700D01*
X137954400Y-115631842D01*
X138049638Y-115536604D01*
X138144876Y-115488985D01*
X138335352Y-115441366D01*
X138478209Y-115441366D01*
X138668685Y-115488985D01*
X138763923Y-115536604D01*
X138859161Y-115631842D01*
X138906780Y-115774700D01*
X138906780Y-116012795D01*
X138002019Y-115060414D02*
X137954400Y-115012795D01*
X137906780Y-114917557D01*
X137906780Y-114679461D01*
X137954400Y-114584223D01*
X138002019Y-114536604D01*
X138097257Y-114488985D01*
X138192495Y-114488985D01*
X138335352Y-114536604D01*
X138906780Y-115108033D01*
X138906780Y-114488985D01*
%TO.C,D1*%
X136773180Y-115991995D02*
X135773180Y-115991995D01*
X135773180Y-115753900D01*
X135820800Y-115611042D01*
X135916038Y-115515804D01*
X136011276Y-115468185D01*
X136201752Y-115420566D01*
X136344609Y-115420566D01*
X136535085Y-115468185D01*
X136630323Y-115515804D01*
X136725561Y-115611042D01*
X136773180Y-115753900D01*
X136773180Y-115991995D01*
X136773180Y-114468185D02*
X136773180Y-115039614D01*
X136773180Y-114753900D02*
X135773180Y-114753900D01*
X135916038Y-114849138D01*
X136011276Y-114944376D01*
X136058895Y-115039614D01*
%TO.C,C18*%
X124203742Y-127366857D02*
X124251361Y-127414476D01*
X124298980Y-127557333D01*
X124298980Y-127652571D01*
X124251361Y-127795428D01*
X124156123Y-127890666D01*
X124060885Y-127938285D01*
X123870409Y-127985904D01*
X123727552Y-127985904D01*
X123537076Y-127938285D01*
X123441838Y-127890666D01*
X123346600Y-127795428D01*
X123298980Y-127652571D01*
X123298980Y-127557333D01*
X123346600Y-127414476D01*
X123394219Y-127366857D01*
X124298980Y-126414476D02*
X124298980Y-126985904D01*
X124298980Y-126700190D02*
X123298980Y-126700190D01*
X123441838Y-126795428D01*
X123537076Y-126890666D01*
X123584695Y-126985904D01*
X123727552Y-125843047D02*
X123679933Y-125938285D01*
X123632314Y-125985904D01*
X123537076Y-126033523D01*
X123489457Y-126033523D01*
X123394219Y-125985904D01*
X123346600Y-125938285D01*
X123298980Y-125843047D01*
X123298980Y-125652571D01*
X123346600Y-125557333D01*
X123394219Y-125509714D01*
X123489457Y-125462095D01*
X123537076Y-125462095D01*
X123632314Y-125509714D01*
X123679933Y-125557333D01*
X123727552Y-125652571D01*
X123727552Y-125843047D01*
X123775171Y-125938285D01*
X123822790Y-125985904D01*
X123918028Y-126033523D01*
X124108504Y-126033523D01*
X124203742Y-125985904D01*
X124251361Y-125938285D01*
X124298980Y-125843047D01*
X124298980Y-125652571D01*
X124251361Y-125557333D01*
X124203742Y-125509714D01*
X124108504Y-125462095D01*
X123918028Y-125462095D01*
X123822790Y-125509714D01*
X123775171Y-125557333D01*
X123727552Y-125652571D01*
%TO.C,C17*%
X141945142Y-117342857D02*
X141992761Y-117390476D01*
X142040380Y-117533333D01*
X142040380Y-117628571D01*
X141992761Y-117771428D01*
X141897523Y-117866666D01*
X141802285Y-117914285D01*
X141611809Y-117961904D01*
X141468952Y-117961904D01*
X141278476Y-117914285D01*
X141183238Y-117866666D01*
X141088000Y-117771428D01*
X141040380Y-117628571D01*
X141040380Y-117533333D01*
X141088000Y-117390476D01*
X141135619Y-117342857D01*
X142040380Y-116390476D02*
X142040380Y-116961904D01*
X142040380Y-116676190D02*
X141040380Y-116676190D01*
X141183238Y-116771428D01*
X141278476Y-116866666D01*
X141326095Y-116961904D01*
X141040380Y-116057142D02*
X141040380Y-115390476D01*
X142040380Y-115819047D01*
%TO.C,C16*%
X140929142Y-117342857D02*
X140976761Y-117390476D01*
X141024380Y-117533333D01*
X141024380Y-117628571D01*
X140976761Y-117771428D01*
X140881523Y-117866666D01*
X140786285Y-117914285D01*
X140595809Y-117961904D01*
X140452952Y-117961904D01*
X140262476Y-117914285D01*
X140167238Y-117866666D01*
X140072000Y-117771428D01*
X140024380Y-117628571D01*
X140024380Y-117533333D01*
X140072000Y-117390476D01*
X140119619Y-117342857D01*
X141024380Y-116390476D02*
X141024380Y-116961904D01*
X141024380Y-116676190D02*
X140024380Y-116676190D01*
X140167238Y-116771428D01*
X140262476Y-116866666D01*
X140310095Y-116961904D01*
X140024380Y-115533333D02*
X140024380Y-115723809D01*
X140072000Y-115819047D01*
X140119619Y-115866666D01*
X140262476Y-115961904D01*
X140452952Y-116009523D01*
X140833904Y-116009523D01*
X140929142Y-115961904D01*
X140976761Y-115914285D01*
X141024380Y-115819047D01*
X141024380Y-115628571D01*
X140976761Y-115533333D01*
X140929142Y-115485714D01*
X140833904Y-115438095D01*
X140595809Y-115438095D01*
X140500571Y-115485714D01*
X140452952Y-115533333D01*
X140405333Y-115628571D01*
X140405333Y-115819047D01*
X140452952Y-115914285D01*
X140500571Y-115961904D01*
X140595809Y-116009523D01*
%TO.C,C15*%
X142373142Y-117242857D02*
X142420761Y-117290476D01*
X142468380Y-117433333D01*
X142468380Y-117528571D01*
X142420761Y-117671428D01*
X142325523Y-117766666D01*
X142230285Y-117814285D01*
X142039809Y-117861904D01*
X141896952Y-117861904D01*
X141706476Y-117814285D01*
X141611238Y-117766666D01*
X141516000Y-117671428D01*
X141468380Y-117528571D01*
X141468380Y-117433333D01*
X141516000Y-117290476D01*
X141563619Y-117242857D01*
X142468380Y-116290476D02*
X142468380Y-116861904D01*
X142468380Y-116576190D02*
X141468380Y-116576190D01*
X141611238Y-116671428D01*
X141706476Y-116766666D01*
X141754095Y-116861904D01*
X141468380Y-115385714D02*
X141468380Y-115861904D01*
X141944571Y-115909523D01*
X141896952Y-115861904D01*
X141849333Y-115766666D01*
X141849333Y-115528571D01*
X141896952Y-115433333D01*
X141944571Y-115385714D01*
X142039809Y-115338095D01*
X142277904Y-115338095D01*
X142373142Y-115385714D01*
X142420761Y-115433333D01*
X142468380Y-115528571D01*
X142468380Y-115766666D01*
X142420761Y-115861904D01*
X142373142Y-115909523D01*
%TO.C,C14*%
X138897142Y-117342857D02*
X138944761Y-117390476D01*
X138992380Y-117533333D01*
X138992380Y-117628571D01*
X138944761Y-117771428D01*
X138849523Y-117866666D01*
X138754285Y-117914285D01*
X138563809Y-117961904D01*
X138420952Y-117961904D01*
X138230476Y-117914285D01*
X138135238Y-117866666D01*
X138040000Y-117771428D01*
X137992380Y-117628571D01*
X137992380Y-117533333D01*
X138040000Y-117390476D01*
X138087619Y-117342857D01*
X138992380Y-116390476D02*
X138992380Y-116961904D01*
X138992380Y-116676190D02*
X137992380Y-116676190D01*
X138135238Y-116771428D01*
X138230476Y-116866666D01*
X138278095Y-116961904D01*
X138325714Y-115533333D02*
X138992380Y-115533333D01*
X137944761Y-115771428D02*
X138659047Y-116009523D01*
X138659047Y-115390476D01*
%TO.C,C13*%
X133308342Y-118409057D02*
X133355961Y-118456676D01*
X133403580Y-118599533D01*
X133403580Y-118694771D01*
X133355961Y-118837628D01*
X133260723Y-118932866D01*
X133165485Y-118980485D01*
X132975009Y-119028104D01*
X132832152Y-119028104D01*
X132641676Y-118980485D01*
X132546438Y-118932866D01*
X132451200Y-118837628D01*
X132403580Y-118694771D01*
X132403580Y-118599533D01*
X132451200Y-118456676D01*
X132498819Y-118409057D01*
X133403580Y-117456676D02*
X133403580Y-118028104D01*
X133403580Y-117742390D02*
X132403580Y-117742390D01*
X132546438Y-117837628D01*
X132641676Y-117932866D01*
X132689295Y-118028104D01*
X132403580Y-117123342D02*
X132403580Y-116504295D01*
X132784533Y-116837628D01*
X132784533Y-116694771D01*
X132832152Y-116599533D01*
X132879771Y-116551914D01*
X132975009Y-116504295D01*
X133213104Y-116504295D01*
X133308342Y-116551914D01*
X133355961Y-116599533D01*
X133403580Y-116694771D01*
X133403580Y-116980485D01*
X133355961Y-117075723D01*
X133308342Y-117123342D01*
%TO.C,C12*%
X156917142Y-121162857D02*
X156964761Y-121210476D01*
X157012380Y-121353333D01*
X157012380Y-121448571D01*
X156964761Y-121591428D01*
X156869523Y-121686666D01*
X156774285Y-121734285D01*
X156583809Y-121781904D01*
X156440952Y-121781904D01*
X156250476Y-121734285D01*
X156155238Y-121686666D01*
X156060000Y-121591428D01*
X156012380Y-121448571D01*
X156012380Y-121353333D01*
X156060000Y-121210476D01*
X156107619Y-121162857D01*
X157012380Y-120210476D02*
X157012380Y-120781904D01*
X157012380Y-120496190D02*
X156012380Y-120496190D01*
X156155238Y-120591428D01*
X156250476Y-120686666D01*
X156298095Y-120781904D01*
X156107619Y-119829523D02*
X156060000Y-119781904D01*
X156012380Y-119686666D01*
X156012380Y-119448571D01*
X156060000Y-119353333D01*
X156107619Y-119305714D01*
X156202857Y-119258095D01*
X156298095Y-119258095D01*
X156440952Y-119305714D01*
X157012380Y-119877142D01*
X157012380Y-119258095D01*
%TO.C,C11*%
X125061742Y-115875142D02*
X125014123Y-115922761D01*
X124871266Y-115970380D01*
X124776028Y-115970380D01*
X124633171Y-115922761D01*
X124537933Y-115827523D01*
X124490314Y-115732285D01*
X124442695Y-115541809D01*
X124442695Y-115398952D01*
X124490314Y-115208476D01*
X124537933Y-115113238D01*
X124633171Y-115018000D01*
X124776028Y-114970380D01*
X124871266Y-114970380D01*
X125014123Y-115018000D01*
X125061742Y-115065619D01*
X126014123Y-115970380D02*
X125442695Y-115970380D01*
X125728409Y-115970380D02*
X125728409Y-114970380D01*
X125633171Y-115113238D01*
X125537933Y-115208476D01*
X125442695Y-115256095D01*
X126966504Y-115970380D02*
X126395076Y-115970380D01*
X126680790Y-115970380D02*
X126680790Y-114970380D01*
X126585552Y-115113238D01*
X126490314Y-115208476D01*
X126395076Y-115256095D01*
%TO.C,C10*%
X153287142Y-120147142D02*
X153239523Y-120194761D01*
X153096666Y-120242380D01*
X153001428Y-120242380D01*
X152858571Y-120194761D01*
X152763333Y-120099523D01*
X152715714Y-120004285D01*
X152668095Y-119813809D01*
X152668095Y-119670952D01*
X152715714Y-119480476D01*
X152763333Y-119385238D01*
X152858571Y-119290000D01*
X153001428Y-119242380D01*
X153096666Y-119242380D01*
X153239523Y-119290000D01*
X153287142Y-119337619D01*
X154239523Y-120242380D02*
X153668095Y-120242380D01*
X153953809Y-120242380D02*
X153953809Y-119242380D01*
X153858571Y-119385238D01*
X153763333Y-119480476D01*
X153668095Y-119528095D01*
X154858571Y-119242380D02*
X154953809Y-119242380D01*
X155049047Y-119290000D01*
X155096666Y-119337619D01*
X155144285Y-119432857D01*
X155191904Y-119623333D01*
X155191904Y-119861428D01*
X155144285Y-120051904D01*
X155096666Y-120147142D01*
X155049047Y-120194761D01*
X154953809Y-120242380D01*
X154858571Y-120242380D01*
X154763333Y-120194761D01*
X154715714Y-120147142D01*
X154668095Y-120051904D01*
X154620476Y-119861428D01*
X154620476Y-119623333D01*
X154668095Y-119432857D01*
X154715714Y-119337619D01*
X154763333Y-119290000D01*
X154858571Y-119242380D01*
%TO.C,C9*%
X152849933Y-125334342D02*
X152802314Y-125381961D01*
X152659457Y-125429580D01*
X152564219Y-125429580D01*
X152421361Y-125381961D01*
X152326123Y-125286723D01*
X152278504Y-125191485D01*
X152230885Y-125001009D01*
X152230885Y-124858152D01*
X152278504Y-124667676D01*
X152326123Y-124572438D01*
X152421361Y-124477200D01*
X152564219Y-124429580D01*
X152659457Y-124429580D01*
X152802314Y-124477200D01*
X152849933Y-124524819D01*
X153326123Y-125429580D02*
X153516600Y-125429580D01*
X153611838Y-125381961D01*
X153659457Y-125334342D01*
X153754695Y-125191485D01*
X153802314Y-125001009D01*
X153802314Y-124620057D01*
X153754695Y-124524819D01*
X153707076Y-124477200D01*
X153611838Y-124429580D01*
X153421361Y-124429580D01*
X153326123Y-124477200D01*
X153278504Y-124524819D01*
X153230885Y-124620057D01*
X153230885Y-124858152D01*
X153278504Y-124953390D01*
X153326123Y-125001009D01*
X153421361Y-125048628D01*
X153611838Y-125048628D01*
X153707076Y-125001009D01*
X153754695Y-124953390D01*
X153802314Y-124858152D01*
%TO.C,C8*%
X143497142Y-127346666D02*
X143544761Y-127394285D01*
X143592380Y-127537142D01*
X143592380Y-127632380D01*
X143544761Y-127775238D01*
X143449523Y-127870476D01*
X143354285Y-127918095D01*
X143163809Y-127965714D01*
X143020952Y-127965714D01*
X142830476Y-127918095D01*
X142735238Y-127870476D01*
X142640000Y-127775238D01*
X142592380Y-127632380D01*
X142592380Y-127537142D01*
X142640000Y-127394285D01*
X142687619Y-127346666D01*
X143020952Y-126775238D02*
X142973333Y-126870476D01*
X142925714Y-126918095D01*
X142830476Y-126965714D01*
X142782857Y-126965714D01*
X142687619Y-126918095D01*
X142640000Y-126870476D01*
X142592380Y-126775238D01*
X142592380Y-126584761D01*
X142640000Y-126489523D01*
X142687619Y-126441904D01*
X142782857Y-126394285D01*
X142830476Y-126394285D01*
X142925714Y-126441904D01*
X142973333Y-126489523D01*
X143020952Y-126584761D01*
X143020952Y-126775238D01*
X143068571Y-126870476D01*
X143116190Y-126918095D01*
X143211428Y-126965714D01*
X143401904Y-126965714D01*
X143497142Y-126918095D01*
X143544761Y-126870476D01*
X143592380Y-126775238D01*
X143592380Y-126584761D01*
X143544761Y-126489523D01*
X143497142Y-126441904D01*
X143401904Y-126394285D01*
X143211428Y-126394285D01*
X143116190Y-126441904D01*
X143068571Y-126489523D01*
X143020952Y-126584761D01*
%TO.C,C7*%
X152919933Y-124444342D02*
X152872314Y-124491961D01*
X152729457Y-124539580D01*
X152634219Y-124539580D01*
X152491361Y-124491961D01*
X152396123Y-124396723D01*
X152348504Y-124301485D01*
X152300885Y-124111009D01*
X152300885Y-123968152D01*
X152348504Y-123777676D01*
X152396123Y-123682438D01*
X152491361Y-123587200D01*
X152634219Y-123539580D01*
X152729457Y-123539580D01*
X152872314Y-123587200D01*
X152919933Y-123634819D01*
X153253266Y-123539580D02*
X153919933Y-123539580D01*
X153491361Y-124539580D01*
%TO.C,C6*%
X151217142Y-127286666D02*
X151264761Y-127334285D01*
X151312380Y-127477142D01*
X151312380Y-127572380D01*
X151264761Y-127715238D01*
X151169523Y-127810476D01*
X151074285Y-127858095D01*
X150883809Y-127905714D01*
X150740952Y-127905714D01*
X150550476Y-127858095D01*
X150455238Y-127810476D01*
X150360000Y-127715238D01*
X150312380Y-127572380D01*
X150312380Y-127477142D01*
X150360000Y-127334285D01*
X150407619Y-127286666D01*
X150312380Y-126429523D02*
X150312380Y-126620000D01*
X150360000Y-126715238D01*
X150407619Y-126762857D01*
X150550476Y-126858095D01*
X150740952Y-126905714D01*
X151121904Y-126905714D01*
X151217142Y-126858095D01*
X151264761Y-126810476D01*
X151312380Y-126715238D01*
X151312380Y-126524761D01*
X151264761Y-126429523D01*
X151217142Y-126381904D01*
X151121904Y-126334285D01*
X150883809Y-126334285D01*
X150788571Y-126381904D01*
X150740952Y-126429523D01*
X150693333Y-126524761D01*
X150693333Y-126715238D01*
X150740952Y-126810476D01*
X150788571Y-126858095D01*
X150883809Y-126905714D01*
%TO.C,C5*%
X152017142Y-117386666D02*
X152064761Y-117434285D01*
X152112380Y-117577142D01*
X152112380Y-117672380D01*
X152064761Y-117815238D01*
X151969523Y-117910476D01*
X151874285Y-117958095D01*
X151683809Y-118005714D01*
X151540952Y-118005714D01*
X151350476Y-117958095D01*
X151255238Y-117910476D01*
X151160000Y-117815238D01*
X151112380Y-117672380D01*
X151112380Y-117577142D01*
X151160000Y-117434285D01*
X151207619Y-117386666D01*
X151112380Y-116481904D02*
X151112380Y-116958095D01*
X151588571Y-117005714D01*
X151540952Y-116958095D01*
X151493333Y-116862857D01*
X151493333Y-116624761D01*
X151540952Y-116529523D01*
X151588571Y-116481904D01*
X151683809Y-116434285D01*
X151921904Y-116434285D01*
X152017142Y-116481904D01*
X152064761Y-116529523D01*
X152112380Y-116624761D01*
X152112380Y-116862857D01*
X152064761Y-116958095D01*
X152017142Y-117005714D01*
%TO.C,C4*%
X145503333Y-126417142D02*
X145455714Y-126464761D01*
X145312857Y-126512380D01*
X145217619Y-126512380D01*
X145074761Y-126464761D01*
X144979523Y-126369523D01*
X144931904Y-126274285D01*
X144884285Y-126083809D01*
X144884285Y-125940952D01*
X144931904Y-125750476D01*
X144979523Y-125655238D01*
X145074761Y-125560000D01*
X145217619Y-125512380D01*
X145312857Y-125512380D01*
X145455714Y-125560000D01*
X145503333Y-125607619D01*
X146360476Y-125845714D02*
X146360476Y-126512380D01*
X146122380Y-125464761D02*
X145884285Y-126179047D01*
X146503333Y-126179047D01*
%TO.C,C3*%
X147613333Y-116797142D02*
X147565714Y-116844761D01*
X147422857Y-116892380D01*
X147327619Y-116892380D01*
X147184761Y-116844761D01*
X147089523Y-116749523D01*
X147041904Y-116654285D01*
X146994285Y-116463809D01*
X146994285Y-116320952D01*
X147041904Y-116130476D01*
X147089523Y-116035238D01*
X147184761Y-115940000D01*
X147327619Y-115892380D01*
X147422857Y-115892380D01*
X147565714Y-115940000D01*
X147613333Y-115987619D01*
X147946666Y-115892380D02*
X148565714Y-115892380D01*
X148232380Y-116273333D01*
X148375238Y-116273333D01*
X148470476Y-116320952D01*
X148518095Y-116368571D01*
X148565714Y-116463809D01*
X148565714Y-116701904D01*
X148518095Y-116797142D01*
X148470476Y-116844761D01*
X148375238Y-116892380D01*
X148089523Y-116892380D01*
X147994285Y-116844761D01*
X147946666Y-116797142D01*
%TO.C,C2*%
X147058333Y-115027142D02*
X147010714Y-115074761D01*
X146867857Y-115122380D01*
X146772619Y-115122380D01*
X146629761Y-115074761D01*
X146534523Y-114979523D01*
X146486904Y-114884285D01*
X146439285Y-114693809D01*
X146439285Y-114550952D01*
X146486904Y-114360476D01*
X146534523Y-114265238D01*
X146629761Y-114170000D01*
X146772619Y-114122380D01*
X146867857Y-114122380D01*
X147010714Y-114170000D01*
X147058333Y-114217619D01*
X147439285Y-114217619D02*
X147486904Y-114170000D01*
X147582142Y-114122380D01*
X147820238Y-114122380D01*
X147915476Y-114170000D01*
X147963095Y-114217619D01*
X148010714Y-114312857D01*
X148010714Y-114408095D01*
X147963095Y-114550952D01*
X147391666Y-115122380D01*
X148010714Y-115122380D01*
%TO.C,C1*%
X145813333Y-119117142D02*
X145765714Y-119164761D01*
X145622857Y-119212380D01*
X145527619Y-119212380D01*
X145384761Y-119164761D01*
X145289523Y-119069523D01*
X145241904Y-118974285D01*
X145194285Y-118783809D01*
X145194285Y-118640952D01*
X145241904Y-118450476D01*
X145289523Y-118355238D01*
X145384761Y-118260000D01*
X145527619Y-118212380D01*
X145622857Y-118212380D01*
X145765714Y-118260000D01*
X145813333Y-118307619D01*
X146765714Y-119212380D02*
X146194285Y-119212380D01*
X146480000Y-119212380D02*
X146480000Y-118212380D01*
X146384761Y-118355238D01*
X146289523Y-118450476D01*
X146194285Y-118498095D01*
D11*
%TO.C,U4*%
X141141600Y-123699400D02*
X141141600Y-124174400D01*
X141141600Y-124174400D02*
X140666600Y-124174400D01*
X135921600Y-119429400D02*
X135921600Y-118954400D01*
X135921600Y-118954400D02*
X136396600Y-118954400D01*
X135921600Y-123699400D02*
X135921600Y-124174400D01*
X135921600Y-124174400D02*
X136396600Y-124174400D01*
X141141600Y-119429400D02*
X141141600Y-118954400D01*
%TO.C,Y1*%
X149000000Y-128800000D02*
X149000000Y-125500000D01*
X149000000Y-125500000D02*
X145000000Y-125500000D01*
%TO.C,U3*%
X130353200Y-117412900D02*
X130353200Y-116762900D01*
X130353200Y-117412900D02*
X130353200Y-118062900D01*
X127233200Y-117412900D02*
X127233200Y-116762900D01*
X127233200Y-117412900D02*
X127233200Y-119087900D01*
%TO.C,U2*%
X128837500Y-119890000D02*
X128037500Y-119890000D01*
X128837500Y-119890000D02*
X129637500Y-119890000D01*
X128837500Y-123010000D02*
X128037500Y-123010000D01*
X128837500Y-123010000D02*
X130637500Y-123010000D01*
%TO.C,U1*%
X148273200Y-118971800D02*
X148998200Y-118971800D01*
X148998200Y-118971800D02*
X148998200Y-119696800D01*
X145503200Y-123191800D02*
X144778200Y-123191800D01*
X144778200Y-123191800D02*
X144778200Y-122466800D01*
X148273200Y-123191800D02*
X148998200Y-123191800D01*
X148998200Y-123191800D02*
X148998200Y-122466800D01*
X145503200Y-118971800D02*
X144778200Y-118971800D01*
%TO.C,R5*%
X139271742Y-113789300D02*
X139746258Y-113789300D01*
X139271742Y-114834300D02*
X139746258Y-114834300D01*
%TO.C,R4*%
X132203458Y-114808900D02*
X131728942Y-114808900D01*
X132203458Y-113763900D02*
X131728942Y-113763900D01*
%TO.C,R3*%
X143420000Y-116863641D02*
X143420000Y-116556359D01*
X144180000Y-116863641D02*
X144180000Y-116556359D01*
%TO.C,R2*%
X147813641Y-125280000D02*
X147506359Y-125280000D01*
X147813641Y-124520000D02*
X147506359Y-124520000D01*
%TO.C,R1*%
X149120000Y-117374641D02*
X149120000Y-117067359D01*
X149880000Y-117374641D02*
X149880000Y-117067359D01*
%TO.C,J3*%
X126125000Y-124870000D02*
X126125000Y-125692470D01*
X126125000Y-127577530D02*
X126125000Y-128400000D01*
X126125000Y-126307530D02*
X126125000Y-126962470D01*
X131140000Y-124870000D02*
X126125000Y-124870000D01*
X132595000Y-128400000D02*
X126125000Y-128400000D01*
X131140000Y-124870000D02*
X131140000Y-125436529D01*
X131140000Y-126563471D02*
X131140000Y-126706529D01*
X131193471Y-126760000D02*
X131336529Y-126760000D01*
X132463471Y-126760000D02*
X132595000Y-126760000D01*
X132595000Y-126760000D02*
X132595000Y-126962470D01*
X132595000Y-127577530D02*
X132595000Y-128400000D01*
X131900000Y-124870000D02*
X132660000Y-124870000D01*
X132660000Y-124870000D02*
X132660000Y-126000000D01*
%TO.C,J2*%
X156990000Y-121650000D02*
X157490000Y-121400000D01*
X156990000Y-121150000D02*
X156990000Y-121650000D01*
X157490000Y-121400000D02*
X156990000Y-121150000D01*
X161750000Y-123350000D02*
X161750000Y-122240000D01*
X161750000Y-120560000D02*
X161750000Y-119450000D01*
X158040000Y-123350000D02*
X158040000Y-122240000D01*
X158040000Y-120560000D02*
X158040000Y-119450000D01*
%TO.C,J1*%
X123450000Y-117918400D02*
X123450000Y-118368400D01*
X121600000Y-117918400D02*
X123450000Y-117918400D01*
X119050000Y-125718400D02*
X119300000Y-125718400D01*
X119050000Y-117918400D02*
X119300000Y-117918400D01*
X121600000Y-125718400D02*
X123450000Y-125718400D01*
X123450000Y-125718400D02*
X123450000Y-125268400D01*
X124000000Y-120118400D02*
X124000000Y-120568400D01*
X124000000Y-120118400D02*
X123550000Y-120118400D01*
%TO.C,FB1*%
X127061878Y-113726400D02*
X127861122Y-113726400D01*
X127061878Y-114846400D02*
X127861122Y-114846400D01*
%TO.C,F1*%
X122051536Y-113655800D02*
X123255664Y-113655800D01*
X122051536Y-115475800D02*
X123255664Y-115475800D01*
%TO.C,D2*%
X137764400Y-116274700D02*
X137764400Y-113589700D01*
X137764400Y-113589700D02*
X135844400Y-113589700D01*
X135844400Y-113589700D02*
X135844400Y-116274700D01*
%TO.C,D1*%
X135630800Y-116253900D02*
X135630800Y-113568900D01*
X135630800Y-113568900D02*
X133710800Y-113568900D01*
X133710800Y-113568900D02*
X133710800Y-116253900D01*
%TO.C,C18*%
X124646600Y-126831836D02*
X124646600Y-126616164D01*
X125366600Y-126831836D02*
X125366600Y-126616164D01*
%TO.C,C17*%
X142388000Y-116807836D02*
X142388000Y-116592164D01*
X143108000Y-116807836D02*
X143108000Y-116592164D01*
%TO.C,C16*%
X141372000Y-116807836D02*
X141372000Y-116592164D01*
X142092000Y-116807836D02*
X142092000Y-116592164D01*
%TO.C,C15*%
X140356000Y-116807836D02*
X140356000Y-116592164D01*
X141076000Y-116807836D02*
X141076000Y-116592164D01*
%TO.C,C14*%
X139340000Y-116807836D02*
X139340000Y-116592164D01*
X140060000Y-116807836D02*
X140060000Y-116592164D01*
%TO.C,C13*%
X132031200Y-117625620D02*
X132031200Y-117906780D01*
X131011200Y-117625620D02*
X131011200Y-117906780D01*
%TO.C,C12*%
X155760000Y-120412164D02*
X155760000Y-120627836D01*
X155040000Y-120412164D02*
X155040000Y-120627836D01*
%TO.C,C11*%
X126595600Y-117688820D02*
X126595600Y-117969980D01*
X125575600Y-117688820D02*
X125575600Y-117969980D01*
%TO.C,C10*%
X153822164Y-120590000D02*
X154037836Y-120590000D01*
X153822164Y-121310000D02*
X154037836Y-121310000D01*
%TO.C,C9*%
X153137836Y-124210000D02*
X152922164Y-124210000D01*
X153137836Y-123490000D02*
X152922164Y-123490000D01*
%TO.C,C8*%
X143940000Y-127287836D02*
X143940000Y-127072164D01*
X144660000Y-127287836D02*
X144660000Y-127072164D01*
%TO.C,C7*%
X153137836Y-123260000D02*
X152922164Y-123260000D01*
X153137836Y-122540000D02*
X152922164Y-122540000D01*
%TO.C,C6*%
X150060000Y-127012164D02*
X150060000Y-127227836D01*
X149340000Y-127012164D02*
X149340000Y-127227836D01*
%TO.C,C5*%
X150860000Y-117112164D02*
X150860000Y-117327836D01*
X150140000Y-117112164D02*
X150140000Y-117327836D01*
%TO.C,C4*%
X145777836Y-125260000D02*
X145562164Y-125260000D01*
X145777836Y-124540000D02*
X145562164Y-124540000D01*
%TO.C,C3*%
X147672164Y-117240000D02*
X147887836Y-117240000D01*
X147672164Y-117960000D02*
X147887836Y-117960000D01*
%TO.C,C2*%
X147084420Y-115590000D02*
X147365580Y-115590000D01*
X147084420Y-116610000D02*
X147365580Y-116610000D01*
%TO.C,C1*%
X146087836Y-117960000D02*
X145872164Y-117960000D01*
X146087836Y-117240000D02*
X145872164Y-117240000D01*
%TD*%
M02*
