M48
; DRILL file {KiCad (6.0.0)} date Wed Jan 11 18:06:29 2023
; FORMAT={-:-/ absolute / inch / decimal}
; #@! TF.CreationDate,2023-01-11T18:06:29+05:30
; #@! TF.GenerationSoftware,Kicad,Pcbnew,(6.0.0)
; #@! TF.FileFunction,Plated,1,4,PTH
FMAT,2
INCH
; #@! TA.AperFunction,Plated,PTH,ViaDrill
T1C0.0098
; #@! TA.AperFunction,Plated,PTH,ViaDrill
T2C0.0118
; #@! TA.AperFunction,Plated,PTH,ViaDrill
T3C0.0157
; #@! TA.AperFunction,Plated,PTH,ComponentDrill
T4C0.0236
; #@! TA.AperFunction,Plated,PTH,ComponentDrill
T5C0.0256
; #@! TA.AperFunction,Plated,PTH,ComponentDrill
T6C0.0335
%
G90
G05
T1
X5.7441Y-4.9724
X5.783Y-4.8725
X5.8307Y-5.0394
T2
X4.9016Y-4.8484
X4.9035Y-4.7461
X4.9213Y-4.9291
X4.9665Y-4.5748
X4.9783Y-4.7815
X5.0354Y-4.7067
X5.0984Y-4.5098
X5.0984Y-4.5433
X5.1083Y-4.6083
X5.124Y-4.5098
X5.1654Y-4.7815
X5.1772Y-4.563
X5.1791Y-4.7087
X5.3091Y-4.8543
X5.378Y-4.9331
X5.4449Y-4.6437
X5.4783Y-4.6437
X5.5886Y-4.6949
X5.5906Y-4.5354
X5.6112Y-4.8514
X5.6201Y-4.6142
X5.6634Y-4.7657
X5.6909Y-4.5748
X5.7283Y-4.6299
X5.752Y-4.876
X5.7657Y-4.5709
X5.8091Y-4.6555
X5.8287Y-4.5709
X5.8366Y-4.6299
X5.8898Y-4.7047
X5.8917Y-4.748
X5.9232Y-4.561
X5.9252Y-4.6339
X6.0591Y-4.8917
X6.0807Y-4.7244
X6.1181Y-4.7008
T3
X5.4528Y-4.7382
X5.4528Y-4.7874
X5.4528Y-4.8346
X5.9665Y-4.4783
X5.9665Y-4.5472
X5.9665Y-4.624
X5.9665Y-4.6969
X5.9685Y-4.876
X5.9685Y-4.9469
X5.9685Y-5.0157
X5.9685Y-5.0807
X6.0453Y-4.4783
X6.0669Y-5.0807
X6.124Y-4.4783
X6.1496Y-5.0807
X6.2047Y-4.4783
X6.2343Y-5.0807
X6.2677Y-4.4783
X6.2894Y-4.6683
X6.2894Y-4.8907
X6.3031Y-5.0807
X6.3386Y-4.4843
X6.3484Y-4.5472
X6.3484Y-4.6122
X6.3504Y-4.9449
X6.3504Y-5.0236
T5
X4.9929Y-4.9606
X4.9929Y-5.0106
X5.0429Y-4.9606
X5.0429Y-5.0106
X5.0929Y-4.9606
X5.0929Y-5.0106
X5.1429Y-4.9606
X5.1429Y-5.0106
X5.1929Y-4.9606
X5.1929Y-5.0106
T6
X4.8484Y-4.6976
X4.8484Y-4.8944
T4
G00X4.7283Y-4.6582
M15
G01X4.7559Y-4.6582
M16
G05
G00X4.7559Y-4.9338
M15
G01X4.7283Y-4.9338
M16
G05
T0
M30
