%TF.GenerationSoftware,KiCad,Pcbnew,(6.0.0)*%
%TF.CreationDate,2023-01-11T18:06:36+05:30*%
%TF.ProjectId,STM32+Rf,53544d33-322b-4526-962e-6b696361645f,rev?*%
%TF.SameCoordinates,Original*%
%TF.FileFunction,Soldermask,Top*%
%TF.FilePolarity,Negative*%
%FSLAX46Y46*%
G04 Gerber Fmt 4.6, Leading zero omitted, Abs format (unit mm)*
G04 Created by KiCad (PCBNEW (6.0.0)) date 2023-01-11 18:06:36*
%MOMM*%
%LPD*%
G01*
G04 APERTURE LIST*
G04 Aperture macros list*
%AMRoundRect*
0 Rectangle with rounded corners*
0 $1 Rounding radius*
0 $2 $3 $4 $5 $6 $7 $8 $9 X,Y pos of 4 corners*
0 Add a 4 corners polygon primitive as box body*
4,1,4,$2,$3,$4,$5,$6,$7,$8,$9,$2,$3,0*
0 Add four circle primitives for the rounded corners*
1,1,$1+$1,$2,$3*
1,1,$1+$1,$4,$5*
1,1,$1+$1,$6,$7*
1,1,$1+$1,$8,$9*
0 Add four rect primitives between the rounded corners*
20,1,$1+$1,$2,$3,$4,$5,0*
20,1,$1+$1,$4,$5,$6,$7,0*
20,1,$1+$1,$6,$7,$8,$9,0*
20,1,$1+$1,$8,$9,$2,$3,0*%
G04 Aperture macros list end*
%ADD10RoundRect,0.062500X-0.062500X0.375000X-0.062500X-0.375000X0.062500X-0.375000X0.062500X0.375000X0*%
%ADD11RoundRect,0.062500X-0.375000X0.062500X-0.375000X-0.062500X0.375000X-0.062500X0.375000X0.062500X0*%
%ADD12R,3.450000X3.450000*%
%ADD13R,1.400000X1.200000*%
%ADD14RoundRect,0.150000X0.150000X-0.587500X0.150000X0.587500X-0.150000X0.587500X-0.150000X-0.587500X0*%
%ADD15RoundRect,0.150000X0.512500X0.150000X-0.512500X0.150000X-0.512500X-0.150000X0.512500X-0.150000X0*%
%ADD16RoundRect,0.062500X-0.350000X-0.062500X0.350000X-0.062500X0.350000X0.062500X-0.350000X0.062500X0*%
%ADD17RoundRect,0.062500X-0.062500X-0.350000X0.062500X-0.350000X0.062500X0.350000X-0.062500X0.350000X0*%
%ADD18R,2.500000X2.500000*%
%ADD19RoundRect,0.200000X-0.200000X-0.275000X0.200000X-0.275000X0.200000X0.275000X-0.200000X0.275000X0*%
%ADD20RoundRect,0.200000X0.200000X0.275000X-0.200000X0.275000X-0.200000X-0.275000X0.200000X-0.275000X0*%
%ADD21RoundRect,0.135000X0.185000X-0.135000X0.185000X0.135000X-0.185000X0.135000X-0.185000X-0.135000X0*%
%ADD22RoundRect,0.135000X0.135000X0.185000X-0.135000X0.185000X-0.135000X-0.185000X0.135000X-0.185000X0*%
%ADD23RoundRect,0.147500X0.172500X-0.147500X0.172500X0.147500X-0.172500X0.147500X-0.172500X-0.147500X0*%
%ADD24RoundRect,0.147500X-0.147500X-0.172500X0.147500X-0.172500X0.147500X0.172500X-0.147500X0.172500X0*%
%ADD25RoundRect,0.147500X-0.172500X0.147500X-0.172500X-0.147500X0.172500X-0.147500X0.172500X0.147500X0*%
%ADD26R,1.000000X1.000000*%
%ADD27O,1.000000X1.000000*%
%ADD28R,4.200000X1.350000*%
%ADD29R,3.600000X1.270000*%
%ADD30R,1.900000X1.500000*%
%ADD31C,1.450000*%
%ADD32R,1.350000X0.400000*%
%ADD33O,1.900000X1.200000*%
%ADD34R,1.900000X1.200000*%
%ADD35RoundRect,0.218750X-0.218750X-0.381250X0.218750X-0.381250X0.218750X0.381250X-0.218750X0.381250X0*%
%ADD36RoundRect,0.250000X-0.375000X-0.625000X0.375000X-0.625000X0.375000X0.625000X-0.375000X0.625000X0*%
%ADD37RoundRect,0.243750X-0.456250X0.243750X-0.456250X-0.243750X0.456250X-0.243750X0.456250X0.243750X0*%
%ADD38RoundRect,0.140000X0.170000X-0.140000X0.170000X0.140000X-0.170000X0.140000X-0.170000X-0.140000X0*%
%ADD39RoundRect,0.225000X-0.250000X0.225000X-0.250000X-0.225000X0.250000X-0.225000X0.250000X0.225000X0*%
%ADD40RoundRect,0.140000X-0.170000X0.140000X-0.170000X-0.140000X0.170000X-0.140000X0.170000X0.140000X0*%
%ADD41RoundRect,0.140000X-0.140000X-0.170000X0.140000X-0.170000X0.140000X0.170000X-0.140000X0.170000X0*%
%ADD42RoundRect,0.140000X0.140000X0.170000X-0.140000X0.170000X-0.140000X-0.170000X0.140000X-0.170000X0*%
%ADD43RoundRect,0.225000X-0.225000X-0.250000X0.225000X-0.250000X0.225000X0.250000X-0.225000X0.250000X0*%
G04 APERTURE END LIST*
D10*
%TO.C,U4*%
X140281600Y-119126900D03*
X139781600Y-119126900D03*
X139281600Y-119126900D03*
X138781600Y-119126900D03*
X138281600Y-119126900D03*
X137781600Y-119126900D03*
X137281600Y-119126900D03*
X136781600Y-119126900D03*
D11*
X136094100Y-119814400D03*
X136094100Y-120314400D03*
X136094100Y-120814400D03*
X136094100Y-121314400D03*
X136094100Y-121814400D03*
X136094100Y-122314400D03*
X136094100Y-122814400D03*
X136094100Y-123314400D03*
D10*
X136781600Y-124001900D03*
X137281600Y-124001900D03*
X137781600Y-124001900D03*
X138281600Y-124001900D03*
X138781600Y-124001900D03*
X139281600Y-124001900D03*
X139781600Y-124001900D03*
X140281600Y-124001900D03*
D11*
X140969100Y-123314400D03*
X140969100Y-122814400D03*
X140969100Y-122314400D03*
X140969100Y-121814400D03*
X140969100Y-121314400D03*
X140969100Y-120814400D03*
X140969100Y-120314400D03*
X140969100Y-119814400D03*
D12*
X138531600Y-121564400D03*
%TD*%
D13*
%TO.C,Y1*%
X148100000Y-126300000D03*
X145900000Y-126300000D03*
X145900000Y-128000000D03*
X148100000Y-128000000D03*
%TD*%
D14*
%TO.C,U3*%
X127843200Y-118350400D03*
X129743200Y-118350400D03*
X128793200Y-116475400D03*
%TD*%
D15*
%TO.C,U2*%
X129975000Y-122400000D03*
X129975000Y-121450000D03*
X129975000Y-120500000D03*
X127700000Y-120500000D03*
X127700000Y-121450000D03*
X127700000Y-122400000D03*
%TD*%
D16*
%TO.C,U1*%
X144950700Y-120081800D03*
X144950700Y-120581800D03*
X144950700Y-121081800D03*
X144950700Y-121581800D03*
X144950700Y-122081800D03*
D17*
X145888200Y-123019300D03*
X146388200Y-123019300D03*
X146888200Y-123019300D03*
X147388200Y-123019300D03*
X147888200Y-123019300D03*
D16*
X148825700Y-122081800D03*
X148825700Y-121581800D03*
X148825700Y-121081800D03*
X148825700Y-120581800D03*
X148825700Y-120081800D03*
D17*
X147888200Y-119144300D03*
X147388200Y-119144300D03*
X146888200Y-119144300D03*
X146388200Y-119144300D03*
X145888200Y-119144300D03*
D18*
X146888200Y-121081800D03*
%TD*%
D19*
%TO.C,R5*%
X138684000Y-114311800D03*
X140334000Y-114311800D03*
%TD*%
D20*
%TO.C,R4*%
X132791200Y-114286400D03*
X131141200Y-114286400D03*
%TD*%
D21*
%TO.C,R3*%
X143800000Y-117220000D03*
X143800000Y-116200000D03*
%TD*%
D22*
%TO.C,R2*%
X148170000Y-124900000D03*
X147150000Y-124900000D03*
%TD*%
D21*
%TO.C,R1*%
X149500000Y-117731000D03*
X149500000Y-116711000D03*
%TD*%
D23*
%TO.C,L3*%
X151600000Y-122885000D03*
X151600000Y-121915000D03*
%TD*%
D24*
%TO.C,L2*%
X151550000Y-120950000D03*
X152520000Y-120950000D03*
%TD*%
D25*
%TO.C,L1*%
X150500000Y-120850000D03*
X150500000Y-121820000D03*
%TD*%
D26*
%TO.C,J3*%
X131900000Y-126000000D03*
D27*
X131900000Y-127270000D03*
X130630000Y-126000000D03*
X130630000Y-127270000D03*
X129360000Y-126000000D03*
X129360000Y-127270000D03*
X128090000Y-126000000D03*
X128090000Y-127270000D03*
X126820000Y-126000000D03*
X126820000Y-127270000D03*
%TD*%
D28*
%TO.C,J2*%
X159750000Y-124225000D03*
X159750000Y-118575000D03*
D29*
X159950000Y-121400000D03*
%TD*%
D30*
%TO.C,J1*%
X120450000Y-122818400D03*
D31*
X123150000Y-119318400D03*
D32*
X123150000Y-121168400D03*
X123150000Y-120518400D03*
X123150000Y-123118400D03*
X123150000Y-122468400D03*
X123150000Y-121818400D03*
D31*
X123150000Y-124318400D03*
D30*
X120450000Y-120818400D03*
D33*
X120450000Y-118318400D03*
X120450000Y-125318400D03*
D34*
X120450000Y-124718400D03*
X120450000Y-118918400D03*
%TD*%
D35*
%TO.C,FB1*%
X126399000Y-114286400D03*
X128524000Y-114286400D03*
%TD*%
D36*
%TO.C,F1*%
X121253600Y-114565800D03*
X124053600Y-114565800D03*
%TD*%
D37*
%TO.C,D2*%
X136804400Y-114337200D03*
X136804400Y-116212200D03*
%TD*%
%TO.C,D1*%
X134670800Y-114316400D03*
X134670800Y-116191400D03*
%TD*%
D38*
%TO.C,C18*%
X125006600Y-127204000D03*
X125006600Y-126244000D03*
%TD*%
%TO.C,C17*%
X142748000Y-117180000D03*
X142748000Y-116220000D03*
%TD*%
%TO.C,C16*%
X141732000Y-117180000D03*
X141732000Y-116220000D03*
%TD*%
%TO.C,C15*%
X140716000Y-117180000D03*
X140716000Y-116220000D03*
%TD*%
%TO.C,C14*%
X139700000Y-117180000D03*
X139700000Y-116220000D03*
%TD*%
D39*
%TO.C,C13*%
X131521200Y-116991200D03*
X131521200Y-118541200D03*
%TD*%
D40*
%TO.C,C12*%
X155400000Y-120040000D03*
X155400000Y-121000000D03*
%TD*%
D39*
%TO.C,C11*%
X126085600Y-117054400D03*
X126085600Y-118604400D03*
%TD*%
D41*
%TO.C,C10*%
X153450000Y-120950000D03*
X154410000Y-120950000D03*
%TD*%
D42*
%TO.C,C9*%
X153510000Y-123850000D03*
X152550000Y-123850000D03*
%TD*%
D38*
%TO.C,C8*%
X144300000Y-127660000D03*
X144300000Y-126700000D03*
%TD*%
D42*
%TO.C,C7*%
X153510000Y-122900000D03*
X152550000Y-122900000D03*
%TD*%
D40*
%TO.C,C6*%
X149700000Y-126640000D03*
X149700000Y-127600000D03*
%TD*%
%TO.C,C5*%
X150500000Y-116740000D03*
X150500000Y-117700000D03*
%TD*%
D42*
%TO.C,C4*%
X146150000Y-124900000D03*
X145190000Y-124900000D03*
%TD*%
D41*
%TO.C,C3*%
X147300000Y-117600000D03*
X148260000Y-117600000D03*
%TD*%
D43*
%TO.C,C2*%
X146450000Y-116100000D03*
X148000000Y-116100000D03*
%TD*%
D42*
%TO.C,C1*%
X146460000Y-117600000D03*
X145500000Y-117600000D03*
%TD*%
M02*
