M48
; DRILL file {KiCad (5.1.10)-1} date 12/15/21 16:42:59
; FORMAT={-:-/ absolute / inch / decimal}
; #@! TF.CreationDate,2021-12-15T16:42:59+05:30
; #@! TF.GenerationSoftware,Kicad,Pcbnew,(5.1.10)-1
; #@! TF.FileFunction,Plated,1,4,PTH
FMAT,2
INCH
T1C0.0157
T2C0.0236
T3C0.0315
T4C0.0374
T5C0.0394
T6C0.0433
T7C0.0591
T8C0.0906
%
G90
G05
T1
X3.915Y-3.06
X3.9175Y-3.1425
X4.25Y-2.78
X4.2675Y-2.9225
X4.315Y-3.29
X4.3175Y-3.11
X4.3775Y-3.62
X4.38Y-3.01
X4.38Y-3.505
X4.45Y-3.655
X4.455Y-3.01
X4.515Y-2.9225
X4.545Y-3.655
X4.58Y-2.5075
X4.6475Y-2.51
X4.6675Y-3.2925
X4.6925Y-3.5025
X4.695Y-3.615
X4.715Y-3.29
X4.7275Y-2.51
X4.7325Y-3.38
X4.765Y-3.2925
X4.81Y-3.3775
X4.8175Y-3.2875
X4.8438Y-3.1212
X4.865Y-3.285
X5.0075Y-2.8925
X5.0375Y-3.0425
X5.0388Y-2.9512
X5.2025Y-2.6075
X5.2375Y-3.66
X5.31Y-3.655
X5.4175Y-4.13
X5.4275Y-3.1475
X5.43Y-3.0875
X5.4375Y-3.2175
X5.44Y-3.355
X5.4475Y-3.0425
X5.45Y-4.2575
X5.465Y-3.77
X5.4825Y-3.5475
X5.515Y-3.7675
X5.5275Y-4.2575
X5.55Y-3.56
X5.565Y-3.7675
X5.565Y-4.1325
X5.605Y-2.935
X5.605Y-3.01
X5.605Y-3.3375
X5.6125Y-3.7675
X5.615Y-4.1325
X5.6187Y-3.5587
X5.6275Y-3.1975
X5.6275Y-3.245
X5.6562Y-2.6187
X5.665Y-3.7675
X5.665Y-4.1325
X5.6675Y-3.11
X5.6775Y-2.9725
X5.6775Y-3.265
X5.6775Y-3.3375
X5.6825Y-3.5675
X5.685Y-3.0675
X5.715Y-3.77
X5.715Y-4.1325
X5.7175Y-2.8925
X5.7475Y-3.3375
X5.82Y-2.9
X5.8225Y-3.3375
X5.8275Y-2.6975
X5.89Y-2.695
X5.895Y-2.8975
X5.9025Y-3.0275
X5.9025Y-3.105
X5.9725Y-3.025
X5.9725Y-3.1
X6.0125Y-3.5425
X6.0375Y-3.3425
X6.045Y-3.2825
X6.0475Y-3.2075
X6.055Y-3.5825
X6.095Y-3.52
X6.1275Y-2.445
X6.165Y-2.58
X6.2075Y-2.4475
X6.2225Y-3.2575
X6.2225Y-3.3325
X6.2225Y-3.47
X6.3075Y-2.605
X6.315Y-2.5175
X6.4325Y-2.4525
X6.47Y-2.5825
X6.51Y-2.4475
X6.5875Y-3.1025
X6.59Y-3.295
X6.6075Y-2.6
X6.6125Y-2.52
X6.6209Y-2.6909
X6.89Y-2.955
X7.0625Y-3.08
X7.095Y-2.985
X7.4Y-3.425
X7.4125Y-3.3825
X7.4275Y-3.285
X7.4325Y-3.4575
X7.4375Y-3.3425
X7.445Y-3.2475
X7.5064Y-3.5161
X7.5225Y-3.465
X7.7325Y-3.4775
T2
X6.7425Y-2.4275
X6.8842Y-2.4275
X7.026Y-2.4275
X7.1677Y-2.4275
X7.3094Y-2.4275
X7.5925Y-2.7023
X7.5925Y-2.844
X7.5925Y-2.9858
X7.5925Y-3.1275
T3
X4.085Y-3.0075
X4.085Y-3.1996
X6.36Y-3.1025
X6.36Y-3.2946
X6.775Y-2.8574
X6.775Y-3.7826
X6.875Y-2.8574
X6.875Y-3.7826
X6.975Y-2.8574
X6.975Y-3.7826
X7.075Y-2.8574
X7.075Y-3.7826
X7.175Y-2.8574
X7.175Y-3.7826
X7.275Y-2.8574
X7.275Y-3.7826
T4
X4.4519Y-2.6175
X4.5503Y-2.6175
X4.6291Y-2.6175
X4.7275Y-2.6175
T5
X5.075Y-2.61
X5.19Y-2.9975
X5.19Y-3.0975
X5.19Y-3.1975
X5.29Y-2.9975
X5.29Y-3.0975
X5.29Y-3.1975
X5.3742Y-2.61
X5.59Y-2.445
X5.69Y-2.445
X5.79Y-2.445
X5.89Y-2.445
X5.99Y-2.445
T6
X6.12Y-3.63
X6.12Y-3.8072
X6.3759Y-3.63
X6.3759Y-3.8072
T7
X5.1383Y-3.925
X5.945Y-3.925
T8
X4.331Y-2.5108
X4.8484Y-2.5108
T0
M30
