%TF.GenerationSoftware,KiCad,Pcbnew,(5.1.10)-1*%
%TF.CreationDate,2021-12-15T16:43:02+05:30*%
%TF.ProjectId,SPVMD_V2.0,5350564d-445f-4563-922e-302e6b696361,rev?*%
%TF.SameCoordinates,Original*%
%TF.FileFunction,Legend,Bot*%
%TF.FilePolarity,Positive*%
%FSLAX46Y46*%
G04 Gerber Fmt 4.6, Leading zero omitted, Abs format (unit mm)*
G04 Created by KiCad (PCBNEW (5.1.10)-1) date 2021-12-15 16:43:02*
%MOMM*%
%LPD*%
G01*
G04 APERTURE LIST*
%ADD10C,0.120000*%
%ADD11C,0.150000*%
G04 APERTURE END LIST*
D10*
%TO.C,C12*%
X141632000Y-75237748D02*
X141632000Y-75760252D01*
X143102000Y-75237748D02*
X143102000Y-75760252D01*
%TO.C,C17*%
X154341500Y-82684252D02*
X154341500Y-82161748D01*
X152871500Y-82684252D02*
X152871500Y-82161748D01*
%TO.C,C16*%
X149039252Y-72861500D02*
X148516748Y-72861500D01*
X149039252Y-74331500D02*
X148516748Y-74331500D01*
%TO.C,BT1*%
X152453000Y-101495000D02*
X152453000Y-102695000D01*
X152453000Y-96695000D02*
X148853000Y-96695000D01*
X152453000Y-97895000D02*
X152453000Y-96695000D01*
X152453000Y-102695000D02*
X148853000Y-102695000D01*
X122966830Y-99622687D02*
G75*
G03*
X148153000Y-103195000I12836170J-72313D01*
G01*
X148151246Y-103221384D02*
G75*
G02*
X148903000Y-102695000I751754J-273616D01*
G01*
X122966830Y-99767313D02*
G75*
G02*
X148153000Y-96195000I12836170J72313D01*
G01*
X148151246Y-96168616D02*
G75*
G03*
X148903000Y-96695000I751754J273616D01*
G01*
%TO.C,C4*%
X119257752Y-64489000D02*
X118735248Y-64489000D01*
X119257752Y-63019000D02*
X118735248Y-63019000D01*
%TO.C,C5*%
X108866000Y-80210252D02*
X108866000Y-79687748D01*
X110336000Y-80210252D02*
X110336000Y-79687748D01*
%TO.C,C6*%
X111945748Y-77252500D02*
X112468252Y-77252500D01*
X111945748Y-75782500D02*
X112468252Y-75782500D01*
%TO.C,C10*%
X157380000Y-86921748D02*
X157380000Y-87444252D01*
X158850000Y-86921748D02*
X158850000Y-87444252D01*
%TO.C,C11*%
X146611748Y-85507500D02*
X147134252Y-85507500D01*
X146611748Y-84037500D02*
X147134252Y-84037500D01*
%TO.C,FB1*%
X143419564Y-84037500D02*
X142965436Y-84037500D01*
X143419564Y-85507500D02*
X142965436Y-85507500D01*
%TO.C,R1*%
X115566564Y-63019000D02*
X115112436Y-63019000D01*
X115566564Y-64489000D02*
X115112436Y-64489000D01*
%TO.C,R3*%
X157380000Y-83442436D02*
X157380000Y-83896564D01*
X158850000Y-83442436D02*
X158850000Y-83896564D01*
%TO.C,R8*%
X150561936Y-78132000D02*
X151016064Y-78132000D01*
X150561936Y-79602000D02*
X151016064Y-79602000D01*
%TO.C,R9*%
X150561936Y-77633500D02*
X151016064Y-77633500D01*
X150561936Y-76163500D02*
X151016064Y-76163500D01*
%TO.C,R10*%
X133283064Y-67029000D02*
X132828936Y-67029000D01*
X133283064Y-65559000D02*
X132828936Y-65559000D01*
%TO.C,C12*%
D11*
X141044142Y-74856142D02*
X141091761Y-74808523D01*
X141139380Y-74665666D01*
X141139380Y-74570428D01*
X141091761Y-74427571D01*
X140996523Y-74332333D01*
X140901285Y-74284714D01*
X140710809Y-74237095D01*
X140567952Y-74237095D01*
X140377476Y-74284714D01*
X140282238Y-74332333D01*
X140187000Y-74427571D01*
X140139380Y-74570428D01*
X140139380Y-74665666D01*
X140187000Y-74808523D01*
X140234619Y-74856142D01*
X141139380Y-75808523D02*
X141139380Y-75237095D01*
X141139380Y-75522809D02*
X140139380Y-75522809D01*
X140282238Y-75427571D01*
X140377476Y-75332333D01*
X140425095Y-75237095D01*
X140234619Y-76189476D02*
X140187000Y-76237095D01*
X140139380Y-76332333D01*
X140139380Y-76570428D01*
X140187000Y-76665666D01*
X140234619Y-76713285D01*
X140329857Y-76760904D01*
X140425095Y-76760904D01*
X140567952Y-76713285D01*
X141139380Y-76141857D01*
X141139380Y-76760904D01*
%TO.C,C17*%
X155643642Y-81780142D02*
X155691261Y-81732523D01*
X155738880Y-81589666D01*
X155738880Y-81494428D01*
X155691261Y-81351571D01*
X155596023Y-81256333D01*
X155500785Y-81208714D01*
X155310309Y-81161095D01*
X155167452Y-81161095D01*
X154976976Y-81208714D01*
X154881738Y-81256333D01*
X154786500Y-81351571D01*
X154738880Y-81494428D01*
X154738880Y-81589666D01*
X154786500Y-81732523D01*
X154834119Y-81780142D01*
X155738880Y-82732523D02*
X155738880Y-82161095D01*
X155738880Y-82446809D02*
X154738880Y-82446809D01*
X154881738Y-82351571D01*
X154976976Y-82256333D01*
X155024595Y-82161095D01*
X154738880Y-83065857D02*
X154738880Y-83732523D01*
X155738880Y-83303952D01*
%TO.C,C16*%
X149420857Y-72273642D02*
X149468476Y-72321261D01*
X149611333Y-72368880D01*
X149706571Y-72368880D01*
X149849428Y-72321261D01*
X149944666Y-72226023D01*
X149992285Y-72130785D01*
X150039904Y-71940309D01*
X150039904Y-71797452D01*
X149992285Y-71606976D01*
X149944666Y-71511738D01*
X149849428Y-71416500D01*
X149706571Y-71368880D01*
X149611333Y-71368880D01*
X149468476Y-71416500D01*
X149420857Y-71464119D01*
X148468476Y-72368880D02*
X149039904Y-72368880D01*
X148754190Y-72368880D02*
X148754190Y-71368880D01*
X148849428Y-71511738D01*
X148944666Y-71606976D01*
X149039904Y-71654595D01*
X147611333Y-71368880D02*
X147801809Y-71368880D01*
X147897047Y-71416500D01*
X147944666Y-71464119D01*
X148039904Y-71606976D01*
X148087523Y-71797452D01*
X148087523Y-72178404D01*
X148039904Y-72273642D01*
X147992285Y-72321261D01*
X147897047Y-72368880D01*
X147706571Y-72368880D01*
X147611333Y-72321261D01*
X147563714Y-72273642D01*
X147516095Y-72178404D01*
X147516095Y-71940309D01*
X147563714Y-71845071D01*
X147611333Y-71797452D01*
X147706571Y-71749833D01*
X147897047Y-71749833D01*
X147992285Y-71797452D01*
X148039904Y-71845071D01*
X148087523Y-71940309D01*
%TO.C,BT1*%
X151788714Y-95623571D02*
X151645857Y-95671190D01*
X151598238Y-95718809D01*
X151550619Y-95814047D01*
X151550619Y-95956904D01*
X151598238Y-96052142D01*
X151645857Y-96099761D01*
X151741095Y-96147380D01*
X152122047Y-96147380D01*
X152122047Y-95147380D01*
X151788714Y-95147380D01*
X151693476Y-95195000D01*
X151645857Y-95242619D01*
X151598238Y-95337857D01*
X151598238Y-95433095D01*
X151645857Y-95528333D01*
X151693476Y-95575952D01*
X151788714Y-95623571D01*
X152122047Y-95623571D01*
X151264904Y-95147380D02*
X150693476Y-95147380D01*
X150979190Y-96147380D02*
X150979190Y-95147380D01*
X149836333Y-96147380D02*
X150407761Y-96147380D01*
X150122047Y-96147380D02*
X150122047Y-95147380D01*
X150217285Y-95290238D01*
X150312523Y-95385476D01*
X150407761Y-95433095D01*
X148824428Y-99802142D02*
X147681571Y-99802142D01*
X148253000Y-100373571D02*
X148253000Y-99230714D01*
%TO.C,C4*%
X119163166Y-62431142D02*
X119210785Y-62478761D01*
X119353642Y-62526380D01*
X119448880Y-62526380D01*
X119591738Y-62478761D01*
X119686976Y-62383523D01*
X119734595Y-62288285D01*
X119782214Y-62097809D01*
X119782214Y-61954952D01*
X119734595Y-61764476D01*
X119686976Y-61669238D01*
X119591738Y-61574000D01*
X119448880Y-61526380D01*
X119353642Y-61526380D01*
X119210785Y-61574000D01*
X119163166Y-61621619D01*
X118306023Y-61859714D02*
X118306023Y-62526380D01*
X118544119Y-61478761D02*
X118782214Y-62193047D01*
X118163166Y-62193047D01*
%TO.C,C5*%
X111638142Y-79782333D02*
X111685761Y-79734714D01*
X111733380Y-79591857D01*
X111733380Y-79496619D01*
X111685761Y-79353761D01*
X111590523Y-79258523D01*
X111495285Y-79210904D01*
X111304809Y-79163285D01*
X111161952Y-79163285D01*
X110971476Y-79210904D01*
X110876238Y-79258523D01*
X110781000Y-79353761D01*
X110733380Y-79496619D01*
X110733380Y-79591857D01*
X110781000Y-79734714D01*
X110828619Y-79782333D01*
X110733380Y-80687095D02*
X110733380Y-80210904D01*
X111209571Y-80163285D01*
X111161952Y-80210904D01*
X111114333Y-80306142D01*
X111114333Y-80544238D01*
X111161952Y-80639476D01*
X111209571Y-80687095D01*
X111304809Y-80734714D01*
X111542904Y-80734714D01*
X111638142Y-80687095D01*
X111685761Y-80639476D01*
X111733380Y-80544238D01*
X111733380Y-80306142D01*
X111685761Y-80210904D01*
X111638142Y-80163285D01*
%TO.C,C6*%
X112373666Y-78554642D02*
X112421285Y-78602261D01*
X112564142Y-78649880D01*
X112659380Y-78649880D01*
X112802238Y-78602261D01*
X112897476Y-78507023D01*
X112945095Y-78411785D01*
X112992714Y-78221309D01*
X112992714Y-78078452D01*
X112945095Y-77887976D01*
X112897476Y-77792738D01*
X112802238Y-77697500D01*
X112659380Y-77649880D01*
X112564142Y-77649880D01*
X112421285Y-77697500D01*
X112373666Y-77745119D01*
X111516523Y-77649880D02*
X111707000Y-77649880D01*
X111802238Y-77697500D01*
X111849857Y-77745119D01*
X111945095Y-77887976D01*
X111992714Y-78078452D01*
X111992714Y-78459404D01*
X111945095Y-78554642D01*
X111897476Y-78602261D01*
X111802238Y-78649880D01*
X111611761Y-78649880D01*
X111516523Y-78602261D01*
X111468904Y-78554642D01*
X111421285Y-78459404D01*
X111421285Y-78221309D01*
X111468904Y-78126071D01*
X111516523Y-78078452D01*
X111611761Y-78030833D01*
X111802238Y-78030833D01*
X111897476Y-78078452D01*
X111945095Y-78126071D01*
X111992714Y-78221309D01*
%TO.C,C10*%
X156792142Y-86540142D02*
X156839761Y-86492523D01*
X156887380Y-86349666D01*
X156887380Y-86254428D01*
X156839761Y-86111571D01*
X156744523Y-86016333D01*
X156649285Y-85968714D01*
X156458809Y-85921095D01*
X156315952Y-85921095D01*
X156125476Y-85968714D01*
X156030238Y-86016333D01*
X155935000Y-86111571D01*
X155887380Y-86254428D01*
X155887380Y-86349666D01*
X155935000Y-86492523D01*
X155982619Y-86540142D01*
X156887380Y-87492523D02*
X156887380Y-86921095D01*
X156887380Y-87206809D02*
X155887380Y-87206809D01*
X156030238Y-87111571D01*
X156125476Y-87016333D01*
X156173095Y-86921095D01*
X155887380Y-88111571D02*
X155887380Y-88206809D01*
X155935000Y-88302047D01*
X155982619Y-88349666D01*
X156077857Y-88397285D01*
X156268333Y-88444904D01*
X156506428Y-88444904D01*
X156696904Y-88397285D01*
X156792142Y-88349666D01*
X156839761Y-88302047D01*
X156887380Y-88206809D01*
X156887380Y-88111571D01*
X156839761Y-88016333D01*
X156792142Y-87968714D01*
X156696904Y-87921095D01*
X156506428Y-87873476D01*
X156268333Y-87873476D01*
X156077857Y-87921095D01*
X155982619Y-87968714D01*
X155935000Y-88016333D01*
X155887380Y-88111571D01*
%TO.C,C11*%
X147515857Y-86809642D02*
X147563476Y-86857261D01*
X147706333Y-86904880D01*
X147801571Y-86904880D01*
X147944428Y-86857261D01*
X148039666Y-86762023D01*
X148087285Y-86666785D01*
X148134904Y-86476309D01*
X148134904Y-86333452D01*
X148087285Y-86142976D01*
X148039666Y-86047738D01*
X147944428Y-85952500D01*
X147801571Y-85904880D01*
X147706333Y-85904880D01*
X147563476Y-85952500D01*
X147515857Y-86000119D01*
X146563476Y-86904880D02*
X147134904Y-86904880D01*
X146849190Y-86904880D02*
X146849190Y-85904880D01*
X146944428Y-86047738D01*
X147039666Y-86142976D01*
X147134904Y-86190595D01*
X145611095Y-86904880D02*
X146182523Y-86904880D01*
X145896809Y-86904880D02*
X145896809Y-85904880D01*
X145992047Y-86047738D01*
X146087285Y-86142976D01*
X146182523Y-86190595D01*
%TO.C,FB1*%
X144025833Y-83051071D02*
X144359166Y-83051071D01*
X144359166Y-83574880D02*
X144359166Y-82574880D01*
X143882976Y-82574880D01*
X143168690Y-83051071D02*
X143025833Y-83098690D01*
X142978214Y-83146309D01*
X142930595Y-83241547D01*
X142930595Y-83384404D01*
X142978214Y-83479642D01*
X143025833Y-83527261D01*
X143121071Y-83574880D01*
X143502023Y-83574880D01*
X143502023Y-82574880D01*
X143168690Y-82574880D01*
X143073452Y-82622500D01*
X143025833Y-82670119D01*
X142978214Y-82765357D01*
X142978214Y-82860595D01*
X143025833Y-82955833D01*
X143073452Y-83003452D01*
X143168690Y-83051071D01*
X143502023Y-83051071D01*
X141978214Y-83574880D02*
X142549642Y-83574880D01*
X142263928Y-83574880D02*
X142263928Y-82574880D01*
X142359166Y-82717738D01*
X142454404Y-82812976D01*
X142549642Y-82860595D01*
%TO.C,R1*%
X115506166Y-62556380D02*
X115839500Y-62080190D01*
X116077595Y-62556380D02*
X116077595Y-61556380D01*
X115696642Y-61556380D01*
X115601404Y-61604000D01*
X115553785Y-61651619D01*
X115506166Y-61746857D01*
X115506166Y-61889714D01*
X115553785Y-61984952D01*
X115601404Y-62032571D01*
X115696642Y-62080190D01*
X116077595Y-62080190D01*
X114553785Y-62556380D02*
X115125214Y-62556380D01*
X114839500Y-62556380D02*
X114839500Y-61556380D01*
X114934738Y-61699238D01*
X115029976Y-61794476D01*
X115125214Y-61842095D01*
%TO.C,R3*%
X156917380Y-83502833D02*
X156441190Y-83169500D01*
X156917380Y-82931404D02*
X155917380Y-82931404D01*
X155917380Y-83312357D01*
X155965000Y-83407595D01*
X156012619Y-83455214D01*
X156107857Y-83502833D01*
X156250714Y-83502833D01*
X156345952Y-83455214D01*
X156393571Y-83407595D01*
X156441190Y-83312357D01*
X156441190Y-82931404D01*
X155917380Y-83836166D02*
X155917380Y-84455214D01*
X156298333Y-84121880D01*
X156298333Y-84264738D01*
X156345952Y-84359976D01*
X156393571Y-84407595D01*
X156488809Y-84455214D01*
X156726904Y-84455214D01*
X156822142Y-84407595D01*
X156869761Y-84359976D01*
X156917380Y-84264738D01*
X156917380Y-83979023D01*
X156869761Y-83883785D01*
X156822142Y-83836166D01*
%TO.C,R8*%
X148312166Y-79319380D02*
X148645500Y-78843190D01*
X148883595Y-79319380D02*
X148883595Y-78319380D01*
X148502642Y-78319380D01*
X148407404Y-78367000D01*
X148359785Y-78414619D01*
X148312166Y-78509857D01*
X148312166Y-78652714D01*
X148359785Y-78747952D01*
X148407404Y-78795571D01*
X148502642Y-78843190D01*
X148883595Y-78843190D01*
X147740738Y-78747952D02*
X147835976Y-78700333D01*
X147883595Y-78652714D01*
X147931214Y-78557476D01*
X147931214Y-78509857D01*
X147883595Y-78414619D01*
X147835976Y-78367000D01*
X147740738Y-78319380D01*
X147550261Y-78319380D01*
X147455023Y-78367000D01*
X147407404Y-78414619D01*
X147359785Y-78509857D01*
X147359785Y-78557476D01*
X147407404Y-78652714D01*
X147455023Y-78700333D01*
X147550261Y-78747952D01*
X147740738Y-78747952D01*
X147835976Y-78795571D01*
X147883595Y-78843190D01*
X147931214Y-78938428D01*
X147931214Y-79128904D01*
X147883595Y-79224142D01*
X147835976Y-79271761D01*
X147740738Y-79319380D01*
X147550261Y-79319380D01*
X147455023Y-79271761D01*
X147407404Y-79224142D01*
X147359785Y-79128904D01*
X147359785Y-78938428D01*
X147407404Y-78843190D01*
X147455023Y-78795571D01*
X147550261Y-78747952D01*
%TO.C,R9*%
X148248666Y-77414380D02*
X148582000Y-76938190D01*
X148820095Y-77414380D02*
X148820095Y-76414380D01*
X148439142Y-76414380D01*
X148343904Y-76462000D01*
X148296285Y-76509619D01*
X148248666Y-76604857D01*
X148248666Y-76747714D01*
X148296285Y-76842952D01*
X148343904Y-76890571D01*
X148439142Y-76938190D01*
X148820095Y-76938190D01*
X147772476Y-77414380D02*
X147582000Y-77414380D01*
X147486761Y-77366761D01*
X147439142Y-77319142D01*
X147343904Y-77176285D01*
X147296285Y-76985809D01*
X147296285Y-76604857D01*
X147343904Y-76509619D01*
X147391523Y-76462000D01*
X147486761Y-76414380D01*
X147677238Y-76414380D01*
X147772476Y-76462000D01*
X147820095Y-76509619D01*
X147867714Y-76604857D01*
X147867714Y-76842952D01*
X147820095Y-76938190D01*
X147772476Y-76985809D01*
X147677238Y-77033428D01*
X147486761Y-77033428D01*
X147391523Y-76985809D01*
X147343904Y-76938190D01*
X147296285Y-76842952D01*
%TO.C,R10*%
X133698857Y-65096380D02*
X134032190Y-64620190D01*
X134270285Y-65096380D02*
X134270285Y-64096380D01*
X133889333Y-64096380D01*
X133794095Y-64144000D01*
X133746476Y-64191619D01*
X133698857Y-64286857D01*
X133698857Y-64429714D01*
X133746476Y-64524952D01*
X133794095Y-64572571D01*
X133889333Y-64620190D01*
X134270285Y-64620190D01*
X132746476Y-65096380D02*
X133317904Y-65096380D01*
X133032190Y-65096380D02*
X133032190Y-64096380D01*
X133127428Y-64239238D01*
X133222666Y-64334476D01*
X133317904Y-64382095D01*
X132127428Y-64096380D02*
X132032190Y-64096380D01*
X131936952Y-64144000D01*
X131889333Y-64191619D01*
X131841714Y-64286857D01*
X131794095Y-64477333D01*
X131794095Y-64715428D01*
X131841714Y-64905904D01*
X131889333Y-65001142D01*
X131936952Y-65048761D01*
X132032190Y-65096380D01*
X132127428Y-65096380D01*
X132222666Y-65048761D01*
X132270285Y-65001142D01*
X132317904Y-64905904D01*
X132365523Y-64715428D01*
X132365523Y-64477333D01*
X132317904Y-64286857D01*
X132270285Y-64191619D01*
X132222666Y-64144000D01*
X132127428Y-64096380D01*
%TD*%
M02*
