%TF.GenerationSoftware,KiCad,Pcbnew,(5.1.10)-1*%
%TF.CreationDate,2021-12-15T16:43:02+05:30*%
%TF.ProjectId,SPVMD_V2.0,5350564d-445f-4563-922e-302e6b696361,rev?*%
%TF.SameCoordinates,Original*%
%TF.FileFunction,Soldermask,Bot*%
%TF.FilePolarity,Negative*%
%FSLAX46Y46*%
G04 Gerber Fmt 4.6, Leading zero omitted, Abs format (unit mm)*
G04 Created by KiCad (PCBNEW (5.1.10)-1) date 2021-12-15 16:43:02*
%MOMM*%
%LPD*%
G01*
G04 APERTURE LIST*
%ADD10O,1.700000X1.700000*%
%ADD11R,1.700000X1.700000*%
%ADD12C,3.200000*%
%ADD13C,3.000000*%
%ADD14R,3.000000X3.000000*%
%ADD15R,2.000000X2.000000*%
%ADD16C,2.000000*%
%ADD17R,1.600000X1.500000*%
%ADD18C,1.600000*%
%ADD19C,1.500000*%
%ADD20O,1.200000X2.000000*%
G04 APERTURE END LIST*
%TO.C,C12*%
G36*
G01*
X141892000Y-74049000D02*
X142842000Y-74049000D01*
G75*
G02*
X143092000Y-74299000I0J-250000D01*
G01*
X143092000Y-74799000D01*
G75*
G02*
X142842000Y-75049000I-250000J0D01*
G01*
X141892000Y-75049000D01*
G75*
G02*
X141642000Y-74799000I0J250000D01*
G01*
X141642000Y-74299000D01*
G75*
G02*
X141892000Y-74049000I250000J0D01*
G01*
G37*
G36*
G01*
X141892000Y-75949000D02*
X142842000Y-75949000D01*
G75*
G02*
X143092000Y-76199000I0J-250000D01*
G01*
X143092000Y-76699000D01*
G75*
G02*
X142842000Y-76949000I-250000J0D01*
G01*
X141892000Y-76949000D01*
G75*
G02*
X141642000Y-76699000I0J250000D01*
G01*
X141642000Y-76199000D01*
G75*
G02*
X141892000Y-75949000I250000J0D01*
G01*
G37*
%TD*%
%TO.C,C17*%
G36*
G01*
X154081500Y-81973000D02*
X153131500Y-81973000D01*
G75*
G02*
X152881500Y-81723000I0J250000D01*
G01*
X152881500Y-81223000D01*
G75*
G02*
X153131500Y-80973000I250000J0D01*
G01*
X154081500Y-80973000D01*
G75*
G02*
X154331500Y-81223000I0J-250000D01*
G01*
X154331500Y-81723000D01*
G75*
G02*
X154081500Y-81973000I-250000J0D01*
G01*
G37*
G36*
G01*
X154081500Y-83873000D02*
X153131500Y-83873000D01*
G75*
G02*
X152881500Y-83623000I0J250000D01*
G01*
X152881500Y-83123000D01*
G75*
G02*
X153131500Y-82873000I250000J0D01*
G01*
X154081500Y-82873000D01*
G75*
G02*
X154331500Y-83123000I0J-250000D01*
G01*
X154331500Y-83623000D01*
G75*
G02*
X154081500Y-83873000I-250000J0D01*
G01*
G37*
%TD*%
%TO.C,C16*%
G36*
G01*
X148328000Y-73121500D02*
X148328000Y-74071500D01*
G75*
G02*
X148078000Y-74321500I-250000J0D01*
G01*
X147578000Y-74321500D01*
G75*
G02*
X147328000Y-74071500I0J250000D01*
G01*
X147328000Y-73121500D01*
G75*
G02*
X147578000Y-72871500I250000J0D01*
G01*
X148078000Y-72871500D01*
G75*
G02*
X148328000Y-73121500I0J-250000D01*
G01*
G37*
G36*
G01*
X150228000Y-73121500D02*
X150228000Y-74071500D01*
G75*
G02*
X149978000Y-74321500I-250000J0D01*
G01*
X149478000Y-74321500D01*
G75*
G02*
X149228000Y-74071500I0J250000D01*
G01*
X149228000Y-73121500D01*
G75*
G02*
X149478000Y-72871500I250000J0D01*
G01*
X149978000Y-72871500D01*
G75*
G02*
X150228000Y-73121500I0J-250000D01*
G01*
G37*
%TD*%
D10*
%TO.C,J7*%
X131826000Y-76136500D03*
X134366000Y-76136500D03*
X131826000Y-78676500D03*
X134366000Y-78676500D03*
X131826000Y-81216500D03*
D11*
X134366000Y-81216500D03*
%TD*%
D12*
%TO.C,H4*%
X197104000Y-63500000D03*
%TD*%
%TO.C,H3*%
X197104000Y-96393000D03*
%TD*%
%TO.C,H2*%
X101600000Y-96520000D03*
%TD*%
%TO.C,H1*%
X101600000Y-63500000D03*
%TD*%
D13*
%TO.C,BT1*%
X130513000Y-99695000D03*
D14*
X151003000Y-99695000D03*
%TD*%
D15*
%TO.C,BZ1*%
X128905000Y-66294000D03*
D16*
X136505000Y-66294000D03*
%TD*%
%TO.C,C4*%
G36*
G01*
X118546500Y-63279000D02*
X118546500Y-64229000D01*
G75*
G02*
X118296500Y-64479000I-250000J0D01*
G01*
X117796500Y-64479000D01*
G75*
G02*
X117546500Y-64229000I0J250000D01*
G01*
X117546500Y-63279000D01*
G75*
G02*
X117796500Y-63029000I250000J0D01*
G01*
X118296500Y-63029000D01*
G75*
G02*
X118546500Y-63279000I0J-250000D01*
G01*
G37*
G36*
G01*
X120446500Y-63279000D02*
X120446500Y-64229000D01*
G75*
G02*
X120196500Y-64479000I-250000J0D01*
G01*
X119696500Y-64479000D01*
G75*
G02*
X119446500Y-64229000I0J250000D01*
G01*
X119446500Y-63279000D01*
G75*
G02*
X119696500Y-63029000I250000J0D01*
G01*
X120196500Y-63029000D01*
G75*
G02*
X120446500Y-63279000I0J-250000D01*
G01*
G37*
%TD*%
%TO.C,C5*%
G36*
G01*
X110076000Y-79499000D02*
X109126000Y-79499000D01*
G75*
G02*
X108876000Y-79249000I0J250000D01*
G01*
X108876000Y-78749000D01*
G75*
G02*
X109126000Y-78499000I250000J0D01*
G01*
X110076000Y-78499000D01*
G75*
G02*
X110326000Y-78749000I0J-250000D01*
G01*
X110326000Y-79249000D01*
G75*
G02*
X110076000Y-79499000I-250000J0D01*
G01*
G37*
G36*
G01*
X110076000Y-81399000D02*
X109126000Y-81399000D01*
G75*
G02*
X108876000Y-81149000I0J250000D01*
G01*
X108876000Y-80649000D01*
G75*
G02*
X109126000Y-80399000I250000J0D01*
G01*
X110076000Y-80399000D01*
G75*
G02*
X110326000Y-80649000I0J-250000D01*
G01*
X110326000Y-81149000D01*
G75*
G02*
X110076000Y-81399000I-250000J0D01*
G01*
G37*
%TD*%
%TO.C,C6*%
G36*
G01*
X110757000Y-76992500D02*
X110757000Y-76042500D01*
G75*
G02*
X111007000Y-75792500I250000J0D01*
G01*
X111507000Y-75792500D01*
G75*
G02*
X111757000Y-76042500I0J-250000D01*
G01*
X111757000Y-76992500D01*
G75*
G02*
X111507000Y-77242500I-250000J0D01*
G01*
X111007000Y-77242500D01*
G75*
G02*
X110757000Y-76992500I0J250000D01*
G01*
G37*
G36*
G01*
X112657000Y-76992500D02*
X112657000Y-76042500D01*
G75*
G02*
X112907000Y-75792500I250000J0D01*
G01*
X113407000Y-75792500D01*
G75*
G02*
X113657000Y-76042500I0J-250000D01*
G01*
X113657000Y-76992500D01*
G75*
G02*
X113407000Y-77242500I-250000J0D01*
G01*
X112907000Y-77242500D01*
G75*
G02*
X112657000Y-76992500I0J250000D01*
G01*
G37*
%TD*%
%TO.C,C10*%
G36*
G01*
X157640000Y-85733000D02*
X158590000Y-85733000D01*
G75*
G02*
X158840000Y-85983000I0J-250000D01*
G01*
X158840000Y-86483000D01*
G75*
G02*
X158590000Y-86733000I-250000J0D01*
G01*
X157640000Y-86733000D01*
G75*
G02*
X157390000Y-86483000I0J250000D01*
G01*
X157390000Y-85983000D01*
G75*
G02*
X157640000Y-85733000I250000J0D01*
G01*
G37*
G36*
G01*
X157640000Y-87633000D02*
X158590000Y-87633000D01*
G75*
G02*
X158840000Y-87883000I0J-250000D01*
G01*
X158840000Y-88383000D01*
G75*
G02*
X158590000Y-88633000I-250000J0D01*
G01*
X157640000Y-88633000D01*
G75*
G02*
X157390000Y-88383000I0J250000D01*
G01*
X157390000Y-87883000D01*
G75*
G02*
X157640000Y-87633000I250000J0D01*
G01*
G37*
%TD*%
%TO.C,C11*%
G36*
G01*
X145423000Y-85247500D02*
X145423000Y-84297500D01*
G75*
G02*
X145673000Y-84047500I250000J0D01*
G01*
X146173000Y-84047500D01*
G75*
G02*
X146423000Y-84297500I0J-250000D01*
G01*
X146423000Y-85247500D01*
G75*
G02*
X146173000Y-85497500I-250000J0D01*
G01*
X145673000Y-85497500D01*
G75*
G02*
X145423000Y-85247500I0J250000D01*
G01*
G37*
G36*
G01*
X147323000Y-85247500D02*
X147323000Y-84297500D01*
G75*
G02*
X147573000Y-84047500I250000J0D01*
G01*
X148073000Y-84047500D01*
G75*
G02*
X148323000Y-84297500I0J-250000D01*
G01*
X148323000Y-85247500D01*
G75*
G02*
X148073000Y-85497500I-250000J0D01*
G01*
X147573000Y-85497500D01*
G75*
G02*
X147323000Y-85247500I0J250000D01*
G01*
G37*
%TD*%
%TO.C,FB1*%
G36*
G01*
X144617500Y-84322499D02*
X144617500Y-85222501D01*
G75*
G02*
X144367501Y-85472500I-249999J0D01*
G01*
X143842499Y-85472500D01*
G75*
G02*
X143592500Y-85222501I0J249999D01*
G01*
X143592500Y-84322499D01*
G75*
G02*
X143842499Y-84072500I249999J0D01*
G01*
X144367501Y-84072500D01*
G75*
G02*
X144617500Y-84322499I0J-249999D01*
G01*
G37*
G36*
G01*
X142792500Y-84322499D02*
X142792500Y-85222501D01*
G75*
G02*
X142542501Y-85472500I-249999J0D01*
G01*
X142017499Y-85472500D01*
G75*
G02*
X141767500Y-85222501I0J249999D01*
G01*
X141767500Y-84322499D01*
G75*
G02*
X142017499Y-84072500I249999J0D01*
G01*
X142542501Y-84072500D01*
G75*
G02*
X142792500Y-84322499I0J-249999D01*
G01*
G37*
%TD*%
D13*
%TO.C,J1*%
X123148500Y-63774500D03*
X110008500Y-63774500D03*
D17*
X120078500Y-66484500D03*
D18*
X117578500Y-66484500D03*
X115578500Y-66484500D03*
X113078500Y-66484500D03*
%TD*%
%TO.C,J2*%
G36*
G01*
X170459500Y-62208500D02*
X170459500Y-61108500D01*
G75*
G02*
X170709500Y-60858500I250000J0D01*
G01*
X171809500Y-60858500D01*
G75*
G02*
X172059500Y-61108500I0J-250000D01*
G01*
X172059500Y-62208500D01*
G75*
G02*
X171809500Y-62458500I-250000J0D01*
G01*
X170709500Y-62458500D01*
G75*
G02*
X170459500Y-62208500I0J250000D01*
G01*
G37*
X174859500Y-61658500D03*
X178459500Y-61658500D03*
X182059500Y-61658500D03*
X185659500Y-61658500D03*
D19*
X171259500Y-67658500D03*
X174859500Y-67658500D03*
X178459500Y-67658500D03*
X182059500Y-67658500D03*
X185659500Y-67658500D03*
%TD*%
D11*
%TO.C,J8*%
X141986000Y-62103000D03*
D10*
X144526000Y-62103000D03*
X147066000Y-62103000D03*
X149606000Y-62103000D03*
X152146000Y-62103000D03*
%TD*%
%TO.C,J9*%
G36*
G01*
X193399500Y-80238500D02*
X192299500Y-80238500D01*
G75*
G02*
X192049500Y-79988500I0J250000D01*
G01*
X192049500Y-78888500D01*
G75*
G02*
X192299500Y-78638500I250000J0D01*
G01*
X193399500Y-78638500D01*
G75*
G02*
X193649500Y-78888500I0J-250000D01*
G01*
X193649500Y-79988500D01*
G75*
G02*
X193399500Y-80238500I-250000J0D01*
G01*
G37*
D18*
X192849500Y-75838500D03*
X192849500Y-72238500D03*
X192849500Y-68638500D03*
D19*
X198849500Y-79438500D03*
X198849500Y-75838500D03*
X198849500Y-72238500D03*
X198849500Y-68638500D03*
%TD*%
D20*
%TO.C,Module1*%
X172085000Y-72578000D03*
X172085000Y-96078000D03*
X174625000Y-72578000D03*
X174625000Y-96078000D03*
X177165000Y-72578000D03*
X177165000Y-96078000D03*
X179705000Y-72578000D03*
X179705000Y-96078000D03*
X182245000Y-72578000D03*
X182245000Y-96078000D03*
X184785000Y-72578000D03*
X184785000Y-96078000D03*
%TD*%
%TO.C,R1*%
G36*
G01*
X116764500Y-63303999D02*
X116764500Y-64204001D01*
G75*
G02*
X116514501Y-64454000I-249999J0D01*
G01*
X115989499Y-64454000D01*
G75*
G02*
X115739500Y-64204001I0J249999D01*
G01*
X115739500Y-63303999D01*
G75*
G02*
X115989499Y-63054000I249999J0D01*
G01*
X116514501Y-63054000D01*
G75*
G02*
X116764500Y-63303999I0J-249999D01*
G01*
G37*
G36*
G01*
X114939500Y-63303999D02*
X114939500Y-64204001D01*
G75*
G02*
X114689501Y-64454000I-249999J0D01*
G01*
X114164499Y-64454000D01*
G75*
G02*
X113914500Y-64204001I0J249999D01*
G01*
X113914500Y-63303999D01*
G75*
G02*
X114164499Y-63054000I249999J0D01*
G01*
X114689501Y-63054000D01*
G75*
G02*
X114939500Y-63303999I0J-249999D01*
G01*
G37*
%TD*%
%TO.C,R3*%
G36*
G01*
X157664999Y-82244500D02*
X158565001Y-82244500D01*
G75*
G02*
X158815000Y-82494499I0J-249999D01*
G01*
X158815000Y-83019501D01*
G75*
G02*
X158565001Y-83269500I-249999J0D01*
G01*
X157664999Y-83269500D01*
G75*
G02*
X157415000Y-83019501I0J249999D01*
G01*
X157415000Y-82494499D01*
G75*
G02*
X157664999Y-82244500I249999J0D01*
G01*
G37*
G36*
G01*
X157664999Y-84069500D02*
X158565001Y-84069500D01*
G75*
G02*
X158815000Y-84319499I0J-249999D01*
G01*
X158815000Y-84844501D01*
G75*
G02*
X158565001Y-85094500I-249999J0D01*
G01*
X157664999Y-85094500D01*
G75*
G02*
X157415000Y-84844501I0J249999D01*
G01*
X157415000Y-84319499D01*
G75*
G02*
X157664999Y-84069500I249999J0D01*
G01*
G37*
%TD*%
%TO.C,R8*%
G36*
G01*
X151189000Y-79317001D02*
X151189000Y-78416999D01*
G75*
G02*
X151438999Y-78167000I249999J0D01*
G01*
X151964001Y-78167000D01*
G75*
G02*
X152214000Y-78416999I0J-249999D01*
G01*
X152214000Y-79317001D01*
G75*
G02*
X151964001Y-79567000I-249999J0D01*
G01*
X151438999Y-79567000D01*
G75*
G02*
X151189000Y-79317001I0J249999D01*
G01*
G37*
G36*
G01*
X149364000Y-79317001D02*
X149364000Y-78416999D01*
G75*
G02*
X149613999Y-78167000I249999J0D01*
G01*
X150139001Y-78167000D01*
G75*
G02*
X150389000Y-78416999I0J-249999D01*
G01*
X150389000Y-79317001D01*
G75*
G02*
X150139001Y-79567000I-249999J0D01*
G01*
X149613999Y-79567000D01*
G75*
G02*
X149364000Y-79317001I0J249999D01*
G01*
G37*
%TD*%
%TO.C,R9*%
G36*
G01*
X149364000Y-77348501D02*
X149364000Y-76448499D01*
G75*
G02*
X149613999Y-76198500I249999J0D01*
G01*
X150139001Y-76198500D01*
G75*
G02*
X150389000Y-76448499I0J-249999D01*
G01*
X150389000Y-77348501D01*
G75*
G02*
X150139001Y-77598500I-249999J0D01*
G01*
X149613999Y-77598500D01*
G75*
G02*
X149364000Y-77348501I0J249999D01*
G01*
G37*
G36*
G01*
X151189000Y-77348501D02*
X151189000Y-76448499D01*
G75*
G02*
X151438999Y-76198500I249999J0D01*
G01*
X151964001Y-76198500D01*
G75*
G02*
X152214000Y-76448499I0J-249999D01*
G01*
X152214000Y-77348501D01*
G75*
G02*
X151964001Y-77598500I-249999J0D01*
G01*
X151438999Y-77598500D01*
G75*
G02*
X151189000Y-77348501I0J249999D01*
G01*
G37*
%TD*%
%TO.C,R10*%
G36*
G01*
X132656000Y-65843999D02*
X132656000Y-66744001D01*
G75*
G02*
X132406001Y-66994000I-249999J0D01*
G01*
X131880999Y-66994000D01*
G75*
G02*
X131631000Y-66744001I0J249999D01*
G01*
X131631000Y-65843999D01*
G75*
G02*
X131880999Y-65594000I249999J0D01*
G01*
X132406001Y-65594000D01*
G75*
G02*
X132656000Y-65843999I0J-249999D01*
G01*
G37*
G36*
G01*
X134481000Y-65843999D02*
X134481000Y-66744001D01*
G75*
G02*
X134231001Y-66994000I-249999J0D01*
G01*
X133705999Y-66994000D01*
G75*
G02*
X133456000Y-66744001I0J249999D01*
G01*
X133456000Y-65843999D01*
G75*
G02*
X133705999Y-65594000I249999J0D01*
G01*
X134231001Y-65594000D01*
G75*
G02*
X134481000Y-65843999I0J-249999D01*
G01*
G37*
%TD*%
D16*
%TO.C,SW1*%
X155448000Y-96702000D03*
X155448000Y-92202000D03*
X161948000Y-96702000D03*
X161948000Y-92202000D03*
%TD*%
D19*
%TO.C,Y1*%
X103759000Y-81270500D03*
X103759000Y-76390500D03*
%TD*%
%TO.C,Y2*%
X161544000Y-78803500D03*
X161544000Y-83683500D03*
%TD*%
M02*
