M48
; DRILL file {KiCad (7.0.0)} date Sun Nov  5 00:37:02 2023
; FORMAT={-:-/ absolute / inch / decimal}
; #@! TF.CreationDate,2023-11-05T00:37:02+05:30
; #@! TF.GenerationSoftware,Kicad,Pcbnew,(7.0.0)
; #@! TF.FileFunction,Plated,1,2,PTH
FMAT,2
INCH
; #@! TA.AperFunction,Plated,PTH,ComponentDrill
T1C0.0098
; #@! TA.AperFunction,Plated,PTH,ViaDrill
T2C0.0118
; #@! TA.AperFunction,Plated,PTH,ComponentDrill
T3C0.0236
; #@! TA.AperFunction,Plated,PTH,ComponentDrill
T4C0.0256
; #@! TA.AperFunction,Plated,PTH,ComponentDrill
T5C0.0350
; #@! TA.AperFunction,Plated,PTH,ComponentDrill
T6C0.0354
; #@! TA.AperFunction,Plated,PTH,ComponentDrill
T7C0.0394
; #@! TA.AperFunction,Plated,PTH,ComponentDrill
T8C0.0433
; #@! TA.AperFunction,Plated,PTH,ComponentDrill
T9C0.0550
; #@! TA.AperFunction,Plated,PTH,ComponentDrill
T10C0.1260
%
G90
G05
T1
X6.7806Y-4.7348
X6.7806Y-4.7742
T2
X7.64Y-3.526
X7.866Y-4.254
X7.902Y-3.55
T3
X6.65Y-3.824
X6.65Y-3.928
X6.65Y-4.032
X6.65Y-4.136
T4
X7.27Y-3.752
X7.27Y-3.802
X7.27Y-3.852
X7.27Y-3.902
X7.27Y-3.952
X7.27Y-4.002
X7.27Y-4.052
X7.32Y-3.752
X7.32Y-3.802
X7.32Y-3.852
X7.32Y-3.902
X7.32Y-3.952
X7.32Y-4.002
X7.32Y-4.052
T5
X6.16Y-3.88
X6.16Y-3.98
X6.16Y-4.08
X6.46Y-4.38
X6.56Y-4.38
X6.66Y-4.38
X8.54Y-3.895
X8.54Y-3.995
X8.54Y-4.095
X8.84Y-4.395
X8.94Y-4.395
X9.04Y-4.395
T6
X6.435Y-3.48
X6.435Y-3.68
X6.685Y-3.48
X6.685Y-3.68
X8.815Y-3.495
X8.815Y-3.695
X9.065Y-3.495
X9.065Y-3.695
T7
X7.6024Y-4.55
X7.7024Y-4.55
X7.8024Y-4.55
X7.9024Y-4.55
X8.7904Y-3.344
X8.8904Y-3.344
X8.9904Y-3.344
X9.0904Y-3.344
T8
X7.2414Y-3.062
X7.2414Y-3.318
X7.2414Y-4.662
X7.2414Y-4.918
X7.4186Y-3.062
X7.4186Y-3.318
X7.4186Y-4.662
X7.4186Y-4.918
X8.0814Y-3.062
X8.0814Y-3.318
X8.0814Y-4.662
X8.0814Y-4.918
X8.2586Y-3.062
X8.2586Y-3.318
X8.2586Y-4.662
X8.2586Y-4.918
T9
X6.26Y-3.7175
X6.26Y-4.2425
X6.86Y-3.7175
X6.86Y-4.2425
X8.64Y-3.7325
X8.64Y-4.2575
X9.24Y-3.7325
X9.24Y-4.2575
T10
X7.06Y-3.21
X7.06Y-4.59
X8.44Y-3.21
X8.44Y-4.59
T0
M30
