%TF.GenerationSoftware,KiCad,Pcbnew,(7.0.0)*%
%TF.CreationDate,2023-11-05T00:37:03+05:30*%
%TF.ProjectId,Drone_Controller_2.0,44726f6e-655f-4436-9f6e-74726f6c6c65,rev?*%
%TF.SameCoordinates,Original*%
%TF.FileFunction,Drillmap*%
%TF.FilePolarity,Positive*%
%FSLAX45Y45*%
G04 Gerber Fmt 4.5, Leading zero omitted, Abs format (unit mm)*
G04 Created by KiCad (PCBNEW (7.0.0)) date 2023-11-05 00:37:03*
%MOMM*%
%LPD*%
G01*
G04 APERTURE LIST*
%ADD10C,0.100000*%
%ADD11C,0.200000*%
%ADD12C,0.025000*%
%ADD13C,0.030000*%
%ADD14C,0.060000*%
%ADD15C,0.065000*%
%ADD16C,0.088900*%
%ADD17C,0.090000*%
%ADD18C,0.110000*%
%ADD19C,0.139700*%
%ADD20C,0.320000*%
G04 APERTURE END LIST*
D10*
X17777460Y-7619995D02*
X21569680Y-7619995D01*
X17777460Y-12644125D02*
X21569675Y-12644125D01*
X17777460Y-7619995D02*
G75*
G03*
X17777460Y-12644125I0J-2512065D01*
G01*
X21569675Y-12644125D02*
G75*
G03*
X21569675Y-7619995I0J2512065D01*
G01*
D11*
D12*
X17210220Y-12013860D02*
X17235220Y-12038860D01*
X17235220Y-12013860D02*
X17210220Y-12038860D01*
X17210220Y-12113860D02*
X17235220Y-12138860D01*
X17235220Y-12113860D02*
X17210220Y-12138860D01*
D13*
X19420600Y-8956040D02*
G75*
G03*
X19420600Y-8956040I-15000J0D01*
G01*
X19994640Y-10805160D02*
G75*
G03*
X19994640Y-10805160I-15000J0D01*
G01*
X20086080Y-9017000D02*
G75*
G03*
X20086080Y-9017000I-15000J0D01*
G01*
D14*
X16891000Y-9682960D02*
X16891000Y-9742960D01*
X16861000Y-9712960D02*
X16921000Y-9712960D01*
X16891000Y-9947120D02*
X16891000Y-10007120D01*
X16861000Y-9977120D02*
X16921000Y-9977120D01*
X16891000Y-10211280D02*
X16891000Y-10271280D01*
X16861000Y-10241280D02*
X16921000Y-10241280D01*
X16891000Y-10475440D02*
X16891000Y-10535440D01*
X16861000Y-10505440D02*
X16921000Y-10505440D01*
D15*
X18488781Y-9553061D02*
X18488781Y-9507099D01*
X18442819Y-9507099D01*
X18442819Y-9553061D01*
X18488781Y-9553061D01*
X18488781Y-9680061D02*
X18488781Y-9634099D01*
X18442819Y-9634099D01*
X18442819Y-9680061D01*
X18488781Y-9680061D01*
X18488781Y-9807061D02*
X18488781Y-9761099D01*
X18442819Y-9761099D01*
X18442819Y-9807061D01*
X18488781Y-9807061D01*
X18488781Y-9934061D02*
X18488781Y-9888099D01*
X18442819Y-9888099D01*
X18442819Y-9934061D01*
X18488781Y-9934061D01*
X18488781Y-10061061D02*
X18488781Y-10015099D01*
X18442819Y-10015099D01*
X18442819Y-10061061D01*
X18488781Y-10061061D01*
X18488781Y-10188061D02*
X18488781Y-10142099D01*
X18442819Y-10142099D01*
X18442819Y-10188061D01*
X18488781Y-10188061D01*
X18488781Y-10315061D02*
X18488781Y-10269099D01*
X18442819Y-10269099D01*
X18442819Y-10315061D01*
X18488781Y-10315061D01*
X18615781Y-9553061D02*
X18615781Y-9507099D01*
X18569819Y-9507099D01*
X18569819Y-9553061D01*
X18615781Y-9553061D01*
X18615781Y-9680061D02*
X18615781Y-9634099D01*
X18569819Y-9634099D01*
X18569819Y-9680061D01*
X18615781Y-9680061D01*
X18615781Y-9807061D02*
X18615781Y-9761099D01*
X18569819Y-9761099D01*
X18569819Y-9807061D01*
X18615781Y-9807061D01*
X18615781Y-9934061D02*
X18615781Y-9888099D01*
X18569819Y-9888099D01*
X18569819Y-9934061D01*
X18615781Y-9934061D01*
X18615781Y-10061061D02*
X18615781Y-10015099D01*
X18569819Y-10015099D01*
X18569819Y-10061061D01*
X18615781Y-10061061D01*
X18615781Y-10188061D02*
X18615781Y-10142099D01*
X18569819Y-10142099D01*
X18569819Y-10188061D01*
X18615781Y-10188061D01*
X18615781Y-10315061D02*
X18615781Y-10269099D01*
X18569819Y-10269099D01*
X18569819Y-10315061D01*
X18615781Y-10315061D01*
D16*
X15646400Y-9899650D02*
X15690850Y-9855200D01*
X15646400Y-9810750D01*
X15601950Y-9855200D01*
X15646400Y-9899650D01*
X15646400Y-10153650D02*
X15690850Y-10109200D01*
X15646400Y-10064750D01*
X15601950Y-10109200D01*
X15646400Y-10153650D01*
X15646400Y-10407650D02*
X15690850Y-10363200D01*
X15646400Y-10318750D01*
X15601950Y-10363200D01*
X15646400Y-10407650D01*
X16408400Y-11169650D02*
X16452850Y-11125200D01*
X16408400Y-11080750D01*
X16363950Y-11125200D01*
X16408400Y-11169650D01*
X16662400Y-11169650D02*
X16706850Y-11125200D01*
X16662400Y-11080750D01*
X16617950Y-11125200D01*
X16662400Y-11169650D01*
X16916400Y-11169650D02*
X16960850Y-11125200D01*
X16916400Y-11080750D01*
X16871950Y-11125200D01*
X16916400Y-11169650D01*
X21691600Y-9937750D02*
X21736050Y-9893300D01*
X21691600Y-9848850D01*
X21647150Y-9893300D01*
X21691600Y-9937750D01*
X21691600Y-10191750D02*
X21736050Y-10147300D01*
X21691600Y-10102850D01*
X21647150Y-10147300D01*
X21691600Y-10191750D01*
X21691600Y-10445750D02*
X21736050Y-10401300D01*
X21691600Y-10356850D01*
X21647150Y-10401300D01*
X21691600Y-10445750D01*
X22453600Y-11207750D02*
X22498050Y-11163300D01*
X22453600Y-11118850D01*
X22409150Y-11163300D01*
X22453600Y-11207750D01*
X22707600Y-11207750D02*
X22752050Y-11163300D01*
X22707600Y-11118850D01*
X22663150Y-11163300D01*
X22707600Y-11207750D01*
X22961600Y-11207750D02*
X23006050Y-11163300D01*
X22961600Y-11118850D01*
X22917150Y-11163300D01*
X22961600Y-11207750D01*
D17*
X16299900Y-8794200D02*
X16389900Y-8884200D01*
X16389900Y-8794200D02*
X16299900Y-8884200D01*
X16389900Y-8839200D02*
G75*
G03*
X16389900Y-8839200I-45000J0D01*
G01*
X16299900Y-9302200D02*
X16389900Y-9392200D01*
X16389900Y-9302200D02*
X16299900Y-9392200D01*
X16389900Y-9347200D02*
G75*
G03*
X16389900Y-9347200I-45000J0D01*
G01*
X16934900Y-8794200D02*
X17024900Y-8884200D01*
X17024900Y-8794200D02*
X16934900Y-8884200D01*
X17024900Y-8839200D02*
G75*
G03*
X17024900Y-8839200I-45000J0D01*
G01*
X16934900Y-9302200D02*
X17024900Y-9392200D01*
X17024900Y-9302200D02*
X16934900Y-9392200D01*
X17024900Y-9347200D02*
G75*
G03*
X17024900Y-9347200I-45000J0D01*
G01*
X22345100Y-8832300D02*
X22435100Y-8922300D01*
X22435100Y-8832300D02*
X22345100Y-8922300D01*
X22435100Y-8877300D02*
G75*
G03*
X22435100Y-8877300I-45000J0D01*
G01*
X22345100Y-9340300D02*
X22435100Y-9430300D01*
X22435100Y-9340300D02*
X22345100Y-9430300D01*
X22435100Y-9385300D02*
G75*
G03*
X22435100Y-9385300I-45000J0D01*
G01*
X22980100Y-8832300D02*
X23070100Y-8922300D01*
X23070100Y-8832300D02*
X22980100Y-8922300D01*
X23070100Y-8877300D02*
G75*
G03*
X23070100Y-8877300I-45000J0D01*
G01*
X22980100Y-9340300D02*
X23070100Y-9430300D01*
X23070100Y-9340300D02*
X22980100Y-9430300D01*
X23070100Y-9385300D02*
G75*
G03*
X23070100Y-9385300I-45000J0D01*
G01*
D10*
X19260080Y-11507000D02*
X19360080Y-11607000D01*
X19360080Y-11507000D02*
X19260080Y-11607000D01*
X19310080Y-11507000D02*
X19310080Y-11607000D01*
X19260080Y-11557000D02*
X19360080Y-11557000D01*
X19514080Y-11507000D02*
X19614080Y-11607000D01*
X19614080Y-11507000D02*
X19514080Y-11607000D01*
X19564080Y-11507000D02*
X19564080Y-11607000D01*
X19514080Y-11557000D02*
X19614080Y-11557000D01*
X19768080Y-11507000D02*
X19868080Y-11607000D01*
X19868080Y-11507000D02*
X19768080Y-11607000D01*
X19818080Y-11507000D02*
X19818080Y-11607000D01*
X19768080Y-11557000D02*
X19868080Y-11557000D01*
X20022080Y-11507000D02*
X20122080Y-11607000D01*
X20122080Y-11507000D02*
X20022080Y-11607000D01*
X20072080Y-11507000D02*
X20072080Y-11607000D01*
X20022080Y-11557000D02*
X20122080Y-11557000D01*
X22277600Y-8443760D02*
X22377600Y-8543760D01*
X22377600Y-8443760D02*
X22277600Y-8543760D01*
X22327600Y-8443760D02*
X22327600Y-8543760D01*
X22277600Y-8493760D02*
X22377600Y-8493760D01*
X22531600Y-8443760D02*
X22631600Y-8543760D01*
X22631600Y-8443760D02*
X22531600Y-8543760D01*
X22581600Y-8443760D02*
X22581600Y-8543760D01*
X22531600Y-8493760D02*
X22631600Y-8493760D01*
X22785600Y-8443760D02*
X22885600Y-8543760D01*
X22885600Y-8443760D02*
X22785600Y-8543760D01*
X22835600Y-8443760D02*
X22835600Y-8543760D01*
X22785600Y-8493760D02*
X22885600Y-8493760D01*
X23039600Y-8443760D02*
X23139600Y-8543760D01*
X23139600Y-8443760D02*
X23039600Y-8543760D01*
X23089600Y-8443760D02*
X23089600Y-8543760D01*
X23039600Y-8493760D02*
X23139600Y-8493760D01*
D18*
X18338200Y-7722600D02*
X18448200Y-7832600D01*
X18448200Y-7722600D02*
X18338200Y-7832600D01*
X18432091Y-7816491D02*
X18432091Y-7738709D01*
X18354309Y-7738709D01*
X18354309Y-7816491D01*
X18432091Y-7816491D01*
X18338200Y-8372600D02*
X18448200Y-8482600D01*
X18448200Y-8372600D02*
X18338200Y-8482600D01*
X18432091Y-8466491D02*
X18432091Y-8388709D01*
X18354309Y-8388709D01*
X18354309Y-8466491D01*
X18432091Y-8466491D01*
X18338200Y-11786600D02*
X18448200Y-11896600D01*
X18448200Y-11786600D02*
X18338200Y-11896600D01*
X18432091Y-11880491D02*
X18432091Y-11802709D01*
X18354309Y-11802709D01*
X18354309Y-11880491D01*
X18432091Y-11880491D01*
X18338200Y-12436600D02*
X18448200Y-12546600D01*
X18448200Y-12436600D02*
X18338200Y-12546600D01*
X18432091Y-12530491D02*
X18432091Y-12452709D01*
X18354309Y-12452709D01*
X18354309Y-12530491D01*
X18432091Y-12530491D01*
X18788200Y-7722600D02*
X18898200Y-7832600D01*
X18898200Y-7722600D02*
X18788200Y-7832600D01*
X18882091Y-7816491D02*
X18882091Y-7738709D01*
X18804309Y-7738709D01*
X18804309Y-7816491D01*
X18882091Y-7816491D01*
X18788200Y-8372600D02*
X18898200Y-8482600D01*
X18898200Y-8372600D02*
X18788200Y-8482600D01*
X18882091Y-8466491D02*
X18882091Y-8388709D01*
X18804309Y-8388709D01*
X18804309Y-8466491D01*
X18882091Y-8466491D01*
X18788200Y-11786600D02*
X18898200Y-11896600D01*
X18898200Y-11786600D02*
X18788200Y-11896600D01*
X18882091Y-11880491D02*
X18882091Y-11802709D01*
X18804309Y-11802709D01*
X18804309Y-11880491D01*
X18882091Y-11880491D01*
X18788200Y-12436600D02*
X18898200Y-12546600D01*
X18898200Y-12436600D02*
X18788200Y-12546600D01*
X18882091Y-12530491D02*
X18882091Y-12452709D01*
X18804309Y-12452709D01*
X18804309Y-12530491D01*
X18882091Y-12530491D01*
X20471800Y-7722600D02*
X20581800Y-7832600D01*
X20581800Y-7722600D02*
X20471800Y-7832600D01*
X20565691Y-7816491D02*
X20565691Y-7738709D01*
X20487909Y-7738709D01*
X20487909Y-7816491D01*
X20565691Y-7816491D01*
X20471800Y-8372600D02*
X20581800Y-8482600D01*
X20581800Y-8372600D02*
X20471800Y-8482600D01*
X20565691Y-8466491D02*
X20565691Y-8388709D01*
X20487909Y-8388709D01*
X20487909Y-8466491D01*
X20565691Y-8466491D01*
X20471800Y-11786600D02*
X20581800Y-11896600D01*
X20581800Y-11786600D02*
X20471800Y-11896600D01*
X20565691Y-11880491D02*
X20565691Y-11802709D01*
X20487909Y-11802709D01*
X20487909Y-11880491D01*
X20565691Y-11880491D01*
X20471800Y-12436600D02*
X20581800Y-12546600D01*
X20581800Y-12436600D02*
X20471800Y-12546600D01*
X20565691Y-12530491D02*
X20565691Y-12452709D01*
X20487909Y-12452709D01*
X20487909Y-12530491D01*
X20565691Y-12530491D01*
X20921800Y-7722600D02*
X21031800Y-7832600D01*
X21031800Y-7722600D02*
X20921800Y-7832600D01*
X21015691Y-7816491D02*
X21015691Y-7738709D01*
X20937909Y-7738709D01*
X20937909Y-7816491D01*
X21015691Y-7816491D01*
X20921800Y-8372600D02*
X21031800Y-8482600D01*
X21031800Y-8372600D02*
X20921800Y-8482600D01*
X21015691Y-8466491D02*
X21015691Y-8388709D01*
X20937909Y-8388709D01*
X20937909Y-8466491D01*
X21015691Y-8466491D01*
X20921800Y-11786600D02*
X21031800Y-11896600D01*
X21031800Y-11786600D02*
X20921800Y-11896600D01*
X21015691Y-11880491D02*
X21015691Y-11802709D01*
X20937909Y-11802709D01*
X20937909Y-11880491D01*
X21015691Y-11880491D01*
X20921800Y-12436600D02*
X21031800Y-12546600D01*
X21031800Y-12436600D02*
X20921800Y-12546600D01*
X21015691Y-12530491D02*
X21015691Y-12452709D01*
X20937909Y-12452709D01*
X20937909Y-12530491D01*
X21015691Y-12530491D01*
D19*
X15830550Y-9372600D02*
X15970250Y-9512300D01*
X15970250Y-9372600D02*
X15830550Y-9512300D01*
X15900400Y-9512300D02*
X15970250Y-9442450D01*
X15900400Y-9372600D01*
X15830550Y-9442450D01*
X15900400Y-9512300D01*
X15830550Y-10706100D02*
X15970250Y-10845800D01*
X15970250Y-10706100D02*
X15830550Y-10845800D01*
X15900400Y-10845800D02*
X15970250Y-10775950D01*
X15900400Y-10706100D01*
X15830550Y-10775950D01*
X15900400Y-10845800D01*
X17354550Y-9372600D02*
X17494250Y-9512300D01*
X17494250Y-9372600D02*
X17354550Y-9512300D01*
X17424400Y-9512300D02*
X17494250Y-9442450D01*
X17424400Y-9372600D01*
X17354550Y-9442450D01*
X17424400Y-9512300D01*
X17354550Y-10706100D02*
X17494250Y-10845800D01*
X17494250Y-10706100D02*
X17354550Y-10845800D01*
X17424400Y-10845800D02*
X17494250Y-10775950D01*
X17424400Y-10706100D01*
X17354550Y-10775950D01*
X17424400Y-10845800D01*
X21875750Y-9410700D02*
X22015450Y-9550400D01*
X22015450Y-9410700D02*
X21875750Y-9550400D01*
X21945600Y-9550400D02*
X22015450Y-9480550D01*
X21945600Y-9410700D01*
X21875750Y-9480550D01*
X21945600Y-9550400D01*
X21875750Y-10744200D02*
X22015450Y-10883900D01*
X22015450Y-10744200D02*
X21875750Y-10883900D01*
X21945600Y-10883900D02*
X22015450Y-10814050D01*
X21945600Y-10744200D01*
X21875750Y-10814050D01*
X21945600Y-10883900D01*
X23399750Y-9410700D02*
X23539450Y-9550400D01*
X23539450Y-9410700D02*
X23399750Y-9550400D01*
X23469600Y-9550400D02*
X23539450Y-9480550D01*
X23469600Y-9410700D01*
X23399750Y-9480550D01*
X23469600Y-9550400D01*
X23399750Y-10744200D02*
X23539450Y-10883900D01*
X23539450Y-10744200D02*
X23399750Y-10883900D01*
X23469600Y-10883900D02*
X23539450Y-10814050D01*
X23469600Y-10744200D01*
X23399750Y-10814050D01*
X23469600Y-10883900D01*
D20*
X17932400Y-7993400D02*
X17932400Y-8313400D01*
X17772400Y-8153400D02*
X18092400Y-8153400D01*
X18092400Y-8153400D02*
G75*
G03*
X18092400Y-8153400I-160000J0D01*
G01*
X17932400Y-11498600D02*
X17932400Y-11818600D01*
X17772400Y-11658600D02*
X18092400Y-11658600D01*
X18092400Y-11658600D02*
G75*
G03*
X18092400Y-11658600I-160000J0D01*
G01*
X21437600Y-7993400D02*
X21437600Y-8313400D01*
X21277600Y-8153400D02*
X21597600Y-8153400D01*
X21597600Y-8153400D02*
G75*
G03*
X21597600Y-8153400I-160000J0D01*
G01*
X21437600Y-11498600D02*
X21437600Y-11818600D01*
X21277600Y-11658600D02*
X21597600Y-11658600D01*
X21597600Y-11658600D02*
G75*
G03*
X21597600Y-11658600I-160000J0D01*
G01*
D11*
X15508014Y-12942601D02*
X15508014Y-12742601D01*
X15508014Y-12742601D02*
X15555633Y-12742601D01*
X15555633Y-12742601D02*
X15584204Y-12752125D01*
X15584204Y-12752125D02*
X15603252Y-12771173D01*
X15603252Y-12771173D02*
X15612776Y-12790220D01*
X15612776Y-12790220D02*
X15622300Y-12828315D01*
X15622300Y-12828315D02*
X15622300Y-12856887D01*
X15622300Y-12856887D02*
X15612776Y-12894982D01*
X15612776Y-12894982D02*
X15603252Y-12914030D01*
X15603252Y-12914030D02*
X15584204Y-12933077D01*
X15584204Y-12933077D02*
X15555633Y-12942601D01*
X15555633Y-12942601D02*
X15508014Y-12942601D01*
X15708014Y-12942601D02*
X15708014Y-12809268D01*
X15708014Y-12847363D02*
X15717538Y-12828315D01*
X15717538Y-12828315D02*
X15727061Y-12818792D01*
X15727061Y-12818792D02*
X15746109Y-12809268D01*
X15746109Y-12809268D02*
X15765157Y-12809268D01*
X15831823Y-12942601D02*
X15831823Y-12809268D01*
X15831823Y-12742601D02*
X15822300Y-12752125D01*
X15822300Y-12752125D02*
X15831823Y-12761649D01*
X15831823Y-12761649D02*
X15841347Y-12752125D01*
X15841347Y-12752125D02*
X15831823Y-12742601D01*
X15831823Y-12742601D02*
X15831823Y-12761649D01*
X15955633Y-12942601D02*
X15936585Y-12933077D01*
X15936585Y-12933077D02*
X15927061Y-12914030D01*
X15927061Y-12914030D02*
X15927061Y-12742601D01*
X16060395Y-12942601D02*
X16041347Y-12933077D01*
X16041347Y-12933077D02*
X16031823Y-12914030D01*
X16031823Y-12914030D02*
X16031823Y-12742601D01*
X16256585Y-12942601D02*
X16256585Y-12742601D01*
X16256585Y-12742601D02*
X16323252Y-12885458D01*
X16323252Y-12885458D02*
X16389919Y-12742601D01*
X16389919Y-12742601D02*
X16389919Y-12942601D01*
X16570871Y-12942601D02*
X16570871Y-12837839D01*
X16570871Y-12837839D02*
X16561347Y-12818792D01*
X16561347Y-12818792D02*
X16542300Y-12809268D01*
X16542300Y-12809268D02*
X16504204Y-12809268D01*
X16504204Y-12809268D02*
X16485157Y-12818792D01*
X16570871Y-12933077D02*
X16551823Y-12942601D01*
X16551823Y-12942601D02*
X16504204Y-12942601D01*
X16504204Y-12942601D02*
X16485157Y-12933077D01*
X16485157Y-12933077D02*
X16475633Y-12914030D01*
X16475633Y-12914030D02*
X16475633Y-12894982D01*
X16475633Y-12894982D02*
X16485157Y-12875935D01*
X16485157Y-12875935D02*
X16504204Y-12866411D01*
X16504204Y-12866411D02*
X16551823Y-12866411D01*
X16551823Y-12866411D02*
X16570871Y-12856887D01*
X16666109Y-12809268D02*
X16666109Y-13009268D01*
X16666109Y-12818792D02*
X16685157Y-12809268D01*
X16685157Y-12809268D02*
X16723252Y-12809268D01*
X16723252Y-12809268D02*
X16742300Y-12818792D01*
X16742300Y-12818792D02*
X16751823Y-12828315D01*
X16751823Y-12828315D02*
X16761347Y-12847363D01*
X16761347Y-12847363D02*
X16761347Y-12904506D01*
X16761347Y-12904506D02*
X16751823Y-12923554D01*
X16751823Y-12923554D02*
X16742300Y-12933077D01*
X16742300Y-12933077D02*
X16723252Y-12942601D01*
X16723252Y-12942601D02*
X16685157Y-12942601D01*
X16685157Y-12942601D02*
X16666109Y-12933077D01*
X16847062Y-12923554D02*
X16856585Y-12933077D01*
X16856585Y-12933077D02*
X16847062Y-12942601D01*
X16847062Y-12942601D02*
X16837538Y-12933077D01*
X16837538Y-12933077D02*
X16847062Y-12923554D01*
X16847062Y-12923554D02*
X16847062Y-12942601D01*
X16847062Y-12818792D02*
X16856585Y-12828315D01*
X16856585Y-12828315D02*
X16847062Y-12837839D01*
X16847062Y-12837839D02*
X16837538Y-12828315D01*
X16837538Y-12828315D02*
X16847062Y-12818792D01*
X16847062Y-12818792D02*
X16847062Y-12837839D01*
D12*
X15235395Y-13276625D02*
X15260395Y-13301625D01*
X15260395Y-13276625D02*
X15235395Y-13301625D01*
D11*
X15546109Y-13162601D02*
X15565157Y-13162601D01*
X15565157Y-13162601D02*
X15584204Y-13172125D01*
X15584204Y-13172125D02*
X15593728Y-13181649D01*
X15593728Y-13181649D02*
X15603252Y-13200696D01*
X15603252Y-13200696D02*
X15612776Y-13238792D01*
X15612776Y-13238792D02*
X15612776Y-13286411D01*
X15612776Y-13286411D02*
X15603252Y-13324506D01*
X15603252Y-13324506D02*
X15593728Y-13343554D01*
X15593728Y-13343554D02*
X15584204Y-13353077D01*
X15584204Y-13353077D02*
X15565157Y-13362601D01*
X15565157Y-13362601D02*
X15546109Y-13362601D01*
X15546109Y-13362601D02*
X15527061Y-13353077D01*
X15527061Y-13353077D02*
X15517538Y-13343554D01*
X15517538Y-13343554D02*
X15508014Y-13324506D01*
X15508014Y-13324506D02*
X15498490Y-13286411D01*
X15498490Y-13286411D02*
X15498490Y-13238792D01*
X15498490Y-13238792D02*
X15508014Y-13200696D01*
X15508014Y-13200696D02*
X15517538Y-13181649D01*
X15517538Y-13181649D02*
X15527061Y-13172125D01*
X15527061Y-13172125D02*
X15546109Y-13162601D01*
X15698490Y-13343554D02*
X15708014Y-13353077D01*
X15708014Y-13353077D02*
X15698490Y-13362601D01*
X15698490Y-13362601D02*
X15688966Y-13353077D01*
X15688966Y-13353077D02*
X15698490Y-13343554D01*
X15698490Y-13343554D02*
X15698490Y-13362601D01*
X15784204Y-13181649D02*
X15793728Y-13172125D01*
X15793728Y-13172125D02*
X15812776Y-13162601D01*
X15812776Y-13162601D02*
X15860395Y-13162601D01*
X15860395Y-13162601D02*
X15879442Y-13172125D01*
X15879442Y-13172125D02*
X15888966Y-13181649D01*
X15888966Y-13181649D02*
X15898490Y-13200696D01*
X15898490Y-13200696D02*
X15898490Y-13219744D01*
X15898490Y-13219744D02*
X15888966Y-13248315D01*
X15888966Y-13248315D02*
X15774681Y-13362601D01*
X15774681Y-13362601D02*
X15898490Y-13362601D01*
X16079442Y-13162601D02*
X15984204Y-13162601D01*
X15984204Y-13162601D02*
X15974681Y-13257839D01*
X15974681Y-13257839D02*
X15984204Y-13248315D01*
X15984204Y-13248315D02*
X16003252Y-13238792D01*
X16003252Y-13238792D02*
X16050871Y-13238792D01*
X16050871Y-13238792D02*
X16069919Y-13248315D01*
X16069919Y-13248315D02*
X16079442Y-13257839D01*
X16079442Y-13257839D02*
X16088966Y-13276887D01*
X16088966Y-13276887D02*
X16088966Y-13324506D01*
X16088966Y-13324506D02*
X16079442Y-13343554D01*
X16079442Y-13343554D02*
X16069919Y-13353077D01*
X16069919Y-13353077D02*
X16050871Y-13362601D01*
X16050871Y-13362601D02*
X16003252Y-13362601D01*
X16003252Y-13362601D02*
X15984204Y-13353077D01*
X15984204Y-13353077D02*
X15974681Y-13343554D01*
X16212776Y-13162601D02*
X16231823Y-13162601D01*
X16231823Y-13162601D02*
X16250871Y-13172125D01*
X16250871Y-13172125D02*
X16260395Y-13181649D01*
X16260395Y-13181649D02*
X16269919Y-13200696D01*
X16269919Y-13200696D02*
X16279442Y-13238792D01*
X16279442Y-13238792D02*
X16279442Y-13286411D01*
X16279442Y-13286411D02*
X16269919Y-13324506D01*
X16269919Y-13324506D02*
X16260395Y-13343554D01*
X16260395Y-13343554D02*
X16250871Y-13353077D01*
X16250871Y-13353077D02*
X16231823Y-13362601D01*
X16231823Y-13362601D02*
X16212776Y-13362601D01*
X16212776Y-13362601D02*
X16193728Y-13353077D01*
X16193728Y-13353077D02*
X16184204Y-13343554D01*
X16184204Y-13343554D02*
X16174681Y-13324506D01*
X16174681Y-13324506D02*
X16165157Y-13286411D01*
X16165157Y-13286411D02*
X16165157Y-13238792D01*
X16165157Y-13238792D02*
X16174681Y-13200696D01*
X16174681Y-13200696D02*
X16184204Y-13181649D01*
X16184204Y-13181649D02*
X16193728Y-13172125D01*
X16193728Y-13172125D02*
X16212776Y-13162601D01*
X16365157Y-13362601D02*
X16365157Y-13229268D01*
X16365157Y-13248315D02*
X16374681Y-13238792D01*
X16374681Y-13238792D02*
X16393728Y-13229268D01*
X16393728Y-13229268D02*
X16422300Y-13229268D01*
X16422300Y-13229268D02*
X16441347Y-13238792D01*
X16441347Y-13238792D02*
X16450871Y-13257839D01*
X16450871Y-13257839D02*
X16450871Y-13362601D01*
X16450871Y-13257839D02*
X16460395Y-13238792D01*
X16460395Y-13238792D02*
X16479442Y-13229268D01*
X16479442Y-13229268D02*
X16508014Y-13229268D01*
X16508014Y-13229268D02*
X16527062Y-13238792D01*
X16527062Y-13238792D02*
X16536585Y-13257839D01*
X16536585Y-13257839D02*
X16536585Y-13362601D01*
X16631823Y-13362601D02*
X16631823Y-13229268D01*
X16631823Y-13248315D02*
X16641347Y-13238792D01*
X16641347Y-13238792D02*
X16660395Y-13229268D01*
X16660395Y-13229268D02*
X16688966Y-13229268D01*
X16688966Y-13229268D02*
X16708014Y-13238792D01*
X16708014Y-13238792D02*
X16717538Y-13257839D01*
X16717538Y-13257839D02*
X16717538Y-13362601D01*
X16717538Y-13257839D02*
X16727062Y-13238792D01*
X16727062Y-13238792D02*
X16746109Y-13229268D01*
X16746109Y-13229268D02*
X16774681Y-13229268D01*
X16774681Y-13229268D02*
X16793728Y-13238792D01*
X16793728Y-13238792D02*
X16803252Y-13257839D01*
X16803252Y-13257839D02*
X16803252Y-13362601D01*
X17161347Y-13153077D02*
X16989919Y-13410220D01*
X17386109Y-13162601D02*
X17405157Y-13162601D01*
X17405157Y-13162601D02*
X17424205Y-13172125D01*
X17424205Y-13172125D02*
X17433728Y-13181649D01*
X17433728Y-13181649D02*
X17443252Y-13200696D01*
X17443252Y-13200696D02*
X17452776Y-13238792D01*
X17452776Y-13238792D02*
X17452776Y-13286411D01*
X17452776Y-13286411D02*
X17443252Y-13324506D01*
X17443252Y-13324506D02*
X17433728Y-13343554D01*
X17433728Y-13343554D02*
X17424205Y-13353077D01*
X17424205Y-13353077D02*
X17405157Y-13362601D01*
X17405157Y-13362601D02*
X17386109Y-13362601D01*
X17386109Y-13362601D02*
X17367062Y-13353077D01*
X17367062Y-13353077D02*
X17357538Y-13343554D01*
X17357538Y-13343554D02*
X17348014Y-13324506D01*
X17348014Y-13324506D02*
X17338490Y-13286411D01*
X17338490Y-13286411D02*
X17338490Y-13238792D01*
X17338490Y-13238792D02*
X17348014Y-13200696D01*
X17348014Y-13200696D02*
X17357538Y-13181649D01*
X17357538Y-13181649D02*
X17367062Y-13172125D01*
X17367062Y-13172125D02*
X17386109Y-13162601D01*
X17538490Y-13343554D02*
X17548014Y-13353077D01*
X17548014Y-13353077D02*
X17538490Y-13362601D01*
X17538490Y-13362601D02*
X17528966Y-13353077D01*
X17528966Y-13353077D02*
X17538490Y-13343554D01*
X17538490Y-13343554D02*
X17538490Y-13362601D01*
X17671824Y-13162601D02*
X17690871Y-13162601D01*
X17690871Y-13162601D02*
X17709919Y-13172125D01*
X17709919Y-13172125D02*
X17719443Y-13181649D01*
X17719443Y-13181649D02*
X17728966Y-13200696D01*
X17728966Y-13200696D02*
X17738490Y-13238792D01*
X17738490Y-13238792D02*
X17738490Y-13286411D01*
X17738490Y-13286411D02*
X17728966Y-13324506D01*
X17728966Y-13324506D02*
X17719443Y-13343554D01*
X17719443Y-13343554D02*
X17709919Y-13353077D01*
X17709919Y-13353077D02*
X17690871Y-13362601D01*
X17690871Y-13362601D02*
X17671824Y-13362601D01*
X17671824Y-13362601D02*
X17652776Y-13353077D01*
X17652776Y-13353077D02*
X17643252Y-13343554D01*
X17643252Y-13343554D02*
X17633728Y-13324506D01*
X17633728Y-13324506D02*
X17624205Y-13286411D01*
X17624205Y-13286411D02*
X17624205Y-13238792D01*
X17624205Y-13238792D02*
X17633728Y-13200696D01*
X17633728Y-13200696D02*
X17643252Y-13181649D01*
X17643252Y-13181649D02*
X17652776Y-13172125D01*
X17652776Y-13172125D02*
X17671824Y-13162601D01*
X17862300Y-13162601D02*
X17881347Y-13162601D01*
X17881347Y-13162601D02*
X17900395Y-13172125D01*
X17900395Y-13172125D02*
X17909919Y-13181649D01*
X17909919Y-13181649D02*
X17919443Y-13200696D01*
X17919443Y-13200696D02*
X17928966Y-13238792D01*
X17928966Y-13238792D02*
X17928966Y-13286411D01*
X17928966Y-13286411D02*
X17919443Y-13324506D01*
X17919443Y-13324506D02*
X17909919Y-13343554D01*
X17909919Y-13343554D02*
X17900395Y-13353077D01*
X17900395Y-13353077D02*
X17881347Y-13362601D01*
X17881347Y-13362601D02*
X17862300Y-13362601D01*
X17862300Y-13362601D02*
X17843252Y-13353077D01*
X17843252Y-13353077D02*
X17833728Y-13343554D01*
X17833728Y-13343554D02*
X17824205Y-13324506D01*
X17824205Y-13324506D02*
X17814681Y-13286411D01*
X17814681Y-13286411D02*
X17814681Y-13238792D01*
X17814681Y-13238792D02*
X17824205Y-13200696D01*
X17824205Y-13200696D02*
X17833728Y-13181649D01*
X17833728Y-13181649D02*
X17843252Y-13172125D01*
X17843252Y-13172125D02*
X17862300Y-13162601D01*
X18024205Y-13362601D02*
X18062300Y-13362601D01*
X18062300Y-13362601D02*
X18081347Y-13353077D01*
X18081347Y-13353077D02*
X18090871Y-13343554D01*
X18090871Y-13343554D02*
X18109919Y-13314982D01*
X18109919Y-13314982D02*
X18119443Y-13276887D01*
X18119443Y-13276887D02*
X18119443Y-13200696D01*
X18119443Y-13200696D02*
X18109919Y-13181649D01*
X18109919Y-13181649D02*
X18100395Y-13172125D01*
X18100395Y-13172125D02*
X18081347Y-13162601D01*
X18081347Y-13162601D02*
X18043252Y-13162601D01*
X18043252Y-13162601D02*
X18024205Y-13172125D01*
X18024205Y-13172125D02*
X18014681Y-13181649D01*
X18014681Y-13181649D02*
X18005157Y-13200696D01*
X18005157Y-13200696D02*
X18005157Y-13248315D01*
X18005157Y-13248315D02*
X18014681Y-13267363D01*
X18014681Y-13267363D02*
X18024205Y-13276887D01*
X18024205Y-13276887D02*
X18043252Y-13286411D01*
X18043252Y-13286411D02*
X18081347Y-13286411D01*
X18081347Y-13286411D02*
X18100395Y-13276887D01*
X18100395Y-13276887D02*
X18109919Y-13267363D01*
X18109919Y-13267363D02*
X18119443Y-13248315D01*
X18233728Y-13248315D02*
X18214681Y-13238792D01*
X18214681Y-13238792D02*
X18205157Y-13229268D01*
X18205157Y-13229268D02*
X18195633Y-13210220D01*
X18195633Y-13210220D02*
X18195633Y-13200696D01*
X18195633Y-13200696D02*
X18205157Y-13181649D01*
X18205157Y-13181649D02*
X18214681Y-13172125D01*
X18214681Y-13172125D02*
X18233728Y-13162601D01*
X18233728Y-13162601D02*
X18271824Y-13162601D01*
X18271824Y-13162601D02*
X18290871Y-13172125D01*
X18290871Y-13172125D02*
X18300395Y-13181649D01*
X18300395Y-13181649D02*
X18309919Y-13200696D01*
X18309919Y-13200696D02*
X18309919Y-13210220D01*
X18309919Y-13210220D02*
X18300395Y-13229268D01*
X18300395Y-13229268D02*
X18290871Y-13238792D01*
X18290871Y-13238792D02*
X18271824Y-13248315D01*
X18271824Y-13248315D02*
X18233728Y-13248315D01*
X18233728Y-13248315D02*
X18214681Y-13257839D01*
X18214681Y-13257839D02*
X18205157Y-13267363D01*
X18205157Y-13267363D02*
X18195633Y-13286411D01*
X18195633Y-13286411D02*
X18195633Y-13324506D01*
X18195633Y-13324506D02*
X18205157Y-13343554D01*
X18205157Y-13343554D02*
X18214681Y-13353077D01*
X18214681Y-13353077D02*
X18233728Y-13362601D01*
X18233728Y-13362601D02*
X18271824Y-13362601D01*
X18271824Y-13362601D02*
X18290871Y-13353077D01*
X18290871Y-13353077D02*
X18300395Y-13343554D01*
X18300395Y-13343554D02*
X18309919Y-13324506D01*
X18309919Y-13324506D02*
X18309919Y-13286411D01*
X18309919Y-13286411D02*
X18300395Y-13267363D01*
X18300395Y-13267363D02*
X18290871Y-13257839D01*
X18290871Y-13257839D02*
X18271824Y-13248315D01*
X18386109Y-13162601D02*
X18386109Y-13200696D01*
X18462300Y-13162601D02*
X18462300Y-13200696D01*
X18725157Y-13438792D02*
X18715633Y-13429268D01*
X18715633Y-13429268D02*
X18696586Y-13400696D01*
X18696586Y-13400696D02*
X18687062Y-13381649D01*
X18687062Y-13381649D02*
X18677538Y-13353077D01*
X18677538Y-13353077D02*
X18668014Y-13305458D01*
X18668014Y-13305458D02*
X18668014Y-13267363D01*
X18668014Y-13267363D02*
X18677538Y-13219744D01*
X18677538Y-13219744D02*
X18687062Y-13191173D01*
X18687062Y-13191173D02*
X18696586Y-13172125D01*
X18696586Y-13172125D02*
X18715633Y-13143554D01*
X18715633Y-13143554D02*
X18725157Y-13134030D01*
X18791824Y-13181649D02*
X18801347Y-13172125D01*
X18801347Y-13172125D02*
X18820395Y-13162601D01*
X18820395Y-13162601D02*
X18868014Y-13162601D01*
X18868014Y-13162601D02*
X18887062Y-13172125D01*
X18887062Y-13172125D02*
X18896586Y-13181649D01*
X18896586Y-13181649D02*
X18906109Y-13200696D01*
X18906109Y-13200696D02*
X18906109Y-13219744D01*
X18906109Y-13219744D02*
X18896586Y-13248315D01*
X18896586Y-13248315D02*
X18782300Y-13362601D01*
X18782300Y-13362601D02*
X18906109Y-13362601D01*
X19111824Y-13362601D02*
X19111824Y-13162601D01*
X19197538Y-13362601D02*
X19197538Y-13257839D01*
X19197538Y-13257839D02*
X19188014Y-13238792D01*
X19188014Y-13238792D02*
X19168967Y-13229268D01*
X19168967Y-13229268D02*
X19140395Y-13229268D01*
X19140395Y-13229268D02*
X19121347Y-13238792D01*
X19121347Y-13238792D02*
X19111824Y-13248315D01*
X19321347Y-13362601D02*
X19302300Y-13353077D01*
X19302300Y-13353077D02*
X19292776Y-13343554D01*
X19292776Y-13343554D02*
X19283252Y-13324506D01*
X19283252Y-13324506D02*
X19283252Y-13267363D01*
X19283252Y-13267363D02*
X19292776Y-13248315D01*
X19292776Y-13248315D02*
X19302300Y-13238792D01*
X19302300Y-13238792D02*
X19321347Y-13229268D01*
X19321347Y-13229268D02*
X19349919Y-13229268D01*
X19349919Y-13229268D02*
X19368967Y-13238792D01*
X19368967Y-13238792D02*
X19378490Y-13248315D01*
X19378490Y-13248315D02*
X19388014Y-13267363D01*
X19388014Y-13267363D02*
X19388014Y-13324506D01*
X19388014Y-13324506D02*
X19378490Y-13343554D01*
X19378490Y-13343554D02*
X19368967Y-13353077D01*
X19368967Y-13353077D02*
X19349919Y-13362601D01*
X19349919Y-13362601D02*
X19321347Y-13362601D01*
X19502300Y-13362601D02*
X19483252Y-13353077D01*
X19483252Y-13353077D02*
X19473728Y-13334030D01*
X19473728Y-13334030D02*
X19473728Y-13162601D01*
X19654681Y-13353077D02*
X19635633Y-13362601D01*
X19635633Y-13362601D02*
X19597538Y-13362601D01*
X19597538Y-13362601D02*
X19578490Y-13353077D01*
X19578490Y-13353077D02*
X19568967Y-13334030D01*
X19568967Y-13334030D02*
X19568967Y-13257839D01*
X19568967Y-13257839D02*
X19578490Y-13238792D01*
X19578490Y-13238792D02*
X19597538Y-13229268D01*
X19597538Y-13229268D02*
X19635633Y-13229268D01*
X19635633Y-13229268D02*
X19654681Y-13238792D01*
X19654681Y-13238792D02*
X19664205Y-13257839D01*
X19664205Y-13257839D02*
X19664205Y-13276887D01*
X19664205Y-13276887D02*
X19568967Y-13295935D01*
X19740395Y-13353077D02*
X19759443Y-13362601D01*
X19759443Y-13362601D02*
X19797538Y-13362601D01*
X19797538Y-13362601D02*
X19816586Y-13353077D01*
X19816586Y-13353077D02*
X19826109Y-13334030D01*
X19826109Y-13334030D02*
X19826109Y-13324506D01*
X19826109Y-13324506D02*
X19816586Y-13305458D01*
X19816586Y-13305458D02*
X19797538Y-13295935D01*
X19797538Y-13295935D02*
X19768967Y-13295935D01*
X19768967Y-13295935D02*
X19749919Y-13286411D01*
X19749919Y-13286411D02*
X19740395Y-13267363D01*
X19740395Y-13267363D02*
X19740395Y-13257839D01*
X19740395Y-13257839D02*
X19749919Y-13238792D01*
X19749919Y-13238792D02*
X19768967Y-13229268D01*
X19768967Y-13229268D02*
X19797538Y-13229268D01*
X19797538Y-13229268D02*
X19816586Y-13238792D01*
X19892776Y-13438792D02*
X19902300Y-13429268D01*
X19902300Y-13429268D02*
X19921348Y-13400696D01*
X19921348Y-13400696D02*
X19930871Y-13381649D01*
X19930871Y-13381649D02*
X19940395Y-13353077D01*
X19940395Y-13353077D02*
X19949919Y-13305458D01*
X19949919Y-13305458D02*
X19949919Y-13267363D01*
X19949919Y-13267363D02*
X19940395Y-13219744D01*
X19940395Y-13219744D02*
X19930871Y-13191173D01*
X19930871Y-13191173D02*
X19921348Y-13172125D01*
X19921348Y-13172125D02*
X19902300Y-13143554D01*
X19902300Y-13143554D02*
X19892776Y-13134030D01*
D13*
X15260395Y-13553125D02*
G75*
G03*
X15260395Y-13553125I-15000J0D01*
G01*
D11*
X15546109Y-13426601D02*
X15565157Y-13426601D01*
X15565157Y-13426601D02*
X15584204Y-13436125D01*
X15584204Y-13436125D02*
X15593728Y-13445649D01*
X15593728Y-13445649D02*
X15603252Y-13464696D01*
X15603252Y-13464696D02*
X15612776Y-13502792D01*
X15612776Y-13502792D02*
X15612776Y-13550411D01*
X15612776Y-13550411D02*
X15603252Y-13588506D01*
X15603252Y-13588506D02*
X15593728Y-13607554D01*
X15593728Y-13607554D02*
X15584204Y-13617077D01*
X15584204Y-13617077D02*
X15565157Y-13626601D01*
X15565157Y-13626601D02*
X15546109Y-13626601D01*
X15546109Y-13626601D02*
X15527061Y-13617077D01*
X15527061Y-13617077D02*
X15517538Y-13607554D01*
X15517538Y-13607554D02*
X15508014Y-13588506D01*
X15508014Y-13588506D02*
X15498490Y-13550411D01*
X15498490Y-13550411D02*
X15498490Y-13502792D01*
X15498490Y-13502792D02*
X15508014Y-13464696D01*
X15508014Y-13464696D02*
X15517538Y-13445649D01*
X15517538Y-13445649D02*
X15527061Y-13436125D01*
X15527061Y-13436125D02*
X15546109Y-13426601D01*
X15698490Y-13607554D02*
X15708014Y-13617077D01*
X15708014Y-13617077D02*
X15698490Y-13626601D01*
X15698490Y-13626601D02*
X15688966Y-13617077D01*
X15688966Y-13617077D02*
X15698490Y-13607554D01*
X15698490Y-13607554D02*
X15698490Y-13626601D01*
X15774681Y-13426601D02*
X15898490Y-13426601D01*
X15898490Y-13426601D02*
X15831823Y-13502792D01*
X15831823Y-13502792D02*
X15860395Y-13502792D01*
X15860395Y-13502792D02*
X15879442Y-13512315D01*
X15879442Y-13512315D02*
X15888966Y-13521839D01*
X15888966Y-13521839D02*
X15898490Y-13540887D01*
X15898490Y-13540887D02*
X15898490Y-13588506D01*
X15898490Y-13588506D02*
X15888966Y-13607554D01*
X15888966Y-13607554D02*
X15879442Y-13617077D01*
X15879442Y-13617077D02*
X15860395Y-13626601D01*
X15860395Y-13626601D02*
X15803252Y-13626601D01*
X15803252Y-13626601D02*
X15784204Y-13617077D01*
X15784204Y-13617077D02*
X15774681Y-13607554D01*
X16022300Y-13426601D02*
X16041347Y-13426601D01*
X16041347Y-13426601D02*
X16060395Y-13436125D01*
X16060395Y-13436125D02*
X16069919Y-13445649D01*
X16069919Y-13445649D02*
X16079442Y-13464696D01*
X16079442Y-13464696D02*
X16088966Y-13502792D01*
X16088966Y-13502792D02*
X16088966Y-13550411D01*
X16088966Y-13550411D02*
X16079442Y-13588506D01*
X16079442Y-13588506D02*
X16069919Y-13607554D01*
X16069919Y-13607554D02*
X16060395Y-13617077D01*
X16060395Y-13617077D02*
X16041347Y-13626601D01*
X16041347Y-13626601D02*
X16022300Y-13626601D01*
X16022300Y-13626601D02*
X16003252Y-13617077D01*
X16003252Y-13617077D02*
X15993728Y-13607554D01*
X15993728Y-13607554D02*
X15984204Y-13588506D01*
X15984204Y-13588506D02*
X15974681Y-13550411D01*
X15974681Y-13550411D02*
X15974681Y-13502792D01*
X15974681Y-13502792D02*
X15984204Y-13464696D01*
X15984204Y-13464696D02*
X15993728Y-13445649D01*
X15993728Y-13445649D02*
X16003252Y-13436125D01*
X16003252Y-13436125D02*
X16022300Y-13426601D01*
X16212776Y-13426601D02*
X16231823Y-13426601D01*
X16231823Y-13426601D02*
X16250871Y-13436125D01*
X16250871Y-13436125D02*
X16260395Y-13445649D01*
X16260395Y-13445649D02*
X16269919Y-13464696D01*
X16269919Y-13464696D02*
X16279442Y-13502792D01*
X16279442Y-13502792D02*
X16279442Y-13550411D01*
X16279442Y-13550411D02*
X16269919Y-13588506D01*
X16269919Y-13588506D02*
X16260395Y-13607554D01*
X16260395Y-13607554D02*
X16250871Y-13617077D01*
X16250871Y-13617077D02*
X16231823Y-13626601D01*
X16231823Y-13626601D02*
X16212776Y-13626601D01*
X16212776Y-13626601D02*
X16193728Y-13617077D01*
X16193728Y-13617077D02*
X16184204Y-13607554D01*
X16184204Y-13607554D02*
X16174681Y-13588506D01*
X16174681Y-13588506D02*
X16165157Y-13550411D01*
X16165157Y-13550411D02*
X16165157Y-13502792D01*
X16165157Y-13502792D02*
X16174681Y-13464696D01*
X16174681Y-13464696D02*
X16184204Y-13445649D01*
X16184204Y-13445649D02*
X16193728Y-13436125D01*
X16193728Y-13436125D02*
X16212776Y-13426601D01*
X16365157Y-13626601D02*
X16365157Y-13493268D01*
X16365157Y-13512315D02*
X16374681Y-13502792D01*
X16374681Y-13502792D02*
X16393728Y-13493268D01*
X16393728Y-13493268D02*
X16422300Y-13493268D01*
X16422300Y-13493268D02*
X16441347Y-13502792D01*
X16441347Y-13502792D02*
X16450871Y-13521839D01*
X16450871Y-13521839D02*
X16450871Y-13626601D01*
X16450871Y-13521839D02*
X16460395Y-13502792D01*
X16460395Y-13502792D02*
X16479442Y-13493268D01*
X16479442Y-13493268D02*
X16508014Y-13493268D01*
X16508014Y-13493268D02*
X16527062Y-13502792D01*
X16527062Y-13502792D02*
X16536585Y-13521839D01*
X16536585Y-13521839D02*
X16536585Y-13626601D01*
X16631823Y-13626601D02*
X16631823Y-13493268D01*
X16631823Y-13512315D02*
X16641347Y-13502792D01*
X16641347Y-13502792D02*
X16660395Y-13493268D01*
X16660395Y-13493268D02*
X16688966Y-13493268D01*
X16688966Y-13493268D02*
X16708014Y-13502792D01*
X16708014Y-13502792D02*
X16717538Y-13521839D01*
X16717538Y-13521839D02*
X16717538Y-13626601D01*
X16717538Y-13521839D02*
X16727062Y-13502792D01*
X16727062Y-13502792D02*
X16746109Y-13493268D01*
X16746109Y-13493268D02*
X16774681Y-13493268D01*
X16774681Y-13493268D02*
X16793728Y-13502792D01*
X16793728Y-13502792D02*
X16803252Y-13521839D01*
X16803252Y-13521839D02*
X16803252Y-13626601D01*
X17161347Y-13417077D02*
X16989919Y-13674220D01*
X17386109Y-13426601D02*
X17405157Y-13426601D01*
X17405157Y-13426601D02*
X17424205Y-13436125D01*
X17424205Y-13436125D02*
X17433728Y-13445649D01*
X17433728Y-13445649D02*
X17443252Y-13464696D01*
X17443252Y-13464696D02*
X17452776Y-13502792D01*
X17452776Y-13502792D02*
X17452776Y-13550411D01*
X17452776Y-13550411D02*
X17443252Y-13588506D01*
X17443252Y-13588506D02*
X17433728Y-13607554D01*
X17433728Y-13607554D02*
X17424205Y-13617077D01*
X17424205Y-13617077D02*
X17405157Y-13626601D01*
X17405157Y-13626601D02*
X17386109Y-13626601D01*
X17386109Y-13626601D02*
X17367062Y-13617077D01*
X17367062Y-13617077D02*
X17357538Y-13607554D01*
X17357538Y-13607554D02*
X17348014Y-13588506D01*
X17348014Y-13588506D02*
X17338490Y-13550411D01*
X17338490Y-13550411D02*
X17338490Y-13502792D01*
X17338490Y-13502792D02*
X17348014Y-13464696D01*
X17348014Y-13464696D02*
X17357538Y-13445649D01*
X17357538Y-13445649D02*
X17367062Y-13436125D01*
X17367062Y-13436125D02*
X17386109Y-13426601D01*
X17538490Y-13607554D02*
X17548014Y-13617077D01*
X17548014Y-13617077D02*
X17538490Y-13626601D01*
X17538490Y-13626601D02*
X17528966Y-13617077D01*
X17528966Y-13617077D02*
X17538490Y-13607554D01*
X17538490Y-13607554D02*
X17538490Y-13626601D01*
X17671824Y-13426601D02*
X17690871Y-13426601D01*
X17690871Y-13426601D02*
X17709919Y-13436125D01*
X17709919Y-13436125D02*
X17719443Y-13445649D01*
X17719443Y-13445649D02*
X17728966Y-13464696D01*
X17728966Y-13464696D02*
X17738490Y-13502792D01*
X17738490Y-13502792D02*
X17738490Y-13550411D01*
X17738490Y-13550411D02*
X17728966Y-13588506D01*
X17728966Y-13588506D02*
X17719443Y-13607554D01*
X17719443Y-13607554D02*
X17709919Y-13617077D01*
X17709919Y-13617077D02*
X17690871Y-13626601D01*
X17690871Y-13626601D02*
X17671824Y-13626601D01*
X17671824Y-13626601D02*
X17652776Y-13617077D01*
X17652776Y-13617077D02*
X17643252Y-13607554D01*
X17643252Y-13607554D02*
X17633728Y-13588506D01*
X17633728Y-13588506D02*
X17624205Y-13550411D01*
X17624205Y-13550411D02*
X17624205Y-13502792D01*
X17624205Y-13502792D02*
X17633728Y-13464696D01*
X17633728Y-13464696D02*
X17643252Y-13445649D01*
X17643252Y-13445649D02*
X17652776Y-13436125D01*
X17652776Y-13436125D02*
X17671824Y-13426601D01*
X17928966Y-13626601D02*
X17814681Y-13626601D01*
X17871824Y-13626601D02*
X17871824Y-13426601D01*
X17871824Y-13426601D02*
X17852776Y-13455173D01*
X17852776Y-13455173D02*
X17833728Y-13474220D01*
X17833728Y-13474220D02*
X17814681Y-13483744D01*
X18119443Y-13626601D02*
X18005157Y-13626601D01*
X18062300Y-13626601D02*
X18062300Y-13426601D01*
X18062300Y-13426601D02*
X18043252Y-13455173D01*
X18043252Y-13455173D02*
X18024205Y-13474220D01*
X18024205Y-13474220D02*
X18005157Y-13483744D01*
X18233728Y-13512315D02*
X18214681Y-13502792D01*
X18214681Y-13502792D02*
X18205157Y-13493268D01*
X18205157Y-13493268D02*
X18195633Y-13474220D01*
X18195633Y-13474220D02*
X18195633Y-13464696D01*
X18195633Y-13464696D02*
X18205157Y-13445649D01*
X18205157Y-13445649D02*
X18214681Y-13436125D01*
X18214681Y-13436125D02*
X18233728Y-13426601D01*
X18233728Y-13426601D02*
X18271824Y-13426601D01*
X18271824Y-13426601D02*
X18290871Y-13436125D01*
X18290871Y-13436125D02*
X18300395Y-13445649D01*
X18300395Y-13445649D02*
X18309919Y-13464696D01*
X18309919Y-13464696D02*
X18309919Y-13474220D01*
X18309919Y-13474220D02*
X18300395Y-13493268D01*
X18300395Y-13493268D02*
X18290871Y-13502792D01*
X18290871Y-13502792D02*
X18271824Y-13512315D01*
X18271824Y-13512315D02*
X18233728Y-13512315D01*
X18233728Y-13512315D02*
X18214681Y-13521839D01*
X18214681Y-13521839D02*
X18205157Y-13531363D01*
X18205157Y-13531363D02*
X18195633Y-13550411D01*
X18195633Y-13550411D02*
X18195633Y-13588506D01*
X18195633Y-13588506D02*
X18205157Y-13607554D01*
X18205157Y-13607554D02*
X18214681Y-13617077D01*
X18214681Y-13617077D02*
X18233728Y-13626601D01*
X18233728Y-13626601D02*
X18271824Y-13626601D01*
X18271824Y-13626601D02*
X18290871Y-13617077D01*
X18290871Y-13617077D02*
X18300395Y-13607554D01*
X18300395Y-13607554D02*
X18309919Y-13588506D01*
X18309919Y-13588506D02*
X18309919Y-13550411D01*
X18309919Y-13550411D02*
X18300395Y-13531363D01*
X18300395Y-13531363D02*
X18290871Y-13521839D01*
X18290871Y-13521839D02*
X18271824Y-13512315D01*
X18386109Y-13426601D02*
X18386109Y-13464696D01*
X18462300Y-13426601D02*
X18462300Y-13464696D01*
X18725157Y-13702792D02*
X18715633Y-13693268D01*
X18715633Y-13693268D02*
X18696586Y-13664696D01*
X18696586Y-13664696D02*
X18687062Y-13645649D01*
X18687062Y-13645649D02*
X18677538Y-13617077D01*
X18677538Y-13617077D02*
X18668014Y-13569458D01*
X18668014Y-13569458D02*
X18668014Y-13531363D01*
X18668014Y-13531363D02*
X18677538Y-13483744D01*
X18677538Y-13483744D02*
X18687062Y-13455173D01*
X18687062Y-13455173D02*
X18696586Y-13436125D01*
X18696586Y-13436125D02*
X18715633Y-13407554D01*
X18715633Y-13407554D02*
X18725157Y-13398030D01*
X18782300Y-13426601D02*
X18906109Y-13426601D01*
X18906109Y-13426601D02*
X18839443Y-13502792D01*
X18839443Y-13502792D02*
X18868014Y-13502792D01*
X18868014Y-13502792D02*
X18887062Y-13512315D01*
X18887062Y-13512315D02*
X18896586Y-13521839D01*
X18896586Y-13521839D02*
X18906109Y-13540887D01*
X18906109Y-13540887D02*
X18906109Y-13588506D01*
X18906109Y-13588506D02*
X18896586Y-13607554D01*
X18896586Y-13607554D02*
X18887062Y-13617077D01*
X18887062Y-13617077D02*
X18868014Y-13626601D01*
X18868014Y-13626601D02*
X18810871Y-13626601D01*
X18810871Y-13626601D02*
X18791824Y-13617077D01*
X18791824Y-13617077D02*
X18782300Y-13607554D01*
X19111824Y-13626601D02*
X19111824Y-13426601D01*
X19197538Y-13626601D02*
X19197538Y-13521839D01*
X19197538Y-13521839D02*
X19188014Y-13502792D01*
X19188014Y-13502792D02*
X19168967Y-13493268D01*
X19168967Y-13493268D02*
X19140395Y-13493268D01*
X19140395Y-13493268D02*
X19121347Y-13502792D01*
X19121347Y-13502792D02*
X19111824Y-13512315D01*
X19321347Y-13626601D02*
X19302300Y-13617077D01*
X19302300Y-13617077D02*
X19292776Y-13607554D01*
X19292776Y-13607554D02*
X19283252Y-13588506D01*
X19283252Y-13588506D02*
X19283252Y-13531363D01*
X19283252Y-13531363D02*
X19292776Y-13512315D01*
X19292776Y-13512315D02*
X19302300Y-13502792D01*
X19302300Y-13502792D02*
X19321347Y-13493268D01*
X19321347Y-13493268D02*
X19349919Y-13493268D01*
X19349919Y-13493268D02*
X19368967Y-13502792D01*
X19368967Y-13502792D02*
X19378490Y-13512315D01*
X19378490Y-13512315D02*
X19388014Y-13531363D01*
X19388014Y-13531363D02*
X19388014Y-13588506D01*
X19388014Y-13588506D02*
X19378490Y-13607554D01*
X19378490Y-13607554D02*
X19368967Y-13617077D01*
X19368967Y-13617077D02*
X19349919Y-13626601D01*
X19349919Y-13626601D02*
X19321347Y-13626601D01*
X19502300Y-13626601D02*
X19483252Y-13617077D01*
X19483252Y-13617077D02*
X19473728Y-13598030D01*
X19473728Y-13598030D02*
X19473728Y-13426601D01*
X19654681Y-13617077D02*
X19635633Y-13626601D01*
X19635633Y-13626601D02*
X19597538Y-13626601D01*
X19597538Y-13626601D02*
X19578490Y-13617077D01*
X19578490Y-13617077D02*
X19568967Y-13598030D01*
X19568967Y-13598030D02*
X19568967Y-13521839D01*
X19568967Y-13521839D02*
X19578490Y-13502792D01*
X19578490Y-13502792D02*
X19597538Y-13493268D01*
X19597538Y-13493268D02*
X19635633Y-13493268D01*
X19635633Y-13493268D02*
X19654681Y-13502792D01*
X19654681Y-13502792D02*
X19664205Y-13521839D01*
X19664205Y-13521839D02*
X19664205Y-13540887D01*
X19664205Y-13540887D02*
X19568967Y-13559935D01*
X19740395Y-13617077D02*
X19759443Y-13626601D01*
X19759443Y-13626601D02*
X19797538Y-13626601D01*
X19797538Y-13626601D02*
X19816586Y-13617077D01*
X19816586Y-13617077D02*
X19826109Y-13598030D01*
X19826109Y-13598030D02*
X19826109Y-13588506D01*
X19826109Y-13588506D02*
X19816586Y-13569458D01*
X19816586Y-13569458D02*
X19797538Y-13559935D01*
X19797538Y-13559935D02*
X19768967Y-13559935D01*
X19768967Y-13559935D02*
X19749919Y-13550411D01*
X19749919Y-13550411D02*
X19740395Y-13531363D01*
X19740395Y-13531363D02*
X19740395Y-13521839D01*
X19740395Y-13521839D02*
X19749919Y-13502792D01*
X19749919Y-13502792D02*
X19768967Y-13493268D01*
X19768967Y-13493268D02*
X19797538Y-13493268D01*
X19797538Y-13493268D02*
X19816586Y-13502792D01*
X19892776Y-13702792D02*
X19902300Y-13693268D01*
X19902300Y-13693268D02*
X19921348Y-13664696D01*
X19921348Y-13664696D02*
X19930871Y-13645649D01*
X19930871Y-13645649D02*
X19940395Y-13617077D01*
X19940395Y-13617077D02*
X19949919Y-13569458D01*
X19949919Y-13569458D02*
X19949919Y-13531363D01*
X19949919Y-13531363D02*
X19940395Y-13483744D01*
X19940395Y-13483744D02*
X19930871Y-13455173D01*
X19930871Y-13455173D02*
X19921348Y-13436125D01*
X19921348Y-13436125D02*
X19902300Y-13407554D01*
X19902300Y-13407554D02*
X19892776Y-13398030D01*
D14*
X15230395Y-13787125D02*
X15230395Y-13847125D01*
X15200395Y-13817125D02*
X15260395Y-13817125D01*
D11*
X15546109Y-13690601D02*
X15565157Y-13690601D01*
X15565157Y-13690601D02*
X15584204Y-13700125D01*
X15584204Y-13700125D02*
X15593728Y-13709649D01*
X15593728Y-13709649D02*
X15603252Y-13728696D01*
X15603252Y-13728696D02*
X15612776Y-13766792D01*
X15612776Y-13766792D02*
X15612776Y-13814411D01*
X15612776Y-13814411D02*
X15603252Y-13852506D01*
X15603252Y-13852506D02*
X15593728Y-13871554D01*
X15593728Y-13871554D02*
X15584204Y-13881077D01*
X15584204Y-13881077D02*
X15565157Y-13890601D01*
X15565157Y-13890601D02*
X15546109Y-13890601D01*
X15546109Y-13890601D02*
X15527061Y-13881077D01*
X15527061Y-13881077D02*
X15517538Y-13871554D01*
X15517538Y-13871554D02*
X15508014Y-13852506D01*
X15508014Y-13852506D02*
X15498490Y-13814411D01*
X15498490Y-13814411D02*
X15498490Y-13766792D01*
X15498490Y-13766792D02*
X15508014Y-13728696D01*
X15508014Y-13728696D02*
X15517538Y-13709649D01*
X15517538Y-13709649D02*
X15527061Y-13700125D01*
X15527061Y-13700125D02*
X15546109Y-13690601D01*
X15698490Y-13871554D02*
X15708014Y-13881077D01*
X15708014Y-13881077D02*
X15698490Y-13890601D01*
X15698490Y-13890601D02*
X15688966Y-13881077D01*
X15688966Y-13881077D02*
X15698490Y-13871554D01*
X15698490Y-13871554D02*
X15698490Y-13890601D01*
X15879442Y-13690601D02*
X15841347Y-13690601D01*
X15841347Y-13690601D02*
X15822300Y-13700125D01*
X15822300Y-13700125D02*
X15812776Y-13709649D01*
X15812776Y-13709649D02*
X15793728Y-13738220D01*
X15793728Y-13738220D02*
X15784204Y-13776315D01*
X15784204Y-13776315D02*
X15784204Y-13852506D01*
X15784204Y-13852506D02*
X15793728Y-13871554D01*
X15793728Y-13871554D02*
X15803252Y-13881077D01*
X15803252Y-13881077D02*
X15822300Y-13890601D01*
X15822300Y-13890601D02*
X15860395Y-13890601D01*
X15860395Y-13890601D02*
X15879442Y-13881077D01*
X15879442Y-13881077D02*
X15888966Y-13871554D01*
X15888966Y-13871554D02*
X15898490Y-13852506D01*
X15898490Y-13852506D02*
X15898490Y-13804887D01*
X15898490Y-13804887D02*
X15888966Y-13785839D01*
X15888966Y-13785839D02*
X15879442Y-13776315D01*
X15879442Y-13776315D02*
X15860395Y-13766792D01*
X15860395Y-13766792D02*
X15822300Y-13766792D01*
X15822300Y-13766792D02*
X15803252Y-13776315D01*
X15803252Y-13776315D02*
X15793728Y-13785839D01*
X15793728Y-13785839D02*
X15784204Y-13804887D01*
X16022300Y-13690601D02*
X16041347Y-13690601D01*
X16041347Y-13690601D02*
X16060395Y-13700125D01*
X16060395Y-13700125D02*
X16069919Y-13709649D01*
X16069919Y-13709649D02*
X16079442Y-13728696D01*
X16079442Y-13728696D02*
X16088966Y-13766792D01*
X16088966Y-13766792D02*
X16088966Y-13814411D01*
X16088966Y-13814411D02*
X16079442Y-13852506D01*
X16079442Y-13852506D02*
X16069919Y-13871554D01*
X16069919Y-13871554D02*
X16060395Y-13881077D01*
X16060395Y-13881077D02*
X16041347Y-13890601D01*
X16041347Y-13890601D02*
X16022300Y-13890601D01*
X16022300Y-13890601D02*
X16003252Y-13881077D01*
X16003252Y-13881077D02*
X15993728Y-13871554D01*
X15993728Y-13871554D02*
X15984204Y-13852506D01*
X15984204Y-13852506D02*
X15974681Y-13814411D01*
X15974681Y-13814411D02*
X15974681Y-13766792D01*
X15974681Y-13766792D02*
X15984204Y-13728696D01*
X15984204Y-13728696D02*
X15993728Y-13709649D01*
X15993728Y-13709649D02*
X16003252Y-13700125D01*
X16003252Y-13700125D02*
X16022300Y-13690601D01*
X16212776Y-13690601D02*
X16231823Y-13690601D01*
X16231823Y-13690601D02*
X16250871Y-13700125D01*
X16250871Y-13700125D02*
X16260395Y-13709649D01*
X16260395Y-13709649D02*
X16269919Y-13728696D01*
X16269919Y-13728696D02*
X16279442Y-13766792D01*
X16279442Y-13766792D02*
X16279442Y-13814411D01*
X16279442Y-13814411D02*
X16269919Y-13852506D01*
X16269919Y-13852506D02*
X16260395Y-13871554D01*
X16260395Y-13871554D02*
X16250871Y-13881077D01*
X16250871Y-13881077D02*
X16231823Y-13890601D01*
X16231823Y-13890601D02*
X16212776Y-13890601D01*
X16212776Y-13890601D02*
X16193728Y-13881077D01*
X16193728Y-13881077D02*
X16184204Y-13871554D01*
X16184204Y-13871554D02*
X16174681Y-13852506D01*
X16174681Y-13852506D02*
X16165157Y-13814411D01*
X16165157Y-13814411D02*
X16165157Y-13766792D01*
X16165157Y-13766792D02*
X16174681Y-13728696D01*
X16174681Y-13728696D02*
X16184204Y-13709649D01*
X16184204Y-13709649D02*
X16193728Y-13700125D01*
X16193728Y-13700125D02*
X16212776Y-13690601D01*
X16365157Y-13890601D02*
X16365157Y-13757268D01*
X16365157Y-13776315D02*
X16374681Y-13766792D01*
X16374681Y-13766792D02*
X16393728Y-13757268D01*
X16393728Y-13757268D02*
X16422300Y-13757268D01*
X16422300Y-13757268D02*
X16441347Y-13766792D01*
X16441347Y-13766792D02*
X16450871Y-13785839D01*
X16450871Y-13785839D02*
X16450871Y-13890601D01*
X16450871Y-13785839D02*
X16460395Y-13766792D01*
X16460395Y-13766792D02*
X16479442Y-13757268D01*
X16479442Y-13757268D02*
X16508014Y-13757268D01*
X16508014Y-13757268D02*
X16527062Y-13766792D01*
X16527062Y-13766792D02*
X16536585Y-13785839D01*
X16536585Y-13785839D02*
X16536585Y-13890601D01*
X16631823Y-13890601D02*
X16631823Y-13757268D01*
X16631823Y-13776315D02*
X16641347Y-13766792D01*
X16641347Y-13766792D02*
X16660395Y-13757268D01*
X16660395Y-13757268D02*
X16688966Y-13757268D01*
X16688966Y-13757268D02*
X16708014Y-13766792D01*
X16708014Y-13766792D02*
X16717538Y-13785839D01*
X16717538Y-13785839D02*
X16717538Y-13890601D01*
X16717538Y-13785839D02*
X16727062Y-13766792D01*
X16727062Y-13766792D02*
X16746109Y-13757268D01*
X16746109Y-13757268D02*
X16774681Y-13757268D01*
X16774681Y-13757268D02*
X16793728Y-13766792D01*
X16793728Y-13766792D02*
X16803252Y-13785839D01*
X16803252Y-13785839D02*
X16803252Y-13890601D01*
X17161347Y-13681077D02*
X16989919Y-13938220D01*
X17386109Y-13690601D02*
X17405157Y-13690601D01*
X17405157Y-13690601D02*
X17424205Y-13700125D01*
X17424205Y-13700125D02*
X17433728Y-13709649D01*
X17433728Y-13709649D02*
X17443252Y-13728696D01*
X17443252Y-13728696D02*
X17452776Y-13766792D01*
X17452776Y-13766792D02*
X17452776Y-13814411D01*
X17452776Y-13814411D02*
X17443252Y-13852506D01*
X17443252Y-13852506D02*
X17433728Y-13871554D01*
X17433728Y-13871554D02*
X17424205Y-13881077D01*
X17424205Y-13881077D02*
X17405157Y-13890601D01*
X17405157Y-13890601D02*
X17386109Y-13890601D01*
X17386109Y-13890601D02*
X17367062Y-13881077D01*
X17367062Y-13881077D02*
X17357538Y-13871554D01*
X17357538Y-13871554D02*
X17348014Y-13852506D01*
X17348014Y-13852506D02*
X17338490Y-13814411D01*
X17338490Y-13814411D02*
X17338490Y-13766792D01*
X17338490Y-13766792D02*
X17348014Y-13728696D01*
X17348014Y-13728696D02*
X17357538Y-13709649D01*
X17357538Y-13709649D02*
X17367062Y-13700125D01*
X17367062Y-13700125D02*
X17386109Y-13690601D01*
X17538490Y-13871554D02*
X17548014Y-13881077D01*
X17548014Y-13881077D02*
X17538490Y-13890601D01*
X17538490Y-13890601D02*
X17528966Y-13881077D01*
X17528966Y-13881077D02*
X17538490Y-13871554D01*
X17538490Y-13871554D02*
X17538490Y-13890601D01*
X17671824Y-13690601D02*
X17690871Y-13690601D01*
X17690871Y-13690601D02*
X17709919Y-13700125D01*
X17709919Y-13700125D02*
X17719443Y-13709649D01*
X17719443Y-13709649D02*
X17728966Y-13728696D01*
X17728966Y-13728696D02*
X17738490Y-13766792D01*
X17738490Y-13766792D02*
X17738490Y-13814411D01*
X17738490Y-13814411D02*
X17728966Y-13852506D01*
X17728966Y-13852506D02*
X17719443Y-13871554D01*
X17719443Y-13871554D02*
X17709919Y-13881077D01*
X17709919Y-13881077D02*
X17690871Y-13890601D01*
X17690871Y-13890601D02*
X17671824Y-13890601D01*
X17671824Y-13890601D02*
X17652776Y-13881077D01*
X17652776Y-13881077D02*
X17643252Y-13871554D01*
X17643252Y-13871554D02*
X17633728Y-13852506D01*
X17633728Y-13852506D02*
X17624205Y-13814411D01*
X17624205Y-13814411D02*
X17624205Y-13766792D01*
X17624205Y-13766792D02*
X17633728Y-13728696D01*
X17633728Y-13728696D02*
X17643252Y-13709649D01*
X17643252Y-13709649D02*
X17652776Y-13700125D01*
X17652776Y-13700125D02*
X17671824Y-13690601D01*
X17814681Y-13709649D02*
X17824205Y-13700125D01*
X17824205Y-13700125D02*
X17843252Y-13690601D01*
X17843252Y-13690601D02*
X17890871Y-13690601D01*
X17890871Y-13690601D02*
X17909919Y-13700125D01*
X17909919Y-13700125D02*
X17919443Y-13709649D01*
X17919443Y-13709649D02*
X17928966Y-13728696D01*
X17928966Y-13728696D02*
X17928966Y-13747744D01*
X17928966Y-13747744D02*
X17919443Y-13776315D01*
X17919443Y-13776315D02*
X17805157Y-13890601D01*
X17805157Y-13890601D02*
X17928966Y-13890601D01*
X17995633Y-13690601D02*
X18119443Y-13690601D01*
X18119443Y-13690601D02*
X18052776Y-13766792D01*
X18052776Y-13766792D02*
X18081347Y-13766792D01*
X18081347Y-13766792D02*
X18100395Y-13776315D01*
X18100395Y-13776315D02*
X18109919Y-13785839D01*
X18109919Y-13785839D02*
X18119443Y-13804887D01*
X18119443Y-13804887D02*
X18119443Y-13852506D01*
X18119443Y-13852506D02*
X18109919Y-13871554D01*
X18109919Y-13871554D02*
X18100395Y-13881077D01*
X18100395Y-13881077D02*
X18081347Y-13890601D01*
X18081347Y-13890601D02*
X18024205Y-13890601D01*
X18024205Y-13890601D02*
X18005157Y-13881077D01*
X18005157Y-13881077D02*
X17995633Y-13871554D01*
X18290871Y-13690601D02*
X18252776Y-13690601D01*
X18252776Y-13690601D02*
X18233728Y-13700125D01*
X18233728Y-13700125D02*
X18224205Y-13709649D01*
X18224205Y-13709649D02*
X18205157Y-13738220D01*
X18205157Y-13738220D02*
X18195633Y-13776315D01*
X18195633Y-13776315D02*
X18195633Y-13852506D01*
X18195633Y-13852506D02*
X18205157Y-13871554D01*
X18205157Y-13871554D02*
X18214681Y-13881077D01*
X18214681Y-13881077D02*
X18233728Y-13890601D01*
X18233728Y-13890601D02*
X18271824Y-13890601D01*
X18271824Y-13890601D02*
X18290871Y-13881077D01*
X18290871Y-13881077D02*
X18300395Y-13871554D01*
X18300395Y-13871554D02*
X18309919Y-13852506D01*
X18309919Y-13852506D02*
X18309919Y-13804887D01*
X18309919Y-13804887D02*
X18300395Y-13785839D01*
X18300395Y-13785839D02*
X18290871Y-13776315D01*
X18290871Y-13776315D02*
X18271824Y-13766792D01*
X18271824Y-13766792D02*
X18233728Y-13766792D01*
X18233728Y-13766792D02*
X18214681Y-13776315D01*
X18214681Y-13776315D02*
X18205157Y-13785839D01*
X18205157Y-13785839D02*
X18195633Y-13804887D01*
X18386109Y-13690601D02*
X18386109Y-13728696D01*
X18462300Y-13690601D02*
X18462300Y-13728696D01*
X18725157Y-13966792D02*
X18715633Y-13957268D01*
X18715633Y-13957268D02*
X18696586Y-13928696D01*
X18696586Y-13928696D02*
X18687062Y-13909649D01*
X18687062Y-13909649D02*
X18677538Y-13881077D01*
X18677538Y-13881077D02*
X18668014Y-13833458D01*
X18668014Y-13833458D02*
X18668014Y-13795363D01*
X18668014Y-13795363D02*
X18677538Y-13747744D01*
X18677538Y-13747744D02*
X18687062Y-13719173D01*
X18687062Y-13719173D02*
X18696586Y-13700125D01*
X18696586Y-13700125D02*
X18715633Y-13671554D01*
X18715633Y-13671554D02*
X18725157Y-13662030D01*
X18887062Y-13757268D02*
X18887062Y-13890601D01*
X18839443Y-13681077D02*
X18791824Y-13823935D01*
X18791824Y-13823935D02*
X18915633Y-13823935D01*
X19111824Y-13890601D02*
X19111824Y-13690601D01*
X19197538Y-13890601D02*
X19197538Y-13785839D01*
X19197538Y-13785839D02*
X19188014Y-13766792D01*
X19188014Y-13766792D02*
X19168967Y-13757268D01*
X19168967Y-13757268D02*
X19140395Y-13757268D01*
X19140395Y-13757268D02*
X19121347Y-13766792D01*
X19121347Y-13766792D02*
X19111824Y-13776315D01*
X19321347Y-13890601D02*
X19302300Y-13881077D01*
X19302300Y-13881077D02*
X19292776Y-13871554D01*
X19292776Y-13871554D02*
X19283252Y-13852506D01*
X19283252Y-13852506D02*
X19283252Y-13795363D01*
X19283252Y-13795363D02*
X19292776Y-13776315D01*
X19292776Y-13776315D02*
X19302300Y-13766792D01*
X19302300Y-13766792D02*
X19321347Y-13757268D01*
X19321347Y-13757268D02*
X19349919Y-13757268D01*
X19349919Y-13757268D02*
X19368967Y-13766792D01*
X19368967Y-13766792D02*
X19378490Y-13776315D01*
X19378490Y-13776315D02*
X19388014Y-13795363D01*
X19388014Y-13795363D02*
X19388014Y-13852506D01*
X19388014Y-13852506D02*
X19378490Y-13871554D01*
X19378490Y-13871554D02*
X19368967Y-13881077D01*
X19368967Y-13881077D02*
X19349919Y-13890601D01*
X19349919Y-13890601D02*
X19321347Y-13890601D01*
X19502300Y-13890601D02*
X19483252Y-13881077D01*
X19483252Y-13881077D02*
X19473728Y-13862030D01*
X19473728Y-13862030D02*
X19473728Y-13690601D01*
X19654681Y-13881077D02*
X19635633Y-13890601D01*
X19635633Y-13890601D02*
X19597538Y-13890601D01*
X19597538Y-13890601D02*
X19578490Y-13881077D01*
X19578490Y-13881077D02*
X19568967Y-13862030D01*
X19568967Y-13862030D02*
X19568967Y-13785839D01*
X19568967Y-13785839D02*
X19578490Y-13766792D01*
X19578490Y-13766792D02*
X19597538Y-13757268D01*
X19597538Y-13757268D02*
X19635633Y-13757268D01*
X19635633Y-13757268D02*
X19654681Y-13766792D01*
X19654681Y-13766792D02*
X19664205Y-13785839D01*
X19664205Y-13785839D02*
X19664205Y-13804887D01*
X19664205Y-13804887D02*
X19568967Y-13823935D01*
X19740395Y-13881077D02*
X19759443Y-13890601D01*
X19759443Y-13890601D02*
X19797538Y-13890601D01*
X19797538Y-13890601D02*
X19816586Y-13881077D01*
X19816586Y-13881077D02*
X19826109Y-13862030D01*
X19826109Y-13862030D02*
X19826109Y-13852506D01*
X19826109Y-13852506D02*
X19816586Y-13833458D01*
X19816586Y-13833458D02*
X19797538Y-13823935D01*
X19797538Y-13823935D02*
X19768967Y-13823935D01*
X19768967Y-13823935D02*
X19749919Y-13814411D01*
X19749919Y-13814411D02*
X19740395Y-13795363D01*
X19740395Y-13795363D02*
X19740395Y-13785839D01*
X19740395Y-13785839D02*
X19749919Y-13766792D01*
X19749919Y-13766792D02*
X19768967Y-13757268D01*
X19768967Y-13757268D02*
X19797538Y-13757268D01*
X19797538Y-13757268D02*
X19816586Y-13766792D01*
X19892776Y-13966792D02*
X19902300Y-13957268D01*
X19902300Y-13957268D02*
X19921348Y-13928696D01*
X19921348Y-13928696D02*
X19930871Y-13909649D01*
X19930871Y-13909649D02*
X19940395Y-13881077D01*
X19940395Y-13881077D02*
X19949919Y-13833458D01*
X19949919Y-13833458D02*
X19949919Y-13795363D01*
X19949919Y-13795363D02*
X19940395Y-13747744D01*
X19940395Y-13747744D02*
X19930871Y-13719173D01*
X19930871Y-13719173D02*
X19921348Y-13700125D01*
X19921348Y-13700125D02*
X19902300Y-13671554D01*
X19902300Y-13671554D02*
X19892776Y-13662030D01*
D15*
X15250876Y-14104106D02*
X15250876Y-14058144D01*
X15204914Y-14058144D01*
X15204914Y-14104106D01*
X15250876Y-14104106D01*
D11*
X15546109Y-13954601D02*
X15565157Y-13954601D01*
X15565157Y-13954601D02*
X15584204Y-13964125D01*
X15584204Y-13964125D02*
X15593728Y-13973649D01*
X15593728Y-13973649D02*
X15603252Y-13992696D01*
X15603252Y-13992696D02*
X15612776Y-14030792D01*
X15612776Y-14030792D02*
X15612776Y-14078411D01*
X15612776Y-14078411D02*
X15603252Y-14116506D01*
X15603252Y-14116506D02*
X15593728Y-14135554D01*
X15593728Y-14135554D02*
X15584204Y-14145077D01*
X15584204Y-14145077D02*
X15565157Y-14154601D01*
X15565157Y-14154601D02*
X15546109Y-14154601D01*
X15546109Y-14154601D02*
X15527061Y-14145077D01*
X15527061Y-14145077D02*
X15517538Y-14135554D01*
X15517538Y-14135554D02*
X15508014Y-14116506D01*
X15508014Y-14116506D02*
X15498490Y-14078411D01*
X15498490Y-14078411D02*
X15498490Y-14030792D01*
X15498490Y-14030792D02*
X15508014Y-13992696D01*
X15508014Y-13992696D02*
X15517538Y-13973649D01*
X15517538Y-13973649D02*
X15527061Y-13964125D01*
X15527061Y-13964125D02*
X15546109Y-13954601D01*
X15698490Y-14135554D02*
X15708014Y-14145077D01*
X15708014Y-14145077D02*
X15698490Y-14154601D01*
X15698490Y-14154601D02*
X15688966Y-14145077D01*
X15688966Y-14145077D02*
X15698490Y-14135554D01*
X15698490Y-14135554D02*
X15698490Y-14154601D01*
X15879442Y-13954601D02*
X15841347Y-13954601D01*
X15841347Y-13954601D02*
X15822300Y-13964125D01*
X15822300Y-13964125D02*
X15812776Y-13973649D01*
X15812776Y-13973649D02*
X15793728Y-14002220D01*
X15793728Y-14002220D02*
X15784204Y-14040315D01*
X15784204Y-14040315D02*
X15784204Y-14116506D01*
X15784204Y-14116506D02*
X15793728Y-14135554D01*
X15793728Y-14135554D02*
X15803252Y-14145077D01*
X15803252Y-14145077D02*
X15822300Y-14154601D01*
X15822300Y-14154601D02*
X15860395Y-14154601D01*
X15860395Y-14154601D02*
X15879442Y-14145077D01*
X15879442Y-14145077D02*
X15888966Y-14135554D01*
X15888966Y-14135554D02*
X15898490Y-14116506D01*
X15898490Y-14116506D02*
X15898490Y-14068887D01*
X15898490Y-14068887D02*
X15888966Y-14049839D01*
X15888966Y-14049839D02*
X15879442Y-14040315D01*
X15879442Y-14040315D02*
X15860395Y-14030792D01*
X15860395Y-14030792D02*
X15822300Y-14030792D01*
X15822300Y-14030792D02*
X15803252Y-14040315D01*
X15803252Y-14040315D02*
X15793728Y-14049839D01*
X15793728Y-14049839D02*
X15784204Y-14068887D01*
X16079442Y-13954601D02*
X15984204Y-13954601D01*
X15984204Y-13954601D02*
X15974681Y-14049839D01*
X15974681Y-14049839D02*
X15984204Y-14040315D01*
X15984204Y-14040315D02*
X16003252Y-14030792D01*
X16003252Y-14030792D02*
X16050871Y-14030792D01*
X16050871Y-14030792D02*
X16069919Y-14040315D01*
X16069919Y-14040315D02*
X16079442Y-14049839D01*
X16079442Y-14049839D02*
X16088966Y-14068887D01*
X16088966Y-14068887D02*
X16088966Y-14116506D01*
X16088966Y-14116506D02*
X16079442Y-14135554D01*
X16079442Y-14135554D02*
X16069919Y-14145077D01*
X16069919Y-14145077D02*
X16050871Y-14154601D01*
X16050871Y-14154601D02*
X16003252Y-14154601D01*
X16003252Y-14154601D02*
X15984204Y-14145077D01*
X15984204Y-14145077D02*
X15974681Y-14135554D01*
X16212776Y-13954601D02*
X16231823Y-13954601D01*
X16231823Y-13954601D02*
X16250871Y-13964125D01*
X16250871Y-13964125D02*
X16260395Y-13973649D01*
X16260395Y-13973649D02*
X16269919Y-13992696D01*
X16269919Y-13992696D02*
X16279442Y-14030792D01*
X16279442Y-14030792D02*
X16279442Y-14078411D01*
X16279442Y-14078411D02*
X16269919Y-14116506D01*
X16269919Y-14116506D02*
X16260395Y-14135554D01*
X16260395Y-14135554D02*
X16250871Y-14145077D01*
X16250871Y-14145077D02*
X16231823Y-14154601D01*
X16231823Y-14154601D02*
X16212776Y-14154601D01*
X16212776Y-14154601D02*
X16193728Y-14145077D01*
X16193728Y-14145077D02*
X16184204Y-14135554D01*
X16184204Y-14135554D02*
X16174681Y-14116506D01*
X16174681Y-14116506D02*
X16165157Y-14078411D01*
X16165157Y-14078411D02*
X16165157Y-14030792D01*
X16165157Y-14030792D02*
X16174681Y-13992696D01*
X16174681Y-13992696D02*
X16184204Y-13973649D01*
X16184204Y-13973649D02*
X16193728Y-13964125D01*
X16193728Y-13964125D02*
X16212776Y-13954601D01*
X16365157Y-14154601D02*
X16365157Y-14021268D01*
X16365157Y-14040315D02*
X16374681Y-14030792D01*
X16374681Y-14030792D02*
X16393728Y-14021268D01*
X16393728Y-14021268D02*
X16422300Y-14021268D01*
X16422300Y-14021268D02*
X16441347Y-14030792D01*
X16441347Y-14030792D02*
X16450871Y-14049839D01*
X16450871Y-14049839D02*
X16450871Y-14154601D01*
X16450871Y-14049839D02*
X16460395Y-14030792D01*
X16460395Y-14030792D02*
X16479442Y-14021268D01*
X16479442Y-14021268D02*
X16508014Y-14021268D01*
X16508014Y-14021268D02*
X16527062Y-14030792D01*
X16527062Y-14030792D02*
X16536585Y-14049839D01*
X16536585Y-14049839D02*
X16536585Y-14154601D01*
X16631823Y-14154601D02*
X16631823Y-14021268D01*
X16631823Y-14040315D02*
X16641347Y-14030792D01*
X16641347Y-14030792D02*
X16660395Y-14021268D01*
X16660395Y-14021268D02*
X16688966Y-14021268D01*
X16688966Y-14021268D02*
X16708014Y-14030792D01*
X16708014Y-14030792D02*
X16717538Y-14049839D01*
X16717538Y-14049839D02*
X16717538Y-14154601D01*
X16717538Y-14049839D02*
X16727062Y-14030792D01*
X16727062Y-14030792D02*
X16746109Y-14021268D01*
X16746109Y-14021268D02*
X16774681Y-14021268D01*
X16774681Y-14021268D02*
X16793728Y-14030792D01*
X16793728Y-14030792D02*
X16803252Y-14049839D01*
X16803252Y-14049839D02*
X16803252Y-14154601D01*
X17161347Y-13945077D02*
X16989919Y-14202220D01*
X17386109Y-13954601D02*
X17405157Y-13954601D01*
X17405157Y-13954601D02*
X17424205Y-13964125D01*
X17424205Y-13964125D02*
X17433728Y-13973649D01*
X17433728Y-13973649D02*
X17443252Y-13992696D01*
X17443252Y-13992696D02*
X17452776Y-14030792D01*
X17452776Y-14030792D02*
X17452776Y-14078411D01*
X17452776Y-14078411D02*
X17443252Y-14116506D01*
X17443252Y-14116506D02*
X17433728Y-14135554D01*
X17433728Y-14135554D02*
X17424205Y-14145077D01*
X17424205Y-14145077D02*
X17405157Y-14154601D01*
X17405157Y-14154601D02*
X17386109Y-14154601D01*
X17386109Y-14154601D02*
X17367062Y-14145077D01*
X17367062Y-14145077D02*
X17357538Y-14135554D01*
X17357538Y-14135554D02*
X17348014Y-14116506D01*
X17348014Y-14116506D02*
X17338490Y-14078411D01*
X17338490Y-14078411D02*
X17338490Y-14030792D01*
X17338490Y-14030792D02*
X17348014Y-13992696D01*
X17348014Y-13992696D02*
X17357538Y-13973649D01*
X17357538Y-13973649D02*
X17367062Y-13964125D01*
X17367062Y-13964125D02*
X17386109Y-13954601D01*
X17538490Y-14135554D02*
X17548014Y-14145077D01*
X17548014Y-14145077D02*
X17538490Y-14154601D01*
X17538490Y-14154601D02*
X17528966Y-14145077D01*
X17528966Y-14145077D02*
X17538490Y-14135554D01*
X17538490Y-14135554D02*
X17538490Y-14154601D01*
X17671824Y-13954601D02*
X17690871Y-13954601D01*
X17690871Y-13954601D02*
X17709919Y-13964125D01*
X17709919Y-13964125D02*
X17719443Y-13973649D01*
X17719443Y-13973649D02*
X17728966Y-13992696D01*
X17728966Y-13992696D02*
X17738490Y-14030792D01*
X17738490Y-14030792D02*
X17738490Y-14078411D01*
X17738490Y-14078411D02*
X17728966Y-14116506D01*
X17728966Y-14116506D02*
X17719443Y-14135554D01*
X17719443Y-14135554D02*
X17709919Y-14145077D01*
X17709919Y-14145077D02*
X17690871Y-14154601D01*
X17690871Y-14154601D02*
X17671824Y-14154601D01*
X17671824Y-14154601D02*
X17652776Y-14145077D01*
X17652776Y-14145077D02*
X17643252Y-14135554D01*
X17643252Y-14135554D02*
X17633728Y-14116506D01*
X17633728Y-14116506D02*
X17624205Y-14078411D01*
X17624205Y-14078411D02*
X17624205Y-14030792D01*
X17624205Y-14030792D02*
X17633728Y-13992696D01*
X17633728Y-13992696D02*
X17643252Y-13973649D01*
X17643252Y-13973649D02*
X17652776Y-13964125D01*
X17652776Y-13964125D02*
X17671824Y-13954601D01*
X17814681Y-13973649D02*
X17824205Y-13964125D01*
X17824205Y-13964125D02*
X17843252Y-13954601D01*
X17843252Y-13954601D02*
X17890871Y-13954601D01*
X17890871Y-13954601D02*
X17909919Y-13964125D01*
X17909919Y-13964125D02*
X17919443Y-13973649D01*
X17919443Y-13973649D02*
X17928966Y-13992696D01*
X17928966Y-13992696D02*
X17928966Y-14011744D01*
X17928966Y-14011744D02*
X17919443Y-14040315D01*
X17919443Y-14040315D02*
X17805157Y-14154601D01*
X17805157Y-14154601D02*
X17928966Y-14154601D01*
X18109919Y-13954601D02*
X18014681Y-13954601D01*
X18014681Y-13954601D02*
X18005157Y-14049839D01*
X18005157Y-14049839D02*
X18014681Y-14040315D01*
X18014681Y-14040315D02*
X18033728Y-14030792D01*
X18033728Y-14030792D02*
X18081347Y-14030792D01*
X18081347Y-14030792D02*
X18100395Y-14040315D01*
X18100395Y-14040315D02*
X18109919Y-14049839D01*
X18109919Y-14049839D02*
X18119443Y-14068887D01*
X18119443Y-14068887D02*
X18119443Y-14116506D01*
X18119443Y-14116506D02*
X18109919Y-14135554D01*
X18109919Y-14135554D02*
X18100395Y-14145077D01*
X18100395Y-14145077D02*
X18081347Y-14154601D01*
X18081347Y-14154601D02*
X18033728Y-14154601D01*
X18033728Y-14154601D02*
X18014681Y-14145077D01*
X18014681Y-14145077D02*
X18005157Y-14135554D01*
X18290871Y-13954601D02*
X18252776Y-13954601D01*
X18252776Y-13954601D02*
X18233728Y-13964125D01*
X18233728Y-13964125D02*
X18224205Y-13973649D01*
X18224205Y-13973649D02*
X18205157Y-14002220D01*
X18205157Y-14002220D02*
X18195633Y-14040315D01*
X18195633Y-14040315D02*
X18195633Y-14116506D01*
X18195633Y-14116506D02*
X18205157Y-14135554D01*
X18205157Y-14135554D02*
X18214681Y-14145077D01*
X18214681Y-14145077D02*
X18233728Y-14154601D01*
X18233728Y-14154601D02*
X18271824Y-14154601D01*
X18271824Y-14154601D02*
X18290871Y-14145077D01*
X18290871Y-14145077D02*
X18300395Y-14135554D01*
X18300395Y-14135554D02*
X18309919Y-14116506D01*
X18309919Y-14116506D02*
X18309919Y-14068887D01*
X18309919Y-14068887D02*
X18300395Y-14049839D01*
X18300395Y-14049839D02*
X18290871Y-14040315D01*
X18290871Y-14040315D02*
X18271824Y-14030792D01*
X18271824Y-14030792D02*
X18233728Y-14030792D01*
X18233728Y-14030792D02*
X18214681Y-14040315D01*
X18214681Y-14040315D02*
X18205157Y-14049839D01*
X18205157Y-14049839D02*
X18195633Y-14068887D01*
X18386109Y-13954601D02*
X18386109Y-13992696D01*
X18462300Y-13954601D02*
X18462300Y-13992696D01*
X18725157Y-14230792D02*
X18715633Y-14221268D01*
X18715633Y-14221268D02*
X18696586Y-14192696D01*
X18696586Y-14192696D02*
X18687062Y-14173649D01*
X18687062Y-14173649D02*
X18677538Y-14145077D01*
X18677538Y-14145077D02*
X18668014Y-14097458D01*
X18668014Y-14097458D02*
X18668014Y-14059363D01*
X18668014Y-14059363D02*
X18677538Y-14011744D01*
X18677538Y-14011744D02*
X18687062Y-13983173D01*
X18687062Y-13983173D02*
X18696586Y-13964125D01*
X18696586Y-13964125D02*
X18715633Y-13935554D01*
X18715633Y-13935554D02*
X18725157Y-13926030D01*
X18906109Y-14154601D02*
X18791824Y-14154601D01*
X18848966Y-14154601D02*
X18848966Y-13954601D01*
X18848966Y-13954601D02*
X18829919Y-13983173D01*
X18829919Y-13983173D02*
X18810871Y-14002220D01*
X18810871Y-14002220D02*
X18791824Y-14011744D01*
X19077538Y-14021268D02*
X19077538Y-14154601D01*
X19029919Y-13945077D02*
X18982300Y-14087935D01*
X18982300Y-14087935D02*
X19106109Y-14087935D01*
X19302300Y-14154601D02*
X19302300Y-13954601D01*
X19388014Y-14154601D02*
X19388014Y-14049839D01*
X19388014Y-14049839D02*
X19378490Y-14030792D01*
X19378490Y-14030792D02*
X19359443Y-14021268D01*
X19359443Y-14021268D02*
X19330871Y-14021268D01*
X19330871Y-14021268D02*
X19311824Y-14030792D01*
X19311824Y-14030792D02*
X19302300Y-14040315D01*
X19511824Y-14154601D02*
X19492776Y-14145077D01*
X19492776Y-14145077D02*
X19483252Y-14135554D01*
X19483252Y-14135554D02*
X19473728Y-14116506D01*
X19473728Y-14116506D02*
X19473728Y-14059363D01*
X19473728Y-14059363D02*
X19483252Y-14040315D01*
X19483252Y-14040315D02*
X19492776Y-14030792D01*
X19492776Y-14030792D02*
X19511824Y-14021268D01*
X19511824Y-14021268D02*
X19540395Y-14021268D01*
X19540395Y-14021268D02*
X19559443Y-14030792D01*
X19559443Y-14030792D02*
X19568967Y-14040315D01*
X19568967Y-14040315D02*
X19578490Y-14059363D01*
X19578490Y-14059363D02*
X19578490Y-14116506D01*
X19578490Y-14116506D02*
X19568967Y-14135554D01*
X19568967Y-14135554D02*
X19559443Y-14145077D01*
X19559443Y-14145077D02*
X19540395Y-14154601D01*
X19540395Y-14154601D02*
X19511824Y-14154601D01*
X19692776Y-14154601D02*
X19673728Y-14145077D01*
X19673728Y-14145077D02*
X19664205Y-14126030D01*
X19664205Y-14126030D02*
X19664205Y-13954601D01*
X19845157Y-14145077D02*
X19826109Y-14154601D01*
X19826109Y-14154601D02*
X19788014Y-14154601D01*
X19788014Y-14154601D02*
X19768967Y-14145077D01*
X19768967Y-14145077D02*
X19759443Y-14126030D01*
X19759443Y-14126030D02*
X19759443Y-14049839D01*
X19759443Y-14049839D02*
X19768967Y-14030792D01*
X19768967Y-14030792D02*
X19788014Y-14021268D01*
X19788014Y-14021268D02*
X19826109Y-14021268D01*
X19826109Y-14021268D02*
X19845157Y-14030792D01*
X19845157Y-14030792D02*
X19854681Y-14049839D01*
X19854681Y-14049839D02*
X19854681Y-14068887D01*
X19854681Y-14068887D02*
X19759443Y-14087935D01*
X19930871Y-14145077D02*
X19949919Y-14154601D01*
X19949919Y-14154601D02*
X19988014Y-14154601D01*
X19988014Y-14154601D02*
X20007062Y-14145077D01*
X20007062Y-14145077D02*
X20016586Y-14126030D01*
X20016586Y-14126030D02*
X20016586Y-14116506D01*
X20016586Y-14116506D02*
X20007062Y-14097458D01*
X20007062Y-14097458D02*
X19988014Y-14087935D01*
X19988014Y-14087935D02*
X19959443Y-14087935D01*
X19959443Y-14087935D02*
X19940395Y-14078411D01*
X19940395Y-14078411D02*
X19930871Y-14059363D01*
X19930871Y-14059363D02*
X19930871Y-14049839D01*
X19930871Y-14049839D02*
X19940395Y-14030792D01*
X19940395Y-14030792D02*
X19959443Y-14021268D01*
X19959443Y-14021268D02*
X19988014Y-14021268D01*
X19988014Y-14021268D02*
X20007062Y-14030792D01*
X20083252Y-14230792D02*
X20092776Y-14221268D01*
X20092776Y-14221268D02*
X20111824Y-14192696D01*
X20111824Y-14192696D02*
X20121348Y-14173649D01*
X20121348Y-14173649D02*
X20130871Y-14145077D01*
X20130871Y-14145077D02*
X20140395Y-14097458D01*
X20140395Y-14097458D02*
X20140395Y-14059363D01*
X20140395Y-14059363D02*
X20130871Y-14011744D01*
X20130871Y-14011744D02*
X20121348Y-13983173D01*
X20121348Y-13983173D02*
X20111824Y-13964125D01*
X20111824Y-13964125D02*
X20092776Y-13935554D01*
X20092776Y-13935554D02*
X20083252Y-13926030D01*
D16*
X15215945Y-14389575D02*
X15260395Y-14345125D01*
X15215945Y-14300675D01*
X15171495Y-14345125D01*
X15215945Y-14389575D01*
D11*
X15546109Y-14218601D02*
X15565157Y-14218601D01*
X15565157Y-14218601D02*
X15584204Y-14228125D01*
X15584204Y-14228125D02*
X15593728Y-14237649D01*
X15593728Y-14237649D02*
X15603252Y-14256696D01*
X15603252Y-14256696D02*
X15612776Y-14294792D01*
X15612776Y-14294792D02*
X15612776Y-14342411D01*
X15612776Y-14342411D02*
X15603252Y-14380506D01*
X15603252Y-14380506D02*
X15593728Y-14399554D01*
X15593728Y-14399554D02*
X15584204Y-14409077D01*
X15584204Y-14409077D02*
X15565157Y-14418601D01*
X15565157Y-14418601D02*
X15546109Y-14418601D01*
X15546109Y-14418601D02*
X15527061Y-14409077D01*
X15527061Y-14409077D02*
X15517538Y-14399554D01*
X15517538Y-14399554D02*
X15508014Y-14380506D01*
X15508014Y-14380506D02*
X15498490Y-14342411D01*
X15498490Y-14342411D02*
X15498490Y-14294792D01*
X15498490Y-14294792D02*
X15508014Y-14256696D01*
X15508014Y-14256696D02*
X15517538Y-14237649D01*
X15517538Y-14237649D02*
X15527061Y-14228125D01*
X15527061Y-14228125D02*
X15546109Y-14218601D01*
X15698490Y-14399554D02*
X15708014Y-14409077D01*
X15708014Y-14409077D02*
X15698490Y-14418601D01*
X15698490Y-14418601D02*
X15688966Y-14409077D01*
X15688966Y-14409077D02*
X15698490Y-14399554D01*
X15698490Y-14399554D02*
X15698490Y-14418601D01*
X15822300Y-14304315D02*
X15803252Y-14294792D01*
X15803252Y-14294792D02*
X15793728Y-14285268D01*
X15793728Y-14285268D02*
X15784204Y-14266220D01*
X15784204Y-14266220D02*
X15784204Y-14256696D01*
X15784204Y-14256696D02*
X15793728Y-14237649D01*
X15793728Y-14237649D02*
X15803252Y-14228125D01*
X15803252Y-14228125D02*
X15822300Y-14218601D01*
X15822300Y-14218601D02*
X15860395Y-14218601D01*
X15860395Y-14218601D02*
X15879442Y-14228125D01*
X15879442Y-14228125D02*
X15888966Y-14237649D01*
X15888966Y-14237649D02*
X15898490Y-14256696D01*
X15898490Y-14256696D02*
X15898490Y-14266220D01*
X15898490Y-14266220D02*
X15888966Y-14285268D01*
X15888966Y-14285268D02*
X15879442Y-14294792D01*
X15879442Y-14294792D02*
X15860395Y-14304315D01*
X15860395Y-14304315D02*
X15822300Y-14304315D01*
X15822300Y-14304315D02*
X15803252Y-14313839D01*
X15803252Y-14313839D02*
X15793728Y-14323363D01*
X15793728Y-14323363D02*
X15784204Y-14342411D01*
X15784204Y-14342411D02*
X15784204Y-14380506D01*
X15784204Y-14380506D02*
X15793728Y-14399554D01*
X15793728Y-14399554D02*
X15803252Y-14409077D01*
X15803252Y-14409077D02*
X15822300Y-14418601D01*
X15822300Y-14418601D02*
X15860395Y-14418601D01*
X15860395Y-14418601D02*
X15879442Y-14409077D01*
X15879442Y-14409077D02*
X15888966Y-14399554D01*
X15888966Y-14399554D02*
X15898490Y-14380506D01*
X15898490Y-14380506D02*
X15898490Y-14342411D01*
X15898490Y-14342411D02*
X15888966Y-14323363D01*
X15888966Y-14323363D02*
X15879442Y-14313839D01*
X15879442Y-14313839D02*
X15860395Y-14304315D01*
X16012776Y-14304315D02*
X15993728Y-14294792D01*
X15993728Y-14294792D02*
X15984204Y-14285268D01*
X15984204Y-14285268D02*
X15974681Y-14266220D01*
X15974681Y-14266220D02*
X15974681Y-14256696D01*
X15974681Y-14256696D02*
X15984204Y-14237649D01*
X15984204Y-14237649D02*
X15993728Y-14228125D01*
X15993728Y-14228125D02*
X16012776Y-14218601D01*
X16012776Y-14218601D02*
X16050871Y-14218601D01*
X16050871Y-14218601D02*
X16069919Y-14228125D01*
X16069919Y-14228125D02*
X16079442Y-14237649D01*
X16079442Y-14237649D02*
X16088966Y-14256696D01*
X16088966Y-14256696D02*
X16088966Y-14266220D01*
X16088966Y-14266220D02*
X16079442Y-14285268D01*
X16079442Y-14285268D02*
X16069919Y-14294792D01*
X16069919Y-14294792D02*
X16050871Y-14304315D01*
X16050871Y-14304315D02*
X16012776Y-14304315D01*
X16012776Y-14304315D02*
X15993728Y-14313839D01*
X15993728Y-14313839D02*
X15984204Y-14323363D01*
X15984204Y-14323363D02*
X15974681Y-14342411D01*
X15974681Y-14342411D02*
X15974681Y-14380506D01*
X15974681Y-14380506D02*
X15984204Y-14399554D01*
X15984204Y-14399554D02*
X15993728Y-14409077D01*
X15993728Y-14409077D02*
X16012776Y-14418601D01*
X16012776Y-14418601D02*
X16050871Y-14418601D01*
X16050871Y-14418601D02*
X16069919Y-14409077D01*
X16069919Y-14409077D02*
X16079442Y-14399554D01*
X16079442Y-14399554D02*
X16088966Y-14380506D01*
X16088966Y-14380506D02*
X16088966Y-14342411D01*
X16088966Y-14342411D02*
X16079442Y-14323363D01*
X16079442Y-14323363D02*
X16069919Y-14313839D01*
X16069919Y-14313839D02*
X16050871Y-14304315D01*
X16184204Y-14418601D02*
X16222300Y-14418601D01*
X16222300Y-14418601D02*
X16241347Y-14409077D01*
X16241347Y-14409077D02*
X16250871Y-14399554D01*
X16250871Y-14399554D02*
X16269919Y-14370982D01*
X16269919Y-14370982D02*
X16279442Y-14332887D01*
X16279442Y-14332887D02*
X16279442Y-14256696D01*
X16279442Y-14256696D02*
X16269919Y-14237649D01*
X16269919Y-14237649D02*
X16260395Y-14228125D01*
X16260395Y-14228125D02*
X16241347Y-14218601D01*
X16241347Y-14218601D02*
X16203252Y-14218601D01*
X16203252Y-14218601D02*
X16184204Y-14228125D01*
X16184204Y-14228125D02*
X16174681Y-14237649D01*
X16174681Y-14237649D02*
X16165157Y-14256696D01*
X16165157Y-14256696D02*
X16165157Y-14304315D01*
X16165157Y-14304315D02*
X16174681Y-14323363D01*
X16174681Y-14323363D02*
X16184204Y-14332887D01*
X16184204Y-14332887D02*
X16203252Y-14342411D01*
X16203252Y-14342411D02*
X16241347Y-14342411D01*
X16241347Y-14342411D02*
X16260395Y-14332887D01*
X16260395Y-14332887D02*
X16269919Y-14323363D01*
X16269919Y-14323363D02*
X16279442Y-14304315D01*
X16365157Y-14418601D02*
X16365157Y-14285268D01*
X16365157Y-14304315D02*
X16374681Y-14294792D01*
X16374681Y-14294792D02*
X16393728Y-14285268D01*
X16393728Y-14285268D02*
X16422300Y-14285268D01*
X16422300Y-14285268D02*
X16441347Y-14294792D01*
X16441347Y-14294792D02*
X16450871Y-14313839D01*
X16450871Y-14313839D02*
X16450871Y-14418601D01*
X16450871Y-14313839D02*
X16460395Y-14294792D01*
X16460395Y-14294792D02*
X16479442Y-14285268D01*
X16479442Y-14285268D02*
X16508014Y-14285268D01*
X16508014Y-14285268D02*
X16527062Y-14294792D01*
X16527062Y-14294792D02*
X16536585Y-14313839D01*
X16536585Y-14313839D02*
X16536585Y-14418601D01*
X16631823Y-14418601D02*
X16631823Y-14285268D01*
X16631823Y-14304315D02*
X16641347Y-14294792D01*
X16641347Y-14294792D02*
X16660395Y-14285268D01*
X16660395Y-14285268D02*
X16688966Y-14285268D01*
X16688966Y-14285268D02*
X16708014Y-14294792D01*
X16708014Y-14294792D02*
X16717538Y-14313839D01*
X16717538Y-14313839D02*
X16717538Y-14418601D01*
X16717538Y-14313839D02*
X16727062Y-14294792D01*
X16727062Y-14294792D02*
X16746109Y-14285268D01*
X16746109Y-14285268D02*
X16774681Y-14285268D01*
X16774681Y-14285268D02*
X16793728Y-14294792D01*
X16793728Y-14294792D02*
X16803252Y-14313839D01*
X16803252Y-14313839D02*
X16803252Y-14418601D01*
X17161347Y-14209077D02*
X16989919Y-14466220D01*
X17386109Y-14218601D02*
X17405157Y-14218601D01*
X17405157Y-14218601D02*
X17424205Y-14228125D01*
X17424205Y-14228125D02*
X17433728Y-14237649D01*
X17433728Y-14237649D02*
X17443252Y-14256696D01*
X17443252Y-14256696D02*
X17452776Y-14294792D01*
X17452776Y-14294792D02*
X17452776Y-14342411D01*
X17452776Y-14342411D02*
X17443252Y-14380506D01*
X17443252Y-14380506D02*
X17433728Y-14399554D01*
X17433728Y-14399554D02*
X17424205Y-14409077D01*
X17424205Y-14409077D02*
X17405157Y-14418601D01*
X17405157Y-14418601D02*
X17386109Y-14418601D01*
X17386109Y-14418601D02*
X17367062Y-14409077D01*
X17367062Y-14409077D02*
X17357538Y-14399554D01*
X17357538Y-14399554D02*
X17348014Y-14380506D01*
X17348014Y-14380506D02*
X17338490Y-14342411D01*
X17338490Y-14342411D02*
X17338490Y-14294792D01*
X17338490Y-14294792D02*
X17348014Y-14256696D01*
X17348014Y-14256696D02*
X17357538Y-14237649D01*
X17357538Y-14237649D02*
X17367062Y-14228125D01*
X17367062Y-14228125D02*
X17386109Y-14218601D01*
X17538490Y-14399554D02*
X17548014Y-14409077D01*
X17548014Y-14409077D02*
X17538490Y-14418601D01*
X17538490Y-14418601D02*
X17528966Y-14409077D01*
X17528966Y-14409077D02*
X17538490Y-14399554D01*
X17538490Y-14399554D02*
X17538490Y-14418601D01*
X17671824Y-14218601D02*
X17690871Y-14218601D01*
X17690871Y-14218601D02*
X17709919Y-14228125D01*
X17709919Y-14228125D02*
X17719443Y-14237649D01*
X17719443Y-14237649D02*
X17728966Y-14256696D01*
X17728966Y-14256696D02*
X17738490Y-14294792D01*
X17738490Y-14294792D02*
X17738490Y-14342411D01*
X17738490Y-14342411D02*
X17728966Y-14380506D01*
X17728966Y-14380506D02*
X17719443Y-14399554D01*
X17719443Y-14399554D02*
X17709919Y-14409077D01*
X17709919Y-14409077D02*
X17690871Y-14418601D01*
X17690871Y-14418601D02*
X17671824Y-14418601D01*
X17671824Y-14418601D02*
X17652776Y-14409077D01*
X17652776Y-14409077D02*
X17643252Y-14399554D01*
X17643252Y-14399554D02*
X17633728Y-14380506D01*
X17633728Y-14380506D02*
X17624205Y-14342411D01*
X17624205Y-14342411D02*
X17624205Y-14294792D01*
X17624205Y-14294792D02*
X17633728Y-14256696D01*
X17633728Y-14256696D02*
X17643252Y-14237649D01*
X17643252Y-14237649D02*
X17652776Y-14228125D01*
X17652776Y-14228125D02*
X17671824Y-14218601D01*
X17805157Y-14218601D02*
X17928966Y-14218601D01*
X17928966Y-14218601D02*
X17862300Y-14294792D01*
X17862300Y-14294792D02*
X17890871Y-14294792D01*
X17890871Y-14294792D02*
X17909919Y-14304315D01*
X17909919Y-14304315D02*
X17919443Y-14313839D01*
X17919443Y-14313839D02*
X17928966Y-14332887D01*
X17928966Y-14332887D02*
X17928966Y-14380506D01*
X17928966Y-14380506D02*
X17919443Y-14399554D01*
X17919443Y-14399554D02*
X17909919Y-14409077D01*
X17909919Y-14409077D02*
X17890871Y-14418601D01*
X17890871Y-14418601D02*
X17833728Y-14418601D01*
X17833728Y-14418601D02*
X17814681Y-14409077D01*
X17814681Y-14409077D02*
X17805157Y-14399554D01*
X18109919Y-14218601D02*
X18014681Y-14218601D01*
X18014681Y-14218601D02*
X18005157Y-14313839D01*
X18005157Y-14313839D02*
X18014681Y-14304315D01*
X18014681Y-14304315D02*
X18033728Y-14294792D01*
X18033728Y-14294792D02*
X18081347Y-14294792D01*
X18081347Y-14294792D02*
X18100395Y-14304315D01*
X18100395Y-14304315D02*
X18109919Y-14313839D01*
X18109919Y-14313839D02*
X18119443Y-14332887D01*
X18119443Y-14332887D02*
X18119443Y-14380506D01*
X18119443Y-14380506D02*
X18109919Y-14399554D01*
X18109919Y-14399554D02*
X18100395Y-14409077D01*
X18100395Y-14409077D02*
X18081347Y-14418601D01*
X18081347Y-14418601D02*
X18033728Y-14418601D01*
X18033728Y-14418601D02*
X18014681Y-14409077D01*
X18014681Y-14409077D02*
X18005157Y-14399554D01*
X18243252Y-14218601D02*
X18262300Y-14218601D01*
X18262300Y-14218601D02*
X18281347Y-14228125D01*
X18281347Y-14228125D02*
X18290871Y-14237649D01*
X18290871Y-14237649D02*
X18300395Y-14256696D01*
X18300395Y-14256696D02*
X18309919Y-14294792D01*
X18309919Y-14294792D02*
X18309919Y-14342411D01*
X18309919Y-14342411D02*
X18300395Y-14380506D01*
X18300395Y-14380506D02*
X18290871Y-14399554D01*
X18290871Y-14399554D02*
X18281347Y-14409077D01*
X18281347Y-14409077D02*
X18262300Y-14418601D01*
X18262300Y-14418601D02*
X18243252Y-14418601D01*
X18243252Y-14418601D02*
X18224205Y-14409077D01*
X18224205Y-14409077D02*
X18214681Y-14399554D01*
X18214681Y-14399554D02*
X18205157Y-14380506D01*
X18205157Y-14380506D02*
X18195633Y-14342411D01*
X18195633Y-14342411D02*
X18195633Y-14294792D01*
X18195633Y-14294792D02*
X18205157Y-14256696D01*
X18205157Y-14256696D02*
X18214681Y-14237649D01*
X18214681Y-14237649D02*
X18224205Y-14228125D01*
X18224205Y-14228125D02*
X18243252Y-14218601D01*
X18386109Y-14218601D02*
X18386109Y-14256696D01*
X18462300Y-14218601D02*
X18462300Y-14256696D01*
X18725157Y-14494792D02*
X18715633Y-14485268D01*
X18715633Y-14485268D02*
X18696586Y-14456696D01*
X18696586Y-14456696D02*
X18687062Y-14437649D01*
X18687062Y-14437649D02*
X18677538Y-14409077D01*
X18677538Y-14409077D02*
X18668014Y-14361458D01*
X18668014Y-14361458D02*
X18668014Y-14323363D01*
X18668014Y-14323363D02*
X18677538Y-14275744D01*
X18677538Y-14275744D02*
X18687062Y-14247173D01*
X18687062Y-14247173D02*
X18696586Y-14228125D01*
X18696586Y-14228125D02*
X18715633Y-14199554D01*
X18715633Y-14199554D02*
X18725157Y-14190030D01*
X18906109Y-14418601D02*
X18791824Y-14418601D01*
X18848966Y-14418601D02*
X18848966Y-14218601D01*
X18848966Y-14218601D02*
X18829919Y-14247173D01*
X18829919Y-14247173D02*
X18810871Y-14266220D01*
X18810871Y-14266220D02*
X18791824Y-14275744D01*
X18982300Y-14237649D02*
X18991824Y-14228125D01*
X18991824Y-14228125D02*
X19010871Y-14218601D01*
X19010871Y-14218601D02*
X19058490Y-14218601D01*
X19058490Y-14218601D02*
X19077538Y-14228125D01*
X19077538Y-14228125D02*
X19087062Y-14237649D01*
X19087062Y-14237649D02*
X19096586Y-14256696D01*
X19096586Y-14256696D02*
X19096586Y-14275744D01*
X19096586Y-14275744D02*
X19087062Y-14304315D01*
X19087062Y-14304315D02*
X18972776Y-14418601D01*
X18972776Y-14418601D02*
X19096586Y-14418601D01*
X19302300Y-14418601D02*
X19302300Y-14218601D01*
X19388014Y-14418601D02*
X19388014Y-14313839D01*
X19388014Y-14313839D02*
X19378490Y-14294792D01*
X19378490Y-14294792D02*
X19359443Y-14285268D01*
X19359443Y-14285268D02*
X19330871Y-14285268D01*
X19330871Y-14285268D02*
X19311824Y-14294792D01*
X19311824Y-14294792D02*
X19302300Y-14304315D01*
X19511824Y-14418601D02*
X19492776Y-14409077D01*
X19492776Y-14409077D02*
X19483252Y-14399554D01*
X19483252Y-14399554D02*
X19473728Y-14380506D01*
X19473728Y-14380506D02*
X19473728Y-14323363D01*
X19473728Y-14323363D02*
X19483252Y-14304315D01*
X19483252Y-14304315D02*
X19492776Y-14294792D01*
X19492776Y-14294792D02*
X19511824Y-14285268D01*
X19511824Y-14285268D02*
X19540395Y-14285268D01*
X19540395Y-14285268D02*
X19559443Y-14294792D01*
X19559443Y-14294792D02*
X19568967Y-14304315D01*
X19568967Y-14304315D02*
X19578490Y-14323363D01*
X19578490Y-14323363D02*
X19578490Y-14380506D01*
X19578490Y-14380506D02*
X19568967Y-14399554D01*
X19568967Y-14399554D02*
X19559443Y-14409077D01*
X19559443Y-14409077D02*
X19540395Y-14418601D01*
X19540395Y-14418601D02*
X19511824Y-14418601D01*
X19692776Y-14418601D02*
X19673728Y-14409077D01*
X19673728Y-14409077D02*
X19664205Y-14390030D01*
X19664205Y-14390030D02*
X19664205Y-14218601D01*
X19845157Y-14409077D02*
X19826109Y-14418601D01*
X19826109Y-14418601D02*
X19788014Y-14418601D01*
X19788014Y-14418601D02*
X19768967Y-14409077D01*
X19768967Y-14409077D02*
X19759443Y-14390030D01*
X19759443Y-14390030D02*
X19759443Y-14313839D01*
X19759443Y-14313839D02*
X19768967Y-14294792D01*
X19768967Y-14294792D02*
X19788014Y-14285268D01*
X19788014Y-14285268D02*
X19826109Y-14285268D01*
X19826109Y-14285268D02*
X19845157Y-14294792D01*
X19845157Y-14294792D02*
X19854681Y-14313839D01*
X19854681Y-14313839D02*
X19854681Y-14332887D01*
X19854681Y-14332887D02*
X19759443Y-14351935D01*
X19930871Y-14409077D02*
X19949919Y-14418601D01*
X19949919Y-14418601D02*
X19988014Y-14418601D01*
X19988014Y-14418601D02*
X20007062Y-14409077D01*
X20007062Y-14409077D02*
X20016586Y-14390030D01*
X20016586Y-14390030D02*
X20016586Y-14380506D01*
X20016586Y-14380506D02*
X20007062Y-14361458D01*
X20007062Y-14361458D02*
X19988014Y-14351935D01*
X19988014Y-14351935D02*
X19959443Y-14351935D01*
X19959443Y-14351935D02*
X19940395Y-14342411D01*
X19940395Y-14342411D02*
X19930871Y-14323363D01*
X19930871Y-14323363D02*
X19930871Y-14313839D01*
X19930871Y-14313839D02*
X19940395Y-14294792D01*
X19940395Y-14294792D02*
X19959443Y-14285268D01*
X19959443Y-14285268D02*
X19988014Y-14285268D01*
X19988014Y-14285268D02*
X20007062Y-14294792D01*
X20083252Y-14494792D02*
X20092776Y-14485268D01*
X20092776Y-14485268D02*
X20111824Y-14456696D01*
X20111824Y-14456696D02*
X20121348Y-14437649D01*
X20121348Y-14437649D02*
X20130871Y-14409077D01*
X20130871Y-14409077D02*
X20140395Y-14361458D01*
X20140395Y-14361458D02*
X20140395Y-14323363D01*
X20140395Y-14323363D02*
X20130871Y-14275744D01*
X20130871Y-14275744D02*
X20121348Y-14247173D01*
X20121348Y-14247173D02*
X20111824Y-14228125D01*
X20111824Y-14228125D02*
X20092776Y-14199554D01*
X20092776Y-14199554D02*
X20083252Y-14190030D01*
D17*
X15170395Y-14564125D02*
X15260395Y-14654125D01*
X15260395Y-14564125D02*
X15170395Y-14654125D01*
X15260395Y-14609125D02*
G75*
G03*
X15260395Y-14609125I-45000J0D01*
G01*
D11*
X15546109Y-14482601D02*
X15565157Y-14482601D01*
X15565157Y-14482601D02*
X15584204Y-14492125D01*
X15584204Y-14492125D02*
X15593728Y-14501649D01*
X15593728Y-14501649D02*
X15603252Y-14520696D01*
X15603252Y-14520696D02*
X15612776Y-14558792D01*
X15612776Y-14558792D02*
X15612776Y-14606411D01*
X15612776Y-14606411D02*
X15603252Y-14644506D01*
X15603252Y-14644506D02*
X15593728Y-14663554D01*
X15593728Y-14663554D02*
X15584204Y-14673077D01*
X15584204Y-14673077D02*
X15565157Y-14682601D01*
X15565157Y-14682601D02*
X15546109Y-14682601D01*
X15546109Y-14682601D02*
X15527061Y-14673077D01*
X15527061Y-14673077D02*
X15517538Y-14663554D01*
X15517538Y-14663554D02*
X15508014Y-14644506D01*
X15508014Y-14644506D02*
X15498490Y-14606411D01*
X15498490Y-14606411D02*
X15498490Y-14558792D01*
X15498490Y-14558792D02*
X15508014Y-14520696D01*
X15508014Y-14520696D02*
X15517538Y-14501649D01*
X15517538Y-14501649D02*
X15527061Y-14492125D01*
X15527061Y-14492125D02*
X15546109Y-14482601D01*
X15698490Y-14663554D02*
X15708014Y-14673077D01*
X15708014Y-14673077D02*
X15698490Y-14682601D01*
X15698490Y-14682601D02*
X15688966Y-14673077D01*
X15688966Y-14673077D02*
X15698490Y-14663554D01*
X15698490Y-14663554D02*
X15698490Y-14682601D01*
X15803252Y-14682601D02*
X15841347Y-14682601D01*
X15841347Y-14682601D02*
X15860395Y-14673077D01*
X15860395Y-14673077D02*
X15869919Y-14663554D01*
X15869919Y-14663554D02*
X15888966Y-14634982D01*
X15888966Y-14634982D02*
X15898490Y-14596887D01*
X15898490Y-14596887D02*
X15898490Y-14520696D01*
X15898490Y-14520696D02*
X15888966Y-14501649D01*
X15888966Y-14501649D02*
X15879442Y-14492125D01*
X15879442Y-14492125D02*
X15860395Y-14482601D01*
X15860395Y-14482601D02*
X15822300Y-14482601D01*
X15822300Y-14482601D02*
X15803252Y-14492125D01*
X15803252Y-14492125D02*
X15793728Y-14501649D01*
X15793728Y-14501649D02*
X15784204Y-14520696D01*
X15784204Y-14520696D02*
X15784204Y-14568315D01*
X15784204Y-14568315D02*
X15793728Y-14587363D01*
X15793728Y-14587363D02*
X15803252Y-14596887D01*
X15803252Y-14596887D02*
X15822300Y-14606411D01*
X15822300Y-14606411D02*
X15860395Y-14606411D01*
X15860395Y-14606411D02*
X15879442Y-14596887D01*
X15879442Y-14596887D02*
X15888966Y-14587363D01*
X15888966Y-14587363D02*
X15898490Y-14568315D01*
X16022300Y-14482601D02*
X16041347Y-14482601D01*
X16041347Y-14482601D02*
X16060395Y-14492125D01*
X16060395Y-14492125D02*
X16069919Y-14501649D01*
X16069919Y-14501649D02*
X16079442Y-14520696D01*
X16079442Y-14520696D02*
X16088966Y-14558792D01*
X16088966Y-14558792D02*
X16088966Y-14606411D01*
X16088966Y-14606411D02*
X16079442Y-14644506D01*
X16079442Y-14644506D02*
X16069919Y-14663554D01*
X16069919Y-14663554D02*
X16060395Y-14673077D01*
X16060395Y-14673077D02*
X16041347Y-14682601D01*
X16041347Y-14682601D02*
X16022300Y-14682601D01*
X16022300Y-14682601D02*
X16003252Y-14673077D01*
X16003252Y-14673077D02*
X15993728Y-14663554D01*
X15993728Y-14663554D02*
X15984204Y-14644506D01*
X15984204Y-14644506D02*
X15974681Y-14606411D01*
X15974681Y-14606411D02*
X15974681Y-14558792D01*
X15974681Y-14558792D02*
X15984204Y-14520696D01*
X15984204Y-14520696D02*
X15993728Y-14501649D01*
X15993728Y-14501649D02*
X16003252Y-14492125D01*
X16003252Y-14492125D02*
X16022300Y-14482601D01*
X16212776Y-14482601D02*
X16231823Y-14482601D01*
X16231823Y-14482601D02*
X16250871Y-14492125D01*
X16250871Y-14492125D02*
X16260395Y-14501649D01*
X16260395Y-14501649D02*
X16269919Y-14520696D01*
X16269919Y-14520696D02*
X16279442Y-14558792D01*
X16279442Y-14558792D02*
X16279442Y-14606411D01*
X16279442Y-14606411D02*
X16269919Y-14644506D01*
X16269919Y-14644506D02*
X16260395Y-14663554D01*
X16260395Y-14663554D02*
X16250871Y-14673077D01*
X16250871Y-14673077D02*
X16231823Y-14682601D01*
X16231823Y-14682601D02*
X16212776Y-14682601D01*
X16212776Y-14682601D02*
X16193728Y-14673077D01*
X16193728Y-14673077D02*
X16184204Y-14663554D01*
X16184204Y-14663554D02*
X16174681Y-14644506D01*
X16174681Y-14644506D02*
X16165157Y-14606411D01*
X16165157Y-14606411D02*
X16165157Y-14558792D01*
X16165157Y-14558792D02*
X16174681Y-14520696D01*
X16174681Y-14520696D02*
X16184204Y-14501649D01*
X16184204Y-14501649D02*
X16193728Y-14492125D01*
X16193728Y-14492125D02*
X16212776Y-14482601D01*
X16365157Y-14682601D02*
X16365157Y-14549268D01*
X16365157Y-14568315D02*
X16374681Y-14558792D01*
X16374681Y-14558792D02*
X16393728Y-14549268D01*
X16393728Y-14549268D02*
X16422300Y-14549268D01*
X16422300Y-14549268D02*
X16441347Y-14558792D01*
X16441347Y-14558792D02*
X16450871Y-14577839D01*
X16450871Y-14577839D02*
X16450871Y-14682601D01*
X16450871Y-14577839D02*
X16460395Y-14558792D01*
X16460395Y-14558792D02*
X16479442Y-14549268D01*
X16479442Y-14549268D02*
X16508014Y-14549268D01*
X16508014Y-14549268D02*
X16527062Y-14558792D01*
X16527062Y-14558792D02*
X16536585Y-14577839D01*
X16536585Y-14577839D02*
X16536585Y-14682601D01*
X16631823Y-14682601D02*
X16631823Y-14549268D01*
X16631823Y-14568315D02*
X16641347Y-14558792D01*
X16641347Y-14558792D02*
X16660395Y-14549268D01*
X16660395Y-14549268D02*
X16688966Y-14549268D01*
X16688966Y-14549268D02*
X16708014Y-14558792D01*
X16708014Y-14558792D02*
X16717538Y-14577839D01*
X16717538Y-14577839D02*
X16717538Y-14682601D01*
X16717538Y-14577839D02*
X16727062Y-14558792D01*
X16727062Y-14558792D02*
X16746109Y-14549268D01*
X16746109Y-14549268D02*
X16774681Y-14549268D01*
X16774681Y-14549268D02*
X16793728Y-14558792D01*
X16793728Y-14558792D02*
X16803252Y-14577839D01*
X16803252Y-14577839D02*
X16803252Y-14682601D01*
X17161347Y-14473077D02*
X16989919Y-14730220D01*
X17386109Y-14482601D02*
X17405157Y-14482601D01*
X17405157Y-14482601D02*
X17424205Y-14492125D01*
X17424205Y-14492125D02*
X17433728Y-14501649D01*
X17433728Y-14501649D02*
X17443252Y-14520696D01*
X17443252Y-14520696D02*
X17452776Y-14558792D01*
X17452776Y-14558792D02*
X17452776Y-14606411D01*
X17452776Y-14606411D02*
X17443252Y-14644506D01*
X17443252Y-14644506D02*
X17433728Y-14663554D01*
X17433728Y-14663554D02*
X17424205Y-14673077D01*
X17424205Y-14673077D02*
X17405157Y-14682601D01*
X17405157Y-14682601D02*
X17386109Y-14682601D01*
X17386109Y-14682601D02*
X17367062Y-14673077D01*
X17367062Y-14673077D02*
X17357538Y-14663554D01*
X17357538Y-14663554D02*
X17348014Y-14644506D01*
X17348014Y-14644506D02*
X17338490Y-14606411D01*
X17338490Y-14606411D02*
X17338490Y-14558792D01*
X17338490Y-14558792D02*
X17348014Y-14520696D01*
X17348014Y-14520696D02*
X17357538Y-14501649D01*
X17357538Y-14501649D02*
X17367062Y-14492125D01*
X17367062Y-14492125D02*
X17386109Y-14482601D01*
X17538490Y-14663554D02*
X17548014Y-14673077D01*
X17548014Y-14673077D02*
X17538490Y-14682601D01*
X17538490Y-14682601D02*
X17528966Y-14673077D01*
X17528966Y-14673077D02*
X17538490Y-14663554D01*
X17538490Y-14663554D02*
X17538490Y-14682601D01*
X17671824Y-14482601D02*
X17690871Y-14482601D01*
X17690871Y-14482601D02*
X17709919Y-14492125D01*
X17709919Y-14492125D02*
X17719443Y-14501649D01*
X17719443Y-14501649D02*
X17728966Y-14520696D01*
X17728966Y-14520696D02*
X17738490Y-14558792D01*
X17738490Y-14558792D02*
X17738490Y-14606411D01*
X17738490Y-14606411D02*
X17728966Y-14644506D01*
X17728966Y-14644506D02*
X17719443Y-14663554D01*
X17719443Y-14663554D02*
X17709919Y-14673077D01*
X17709919Y-14673077D02*
X17690871Y-14682601D01*
X17690871Y-14682601D02*
X17671824Y-14682601D01*
X17671824Y-14682601D02*
X17652776Y-14673077D01*
X17652776Y-14673077D02*
X17643252Y-14663554D01*
X17643252Y-14663554D02*
X17633728Y-14644506D01*
X17633728Y-14644506D02*
X17624205Y-14606411D01*
X17624205Y-14606411D02*
X17624205Y-14558792D01*
X17624205Y-14558792D02*
X17633728Y-14520696D01*
X17633728Y-14520696D02*
X17643252Y-14501649D01*
X17643252Y-14501649D02*
X17652776Y-14492125D01*
X17652776Y-14492125D02*
X17671824Y-14482601D01*
X17805157Y-14482601D02*
X17928966Y-14482601D01*
X17928966Y-14482601D02*
X17862300Y-14558792D01*
X17862300Y-14558792D02*
X17890871Y-14558792D01*
X17890871Y-14558792D02*
X17909919Y-14568315D01*
X17909919Y-14568315D02*
X17919443Y-14577839D01*
X17919443Y-14577839D02*
X17928966Y-14596887D01*
X17928966Y-14596887D02*
X17928966Y-14644506D01*
X17928966Y-14644506D02*
X17919443Y-14663554D01*
X17919443Y-14663554D02*
X17909919Y-14673077D01*
X17909919Y-14673077D02*
X17890871Y-14682601D01*
X17890871Y-14682601D02*
X17833728Y-14682601D01*
X17833728Y-14682601D02*
X17814681Y-14673077D01*
X17814681Y-14673077D02*
X17805157Y-14663554D01*
X18109919Y-14482601D02*
X18014681Y-14482601D01*
X18014681Y-14482601D02*
X18005157Y-14577839D01*
X18005157Y-14577839D02*
X18014681Y-14568315D01*
X18014681Y-14568315D02*
X18033728Y-14558792D01*
X18033728Y-14558792D02*
X18081347Y-14558792D01*
X18081347Y-14558792D02*
X18100395Y-14568315D01*
X18100395Y-14568315D02*
X18109919Y-14577839D01*
X18109919Y-14577839D02*
X18119443Y-14596887D01*
X18119443Y-14596887D02*
X18119443Y-14644506D01*
X18119443Y-14644506D02*
X18109919Y-14663554D01*
X18109919Y-14663554D02*
X18100395Y-14673077D01*
X18100395Y-14673077D02*
X18081347Y-14682601D01*
X18081347Y-14682601D02*
X18033728Y-14682601D01*
X18033728Y-14682601D02*
X18014681Y-14673077D01*
X18014681Y-14673077D02*
X18005157Y-14663554D01*
X18290871Y-14549268D02*
X18290871Y-14682601D01*
X18243252Y-14473077D02*
X18195633Y-14615935D01*
X18195633Y-14615935D02*
X18319443Y-14615935D01*
X18386109Y-14482601D02*
X18386109Y-14520696D01*
X18462300Y-14482601D02*
X18462300Y-14520696D01*
X18725157Y-14758792D02*
X18715633Y-14749268D01*
X18715633Y-14749268D02*
X18696586Y-14720696D01*
X18696586Y-14720696D02*
X18687062Y-14701649D01*
X18687062Y-14701649D02*
X18677538Y-14673077D01*
X18677538Y-14673077D02*
X18668014Y-14625458D01*
X18668014Y-14625458D02*
X18668014Y-14587363D01*
X18668014Y-14587363D02*
X18677538Y-14539744D01*
X18677538Y-14539744D02*
X18687062Y-14511173D01*
X18687062Y-14511173D02*
X18696586Y-14492125D01*
X18696586Y-14492125D02*
X18715633Y-14463554D01*
X18715633Y-14463554D02*
X18725157Y-14454030D01*
X18829919Y-14568315D02*
X18810871Y-14558792D01*
X18810871Y-14558792D02*
X18801347Y-14549268D01*
X18801347Y-14549268D02*
X18791824Y-14530220D01*
X18791824Y-14530220D02*
X18791824Y-14520696D01*
X18791824Y-14520696D02*
X18801347Y-14501649D01*
X18801347Y-14501649D02*
X18810871Y-14492125D01*
X18810871Y-14492125D02*
X18829919Y-14482601D01*
X18829919Y-14482601D02*
X18868014Y-14482601D01*
X18868014Y-14482601D02*
X18887062Y-14492125D01*
X18887062Y-14492125D02*
X18896586Y-14501649D01*
X18896586Y-14501649D02*
X18906109Y-14520696D01*
X18906109Y-14520696D02*
X18906109Y-14530220D01*
X18906109Y-14530220D02*
X18896586Y-14549268D01*
X18896586Y-14549268D02*
X18887062Y-14558792D01*
X18887062Y-14558792D02*
X18868014Y-14568315D01*
X18868014Y-14568315D02*
X18829919Y-14568315D01*
X18829919Y-14568315D02*
X18810871Y-14577839D01*
X18810871Y-14577839D02*
X18801347Y-14587363D01*
X18801347Y-14587363D02*
X18791824Y-14606411D01*
X18791824Y-14606411D02*
X18791824Y-14644506D01*
X18791824Y-14644506D02*
X18801347Y-14663554D01*
X18801347Y-14663554D02*
X18810871Y-14673077D01*
X18810871Y-14673077D02*
X18829919Y-14682601D01*
X18829919Y-14682601D02*
X18868014Y-14682601D01*
X18868014Y-14682601D02*
X18887062Y-14673077D01*
X18887062Y-14673077D02*
X18896586Y-14663554D01*
X18896586Y-14663554D02*
X18906109Y-14644506D01*
X18906109Y-14644506D02*
X18906109Y-14606411D01*
X18906109Y-14606411D02*
X18896586Y-14587363D01*
X18896586Y-14587363D02*
X18887062Y-14577839D01*
X18887062Y-14577839D02*
X18868014Y-14568315D01*
X19111824Y-14682601D02*
X19111824Y-14482601D01*
X19197538Y-14682601D02*
X19197538Y-14577839D01*
X19197538Y-14577839D02*
X19188014Y-14558792D01*
X19188014Y-14558792D02*
X19168967Y-14549268D01*
X19168967Y-14549268D02*
X19140395Y-14549268D01*
X19140395Y-14549268D02*
X19121347Y-14558792D01*
X19121347Y-14558792D02*
X19111824Y-14568315D01*
X19321347Y-14682601D02*
X19302300Y-14673077D01*
X19302300Y-14673077D02*
X19292776Y-14663554D01*
X19292776Y-14663554D02*
X19283252Y-14644506D01*
X19283252Y-14644506D02*
X19283252Y-14587363D01*
X19283252Y-14587363D02*
X19292776Y-14568315D01*
X19292776Y-14568315D02*
X19302300Y-14558792D01*
X19302300Y-14558792D02*
X19321347Y-14549268D01*
X19321347Y-14549268D02*
X19349919Y-14549268D01*
X19349919Y-14549268D02*
X19368967Y-14558792D01*
X19368967Y-14558792D02*
X19378490Y-14568315D01*
X19378490Y-14568315D02*
X19388014Y-14587363D01*
X19388014Y-14587363D02*
X19388014Y-14644506D01*
X19388014Y-14644506D02*
X19378490Y-14663554D01*
X19378490Y-14663554D02*
X19368967Y-14673077D01*
X19368967Y-14673077D02*
X19349919Y-14682601D01*
X19349919Y-14682601D02*
X19321347Y-14682601D01*
X19502300Y-14682601D02*
X19483252Y-14673077D01*
X19483252Y-14673077D02*
X19473728Y-14654030D01*
X19473728Y-14654030D02*
X19473728Y-14482601D01*
X19654681Y-14673077D02*
X19635633Y-14682601D01*
X19635633Y-14682601D02*
X19597538Y-14682601D01*
X19597538Y-14682601D02*
X19578490Y-14673077D01*
X19578490Y-14673077D02*
X19568967Y-14654030D01*
X19568967Y-14654030D02*
X19568967Y-14577839D01*
X19568967Y-14577839D02*
X19578490Y-14558792D01*
X19578490Y-14558792D02*
X19597538Y-14549268D01*
X19597538Y-14549268D02*
X19635633Y-14549268D01*
X19635633Y-14549268D02*
X19654681Y-14558792D01*
X19654681Y-14558792D02*
X19664205Y-14577839D01*
X19664205Y-14577839D02*
X19664205Y-14596887D01*
X19664205Y-14596887D02*
X19568967Y-14615935D01*
X19740395Y-14673077D02*
X19759443Y-14682601D01*
X19759443Y-14682601D02*
X19797538Y-14682601D01*
X19797538Y-14682601D02*
X19816586Y-14673077D01*
X19816586Y-14673077D02*
X19826109Y-14654030D01*
X19826109Y-14654030D02*
X19826109Y-14644506D01*
X19826109Y-14644506D02*
X19816586Y-14625458D01*
X19816586Y-14625458D02*
X19797538Y-14615935D01*
X19797538Y-14615935D02*
X19768967Y-14615935D01*
X19768967Y-14615935D02*
X19749919Y-14606411D01*
X19749919Y-14606411D02*
X19740395Y-14587363D01*
X19740395Y-14587363D02*
X19740395Y-14577839D01*
X19740395Y-14577839D02*
X19749919Y-14558792D01*
X19749919Y-14558792D02*
X19768967Y-14549268D01*
X19768967Y-14549268D02*
X19797538Y-14549268D01*
X19797538Y-14549268D02*
X19816586Y-14558792D01*
X19892776Y-14758792D02*
X19902300Y-14749268D01*
X19902300Y-14749268D02*
X19921348Y-14720696D01*
X19921348Y-14720696D02*
X19930871Y-14701649D01*
X19930871Y-14701649D02*
X19940395Y-14673077D01*
X19940395Y-14673077D02*
X19949919Y-14625458D01*
X19949919Y-14625458D02*
X19949919Y-14587363D01*
X19949919Y-14587363D02*
X19940395Y-14539744D01*
X19940395Y-14539744D02*
X19930871Y-14511173D01*
X19930871Y-14511173D02*
X19921348Y-14492125D01*
X19921348Y-14492125D02*
X19902300Y-14463554D01*
X19902300Y-14463554D02*
X19892776Y-14454030D01*
D10*
X15160395Y-14823125D02*
X15260395Y-14923125D01*
X15260395Y-14823125D02*
X15160395Y-14923125D01*
X15210395Y-14823125D02*
X15210395Y-14923125D01*
X15160395Y-14873125D02*
X15260395Y-14873125D01*
D11*
X15612776Y-14946601D02*
X15498490Y-14946601D01*
X15555633Y-14946601D02*
X15555633Y-14746601D01*
X15555633Y-14746601D02*
X15536585Y-14775173D01*
X15536585Y-14775173D02*
X15517538Y-14794220D01*
X15517538Y-14794220D02*
X15498490Y-14803744D01*
X15698490Y-14927554D02*
X15708014Y-14937077D01*
X15708014Y-14937077D02*
X15698490Y-14946601D01*
X15698490Y-14946601D02*
X15688966Y-14937077D01*
X15688966Y-14937077D02*
X15698490Y-14927554D01*
X15698490Y-14927554D02*
X15698490Y-14946601D01*
X15831823Y-14746601D02*
X15850871Y-14746601D01*
X15850871Y-14746601D02*
X15869919Y-14756125D01*
X15869919Y-14756125D02*
X15879442Y-14765649D01*
X15879442Y-14765649D02*
X15888966Y-14784696D01*
X15888966Y-14784696D02*
X15898490Y-14822792D01*
X15898490Y-14822792D02*
X15898490Y-14870411D01*
X15898490Y-14870411D02*
X15888966Y-14908506D01*
X15888966Y-14908506D02*
X15879442Y-14927554D01*
X15879442Y-14927554D02*
X15869919Y-14937077D01*
X15869919Y-14937077D02*
X15850871Y-14946601D01*
X15850871Y-14946601D02*
X15831823Y-14946601D01*
X15831823Y-14946601D02*
X15812776Y-14937077D01*
X15812776Y-14937077D02*
X15803252Y-14927554D01*
X15803252Y-14927554D02*
X15793728Y-14908506D01*
X15793728Y-14908506D02*
X15784204Y-14870411D01*
X15784204Y-14870411D02*
X15784204Y-14822792D01*
X15784204Y-14822792D02*
X15793728Y-14784696D01*
X15793728Y-14784696D02*
X15803252Y-14765649D01*
X15803252Y-14765649D02*
X15812776Y-14756125D01*
X15812776Y-14756125D02*
X15831823Y-14746601D01*
X16022300Y-14746601D02*
X16041347Y-14746601D01*
X16041347Y-14746601D02*
X16060395Y-14756125D01*
X16060395Y-14756125D02*
X16069919Y-14765649D01*
X16069919Y-14765649D02*
X16079442Y-14784696D01*
X16079442Y-14784696D02*
X16088966Y-14822792D01*
X16088966Y-14822792D02*
X16088966Y-14870411D01*
X16088966Y-14870411D02*
X16079442Y-14908506D01*
X16079442Y-14908506D02*
X16069919Y-14927554D01*
X16069919Y-14927554D02*
X16060395Y-14937077D01*
X16060395Y-14937077D02*
X16041347Y-14946601D01*
X16041347Y-14946601D02*
X16022300Y-14946601D01*
X16022300Y-14946601D02*
X16003252Y-14937077D01*
X16003252Y-14937077D02*
X15993728Y-14927554D01*
X15993728Y-14927554D02*
X15984204Y-14908506D01*
X15984204Y-14908506D02*
X15974681Y-14870411D01*
X15974681Y-14870411D02*
X15974681Y-14822792D01*
X15974681Y-14822792D02*
X15984204Y-14784696D01*
X15984204Y-14784696D02*
X15993728Y-14765649D01*
X15993728Y-14765649D02*
X16003252Y-14756125D01*
X16003252Y-14756125D02*
X16022300Y-14746601D01*
X16212776Y-14746601D02*
X16231823Y-14746601D01*
X16231823Y-14746601D02*
X16250871Y-14756125D01*
X16250871Y-14756125D02*
X16260395Y-14765649D01*
X16260395Y-14765649D02*
X16269919Y-14784696D01*
X16269919Y-14784696D02*
X16279442Y-14822792D01*
X16279442Y-14822792D02*
X16279442Y-14870411D01*
X16279442Y-14870411D02*
X16269919Y-14908506D01*
X16269919Y-14908506D02*
X16260395Y-14927554D01*
X16260395Y-14927554D02*
X16250871Y-14937077D01*
X16250871Y-14937077D02*
X16231823Y-14946601D01*
X16231823Y-14946601D02*
X16212776Y-14946601D01*
X16212776Y-14946601D02*
X16193728Y-14937077D01*
X16193728Y-14937077D02*
X16184204Y-14927554D01*
X16184204Y-14927554D02*
X16174681Y-14908506D01*
X16174681Y-14908506D02*
X16165157Y-14870411D01*
X16165157Y-14870411D02*
X16165157Y-14822792D01*
X16165157Y-14822792D02*
X16174681Y-14784696D01*
X16174681Y-14784696D02*
X16184204Y-14765649D01*
X16184204Y-14765649D02*
X16193728Y-14756125D01*
X16193728Y-14756125D02*
X16212776Y-14746601D01*
X16365157Y-14946601D02*
X16365157Y-14813268D01*
X16365157Y-14832315D02*
X16374681Y-14822792D01*
X16374681Y-14822792D02*
X16393728Y-14813268D01*
X16393728Y-14813268D02*
X16422300Y-14813268D01*
X16422300Y-14813268D02*
X16441347Y-14822792D01*
X16441347Y-14822792D02*
X16450871Y-14841839D01*
X16450871Y-14841839D02*
X16450871Y-14946601D01*
X16450871Y-14841839D02*
X16460395Y-14822792D01*
X16460395Y-14822792D02*
X16479442Y-14813268D01*
X16479442Y-14813268D02*
X16508014Y-14813268D01*
X16508014Y-14813268D02*
X16527062Y-14822792D01*
X16527062Y-14822792D02*
X16536585Y-14841839D01*
X16536585Y-14841839D02*
X16536585Y-14946601D01*
X16631823Y-14946601D02*
X16631823Y-14813268D01*
X16631823Y-14832315D02*
X16641347Y-14822792D01*
X16641347Y-14822792D02*
X16660395Y-14813268D01*
X16660395Y-14813268D02*
X16688966Y-14813268D01*
X16688966Y-14813268D02*
X16708014Y-14822792D01*
X16708014Y-14822792D02*
X16717538Y-14841839D01*
X16717538Y-14841839D02*
X16717538Y-14946601D01*
X16717538Y-14841839D02*
X16727062Y-14822792D01*
X16727062Y-14822792D02*
X16746109Y-14813268D01*
X16746109Y-14813268D02*
X16774681Y-14813268D01*
X16774681Y-14813268D02*
X16793728Y-14822792D01*
X16793728Y-14822792D02*
X16803252Y-14841839D01*
X16803252Y-14841839D02*
X16803252Y-14946601D01*
X17161347Y-14737077D02*
X16989919Y-14994220D01*
X17386109Y-14746601D02*
X17405157Y-14746601D01*
X17405157Y-14746601D02*
X17424205Y-14756125D01*
X17424205Y-14756125D02*
X17433728Y-14765649D01*
X17433728Y-14765649D02*
X17443252Y-14784696D01*
X17443252Y-14784696D02*
X17452776Y-14822792D01*
X17452776Y-14822792D02*
X17452776Y-14870411D01*
X17452776Y-14870411D02*
X17443252Y-14908506D01*
X17443252Y-14908506D02*
X17433728Y-14927554D01*
X17433728Y-14927554D02*
X17424205Y-14937077D01*
X17424205Y-14937077D02*
X17405157Y-14946601D01*
X17405157Y-14946601D02*
X17386109Y-14946601D01*
X17386109Y-14946601D02*
X17367062Y-14937077D01*
X17367062Y-14937077D02*
X17357538Y-14927554D01*
X17357538Y-14927554D02*
X17348014Y-14908506D01*
X17348014Y-14908506D02*
X17338490Y-14870411D01*
X17338490Y-14870411D02*
X17338490Y-14822792D01*
X17338490Y-14822792D02*
X17348014Y-14784696D01*
X17348014Y-14784696D02*
X17357538Y-14765649D01*
X17357538Y-14765649D02*
X17367062Y-14756125D01*
X17367062Y-14756125D02*
X17386109Y-14746601D01*
X17538490Y-14927554D02*
X17548014Y-14937077D01*
X17548014Y-14937077D02*
X17538490Y-14946601D01*
X17538490Y-14946601D02*
X17528966Y-14937077D01*
X17528966Y-14937077D02*
X17538490Y-14927554D01*
X17538490Y-14927554D02*
X17538490Y-14946601D01*
X17671824Y-14746601D02*
X17690871Y-14746601D01*
X17690871Y-14746601D02*
X17709919Y-14756125D01*
X17709919Y-14756125D02*
X17719443Y-14765649D01*
X17719443Y-14765649D02*
X17728966Y-14784696D01*
X17728966Y-14784696D02*
X17738490Y-14822792D01*
X17738490Y-14822792D02*
X17738490Y-14870411D01*
X17738490Y-14870411D02*
X17728966Y-14908506D01*
X17728966Y-14908506D02*
X17719443Y-14927554D01*
X17719443Y-14927554D02*
X17709919Y-14937077D01*
X17709919Y-14937077D02*
X17690871Y-14946601D01*
X17690871Y-14946601D02*
X17671824Y-14946601D01*
X17671824Y-14946601D02*
X17652776Y-14937077D01*
X17652776Y-14937077D02*
X17643252Y-14927554D01*
X17643252Y-14927554D02*
X17633728Y-14908506D01*
X17633728Y-14908506D02*
X17624205Y-14870411D01*
X17624205Y-14870411D02*
X17624205Y-14822792D01*
X17624205Y-14822792D02*
X17633728Y-14784696D01*
X17633728Y-14784696D02*
X17643252Y-14765649D01*
X17643252Y-14765649D02*
X17652776Y-14756125D01*
X17652776Y-14756125D02*
X17671824Y-14746601D01*
X17805157Y-14746601D02*
X17928966Y-14746601D01*
X17928966Y-14746601D02*
X17862300Y-14822792D01*
X17862300Y-14822792D02*
X17890871Y-14822792D01*
X17890871Y-14822792D02*
X17909919Y-14832315D01*
X17909919Y-14832315D02*
X17919443Y-14841839D01*
X17919443Y-14841839D02*
X17928966Y-14860887D01*
X17928966Y-14860887D02*
X17928966Y-14908506D01*
X17928966Y-14908506D02*
X17919443Y-14927554D01*
X17919443Y-14927554D02*
X17909919Y-14937077D01*
X17909919Y-14937077D02*
X17890871Y-14946601D01*
X17890871Y-14946601D02*
X17833728Y-14946601D01*
X17833728Y-14946601D02*
X17814681Y-14937077D01*
X17814681Y-14937077D02*
X17805157Y-14927554D01*
X18024205Y-14946601D02*
X18062300Y-14946601D01*
X18062300Y-14946601D02*
X18081347Y-14937077D01*
X18081347Y-14937077D02*
X18090871Y-14927554D01*
X18090871Y-14927554D02*
X18109919Y-14898982D01*
X18109919Y-14898982D02*
X18119443Y-14860887D01*
X18119443Y-14860887D02*
X18119443Y-14784696D01*
X18119443Y-14784696D02*
X18109919Y-14765649D01*
X18109919Y-14765649D02*
X18100395Y-14756125D01*
X18100395Y-14756125D02*
X18081347Y-14746601D01*
X18081347Y-14746601D02*
X18043252Y-14746601D01*
X18043252Y-14746601D02*
X18024205Y-14756125D01*
X18024205Y-14756125D02*
X18014681Y-14765649D01*
X18014681Y-14765649D02*
X18005157Y-14784696D01*
X18005157Y-14784696D02*
X18005157Y-14832315D01*
X18005157Y-14832315D02*
X18014681Y-14851363D01*
X18014681Y-14851363D02*
X18024205Y-14860887D01*
X18024205Y-14860887D02*
X18043252Y-14870411D01*
X18043252Y-14870411D02*
X18081347Y-14870411D01*
X18081347Y-14870411D02*
X18100395Y-14860887D01*
X18100395Y-14860887D02*
X18109919Y-14851363D01*
X18109919Y-14851363D02*
X18119443Y-14832315D01*
X18290871Y-14813268D02*
X18290871Y-14946601D01*
X18243252Y-14737077D02*
X18195633Y-14879935D01*
X18195633Y-14879935D02*
X18319443Y-14879935D01*
X18386109Y-14746601D02*
X18386109Y-14784696D01*
X18462300Y-14746601D02*
X18462300Y-14784696D01*
X18725157Y-15022792D02*
X18715633Y-15013268D01*
X18715633Y-15013268D02*
X18696586Y-14984696D01*
X18696586Y-14984696D02*
X18687062Y-14965649D01*
X18687062Y-14965649D02*
X18677538Y-14937077D01*
X18677538Y-14937077D02*
X18668014Y-14889458D01*
X18668014Y-14889458D02*
X18668014Y-14851363D01*
X18668014Y-14851363D02*
X18677538Y-14803744D01*
X18677538Y-14803744D02*
X18687062Y-14775173D01*
X18687062Y-14775173D02*
X18696586Y-14756125D01*
X18696586Y-14756125D02*
X18715633Y-14727554D01*
X18715633Y-14727554D02*
X18725157Y-14718030D01*
X18829919Y-14832315D02*
X18810871Y-14822792D01*
X18810871Y-14822792D02*
X18801347Y-14813268D01*
X18801347Y-14813268D02*
X18791824Y-14794220D01*
X18791824Y-14794220D02*
X18791824Y-14784696D01*
X18791824Y-14784696D02*
X18801347Y-14765649D01*
X18801347Y-14765649D02*
X18810871Y-14756125D01*
X18810871Y-14756125D02*
X18829919Y-14746601D01*
X18829919Y-14746601D02*
X18868014Y-14746601D01*
X18868014Y-14746601D02*
X18887062Y-14756125D01*
X18887062Y-14756125D02*
X18896586Y-14765649D01*
X18896586Y-14765649D02*
X18906109Y-14784696D01*
X18906109Y-14784696D02*
X18906109Y-14794220D01*
X18906109Y-14794220D02*
X18896586Y-14813268D01*
X18896586Y-14813268D02*
X18887062Y-14822792D01*
X18887062Y-14822792D02*
X18868014Y-14832315D01*
X18868014Y-14832315D02*
X18829919Y-14832315D01*
X18829919Y-14832315D02*
X18810871Y-14841839D01*
X18810871Y-14841839D02*
X18801347Y-14851363D01*
X18801347Y-14851363D02*
X18791824Y-14870411D01*
X18791824Y-14870411D02*
X18791824Y-14908506D01*
X18791824Y-14908506D02*
X18801347Y-14927554D01*
X18801347Y-14927554D02*
X18810871Y-14937077D01*
X18810871Y-14937077D02*
X18829919Y-14946601D01*
X18829919Y-14946601D02*
X18868014Y-14946601D01*
X18868014Y-14946601D02*
X18887062Y-14937077D01*
X18887062Y-14937077D02*
X18896586Y-14927554D01*
X18896586Y-14927554D02*
X18906109Y-14908506D01*
X18906109Y-14908506D02*
X18906109Y-14870411D01*
X18906109Y-14870411D02*
X18896586Y-14851363D01*
X18896586Y-14851363D02*
X18887062Y-14841839D01*
X18887062Y-14841839D02*
X18868014Y-14832315D01*
X19111824Y-14946601D02*
X19111824Y-14746601D01*
X19197538Y-14946601D02*
X19197538Y-14841839D01*
X19197538Y-14841839D02*
X19188014Y-14822792D01*
X19188014Y-14822792D02*
X19168967Y-14813268D01*
X19168967Y-14813268D02*
X19140395Y-14813268D01*
X19140395Y-14813268D02*
X19121347Y-14822792D01*
X19121347Y-14822792D02*
X19111824Y-14832315D01*
X19321347Y-14946601D02*
X19302300Y-14937077D01*
X19302300Y-14937077D02*
X19292776Y-14927554D01*
X19292776Y-14927554D02*
X19283252Y-14908506D01*
X19283252Y-14908506D02*
X19283252Y-14851363D01*
X19283252Y-14851363D02*
X19292776Y-14832315D01*
X19292776Y-14832315D02*
X19302300Y-14822792D01*
X19302300Y-14822792D02*
X19321347Y-14813268D01*
X19321347Y-14813268D02*
X19349919Y-14813268D01*
X19349919Y-14813268D02*
X19368967Y-14822792D01*
X19368967Y-14822792D02*
X19378490Y-14832315D01*
X19378490Y-14832315D02*
X19388014Y-14851363D01*
X19388014Y-14851363D02*
X19388014Y-14908506D01*
X19388014Y-14908506D02*
X19378490Y-14927554D01*
X19378490Y-14927554D02*
X19368967Y-14937077D01*
X19368967Y-14937077D02*
X19349919Y-14946601D01*
X19349919Y-14946601D02*
X19321347Y-14946601D01*
X19502300Y-14946601D02*
X19483252Y-14937077D01*
X19483252Y-14937077D02*
X19473728Y-14918030D01*
X19473728Y-14918030D02*
X19473728Y-14746601D01*
X19654681Y-14937077D02*
X19635633Y-14946601D01*
X19635633Y-14946601D02*
X19597538Y-14946601D01*
X19597538Y-14946601D02*
X19578490Y-14937077D01*
X19578490Y-14937077D02*
X19568967Y-14918030D01*
X19568967Y-14918030D02*
X19568967Y-14841839D01*
X19568967Y-14841839D02*
X19578490Y-14822792D01*
X19578490Y-14822792D02*
X19597538Y-14813268D01*
X19597538Y-14813268D02*
X19635633Y-14813268D01*
X19635633Y-14813268D02*
X19654681Y-14822792D01*
X19654681Y-14822792D02*
X19664205Y-14841839D01*
X19664205Y-14841839D02*
X19664205Y-14860887D01*
X19664205Y-14860887D02*
X19568967Y-14879935D01*
X19740395Y-14937077D02*
X19759443Y-14946601D01*
X19759443Y-14946601D02*
X19797538Y-14946601D01*
X19797538Y-14946601D02*
X19816586Y-14937077D01*
X19816586Y-14937077D02*
X19826109Y-14918030D01*
X19826109Y-14918030D02*
X19826109Y-14908506D01*
X19826109Y-14908506D02*
X19816586Y-14889458D01*
X19816586Y-14889458D02*
X19797538Y-14879935D01*
X19797538Y-14879935D02*
X19768967Y-14879935D01*
X19768967Y-14879935D02*
X19749919Y-14870411D01*
X19749919Y-14870411D02*
X19740395Y-14851363D01*
X19740395Y-14851363D02*
X19740395Y-14841839D01*
X19740395Y-14841839D02*
X19749919Y-14822792D01*
X19749919Y-14822792D02*
X19768967Y-14813268D01*
X19768967Y-14813268D02*
X19797538Y-14813268D01*
X19797538Y-14813268D02*
X19816586Y-14822792D01*
X19892776Y-15022792D02*
X19902300Y-15013268D01*
X19902300Y-15013268D02*
X19921348Y-14984696D01*
X19921348Y-14984696D02*
X19930871Y-14965649D01*
X19930871Y-14965649D02*
X19940395Y-14937077D01*
X19940395Y-14937077D02*
X19949919Y-14889458D01*
X19949919Y-14889458D02*
X19949919Y-14851363D01*
X19949919Y-14851363D02*
X19940395Y-14803744D01*
X19940395Y-14803744D02*
X19930871Y-14775173D01*
X19930871Y-14775173D02*
X19921348Y-14756125D01*
X19921348Y-14756125D02*
X19902300Y-14727554D01*
X19902300Y-14727554D02*
X19892776Y-14718030D01*
D18*
X15150395Y-15082125D02*
X15260395Y-15192125D01*
X15260395Y-15082125D02*
X15150395Y-15192125D01*
X15244286Y-15176016D02*
X15244286Y-15098234D01*
X15166504Y-15098234D01*
X15166504Y-15176016D01*
X15244286Y-15176016D01*
D11*
X15612776Y-15210601D02*
X15498490Y-15210601D01*
X15555633Y-15210601D02*
X15555633Y-15010601D01*
X15555633Y-15010601D02*
X15536585Y-15039173D01*
X15536585Y-15039173D02*
X15517538Y-15058220D01*
X15517538Y-15058220D02*
X15498490Y-15067744D01*
X15698490Y-15191554D02*
X15708014Y-15201077D01*
X15708014Y-15201077D02*
X15698490Y-15210601D01*
X15698490Y-15210601D02*
X15688966Y-15201077D01*
X15688966Y-15201077D02*
X15698490Y-15191554D01*
X15698490Y-15191554D02*
X15698490Y-15210601D01*
X15898490Y-15210601D02*
X15784204Y-15210601D01*
X15841347Y-15210601D02*
X15841347Y-15010601D01*
X15841347Y-15010601D02*
X15822300Y-15039173D01*
X15822300Y-15039173D02*
X15803252Y-15058220D01*
X15803252Y-15058220D02*
X15784204Y-15067744D01*
X16022300Y-15010601D02*
X16041347Y-15010601D01*
X16041347Y-15010601D02*
X16060395Y-15020125D01*
X16060395Y-15020125D02*
X16069919Y-15029649D01*
X16069919Y-15029649D02*
X16079442Y-15048696D01*
X16079442Y-15048696D02*
X16088966Y-15086792D01*
X16088966Y-15086792D02*
X16088966Y-15134411D01*
X16088966Y-15134411D02*
X16079442Y-15172506D01*
X16079442Y-15172506D02*
X16069919Y-15191554D01*
X16069919Y-15191554D02*
X16060395Y-15201077D01*
X16060395Y-15201077D02*
X16041347Y-15210601D01*
X16041347Y-15210601D02*
X16022300Y-15210601D01*
X16022300Y-15210601D02*
X16003252Y-15201077D01*
X16003252Y-15201077D02*
X15993728Y-15191554D01*
X15993728Y-15191554D02*
X15984204Y-15172506D01*
X15984204Y-15172506D02*
X15974681Y-15134411D01*
X15974681Y-15134411D02*
X15974681Y-15086792D01*
X15974681Y-15086792D02*
X15984204Y-15048696D01*
X15984204Y-15048696D02*
X15993728Y-15029649D01*
X15993728Y-15029649D02*
X16003252Y-15020125D01*
X16003252Y-15020125D02*
X16022300Y-15010601D01*
X16212776Y-15010601D02*
X16231823Y-15010601D01*
X16231823Y-15010601D02*
X16250871Y-15020125D01*
X16250871Y-15020125D02*
X16260395Y-15029649D01*
X16260395Y-15029649D02*
X16269919Y-15048696D01*
X16269919Y-15048696D02*
X16279442Y-15086792D01*
X16279442Y-15086792D02*
X16279442Y-15134411D01*
X16279442Y-15134411D02*
X16269919Y-15172506D01*
X16269919Y-15172506D02*
X16260395Y-15191554D01*
X16260395Y-15191554D02*
X16250871Y-15201077D01*
X16250871Y-15201077D02*
X16231823Y-15210601D01*
X16231823Y-15210601D02*
X16212776Y-15210601D01*
X16212776Y-15210601D02*
X16193728Y-15201077D01*
X16193728Y-15201077D02*
X16184204Y-15191554D01*
X16184204Y-15191554D02*
X16174681Y-15172506D01*
X16174681Y-15172506D02*
X16165157Y-15134411D01*
X16165157Y-15134411D02*
X16165157Y-15086792D01*
X16165157Y-15086792D02*
X16174681Y-15048696D01*
X16174681Y-15048696D02*
X16184204Y-15029649D01*
X16184204Y-15029649D02*
X16193728Y-15020125D01*
X16193728Y-15020125D02*
X16212776Y-15010601D01*
X16365157Y-15210601D02*
X16365157Y-15077268D01*
X16365157Y-15096315D02*
X16374681Y-15086792D01*
X16374681Y-15086792D02*
X16393728Y-15077268D01*
X16393728Y-15077268D02*
X16422300Y-15077268D01*
X16422300Y-15077268D02*
X16441347Y-15086792D01*
X16441347Y-15086792D02*
X16450871Y-15105839D01*
X16450871Y-15105839D02*
X16450871Y-15210601D01*
X16450871Y-15105839D02*
X16460395Y-15086792D01*
X16460395Y-15086792D02*
X16479442Y-15077268D01*
X16479442Y-15077268D02*
X16508014Y-15077268D01*
X16508014Y-15077268D02*
X16527062Y-15086792D01*
X16527062Y-15086792D02*
X16536585Y-15105839D01*
X16536585Y-15105839D02*
X16536585Y-15210601D01*
X16631823Y-15210601D02*
X16631823Y-15077268D01*
X16631823Y-15096315D02*
X16641347Y-15086792D01*
X16641347Y-15086792D02*
X16660395Y-15077268D01*
X16660395Y-15077268D02*
X16688966Y-15077268D01*
X16688966Y-15077268D02*
X16708014Y-15086792D01*
X16708014Y-15086792D02*
X16717538Y-15105839D01*
X16717538Y-15105839D02*
X16717538Y-15210601D01*
X16717538Y-15105839D02*
X16727062Y-15086792D01*
X16727062Y-15086792D02*
X16746109Y-15077268D01*
X16746109Y-15077268D02*
X16774681Y-15077268D01*
X16774681Y-15077268D02*
X16793728Y-15086792D01*
X16793728Y-15086792D02*
X16803252Y-15105839D01*
X16803252Y-15105839D02*
X16803252Y-15210601D01*
X17161347Y-15001077D02*
X16989919Y-15258220D01*
X17386109Y-15010601D02*
X17405157Y-15010601D01*
X17405157Y-15010601D02*
X17424205Y-15020125D01*
X17424205Y-15020125D02*
X17433728Y-15029649D01*
X17433728Y-15029649D02*
X17443252Y-15048696D01*
X17443252Y-15048696D02*
X17452776Y-15086792D01*
X17452776Y-15086792D02*
X17452776Y-15134411D01*
X17452776Y-15134411D02*
X17443252Y-15172506D01*
X17443252Y-15172506D02*
X17433728Y-15191554D01*
X17433728Y-15191554D02*
X17424205Y-15201077D01*
X17424205Y-15201077D02*
X17405157Y-15210601D01*
X17405157Y-15210601D02*
X17386109Y-15210601D01*
X17386109Y-15210601D02*
X17367062Y-15201077D01*
X17367062Y-15201077D02*
X17357538Y-15191554D01*
X17357538Y-15191554D02*
X17348014Y-15172506D01*
X17348014Y-15172506D02*
X17338490Y-15134411D01*
X17338490Y-15134411D02*
X17338490Y-15086792D01*
X17338490Y-15086792D02*
X17348014Y-15048696D01*
X17348014Y-15048696D02*
X17357538Y-15029649D01*
X17357538Y-15029649D02*
X17367062Y-15020125D01*
X17367062Y-15020125D02*
X17386109Y-15010601D01*
X17538490Y-15191554D02*
X17548014Y-15201077D01*
X17548014Y-15201077D02*
X17538490Y-15210601D01*
X17538490Y-15210601D02*
X17528966Y-15201077D01*
X17528966Y-15201077D02*
X17538490Y-15191554D01*
X17538490Y-15191554D02*
X17538490Y-15210601D01*
X17671824Y-15010601D02*
X17690871Y-15010601D01*
X17690871Y-15010601D02*
X17709919Y-15020125D01*
X17709919Y-15020125D02*
X17719443Y-15029649D01*
X17719443Y-15029649D02*
X17728966Y-15048696D01*
X17728966Y-15048696D02*
X17738490Y-15086792D01*
X17738490Y-15086792D02*
X17738490Y-15134411D01*
X17738490Y-15134411D02*
X17728966Y-15172506D01*
X17728966Y-15172506D02*
X17719443Y-15191554D01*
X17719443Y-15191554D02*
X17709919Y-15201077D01*
X17709919Y-15201077D02*
X17690871Y-15210601D01*
X17690871Y-15210601D02*
X17671824Y-15210601D01*
X17671824Y-15210601D02*
X17652776Y-15201077D01*
X17652776Y-15201077D02*
X17643252Y-15191554D01*
X17643252Y-15191554D02*
X17633728Y-15172506D01*
X17633728Y-15172506D02*
X17624205Y-15134411D01*
X17624205Y-15134411D02*
X17624205Y-15086792D01*
X17624205Y-15086792D02*
X17633728Y-15048696D01*
X17633728Y-15048696D02*
X17643252Y-15029649D01*
X17643252Y-15029649D02*
X17652776Y-15020125D01*
X17652776Y-15020125D02*
X17671824Y-15010601D01*
X17909919Y-15077268D02*
X17909919Y-15210601D01*
X17862300Y-15001077D02*
X17814681Y-15143935D01*
X17814681Y-15143935D02*
X17938490Y-15143935D01*
X17995633Y-15010601D02*
X18119443Y-15010601D01*
X18119443Y-15010601D02*
X18052776Y-15086792D01*
X18052776Y-15086792D02*
X18081347Y-15086792D01*
X18081347Y-15086792D02*
X18100395Y-15096315D01*
X18100395Y-15096315D02*
X18109919Y-15105839D01*
X18109919Y-15105839D02*
X18119443Y-15124887D01*
X18119443Y-15124887D02*
X18119443Y-15172506D01*
X18119443Y-15172506D02*
X18109919Y-15191554D01*
X18109919Y-15191554D02*
X18100395Y-15201077D01*
X18100395Y-15201077D02*
X18081347Y-15210601D01*
X18081347Y-15210601D02*
X18024205Y-15210601D01*
X18024205Y-15210601D02*
X18005157Y-15201077D01*
X18005157Y-15201077D02*
X17995633Y-15191554D01*
X18186109Y-15010601D02*
X18309919Y-15010601D01*
X18309919Y-15010601D02*
X18243252Y-15086792D01*
X18243252Y-15086792D02*
X18271824Y-15086792D01*
X18271824Y-15086792D02*
X18290871Y-15096315D01*
X18290871Y-15096315D02*
X18300395Y-15105839D01*
X18300395Y-15105839D02*
X18309919Y-15124887D01*
X18309919Y-15124887D02*
X18309919Y-15172506D01*
X18309919Y-15172506D02*
X18300395Y-15191554D01*
X18300395Y-15191554D02*
X18290871Y-15201077D01*
X18290871Y-15201077D02*
X18271824Y-15210601D01*
X18271824Y-15210601D02*
X18214681Y-15210601D01*
X18214681Y-15210601D02*
X18195633Y-15201077D01*
X18195633Y-15201077D02*
X18186109Y-15191554D01*
X18386109Y-15010601D02*
X18386109Y-15048696D01*
X18462300Y-15010601D02*
X18462300Y-15048696D01*
X18725157Y-15286792D02*
X18715633Y-15277268D01*
X18715633Y-15277268D02*
X18696586Y-15248696D01*
X18696586Y-15248696D02*
X18687062Y-15229649D01*
X18687062Y-15229649D02*
X18677538Y-15201077D01*
X18677538Y-15201077D02*
X18668014Y-15153458D01*
X18668014Y-15153458D02*
X18668014Y-15115363D01*
X18668014Y-15115363D02*
X18677538Y-15067744D01*
X18677538Y-15067744D02*
X18687062Y-15039173D01*
X18687062Y-15039173D02*
X18696586Y-15020125D01*
X18696586Y-15020125D02*
X18715633Y-14991554D01*
X18715633Y-14991554D02*
X18725157Y-14982030D01*
X18906109Y-15210601D02*
X18791824Y-15210601D01*
X18848966Y-15210601D02*
X18848966Y-15010601D01*
X18848966Y-15010601D02*
X18829919Y-15039173D01*
X18829919Y-15039173D02*
X18810871Y-15058220D01*
X18810871Y-15058220D02*
X18791824Y-15067744D01*
X19077538Y-15010601D02*
X19039443Y-15010601D01*
X19039443Y-15010601D02*
X19020395Y-15020125D01*
X19020395Y-15020125D02*
X19010871Y-15029649D01*
X19010871Y-15029649D02*
X18991824Y-15058220D01*
X18991824Y-15058220D02*
X18982300Y-15096315D01*
X18982300Y-15096315D02*
X18982300Y-15172506D01*
X18982300Y-15172506D02*
X18991824Y-15191554D01*
X18991824Y-15191554D02*
X19001347Y-15201077D01*
X19001347Y-15201077D02*
X19020395Y-15210601D01*
X19020395Y-15210601D02*
X19058490Y-15210601D01*
X19058490Y-15210601D02*
X19077538Y-15201077D01*
X19077538Y-15201077D02*
X19087062Y-15191554D01*
X19087062Y-15191554D02*
X19096586Y-15172506D01*
X19096586Y-15172506D02*
X19096586Y-15124887D01*
X19096586Y-15124887D02*
X19087062Y-15105839D01*
X19087062Y-15105839D02*
X19077538Y-15096315D01*
X19077538Y-15096315D02*
X19058490Y-15086792D01*
X19058490Y-15086792D02*
X19020395Y-15086792D01*
X19020395Y-15086792D02*
X19001347Y-15096315D01*
X19001347Y-15096315D02*
X18991824Y-15105839D01*
X18991824Y-15105839D02*
X18982300Y-15124887D01*
X19302300Y-15210601D02*
X19302300Y-15010601D01*
X19388014Y-15210601D02*
X19388014Y-15105839D01*
X19388014Y-15105839D02*
X19378490Y-15086792D01*
X19378490Y-15086792D02*
X19359443Y-15077268D01*
X19359443Y-15077268D02*
X19330871Y-15077268D01*
X19330871Y-15077268D02*
X19311824Y-15086792D01*
X19311824Y-15086792D02*
X19302300Y-15096315D01*
X19511824Y-15210601D02*
X19492776Y-15201077D01*
X19492776Y-15201077D02*
X19483252Y-15191554D01*
X19483252Y-15191554D02*
X19473728Y-15172506D01*
X19473728Y-15172506D02*
X19473728Y-15115363D01*
X19473728Y-15115363D02*
X19483252Y-15096315D01*
X19483252Y-15096315D02*
X19492776Y-15086792D01*
X19492776Y-15086792D02*
X19511824Y-15077268D01*
X19511824Y-15077268D02*
X19540395Y-15077268D01*
X19540395Y-15077268D02*
X19559443Y-15086792D01*
X19559443Y-15086792D02*
X19568967Y-15096315D01*
X19568967Y-15096315D02*
X19578490Y-15115363D01*
X19578490Y-15115363D02*
X19578490Y-15172506D01*
X19578490Y-15172506D02*
X19568967Y-15191554D01*
X19568967Y-15191554D02*
X19559443Y-15201077D01*
X19559443Y-15201077D02*
X19540395Y-15210601D01*
X19540395Y-15210601D02*
X19511824Y-15210601D01*
X19692776Y-15210601D02*
X19673728Y-15201077D01*
X19673728Y-15201077D02*
X19664205Y-15182030D01*
X19664205Y-15182030D02*
X19664205Y-15010601D01*
X19845157Y-15201077D02*
X19826109Y-15210601D01*
X19826109Y-15210601D02*
X19788014Y-15210601D01*
X19788014Y-15210601D02*
X19768967Y-15201077D01*
X19768967Y-15201077D02*
X19759443Y-15182030D01*
X19759443Y-15182030D02*
X19759443Y-15105839D01*
X19759443Y-15105839D02*
X19768967Y-15086792D01*
X19768967Y-15086792D02*
X19788014Y-15077268D01*
X19788014Y-15077268D02*
X19826109Y-15077268D01*
X19826109Y-15077268D02*
X19845157Y-15086792D01*
X19845157Y-15086792D02*
X19854681Y-15105839D01*
X19854681Y-15105839D02*
X19854681Y-15124887D01*
X19854681Y-15124887D02*
X19759443Y-15143935D01*
X19930871Y-15201077D02*
X19949919Y-15210601D01*
X19949919Y-15210601D02*
X19988014Y-15210601D01*
X19988014Y-15210601D02*
X20007062Y-15201077D01*
X20007062Y-15201077D02*
X20016586Y-15182030D01*
X20016586Y-15182030D02*
X20016586Y-15172506D01*
X20016586Y-15172506D02*
X20007062Y-15153458D01*
X20007062Y-15153458D02*
X19988014Y-15143935D01*
X19988014Y-15143935D02*
X19959443Y-15143935D01*
X19959443Y-15143935D02*
X19940395Y-15134411D01*
X19940395Y-15134411D02*
X19930871Y-15115363D01*
X19930871Y-15115363D02*
X19930871Y-15105839D01*
X19930871Y-15105839D02*
X19940395Y-15086792D01*
X19940395Y-15086792D02*
X19959443Y-15077268D01*
X19959443Y-15077268D02*
X19988014Y-15077268D01*
X19988014Y-15077268D02*
X20007062Y-15086792D01*
X20083252Y-15286792D02*
X20092776Y-15277268D01*
X20092776Y-15277268D02*
X20111824Y-15248696D01*
X20111824Y-15248696D02*
X20121348Y-15229649D01*
X20121348Y-15229649D02*
X20130871Y-15201077D01*
X20130871Y-15201077D02*
X20140395Y-15153458D01*
X20140395Y-15153458D02*
X20140395Y-15115363D01*
X20140395Y-15115363D02*
X20130871Y-15067744D01*
X20130871Y-15067744D02*
X20121348Y-15039173D01*
X20121348Y-15039173D02*
X20111824Y-15020125D01*
X20111824Y-15020125D02*
X20092776Y-14991554D01*
X20092776Y-14991554D02*
X20083252Y-14982030D01*
D19*
X15120695Y-15331275D02*
X15260395Y-15470975D01*
X15260395Y-15331275D02*
X15120695Y-15470975D01*
X15190545Y-15470975D02*
X15260395Y-15401125D01*
X15190545Y-15331275D01*
X15120695Y-15401125D01*
X15190545Y-15470975D01*
D11*
X15612776Y-15474601D02*
X15498490Y-15474601D01*
X15555633Y-15474601D02*
X15555633Y-15274601D01*
X15555633Y-15274601D02*
X15536585Y-15303173D01*
X15536585Y-15303173D02*
X15517538Y-15322220D01*
X15517538Y-15322220D02*
X15498490Y-15331744D01*
X15698490Y-15455554D02*
X15708014Y-15465077D01*
X15708014Y-15465077D02*
X15698490Y-15474601D01*
X15698490Y-15474601D02*
X15688966Y-15465077D01*
X15688966Y-15465077D02*
X15698490Y-15455554D01*
X15698490Y-15455554D02*
X15698490Y-15474601D01*
X15774681Y-15274601D02*
X15898490Y-15274601D01*
X15898490Y-15274601D02*
X15831823Y-15350792D01*
X15831823Y-15350792D02*
X15860395Y-15350792D01*
X15860395Y-15350792D02*
X15879442Y-15360315D01*
X15879442Y-15360315D02*
X15888966Y-15369839D01*
X15888966Y-15369839D02*
X15898490Y-15388887D01*
X15898490Y-15388887D02*
X15898490Y-15436506D01*
X15898490Y-15436506D02*
X15888966Y-15455554D01*
X15888966Y-15455554D02*
X15879442Y-15465077D01*
X15879442Y-15465077D02*
X15860395Y-15474601D01*
X15860395Y-15474601D02*
X15803252Y-15474601D01*
X15803252Y-15474601D02*
X15784204Y-15465077D01*
X15784204Y-15465077D02*
X15774681Y-15455554D01*
X15993728Y-15474601D02*
X16031823Y-15474601D01*
X16031823Y-15474601D02*
X16050871Y-15465077D01*
X16050871Y-15465077D02*
X16060395Y-15455554D01*
X16060395Y-15455554D02*
X16079442Y-15426982D01*
X16079442Y-15426982D02*
X16088966Y-15388887D01*
X16088966Y-15388887D02*
X16088966Y-15312696D01*
X16088966Y-15312696D02*
X16079442Y-15293649D01*
X16079442Y-15293649D02*
X16069919Y-15284125D01*
X16069919Y-15284125D02*
X16050871Y-15274601D01*
X16050871Y-15274601D02*
X16012776Y-15274601D01*
X16012776Y-15274601D02*
X15993728Y-15284125D01*
X15993728Y-15284125D02*
X15984204Y-15293649D01*
X15984204Y-15293649D02*
X15974681Y-15312696D01*
X15974681Y-15312696D02*
X15974681Y-15360315D01*
X15974681Y-15360315D02*
X15984204Y-15379363D01*
X15984204Y-15379363D02*
X15993728Y-15388887D01*
X15993728Y-15388887D02*
X16012776Y-15398411D01*
X16012776Y-15398411D02*
X16050871Y-15398411D01*
X16050871Y-15398411D02*
X16069919Y-15388887D01*
X16069919Y-15388887D02*
X16079442Y-15379363D01*
X16079442Y-15379363D02*
X16088966Y-15360315D01*
X16155633Y-15274601D02*
X16288966Y-15274601D01*
X16288966Y-15274601D02*
X16203252Y-15474601D01*
X16365157Y-15474601D02*
X16365157Y-15341268D01*
X16365157Y-15360315D02*
X16374681Y-15350792D01*
X16374681Y-15350792D02*
X16393728Y-15341268D01*
X16393728Y-15341268D02*
X16422300Y-15341268D01*
X16422300Y-15341268D02*
X16441347Y-15350792D01*
X16441347Y-15350792D02*
X16450871Y-15369839D01*
X16450871Y-15369839D02*
X16450871Y-15474601D01*
X16450871Y-15369839D02*
X16460395Y-15350792D01*
X16460395Y-15350792D02*
X16479442Y-15341268D01*
X16479442Y-15341268D02*
X16508014Y-15341268D01*
X16508014Y-15341268D02*
X16527062Y-15350792D01*
X16527062Y-15350792D02*
X16536585Y-15369839D01*
X16536585Y-15369839D02*
X16536585Y-15474601D01*
X16631823Y-15474601D02*
X16631823Y-15341268D01*
X16631823Y-15360315D02*
X16641347Y-15350792D01*
X16641347Y-15350792D02*
X16660395Y-15341268D01*
X16660395Y-15341268D02*
X16688966Y-15341268D01*
X16688966Y-15341268D02*
X16708014Y-15350792D01*
X16708014Y-15350792D02*
X16717538Y-15369839D01*
X16717538Y-15369839D02*
X16717538Y-15474601D01*
X16717538Y-15369839D02*
X16727062Y-15350792D01*
X16727062Y-15350792D02*
X16746109Y-15341268D01*
X16746109Y-15341268D02*
X16774681Y-15341268D01*
X16774681Y-15341268D02*
X16793728Y-15350792D01*
X16793728Y-15350792D02*
X16803252Y-15369839D01*
X16803252Y-15369839D02*
X16803252Y-15474601D01*
X17161347Y-15265077D02*
X16989919Y-15522220D01*
X17386109Y-15274601D02*
X17405157Y-15274601D01*
X17405157Y-15274601D02*
X17424205Y-15284125D01*
X17424205Y-15284125D02*
X17433728Y-15293649D01*
X17433728Y-15293649D02*
X17443252Y-15312696D01*
X17443252Y-15312696D02*
X17452776Y-15350792D01*
X17452776Y-15350792D02*
X17452776Y-15398411D01*
X17452776Y-15398411D02*
X17443252Y-15436506D01*
X17443252Y-15436506D02*
X17433728Y-15455554D01*
X17433728Y-15455554D02*
X17424205Y-15465077D01*
X17424205Y-15465077D02*
X17405157Y-15474601D01*
X17405157Y-15474601D02*
X17386109Y-15474601D01*
X17386109Y-15474601D02*
X17367062Y-15465077D01*
X17367062Y-15465077D02*
X17357538Y-15455554D01*
X17357538Y-15455554D02*
X17348014Y-15436506D01*
X17348014Y-15436506D02*
X17338490Y-15398411D01*
X17338490Y-15398411D02*
X17338490Y-15350792D01*
X17338490Y-15350792D02*
X17348014Y-15312696D01*
X17348014Y-15312696D02*
X17357538Y-15293649D01*
X17357538Y-15293649D02*
X17367062Y-15284125D01*
X17367062Y-15284125D02*
X17386109Y-15274601D01*
X17538490Y-15455554D02*
X17548014Y-15465077D01*
X17548014Y-15465077D02*
X17538490Y-15474601D01*
X17538490Y-15474601D02*
X17528966Y-15465077D01*
X17528966Y-15465077D02*
X17538490Y-15455554D01*
X17538490Y-15455554D02*
X17538490Y-15474601D01*
X17671824Y-15274601D02*
X17690871Y-15274601D01*
X17690871Y-15274601D02*
X17709919Y-15284125D01*
X17709919Y-15284125D02*
X17719443Y-15293649D01*
X17719443Y-15293649D02*
X17728966Y-15312696D01*
X17728966Y-15312696D02*
X17738490Y-15350792D01*
X17738490Y-15350792D02*
X17738490Y-15398411D01*
X17738490Y-15398411D02*
X17728966Y-15436506D01*
X17728966Y-15436506D02*
X17719443Y-15455554D01*
X17719443Y-15455554D02*
X17709919Y-15465077D01*
X17709919Y-15465077D02*
X17690871Y-15474601D01*
X17690871Y-15474601D02*
X17671824Y-15474601D01*
X17671824Y-15474601D02*
X17652776Y-15465077D01*
X17652776Y-15465077D02*
X17643252Y-15455554D01*
X17643252Y-15455554D02*
X17633728Y-15436506D01*
X17633728Y-15436506D02*
X17624205Y-15398411D01*
X17624205Y-15398411D02*
X17624205Y-15350792D01*
X17624205Y-15350792D02*
X17633728Y-15312696D01*
X17633728Y-15312696D02*
X17643252Y-15293649D01*
X17643252Y-15293649D02*
X17652776Y-15284125D01*
X17652776Y-15284125D02*
X17671824Y-15274601D01*
X17919443Y-15274601D02*
X17824205Y-15274601D01*
X17824205Y-15274601D02*
X17814681Y-15369839D01*
X17814681Y-15369839D02*
X17824205Y-15360315D01*
X17824205Y-15360315D02*
X17843252Y-15350792D01*
X17843252Y-15350792D02*
X17890871Y-15350792D01*
X17890871Y-15350792D02*
X17909919Y-15360315D01*
X17909919Y-15360315D02*
X17919443Y-15369839D01*
X17919443Y-15369839D02*
X17928966Y-15388887D01*
X17928966Y-15388887D02*
X17928966Y-15436506D01*
X17928966Y-15436506D02*
X17919443Y-15455554D01*
X17919443Y-15455554D02*
X17909919Y-15465077D01*
X17909919Y-15465077D02*
X17890871Y-15474601D01*
X17890871Y-15474601D02*
X17843252Y-15474601D01*
X17843252Y-15474601D02*
X17824205Y-15465077D01*
X17824205Y-15465077D02*
X17814681Y-15455554D01*
X18109919Y-15274601D02*
X18014681Y-15274601D01*
X18014681Y-15274601D02*
X18005157Y-15369839D01*
X18005157Y-15369839D02*
X18014681Y-15360315D01*
X18014681Y-15360315D02*
X18033728Y-15350792D01*
X18033728Y-15350792D02*
X18081347Y-15350792D01*
X18081347Y-15350792D02*
X18100395Y-15360315D01*
X18100395Y-15360315D02*
X18109919Y-15369839D01*
X18109919Y-15369839D02*
X18119443Y-15388887D01*
X18119443Y-15388887D02*
X18119443Y-15436506D01*
X18119443Y-15436506D02*
X18109919Y-15455554D01*
X18109919Y-15455554D02*
X18100395Y-15465077D01*
X18100395Y-15465077D02*
X18081347Y-15474601D01*
X18081347Y-15474601D02*
X18033728Y-15474601D01*
X18033728Y-15474601D02*
X18014681Y-15465077D01*
X18014681Y-15465077D02*
X18005157Y-15455554D01*
X18243252Y-15274601D02*
X18262300Y-15274601D01*
X18262300Y-15274601D02*
X18281347Y-15284125D01*
X18281347Y-15284125D02*
X18290871Y-15293649D01*
X18290871Y-15293649D02*
X18300395Y-15312696D01*
X18300395Y-15312696D02*
X18309919Y-15350792D01*
X18309919Y-15350792D02*
X18309919Y-15398411D01*
X18309919Y-15398411D02*
X18300395Y-15436506D01*
X18300395Y-15436506D02*
X18290871Y-15455554D01*
X18290871Y-15455554D02*
X18281347Y-15465077D01*
X18281347Y-15465077D02*
X18262300Y-15474601D01*
X18262300Y-15474601D02*
X18243252Y-15474601D01*
X18243252Y-15474601D02*
X18224205Y-15465077D01*
X18224205Y-15465077D02*
X18214681Y-15455554D01*
X18214681Y-15455554D02*
X18205157Y-15436506D01*
X18205157Y-15436506D02*
X18195633Y-15398411D01*
X18195633Y-15398411D02*
X18195633Y-15350792D01*
X18195633Y-15350792D02*
X18205157Y-15312696D01*
X18205157Y-15312696D02*
X18214681Y-15293649D01*
X18214681Y-15293649D02*
X18224205Y-15284125D01*
X18224205Y-15284125D02*
X18243252Y-15274601D01*
X18386109Y-15274601D02*
X18386109Y-15312696D01*
X18462300Y-15274601D02*
X18462300Y-15312696D01*
X18725157Y-15550792D02*
X18715633Y-15541268D01*
X18715633Y-15541268D02*
X18696586Y-15512696D01*
X18696586Y-15512696D02*
X18687062Y-15493649D01*
X18687062Y-15493649D02*
X18677538Y-15465077D01*
X18677538Y-15465077D02*
X18668014Y-15417458D01*
X18668014Y-15417458D02*
X18668014Y-15379363D01*
X18668014Y-15379363D02*
X18677538Y-15331744D01*
X18677538Y-15331744D02*
X18687062Y-15303173D01*
X18687062Y-15303173D02*
X18696586Y-15284125D01*
X18696586Y-15284125D02*
X18715633Y-15255554D01*
X18715633Y-15255554D02*
X18725157Y-15246030D01*
X18829919Y-15360315D02*
X18810871Y-15350792D01*
X18810871Y-15350792D02*
X18801347Y-15341268D01*
X18801347Y-15341268D02*
X18791824Y-15322220D01*
X18791824Y-15322220D02*
X18791824Y-15312696D01*
X18791824Y-15312696D02*
X18801347Y-15293649D01*
X18801347Y-15293649D02*
X18810871Y-15284125D01*
X18810871Y-15284125D02*
X18829919Y-15274601D01*
X18829919Y-15274601D02*
X18868014Y-15274601D01*
X18868014Y-15274601D02*
X18887062Y-15284125D01*
X18887062Y-15284125D02*
X18896586Y-15293649D01*
X18896586Y-15293649D02*
X18906109Y-15312696D01*
X18906109Y-15312696D02*
X18906109Y-15322220D01*
X18906109Y-15322220D02*
X18896586Y-15341268D01*
X18896586Y-15341268D02*
X18887062Y-15350792D01*
X18887062Y-15350792D02*
X18868014Y-15360315D01*
X18868014Y-15360315D02*
X18829919Y-15360315D01*
X18829919Y-15360315D02*
X18810871Y-15369839D01*
X18810871Y-15369839D02*
X18801347Y-15379363D01*
X18801347Y-15379363D02*
X18791824Y-15398411D01*
X18791824Y-15398411D02*
X18791824Y-15436506D01*
X18791824Y-15436506D02*
X18801347Y-15455554D01*
X18801347Y-15455554D02*
X18810871Y-15465077D01*
X18810871Y-15465077D02*
X18829919Y-15474601D01*
X18829919Y-15474601D02*
X18868014Y-15474601D01*
X18868014Y-15474601D02*
X18887062Y-15465077D01*
X18887062Y-15465077D02*
X18896586Y-15455554D01*
X18896586Y-15455554D02*
X18906109Y-15436506D01*
X18906109Y-15436506D02*
X18906109Y-15398411D01*
X18906109Y-15398411D02*
X18896586Y-15379363D01*
X18896586Y-15379363D02*
X18887062Y-15369839D01*
X18887062Y-15369839D02*
X18868014Y-15360315D01*
X19111824Y-15474601D02*
X19111824Y-15274601D01*
X19197538Y-15474601D02*
X19197538Y-15369839D01*
X19197538Y-15369839D02*
X19188014Y-15350792D01*
X19188014Y-15350792D02*
X19168967Y-15341268D01*
X19168967Y-15341268D02*
X19140395Y-15341268D01*
X19140395Y-15341268D02*
X19121347Y-15350792D01*
X19121347Y-15350792D02*
X19111824Y-15360315D01*
X19321347Y-15474601D02*
X19302300Y-15465077D01*
X19302300Y-15465077D02*
X19292776Y-15455554D01*
X19292776Y-15455554D02*
X19283252Y-15436506D01*
X19283252Y-15436506D02*
X19283252Y-15379363D01*
X19283252Y-15379363D02*
X19292776Y-15360315D01*
X19292776Y-15360315D02*
X19302300Y-15350792D01*
X19302300Y-15350792D02*
X19321347Y-15341268D01*
X19321347Y-15341268D02*
X19349919Y-15341268D01*
X19349919Y-15341268D02*
X19368967Y-15350792D01*
X19368967Y-15350792D02*
X19378490Y-15360315D01*
X19378490Y-15360315D02*
X19388014Y-15379363D01*
X19388014Y-15379363D02*
X19388014Y-15436506D01*
X19388014Y-15436506D02*
X19378490Y-15455554D01*
X19378490Y-15455554D02*
X19368967Y-15465077D01*
X19368967Y-15465077D02*
X19349919Y-15474601D01*
X19349919Y-15474601D02*
X19321347Y-15474601D01*
X19502300Y-15474601D02*
X19483252Y-15465077D01*
X19483252Y-15465077D02*
X19473728Y-15446030D01*
X19473728Y-15446030D02*
X19473728Y-15274601D01*
X19654681Y-15465077D02*
X19635633Y-15474601D01*
X19635633Y-15474601D02*
X19597538Y-15474601D01*
X19597538Y-15474601D02*
X19578490Y-15465077D01*
X19578490Y-15465077D02*
X19568967Y-15446030D01*
X19568967Y-15446030D02*
X19568967Y-15369839D01*
X19568967Y-15369839D02*
X19578490Y-15350792D01*
X19578490Y-15350792D02*
X19597538Y-15341268D01*
X19597538Y-15341268D02*
X19635633Y-15341268D01*
X19635633Y-15341268D02*
X19654681Y-15350792D01*
X19654681Y-15350792D02*
X19664205Y-15369839D01*
X19664205Y-15369839D02*
X19664205Y-15388887D01*
X19664205Y-15388887D02*
X19568967Y-15407935D01*
X19740395Y-15465077D02*
X19759443Y-15474601D01*
X19759443Y-15474601D02*
X19797538Y-15474601D01*
X19797538Y-15474601D02*
X19816586Y-15465077D01*
X19816586Y-15465077D02*
X19826109Y-15446030D01*
X19826109Y-15446030D02*
X19826109Y-15436506D01*
X19826109Y-15436506D02*
X19816586Y-15417458D01*
X19816586Y-15417458D02*
X19797538Y-15407935D01*
X19797538Y-15407935D02*
X19768967Y-15407935D01*
X19768967Y-15407935D02*
X19749919Y-15398411D01*
X19749919Y-15398411D02*
X19740395Y-15379363D01*
X19740395Y-15379363D02*
X19740395Y-15369839D01*
X19740395Y-15369839D02*
X19749919Y-15350792D01*
X19749919Y-15350792D02*
X19768967Y-15341268D01*
X19768967Y-15341268D02*
X19797538Y-15341268D01*
X19797538Y-15341268D02*
X19816586Y-15350792D01*
X19892776Y-15550792D02*
X19902300Y-15541268D01*
X19902300Y-15541268D02*
X19921348Y-15512696D01*
X19921348Y-15512696D02*
X19930871Y-15493649D01*
X19930871Y-15493649D02*
X19940395Y-15465077D01*
X19940395Y-15465077D02*
X19949919Y-15417458D01*
X19949919Y-15417458D02*
X19949919Y-15379363D01*
X19949919Y-15379363D02*
X19940395Y-15331744D01*
X19940395Y-15331744D02*
X19930871Y-15303173D01*
X19930871Y-15303173D02*
X19921348Y-15284125D01*
X19921348Y-15284125D02*
X19902300Y-15255554D01*
X19902300Y-15255554D02*
X19892776Y-15246030D01*
X15160395Y-15565125D02*
X15160395Y-15765125D01*
X15060395Y-15665125D02*
X15260395Y-15665125D01*
X15260395Y-15665125D02*
G75*
G03*
X15260395Y-15665125I-100000J0D01*
G01*
X15488966Y-15538601D02*
X15612776Y-15538601D01*
X15612776Y-15538601D02*
X15546109Y-15614792D01*
X15546109Y-15614792D02*
X15574681Y-15614792D01*
X15574681Y-15614792D02*
X15593728Y-15624315D01*
X15593728Y-15624315D02*
X15603252Y-15633839D01*
X15603252Y-15633839D02*
X15612776Y-15652887D01*
X15612776Y-15652887D02*
X15612776Y-15700506D01*
X15612776Y-15700506D02*
X15603252Y-15719554D01*
X15603252Y-15719554D02*
X15593728Y-15729077D01*
X15593728Y-15729077D02*
X15574681Y-15738601D01*
X15574681Y-15738601D02*
X15517538Y-15738601D01*
X15517538Y-15738601D02*
X15498490Y-15729077D01*
X15498490Y-15729077D02*
X15488966Y-15719554D01*
X15698490Y-15719554D02*
X15708014Y-15729077D01*
X15708014Y-15729077D02*
X15698490Y-15738601D01*
X15698490Y-15738601D02*
X15688966Y-15729077D01*
X15688966Y-15729077D02*
X15698490Y-15719554D01*
X15698490Y-15719554D02*
X15698490Y-15738601D01*
X15784204Y-15557649D02*
X15793728Y-15548125D01*
X15793728Y-15548125D02*
X15812776Y-15538601D01*
X15812776Y-15538601D02*
X15860395Y-15538601D01*
X15860395Y-15538601D02*
X15879442Y-15548125D01*
X15879442Y-15548125D02*
X15888966Y-15557649D01*
X15888966Y-15557649D02*
X15898490Y-15576696D01*
X15898490Y-15576696D02*
X15898490Y-15595744D01*
X15898490Y-15595744D02*
X15888966Y-15624315D01*
X15888966Y-15624315D02*
X15774681Y-15738601D01*
X15774681Y-15738601D02*
X15898490Y-15738601D01*
X16022300Y-15538601D02*
X16041347Y-15538601D01*
X16041347Y-15538601D02*
X16060395Y-15548125D01*
X16060395Y-15548125D02*
X16069919Y-15557649D01*
X16069919Y-15557649D02*
X16079442Y-15576696D01*
X16079442Y-15576696D02*
X16088966Y-15614792D01*
X16088966Y-15614792D02*
X16088966Y-15662411D01*
X16088966Y-15662411D02*
X16079442Y-15700506D01*
X16079442Y-15700506D02*
X16069919Y-15719554D01*
X16069919Y-15719554D02*
X16060395Y-15729077D01*
X16060395Y-15729077D02*
X16041347Y-15738601D01*
X16041347Y-15738601D02*
X16022300Y-15738601D01*
X16022300Y-15738601D02*
X16003252Y-15729077D01*
X16003252Y-15729077D02*
X15993728Y-15719554D01*
X15993728Y-15719554D02*
X15984204Y-15700506D01*
X15984204Y-15700506D02*
X15974681Y-15662411D01*
X15974681Y-15662411D02*
X15974681Y-15614792D01*
X15974681Y-15614792D02*
X15984204Y-15576696D01*
X15984204Y-15576696D02*
X15993728Y-15557649D01*
X15993728Y-15557649D02*
X16003252Y-15548125D01*
X16003252Y-15548125D02*
X16022300Y-15538601D01*
X16212776Y-15538601D02*
X16231823Y-15538601D01*
X16231823Y-15538601D02*
X16250871Y-15548125D01*
X16250871Y-15548125D02*
X16260395Y-15557649D01*
X16260395Y-15557649D02*
X16269919Y-15576696D01*
X16269919Y-15576696D02*
X16279442Y-15614792D01*
X16279442Y-15614792D02*
X16279442Y-15662411D01*
X16279442Y-15662411D02*
X16269919Y-15700506D01*
X16269919Y-15700506D02*
X16260395Y-15719554D01*
X16260395Y-15719554D02*
X16250871Y-15729077D01*
X16250871Y-15729077D02*
X16231823Y-15738601D01*
X16231823Y-15738601D02*
X16212776Y-15738601D01*
X16212776Y-15738601D02*
X16193728Y-15729077D01*
X16193728Y-15729077D02*
X16184204Y-15719554D01*
X16184204Y-15719554D02*
X16174681Y-15700506D01*
X16174681Y-15700506D02*
X16165157Y-15662411D01*
X16165157Y-15662411D02*
X16165157Y-15614792D01*
X16165157Y-15614792D02*
X16174681Y-15576696D01*
X16174681Y-15576696D02*
X16184204Y-15557649D01*
X16184204Y-15557649D02*
X16193728Y-15548125D01*
X16193728Y-15548125D02*
X16212776Y-15538601D01*
X16365157Y-15738601D02*
X16365157Y-15605268D01*
X16365157Y-15624315D02*
X16374681Y-15614792D01*
X16374681Y-15614792D02*
X16393728Y-15605268D01*
X16393728Y-15605268D02*
X16422300Y-15605268D01*
X16422300Y-15605268D02*
X16441347Y-15614792D01*
X16441347Y-15614792D02*
X16450871Y-15633839D01*
X16450871Y-15633839D02*
X16450871Y-15738601D01*
X16450871Y-15633839D02*
X16460395Y-15614792D01*
X16460395Y-15614792D02*
X16479442Y-15605268D01*
X16479442Y-15605268D02*
X16508014Y-15605268D01*
X16508014Y-15605268D02*
X16527062Y-15614792D01*
X16527062Y-15614792D02*
X16536585Y-15633839D01*
X16536585Y-15633839D02*
X16536585Y-15738601D01*
X16631823Y-15738601D02*
X16631823Y-15605268D01*
X16631823Y-15624315D02*
X16641347Y-15614792D01*
X16641347Y-15614792D02*
X16660395Y-15605268D01*
X16660395Y-15605268D02*
X16688966Y-15605268D01*
X16688966Y-15605268D02*
X16708014Y-15614792D01*
X16708014Y-15614792D02*
X16717538Y-15633839D01*
X16717538Y-15633839D02*
X16717538Y-15738601D01*
X16717538Y-15633839D02*
X16727062Y-15614792D01*
X16727062Y-15614792D02*
X16746109Y-15605268D01*
X16746109Y-15605268D02*
X16774681Y-15605268D01*
X16774681Y-15605268D02*
X16793728Y-15614792D01*
X16793728Y-15614792D02*
X16803252Y-15633839D01*
X16803252Y-15633839D02*
X16803252Y-15738601D01*
X17161347Y-15529077D02*
X16989919Y-15786220D01*
X17386109Y-15538601D02*
X17405157Y-15538601D01*
X17405157Y-15538601D02*
X17424205Y-15548125D01*
X17424205Y-15548125D02*
X17433728Y-15557649D01*
X17433728Y-15557649D02*
X17443252Y-15576696D01*
X17443252Y-15576696D02*
X17452776Y-15614792D01*
X17452776Y-15614792D02*
X17452776Y-15662411D01*
X17452776Y-15662411D02*
X17443252Y-15700506D01*
X17443252Y-15700506D02*
X17433728Y-15719554D01*
X17433728Y-15719554D02*
X17424205Y-15729077D01*
X17424205Y-15729077D02*
X17405157Y-15738601D01*
X17405157Y-15738601D02*
X17386109Y-15738601D01*
X17386109Y-15738601D02*
X17367062Y-15729077D01*
X17367062Y-15729077D02*
X17357538Y-15719554D01*
X17357538Y-15719554D02*
X17348014Y-15700506D01*
X17348014Y-15700506D02*
X17338490Y-15662411D01*
X17338490Y-15662411D02*
X17338490Y-15614792D01*
X17338490Y-15614792D02*
X17348014Y-15576696D01*
X17348014Y-15576696D02*
X17357538Y-15557649D01*
X17357538Y-15557649D02*
X17367062Y-15548125D01*
X17367062Y-15548125D02*
X17386109Y-15538601D01*
X17538490Y-15719554D02*
X17548014Y-15729077D01*
X17548014Y-15729077D02*
X17538490Y-15738601D01*
X17538490Y-15738601D02*
X17528966Y-15729077D01*
X17528966Y-15729077D02*
X17538490Y-15719554D01*
X17538490Y-15719554D02*
X17538490Y-15738601D01*
X17738490Y-15738601D02*
X17624205Y-15738601D01*
X17681347Y-15738601D02*
X17681347Y-15538601D01*
X17681347Y-15538601D02*
X17662300Y-15567173D01*
X17662300Y-15567173D02*
X17643252Y-15586220D01*
X17643252Y-15586220D02*
X17624205Y-15595744D01*
X17814681Y-15557649D02*
X17824205Y-15548125D01*
X17824205Y-15548125D02*
X17843252Y-15538601D01*
X17843252Y-15538601D02*
X17890871Y-15538601D01*
X17890871Y-15538601D02*
X17909919Y-15548125D01*
X17909919Y-15548125D02*
X17919443Y-15557649D01*
X17919443Y-15557649D02*
X17928966Y-15576696D01*
X17928966Y-15576696D02*
X17928966Y-15595744D01*
X17928966Y-15595744D02*
X17919443Y-15624315D01*
X17919443Y-15624315D02*
X17805157Y-15738601D01*
X17805157Y-15738601D02*
X17928966Y-15738601D01*
X18100395Y-15538601D02*
X18062300Y-15538601D01*
X18062300Y-15538601D02*
X18043252Y-15548125D01*
X18043252Y-15548125D02*
X18033728Y-15557649D01*
X18033728Y-15557649D02*
X18014681Y-15586220D01*
X18014681Y-15586220D02*
X18005157Y-15624315D01*
X18005157Y-15624315D02*
X18005157Y-15700506D01*
X18005157Y-15700506D02*
X18014681Y-15719554D01*
X18014681Y-15719554D02*
X18024205Y-15729077D01*
X18024205Y-15729077D02*
X18043252Y-15738601D01*
X18043252Y-15738601D02*
X18081347Y-15738601D01*
X18081347Y-15738601D02*
X18100395Y-15729077D01*
X18100395Y-15729077D02*
X18109919Y-15719554D01*
X18109919Y-15719554D02*
X18119443Y-15700506D01*
X18119443Y-15700506D02*
X18119443Y-15652887D01*
X18119443Y-15652887D02*
X18109919Y-15633839D01*
X18109919Y-15633839D02*
X18100395Y-15624315D01*
X18100395Y-15624315D02*
X18081347Y-15614792D01*
X18081347Y-15614792D02*
X18043252Y-15614792D01*
X18043252Y-15614792D02*
X18024205Y-15624315D01*
X18024205Y-15624315D02*
X18014681Y-15633839D01*
X18014681Y-15633839D02*
X18005157Y-15652887D01*
X18243252Y-15538601D02*
X18262300Y-15538601D01*
X18262300Y-15538601D02*
X18281347Y-15548125D01*
X18281347Y-15548125D02*
X18290871Y-15557649D01*
X18290871Y-15557649D02*
X18300395Y-15576696D01*
X18300395Y-15576696D02*
X18309919Y-15614792D01*
X18309919Y-15614792D02*
X18309919Y-15662411D01*
X18309919Y-15662411D02*
X18300395Y-15700506D01*
X18300395Y-15700506D02*
X18290871Y-15719554D01*
X18290871Y-15719554D02*
X18281347Y-15729077D01*
X18281347Y-15729077D02*
X18262300Y-15738601D01*
X18262300Y-15738601D02*
X18243252Y-15738601D01*
X18243252Y-15738601D02*
X18224205Y-15729077D01*
X18224205Y-15729077D02*
X18214681Y-15719554D01*
X18214681Y-15719554D02*
X18205157Y-15700506D01*
X18205157Y-15700506D02*
X18195633Y-15662411D01*
X18195633Y-15662411D02*
X18195633Y-15614792D01*
X18195633Y-15614792D02*
X18205157Y-15576696D01*
X18205157Y-15576696D02*
X18214681Y-15557649D01*
X18214681Y-15557649D02*
X18224205Y-15548125D01*
X18224205Y-15548125D02*
X18243252Y-15538601D01*
X18386109Y-15538601D02*
X18386109Y-15576696D01*
X18462300Y-15538601D02*
X18462300Y-15576696D01*
X18725157Y-15814792D02*
X18715633Y-15805268D01*
X18715633Y-15805268D02*
X18696586Y-15776696D01*
X18696586Y-15776696D02*
X18687062Y-15757649D01*
X18687062Y-15757649D02*
X18677538Y-15729077D01*
X18677538Y-15729077D02*
X18668014Y-15681458D01*
X18668014Y-15681458D02*
X18668014Y-15643363D01*
X18668014Y-15643363D02*
X18677538Y-15595744D01*
X18677538Y-15595744D02*
X18687062Y-15567173D01*
X18687062Y-15567173D02*
X18696586Y-15548125D01*
X18696586Y-15548125D02*
X18715633Y-15519554D01*
X18715633Y-15519554D02*
X18725157Y-15510030D01*
X18887062Y-15605268D02*
X18887062Y-15738601D01*
X18839443Y-15529077D02*
X18791824Y-15671935D01*
X18791824Y-15671935D02*
X18915633Y-15671935D01*
X19111824Y-15738601D02*
X19111824Y-15538601D01*
X19197538Y-15738601D02*
X19197538Y-15633839D01*
X19197538Y-15633839D02*
X19188014Y-15614792D01*
X19188014Y-15614792D02*
X19168967Y-15605268D01*
X19168967Y-15605268D02*
X19140395Y-15605268D01*
X19140395Y-15605268D02*
X19121347Y-15614792D01*
X19121347Y-15614792D02*
X19111824Y-15624315D01*
X19321347Y-15738601D02*
X19302300Y-15729077D01*
X19302300Y-15729077D02*
X19292776Y-15719554D01*
X19292776Y-15719554D02*
X19283252Y-15700506D01*
X19283252Y-15700506D02*
X19283252Y-15643363D01*
X19283252Y-15643363D02*
X19292776Y-15624315D01*
X19292776Y-15624315D02*
X19302300Y-15614792D01*
X19302300Y-15614792D02*
X19321347Y-15605268D01*
X19321347Y-15605268D02*
X19349919Y-15605268D01*
X19349919Y-15605268D02*
X19368967Y-15614792D01*
X19368967Y-15614792D02*
X19378490Y-15624315D01*
X19378490Y-15624315D02*
X19388014Y-15643363D01*
X19388014Y-15643363D02*
X19388014Y-15700506D01*
X19388014Y-15700506D02*
X19378490Y-15719554D01*
X19378490Y-15719554D02*
X19368967Y-15729077D01*
X19368967Y-15729077D02*
X19349919Y-15738601D01*
X19349919Y-15738601D02*
X19321347Y-15738601D01*
X19502300Y-15738601D02*
X19483252Y-15729077D01*
X19483252Y-15729077D02*
X19473728Y-15710030D01*
X19473728Y-15710030D02*
X19473728Y-15538601D01*
X19654681Y-15729077D02*
X19635633Y-15738601D01*
X19635633Y-15738601D02*
X19597538Y-15738601D01*
X19597538Y-15738601D02*
X19578490Y-15729077D01*
X19578490Y-15729077D02*
X19568967Y-15710030D01*
X19568967Y-15710030D02*
X19568967Y-15633839D01*
X19568967Y-15633839D02*
X19578490Y-15614792D01*
X19578490Y-15614792D02*
X19597538Y-15605268D01*
X19597538Y-15605268D02*
X19635633Y-15605268D01*
X19635633Y-15605268D02*
X19654681Y-15614792D01*
X19654681Y-15614792D02*
X19664205Y-15633839D01*
X19664205Y-15633839D02*
X19664205Y-15652887D01*
X19664205Y-15652887D02*
X19568967Y-15671935D01*
X19740395Y-15729077D02*
X19759443Y-15738601D01*
X19759443Y-15738601D02*
X19797538Y-15738601D01*
X19797538Y-15738601D02*
X19816586Y-15729077D01*
X19816586Y-15729077D02*
X19826109Y-15710030D01*
X19826109Y-15710030D02*
X19826109Y-15700506D01*
X19826109Y-15700506D02*
X19816586Y-15681458D01*
X19816586Y-15681458D02*
X19797538Y-15671935D01*
X19797538Y-15671935D02*
X19768967Y-15671935D01*
X19768967Y-15671935D02*
X19749919Y-15662411D01*
X19749919Y-15662411D02*
X19740395Y-15643363D01*
X19740395Y-15643363D02*
X19740395Y-15633839D01*
X19740395Y-15633839D02*
X19749919Y-15614792D01*
X19749919Y-15614792D02*
X19768967Y-15605268D01*
X19768967Y-15605268D02*
X19797538Y-15605268D01*
X19797538Y-15605268D02*
X19816586Y-15614792D01*
X19892776Y-15814792D02*
X19902300Y-15805268D01*
X19902300Y-15805268D02*
X19921348Y-15776696D01*
X19921348Y-15776696D02*
X19930871Y-15757649D01*
X19930871Y-15757649D02*
X19940395Y-15729077D01*
X19940395Y-15729077D02*
X19949919Y-15681458D01*
X19949919Y-15681458D02*
X19949919Y-15643363D01*
X19949919Y-15643363D02*
X19940395Y-15595744D01*
X19940395Y-15595744D02*
X19930871Y-15567173D01*
X19930871Y-15567173D02*
X19921348Y-15548125D01*
X19921348Y-15548125D02*
X19902300Y-15519554D01*
X19902300Y-15519554D02*
X19892776Y-15510030D01*
M02*
