%TF.GenerationSoftware,KiCad,Pcbnew,(7.0.0)*%
%TF.CreationDate,2023-11-05T00:37:01+05:30*%
%TF.ProjectId,Drone_Controller_2.0,44726f6e-655f-4436-9f6e-74726f6c6c65,rev?*%
%TF.SameCoordinates,Original*%
%TF.FileFunction,Paste,Top*%
%TF.FilePolarity,Positive*%
%FSLAX46Y46*%
G04 Gerber Fmt 4.6, Leading zero omitted, Abs format (unit mm)*
G04 Created by KiCad (PCBNEW (7.0.0)) date 2023-11-05 00:37:01*
%MOMM*%
%LPD*%
G01*
G04 APERTURE LIST*
G04 Aperture macros list*
%AMRoundRect*
0 Rectangle with rounded corners*
0 $1 Rounding radius*
0 $2 $3 $4 $5 $6 $7 $8 $9 X,Y pos of 4 corners*
0 Add a 4 corners polygon primitive as box body*
4,1,4,$2,$3,$4,$5,$6,$7,$8,$9,$2,$3,0*
0 Add four circle primitives for the rounded corners*
1,1,$1+$1,$2,$3*
1,1,$1+$1,$4,$5*
1,1,$1+$1,$6,$7*
1,1,$1+$1,$8,$9*
0 Add four rect primitives between the rounded corners*
20,1,$1+$1,$2,$3,$4,$5,0*
20,1,$1+$1,$4,$5,$6,$7,0*
20,1,$1+$1,$6,$7,$8,$9,0*
20,1,$1+$1,$8,$9,$2,$3,0*%
G04 Aperture macros list end*
%ADD10RoundRect,0.140000X0.170000X-0.140000X0.170000X0.140000X-0.170000X0.140000X-0.170000X-0.140000X0*%
%ADD11RoundRect,0.140000X0.140000X0.170000X-0.140000X0.170000X-0.140000X-0.170000X0.140000X-0.170000X0*%
%ADD12RoundRect,0.135000X-0.135000X-0.185000X0.135000X-0.185000X0.135000X0.185000X-0.135000X0.185000X0*%
%ADD13RoundRect,0.140000X-0.170000X0.140000X-0.170000X-0.140000X0.170000X-0.140000X0.170000X0.140000X0*%
%ADD14RoundRect,0.250000X-0.475000X0.250000X-0.475000X-0.250000X0.475000X-0.250000X0.475000X0.250000X0*%
%ADD15RoundRect,0.135000X0.185000X-0.135000X0.185000X0.135000X-0.185000X0.135000X-0.185000X-0.135000X0*%
%ADD16RoundRect,0.140000X-0.140000X-0.170000X0.140000X-0.170000X0.140000X0.170000X-0.140000X0.170000X0*%
%ADD17RoundRect,0.200000X-0.200000X-0.275000X0.200000X-0.275000X0.200000X0.275000X-0.200000X0.275000X0*%
%ADD18RoundRect,0.250000X0.315000X0.315000X-0.315000X0.315000X-0.315000X-0.315000X0.315000X-0.315000X0*%
%ADD19RoundRect,0.062500X0.375000X0.062500X-0.375000X0.062500X-0.375000X-0.062500X0.375000X-0.062500X0*%
%ADD20RoundRect,0.062500X0.062500X0.375000X-0.062500X0.375000X-0.062500X-0.375000X0.062500X-0.375000X0*%
%ADD21RoundRect,0.250000X0.255000X-0.255000X0.255000X0.255000X-0.255000X0.255000X-0.255000X-0.255000X0*%
%ADD22RoundRect,0.062500X0.062500X-0.350000X0.062500X0.350000X-0.062500X0.350000X-0.062500X-0.350000X0*%
%ADD23RoundRect,0.062500X0.350000X-0.062500X0.350000X0.062500X-0.350000X0.062500X-0.350000X-0.062500X0*%
%ADD24RoundRect,0.135000X0.135000X0.185000X-0.135000X0.185000X-0.135000X-0.185000X0.135000X-0.185000X0*%
%ADD25RoundRect,0.147500X0.147500X0.172500X-0.147500X0.172500X-0.147500X-0.172500X0.147500X-0.172500X0*%
%ADD26R,1.200000X1.400000*%
%ADD27R,0.350000X0.350000*%
%ADD28RoundRect,0.250000X-0.262500X-0.450000X0.262500X-0.450000X0.262500X0.450000X-0.262500X0.450000X0*%
%ADD29R,0.750000X0.650000*%
%ADD30R,0.500000X0.250000*%
%ADD31RoundRect,0.225000X-0.225000X-0.250000X0.225000X-0.250000X0.225000X0.250000X-0.225000X0.250000X0*%
%ADD32RoundRect,0.200000X0.200000X0.275000X-0.200000X0.275000X-0.200000X-0.275000X0.200000X-0.275000X0*%
%ADD33R,0.650000X1.050000*%
%ADD34RoundRect,0.112500X-0.187500X-0.112500X0.187500X-0.112500X0.187500X0.112500X-0.187500X0.112500X0*%
%ADD35RoundRect,0.075000X-0.075000X0.350000X-0.075000X-0.350000X0.075000X-0.350000X0.075000X0.350000X0*%
%ADD36RoundRect,0.075000X-0.350000X-0.075000X0.350000X-0.075000X0.350000X0.075000X-0.350000X0.075000X0*%
%ADD37R,0.300000X0.350000*%
%ADD38R,0.350000X0.300000*%
%ADD39R,2.750000X1.000000*%
%ADD40RoundRect,0.147500X0.172500X-0.147500X0.172500X0.147500X-0.172500X0.147500X-0.172500X-0.147500X0*%
%ADD41R,1.270000X3.600000*%
%ADD42R,1.350000X4.200000*%
%ADD43RoundRect,0.250000X0.475000X-0.250000X0.475000X0.250000X-0.475000X0.250000X-0.475000X-0.250000X0*%
%ADD44RoundRect,0.135000X-0.185000X0.135000X-0.185000X-0.135000X0.185000X-0.135000X0.185000X0.135000X0*%
%ADD45RoundRect,0.147500X-0.147500X-0.172500X0.147500X-0.172500X0.147500X0.172500X-0.147500X0.172500X0*%
G04 APERTURE END LIST*
D10*
%TO.C,C10*%
X194818000Y-86075400D03*
X194818000Y-85115400D03*
%TD*%
D11*
%TO.C,C7*%
X192989200Y-91592400D03*
X192029200Y-91592400D03*
%TD*%
D12*
%TO.C,R12*%
X196287200Y-106172000D03*
X197307200Y-106172000D03*
%TD*%
D13*
%TO.C,C6*%
X219506800Y-88365200D03*
X219506800Y-89325200D03*
%TD*%
D14*
%TO.C,C28*%
X169519600Y-118938000D03*
X169519600Y-120838000D03*
%TD*%
D15*
%TO.C,R6*%
X218541600Y-89357200D03*
X218541600Y-88337200D03*
%TD*%
D12*
%TO.C,R3*%
X209825400Y-116408200D03*
X210845400Y-116408200D03*
%TD*%
%TO.C,R7*%
X191971200Y-89712800D03*
X192991200Y-89712800D03*
%TD*%
D15*
%TO.C,R18*%
X213250200Y-107502600D03*
X213250200Y-106482600D03*
%TD*%
D10*
%TO.C,C19*%
X200609200Y-107464800D03*
X200609200Y-106504800D03*
%TD*%
D13*
%TO.C,C26*%
X192278000Y-110292000D03*
X192278000Y-111252000D03*
%TD*%
%TO.C,C22*%
X195326000Y-111605600D03*
X195326000Y-112565600D03*
%TD*%
%TO.C,C15*%
X200533000Y-84130000D03*
X200533000Y-85090000D03*
%TD*%
%TO.C,C14*%
X199593200Y-84127400D03*
X199593200Y-85087400D03*
%TD*%
D16*
%TO.C,C2*%
X188496000Y-115468400D03*
X189456000Y-115468400D03*
%TD*%
D17*
%TO.C,R14*%
X170218600Y-124358400D03*
X171868600Y-124358400D03*
%TD*%
D11*
%TO.C,C9*%
X192989200Y-90652600D03*
X192029200Y-90652600D03*
%TD*%
%TO.C,C23*%
X189021600Y-107952600D03*
X188061600Y-107952600D03*
%TD*%
D10*
%TO.C,C11*%
X195757800Y-86075400D03*
X195757800Y-85115400D03*
%TD*%
D15*
%TO.C,R1*%
X190474600Y-85346000D03*
X190474600Y-84326000D03*
%TD*%
D18*
%TO.C,U6*%
X199322500Y-101204000D03*
X199322500Y-99804000D03*
X199322500Y-98404000D03*
X199322500Y-97004000D03*
X197922500Y-101204000D03*
X197922500Y-99804000D03*
X197922500Y-98404000D03*
X197922500Y-97004000D03*
X196522500Y-101204000D03*
X196522500Y-99804000D03*
X196522500Y-98404000D03*
X196522500Y-97004000D03*
X195122500Y-101204000D03*
X195122500Y-99804000D03*
X195122500Y-98404000D03*
X195122500Y-97004000D03*
D19*
X200660000Y-101854000D03*
X200660000Y-101354000D03*
X200660000Y-100854000D03*
X200660000Y-100354000D03*
X200660000Y-99854000D03*
X200660000Y-99354000D03*
X200660000Y-98854000D03*
X200660000Y-98354000D03*
X200660000Y-97854000D03*
X200660000Y-97354000D03*
X200660000Y-96854000D03*
X200660000Y-96354000D03*
D20*
X199972500Y-95666500D03*
X199472500Y-95666500D03*
X198972500Y-95666500D03*
X198472500Y-95666500D03*
X197972500Y-95666500D03*
X197472500Y-95666500D03*
X196972500Y-95666500D03*
X196472500Y-95666500D03*
X195972500Y-95666500D03*
X195472500Y-95666500D03*
X194972500Y-95666500D03*
X194472500Y-95666500D03*
D19*
X193785000Y-96354000D03*
X193785000Y-96854000D03*
X193785000Y-97354000D03*
X193785000Y-97854000D03*
X193785000Y-98354000D03*
X193785000Y-98854000D03*
X193785000Y-99354000D03*
X193785000Y-99854000D03*
X193785000Y-100354000D03*
X193785000Y-100854000D03*
X193785000Y-101354000D03*
X193785000Y-101854000D03*
D20*
X194472500Y-102541500D03*
X194972500Y-102541500D03*
X195472500Y-102541500D03*
X195972500Y-102541500D03*
X196472500Y-102541500D03*
X196972500Y-102541500D03*
X197472500Y-102541500D03*
X197972500Y-102541500D03*
X198472500Y-102541500D03*
X198972500Y-102541500D03*
X199472500Y-102541500D03*
X199972500Y-102541500D03*
%TD*%
D21*
%TO.C,U1*%
X196479000Y-90541000D03*
X197729000Y-90541000D03*
X196479000Y-89291000D03*
X197729000Y-89291000D03*
D22*
X196104000Y-91853500D03*
X196604000Y-91853500D03*
X197104000Y-91853500D03*
X197604000Y-91853500D03*
X198104000Y-91853500D03*
D23*
X199041500Y-90916000D03*
X199041500Y-90416000D03*
X199041500Y-89916000D03*
X199041500Y-89416000D03*
X199041500Y-88916000D03*
D22*
X198104000Y-87978500D03*
X197604000Y-87978500D03*
X197104000Y-87978500D03*
X196604000Y-87978500D03*
X196104000Y-87978500D03*
D23*
X195166500Y-88916000D03*
X195166500Y-89416000D03*
X195166500Y-89916000D03*
X195166500Y-90416000D03*
X195166500Y-90916000D03*
%TD*%
D24*
%TO.C,R5*%
X167618600Y-85979000D03*
X166598600Y-85979000D03*
%TD*%
D16*
%TO.C,C39*%
X206964400Y-96926400D03*
X207924400Y-96926400D03*
%TD*%
D11*
%TO.C,C3*%
X210842800Y-115443000D03*
X209882800Y-115443000D03*
%TD*%
D25*
%TO.C,L3*%
X198655800Y-85039200D03*
X197685800Y-85039200D03*
%TD*%
D11*
%TO.C,C17*%
X198625400Y-82245200D03*
X197665400Y-82245200D03*
%TD*%
D13*
%TO.C,C1*%
X191414400Y-84356000D03*
X191414400Y-85316000D03*
%TD*%
D26*
%TO.C,Y2*%
X208361399Y-100624999D03*
X208361399Y-98424999D03*
X206661399Y-98424999D03*
X206661399Y-100624999D03*
%TD*%
D27*
%TO.C,IC2*%
X195239999Y-108899399D03*
X195889999Y-108899399D03*
X196539999Y-108899399D03*
X197189999Y-108899399D03*
X197189999Y-110349399D03*
X196539999Y-110349399D03*
X195889999Y-110349399D03*
X195239999Y-110349399D03*
%TD*%
D12*
%TO.C,R4*%
X209825400Y-86258400D03*
X210845400Y-86258400D03*
%TD*%
D28*
%TO.C,FB1*%
X165916600Y-119126000D03*
X167741600Y-119126000D03*
%TD*%
D24*
%TO.C,R9*%
X200406000Y-109982000D03*
X199386000Y-109982000D03*
%TD*%
%TO.C,R2*%
X189513400Y-116408200D03*
X188493400Y-116408200D03*
%TD*%
D10*
%TO.C,C24*%
X190830200Y-106118600D03*
X190830200Y-105158600D03*
%TD*%
D17*
%TO.C,R15*%
X162725600Y-116992400D03*
X164375600Y-116992400D03*
%TD*%
D29*
%TO.C,U7*%
X172227199Y-120363599D03*
X172227199Y-121163599D03*
D30*
X171277199Y-120013599D03*
X171277199Y-120513599D03*
X171277199Y-121013599D03*
X171277199Y-121513599D03*
X173177199Y-121513599D03*
X173177199Y-121013599D03*
X173177199Y-120513599D03*
X173177199Y-120013599D03*
%TD*%
D11*
%TO.C,C13*%
X204520800Y-92354400D03*
X203560800Y-92354400D03*
%TD*%
D31*
%TO.C,C29*%
X165798200Y-115493800D03*
X167348200Y-115493800D03*
%TD*%
D32*
%TO.C,FB2*%
X208246600Y-95707200D03*
X206596600Y-95707200D03*
%TD*%
D33*
%TO.C,SW5*%
X209787599Y-110997999D03*
X209787599Y-106847999D03*
X211937599Y-110997999D03*
X211937599Y-106847999D03*
%TD*%
D13*
%TO.C,C25*%
X191312800Y-110292000D03*
X191312800Y-111252000D03*
%TD*%
D34*
%TO.C,D1*%
X165726400Y-121107200D03*
X167826400Y-121107200D03*
%TD*%
D35*
%TO.C,U2*%
X205065400Y-106827400D03*
X204565400Y-106827400D03*
X204065400Y-106827400D03*
X203565400Y-106827400D03*
X203065400Y-106827400D03*
X202565400Y-106827400D03*
D36*
X201865400Y-107527400D03*
X201865400Y-108027400D03*
X201865400Y-108527400D03*
X201865400Y-109027400D03*
X201865400Y-109527400D03*
X201865400Y-110027400D03*
D35*
X202565400Y-110727400D03*
X203065400Y-110727400D03*
X203565400Y-110727400D03*
X204065400Y-110727400D03*
X204565400Y-110727400D03*
X205065400Y-110727400D03*
D36*
X205765400Y-110027400D03*
X205765400Y-109527400D03*
X205765400Y-109027400D03*
X205765400Y-108527400D03*
X205765400Y-108027400D03*
X205765400Y-107527400D03*
%TD*%
D11*
%TO.C,C21*%
X200399400Y-109042200D03*
X199439400Y-109042200D03*
%TD*%
D10*
%TO.C,C16*%
X196748400Y-83179800D03*
X196748400Y-82219800D03*
%TD*%
D37*
%TO.C,U5*%
X191859599Y-107456599D03*
X191359599Y-107456599D03*
X190859599Y-107456599D03*
X190359599Y-107456599D03*
D38*
X190359599Y-107956599D03*
X190359599Y-108456599D03*
D37*
X190359599Y-108956599D03*
X190859599Y-108956599D03*
X191359599Y-108956599D03*
X191859599Y-108956599D03*
D38*
X191859599Y-108456599D03*
X191859599Y-107956599D03*
%TD*%
D26*
%TO.C,Y1*%
X203165399Y-88638199D03*
X203165399Y-90838199D03*
X204865399Y-90838199D03*
X204865399Y-88638199D03*
%TD*%
D11*
%TO.C,C37*%
X211393400Y-105570200D03*
X210433400Y-105570200D03*
%TD*%
%TO.C,C4*%
X210840200Y-87223600D03*
X209880200Y-87223600D03*
%TD*%
D13*
%TO.C,C18*%
X202590400Y-111892200D03*
X202590400Y-112852200D03*
%TD*%
D11*
%TO.C,C38*%
X207873600Y-102108000D03*
X206913600Y-102108000D03*
%TD*%
D13*
%TO.C,C20*%
X206959200Y-109530000D03*
X206959200Y-110490000D03*
%TD*%
D16*
%TO.C,C12*%
X203484600Y-87147400D03*
X204444600Y-87147400D03*
%TD*%
D39*
%TO.C,L4*%
X175742599Y-120312799D03*
X175742599Y-122612799D03*
%TD*%
D17*
%TO.C,R17*%
X171400200Y-118745000D03*
X173050200Y-118745000D03*
%TD*%
D40*
%TO.C,L2*%
X196748400Y-85064600D03*
X196748400Y-84094600D03*
%TD*%
D41*
%TO.C,J3*%
X197103999Y-78206599D03*
D42*
X199928999Y-78406599D03*
X194278999Y-78406599D03*
%TD*%
D43*
%TO.C,C30*%
X178562000Y-122702400D03*
X178562000Y-120802400D03*
%TD*%
D16*
%TO.C,C5*%
X166629200Y-85039200D03*
X167589200Y-85039200D03*
%TD*%
D13*
%TO.C,C27*%
X196291200Y-111608200D03*
X196291200Y-112568200D03*
%TD*%
D15*
%TO.C,R10*%
X197256400Y-112574800D03*
X197256400Y-111554800D03*
%TD*%
D17*
%TO.C,R13*%
X168555400Y-122834400D03*
X170205400Y-122834400D03*
%TD*%
D32*
%TO.C,R16*%
X164387800Y-115493800D03*
X162737800Y-115493800D03*
%TD*%
D44*
%TO.C,R8*%
X201704000Y-88694800D03*
X201704000Y-89714800D03*
%TD*%
D12*
%TO.C,R19*%
X196287200Y-105206800D03*
X197307200Y-105206800D03*
%TD*%
D45*
%TO.C,L1*%
X196720600Y-86029800D03*
X197690600Y-86029800D03*
%TD*%
D13*
%TO.C,C8*%
X201704000Y-90683200D03*
X201704000Y-91643200D03*
%TD*%
D12*
%TO.C,R11*%
X196287200Y-107137200D03*
X197307200Y-107137200D03*
%TD*%
M02*
