%TF.GenerationSoftware,KiCad,Pcbnew,(7.0.0)*%
%TF.CreationDate,2023-11-05T00:37:01+05:30*%
%TF.ProjectId,Drone_Controller_2.0,44726f6e-655f-4436-9f6e-74726f6c6c65,rev?*%
%TF.SameCoordinates,Original*%
%TF.FileFunction,Legend,Top*%
%TF.FilePolarity,Positive*%
%FSLAX46Y46*%
G04 Gerber Fmt 4.6, Leading zero omitted, Abs format (unit mm)*
G04 Created by KiCad (PCBNEW (7.0.0)) date 2023-11-05 00:37:01*
%MOMM*%
%LPD*%
G01*
G04 APERTURE LIST*
%ADD10C,0.150000*%
%ADD11C,0.100000*%
%ADD12C,0.120000*%
%ADD13C,0.254000*%
%ADD14C,0.016000*%
%ADD15C,0.127000*%
%ADD16C,0.200000*%
G04 APERTURE END LIST*
D10*
%TO.C,J6*%
X163242666Y-80681380D02*
X163242666Y-81395666D01*
X163242666Y-81395666D02*
X163195047Y-81538523D01*
X163195047Y-81538523D02*
X163099809Y-81633761D01*
X163099809Y-81633761D02*
X162956952Y-81681380D01*
X162956952Y-81681380D02*
X162861714Y-81681380D01*
X164147428Y-80681380D02*
X163956952Y-80681380D01*
X163956952Y-80681380D02*
X163861714Y-80729000D01*
X163861714Y-80729000D02*
X163814095Y-80776619D01*
X163814095Y-80776619D02*
X163718857Y-80919476D01*
X163718857Y-80919476D02*
X163671238Y-81109952D01*
X163671238Y-81109952D02*
X163671238Y-81490904D01*
X163671238Y-81490904D02*
X163718857Y-81586142D01*
X163718857Y-81586142D02*
X163766476Y-81633761D01*
X163766476Y-81633761D02*
X163861714Y-81681380D01*
X163861714Y-81681380D02*
X164052190Y-81681380D01*
X164052190Y-81681380D02*
X164147428Y-81633761D01*
X164147428Y-81633761D02*
X164195047Y-81586142D01*
X164195047Y-81586142D02*
X164242666Y-81490904D01*
X164242666Y-81490904D02*
X164242666Y-81252809D01*
X164242666Y-81252809D02*
X164195047Y-81157571D01*
X164195047Y-81157571D02*
X164147428Y-81109952D01*
X164147428Y-81109952D02*
X164052190Y-81062333D01*
X164052190Y-81062333D02*
X163861714Y-81062333D01*
X163861714Y-81062333D02*
X163766476Y-81109952D01*
X163766476Y-81109952D02*
X163718857Y-81157571D01*
X163718857Y-81157571D02*
X163671238Y-81252809D01*
%TO.C,J7*%
X170277380Y-97462933D02*
X170991666Y-97462933D01*
X170991666Y-97462933D02*
X171134523Y-97510552D01*
X171134523Y-97510552D02*
X171229761Y-97605790D01*
X171229761Y-97605790D02*
X171277380Y-97748647D01*
X171277380Y-97748647D02*
X171277380Y-97843885D01*
X170277380Y-97081980D02*
X170277380Y-96415314D01*
X170277380Y-96415314D02*
X171277380Y-96843885D01*
%TO.C,H1*%
X178562095Y-78101380D02*
X178562095Y-77101380D01*
X178562095Y-77577571D02*
X179133523Y-77577571D01*
X179133523Y-78101380D02*
X179133523Y-77101380D01*
X180133523Y-78101380D02*
X179562095Y-78101380D01*
X179847809Y-78101380D02*
X179847809Y-77101380D01*
X179847809Y-77101380D02*
X179752571Y-77244238D01*
X179752571Y-77244238D02*
X179657333Y-77339476D01*
X179657333Y-77339476D02*
X179562095Y-77387095D01*
D11*
%TO.C,C10*%
X193914485Y-84993114D02*
X193943057Y-85021686D01*
X193943057Y-85021686D02*
X193971628Y-85107400D01*
X193971628Y-85107400D02*
X193971628Y-85164543D01*
X193971628Y-85164543D02*
X193943057Y-85250257D01*
X193943057Y-85250257D02*
X193885914Y-85307400D01*
X193885914Y-85307400D02*
X193828771Y-85335971D01*
X193828771Y-85335971D02*
X193714485Y-85364543D01*
X193714485Y-85364543D02*
X193628771Y-85364543D01*
X193628771Y-85364543D02*
X193514485Y-85335971D01*
X193514485Y-85335971D02*
X193457342Y-85307400D01*
X193457342Y-85307400D02*
X193400200Y-85250257D01*
X193400200Y-85250257D02*
X193371628Y-85164543D01*
X193371628Y-85164543D02*
X193371628Y-85107400D01*
X193371628Y-85107400D02*
X193400200Y-85021686D01*
X193400200Y-85021686D02*
X193428771Y-84993114D01*
X193971628Y-84421686D02*
X193971628Y-84764543D01*
X193971628Y-84593114D02*
X193371628Y-84593114D01*
X193371628Y-84593114D02*
X193457342Y-84650257D01*
X193457342Y-84650257D02*
X193514485Y-84707400D01*
X193514485Y-84707400D02*
X193543057Y-84764543D01*
X193371628Y-84050257D02*
X193371628Y-83993114D01*
X193371628Y-83993114D02*
X193400200Y-83935971D01*
X193400200Y-83935971D02*
X193428771Y-83907400D01*
X193428771Y-83907400D02*
X193485914Y-83878828D01*
X193485914Y-83878828D02*
X193600200Y-83850257D01*
X193600200Y-83850257D02*
X193743057Y-83850257D01*
X193743057Y-83850257D02*
X193857342Y-83878828D01*
X193857342Y-83878828D02*
X193914485Y-83907400D01*
X193914485Y-83907400D02*
X193943057Y-83935971D01*
X193943057Y-83935971D02*
X193971628Y-83993114D01*
X193971628Y-83993114D02*
X193971628Y-84050257D01*
X193971628Y-84050257D02*
X193943057Y-84107400D01*
X193943057Y-84107400D02*
X193914485Y-84135971D01*
X193914485Y-84135971D02*
X193857342Y-84164542D01*
X193857342Y-84164542D02*
X193743057Y-84193114D01*
X193743057Y-84193114D02*
X193600200Y-84193114D01*
X193600200Y-84193114D02*
X193485914Y-84164542D01*
X193485914Y-84164542D02*
X193428771Y-84135971D01*
X193428771Y-84135971D02*
X193400200Y-84107400D01*
X193400200Y-84107400D02*
X193371628Y-84050257D01*
%TO.C,C7*%
X190913200Y-91882685D02*
X190884628Y-91911257D01*
X190884628Y-91911257D02*
X190798914Y-91939828D01*
X190798914Y-91939828D02*
X190741771Y-91939828D01*
X190741771Y-91939828D02*
X190656057Y-91911257D01*
X190656057Y-91911257D02*
X190598914Y-91854114D01*
X190598914Y-91854114D02*
X190570343Y-91796971D01*
X190570343Y-91796971D02*
X190541771Y-91682685D01*
X190541771Y-91682685D02*
X190541771Y-91596971D01*
X190541771Y-91596971D02*
X190570343Y-91482685D01*
X190570343Y-91482685D02*
X190598914Y-91425542D01*
X190598914Y-91425542D02*
X190656057Y-91368400D01*
X190656057Y-91368400D02*
X190741771Y-91339828D01*
X190741771Y-91339828D02*
X190798914Y-91339828D01*
X190798914Y-91339828D02*
X190884628Y-91368400D01*
X190884628Y-91368400D02*
X190913200Y-91396971D01*
X191113200Y-91339828D02*
X191513200Y-91339828D01*
X191513200Y-91339828D02*
X191256057Y-91939828D01*
%TO.C,R12*%
X194584685Y-106494028D02*
X194384685Y-106208314D01*
X194241828Y-106494028D02*
X194241828Y-105894028D01*
X194241828Y-105894028D02*
X194470399Y-105894028D01*
X194470399Y-105894028D02*
X194527542Y-105922600D01*
X194527542Y-105922600D02*
X194556113Y-105951171D01*
X194556113Y-105951171D02*
X194584685Y-106008314D01*
X194584685Y-106008314D02*
X194584685Y-106094028D01*
X194584685Y-106094028D02*
X194556113Y-106151171D01*
X194556113Y-106151171D02*
X194527542Y-106179742D01*
X194527542Y-106179742D02*
X194470399Y-106208314D01*
X194470399Y-106208314D02*
X194241828Y-106208314D01*
X195156113Y-106494028D02*
X194813256Y-106494028D01*
X194984685Y-106494028D02*
X194984685Y-105894028D01*
X194984685Y-105894028D02*
X194927542Y-105979742D01*
X194927542Y-105979742D02*
X194870399Y-106036885D01*
X194870399Y-106036885D02*
X194813256Y-106065457D01*
X195384685Y-105951171D02*
X195413257Y-105922600D01*
X195413257Y-105922600D02*
X195470400Y-105894028D01*
X195470400Y-105894028D02*
X195613257Y-105894028D01*
X195613257Y-105894028D02*
X195670400Y-105922600D01*
X195670400Y-105922600D02*
X195698971Y-105951171D01*
X195698971Y-105951171D02*
X195727542Y-106008314D01*
X195727542Y-106008314D02*
X195727542Y-106065457D01*
X195727542Y-106065457D02*
X195698971Y-106151171D01*
X195698971Y-106151171D02*
X195356114Y-106494028D01*
X195356114Y-106494028D02*
X195727542Y-106494028D01*
D10*
%TO.C,C6*%
X220938942Y-89011866D02*
X220986561Y-89059485D01*
X220986561Y-89059485D02*
X221034180Y-89202342D01*
X221034180Y-89202342D02*
X221034180Y-89297580D01*
X221034180Y-89297580D02*
X220986561Y-89440437D01*
X220986561Y-89440437D02*
X220891323Y-89535675D01*
X220891323Y-89535675D02*
X220796085Y-89583294D01*
X220796085Y-89583294D02*
X220605609Y-89630913D01*
X220605609Y-89630913D02*
X220462752Y-89630913D01*
X220462752Y-89630913D02*
X220272276Y-89583294D01*
X220272276Y-89583294D02*
X220177038Y-89535675D01*
X220177038Y-89535675D02*
X220081800Y-89440437D01*
X220081800Y-89440437D02*
X220034180Y-89297580D01*
X220034180Y-89297580D02*
X220034180Y-89202342D01*
X220034180Y-89202342D02*
X220081800Y-89059485D01*
X220081800Y-89059485D02*
X220129419Y-89011866D01*
X220034180Y-88154723D02*
X220034180Y-88345199D01*
X220034180Y-88345199D02*
X220081800Y-88440437D01*
X220081800Y-88440437D02*
X220129419Y-88488056D01*
X220129419Y-88488056D02*
X220272276Y-88583294D01*
X220272276Y-88583294D02*
X220462752Y-88630913D01*
X220462752Y-88630913D02*
X220843704Y-88630913D01*
X220843704Y-88630913D02*
X220938942Y-88583294D01*
X220938942Y-88583294D02*
X220986561Y-88535675D01*
X220986561Y-88535675D02*
X221034180Y-88440437D01*
X221034180Y-88440437D02*
X221034180Y-88249961D01*
X221034180Y-88249961D02*
X220986561Y-88154723D01*
X220986561Y-88154723D02*
X220938942Y-88107104D01*
X220938942Y-88107104D02*
X220843704Y-88059485D01*
X220843704Y-88059485D02*
X220605609Y-88059485D01*
X220605609Y-88059485D02*
X220510371Y-88107104D01*
X220510371Y-88107104D02*
X220462752Y-88154723D01*
X220462752Y-88154723D02*
X220415133Y-88249961D01*
X220415133Y-88249961D02*
X220415133Y-88440437D01*
X220415133Y-88440437D02*
X220462752Y-88535675D01*
X220462752Y-88535675D02*
X220510371Y-88583294D01*
X220510371Y-88583294D02*
X220605609Y-88630913D01*
%TO.C,C28*%
X168978342Y-117950342D02*
X168930723Y-117997961D01*
X168930723Y-117997961D02*
X168787866Y-118045580D01*
X168787866Y-118045580D02*
X168692628Y-118045580D01*
X168692628Y-118045580D02*
X168549771Y-117997961D01*
X168549771Y-117997961D02*
X168454533Y-117902723D01*
X168454533Y-117902723D02*
X168406914Y-117807485D01*
X168406914Y-117807485D02*
X168359295Y-117617009D01*
X168359295Y-117617009D02*
X168359295Y-117474152D01*
X168359295Y-117474152D02*
X168406914Y-117283676D01*
X168406914Y-117283676D02*
X168454533Y-117188438D01*
X168454533Y-117188438D02*
X168549771Y-117093200D01*
X168549771Y-117093200D02*
X168692628Y-117045580D01*
X168692628Y-117045580D02*
X168787866Y-117045580D01*
X168787866Y-117045580D02*
X168930723Y-117093200D01*
X168930723Y-117093200D02*
X168978342Y-117140819D01*
X169359295Y-117140819D02*
X169406914Y-117093200D01*
X169406914Y-117093200D02*
X169502152Y-117045580D01*
X169502152Y-117045580D02*
X169740247Y-117045580D01*
X169740247Y-117045580D02*
X169835485Y-117093200D01*
X169835485Y-117093200D02*
X169883104Y-117140819D01*
X169883104Y-117140819D02*
X169930723Y-117236057D01*
X169930723Y-117236057D02*
X169930723Y-117331295D01*
X169930723Y-117331295D02*
X169883104Y-117474152D01*
X169883104Y-117474152D02*
X169311676Y-118045580D01*
X169311676Y-118045580D02*
X169930723Y-118045580D01*
X170502152Y-117474152D02*
X170406914Y-117426533D01*
X170406914Y-117426533D02*
X170359295Y-117378914D01*
X170359295Y-117378914D02*
X170311676Y-117283676D01*
X170311676Y-117283676D02*
X170311676Y-117236057D01*
X170311676Y-117236057D02*
X170359295Y-117140819D01*
X170359295Y-117140819D02*
X170406914Y-117093200D01*
X170406914Y-117093200D02*
X170502152Y-117045580D01*
X170502152Y-117045580D02*
X170692628Y-117045580D01*
X170692628Y-117045580D02*
X170787866Y-117093200D01*
X170787866Y-117093200D02*
X170835485Y-117140819D01*
X170835485Y-117140819D02*
X170883104Y-117236057D01*
X170883104Y-117236057D02*
X170883104Y-117283676D01*
X170883104Y-117283676D02*
X170835485Y-117378914D01*
X170835485Y-117378914D02*
X170787866Y-117426533D01*
X170787866Y-117426533D02*
X170692628Y-117474152D01*
X170692628Y-117474152D02*
X170502152Y-117474152D01*
X170502152Y-117474152D02*
X170406914Y-117521771D01*
X170406914Y-117521771D02*
X170359295Y-117569390D01*
X170359295Y-117569390D02*
X170311676Y-117664628D01*
X170311676Y-117664628D02*
X170311676Y-117855104D01*
X170311676Y-117855104D02*
X170359295Y-117950342D01*
X170359295Y-117950342D02*
X170406914Y-117997961D01*
X170406914Y-117997961D02*
X170502152Y-118045580D01*
X170502152Y-118045580D02*
X170692628Y-118045580D01*
X170692628Y-118045580D02*
X170787866Y-117997961D01*
X170787866Y-117997961D02*
X170835485Y-117950342D01*
X170835485Y-117950342D02*
X170883104Y-117855104D01*
X170883104Y-117855104D02*
X170883104Y-117664628D01*
X170883104Y-117664628D02*
X170835485Y-117569390D01*
X170835485Y-117569390D02*
X170787866Y-117521771D01*
X170787866Y-117521771D02*
X170692628Y-117474152D01*
%TO.C,R6*%
X218858180Y-90891466D02*
X218381990Y-91224799D01*
X218858180Y-91462894D02*
X217858180Y-91462894D01*
X217858180Y-91462894D02*
X217858180Y-91081942D01*
X217858180Y-91081942D02*
X217905800Y-90986704D01*
X217905800Y-90986704D02*
X217953419Y-90939085D01*
X217953419Y-90939085D02*
X218048657Y-90891466D01*
X218048657Y-90891466D02*
X218191514Y-90891466D01*
X218191514Y-90891466D02*
X218286752Y-90939085D01*
X218286752Y-90939085D02*
X218334371Y-90986704D01*
X218334371Y-90986704D02*
X218381990Y-91081942D01*
X218381990Y-91081942D02*
X218381990Y-91462894D01*
X217858180Y-90034323D02*
X217858180Y-90224799D01*
X217858180Y-90224799D02*
X217905800Y-90320037D01*
X217905800Y-90320037D02*
X217953419Y-90367656D01*
X217953419Y-90367656D02*
X218096276Y-90462894D01*
X218096276Y-90462894D02*
X218286752Y-90510513D01*
X218286752Y-90510513D02*
X218667704Y-90510513D01*
X218667704Y-90510513D02*
X218762942Y-90462894D01*
X218762942Y-90462894D02*
X218810561Y-90415275D01*
X218810561Y-90415275D02*
X218858180Y-90320037D01*
X218858180Y-90320037D02*
X218858180Y-90129561D01*
X218858180Y-90129561D02*
X218810561Y-90034323D01*
X218810561Y-90034323D02*
X218762942Y-89986704D01*
X218762942Y-89986704D02*
X218667704Y-89939085D01*
X218667704Y-89939085D02*
X218429609Y-89939085D01*
X218429609Y-89939085D02*
X218334371Y-89986704D01*
X218334371Y-89986704D02*
X218286752Y-90034323D01*
X218286752Y-90034323D02*
X218239133Y-90129561D01*
X218239133Y-90129561D02*
X218239133Y-90320037D01*
X218239133Y-90320037D02*
X218286752Y-90415275D01*
X218286752Y-90415275D02*
X218334371Y-90462894D01*
X218334371Y-90462894D02*
X218429609Y-90510513D01*
D11*
%TO.C,R3*%
X208738800Y-116679428D02*
X208538800Y-116393714D01*
X208395943Y-116679428D02*
X208395943Y-116079428D01*
X208395943Y-116079428D02*
X208624514Y-116079428D01*
X208624514Y-116079428D02*
X208681657Y-116108000D01*
X208681657Y-116108000D02*
X208710228Y-116136571D01*
X208710228Y-116136571D02*
X208738800Y-116193714D01*
X208738800Y-116193714D02*
X208738800Y-116279428D01*
X208738800Y-116279428D02*
X208710228Y-116336571D01*
X208710228Y-116336571D02*
X208681657Y-116365142D01*
X208681657Y-116365142D02*
X208624514Y-116393714D01*
X208624514Y-116393714D02*
X208395943Y-116393714D01*
X208938800Y-116079428D02*
X209310228Y-116079428D01*
X209310228Y-116079428D02*
X209110228Y-116308000D01*
X209110228Y-116308000D02*
X209195943Y-116308000D01*
X209195943Y-116308000D02*
X209253086Y-116336571D01*
X209253086Y-116336571D02*
X209281657Y-116365142D01*
X209281657Y-116365142D02*
X209310228Y-116422285D01*
X209310228Y-116422285D02*
X209310228Y-116565142D01*
X209310228Y-116565142D02*
X209281657Y-116622285D01*
X209281657Y-116622285D02*
X209253086Y-116650857D01*
X209253086Y-116650857D02*
X209195943Y-116679428D01*
X209195943Y-116679428D02*
X209024514Y-116679428D01*
X209024514Y-116679428D02*
X208967371Y-116650857D01*
X208967371Y-116650857D02*
X208938800Y-116622285D01*
%TO.C,R7*%
X190908000Y-89933228D02*
X190708000Y-89647514D01*
X190565143Y-89933228D02*
X190565143Y-89333228D01*
X190565143Y-89333228D02*
X190793714Y-89333228D01*
X190793714Y-89333228D02*
X190850857Y-89361800D01*
X190850857Y-89361800D02*
X190879428Y-89390371D01*
X190879428Y-89390371D02*
X190908000Y-89447514D01*
X190908000Y-89447514D02*
X190908000Y-89533228D01*
X190908000Y-89533228D02*
X190879428Y-89590371D01*
X190879428Y-89590371D02*
X190850857Y-89618942D01*
X190850857Y-89618942D02*
X190793714Y-89647514D01*
X190793714Y-89647514D02*
X190565143Y-89647514D01*
X191108000Y-89333228D02*
X191508000Y-89333228D01*
X191508000Y-89333228D02*
X191250857Y-89933228D01*
%TO.C,R18*%
X213521428Y-109207114D02*
X213235714Y-109407114D01*
X213521428Y-109549971D02*
X212921428Y-109549971D01*
X212921428Y-109549971D02*
X212921428Y-109321400D01*
X212921428Y-109321400D02*
X212950000Y-109264257D01*
X212950000Y-109264257D02*
X212978571Y-109235686D01*
X212978571Y-109235686D02*
X213035714Y-109207114D01*
X213035714Y-109207114D02*
X213121428Y-109207114D01*
X213121428Y-109207114D02*
X213178571Y-109235686D01*
X213178571Y-109235686D02*
X213207142Y-109264257D01*
X213207142Y-109264257D02*
X213235714Y-109321400D01*
X213235714Y-109321400D02*
X213235714Y-109549971D01*
X213521428Y-108635686D02*
X213521428Y-108978543D01*
X213521428Y-108807114D02*
X212921428Y-108807114D01*
X212921428Y-108807114D02*
X213007142Y-108864257D01*
X213007142Y-108864257D02*
X213064285Y-108921400D01*
X213064285Y-108921400D02*
X213092857Y-108978543D01*
X213178571Y-108292828D02*
X213150000Y-108349971D01*
X213150000Y-108349971D02*
X213121428Y-108378542D01*
X213121428Y-108378542D02*
X213064285Y-108407114D01*
X213064285Y-108407114D02*
X213035714Y-108407114D01*
X213035714Y-108407114D02*
X212978571Y-108378542D01*
X212978571Y-108378542D02*
X212950000Y-108349971D01*
X212950000Y-108349971D02*
X212921428Y-108292828D01*
X212921428Y-108292828D02*
X212921428Y-108178542D01*
X212921428Y-108178542D02*
X212950000Y-108121400D01*
X212950000Y-108121400D02*
X212978571Y-108092828D01*
X212978571Y-108092828D02*
X213035714Y-108064257D01*
X213035714Y-108064257D02*
X213064285Y-108064257D01*
X213064285Y-108064257D02*
X213121428Y-108092828D01*
X213121428Y-108092828D02*
X213150000Y-108121400D01*
X213150000Y-108121400D02*
X213178571Y-108178542D01*
X213178571Y-108178542D02*
X213178571Y-108292828D01*
X213178571Y-108292828D02*
X213207142Y-108349971D01*
X213207142Y-108349971D02*
X213235714Y-108378542D01*
X213235714Y-108378542D02*
X213292857Y-108407114D01*
X213292857Y-108407114D02*
X213407142Y-108407114D01*
X213407142Y-108407114D02*
X213464285Y-108378542D01*
X213464285Y-108378542D02*
X213492857Y-108349971D01*
X213492857Y-108349971D02*
X213521428Y-108292828D01*
X213521428Y-108292828D02*
X213521428Y-108178542D01*
X213521428Y-108178542D02*
X213492857Y-108121400D01*
X213492857Y-108121400D02*
X213464285Y-108092828D01*
X213464285Y-108092828D02*
X213407142Y-108064257D01*
X213407142Y-108064257D02*
X213292857Y-108064257D01*
X213292857Y-108064257D02*
X213235714Y-108092828D01*
X213235714Y-108092828D02*
X213207142Y-108121400D01*
X213207142Y-108121400D02*
X213178571Y-108178542D01*
D10*
%TO.C,SW2*%
X182251761Y-122999332D02*
X182299380Y-122856475D01*
X182299380Y-122856475D02*
X182299380Y-122618380D01*
X182299380Y-122618380D02*
X182251761Y-122523142D01*
X182251761Y-122523142D02*
X182204142Y-122475523D01*
X182204142Y-122475523D02*
X182108904Y-122427904D01*
X182108904Y-122427904D02*
X182013666Y-122427904D01*
X182013666Y-122427904D02*
X181918428Y-122475523D01*
X181918428Y-122475523D02*
X181870809Y-122523142D01*
X181870809Y-122523142D02*
X181823190Y-122618380D01*
X181823190Y-122618380D02*
X181775571Y-122808856D01*
X181775571Y-122808856D02*
X181727952Y-122904094D01*
X181727952Y-122904094D02*
X181680333Y-122951713D01*
X181680333Y-122951713D02*
X181585095Y-122999332D01*
X181585095Y-122999332D02*
X181489857Y-122999332D01*
X181489857Y-122999332D02*
X181394619Y-122951713D01*
X181394619Y-122951713D02*
X181347000Y-122904094D01*
X181347000Y-122904094D02*
X181299380Y-122808856D01*
X181299380Y-122808856D02*
X181299380Y-122570761D01*
X181299380Y-122570761D02*
X181347000Y-122427904D01*
X181299380Y-122094570D02*
X182299380Y-121856475D01*
X182299380Y-121856475D02*
X181585095Y-121665999D01*
X181585095Y-121665999D02*
X182299380Y-121475523D01*
X182299380Y-121475523D02*
X181299380Y-121237428D01*
X181394619Y-120904094D02*
X181347000Y-120856475D01*
X181347000Y-120856475D02*
X181299380Y-120761237D01*
X181299380Y-120761237D02*
X181299380Y-120523142D01*
X181299380Y-120523142D02*
X181347000Y-120427904D01*
X181347000Y-120427904D02*
X181394619Y-120380285D01*
X181394619Y-120380285D02*
X181489857Y-120332666D01*
X181489857Y-120332666D02*
X181585095Y-120332666D01*
X181585095Y-120332666D02*
X181727952Y-120380285D01*
X181727952Y-120380285D02*
X182299380Y-120951713D01*
X182299380Y-120951713D02*
X182299380Y-120332666D01*
%TO.C,J10*%
X170277380Y-105863923D02*
X170991666Y-105863923D01*
X170991666Y-105863923D02*
X171134523Y-105911542D01*
X171134523Y-105911542D02*
X171229761Y-106006780D01*
X171229761Y-106006780D02*
X171277380Y-106149637D01*
X171277380Y-106149637D02*
X171277380Y-106244875D01*
X171277380Y-104863923D02*
X171277380Y-105435351D01*
X171277380Y-105149637D02*
X170277380Y-105149637D01*
X170277380Y-105149637D02*
X170420238Y-105244875D01*
X170420238Y-105244875D02*
X170515476Y-105340113D01*
X170515476Y-105340113D02*
X170563095Y-105435351D01*
X170277380Y-104244875D02*
X170277380Y-104149637D01*
X170277380Y-104149637D02*
X170325000Y-104054399D01*
X170325000Y-104054399D02*
X170372619Y-104006780D01*
X170372619Y-104006780D02*
X170467857Y-103959161D01*
X170467857Y-103959161D02*
X170658333Y-103911542D01*
X170658333Y-103911542D02*
X170896428Y-103911542D01*
X170896428Y-103911542D02*
X171086904Y-103959161D01*
X171086904Y-103959161D02*
X171182142Y-104006780D01*
X171182142Y-104006780D02*
X171229761Y-104054399D01*
X171229761Y-104054399D02*
X171277380Y-104149637D01*
X171277380Y-104149637D02*
X171277380Y-104244875D01*
X171277380Y-104244875D02*
X171229761Y-104340113D01*
X171229761Y-104340113D02*
X171182142Y-104387732D01*
X171182142Y-104387732D02*
X171086904Y-104435351D01*
X171086904Y-104435351D02*
X170896428Y-104482970D01*
X170896428Y-104482970D02*
X170658333Y-104482970D01*
X170658333Y-104482970D02*
X170467857Y-104435351D01*
X170467857Y-104435351D02*
X170372619Y-104387732D01*
X170372619Y-104387732D02*
X170325000Y-104340113D01*
X170325000Y-104340113D02*
X170277380Y-104244875D01*
%TO.C,J9*%
X170277380Y-102746133D02*
X170991666Y-102746133D01*
X170991666Y-102746133D02*
X171134523Y-102793752D01*
X171134523Y-102793752D02*
X171229761Y-102888990D01*
X171229761Y-102888990D02*
X171277380Y-103031847D01*
X171277380Y-103031847D02*
X171277380Y-103127085D01*
X171277380Y-102222323D02*
X171277380Y-102031847D01*
X171277380Y-102031847D02*
X171229761Y-101936609D01*
X171229761Y-101936609D02*
X171182142Y-101888990D01*
X171182142Y-101888990D02*
X171039285Y-101793752D01*
X171039285Y-101793752D02*
X170848809Y-101746133D01*
X170848809Y-101746133D02*
X170467857Y-101746133D01*
X170467857Y-101746133D02*
X170372619Y-101793752D01*
X170372619Y-101793752D02*
X170325000Y-101841371D01*
X170325000Y-101841371D02*
X170277380Y-101936609D01*
X170277380Y-101936609D02*
X170277380Y-102127085D01*
X170277380Y-102127085D02*
X170325000Y-102222323D01*
X170325000Y-102222323D02*
X170372619Y-102269942D01*
X170372619Y-102269942D02*
X170467857Y-102317561D01*
X170467857Y-102317561D02*
X170705952Y-102317561D01*
X170705952Y-102317561D02*
X170801190Y-102269942D01*
X170801190Y-102269942D02*
X170848809Y-102222323D01*
X170848809Y-102222323D02*
X170896428Y-102127085D01*
X170896428Y-102127085D02*
X170896428Y-101936609D01*
X170896428Y-101936609D02*
X170848809Y-101841371D01*
X170848809Y-101841371D02*
X170801190Y-101793752D01*
X170801190Y-101793752D02*
X170705952Y-101746133D01*
D11*
%TO.C,C19*%
X199908885Y-107218114D02*
X199937457Y-107246686D01*
X199937457Y-107246686D02*
X199966028Y-107332400D01*
X199966028Y-107332400D02*
X199966028Y-107389543D01*
X199966028Y-107389543D02*
X199937457Y-107475257D01*
X199937457Y-107475257D02*
X199880314Y-107532400D01*
X199880314Y-107532400D02*
X199823171Y-107560971D01*
X199823171Y-107560971D02*
X199708885Y-107589543D01*
X199708885Y-107589543D02*
X199623171Y-107589543D01*
X199623171Y-107589543D02*
X199508885Y-107560971D01*
X199508885Y-107560971D02*
X199451742Y-107532400D01*
X199451742Y-107532400D02*
X199394600Y-107475257D01*
X199394600Y-107475257D02*
X199366028Y-107389543D01*
X199366028Y-107389543D02*
X199366028Y-107332400D01*
X199366028Y-107332400D02*
X199394600Y-107246686D01*
X199394600Y-107246686D02*
X199423171Y-107218114D01*
X199966028Y-106646686D02*
X199966028Y-106989543D01*
X199966028Y-106818114D02*
X199366028Y-106818114D01*
X199366028Y-106818114D02*
X199451742Y-106875257D01*
X199451742Y-106875257D02*
X199508885Y-106932400D01*
X199508885Y-106932400D02*
X199537457Y-106989543D01*
X199966028Y-106360971D02*
X199966028Y-106246685D01*
X199966028Y-106246685D02*
X199937457Y-106189542D01*
X199937457Y-106189542D02*
X199908885Y-106160971D01*
X199908885Y-106160971D02*
X199823171Y-106103828D01*
X199823171Y-106103828D02*
X199708885Y-106075257D01*
X199708885Y-106075257D02*
X199480314Y-106075257D01*
X199480314Y-106075257D02*
X199423171Y-106103828D01*
X199423171Y-106103828D02*
X199394600Y-106132400D01*
X199394600Y-106132400D02*
X199366028Y-106189542D01*
X199366028Y-106189542D02*
X199366028Y-106303828D01*
X199366028Y-106303828D02*
X199394600Y-106360971D01*
X199394600Y-106360971D02*
X199423171Y-106389542D01*
X199423171Y-106389542D02*
X199480314Y-106418114D01*
X199480314Y-106418114D02*
X199623171Y-106418114D01*
X199623171Y-106418114D02*
X199680314Y-106389542D01*
X199680314Y-106389542D02*
X199708885Y-106360971D01*
X199708885Y-106360971D02*
X199737457Y-106303828D01*
X199737457Y-106303828D02*
X199737457Y-106189542D01*
X199737457Y-106189542D02*
X199708885Y-106132400D01*
X199708885Y-106132400D02*
X199680314Y-106103828D01*
X199680314Y-106103828D02*
X199623171Y-106075257D01*
%TO.C,C26*%
X192441285Y-112884914D02*
X192469857Y-112913486D01*
X192469857Y-112913486D02*
X192498428Y-112999200D01*
X192498428Y-112999200D02*
X192498428Y-113056343D01*
X192498428Y-113056343D02*
X192469857Y-113142057D01*
X192469857Y-113142057D02*
X192412714Y-113199200D01*
X192412714Y-113199200D02*
X192355571Y-113227771D01*
X192355571Y-113227771D02*
X192241285Y-113256343D01*
X192241285Y-113256343D02*
X192155571Y-113256343D01*
X192155571Y-113256343D02*
X192041285Y-113227771D01*
X192041285Y-113227771D02*
X191984142Y-113199200D01*
X191984142Y-113199200D02*
X191927000Y-113142057D01*
X191927000Y-113142057D02*
X191898428Y-113056343D01*
X191898428Y-113056343D02*
X191898428Y-112999200D01*
X191898428Y-112999200D02*
X191927000Y-112913486D01*
X191927000Y-112913486D02*
X191955571Y-112884914D01*
X191955571Y-112656343D02*
X191927000Y-112627771D01*
X191927000Y-112627771D02*
X191898428Y-112570629D01*
X191898428Y-112570629D02*
X191898428Y-112427771D01*
X191898428Y-112427771D02*
X191927000Y-112370629D01*
X191927000Y-112370629D02*
X191955571Y-112342057D01*
X191955571Y-112342057D02*
X192012714Y-112313486D01*
X192012714Y-112313486D02*
X192069857Y-112313486D01*
X192069857Y-112313486D02*
X192155571Y-112342057D01*
X192155571Y-112342057D02*
X192498428Y-112684914D01*
X192498428Y-112684914D02*
X192498428Y-112313486D01*
X191898428Y-111799200D02*
X191898428Y-111913485D01*
X191898428Y-111913485D02*
X191927000Y-111970628D01*
X191927000Y-111970628D02*
X191955571Y-111999200D01*
X191955571Y-111999200D02*
X192041285Y-112056342D01*
X192041285Y-112056342D02*
X192155571Y-112084914D01*
X192155571Y-112084914D02*
X192384142Y-112084914D01*
X192384142Y-112084914D02*
X192441285Y-112056342D01*
X192441285Y-112056342D02*
X192469857Y-112027771D01*
X192469857Y-112027771D02*
X192498428Y-111970628D01*
X192498428Y-111970628D02*
X192498428Y-111856342D01*
X192498428Y-111856342D02*
X192469857Y-111799200D01*
X192469857Y-111799200D02*
X192441285Y-111770628D01*
X192441285Y-111770628D02*
X192384142Y-111742057D01*
X192384142Y-111742057D02*
X192241285Y-111742057D01*
X192241285Y-111742057D02*
X192184142Y-111770628D01*
X192184142Y-111770628D02*
X192155571Y-111799200D01*
X192155571Y-111799200D02*
X192127000Y-111856342D01*
X192127000Y-111856342D02*
X192127000Y-111970628D01*
X192127000Y-111970628D02*
X192155571Y-112027771D01*
X192155571Y-112027771D02*
X192184142Y-112056342D01*
X192184142Y-112056342D02*
X192241285Y-112084914D01*
%TO.C,C22*%
X194600285Y-112550114D02*
X194628857Y-112578686D01*
X194628857Y-112578686D02*
X194657428Y-112664400D01*
X194657428Y-112664400D02*
X194657428Y-112721543D01*
X194657428Y-112721543D02*
X194628857Y-112807257D01*
X194628857Y-112807257D02*
X194571714Y-112864400D01*
X194571714Y-112864400D02*
X194514571Y-112892971D01*
X194514571Y-112892971D02*
X194400285Y-112921543D01*
X194400285Y-112921543D02*
X194314571Y-112921543D01*
X194314571Y-112921543D02*
X194200285Y-112892971D01*
X194200285Y-112892971D02*
X194143142Y-112864400D01*
X194143142Y-112864400D02*
X194086000Y-112807257D01*
X194086000Y-112807257D02*
X194057428Y-112721543D01*
X194057428Y-112721543D02*
X194057428Y-112664400D01*
X194057428Y-112664400D02*
X194086000Y-112578686D01*
X194086000Y-112578686D02*
X194114571Y-112550114D01*
X194114571Y-112321543D02*
X194086000Y-112292971D01*
X194086000Y-112292971D02*
X194057428Y-112235829D01*
X194057428Y-112235829D02*
X194057428Y-112092971D01*
X194057428Y-112092971D02*
X194086000Y-112035829D01*
X194086000Y-112035829D02*
X194114571Y-112007257D01*
X194114571Y-112007257D02*
X194171714Y-111978686D01*
X194171714Y-111978686D02*
X194228857Y-111978686D01*
X194228857Y-111978686D02*
X194314571Y-112007257D01*
X194314571Y-112007257D02*
X194657428Y-112350114D01*
X194657428Y-112350114D02*
X194657428Y-111978686D01*
X194114571Y-111750114D02*
X194086000Y-111721542D01*
X194086000Y-111721542D02*
X194057428Y-111664400D01*
X194057428Y-111664400D02*
X194057428Y-111521542D01*
X194057428Y-111521542D02*
X194086000Y-111464400D01*
X194086000Y-111464400D02*
X194114571Y-111435828D01*
X194114571Y-111435828D02*
X194171714Y-111407257D01*
X194171714Y-111407257D02*
X194228857Y-111407257D01*
X194228857Y-111407257D02*
X194314571Y-111435828D01*
X194314571Y-111435828D02*
X194657428Y-111778685D01*
X194657428Y-111778685D02*
X194657428Y-111407257D01*
D10*
%TO.C,H4*%
X213614095Y-113153380D02*
X213614095Y-112153380D01*
X213614095Y-112629571D02*
X214185523Y-112629571D01*
X214185523Y-113153380D02*
X214185523Y-112153380D01*
X215090285Y-112486714D02*
X215090285Y-113153380D01*
X214852190Y-112105761D02*
X214614095Y-112820047D01*
X214614095Y-112820047D02*
X215233142Y-112820047D01*
%TO.C,J2*%
X190138180Y-115903333D02*
X190852466Y-115903333D01*
X190852466Y-115903333D02*
X190995323Y-115950952D01*
X190995323Y-115950952D02*
X191090561Y-116046190D01*
X191090561Y-116046190D02*
X191138180Y-116189047D01*
X191138180Y-116189047D02*
X191138180Y-116284285D01*
X190233419Y-115474761D02*
X190185800Y-115427142D01*
X190185800Y-115427142D02*
X190138180Y-115331904D01*
X190138180Y-115331904D02*
X190138180Y-115093809D01*
X190138180Y-115093809D02*
X190185800Y-114998571D01*
X190185800Y-114998571D02*
X190233419Y-114950952D01*
X190233419Y-114950952D02*
X190328657Y-114903333D01*
X190328657Y-114903333D02*
X190423895Y-114903333D01*
X190423895Y-114903333D02*
X190566752Y-114950952D01*
X190566752Y-114950952D02*
X191138180Y-115522380D01*
X191138180Y-115522380D02*
X191138180Y-114903333D01*
D11*
%TO.C,C15*%
X200797885Y-83265914D02*
X200826457Y-83294486D01*
X200826457Y-83294486D02*
X200855028Y-83380200D01*
X200855028Y-83380200D02*
X200855028Y-83437343D01*
X200855028Y-83437343D02*
X200826457Y-83523057D01*
X200826457Y-83523057D02*
X200769314Y-83580200D01*
X200769314Y-83580200D02*
X200712171Y-83608771D01*
X200712171Y-83608771D02*
X200597885Y-83637343D01*
X200597885Y-83637343D02*
X200512171Y-83637343D01*
X200512171Y-83637343D02*
X200397885Y-83608771D01*
X200397885Y-83608771D02*
X200340742Y-83580200D01*
X200340742Y-83580200D02*
X200283600Y-83523057D01*
X200283600Y-83523057D02*
X200255028Y-83437343D01*
X200255028Y-83437343D02*
X200255028Y-83380200D01*
X200255028Y-83380200D02*
X200283600Y-83294486D01*
X200283600Y-83294486D02*
X200312171Y-83265914D01*
X200855028Y-82694486D02*
X200855028Y-83037343D01*
X200855028Y-82865914D02*
X200255028Y-82865914D01*
X200255028Y-82865914D02*
X200340742Y-82923057D01*
X200340742Y-82923057D02*
X200397885Y-82980200D01*
X200397885Y-82980200D02*
X200426457Y-83037343D01*
X200255028Y-82151628D02*
X200255028Y-82437342D01*
X200255028Y-82437342D02*
X200540742Y-82465914D01*
X200540742Y-82465914D02*
X200512171Y-82437342D01*
X200512171Y-82437342D02*
X200483600Y-82380200D01*
X200483600Y-82380200D02*
X200483600Y-82237342D01*
X200483600Y-82237342D02*
X200512171Y-82180200D01*
X200512171Y-82180200D02*
X200540742Y-82151628D01*
X200540742Y-82151628D02*
X200597885Y-82123057D01*
X200597885Y-82123057D02*
X200740742Y-82123057D01*
X200740742Y-82123057D02*
X200797885Y-82151628D01*
X200797885Y-82151628D02*
X200826457Y-82180200D01*
X200826457Y-82180200D02*
X200855028Y-82237342D01*
X200855028Y-82237342D02*
X200855028Y-82380200D01*
X200855028Y-82380200D02*
X200826457Y-82437342D01*
X200826457Y-82437342D02*
X200797885Y-82465914D01*
%TO.C,C14*%
X199756485Y-83291314D02*
X199785057Y-83319886D01*
X199785057Y-83319886D02*
X199813628Y-83405600D01*
X199813628Y-83405600D02*
X199813628Y-83462743D01*
X199813628Y-83462743D02*
X199785057Y-83548457D01*
X199785057Y-83548457D02*
X199727914Y-83605600D01*
X199727914Y-83605600D02*
X199670771Y-83634171D01*
X199670771Y-83634171D02*
X199556485Y-83662743D01*
X199556485Y-83662743D02*
X199470771Y-83662743D01*
X199470771Y-83662743D02*
X199356485Y-83634171D01*
X199356485Y-83634171D02*
X199299342Y-83605600D01*
X199299342Y-83605600D02*
X199242200Y-83548457D01*
X199242200Y-83548457D02*
X199213628Y-83462743D01*
X199213628Y-83462743D02*
X199213628Y-83405600D01*
X199213628Y-83405600D02*
X199242200Y-83319886D01*
X199242200Y-83319886D02*
X199270771Y-83291314D01*
X199813628Y-82719886D02*
X199813628Y-83062743D01*
X199813628Y-82891314D02*
X199213628Y-82891314D01*
X199213628Y-82891314D02*
X199299342Y-82948457D01*
X199299342Y-82948457D02*
X199356485Y-83005600D01*
X199356485Y-83005600D02*
X199385057Y-83062743D01*
X199413628Y-82205600D02*
X199813628Y-82205600D01*
X199185057Y-82348457D02*
X199613628Y-82491314D01*
X199613628Y-82491314D02*
X199613628Y-82119885D01*
%TO.C,C2*%
X187402800Y-115631685D02*
X187374228Y-115660257D01*
X187374228Y-115660257D02*
X187288514Y-115688828D01*
X187288514Y-115688828D02*
X187231371Y-115688828D01*
X187231371Y-115688828D02*
X187145657Y-115660257D01*
X187145657Y-115660257D02*
X187088514Y-115603114D01*
X187088514Y-115603114D02*
X187059943Y-115545971D01*
X187059943Y-115545971D02*
X187031371Y-115431685D01*
X187031371Y-115431685D02*
X187031371Y-115345971D01*
X187031371Y-115345971D02*
X187059943Y-115231685D01*
X187059943Y-115231685D02*
X187088514Y-115174542D01*
X187088514Y-115174542D02*
X187145657Y-115117400D01*
X187145657Y-115117400D02*
X187231371Y-115088828D01*
X187231371Y-115088828D02*
X187288514Y-115088828D01*
X187288514Y-115088828D02*
X187374228Y-115117400D01*
X187374228Y-115117400D02*
X187402800Y-115145971D01*
X187631371Y-115145971D02*
X187659943Y-115117400D01*
X187659943Y-115117400D02*
X187717086Y-115088828D01*
X187717086Y-115088828D02*
X187859943Y-115088828D01*
X187859943Y-115088828D02*
X187917086Y-115117400D01*
X187917086Y-115117400D02*
X187945657Y-115145971D01*
X187945657Y-115145971D02*
X187974228Y-115203114D01*
X187974228Y-115203114D02*
X187974228Y-115260257D01*
X187974228Y-115260257D02*
X187945657Y-115345971D01*
X187945657Y-115345971D02*
X187602800Y-115688828D01*
X187602800Y-115688828D02*
X187974228Y-115688828D01*
D10*
%TO.C,R14*%
X173296342Y-124852780D02*
X172963009Y-124376590D01*
X172724914Y-124852780D02*
X172724914Y-123852780D01*
X172724914Y-123852780D02*
X173105866Y-123852780D01*
X173105866Y-123852780D02*
X173201104Y-123900400D01*
X173201104Y-123900400D02*
X173248723Y-123948019D01*
X173248723Y-123948019D02*
X173296342Y-124043257D01*
X173296342Y-124043257D02*
X173296342Y-124186114D01*
X173296342Y-124186114D02*
X173248723Y-124281352D01*
X173248723Y-124281352D02*
X173201104Y-124328971D01*
X173201104Y-124328971D02*
X173105866Y-124376590D01*
X173105866Y-124376590D02*
X172724914Y-124376590D01*
X174248723Y-124852780D02*
X173677295Y-124852780D01*
X173963009Y-124852780D02*
X173963009Y-123852780D01*
X173963009Y-123852780D02*
X173867771Y-123995638D01*
X173867771Y-123995638D02*
X173772533Y-124090876D01*
X173772533Y-124090876D02*
X173677295Y-124138495D01*
X175105866Y-124186114D02*
X175105866Y-124852780D01*
X174867771Y-123805161D02*
X174629676Y-124519447D01*
X174629676Y-124519447D02*
X175248723Y-124519447D01*
D11*
%TO.C,C9*%
X190887800Y-90815885D02*
X190859228Y-90844457D01*
X190859228Y-90844457D02*
X190773514Y-90873028D01*
X190773514Y-90873028D02*
X190716371Y-90873028D01*
X190716371Y-90873028D02*
X190630657Y-90844457D01*
X190630657Y-90844457D02*
X190573514Y-90787314D01*
X190573514Y-90787314D02*
X190544943Y-90730171D01*
X190544943Y-90730171D02*
X190516371Y-90615885D01*
X190516371Y-90615885D02*
X190516371Y-90530171D01*
X190516371Y-90530171D02*
X190544943Y-90415885D01*
X190544943Y-90415885D02*
X190573514Y-90358742D01*
X190573514Y-90358742D02*
X190630657Y-90301600D01*
X190630657Y-90301600D02*
X190716371Y-90273028D01*
X190716371Y-90273028D02*
X190773514Y-90273028D01*
X190773514Y-90273028D02*
X190859228Y-90301600D01*
X190859228Y-90301600D02*
X190887800Y-90330171D01*
X191173514Y-90873028D02*
X191287800Y-90873028D01*
X191287800Y-90873028D02*
X191344943Y-90844457D01*
X191344943Y-90844457D02*
X191373514Y-90815885D01*
X191373514Y-90815885D02*
X191430657Y-90730171D01*
X191430657Y-90730171D02*
X191459228Y-90615885D01*
X191459228Y-90615885D02*
X191459228Y-90387314D01*
X191459228Y-90387314D02*
X191430657Y-90330171D01*
X191430657Y-90330171D02*
X191402086Y-90301600D01*
X191402086Y-90301600D02*
X191344943Y-90273028D01*
X191344943Y-90273028D02*
X191230657Y-90273028D01*
X191230657Y-90273028D02*
X191173514Y-90301600D01*
X191173514Y-90301600D02*
X191144943Y-90330171D01*
X191144943Y-90330171D02*
X191116371Y-90387314D01*
X191116371Y-90387314D02*
X191116371Y-90530171D01*
X191116371Y-90530171D02*
X191144943Y-90587314D01*
X191144943Y-90587314D02*
X191173514Y-90615885D01*
X191173514Y-90615885D02*
X191230657Y-90644457D01*
X191230657Y-90644457D02*
X191344943Y-90644457D01*
X191344943Y-90644457D02*
X191402086Y-90615885D01*
X191402086Y-90615885D02*
X191430657Y-90587314D01*
X191430657Y-90587314D02*
X191459228Y-90530171D01*
%TO.C,C23*%
X186405885Y-108242885D02*
X186377313Y-108271457D01*
X186377313Y-108271457D02*
X186291599Y-108300028D01*
X186291599Y-108300028D02*
X186234456Y-108300028D01*
X186234456Y-108300028D02*
X186148742Y-108271457D01*
X186148742Y-108271457D02*
X186091599Y-108214314D01*
X186091599Y-108214314D02*
X186063028Y-108157171D01*
X186063028Y-108157171D02*
X186034456Y-108042885D01*
X186034456Y-108042885D02*
X186034456Y-107957171D01*
X186034456Y-107957171D02*
X186063028Y-107842885D01*
X186063028Y-107842885D02*
X186091599Y-107785742D01*
X186091599Y-107785742D02*
X186148742Y-107728600D01*
X186148742Y-107728600D02*
X186234456Y-107700028D01*
X186234456Y-107700028D02*
X186291599Y-107700028D01*
X186291599Y-107700028D02*
X186377313Y-107728600D01*
X186377313Y-107728600D02*
X186405885Y-107757171D01*
X186634456Y-107757171D02*
X186663028Y-107728600D01*
X186663028Y-107728600D02*
X186720171Y-107700028D01*
X186720171Y-107700028D02*
X186863028Y-107700028D01*
X186863028Y-107700028D02*
X186920171Y-107728600D01*
X186920171Y-107728600D02*
X186948742Y-107757171D01*
X186948742Y-107757171D02*
X186977313Y-107814314D01*
X186977313Y-107814314D02*
X186977313Y-107871457D01*
X186977313Y-107871457D02*
X186948742Y-107957171D01*
X186948742Y-107957171D02*
X186605885Y-108300028D01*
X186605885Y-108300028D02*
X186977313Y-108300028D01*
X187177314Y-107700028D02*
X187548742Y-107700028D01*
X187548742Y-107700028D02*
X187348742Y-107928600D01*
X187348742Y-107928600D02*
X187434457Y-107928600D01*
X187434457Y-107928600D02*
X187491600Y-107957171D01*
X187491600Y-107957171D02*
X187520171Y-107985742D01*
X187520171Y-107985742D02*
X187548742Y-108042885D01*
X187548742Y-108042885D02*
X187548742Y-108185742D01*
X187548742Y-108185742D02*
X187520171Y-108242885D01*
X187520171Y-108242885D02*
X187491600Y-108271457D01*
X187491600Y-108271457D02*
X187434457Y-108300028D01*
X187434457Y-108300028D02*
X187263028Y-108300028D01*
X187263028Y-108300028D02*
X187205885Y-108271457D01*
X187205885Y-108271457D02*
X187177314Y-108242885D01*
%TO.C,C11*%
X194635485Y-84288085D02*
X194606913Y-84316657D01*
X194606913Y-84316657D02*
X194521199Y-84345228D01*
X194521199Y-84345228D02*
X194464056Y-84345228D01*
X194464056Y-84345228D02*
X194378342Y-84316657D01*
X194378342Y-84316657D02*
X194321199Y-84259514D01*
X194321199Y-84259514D02*
X194292628Y-84202371D01*
X194292628Y-84202371D02*
X194264056Y-84088085D01*
X194264056Y-84088085D02*
X194264056Y-84002371D01*
X194264056Y-84002371D02*
X194292628Y-83888085D01*
X194292628Y-83888085D02*
X194321199Y-83830942D01*
X194321199Y-83830942D02*
X194378342Y-83773800D01*
X194378342Y-83773800D02*
X194464056Y-83745228D01*
X194464056Y-83745228D02*
X194521199Y-83745228D01*
X194521199Y-83745228D02*
X194606913Y-83773800D01*
X194606913Y-83773800D02*
X194635485Y-83802371D01*
X195206913Y-84345228D02*
X194864056Y-84345228D01*
X195035485Y-84345228D02*
X195035485Y-83745228D01*
X195035485Y-83745228D02*
X194978342Y-83830942D01*
X194978342Y-83830942D02*
X194921199Y-83888085D01*
X194921199Y-83888085D02*
X194864056Y-83916657D01*
X195778342Y-84345228D02*
X195435485Y-84345228D01*
X195606914Y-84345228D02*
X195606914Y-83745228D01*
X195606914Y-83745228D02*
X195549771Y-83830942D01*
X195549771Y-83830942D02*
X195492628Y-83888085D01*
X195492628Y-83888085D02*
X195435485Y-83916657D01*
%TO.C,R1*%
X190669628Y-83462799D02*
X190383914Y-83662799D01*
X190669628Y-83805656D02*
X190069628Y-83805656D01*
X190069628Y-83805656D02*
X190069628Y-83577085D01*
X190069628Y-83577085D02*
X190098200Y-83519942D01*
X190098200Y-83519942D02*
X190126771Y-83491371D01*
X190126771Y-83491371D02*
X190183914Y-83462799D01*
X190183914Y-83462799D02*
X190269628Y-83462799D01*
X190269628Y-83462799D02*
X190326771Y-83491371D01*
X190326771Y-83491371D02*
X190355342Y-83519942D01*
X190355342Y-83519942D02*
X190383914Y-83577085D01*
X190383914Y-83577085D02*
X190383914Y-83805656D01*
X190669628Y-82891371D02*
X190669628Y-83234228D01*
X190669628Y-83062799D02*
X190069628Y-83062799D01*
X190069628Y-83062799D02*
X190155342Y-83119942D01*
X190155342Y-83119942D02*
X190212485Y-83177085D01*
X190212485Y-83177085D02*
X190241057Y-83234228D01*
D10*
%TO.C,U6*%
X191414495Y-98376580D02*
X191414495Y-99186104D01*
X191414495Y-99186104D02*
X191462114Y-99281342D01*
X191462114Y-99281342D02*
X191509733Y-99328961D01*
X191509733Y-99328961D02*
X191604971Y-99376580D01*
X191604971Y-99376580D02*
X191795447Y-99376580D01*
X191795447Y-99376580D02*
X191890685Y-99328961D01*
X191890685Y-99328961D02*
X191938304Y-99281342D01*
X191938304Y-99281342D02*
X191985923Y-99186104D01*
X191985923Y-99186104D02*
X191985923Y-98376580D01*
X192890685Y-98376580D02*
X192700209Y-98376580D01*
X192700209Y-98376580D02*
X192604971Y-98424200D01*
X192604971Y-98424200D02*
X192557352Y-98471819D01*
X192557352Y-98471819D02*
X192462114Y-98614676D01*
X192462114Y-98614676D02*
X192414495Y-98805152D01*
X192414495Y-98805152D02*
X192414495Y-99186104D01*
X192414495Y-99186104D02*
X192462114Y-99281342D01*
X192462114Y-99281342D02*
X192509733Y-99328961D01*
X192509733Y-99328961D02*
X192604971Y-99376580D01*
X192604971Y-99376580D02*
X192795447Y-99376580D01*
X192795447Y-99376580D02*
X192890685Y-99328961D01*
X192890685Y-99328961D02*
X192938304Y-99281342D01*
X192938304Y-99281342D02*
X192985923Y-99186104D01*
X192985923Y-99186104D02*
X192985923Y-98948009D01*
X192985923Y-98948009D02*
X192938304Y-98852771D01*
X192938304Y-98852771D02*
X192890685Y-98805152D01*
X192890685Y-98805152D02*
X192795447Y-98757533D01*
X192795447Y-98757533D02*
X192604971Y-98757533D01*
X192604971Y-98757533D02*
X192509733Y-98805152D01*
X192509733Y-98805152D02*
X192462114Y-98852771D01*
X192462114Y-98852771D02*
X192414495Y-98948009D01*
%TO.C,U1*%
X196392895Y-92636180D02*
X196392895Y-93445704D01*
X196392895Y-93445704D02*
X196440514Y-93540942D01*
X196440514Y-93540942D02*
X196488133Y-93588561D01*
X196488133Y-93588561D02*
X196583371Y-93636180D01*
X196583371Y-93636180D02*
X196773847Y-93636180D01*
X196773847Y-93636180D02*
X196869085Y-93588561D01*
X196869085Y-93588561D02*
X196916704Y-93540942D01*
X196916704Y-93540942D02*
X196964323Y-93445704D01*
X196964323Y-93445704D02*
X196964323Y-92636180D01*
X197964323Y-93636180D02*
X197392895Y-93636180D01*
X197678609Y-93636180D02*
X197678609Y-92636180D01*
X197678609Y-92636180D02*
X197583371Y-92779038D01*
X197583371Y-92779038D02*
X197488133Y-92874276D01*
X197488133Y-92874276D02*
X197392895Y-92921895D01*
%TO.C,R5*%
X165136533Y-86397180D02*
X164803200Y-85920990D01*
X164565105Y-86397180D02*
X164565105Y-85397180D01*
X164565105Y-85397180D02*
X164946057Y-85397180D01*
X164946057Y-85397180D02*
X165041295Y-85444800D01*
X165041295Y-85444800D02*
X165088914Y-85492419D01*
X165088914Y-85492419D02*
X165136533Y-85587657D01*
X165136533Y-85587657D02*
X165136533Y-85730514D01*
X165136533Y-85730514D02*
X165088914Y-85825752D01*
X165088914Y-85825752D02*
X165041295Y-85873371D01*
X165041295Y-85873371D02*
X164946057Y-85920990D01*
X164946057Y-85920990D02*
X164565105Y-85920990D01*
X166041295Y-85397180D02*
X165565105Y-85397180D01*
X165565105Y-85397180D02*
X165517486Y-85873371D01*
X165517486Y-85873371D02*
X165565105Y-85825752D01*
X165565105Y-85825752D02*
X165660343Y-85778133D01*
X165660343Y-85778133D02*
X165898438Y-85778133D01*
X165898438Y-85778133D02*
X165993676Y-85825752D01*
X165993676Y-85825752D02*
X166041295Y-85873371D01*
X166041295Y-85873371D02*
X166088914Y-85968609D01*
X166088914Y-85968609D02*
X166088914Y-86206704D01*
X166088914Y-86206704D02*
X166041295Y-86301942D01*
X166041295Y-86301942D02*
X165993676Y-86349561D01*
X165993676Y-86349561D02*
X165898438Y-86397180D01*
X165898438Y-86397180D02*
X165660343Y-86397180D01*
X165660343Y-86397180D02*
X165565105Y-86349561D01*
X165565105Y-86349561D02*
X165517486Y-86301942D01*
D11*
%TO.C,C39*%
X208813885Y-97140485D02*
X208785313Y-97169057D01*
X208785313Y-97169057D02*
X208699599Y-97197628D01*
X208699599Y-97197628D02*
X208642456Y-97197628D01*
X208642456Y-97197628D02*
X208556742Y-97169057D01*
X208556742Y-97169057D02*
X208499599Y-97111914D01*
X208499599Y-97111914D02*
X208471028Y-97054771D01*
X208471028Y-97054771D02*
X208442456Y-96940485D01*
X208442456Y-96940485D02*
X208442456Y-96854771D01*
X208442456Y-96854771D02*
X208471028Y-96740485D01*
X208471028Y-96740485D02*
X208499599Y-96683342D01*
X208499599Y-96683342D02*
X208556742Y-96626200D01*
X208556742Y-96626200D02*
X208642456Y-96597628D01*
X208642456Y-96597628D02*
X208699599Y-96597628D01*
X208699599Y-96597628D02*
X208785313Y-96626200D01*
X208785313Y-96626200D02*
X208813885Y-96654771D01*
X209013885Y-96597628D02*
X209385313Y-96597628D01*
X209385313Y-96597628D02*
X209185313Y-96826200D01*
X209185313Y-96826200D02*
X209271028Y-96826200D01*
X209271028Y-96826200D02*
X209328171Y-96854771D01*
X209328171Y-96854771D02*
X209356742Y-96883342D01*
X209356742Y-96883342D02*
X209385313Y-96940485D01*
X209385313Y-96940485D02*
X209385313Y-97083342D01*
X209385313Y-97083342D02*
X209356742Y-97140485D01*
X209356742Y-97140485D02*
X209328171Y-97169057D01*
X209328171Y-97169057D02*
X209271028Y-97197628D01*
X209271028Y-97197628D02*
X209099599Y-97197628D01*
X209099599Y-97197628D02*
X209042456Y-97169057D01*
X209042456Y-97169057D02*
X209013885Y-97140485D01*
X209671028Y-97197628D02*
X209785314Y-97197628D01*
X209785314Y-97197628D02*
X209842457Y-97169057D01*
X209842457Y-97169057D02*
X209871028Y-97140485D01*
X209871028Y-97140485D02*
X209928171Y-97054771D01*
X209928171Y-97054771D02*
X209956742Y-96940485D01*
X209956742Y-96940485D02*
X209956742Y-96711914D01*
X209956742Y-96711914D02*
X209928171Y-96654771D01*
X209928171Y-96654771D02*
X209899600Y-96626200D01*
X209899600Y-96626200D02*
X209842457Y-96597628D01*
X209842457Y-96597628D02*
X209728171Y-96597628D01*
X209728171Y-96597628D02*
X209671028Y-96626200D01*
X209671028Y-96626200D02*
X209642457Y-96654771D01*
X209642457Y-96654771D02*
X209613885Y-96711914D01*
X209613885Y-96711914D02*
X209613885Y-96854771D01*
X209613885Y-96854771D02*
X209642457Y-96911914D01*
X209642457Y-96911914D02*
X209671028Y-96940485D01*
X209671028Y-96940485D02*
X209728171Y-96969057D01*
X209728171Y-96969057D02*
X209842457Y-96969057D01*
X209842457Y-96969057D02*
X209899600Y-96940485D01*
X209899600Y-96940485D02*
X209928171Y-96911914D01*
X209928171Y-96911914D02*
X209956742Y-96854771D01*
%TO.C,C3*%
X208764200Y-115657085D02*
X208735628Y-115685657D01*
X208735628Y-115685657D02*
X208649914Y-115714228D01*
X208649914Y-115714228D02*
X208592771Y-115714228D01*
X208592771Y-115714228D02*
X208507057Y-115685657D01*
X208507057Y-115685657D02*
X208449914Y-115628514D01*
X208449914Y-115628514D02*
X208421343Y-115571371D01*
X208421343Y-115571371D02*
X208392771Y-115457085D01*
X208392771Y-115457085D02*
X208392771Y-115371371D01*
X208392771Y-115371371D02*
X208421343Y-115257085D01*
X208421343Y-115257085D02*
X208449914Y-115199942D01*
X208449914Y-115199942D02*
X208507057Y-115142800D01*
X208507057Y-115142800D02*
X208592771Y-115114228D01*
X208592771Y-115114228D02*
X208649914Y-115114228D01*
X208649914Y-115114228D02*
X208735628Y-115142800D01*
X208735628Y-115142800D02*
X208764200Y-115171371D01*
X208964200Y-115114228D02*
X209335628Y-115114228D01*
X209335628Y-115114228D02*
X209135628Y-115342800D01*
X209135628Y-115342800D02*
X209221343Y-115342800D01*
X209221343Y-115342800D02*
X209278486Y-115371371D01*
X209278486Y-115371371D02*
X209307057Y-115399942D01*
X209307057Y-115399942D02*
X209335628Y-115457085D01*
X209335628Y-115457085D02*
X209335628Y-115599942D01*
X209335628Y-115599942D02*
X209307057Y-115657085D01*
X209307057Y-115657085D02*
X209278486Y-115685657D01*
X209278486Y-115685657D02*
X209221343Y-115714228D01*
X209221343Y-115714228D02*
X209049914Y-115714228D01*
X209049914Y-115714228D02*
X208992771Y-115685657D01*
X208992771Y-115685657D02*
X208964200Y-115657085D01*
%TO.C,L3*%
X198528000Y-84446828D02*
X198242286Y-84446828D01*
X198242286Y-84446828D02*
X198242286Y-83846828D01*
X198670857Y-83846828D02*
X199042285Y-83846828D01*
X199042285Y-83846828D02*
X198842285Y-84075400D01*
X198842285Y-84075400D02*
X198928000Y-84075400D01*
X198928000Y-84075400D02*
X198985143Y-84103971D01*
X198985143Y-84103971D02*
X199013714Y-84132542D01*
X199013714Y-84132542D02*
X199042285Y-84189685D01*
X199042285Y-84189685D02*
X199042285Y-84332542D01*
X199042285Y-84332542D02*
X199013714Y-84389685D01*
X199013714Y-84389685D02*
X198985143Y-84418257D01*
X198985143Y-84418257D02*
X198928000Y-84446828D01*
X198928000Y-84446828D02*
X198756571Y-84446828D01*
X198756571Y-84446828D02*
X198699428Y-84418257D01*
X198699428Y-84418257D02*
X198670857Y-84389685D01*
%TO.C,C17*%
X197785085Y-81646485D02*
X197756513Y-81675057D01*
X197756513Y-81675057D02*
X197670799Y-81703628D01*
X197670799Y-81703628D02*
X197613656Y-81703628D01*
X197613656Y-81703628D02*
X197527942Y-81675057D01*
X197527942Y-81675057D02*
X197470799Y-81617914D01*
X197470799Y-81617914D02*
X197442228Y-81560771D01*
X197442228Y-81560771D02*
X197413656Y-81446485D01*
X197413656Y-81446485D02*
X197413656Y-81360771D01*
X197413656Y-81360771D02*
X197442228Y-81246485D01*
X197442228Y-81246485D02*
X197470799Y-81189342D01*
X197470799Y-81189342D02*
X197527942Y-81132200D01*
X197527942Y-81132200D02*
X197613656Y-81103628D01*
X197613656Y-81103628D02*
X197670799Y-81103628D01*
X197670799Y-81103628D02*
X197756513Y-81132200D01*
X197756513Y-81132200D02*
X197785085Y-81160771D01*
X198356513Y-81703628D02*
X198013656Y-81703628D01*
X198185085Y-81703628D02*
X198185085Y-81103628D01*
X198185085Y-81103628D02*
X198127942Y-81189342D01*
X198127942Y-81189342D02*
X198070799Y-81246485D01*
X198070799Y-81246485D02*
X198013656Y-81275057D01*
X198556514Y-81103628D02*
X198956514Y-81103628D01*
X198956514Y-81103628D02*
X198699371Y-81703628D01*
%TO.C,C1*%
X191603085Y-83462799D02*
X191631657Y-83491371D01*
X191631657Y-83491371D02*
X191660228Y-83577085D01*
X191660228Y-83577085D02*
X191660228Y-83634228D01*
X191660228Y-83634228D02*
X191631657Y-83719942D01*
X191631657Y-83719942D02*
X191574514Y-83777085D01*
X191574514Y-83777085D02*
X191517371Y-83805656D01*
X191517371Y-83805656D02*
X191403085Y-83834228D01*
X191403085Y-83834228D02*
X191317371Y-83834228D01*
X191317371Y-83834228D02*
X191203085Y-83805656D01*
X191203085Y-83805656D02*
X191145942Y-83777085D01*
X191145942Y-83777085D02*
X191088800Y-83719942D01*
X191088800Y-83719942D02*
X191060228Y-83634228D01*
X191060228Y-83634228D02*
X191060228Y-83577085D01*
X191060228Y-83577085D02*
X191088800Y-83491371D01*
X191088800Y-83491371D02*
X191117371Y-83462799D01*
X191660228Y-82891371D02*
X191660228Y-83234228D01*
X191660228Y-83062799D02*
X191060228Y-83062799D01*
X191060228Y-83062799D02*
X191145942Y-83119942D01*
X191145942Y-83119942D02*
X191203085Y-83177085D01*
X191203085Y-83177085D02*
X191231657Y-83234228D01*
D10*
%TO.C,Y2*%
X204952590Y-100001190D02*
X205428780Y-100001190D01*
X204428780Y-100334523D02*
X204952590Y-100001190D01*
X204952590Y-100001190D02*
X204428780Y-99667857D01*
X204524019Y-99382142D02*
X204476400Y-99334523D01*
X204476400Y-99334523D02*
X204428780Y-99239285D01*
X204428780Y-99239285D02*
X204428780Y-99001190D01*
X204428780Y-99001190D02*
X204476400Y-98905952D01*
X204476400Y-98905952D02*
X204524019Y-98858333D01*
X204524019Y-98858333D02*
X204619257Y-98810714D01*
X204619257Y-98810714D02*
X204714495Y-98810714D01*
X204714495Y-98810714D02*
X204857352Y-98858333D01*
X204857352Y-98858333D02*
X205428780Y-99429761D01*
X205428780Y-99429761D02*
X205428780Y-98810714D01*
%TO.C,SW4*%
X203587761Y-82359332D02*
X203635380Y-82216475D01*
X203635380Y-82216475D02*
X203635380Y-81978380D01*
X203635380Y-81978380D02*
X203587761Y-81883142D01*
X203587761Y-81883142D02*
X203540142Y-81835523D01*
X203540142Y-81835523D02*
X203444904Y-81787904D01*
X203444904Y-81787904D02*
X203349666Y-81787904D01*
X203349666Y-81787904D02*
X203254428Y-81835523D01*
X203254428Y-81835523D02*
X203206809Y-81883142D01*
X203206809Y-81883142D02*
X203159190Y-81978380D01*
X203159190Y-81978380D02*
X203111571Y-82168856D01*
X203111571Y-82168856D02*
X203063952Y-82264094D01*
X203063952Y-82264094D02*
X203016333Y-82311713D01*
X203016333Y-82311713D02*
X202921095Y-82359332D01*
X202921095Y-82359332D02*
X202825857Y-82359332D01*
X202825857Y-82359332D02*
X202730619Y-82311713D01*
X202730619Y-82311713D02*
X202683000Y-82264094D01*
X202683000Y-82264094D02*
X202635380Y-82168856D01*
X202635380Y-82168856D02*
X202635380Y-81930761D01*
X202635380Y-81930761D02*
X202683000Y-81787904D01*
X202635380Y-81454570D02*
X203635380Y-81216475D01*
X203635380Y-81216475D02*
X202921095Y-81025999D01*
X202921095Y-81025999D02*
X203635380Y-80835523D01*
X203635380Y-80835523D02*
X202635380Y-80597428D01*
X202968714Y-79787904D02*
X203635380Y-79787904D01*
X202587761Y-80025999D02*
X203302047Y-80264094D01*
X203302047Y-80264094D02*
X203302047Y-79645047D01*
D11*
%TO.C,IC2*%
X194359286Y-107584228D02*
X194359286Y-106984228D01*
X194987857Y-107527085D02*
X194959285Y-107555657D01*
X194959285Y-107555657D02*
X194873571Y-107584228D01*
X194873571Y-107584228D02*
X194816428Y-107584228D01*
X194816428Y-107584228D02*
X194730714Y-107555657D01*
X194730714Y-107555657D02*
X194673571Y-107498514D01*
X194673571Y-107498514D02*
X194645000Y-107441371D01*
X194645000Y-107441371D02*
X194616428Y-107327085D01*
X194616428Y-107327085D02*
X194616428Y-107241371D01*
X194616428Y-107241371D02*
X194645000Y-107127085D01*
X194645000Y-107127085D02*
X194673571Y-107069942D01*
X194673571Y-107069942D02*
X194730714Y-107012800D01*
X194730714Y-107012800D02*
X194816428Y-106984228D01*
X194816428Y-106984228D02*
X194873571Y-106984228D01*
X194873571Y-106984228D02*
X194959285Y-107012800D01*
X194959285Y-107012800D02*
X194987857Y-107041371D01*
X195216428Y-107041371D02*
X195245000Y-107012800D01*
X195245000Y-107012800D02*
X195302143Y-106984228D01*
X195302143Y-106984228D02*
X195445000Y-106984228D01*
X195445000Y-106984228D02*
X195502143Y-107012800D01*
X195502143Y-107012800D02*
X195530714Y-107041371D01*
X195530714Y-107041371D02*
X195559285Y-107098514D01*
X195559285Y-107098514D02*
X195559285Y-107155657D01*
X195559285Y-107155657D02*
X195530714Y-107241371D01*
X195530714Y-107241371D02*
X195187857Y-107584228D01*
X195187857Y-107584228D02*
X195559285Y-107584228D01*
%TO.C,R4*%
X211710600Y-86580428D02*
X211510600Y-86294714D01*
X211367743Y-86580428D02*
X211367743Y-85980428D01*
X211367743Y-85980428D02*
X211596314Y-85980428D01*
X211596314Y-85980428D02*
X211653457Y-86009000D01*
X211653457Y-86009000D02*
X211682028Y-86037571D01*
X211682028Y-86037571D02*
X211710600Y-86094714D01*
X211710600Y-86094714D02*
X211710600Y-86180428D01*
X211710600Y-86180428D02*
X211682028Y-86237571D01*
X211682028Y-86237571D02*
X211653457Y-86266142D01*
X211653457Y-86266142D02*
X211596314Y-86294714D01*
X211596314Y-86294714D02*
X211367743Y-86294714D01*
X212224886Y-86180428D02*
X212224886Y-86580428D01*
X212082028Y-85951857D02*
X211939171Y-86380428D01*
X211939171Y-86380428D02*
X212310600Y-86380428D01*
D10*
%TO.C,FB1*%
X165995766Y-117319571D02*
X165662433Y-117319571D01*
X165662433Y-117843380D02*
X165662433Y-116843380D01*
X165662433Y-116843380D02*
X166138623Y-116843380D01*
X166852909Y-117319571D02*
X166995766Y-117367190D01*
X166995766Y-117367190D02*
X167043385Y-117414809D01*
X167043385Y-117414809D02*
X167091004Y-117510047D01*
X167091004Y-117510047D02*
X167091004Y-117652904D01*
X167091004Y-117652904D02*
X167043385Y-117748142D01*
X167043385Y-117748142D02*
X166995766Y-117795761D01*
X166995766Y-117795761D02*
X166900528Y-117843380D01*
X166900528Y-117843380D02*
X166519576Y-117843380D01*
X166519576Y-117843380D02*
X166519576Y-116843380D01*
X166519576Y-116843380D02*
X166852909Y-116843380D01*
X166852909Y-116843380D02*
X166948147Y-116891000D01*
X166948147Y-116891000D02*
X166995766Y-116938619D01*
X166995766Y-116938619D02*
X167043385Y-117033857D01*
X167043385Y-117033857D02*
X167043385Y-117129095D01*
X167043385Y-117129095D02*
X166995766Y-117224333D01*
X166995766Y-117224333D02*
X166948147Y-117271952D01*
X166948147Y-117271952D02*
X166852909Y-117319571D01*
X166852909Y-117319571D02*
X166519576Y-117319571D01*
X168043385Y-117843380D02*
X167471957Y-117843380D01*
X167757671Y-117843380D02*
X167757671Y-116843380D01*
X167757671Y-116843380D02*
X167662433Y-116986238D01*
X167662433Y-116986238D02*
X167567195Y-117081476D01*
X167567195Y-117081476D02*
X167471957Y-117129095D01*
D11*
%TO.C,R9*%
X199997200Y-111116828D02*
X199797200Y-110831114D01*
X199654343Y-111116828D02*
X199654343Y-110516828D01*
X199654343Y-110516828D02*
X199882914Y-110516828D01*
X199882914Y-110516828D02*
X199940057Y-110545400D01*
X199940057Y-110545400D02*
X199968628Y-110573971D01*
X199968628Y-110573971D02*
X199997200Y-110631114D01*
X199997200Y-110631114D02*
X199997200Y-110716828D01*
X199997200Y-110716828D02*
X199968628Y-110773971D01*
X199968628Y-110773971D02*
X199940057Y-110802542D01*
X199940057Y-110802542D02*
X199882914Y-110831114D01*
X199882914Y-110831114D02*
X199654343Y-110831114D01*
X200282914Y-111116828D02*
X200397200Y-111116828D01*
X200397200Y-111116828D02*
X200454343Y-111088257D01*
X200454343Y-111088257D02*
X200482914Y-111059685D01*
X200482914Y-111059685D02*
X200540057Y-110973971D01*
X200540057Y-110973971D02*
X200568628Y-110859685D01*
X200568628Y-110859685D02*
X200568628Y-110631114D01*
X200568628Y-110631114D02*
X200540057Y-110573971D01*
X200540057Y-110573971D02*
X200511486Y-110545400D01*
X200511486Y-110545400D02*
X200454343Y-110516828D01*
X200454343Y-110516828D02*
X200340057Y-110516828D01*
X200340057Y-110516828D02*
X200282914Y-110545400D01*
X200282914Y-110545400D02*
X200254343Y-110573971D01*
X200254343Y-110573971D02*
X200225771Y-110631114D01*
X200225771Y-110631114D02*
X200225771Y-110773971D01*
X200225771Y-110773971D02*
X200254343Y-110831114D01*
X200254343Y-110831114D02*
X200282914Y-110859685D01*
X200282914Y-110859685D02*
X200340057Y-110888257D01*
X200340057Y-110888257D02*
X200454343Y-110888257D01*
X200454343Y-110888257D02*
X200511486Y-110859685D01*
X200511486Y-110859685D02*
X200540057Y-110831114D01*
X200540057Y-110831114D02*
X200568628Y-110773971D01*
%TO.C,R2*%
X187377400Y-116755628D02*
X187177400Y-116469914D01*
X187034543Y-116755628D02*
X187034543Y-116155628D01*
X187034543Y-116155628D02*
X187263114Y-116155628D01*
X187263114Y-116155628D02*
X187320257Y-116184200D01*
X187320257Y-116184200D02*
X187348828Y-116212771D01*
X187348828Y-116212771D02*
X187377400Y-116269914D01*
X187377400Y-116269914D02*
X187377400Y-116355628D01*
X187377400Y-116355628D02*
X187348828Y-116412771D01*
X187348828Y-116412771D02*
X187320257Y-116441342D01*
X187320257Y-116441342D02*
X187263114Y-116469914D01*
X187263114Y-116469914D02*
X187034543Y-116469914D01*
X187605971Y-116212771D02*
X187634543Y-116184200D01*
X187634543Y-116184200D02*
X187691686Y-116155628D01*
X187691686Y-116155628D02*
X187834543Y-116155628D01*
X187834543Y-116155628D02*
X187891686Y-116184200D01*
X187891686Y-116184200D02*
X187920257Y-116212771D01*
X187920257Y-116212771D02*
X187948828Y-116269914D01*
X187948828Y-116269914D02*
X187948828Y-116327057D01*
X187948828Y-116327057D02*
X187920257Y-116412771D01*
X187920257Y-116412771D02*
X187577400Y-116755628D01*
X187577400Y-116755628D02*
X187948828Y-116755628D01*
D10*
%TO.C,J4*%
X184959666Y-92973180D02*
X184959666Y-93687466D01*
X184959666Y-93687466D02*
X184912047Y-93830323D01*
X184912047Y-93830323D02*
X184816809Y-93925561D01*
X184816809Y-93925561D02*
X184673952Y-93973180D01*
X184673952Y-93973180D02*
X184578714Y-93973180D01*
X185864428Y-93306514D02*
X185864428Y-93973180D01*
X185626333Y-92925561D02*
X185388238Y-93639847D01*
X185388238Y-93639847D02*
X186007285Y-93639847D01*
D11*
%TO.C,C24*%
X191044285Y-104248914D02*
X191072857Y-104277486D01*
X191072857Y-104277486D02*
X191101428Y-104363200D01*
X191101428Y-104363200D02*
X191101428Y-104420343D01*
X191101428Y-104420343D02*
X191072857Y-104506057D01*
X191072857Y-104506057D02*
X191015714Y-104563200D01*
X191015714Y-104563200D02*
X190958571Y-104591771D01*
X190958571Y-104591771D02*
X190844285Y-104620343D01*
X190844285Y-104620343D02*
X190758571Y-104620343D01*
X190758571Y-104620343D02*
X190644285Y-104591771D01*
X190644285Y-104591771D02*
X190587142Y-104563200D01*
X190587142Y-104563200D02*
X190530000Y-104506057D01*
X190530000Y-104506057D02*
X190501428Y-104420343D01*
X190501428Y-104420343D02*
X190501428Y-104363200D01*
X190501428Y-104363200D02*
X190530000Y-104277486D01*
X190530000Y-104277486D02*
X190558571Y-104248914D01*
X190558571Y-104020343D02*
X190530000Y-103991771D01*
X190530000Y-103991771D02*
X190501428Y-103934629D01*
X190501428Y-103934629D02*
X190501428Y-103791771D01*
X190501428Y-103791771D02*
X190530000Y-103734629D01*
X190530000Y-103734629D02*
X190558571Y-103706057D01*
X190558571Y-103706057D02*
X190615714Y-103677486D01*
X190615714Y-103677486D02*
X190672857Y-103677486D01*
X190672857Y-103677486D02*
X190758571Y-103706057D01*
X190758571Y-103706057D02*
X191101428Y-104048914D01*
X191101428Y-104048914D02*
X191101428Y-103677486D01*
X190701428Y-103163200D02*
X191101428Y-103163200D01*
X190472857Y-103306057D02*
X190901428Y-103448914D01*
X190901428Y-103448914D02*
X190901428Y-103077485D01*
D10*
%TO.C,R15*%
X159986742Y-117283580D02*
X159653409Y-116807390D01*
X159415314Y-117283580D02*
X159415314Y-116283580D01*
X159415314Y-116283580D02*
X159796266Y-116283580D01*
X159796266Y-116283580D02*
X159891504Y-116331200D01*
X159891504Y-116331200D02*
X159939123Y-116378819D01*
X159939123Y-116378819D02*
X159986742Y-116474057D01*
X159986742Y-116474057D02*
X159986742Y-116616914D01*
X159986742Y-116616914D02*
X159939123Y-116712152D01*
X159939123Y-116712152D02*
X159891504Y-116759771D01*
X159891504Y-116759771D02*
X159796266Y-116807390D01*
X159796266Y-116807390D02*
X159415314Y-116807390D01*
X160939123Y-117283580D02*
X160367695Y-117283580D01*
X160653409Y-117283580D02*
X160653409Y-116283580D01*
X160653409Y-116283580D02*
X160558171Y-116426438D01*
X160558171Y-116426438D02*
X160462933Y-116521676D01*
X160462933Y-116521676D02*
X160367695Y-116569295D01*
X161843885Y-116283580D02*
X161367695Y-116283580D01*
X161367695Y-116283580D02*
X161320076Y-116759771D01*
X161320076Y-116759771D02*
X161367695Y-116712152D01*
X161367695Y-116712152D02*
X161462933Y-116664533D01*
X161462933Y-116664533D02*
X161701028Y-116664533D01*
X161701028Y-116664533D02*
X161796266Y-116712152D01*
X161796266Y-116712152D02*
X161843885Y-116759771D01*
X161843885Y-116759771D02*
X161891504Y-116855009D01*
X161891504Y-116855009D02*
X161891504Y-117093104D01*
X161891504Y-117093104D02*
X161843885Y-117188342D01*
X161843885Y-117188342D02*
X161796266Y-117235961D01*
X161796266Y-117235961D02*
X161701028Y-117283580D01*
X161701028Y-117283580D02*
X161462933Y-117283580D01*
X161462933Y-117283580D02*
X161367695Y-117235961D01*
X161367695Y-117235961D02*
X161320076Y-117188342D01*
%TO.C,U7*%
X172186695Y-122201780D02*
X172186695Y-123011304D01*
X172186695Y-123011304D02*
X172234314Y-123106542D01*
X172234314Y-123106542D02*
X172281933Y-123154161D01*
X172281933Y-123154161D02*
X172377171Y-123201780D01*
X172377171Y-123201780D02*
X172567647Y-123201780D01*
X172567647Y-123201780D02*
X172662885Y-123154161D01*
X172662885Y-123154161D02*
X172710504Y-123106542D01*
X172710504Y-123106542D02*
X172758123Y-123011304D01*
X172758123Y-123011304D02*
X172758123Y-122201780D01*
X173139076Y-122201780D02*
X173805742Y-122201780D01*
X173805742Y-122201780D02*
X173377171Y-123201780D01*
D11*
%TO.C,C13*%
X203655085Y-93432085D02*
X203626513Y-93460657D01*
X203626513Y-93460657D02*
X203540799Y-93489228D01*
X203540799Y-93489228D02*
X203483656Y-93489228D01*
X203483656Y-93489228D02*
X203397942Y-93460657D01*
X203397942Y-93460657D02*
X203340799Y-93403514D01*
X203340799Y-93403514D02*
X203312228Y-93346371D01*
X203312228Y-93346371D02*
X203283656Y-93232085D01*
X203283656Y-93232085D02*
X203283656Y-93146371D01*
X203283656Y-93146371D02*
X203312228Y-93032085D01*
X203312228Y-93032085D02*
X203340799Y-92974942D01*
X203340799Y-92974942D02*
X203397942Y-92917800D01*
X203397942Y-92917800D02*
X203483656Y-92889228D01*
X203483656Y-92889228D02*
X203540799Y-92889228D01*
X203540799Y-92889228D02*
X203626513Y-92917800D01*
X203626513Y-92917800D02*
X203655085Y-92946371D01*
X204226513Y-93489228D02*
X203883656Y-93489228D01*
X204055085Y-93489228D02*
X204055085Y-92889228D01*
X204055085Y-92889228D02*
X203997942Y-92974942D01*
X203997942Y-92974942D02*
X203940799Y-93032085D01*
X203940799Y-93032085D02*
X203883656Y-93060657D01*
X204426514Y-92889228D02*
X204797942Y-92889228D01*
X204797942Y-92889228D02*
X204597942Y-93117800D01*
X204597942Y-93117800D02*
X204683657Y-93117800D01*
X204683657Y-93117800D02*
X204740800Y-93146371D01*
X204740800Y-93146371D02*
X204769371Y-93174942D01*
X204769371Y-93174942D02*
X204797942Y-93232085D01*
X204797942Y-93232085D02*
X204797942Y-93374942D01*
X204797942Y-93374942D02*
X204769371Y-93432085D01*
X204769371Y-93432085D02*
X204740800Y-93460657D01*
X204740800Y-93460657D02*
X204683657Y-93489228D01*
X204683657Y-93489228D02*
X204512228Y-93489228D01*
X204512228Y-93489228D02*
X204455085Y-93460657D01*
X204455085Y-93460657D02*
X204426514Y-93432085D01*
D10*
%TO.C,C29*%
X168800542Y-115689742D02*
X168752923Y-115737361D01*
X168752923Y-115737361D02*
X168610066Y-115784980D01*
X168610066Y-115784980D02*
X168514828Y-115784980D01*
X168514828Y-115784980D02*
X168371971Y-115737361D01*
X168371971Y-115737361D02*
X168276733Y-115642123D01*
X168276733Y-115642123D02*
X168229114Y-115546885D01*
X168229114Y-115546885D02*
X168181495Y-115356409D01*
X168181495Y-115356409D02*
X168181495Y-115213552D01*
X168181495Y-115213552D02*
X168229114Y-115023076D01*
X168229114Y-115023076D02*
X168276733Y-114927838D01*
X168276733Y-114927838D02*
X168371971Y-114832600D01*
X168371971Y-114832600D02*
X168514828Y-114784980D01*
X168514828Y-114784980D02*
X168610066Y-114784980D01*
X168610066Y-114784980D02*
X168752923Y-114832600D01*
X168752923Y-114832600D02*
X168800542Y-114880219D01*
X169181495Y-114880219D02*
X169229114Y-114832600D01*
X169229114Y-114832600D02*
X169324352Y-114784980D01*
X169324352Y-114784980D02*
X169562447Y-114784980D01*
X169562447Y-114784980D02*
X169657685Y-114832600D01*
X169657685Y-114832600D02*
X169705304Y-114880219D01*
X169705304Y-114880219D02*
X169752923Y-114975457D01*
X169752923Y-114975457D02*
X169752923Y-115070695D01*
X169752923Y-115070695D02*
X169705304Y-115213552D01*
X169705304Y-115213552D02*
X169133876Y-115784980D01*
X169133876Y-115784980D02*
X169752923Y-115784980D01*
X170229114Y-115784980D02*
X170419590Y-115784980D01*
X170419590Y-115784980D02*
X170514828Y-115737361D01*
X170514828Y-115737361D02*
X170562447Y-115689742D01*
X170562447Y-115689742D02*
X170657685Y-115546885D01*
X170657685Y-115546885D02*
X170705304Y-115356409D01*
X170705304Y-115356409D02*
X170705304Y-114975457D01*
X170705304Y-114975457D02*
X170657685Y-114880219D01*
X170657685Y-114880219D02*
X170610066Y-114832600D01*
X170610066Y-114832600D02*
X170514828Y-114784980D01*
X170514828Y-114784980D02*
X170324352Y-114784980D01*
X170324352Y-114784980D02*
X170229114Y-114832600D01*
X170229114Y-114832600D02*
X170181495Y-114880219D01*
X170181495Y-114880219D02*
X170133876Y-114975457D01*
X170133876Y-114975457D02*
X170133876Y-115213552D01*
X170133876Y-115213552D02*
X170181495Y-115308790D01*
X170181495Y-115308790D02*
X170229114Y-115356409D01*
X170229114Y-115356409D02*
X170324352Y-115404028D01*
X170324352Y-115404028D02*
X170514828Y-115404028D01*
X170514828Y-115404028D02*
X170610066Y-115356409D01*
X170610066Y-115356409D02*
X170657685Y-115308790D01*
X170657685Y-115308790D02*
X170705304Y-115213552D01*
%TO.C,FB2*%
X206588266Y-96980771D02*
X206254933Y-96980771D01*
X206254933Y-97504580D02*
X206254933Y-96504580D01*
X206254933Y-96504580D02*
X206731123Y-96504580D01*
X207445409Y-96980771D02*
X207588266Y-97028390D01*
X207588266Y-97028390D02*
X207635885Y-97076009D01*
X207635885Y-97076009D02*
X207683504Y-97171247D01*
X207683504Y-97171247D02*
X207683504Y-97314104D01*
X207683504Y-97314104D02*
X207635885Y-97409342D01*
X207635885Y-97409342D02*
X207588266Y-97456961D01*
X207588266Y-97456961D02*
X207493028Y-97504580D01*
X207493028Y-97504580D02*
X207112076Y-97504580D01*
X207112076Y-97504580D02*
X207112076Y-96504580D01*
X207112076Y-96504580D02*
X207445409Y-96504580D01*
X207445409Y-96504580D02*
X207540647Y-96552200D01*
X207540647Y-96552200D02*
X207588266Y-96599819D01*
X207588266Y-96599819D02*
X207635885Y-96695057D01*
X207635885Y-96695057D02*
X207635885Y-96790295D01*
X207635885Y-96790295D02*
X207588266Y-96885533D01*
X207588266Y-96885533D02*
X207540647Y-96933152D01*
X207540647Y-96933152D02*
X207445409Y-96980771D01*
X207445409Y-96980771D02*
X207112076Y-96980771D01*
X208064457Y-96599819D02*
X208112076Y-96552200D01*
X208112076Y-96552200D02*
X208207314Y-96504580D01*
X208207314Y-96504580D02*
X208445409Y-96504580D01*
X208445409Y-96504580D02*
X208540647Y-96552200D01*
X208540647Y-96552200D02*
X208588266Y-96599819D01*
X208588266Y-96599819D02*
X208635885Y-96695057D01*
X208635885Y-96695057D02*
X208635885Y-96790295D01*
X208635885Y-96790295D02*
X208588266Y-96933152D01*
X208588266Y-96933152D02*
X208016838Y-97504580D01*
X208016838Y-97504580D02*
X208635885Y-97504580D01*
%TO.C,SW5*%
X211385561Y-110103932D02*
X211433180Y-109961075D01*
X211433180Y-109961075D02*
X211433180Y-109722980D01*
X211433180Y-109722980D02*
X211385561Y-109627742D01*
X211385561Y-109627742D02*
X211337942Y-109580123D01*
X211337942Y-109580123D02*
X211242704Y-109532504D01*
X211242704Y-109532504D02*
X211147466Y-109532504D01*
X211147466Y-109532504D02*
X211052228Y-109580123D01*
X211052228Y-109580123D02*
X211004609Y-109627742D01*
X211004609Y-109627742D02*
X210956990Y-109722980D01*
X210956990Y-109722980D02*
X210909371Y-109913456D01*
X210909371Y-109913456D02*
X210861752Y-110008694D01*
X210861752Y-110008694D02*
X210814133Y-110056313D01*
X210814133Y-110056313D02*
X210718895Y-110103932D01*
X210718895Y-110103932D02*
X210623657Y-110103932D01*
X210623657Y-110103932D02*
X210528419Y-110056313D01*
X210528419Y-110056313D02*
X210480800Y-110008694D01*
X210480800Y-110008694D02*
X210433180Y-109913456D01*
X210433180Y-109913456D02*
X210433180Y-109675361D01*
X210433180Y-109675361D02*
X210480800Y-109532504D01*
X210433180Y-109199170D02*
X211433180Y-108961075D01*
X211433180Y-108961075D02*
X210718895Y-108770599D01*
X210718895Y-108770599D02*
X211433180Y-108580123D01*
X211433180Y-108580123D02*
X210433180Y-108342028D01*
X210433180Y-107484885D02*
X210433180Y-107961075D01*
X210433180Y-107961075D02*
X210909371Y-108008694D01*
X210909371Y-108008694D02*
X210861752Y-107961075D01*
X210861752Y-107961075D02*
X210814133Y-107865837D01*
X210814133Y-107865837D02*
X210814133Y-107627742D01*
X210814133Y-107627742D02*
X210861752Y-107532504D01*
X210861752Y-107532504D02*
X210909371Y-107484885D01*
X210909371Y-107484885D02*
X211004609Y-107437266D01*
X211004609Y-107437266D02*
X211242704Y-107437266D01*
X211242704Y-107437266D02*
X211337942Y-107484885D01*
X211337942Y-107484885D02*
X211385561Y-107532504D01*
X211385561Y-107532504D02*
X211433180Y-107627742D01*
X211433180Y-107627742D02*
X211433180Y-107865837D01*
X211433180Y-107865837D02*
X211385561Y-107961075D01*
X211385561Y-107961075D02*
X211337942Y-108008694D01*
D11*
%TO.C,C25*%
X191526885Y-112910314D02*
X191555457Y-112938886D01*
X191555457Y-112938886D02*
X191584028Y-113024600D01*
X191584028Y-113024600D02*
X191584028Y-113081743D01*
X191584028Y-113081743D02*
X191555457Y-113167457D01*
X191555457Y-113167457D02*
X191498314Y-113224600D01*
X191498314Y-113224600D02*
X191441171Y-113253171D01*
X191441171Y-113253171D02*
X191326885Y-113281743D01*
X191326885Y-113281743D02*
X191241171Y-113281743D01*
X191241171Y-113281743D02*
X191126885Y-113253171D01*
X191126885Y-113253171D02*
X191069742Y-113224600D01*
X191069742Y-113224600D02*
X191012600Y-113167457D01*
X191012600Y-113167457D02*
X190984028Y-113081743D01*
X190984028Y-113081743D02*
X190984028Y-113024600D01*
X190984028Y-113024600D02*
X191012600Y-112938886D01*
X191012600Y-112938886D02*
X191041171Y-112910314D01*
X191041171Y-112681743D02*
X191012600Y-112653171D01*
X191012600Y-112653171D02*
X190984028Y-112596029D01*
X190984028Y-112596029D02*
X190984028Y-112453171D01*
X190984028Y-112453171D02*
X191012600Y-112396029D01*
X191012600Y-112396029D02*
X191041171Y-112367457D01*
X191041171Y-112367457D02*
X191098314Y-112338886D01*
X191098314Y-112338886D02*
X191155457Y-112338886D01*
X191155457Y-112338886D02*
X191241171Y-112367457D01*
X191241171Y-112367457D02*
X191584028Y-112710314D01*
X191584028Y-112710314D02*
X191584028Y-112338886D01*
X190984028Y-111796028D02*
X190984028Y-112081742D01*
X190984028Y-112081742D02*
X191269742Y-112110314D01*
X191269742Y-112110314D02*
X191241171Y-112081742D01*
X191241171Y-112081742D02*
X191212600Y-112024600D01*
X191212600Y-112024600D02*
X191212600Y-111881742D01*
X191212600Y-111881742D02*
X191241171Y-111824600D01*
X191241171Y-111824600D02*
X191269742Y-111796028D01*
X191269742Y-111796028D02*
X191326885Y-111767457D01*
X191326885Y-111767457D02*
X191469742Y-111767457D01*
X191469742Y-111767457D02*
X191526885Y-111796028D01*
X191526885Y-111796028D02*
X191555457Y-111824600D01*
X191555457Y-111824600D02*
X191584028Y-111881742D01*
X191584028Y-111881742D02*
X191584028Y-112024600D01*
X191584028Y-112024600D02*
X191555457Y-112081742D01*
X191555457Y-112081742D02*
X191526885Y-112110314D01*
D10*
%TO.C,D1*%
X163574505Y-121880980D02*
X163574505Y-120880980D01*
X163574505Y-120880980D02*
X163812600Y-120880980D01*
X163812600Y-120880980D02*
X163955457Y-120928600D01*
X163955457Y-120928600D02*
X164050695Y-121023838D01*
X164050695Y-121023838D02*
X164098314Y-121119076D01*
X164098314Y-121119076D02*
X164145933Y-121309552D01*
X164145933Y-121309552D02*
X164145933Y-121452409D01*
X164145933Y-121452409D02*
X164098314Y-121642885D01*
X164098314Y-121642885D02*
X164050695Y-121738123D01*
X164050695Y-121738123D02*
X163955457Y-121833361D01*
X163955457Y-121833361D02*
X163812600Y-121880980D01*
X163812600Y-121880980D02*
X163574505Y-121880980D01*
X165098314Y-121880980D02*
X164526886Y-121880980D01*
X164812600Y-121880980D02*
X164812600Y-120880980D01*
X164812600Y-120880980D02*
X164717362Y-121023838D01*
X164717362Y-121023838D02*
X164622124Y-121119076D01*
X164622124Y-121119076D02*
X164526886Y-121166695D01*
%TO.C,U2*%
X206351980Y-108104904D02*
X207161504Y-108104904D01*
X207161504Y-108104904D02*
X207256742Y-108057285D01*
X207256742Y-108057285D02*
X207304361Y-108009666D01*
X207304361Y-108009666D02*
X207351980Y-107914428D01*
X207351980Y-107914428D02*
X207351980Y-107723952D01*
X207351980Y-107723952D02*
X207304361Y-107628714D01*
X207304361Y-107628714D02*
X207256742Y-107581095D01*
X207256742Y-107581095D02*
X207161504Y-107533476D01*
X207161504Y-107533476D02*
X206351980Y-107533476D01*
X206447219Y-107104904D02*
X206399600Y-107057285D01*
X206399600Y-107057285D02*
X206351980Y-106962047D01*
X206351980Y-106962047D02*
X206351980Y-106723952D01*
X206351980Y-106723952D02*
X206399600Y-106628714D01*
X206399600Y-106628714D02*
X206447219Y-106581095D01*
X206447219Y-106581095D02*
X206542457Y-106533476D01*
X206542457Y-106533476D02*
X206637695Y-106533476D01*
X206637695Y-106533476D02*
X206780552Y-106581095D01*
X206780552Y-106581095D02*
X207351980Y-107152523D01*
X207351980Y-107152523D02*
X207351980Y-106533476D01*
D11*
%TO.C,C21*%
X198685685Y-109402514D02*
X198714257Y-109431086D01*
X198714257Y-109431086D02*
X198742828Y-109516800D01*
X198742828Y-109516800D02*
X198742828Y-109573943D01*
X198742828Y-109573943D02*
X198714257Y-109659657D01*
X198714257Y-109659657D02*
X198657114Y-109716800D01*
X198657114Y-109716800D02*
X198599971Y-109745371D01*
X198599971Y-109745371D02*
X198485685Y-109773943D01*
X198485685Y-109773943D02*
X198399971Y-109773943D01*
X198399971Y-109773943D02*
X198285685Y-109745371D01*
X198285685Y-109745371D02*
X198228542Y-109716800D01*
X198228542Y-109716800D02*
X198171400Y-109659657D01*
X198171400Y-109659657D02*
X198142828Y-109573943D01*
X198142828Y-109573943D02*
X198142828Y-109516800D01*
X198142828Y-109516800D02*
X198171400Y-109431086D01*
X198171400Y-109431086D02*
X198199971Y-109402514D01*
X198199971Y-109173943D02*
X198171400Y-109145371D01*
X198171400Y-109145371D02*
X198142828Y-109088229D01*
X198142828Y-109088229D02*
X198142828Y-108945371D01*
X198142828Y-108945371D02*
X198171400Y-108888229D01*
X198171400Y-108888229D02*
X198199971Y-108859657D01*
X198199971Y-108859657D02*
X198257114Y-108831086D01*
X198257114Y-108831086D02*
X198314257Y-108831086D01*
X198314257Y-108831086D02*
X198399971Y-108859657D01*
X198399971Y-108859657D02*
X198742828Y-109202514D01*
X198742828Y-109202514D02*
X198742828Y-108831086D01*
X198742828Y-108259657D02*
X198742828Y-108602514D01*
X198742828Y-108431085D02*
X198142828Y-108431085D01*
X198142828Y-108431085D02*
X198228542Y-108488228D01*
X198228542Y-108488228D02*
X198285685Y-108545371D01*
X198285685Y-108545371D02*
X198314257Y-108602514D01*
%TO.C,C16*%
X196048085Y-82935714D02*
X196076657Y-82964286D01*
X196076657Y-82964286D02*
X196105228Y-83050000D01*
X196105228Y-83050000D02*
X196105228Y-83107143D01*
X196105228Y-83107143D02*
X196076657Y-83192857D01*
X196076657Y-83192857D02*
X196019514Y-83250000D01*
X196019514Y-83250000D02*
X195962371Y-83278571D01*
X195962371Y-83278571D02*
X195848085Y-83307143D01*
X195848085Y-83307143D02*
X195762371Y-83307143D01*
X195762371Y-83307143D02*
X195648085Y-83278571D01*
X195648085Y-83278571D02*
X195590942Y-83250000D01*
X195590942Y-83250000D02*
X195533800Y-83192857D01*
X195533800Y-83192857D02*
X195505228Y-83107143D01*
X195505228Y-83107143D02*
X195505228Y-83050000D01*
X195505228Y-83050000D02*
X195533800Y-82964286D01*
X195533800Y-82964286D02*
X195562371Y-82935714D01*
X196105228Y-82364286D02*
X196105228Y-82707143D01*
X196105228Y-82535714D02*
X195505228Y-82535714D01*
X195505228Y-82535714D02*
X195590942Y-82592857D01*
X195590942Y-82592857D02*
X195648085Y-82650000D01*
X195648085Y-82650000D02*
X195676657Y-82707143D01*
X195505228Y-81850000D02*
X195505228Y-81964285D01*
X195505228Y-81964285D02*
X195533800Y-82021428D01*
X195533800Y-82021428D02*
X195562371Y-82050000D01*
X195562371Y-82050000D02*
X195648085Y-82107142D01*
X195648085Y-82107142D02*
X195762371Y-82135714D01*
X195762371Y-82135714D02*
X195990942Y-82135714D01*
X195990942Y-82135714D02*
X196048085Y-82107142D01*
X196048085Y-82107142D02*
X196076657Y-82078571D01*
X196076657Y-82078571D02*
X196105228Y-82021428D01*
X196105228Y-82021428D02*
X196105228Y-81907142D01*
X196105228Y-81907142D02*
X196076657Y-81850000D01*
X196076657Y-81850000D02*
X196048085Y-81821428D01*
X196048085Y-81821428D02*
X195990942Y-81792857D01*
X195990942Y-81792857D02*
X195848085Y-81792857D01*
X195848085Y-81792857D02*
X195790942Y-81821428D01*
X195790942Y-81821428D02*
X195762371Y-81850000D01*
X195762371Y-81850000D02*
X195733800Y-81907142D01*
X195733800Y-81907142D02*
X195733800Y-82021428D01*
X195733800Y-82021428D02*
X195762371Y-82078571D01*
X195762371Y-82078571D02*
X195790942Y-82107142D01*
X195790942Y-82107142D02*
X195848085Y-82135714D01*
%TO.C,U5*%
X191516057Y-105922028D02*
X191516057Y-106407742D01*
X191516057Y-106407742D02*
X191544628Y-106464885D01*
X191544628Y-106464885D02*
X191573200Y-106493457D01*
X191573200Y-106493457D02*
X191630342Y-106522028D01*
X191630342Y-106522028D02*
X191744628Y-106522028D01*
X191744628Y-106522028D02*
X191801771Y-106493457D01*
X191801771Y-106493457D02*
X191830342Y-106464885D01*
X191830342Y-106464885D02*
X191858914Y-106407742D01*
X191858914Y-106407742D02*
X191858914Y-105922028D01*
X192430342Y-105922028D02*
X192144628Y-105922028D01*
X192144628Y-105922028D02*
X192116056Y-106207742D01*
X192116056Y-106207742D02*
X192144628Y-106179171D01*
X192144628Y-106179171D02*
X192201771Y-106150600D01*
X192201771Y-106150600D02*
X192344628Y-106150600D01*
X192344628Y-106150600D02*
X192401771Y-106179171D01*
X192401771Y-106179171D02*
X192430342Y-106207742D01*
X192430342Y-106207742D02*
X192458913Y-106264885D01*
X192458913Y-106264885D02*
X192458913Y-106407742D01*
X192458913Y-106407742D02*
X192430342Y-106464885D01*
X192430342Y-106464885D02*
X192401771Y-106493457D01*
X192401771Y-106493457D02*
X192344628Y-106522028D01*
X192344628Y-106522028D02*
X192201771Y-106522028D01*
X192201771Y-106522028D02*
X192144628Y-106493457D01*
X192144628Y-106493457D02*
X192116056Y-106464885D01*
D10*
%TO.C,H2*%
X213614095Y-78101380D02*
X213614095Y-77101380D01*
X213614095Y-77577571D02*
X214185523Y-77577571D01*
X214185523Y-78101380D02*
X214185523Y-77101380D01*
X214614095Y-77196619D02*
X214661714Y-77149000D01*
X214661714Y-77149000D02*
X214756952Y-77101380D01*
X214756952Y-77101380D02*
X214995047Y-77101380D01*
X214995047Y-77101380D02*
X215090285Y-77149000D01*
X215090285Y-77149000D02*
X215137904Y-77196619D01*
X215137904Y-77196619D02*
X215185523Y-77291857D01*
X215185523Y-77291857D02*
X215185523Y-77387095D01*
X215185523Y-77387095D02*
X215137904Y-77529952D01*
X215137904Y-77529952D02*
X214566476Y-78101380D01*
X214566476Y-78101380D02*
X215185523Y-78101380D01*
%TO.C,Y1*%
X206356590Y-90214390D02*
X206832780Y-90214390D01*
X205832780Y-90547723D02*
X206356590Y-90214390D01*
X206356590Y-90214390D02*
X205832780Y-89881057D01*
X206832780Y-89023914D02*
X206832780Y-89595342D01*
X206832780Y-89309628D02*
X205832780Y-89309628D01*
X205832780Y-89309628D02*
X205975638Y-89404866D01*
X205975638Y-89404866D02*
X206070876Y-89500104D01*
X206070876Y-89500104D02*
X206118495Y-89595342D01*
D11*
%TO.C,C37*%
X212305685Y-105733485D02*
X212277113Y-105762057D01*
X212277113Y-105762057D02*
X212191399Y-105790628D01*
X212191399Y-105790628D02*
X212134256Y-105790628D01*
X212134256Y-105790628D02*
X212048542Y-105762057D01*
X212048542Y-105762057D02*
X211991399Y-105704914D01*
X211991399Y-105704914D02*
X211962828Y-105647771D01*
X211962828Y-105647771D02*
X211934256Y-105533485D01*
X211934256Y-105533485D02*
X211934256Y-105447771D01*
X211934256Y-105447771D02*
X211962828Y-105333485D01*
X211962828Y-105333485D02*
X211991399Y-105276342D01*
X211991399Y-105276342D02*
X212048542Y-105219200D01*
X212048542Y-105219200D02*
X212134256Y-105190628D01*
X212134256Y-105190628D02*
X212191399Y-105190628D01*
X212191399Y-105190628D02*
X212277113Y-105219200D01*
X212277113Y-105219200D02*
X212305685Y-105247771D01*
X212505685Y-105190628D02*
X212877113Y-105190628D01*
X212877113Y-105190628D02*
X212677113Y-105419200D01*
X212677113Y-105419200D02*
X212762828Y-105419200D01*
X212762828Y-105419200D02*
X212819971Y-105447771D01*
X212819971Y-105447771D02*
X212848542Y-105476342D01*
X212848542Y-105476342D02*
X212877113Y-105533485D01*
X212877113Y-105533485D02*
X212877113Y-105676342D01*
X212877113Y-105676342D02*
X212848542Y-105733485D01*
X212848542Y-105733485D02*
X212819971Y-105762057D01*
X212819971Y-105762057D02*
X212762828Y-105790628D01*
X212762828Y-105790628D02*
X212591399Y-105790628D01*
X212591399Y-105790628D02*
X212534256Y-105762057D01*
X212534256Y-105762057D02*
X212505685Y-105733485D01*
X213077114Y-105190628D02*
X213477114Y-105190628D01*
X213477114Y-105190628D02*
X213219971Y-105790628D01*
%TO.C,C4*%
X211736000Y-87437685D02*
X211707428Y-87466257D01*
X211707428Y-87466257D02*
X211621714Y-87494828D01*
X211621714Y-87494828D02*
X211564571Y-87494828D01*
X211564571Y-87494828D02*
X211478857Y-87466257D01*
X211478857Y-87466257D02*
X211421714Y-87409114D01*
X211421714Y-87409114D02*
X211393143Y-87351971D01*
X211393143Y-87351971D02*
X211364571Y-87237685D01*
X211364571Y-87237685D02*
X211364571Y-87151971D01*
X211364571Y-87151971D02*
X211393143Y-87037685D01*
X211393143Y-87037685D02*
X211421714Y-86980542D01*
X211421714Y-86980542D02*
X211478857Y-86923400D01*
X211478857Y-86923400D02*
X211564571Y-86894828D01*
X211564571Y-86894828D02*
X211621714Y-86894828D01*
X211621714Y-86894828D02*
X211707428Y-86923400D01*
X211707428Y-86923400D02*
X211736000Y-86951971D01*
X212250286Y-87094828D02*
X212250286Y-87494828D01*
X212107428Y-86866257D02*
X211964571Y-87294828D01*
X211964571Y-87294828D02*
X212336000Y-87294828D01*
%TO.C,C18*%
X203541085Y-112757914D02*
X203569657Y-112786486D01*
X203569657Y-112786486D02*
X203598228Y-112872200D01*
X203598228Y-112872200D02*
X203598228Y-112929343D01*
X203598228Y-112929343D02*
X203569657Y-113015057D01*
X203569657Y-113015057D02*
X203512514Y-113072200D01*
X203512514Y-113072200D02*
X203455371Y-113100771D01*
X203455371Y-113100771D02*
X203341085Y-113129343D01*
X203341085Y-113129343D02*
X203255371Y-113129343D01*
X203255371Y-113129343D02*
X203141085Y-113100771D01*
X203141085Y-113100771D02*
X203083942Y-113072200D01*
X203083942Y-113072200D02*
X203026800Y-113015057D01*
X203026800Y-113015057D02*
X202998228Y-112929343D01*
X202998228Y-112929343D02*
X202998228Y-112872200D01*
X202998228Y-112872200D02*
X203026800Y-112786486D01*
X203026800Y-112786486D02*
X203055371Y-112757914D01*
X203598228Y-112186486D02*
X203598228Y-112529343D01*
X203598228Y-112357914D02*
X202998228Y-112357914D01*
X202998228Y-112357914D02*
X203083942Y-112415057D01*
X203083942Y-112415057D02*
X203141085Y-112472200D01*
X203141085Y-112472200D02*
X203169657Y-112529343D01*
X203255371Y-111843628D02*
X203226800Y-111900771D01*
X203226800Y-111900771D02*
X203198228Y-111929342D01*
X203198228Y-111929342D02*
X203141085Y-111957914D01*
X203141085Y-111957914D02*
X203112514Y-111957914D01*
X203112514Y-111957914D02*
X203055371Y-111929342D01*
X203055371Y-111929342D02*
X203026800Y-111900771D01*
X203026800Y-111900771D02*
X202998228Y-111843628D01*
X202998228Y-111843628D02*
X202998228Y-111729342D01*
X202998228Y-111729342D02*
X203026800Y-111672200D01*
X203026800Y-111672200D02*
X203055371Y-111643628D01*
X203055371Y-111643628D02*
X203112514Y-111615057D01*
X203112514Y-111615057D02*
X203141085Y-111615057D01*
X203141085Y-111615057D02*
X203198228Y-111643628D01*
X203198228Y-111643628D02*
X203226800Y-111672200D01*
X203226800Y-111672200D02*
X203255371Y-111729342D01*
X203255371Y-111729342D02*
X203255371Y-111843628D01*
X203255371Y-111843628D02*
X203283942Y-111900771D01*
X203283942Y-111900771D02*
X203312514Y-111929342D01*
X203312514Y-111929342D02*
X203369657Y-111957914D01*
X203369657Y-111957914D02*
X203483942Y-111957914D01*
X203483942Y-111957914D02*
X203541085Y-111929342D01*
X203541085Y-111929342D02*
X203569657Y-111900771D01*
X203569657Y-111900771D02*
X203598228Y-111843628D01*
X203598228Y-111843628D02*
X203598228Y-111729342D01*
X203598228Y-111729342D02*
X203569657Y-111672200D01*
X203569657Y-111672200D02*
X203541085Y-111643628D01*
X203541085Y-111643628D02*
X203483942Y-111615057D01*
X203483942Y-111615057D02*
X203369657Y-111615057D01*
X203369657Y-111615057D02*
X203312514Y-111643628D01*
X203312514Y-111643628D02*
X203283942Y-111672200D01*
X203283942Y-111672200D02*
X203255371Y-111729342D01*
D10*
%TO.C,C38*%
X206750742Y-103540142D02*
X206703123Y-103587761D01*
X206703123Y-103587761D02*
X206560266Y-103635380D01*
X206560266Y-103635380D02*
X206465028Y-103635380D01*
X206465028Y-103635380D02*
X206322171Y-103587761D01*
X206322171Y-103587761D02*
X206226933Y-103492523D01*
X206226933Y-103492523D02*
X206179314Y-103397285D01*
X206179314Y-103397285D02*
X206131695Y-103206809D01*
X206131695Y-103206809D02*
X206131695Y-103063952D01*
X206131695Y-103063952D02*
X206179314Y-102873476D01*
X206179314Y-102873476D02*
X206226933Y-102778238D01*
X206226933Y-102778238D02*
X206322171Y-102683000D01*
X206322171Y-102683000D02*
X206465028Y-102635380D01*
X206465028Y-102635380D02*
X206560266Y-102635380D01*
X206560266Y-102635380D02*
X206703123Y-102683000D01*
X206703123Y-102683000D02*
X206750742Y-102730619D01*
X207084076Y-102635380D02*
X207703123Y-102635380D01*
X207703123Y-102635380D02*
X207369790Y-103016333D01*
X207369790Y-103016333D02*
X207512647Y-103016333D01*
X207512647Y-103016333D02*
X207607885Y-103063952D01*
X207607885Y-103063952D02*
X207655504Y-103111571D01*
X207655504Y-103111571D02*
X207703123Y-103206809D01*
X207703123Y-103206809D02*
X207703123Y-103444904D01*
X207703123Y-103444904D02*
X207655504Y-103540142D01*
X207655504Y-103540142D02*
X207607885Y-103587761D01*
X207607885Y-103587761D02*
X207512647Y-103635380D01*
X207512647Y-103635380D02*
X207226933Y-103635380D01*
X207226933Y-103635380D02*
X207131695Y-103587761D01*
X207131695Y-103587761D02*
X207084076Y-103540142D01*
X208274552Y-103063952D02*
X208179314Y-103016333D01*
X208179314Y-103016333D02*
X208131695Y-102968714D01*
X208131695Y-102968714D02*
X208084076Y-102873476D01*
X208084076Y-102873476D02*
X208084076Y-102825857D01*
X208084076Y-102825857D02*
X208131695Y-102730619D01*
X208131695Y-102730619D02*
X208179314Y-102683000D01*
X208179314Y-102683000D02*
X208274552Y-102635380D01*
X208274552Y-102635380D02*
X208465028Y-102635380D01*
X208465028Y-102635380D02*
X208560266Y-102683000D01*
X208560266Y-102683000D02*
X208607885Y-102730619D01*
X208607885Y-102730619D02*
X208655504Y-102825857D01*
X208655504Y-102825857D02*
X208655504Y-102873476D01*
X208655504Y-102873476D02*
X208607885Y-102968714D01*
X208607885Y-102968714D02*
X208560266Y-103016333D01*
X208560266Y-103016333D02*
X208465028Y-103063952D01*
X208465028Y-103063952D02*
X208274552Y-103063952D01*
X208274552Y-103063952D02*
X208179314Y-103111571D01*
X208179314Y-103111571D02*
X208131695Y-103159190D01*
X208131695Y-103159190D02*
X208084076Y-103254428D01*
X208084076Y-103254428D02*
X208084076Y-103444904D01*
X208084076Y-103444904D02*
X208131695Y-103540142D01*
X208131695Y-103540142D02*
X208179314Y-103587761D01*
X208179314Y-103587761D02*
X208274552Y-103635380D01*
X208274552Y-103635380D02*
X208465028Y-103635380D01*
X208465028Y-103635380D02*
X208560266Y-103587761D01*
X208560266Y-103587761D02*
X208607885Y-103540142D01*
X208607885Y-103540142D02*
X208655504Y-103444904D01*
X208655504Y-103444904D02*
X208655504Y-103254428D01*
X208655504Y-103254428D02*
X208607885Y-103159190D01*
X208607885Y-103159190D02*
X208560266Y-103111571D01*
X208560266Y-103111571D02*
X208465028Y-103063952D01*
D11*
%TO.C,C20*%
X207909885Y-110446514D02*
X207938457Y-110475086D01*
X207938457Y-110475086D02*
X207967028Y-110560800D01*
X207967028Y-110560800D02*
X207967028Y-110617943D01*
X207967028Y-110617943D02*
X207938457Y-110703657D01*
X207938457Y-110703657D02*
X207881314Y-110760800D01*
X207881314Y-110760800D02*
X207824171Y-110789371D01*
X207824171Y-110789371D02*
X207709885Y-110817943D01*
X207709885Y-110817943D02*
X207624171Y-110817943D01*
X207624171Y-110817943D02*
X207509885Y-110789371D01*
X207509885Y-110789371D02*
X207452742Y-110760800D01*
X207452742Y-110760800D02*
X207395600Y-110703657D01*
X207395600Y-110703657D02*
X207367028Y-110617943D01*
X207367028Y-110617943D02*
X207367028Y-110560800D01*
X207367028Y-110560800D02*
X207395600Y-110475086D01*
X207395600Y-110475086D02*
X207424171Y-110446514D01*
X207424171Y-110217943D02*
X207395600Y-110189371D01*
X207395600Y-110189371D02*
X207367028Y-110132229D01*
X207367028Y-110132229D02*
X207367028Y-109989371D01*
X207367028Y-109989371D02*
X207395600Y-109932229D01*
X207395600Y-109932229D02*
X207424171Y-109903657D01*
X207424171Y-109903657D02*
X207481314Y-109875086D01*
X207481314Y-109875086D02*
X207538457Y-109875086D01*
X207538457Y-109875086D02*
X207624171Y-109903657D01*
X207624171Y-109903657D02*
X207967028Y-110246514D01*
X207967028Y-110246514D02*
X207967028Y-109875086D01*
X207367028Y-109503657D02*
X207367028Y-109446514D01*
X207367028Y-109446514D02*
X207395600Y-109389371D01*
X207395600Y-109389371D02*
X207424171Y-109360800D01*
X207424171Y-109360800D02*
X207481314Y-109332228D01*
X207481314Y-109332228D02*
X207595600Y-109303657D01*
X207595600Y-109303657D02*
X207738457Y-109303657D01*
X207738457Y-109303657D02*
X207852742Y-109332228D01*
X207852742Y-109332228D02*
X207909885Y-109360800D01*
X207909885Y-109360800D02*
X207938457Y-109389371D01*
X207938457Y-109389371D02*
X207967028Y-109446514D01*
X207967028Y-109446514D02*
X207967028Y-109503657D01*
X207967028Y-109503657D02*
X207938457Y-109560800D01*
X207938457Y-109560800D02*
X207909885Y-109589371D01*
X207909885Y-109589371D02*
X207852742Y-109617942D01*
X207852742Y-109617942D02*
X207738457Y-109646514D01*
X207738457Y-109646514D02*
X207595600Y-109646514D01*
X207595600Y-109646514D02*
X207481314Y-109617942D01*
X207481314Y-109617942D02*
X207424171Y-109589371D01*
X207424171Y-109589371D02*
X207395600Y-109560800D01*
X207395600Y-109560800D02*
X207367028Y-109503657D01*
%TO.C,C12*%
X203553485Y-86548685D02*
X203524913Y-86577257D01*
X203524913Y-86577257D02*
X203439199Y-86605828D01*
X203439199Y-86605828D02*
X203382056Y-86605828D01*
X203382056Y-86605828D02*
X203296342Y-86577257D01*
X203296342Y-86577257D02*
X203239199Y-86520114D01*
X203239199Y-86520114D02*
X203210628Y-86462971D01*
X203210628Y-86462971D02*
X203182056Y-86348685D01*
X203182056Y-86348685D02*
X203182056Y-86262971D01*
X203182056Y-86262971D02*
X203210628Y-86148685D01*
X203210628Y-86148685D02*
X203239199Y-86091542D01*
X203239199Y-86091542D02*
X203296342Y-86034400D01*
X203296342Y-86034400D02*
X203382056Y-86005828D01*
X203382056Y-86005828D02*
X203439199Y-86005828D01*
X203439199Y-86005828D02*
X203524913Y-86034400D01*
X203524913Y-86034400D02*
X203553485Y-86062971D01*
X204124913Y-86605828D02*
X203782056Y-86605828D01*
X203953485Y-86605828D02*
X203953485Y-86005828D01*
X203953485Y-86005828D02*
X203896342Y-86091542D01*
X203896342Y-86091542D02*
X203839199Y-86148685D01*
X203839199Y-86148685D02*
X203782056Y-86177257D01*
X204353485Y-86062971D02*
X204382057Y-86034400D01*
X204382057Y-86034400D02*
X204439200Y-86005828D01*
X204439200Y-86005828D02*
X204582057Y-86005828D01*
X204582057Y-86005828D02*
X204639200Y-86034400D01*
X204639200Y-86034400D02*
X204667771Y-86062971D01*
X204667771Y-86062971D02*
X204696342Y-86120114D01*
X204696342Y-86120114D02*
X204696342Y-86177257D01*
X204696342Y-86177257D02*
X204667771Y-86262971D01*
X204667771Y-86262971D02*
X204324914Y-86605828D01*
X204324914Y-86605828D02*
X204696342Y-86605828D01*
D10*
%TO.C,L4*%
X176033780Y-118860866D02*
X176033780Y-119337056D01*
X176033780Y-119337056D02*
X175033780Y-119337056D01*
X175367114Y-118098961D02*
X176033780Y-118098961D01*
X174986161Y-118337056D02*
X175700447Y-118575151D01*
X175700447Y-118575151D02*
X175700447Y-117956104D01*
%TO.C,R17*%
X171582342Y-117682380D02*
X171249009Y-117206190D01*
X171010914Y-117682380D02*
X171010914Y-116682380D01*
X171010914Y-116682380D02*
X171391866Y-116682380D01*
X171391866Y-116682380D02*
X171487104Y-116730000D01*
X171487104Y-116730000D02*
X171534723Y-116777619D01*
X171534723Y-116777619D02*
X171582342Y-116872857D01*
X171582342Y-116872857D02*
X171582342Y-117015714D01*
X171582342Y-117015714D02*
X171534723Y-117110952D01*
X171534723Y-117110952D02*
X171487104Y-117158571D01*
X171487104Y-117158571D02*
X171391866Y-117206190D01*
X171391866Y-117206190D02*
X171010914Y-117206190D01*
X172534723Y-117682380D02*
X171963295Y-117682380D01*
X172249009Y-117682380D02*
X172249009Y-116682380D01*
X172249009Y-116682380D02*
X172153771Y-116825238D01*
X172153771Y-116825238D02*
X172058533Y-116920476D01*
X172058533Y-116920476D02*
X171963295Y-116968095D01*
X172868057Y-116682380D02*
X173534723Y-116682380D01*
X173534723Y-116682380D02*
X173106152Y-117682380D01*
%TO.C,H3*%
X178562095Y-113153380D02*
X178562095Y-112153380D01*
X178562095Y-112629571D02*
X179133523Y-112629571D01*
X179133523Y-113153380D02*
X179133523Y-112153380D01*
X179514476Y-112153380D02*
X180133523Y-112153380D01*
X180133523Y-112153380D02*
X179800190Y-112534333D01*
X179800190Y-112534333D02*
X179943047Y-112534333D01*
X179943047Y-112534333D02*
X180038285Y-112581952D01*
X180038285Y-112581952D02*
X180085904Y-112629571D01*
X180085904Y-112629571D02*
X180133523Y-112724809D01*
X180133523Y-112724809D02*
X180133523Y-112962904D01*
X180133523Y-112962904D02*
X180085904Y-113058142D01*
X180085904Y-113058142D02*
X180038285Y-113105761D01*
X180038285Y-113105761D02*
X179943047Y-113153380D01*
X179943047Y-113153380D02*
X179657333Y-113153380D01*
X179657333Y-113153380D02*
X179562095Y-113105761D01*
X179562095Y-113105761D02*
X179514476Y-113058142D01*
D11*
%TO.C,L2*%
X197562800Y-84446828D02*
X197277086Y-84446828D01*
X197277086Y-84446828D02*
X197277086Y-83846828D01*
X197734228Y-83903971D02*
X197762800Y-83875400D01*
X197762800Y-83875400D02*
X197819943Y-83846828D01*
X197819943Y-83846828D02*
X197962800Y-83846828D01*
X197962800Y-83846828D02*
X198019943Y-83875400D01*
X198019943Y-83875400D02*
X198048514Y-83903971D01*
X198048514Y-83903971D02*
X198077085Y-83961114D01*
X198077085Y-83961114D02*
X198077085Y-84018257D01*
X198077085Y-84018257D02*
X198048514Y-84103971D01*
X198048514Y-84103971D02*
X197705657Y-84446828D01*
X197705657Y-84446828D02*
X198077085Y-84446828D01*
D10*
%TO.C,J3*%
X201647466Y-77785080D02*
X201647466Y-78499366D01*
X201647466Y-78499366D02*
X201599847Y-78642223D01*
X201599847Y-78642223D02*
X201504609Y-78737461D01*
X201504609Y-78737461D02*
X201361752Y-78785080D01*
X201361752Y-78785080D02*
X201266514Y-78785080D01*
X202028419Y-77785080D02*
X202647466Y-77785080D01*
X202647466Y-77785080D02*
X202314133Y-78166033D01*
X202314133Y-78166033D02*
X202456990Y-78166033D01*
X202456990Y-78166033D02*
X202552228Y-78213652D01*
X202552228Y-78213652D02*
X202599847Y-78261271D01*
X202599847Y-78261271D02*
X202647466Y-78356509D01*
X202647466Y-78356509D02*
X202647466Y-78594604D01*
X202647466Y-78594604D02*
X202599847Y-78689842D01*
X202599847Y-78689842D02*
X202552228Y-78737461D01*
X202552228Y-78737461D02*
X202456990Y-78785080D01*
X202456990Y-78785080D02*
X202171276Y-78785080D01*
X202171276Y-78785080D02*
X202076038Y-78737461D01*
X202076038Y-78737461D02*
X202028419Y-78689842D01*
%TO.C,U3*%
X164238095Y-99367380D02*
X164238095Y-100176904D01*
X164238095Y-100176904D02*
X164285714Y-100272142D01*
X164285714Y-100272142D02*
X164333333Y-100319761D01*
X164333333Y-100319761D02*
X164428571Y-100367380D01*
X164428571Y-100367380D02*
X164619047Y-100367380D01*
X164619047Y-100367380D02*
X164714285Y-100319761D01*
X164714285Y-100319761D02*
X164761904Y-100272142D01*
X164761904Y-100272142D02*
X164809523Y-100176904D01*
X164809523Y-100176904D02*
X164809523Y-99367380D01*
X165190476Y-99367380D02*
X165809523Y-99367380D01*
X165809523Y-99367380D02*
X165476190Y-99748333D01*
X165476190Y-99748333D02*
X165619047Y-99748333D01*
X165619047Y-99748333D02*
X165714285Y-99795952D01*
X165714285Y-99795952D02*
X165761904Y-99843571D01*
X165761904Y-99843571D02*
X165809523Y-99938809D01*
X165809523Y-99938809D02*
X165809523Y-100176904D01*
X165809523Y-100176904D02*
X165761904Y-100272142D01*
X165761904Y-100272142D02*
X165714285Y-100319761D01*
X165714285Y-100319761D02*
X165619047Y-100367380D01*
X165619047Y-100367380D02*
X165333333Y-100367380D01*
X165333333Y-100367380D02*
X165238095Y-100319761D01*
X165238095Y-100319761D02*
X165190476Y-100272142D01*
%TO.C,C30*%
X180586742Y-122395257D02*
X180634361Y-122442876D01*
X180634361Y-122442876D02*
X180681980Y-122585733D01*
X180681980Y-122585733D02*
X180681980Y-122680971D01*
X180681980Y-122680971D02*
X180634361Y-122823828D01*
X180634361Y-122823828D02*
X180539123Y-122919066D01*
X180539123Y-122919066D02*
X180443885Y-122966685D01*
X180443885Y-122966685D02*
X180253409Y-123014304D01*
X180253409Y-123014304D02*
X180110552Y-123014304D01*
X180110552Y-123014304D02*
X179920076Y-122966685D01*
X179920076Y-122966685D02*
X179824838Y-122919066D01*
X179824838Y-122919066D02*
X179729600Y-122823828D01*
X179729600Y-122823828D02*
X179681980Y-122680971D01*
X179681980Y-122680971D02*
X179681980Y-122585733D01*
X179681980Y-122585733D02*
X179729600Y-122442876D01*
X179729600Y-122442876D02*
X179777219Y-122395257D01*
X179681980Y-122061923D02*
X179681980Y-121442876D01*
X179681980Y-121442876D02*
X180062933Y-121776209D01*
X180062933Y-121776209D02*
X180062933Y-121633352D01*
X180062933Y-121633352D02*
X180110552Y-121538114D01*
X180110552Y-121538114D02*
X180158171Y-121490495D01*
X180158171Y-121490495D02*
X180253409Y-121442876D01*
X180253409Y-121442876D02*
X180491504Y-121442876D01*
X180491504Y-121442876D02*
X180586742Y-121490495D01*
X180586742Y-121490495D02*
X180634361Y-121538114D01*
X180634361Y-121538114D02*
X180681980Y-121633352D01*
X180681980Y-121633352D02*
X180681980Y-121919066D01*
X180681980Y-121919066D02*
X180634361Y-122014304D01*
X180634361Y-122014304D02*
X180586742Y-122061923D01*
X179681980Y-120823828D02*
X179681980Y-120728590D01*
X179681980Y-120728590D02*
X179729600Y-120633352D01*
X179729600Y-120633352D02*
X179777219Y-120585733D01*
X179777219Y-120585733D02*
X179872457Y-120538114D01*
X179872457Y-120538114D02*
X180062933Y-120490495D01*
X180062933Y-120490495D02*
X180301028Y-120490495D01*
X180301028Y-120490495D02*
X180491504Y-120538114D01*
X180491504Y-120538114D02*
X180586742Y-120585733D01*
X180586742Y-120585733D02*
X180634361Y-120633352D01*
X180634361Y-120633352D02*
X180681980Y-120728590D01*
X180681980Y-120728590D02*
X180681980Y-120823828D01*
X180681980Y-120823828D02*
X180634361Y-120919066D01*
X180634361Y-120919066D02*
X180586742Y-120966685D01*
X180586742Y-120966685D02*
X180491504Y-121014304D01*
X180491504Y-121014304D02*
X180301028Y-121061923D01*
X180301028Y-121061923D02*
X180062933Y-121061923D01*
X180062933Y-121061923D02*
X179872457Y-121014304D01*
X179872457Y-121014304D02*
X179777219Y-120966685D01*
X179777219Y-120966685D02*
X179729600Y-120919066D01*
X179729600Y-120919066D02*
X179681980Y-120823828D01*
%TO.C,C5*%
X166942533Y-84151342D02*
X166894914Y-84198961D01*
X166894914Y-84198961D02*
X166752057Y-84246580D01*
X166752057Y-84246580D02*
X166656819Y-84246580D01*
X166656819Y-84246580D02*
X166513962Y-84198961D01*
X166513962Y-84198961D02*
X166418724Y-84103723D01*
X166418724Y-84103723D02*
X166371105Y-84008485D01*
X166371105Y-84008485D02*
X166323486Y-83818009D01*
X166323486Y-83818009D02*
X166323486Y-83675152D01*
X166323486Y-83675152D02*
X166371105Y-83484676D01*
X166371105Y-83484676D02*
X166418724Y-83389438D01*
X166418724Y-83389438D02*
X166513962Y-83294200D01*
X166513962Y-83294200D02*
X166656819Y-83246580D01*
X166656819Y-83246580D02*
X166752057Y-83246580D01*
X166752057Y-83246580D02*
X166894914Y-83294200D01*
X166894914Y-83294200D02*
X166942533Y-83341819D01*
X167847295Y-83246580D02*
X167371105Y-83246580D01*
X167371105Y-83246580D02*
X167323486Y-83722771D01*
X167323486Y-83722771D02*
X167371105Y-83675152D01*
X167371105Y-83675152D02*
X167466343Y-83627533D01*
X167466343Y-83627533D02*
X167704438Y-83627533D01*
X167704438Y-83627533D02*
X167799676Y-83675152D01*
X167799676Y-83675152D02*
X167847295Y-83722771D01*
X167847295Y-83722771D02*
X167894914Y-83818009D01*
X167894914Y-83818009D02*
X167894914Y-84056104D01*
X167894914Y-84056104D02*
X167847295Y-84151342D01*
X167847295Y-84151342D02*
X167799676Y-84198961D01*
X167799676Y-84198961D02*
X167704438Y-84246580D01*
X167704438Y-84246580D02*
X167466343Y-84246580D01*
X167466343Y-84246580D02*
X167371105Y-84198961D01*
X167371105Y-84198961D02*
X167323486Y-84151342D01*
D11*
%TO.C,C27*%
X195880085Y-113648485D02*
X195851513Y-113677057D01*
X195851513Y-113677057D02*
X195765799Y-113705628D01*
X195765799Y-113705628D02*
X195708656Y-113705628D01*
X195708656Y-113705628D02*
X195622942Y-113677057D01*
X195622942Y-113677057D02*
X195565799Y-113619914D01*
X195565799Y-113619914D02*
X195537228Y-113562771D01*
X195537228Y-113562771D02*
X195508656Y-113448485D01*
X195508656Y-113448485D02*
X195508656Y-113362771D01*
X195508656Y-113362771D02*
X195537228Y-113248485D01*
X195537228Y-113248485D02*
X195565799Y-113191342D01*
X195565799Y-113191342D02*
X195622942Y-113134200D01*
X195622942Y-113134200D02*
X195708656Y-113105628D01*
X195708656Y-113105628D02*
X195765799Y-113105628D01*
X195765799Y-113105628D02*
X195851513Y-113134200D01*
X195851513Y-113134200D02*
X195880085Y-113162771D01*
X196108656Y-113162771D02*
X196137228Y-113134200D01*
X196137228Y-113134200D02*
X196194371Y-113105628D01*
X196194371Y-113105628D02*
X196337228Y-113105628D01*
X196337228Y-113105628D02*
X196394371Y-113134200D01*
X196394371Y-113134200D02*
X196422942Y-113162771D01*
X196422942Y-113162771D02*
X196451513Y-113219914D01*
X196451513Y-113219914D02*
X196451513Y-113277057D01*
X196451513Y-113277057D02*
X196422942Y-113362771D01*
X196422942Y-113362771D02*
X196080085Y-113705628D01*
X196080085Y-113705628D02*
X196451513Y-113705628D01*
X196651514Y-113105628D02*
X197051514Y-113105628D01*
X197051514Y-113105628D02*
X196794371Y-113705628D01*
D10*
%TO.C,SW3*%
X203587761Y-122999332D02*
X203635380Y-122856475D01*
X203635380Y-122856475D02*
X203635380Y-122618380D01*
X203635380Y-122618380D02*
X203587761Y-122523142D01*
X203587761Y-122523142D02*
X203540142Y-122475523D01*
X203540142Y-122475523D02*
X203444904Y-122427904D01*
X203444904Y-122427904D02*
X203349666Y-122427904D01*
X203349666Y-122427904D02*
X203254428Y-122475523D01*
X203254428Y-122475523D02*
X203206809Y-122523142D01*
X203206809Y-122523142D02*
X203159190Y-122618380D01*
X203159190Y-122618380D02*
X203111571Y-122808856D01*
X203111571Y-122808856D02*
X203063952Y-122904094D01*
X203063952Y-122904094D02*
X203016333Y-122951713D01*
X203016333Y-122951713D02*
X202921095Y-122999332D01*
X202921095Y-122999332D02*
X202825857Y-122999332D01*
X202825857Y-122999332D02*
X202730619Y-122951713D01*
X202730619Y-122951713D02*
X202683000Y-122904094D01*
X202683000Y-122904094D02*
X202635380Y-122808856D01*
X202635380Y-122808856D02*
X202635380Y-122570761D01*
X202635380Y-122570761D02*
X202683000Y-122427904D01*
X202635380Y-122094570D02*
X203635380Y-121856475D01*
X203635380Y-121856475D02*
X202921095Y-121665999D01*
X202921095Y-121665999D02*
X203635380Y-121475523D01*
X203635380Y-121475523D02*
X202635380Y-121237428D01*
X202635380Y-120951713D02*
X202635380Y-120332666D01*
X202635380Y-120332666D02*
X203016333Y-120665999D01*
X203016333Y-120665999D02*
X203016333Y-120523142D01*
X203016333Y-120523142D02*
X203063952Y-120427904D01*
X203063952Y-120427904D02*
X203111571Y-120380285D01*
X203111571Y-120380285D02*
X203206809Y-120332666D01*
X203206809Y-120332666D02*
X203444904Y-120332666D01*
X203444904Y-120332666D02*
X203540142Y-120380285D01*
X203540142Y-120380285D02*
X203587761Y-120427904D01*
X203587761Y-120427904D02*
X203635380Y-120523142D01*
X203635380Y-120523142D02*
X203635380Y-120808856D01*
X203635380Y-120808856D02*
X203587761Y-120904094D01*
X203587761Y-120904094D02*
X203540142Y-120951713D01*
%TO.C,J5*%
X160804266Y-118290180D02*
X160804266Y-119004466D01*
X160804266Y-119004466D02*
X160756647Y-119147323D01*
X160756647Y-119147323D02*
X160661409Y-119242561D01*
X160661409Y-119242561D02*
X160518552Y-119290180D01*
X160518552Y-119290180D02*
X160423314Y-119290180D01*
X161756647Y-118290180D02*
X161280457Y-118290180D01*
X161280457Y-118290180D02*
X161232838Y-118766371D01*
X161232838Y-118766371D02*
X161280457Y-118718752D01*
X161280457Y-118718752D02*
X161375695Y-118671133D01*
X161375695Y-118671133D02*
X161613790Y-118671133D01*
X161613790Y-118671133D02*
X161709028Y-118718752D01*
X161709028Y-118718752D02*
X161756647Y-118766371D01*
X161756647Y-118766371D02*
X161804266Y-118861609D01*
X161804266Y-118861609D02*
X161804266Y-119099704D01*
X161804266Y-119099704D02*
X161756647Y-119194942D01*
X161756647Y-119194942D02*
X161709028Y-119242561D01*
X161709028Y-119242561D02*
X161613790Y-119290180D01*
X161613790Y-119290180D02*
X161375695Y-119290180D01*
X161375695Y-119290180D02*
X161280457Y-119242561D01*
X161280457Y-119242561D02*
X161232838Y-119194942D01*
%TO.C,J8*%
X170277380Y-100104533D02*
X170991666Y-100104533D01*
X170991666Y-100104533D02*
X171134523Y-100152152D01*
X171134523Y-100152152D02*
X171229761Y-100247390D01*
X171229761Y-100247390D02*
X171277380Y-100390247D01*
X171277380Y-100390247D02*
X171277380Y-100485485D01*
X170705952Y-99485485D02*
X170658333Y-99580723D01*
X170658333Y-99580723D02*
X170610714Y-99628342D01*
X170610714Y-99628342D02*
X170515476Y-99675961D01*
X170515476Y-99675961D02*
X170467857Y-99675961D01*
X170467857Y-99675961D02*
X170372619Y-99628342D01*
X170372619Y-99628342D02*
X170325000Y-99580723D01*
X170325000Y-99580723D02*
X170277380Y-99485485D01*
X170277380Y-99485485D02*
X170277380Y-99295009D01*
X170277380Y-99295009D02*
X170325000Y-99199771D01*
X170325000Y-99199771D02*
X170372619Y-99152152D01*
X170372619Y-99152152D02*
X170467857Y-99104533D01*
X170467857Y-99104533D02*
X170515476Y-99104533D01*
X170515476Y-99104533D02*
X170610714Y-99152152D01*
X170610714Y-99152152D02*
X170658333Y-99199771D01*
X170658333Y-99199771D02*
X170705952Y-99295009D01*
X170705952Y-99295009D02*
X170705952Y-99485485D01*
X170705952Y-99485485D02*
X170753571Y-99580723D01*
X170753571Y-99580723D02*
X170801190Y-99628342D01*
X170801190Y-99628342D02*
X170896428Y-99675961D01*
X170896428Y-99675961D02*
X171086904Y-99675961D01*
X171086904Y-99675961D02*
X171182142Y-99628342D01*
X171182142Y-99628342D02*
X171229761Y-99580723D01*
X171229761Y-99580723D02*
X171277380Y-99485485D01*
X171277380Y-99485485D02*
X171277380Y-99295009D01*
X171277380Y-99295009D02*
X171229761Y-99199771D01*
X171229761Y-99199771D02*
X171182142Y-99152152D01*
X171182142Y-99152152D02*
X171086904Y-99104533D01*
X171086904Y-99104533D02*
X170896428Y-99104533D01*
X170896428Y-99104533D02*
X170801190Y-99152152D01*
X170801190Y-99152152D02*
X170753571Y-99199771D01*
X170753571Y-99199771D02*
X170705952Y-99295009D01*
D11*
%TO.C,R10*%
X198416628Y-112399714D02*
X198130914Y-112599714D01*
X198416628Y-112742571D02*
X197816628Y-112742571D01*
X197816628Y-112742571D02*
X197816628Y-112514000D01*
X197816628Y-112514000D02*
X197845200Y-112456857D01*
X197845200Y-112456857D02*
X197873771Y-112428286D01*
X197873771Y-112428286D02*
X197930914Y-112399714D01*
X197930914Y-112399714D02*
X198016628Y-112399714D01*
X198016628Y-112399714D02*
X198073771Y-112428286D01*
X198073771Y-112428286D02*
X198102342Y-112456857D01*
X198102342Y-112456857D02*
X198130914Y-112514000D01*
X198130914Y-112514000D02*
X198130914Y-112742571D01*
X198416628Y-111828286D02*
X198416628Y-112171143D01*
X198416628Y-111999714D02*
X197816628Y-111999714D01*
X197816628Y-111999714D02*
X197902342Y-112056857D01*
X197902342Y-112056857D02*
X197959485Y-112114000D01*
X197959485Y-112114000D02*
X197988057Y-112171143D01*
X197816628Y-111456857D02*
X197816628Y-111399714D01*
X197816628Y-111399714D02*
X197845200Y-111342571D01*
X197845200Y-111342571D02*
X197873771Y-111314000D01*
X197873771Y-111314000D02*
X197930914Y-111285428D01*
X197930914Y-111285428D02*
X198045200Y-111256857D01*
X198045200Y-111256857D02*
X198188057Y-111256857D01*
X198188057Y-111256857D02*
X198302342Y-111285428D01*
X198302342Y-111285428D02*
X198359485Y-111314000D01*
X198359485Y-111314000D02*
X198388057Y-111342571D01*
X198388057Y-111342571D02*
X198416628Y-111399714D01*
X198416628Y-111399714D02*
X198416628Y-111456857D01*
X198416628Y-111456857D02*
X198388057Y-111514000D01*
X198388057Y-111514000D02*
X198359485Y-111542571D01*
X198359485Y-111542571D02*
X198302342Y-111571142D01*
X198302342Y-111571142D02*
X198188057Y-111599714D01*
X198188057Y-111599714D02*
X198045200Y-111599714D01*
X198045200Y-111599714D02*
X197930914Y-111571142D01*
X197930914Y-111571142D02*
X197873771Y-111542571D01*
X197873771Y-111542571D02*
X197845200Y-111514000D01*
X197845200Y-111514000D02*
X197816628Y-111456857D01*
D10*
%TO.C,R13*%
X165930342Y-123277980D02*
X165597009Y-122801790D01*
X165358914Y-123277980D02*
X165358914Y-122277980D01*
X165358914Y-122277980D02*
X165739866Y-122277980D01*
X165739866Y-122277980D02*
X165835104Y-122325600D01*
X165835104Y-122325600D02*
X165882723Y-122373219D01*
X165882723Y-122373219D02*
X165930342Y-122468457D01*
X165930342Y-122468457D02*
X165930342Y-122611314D01*
X165930342Y-122611314D02*
X165882723Y-122706552D01*
X165882723Y-122706552D02*
X165835104Y-122754171D01*
X165835104Y-122754171D02*
X165739866Y-122801790D01*
X165739866Y-122801790D02*
X165358914Y-122801790D01*
X166882723Y-123277980D02*
X166311295Y-123277980D01*
X166597009Y-123277980D02*
X166597009Y-122277980D01*
X166597009Y-122277980D02*
X166501771Y-122420838D01*
X166501771Y-122420838D02*
X166406533Y-122516076D01*
X166406533Y-122516076D02*
X166311295Y-122563695D01*
X167216057Y-122277980D02*
X167835104Y-122277980D01*
X167835104Y-122277980D02*
X167501771Y-122658933D01*
X167501771Y-122658933D02*
X167644628Y-122658933D01*
X167644628Y-122658933D02*
X167739866Y-122706552D01*
X167739866Y-122706552D02*
X167787485Y-122754171D01*
X167787485Y-122754171D02*
X167835104Y-122849409D01*
X167835104Y-122849409D02*
X167835104Y-123087504D01*
X167835104Y-123087504D02*
X167787485Y-123182742D01*
X167787485Y-123182742D02*
X167739866Y-123230361D01*
X167739866Y-123230361D02*
X167644628Y-123277980D01*
X167644628Y-123277980D02*
X167358914Y-123277980D01*
X167358914Y-123277980D02*
X167263676Y-123230361D01*
X167263676Y-123230361D02*
X167216057Y-123182742D01*
%TO.C,R16*%
X160037542Y-115861180D02*
X159704209Y-115384990D01*
X159466114Y-115861180D02*
X159466114Y-114861180D01*
X159466114Y-114861180D02*
X159847066Y-114861180D01*
X159847066Y-114861180D02*
X159942304Y-114908800D01*
X159942304Y-114908800D02*
X159989923Y-114956419D01*
X159989923Y-114956419D02*
X160037542Y-115051657D01*
X160037542Y-115051657D02*
X160037542Y-115194514D01*
X160037542Y-115194514D02*
X159989923Y-115289752D01*
X159989923Y-115289752D02*
X159942304Y-115337371D01*
X159942304Y-115337371D02*
X159847066Y-115384990D01*
X159847066Y-115384990D02*
X159466114Y-115384990D01*
X160989923Y-115861180D02*
X160418495Y-115861180D01*
X160704209Y-115861180D02*
X160704209Y-114861180D01*
X160704209Y-114861180D02*
X160608971Y-115004038D01*
X160608971Y-115004038D02*
X160513733Y-115099276D01*
X160513733Y-115099276D02*
X160418495Y-115146895D01*
X161847066Y-114861180D02*
X161656590Y-114861180D01*
X161656590Y-114861180D02*
X161561352Y-114908800D01*
X161561352Y-114908800D02*
X161513733Y-114956419D01*
X161513733Y-114956419D02*
X161418495Y-115099276D01*
X161418495Y-115099276D02*
X161370876Y-115289752D01*
X161370876Y-115289752D02*
X161370876Y-115670704D01*
X161370876Y-115670704D02*
X161418495Y-115765942D01*
X161418495Y-115765942D02*
X161466114Y-115813561D01*
X161466114Y-115813561D02*
X161561352Y-115861180D01*
X161561352Y-115861180D02*
X161751828Y-115861180D01*
X161751828Y-115861180D02*
X161847066Y-115813561D01*
X161847066Y-115813561D02*
X161894685Y-115765942D01*
X161894685Y-115765942D02*
X161942304Y-115670704D01*
X161942304Y-115670704D02*
X161942304Y-115432609D01*
X161942304Y-115432609D02*
X161894685Y-115337371D01*
X161894685Y-115337371D02*
X161847066Y-115289752D01*
X161847066Y-115289752D02*
X161751828Y-115242133D01*
X161751828Y-115242133D02*
X161561352Y-115242133D01*
X161561352Y-115242133D02*
X161466114Y-115289752D01*
X161466114Y-115289752D02*
X161418495Y-115337371D01*
X161418495Y-115337371D02*
X161370876Y-115432609D01*
D11*
%TO.C,R8*%
X202000628Y-87831599D02*
X201714914Y-88031599D01*
X202000628Y-88174456D02*
X201400628Y-88174456D01*
X201400628Y-88174456D02*
X201400628Y-87945885D01*
X201400628Y-87945885D02*
X201429200Y-87888742D01*
X201429200Y-87888742D02*
X201457771Y-87860171D01*
X201457771Y-87860171D02*
X201514914Y-87831599D01*
X201514914Y-87831599D02*
X201600628Y-87831599D01*
X201600628Y-87831599D02*
X201657771Y-87860171D01*
X201657771Y-87860171D02*
X201686342Y-87888742D01*
X201686342Y-87888742D02*
X201714914Y-87945885D01*
X201714914Y-87945885D02*
X201714914Y-88174456D01*
X201657771Y-87488742D02*
X201629200Y-87545885D01*
X201629200Y-87545885D02*
X201600628Y-87574456D01*
X201600628Y-87574456D02*
X201543485Y-87603028D01*
X201543485Y-87603028D02*
X201514914Y-87603028D01*
X201514914Y-87603028D02*
X201457771Y-87574456D01*
X201457771Y-87574456D02*
X201429200Y-87545885D01*
X201429200Y-87545885D02*
X201400628Y-87488742D01*
X201400628Y-87488742D02*
X201400628Y-87374456D01*
X201400628Y-87374456D02*
X201429200Y-87317314D01*
X201429200Y-87317314D02*
X201457771Y-87288742D01*
X201457771Y-87288742D02*
X201514914Y-87260171D01*
X201514914Y-87260171D02*
X201543485Y-87260171D01*
X201543485Y-87260171D02*
X201600628Y-87288742D01*
X201600628Y-87288742D02*
X201629200Y-87317314D01*
X201629200Y-87317314D02*
X201657771Y-87374456D01*
X201657771Y-87374456D02*
X201657771Y-87488742D01*
X201657771Y-87488742D02*
X201686342Y-87545885D01*
X201686342Y-87545885D02*
X201714914Y-87574456D01*
X201714914Y-87574456D02*
X201772057Y-87603028D01*
X201772057Y-87603028D02*
X201886342Y-87603028D01*
X201886342Y-87603028D02*
X201943485Y-87574456D01*
X201943485Y-87574456D02*
X201972057Y-87545885D01*
X201972057Y-87545885D02*
X202000628Y-87488742D01*
X202000628Y-87488742D02*
X202000628Y-87374456D01*
X202000628Y-87374456D02*
X201972057Y-87317314D01*
X201972057Y-87317314D02*
X201943485Y-87288742D01*
X201943485Y-87288742D02*
X201886342Y-87260171D01*
X201886342Y-87260171D02*
X201772057Y-87260171D01*
X201772057Y-87260171D02*
X201714914Y-87288742D01*
X201714914Y-87288742D02*
X201686342Y-87317314D01*
X201686342Y-87317314D02*
X201657771Y-87374456D01*
D10*
%TO.C,U4*%
X226314095Y-101119780D02*
X226314095Y-101929304D01*
X226314095Y-101929304D02*
X226361714Y-102024542D01*
X226361714Y-102024542D02*
X226409333Y-102072161D01*
X226409333Y-102072161D02*
X226504571Y-102119780D01*
X226504571Y-102119780D02*
X226695047Y-102119780D01*
X226695047Y-102119780D02*
X226790285Y-102072161D01*
X226790285Y-102072161D02*
X226837904Y-102024542D01*
X226837904Y-102024542D02*
X226885523Y-101929304D01*
X226885523Y-101929304D02*
X226885523Y-101119780D01*
X227790285Y-101453114D02*
X227790285Y-102119780D01*
X227552190Y-101072161D02*
X227314095Y-101786447D01*
X227314095Y-101786447D02*
X227933142Y-101786447D01*
D11*
%TO.C,R19*%
X194635485Y-105579628D02*
X194435485Y-105293914D01*
X194292628Y-105579628D02*
X194292628Y-104979628D01*
X194292628Y-104979628D02*
X194521199Y-104979628D01*
X194521199Y-104979628D02*
X194578342Y-105008200D01*
X194578342Y-105008200D02*
X194606913Y-105036771D01*
X194606913Y-105036771D02*
X194635485Y-105093914D01*
X194635485Y-105093914D02*
X194635485Y-105179628D01*
X194635485Y-105179628D02*
X194606913Y-105236771D01*
X194606913Y-105236771D02*
X194578342Y-105265342D01*
X194578342Y-105265342D02*
X194521199Y-105293914D01*
X194521199Y-105293914D02*
X194292628Y-105293914D01*
X195206913Y-105579628D02*
X194864056Y-105579628D01*
X195035485Y-105579628D02*
X195035485Y-104979628D01*
X195035485Y-104979628D02*
X194978342Y-105065342D01*
X194978342Y-105065342D02*
X194921199Y-105122485D01*
X194921199Y-105122485D02*
X194864056Y-105151057D01*
X195492628Y-105579628D02*
X195606914Y-105579628D01*
X195606914Y-105579628D02*
X195664057Y-105551057D01*
X195664057Y-105551057D02*
X195692628Y-105522485D01*
X195692628Y-105522485D02*
X195749771Y-105436771D01*
X195749771Y-105436771D02*
X195778342Y-105322485D01*
X195778342Y-105322485D02*
X195778342Y-105093914D01*
X195778342Y-105093914D02*
X195749771Y-105036771D01*
X195749771Y-105036771D02*
X195721200Y-105008200D01*
X195721200Y-105008200D02*
X195664057Y-104979628D01*
X195664057Y-104979628D02*
X195549771Y-104979628D01*
X195549771Y-104979628D02*
X195492628Y-105008200D01*
X195492628Y-105008200D02*
X195464057Y-105036771D01*
X195464057Y-105036771D02*
X195435485Y-105093914D01*
X195435485Y-105093914D02*
X195435485Y-105236771D01*
X195435485Y-105236771D02*
X195464057Y-105293914D01*
X195464057Y-105293914D02*
X195492628Y-105322485D01*
X195492628Y-105322485D02*
X195549771Y-105351057D01*
X195549771Y-105351057D02*
X195664057Y-105351057D01*
X195664057Y-105351057D02*
X195721200Y-105322485D01*
X195721200Y-105322485D02*
X195749771Y-105293914D01*
X195749771Y-105293914D02*
X195778342Y-105236771D01*
D10*
%TO.C,SW1*%
X182251761Y-82359332D02*
X182299380Y-82216475D01*
X182299380Y-82216475D02*
X182299380Y-81978380D01*
X182299380Y-81978380D02*
X182251761Y-81883142D01*
X182251761Y-81883142D02*
X182204142Y-81835523D01*
X182204142Y-81835523D02*
X182108904Y-81787904D01*
X182108904Y-81787904D02*
X182013666Y-81787904D01*
X182013666Y-81787904D02*
X181918428Y-81835523D01*
X181918428Y-81835523D02*
X181870809Y-81883142D01*
X181870809Y-81883142D02*
X181823190Y-81978380D01*
X181823190Y-81978380D02*
X181775571Y-82168856D01*
X181775571Y-82168856D02*
X181727952Y-82264094D01*
X181727952Y-82264094D02*
X181680333Y-82311713D01*
X181680333Y-82311713D02*
X181585095Y-82359332D01*
X181585095Y-82359332D02*
X181489857Y-82359332D01*
X181489857Y-82359332D02*
X181394619Y-82311713D01*
X181394619Y-82311713D02*
X181347000Y-82264094D01*
X181347000Y-82264094D02*
X181299380Y-82168856D01*
X181299380Y-82168856D02*
X181299380Y-81930761D01*
X181299380Y-81930761D02*
X181347000Y-81787904D01*
X181299380Y-81454570D02*
X182299380Y-81216475D01*
X182299380Y-81216475D02*
X181585095Y-81025999D01*
X181585095Y-81025999D02*
X182299380Y-80835523D01*
X182299380Y-80835523D02*
X181299380Y-80597428D01*
X182299380Y-79692666D02*
X182299380Y-80264094D01*
X182299380Y-79978380D02*
X181299380Y-79978380D01*
X181299380Y-79978380D02*
X181442238Y-80073618D01*
X181442238Y-80073618D02*
X181537476Y-80168856D01*
X181537476Y-80168856D02*
X181585095Y-80264094D01*
D11*
%TO.C,L1*%
X198553400Y-86326428D02*
X198267686Y-86326428D01*
X198267686Y-86326428D02*
X198267686Y-85726428D01*
X199067685Y-86326428D02*
X198724828Y-86326428D01*
X198896257Y-86326428D02*
X198896257Y-85726428D01*
X198896257Y-85726428D02*
X198839114Y-85812142D01*
X198839114Y-85812142D02*
X198781971Y-85869285D01*
X198781971Y-85869285D02*
X198724828Y-85897857D01*
%TO.C,C8*%
X201918085Y-92708399D02*
X201946657Y-92736971D01*
X201946657Y-92736971D02*
X201975228Y-92822685D01*
X201975228Y-92822685D02*
X201975228Y-92879828D01*
X201975228Y-92879828D02*
X201946657Y-92965542D01*
X201946657Y-92965542D02*
X201889514Y-93022685D01*
X201889514Y-93022685D02*
X201832371Y-93051256D01*
X201832371Y-93051256D02*
X201718085Y-93079828D01*
X201718085Y-93079828D02*
X201632371Y-93079828D01*
X201632371Y-93079828D02*
X201518085Y-93051256D01*
X201518085Y-93051256D02*
X201460942Y-93022685D01*
X201460942Y-93022685D02*
X201403800Y-92965542D01*
X201403800Y-92965542D02*
X201375228Y-92879828D01*
X201375228Y-92879828D02*
X201375228Y-92822685D01*
X201375228Y-92822685D02*
X201403800Y-92736971D01*
X201403800Y-92736971D02*
X201432371Y-92708399D01*
X201632371Y-92365542D02*
X201603800Y-92422685D01*
X201603800Y-92422685D02*
X201575228Y-92451256D01*
X201575228Y-92451256D02*
X201518085Y-92479828D01*
X201518085Y-92479828D02*
X201489514Y-92479828D01*
X201489514Y-92479828D02*
X201432371Y-92451256D01*
X201432371Y-92451256D02*
X201403800Y-92422685D01*
X201403800Y-92422685D02*
X201375228Y-92365542D01*
X201375228Y-92365542D02*
X201375228Y-92251256D01*
X201375228Y-92251256D02*
X201403800Y-92194114D01*
X201403800Y-92194114D02*
X201432371Y-92165542D01*
X201432371Y-92165542D02*
X201489514Y-92136971D01*
X201489514Y-92136971D02*
X201518085Y-92136971D01*
X201518085Y-92136971D02*
X201575228Y-92165542D01*
X201575228Y-92165542D02*
X201603800Y-92194114D01*
X201603800Y-92194114D02*
X201632371Y-92251256D01*
X201632371Y-92251256D02*
X201632371Y-92365542D01*
X201632371Y-92365542D02*
X201660942Y-92422685D01*
X201660942Y-92422685D02*
X201689514Y-92451256D01*
X201689514Y-92451256D02*
X201746657Y-92479828D01*
X201746657Y-92479828D02*
X201860942Y-92479828D01*
X201860942Y-92479828D02*
X201918085Y-92451256D01*
X201918085Y-92451256D02*
X201946657Y-92422685D01*
X201946657Y-92422685D02*
X201975228Y-92365542D01*
X201975228Y-92365542D02*
X201975228Y-92251256D01*
X201975228Y-92251256D02*
X201946657Y-92194114D01*
X201946657Y-92194114D02*
X201918085Y-92165542D01*
X201918085Y-92165542D02*
X201860942Y-92136971D01*
X201860942Y-92136971D02*
X201746657Y-92136971D01*
X201746657Y-92136971D02*
X201689514Y-92165542D01*
X201689514Y-92165542D02*
X201660942Y-92194114D01*
X201660942Y-92194114D02*
X201632371Y-92251256D01*
D10*
%TO.C,J1*%
X220313380Y-85270933D02*
X221027666Y-85270933D01*
X221027666Y-85270933D02*
X221170523Y-85318552D01*
X221170523Y-85318552D02*
X221265761Y-85413790D01*
X221265761Y-85413790D02*
X221313380Y-85556647D01*
X221313380Y-85556647D02*
X221313380Y-85651885D01*
X221313380Y-84270933D02*
X221313380Y-84842361D01*
X221313380Y-84556647D02*
X220313380Y-84556647D01*
X220313380Y-84556647D02*
X220456238Y-84651885D01*
X220456238Y-84651885D02*
X220551476Y-84747123D01*
X220551476Y-84747123D02*
X220599095Y-84842361D01*
D11*
%TO.C,R11*%
X194635485Y-107357628D02*
X194435485Y-107071914D01*
X194292628Y-107357628D02*
X194292628Y-106757628D01*
X194292628Y-106757628D02*
X194521199Y-106757628D01*
X194521199Y-106757628D02*
X194578342Y-106786200D01*
X194578342Y-106786200D02*
X194606913Y-106814771D01*
X194606913Y-106814771D02*
X194635485Y-106871914D01*
X194635485Y-106871914D02*
X194635485Y-106957628D01*
X194635485Y-106957628D02*
X194606913Y-107014771D01*
X194606913Y-107014771D02*
X194578342Y-107043342D01*
X194578342Y-107043342D02*
X194521199Y-107071914D01*
X194521199Y-107071914D02*
X194292628Y-107071914D01*
X195206913Y-107357628D02*
X194864056Y-107357628D01*
X195035485Y-107357628D02*
X195035485Y-106757628D01*
X195035485Y-106757628D02*
X194978342Y-106843342D01*
X194978342Y-106843342D02*
X194921199Y-106900485D01*
X194921199Y-106900485D02*
X194864056Y-106929057D01*
X195778342Y-107357628D02*
X195435485Y-107357628D01*
X195606914Y-107357628D02*
X195606914Y-106757628D01*
X195606914Y-106757628D02*
X195549771Y-106843342D01*
X195549771Y-106843342D02*
X195492628Y-106900485D01*
X195492628Y-106900485D02*
X195435485Y-106929057D01*
D12*
%TO.C,J6*%
X162376000Y-82112000D02*
X164776000Y-82112000D01*
X162376000Y-84512000D02*
X162376000Y-82112000D01*
X164776000Y-82112000D02*
X164776000Y-84512000D01*
X164776000Y-84512000D02*
X162376000Y-84512000D01*
%TO.C,J7*%
X167850000Y-96519600D02*
X163520000Y-96519600D01*
X167850000Y-97739600D02*
X163520000Y-97739600D01*
%TO.C,C10*%
X194458000Y-85703236D02*
X194458000Y-85487564D01*
X195178000Y-85703236D02*
X195178000Y-85487564D01*
%TO.C,C7*%
X192617036Y-91952400D02*
X192401364Y-91952400D01*
X192617036Y-91232400D02*
X192401364Y-91232400D01*
%TO.C,R12*%
X196643559Y-105792000D02*
X196950841Y-105792000D01*
X196643559Y-106552000D02*
X196950841Y-106552000D01*
%TO.C,C6*%
X219866800Y-88737364D02*
X219866800Y-88953036D01*
X219146800Y-88737364D02*
X219146800Y-88953036D01*
%TO.C,C28*%
X170254600Y-119626748D02*
X170254600Y-120149252D01*
X168784600Y-119626748D02*
X168784600Y-120149252D01*
%TO.C,R6*%
X218161600Y-89000841D02*
X218161600Y-88693559D01*
X218921600Y-89000841D02*
X218921600Y-88693559D01*
%TO.C,R3*%
X210181759Y-116028200D02*
X210489041Y-116028200D01*
X210181759Y-116788200D02*
X210489041Y-116788200D01*
%TO.C,R7*%
X192327559Y-89332800D02*
X192634841Y-89332800D01*
X192327559Y-90092800D02*
X192634841Y-90092800D01*
%TO.C,R18*%
X212870200Y-107146241D02*
X212870200Y-106838959D01*
X213630200Y-107146241D02*
X213630200Y-106838959D01*
%TO.C,SW2*%
X185432000Y-125166000D02*
X186932000Y-125166000D01*
X189432000Y-123916000D02*
X189432000Y-119416000D01*
X182932000Y-119416000D02*
X182932000Y-123916000D01*
X186932000Y-118166000D02*
X185432000Y-118166000D01*
%TO.C,J10*%
X167850000Y-104444400D02*
X163520000Y-104444400D01*
X167850000Y-105664400D02*
X163520000Y-105664400D01*
%TO.C,J9*%
X167850000Y-101802800D02*
X163520000Y-101802800D01*
X167850000Y-103022800D02*
X163520000Y-103022800D01*
%TO.C,C19*%
X200249200Y-107092636D02*
X200249200Y-106876964D01*
X200969200Y-107092636D02*
X200969200Y-106876964D01*
%TO.C,C26*%
X192638000Y-110664164D02*
X192638000Y-110879836D01*
X191918000Y-110664164D02*
X191918000Y-110879836D01*
%TO.C,C22*%
X195686000Y-111977764D02*
X195686000Y-112193436D01*
X194966000Y-111977764D02*
X194966000Y-112193436D01*
%TO.C,J2*%
X191770800Y-116900000D02*
X191770800Y-115570000D01*
X193100800Y-116900000D02*
X191770800Y-116900000D01*
X194370800Y-116900000D02*
X202050800Y-116900000D01*
X194370800Y-116900000D02*
X194370800Y-114240000D01*
X202050800Y-116900000D02*
X202050800Y-114240000D01*
X194370800Y-114240000D02*
X202050800Y-114240000D01*
%TO.C,C15*%
X200893000Y-84502164D02*
X200893000Y-84717836D01*
X200173000Y-84502164D02*
X200173000Y-84717836D01*
%TO.C,C14*%
X199953200Y-84499564D02*
X199953200Y-84715236D01*
X199233200Y-84499564D02*
X199233200Y-84715236D01*
%TO.C,C2*%
X188868164Y-115108400D02*
X189083836Y-115108400D01*
X188868164Y-115828400D02*
X189083836Y-115828400D01*
%TO.C,R14*%
X170806342Y-123835900D02*
X171280858Y-123835900D01*
X170806342Y-124880900D02*
X171280858Y-124880900D01*
%TO.C,C9*%
X192617036Y-91012600D02*
X192401364Y-91012600D01*
X192617036Y-90292600D02*
X192401364Y-90292600D01*
%TO.C,C23*%
X188649436Y-108312600D02*
X188433764Y-108312600D01*
X188649436Y-107592600D02*
X188433764Y-107592600D01*
%TO.C,C11*%
X195397800Y-85703236D02*
X195397800Y-85487564D01*
X196117800Y-85703236D02*
X196117800Y-85487564D01*
%TO.C,R1*%
X190094600Y-84989641D02*
X190094600Y-84682359D01*
X190854600Y-84989641D02*
X190854600Y-84682359D01*
%TO.C,U6*%
X200832500Y-95494000D02*
X200832500Y-95969000D01*
X200357500Y-102714000D02*
X200832500Y-102714000D01*
X200357500Y-95494000D02*
X200832500Y-95494000D01*
X194087500Y-102714000D02*
X193612500Y-102714000D01*
X194087500Y-95494000D02*
X193612500Y-95494000D01*
X193612500Y-102714000D02*
X193612500Y-102239000D01*
X193612500Y-95494000D02*
X193612500Y-95969000D01*
%TO.C,U1*%
X199214000Y-92026000D02*
X198489000Y-92026000D01*
X194994000Y-91301000D02*
X194994000Y-92026000D01*
X199214000Y-91301000D02*
X199214000Y-92026000D01*
X194994000Y-88531000D02*
X194994000Y-87806000D01*
X199214000Y-88531000D02*
X199214000Y-87806000D01*
X194994000Y-87806000D02*
X195719000Y-87806000D01*
X199214000Y-87806000D02*
X198489000Y-87806000D01*
%TO.C,R5*%
X167262241Y-86359000D02*
X166954959Y-86359000D01*
X167262241Y-85599000D02*
X166954959Y-85599000D01*
%TO.C,C39*%
X207336564Y-96566400D02*
X207552236Y-96566400D01*
X207336564Y-97286400D02*
X207552236Y-97286400D01*
%TO.C,C3*%
X210470636Y-115803000D02*
X210254964Y-115803000D01*
X210470636Y-115083000D02*
X210254964Y-115083000D01*
%TO.C,C17*%
X198253236Y-82605200D02*
X198037564Y-82605200D01*
X198253236Y-81885200D02*
X198037564Y-81885200D01*
%TO.C,C1*%
X191774400Y-84728164D02*
X191774400Y-84943836D01*
X191054400Y-84728164D02*
X191054400Y-84943836D01*
%TO.C,Y2*%
X205861400Y-101525000D02*
X209161400Y-101525000D01*
X209161400Y-101525000D02*
X209161400Y-97525000D01*
%TO.C,SW4*%
X206768000Y-84526000D02*
X208268000Y-84526000D01*
X210768000Y-83276000D02*
X210768000Y-78776000D01*
X204268000Y-78776000D02*
X204268000Y-83276000D01*
X208268000Y-77526000D02*
X206768000Y-77526000D01*
D13*
%TO.C,IC2*%
X197465000Y-109874400D02*
X197465000Y-109374400D01*
D14*
X195214000Y-108200400D02*
X195214000Y-108200400D01*
X195198000Y-108200400D02*
X195198000Y-108200400D01*
D13*
X194965000Y-109874400D02*
X194965000Y-109374400D01*
D14*
X195198000Y-108200400D02*
G75*
G03*
X195214000Y-108200400I8000J0D01*
G01*
X195214000Y-108200400D02*
G75*
G03*
X195198000Y-108200400I-8000J0D01*
G01*
D12*
%TO.C,R4*%
X210181759Y-85878400D02*
X210489041Y-85878400D01*
X210181759Y-86638400D02*
X210489041Y-86638400D01*
%TO.C,FB1*%
X166602036Y-118391000D02*
X167056164Y-118391000D01*
X166602036Y-119861000D02*
X167056164Y-119861000D01*
%TO.C,R9*%
X200049641Y-110362000D02*
X199742359Y-110362000D01*
X200049641Y-109602000D02*
X199742359Y-109602000D01*
%TO.C,R2*%
X189157041Y-116788200D02*
X188849759Y-116788200D01*
X189157041Y-116028200D02*
X188849759Y-116028200D01*
%TO.C,J4*%
X183528000Y-94540800D02*
X184658000Y-94540800D01*
X183528000Y-95300800D02*
X183528000Y-94540800D01*
X183528000Y-96060800D02*
X183528000Y-103615800D01*
X183528000Y-96060800D02*
X184094529Y-96060800D01*
X183528000Y-103615800D02*
X184350470Y-103615800D01*
X184965530Y-103615800D02*
X185620470Y-103615800D01*
X185221471Y-96060800D02*
X185364529Y-96060800D01*
X185418000Y-94605800D02*
X185620470Y-94605800D01*
X185418000Y-94737329D02*
X185418000Y-94605800D01*
X185418000Y-96007329D02*
X185418000Y-95864271D01*
X186235530Y-94605800D02*
X187058000Y-94605800D01*
X186235530Y-103615800D02*
X187058000Y-103615800D01*
X187058000Y-94605800D02*
X187058000Y-103615800D01*
%TO.C,C24*%
X190470200Y-105746436D02*
X190470200Y-105530764D01*
X191190200Y-105746436D02*
X191190200Y-105530764D01*
%TO.C,R15*%
X163313342Y-116469900D02*
X163787858Y-116469900D01*
X163313342Y-117514900D02*
X163787858Y-117514900D01*
%TO.C,U7*%
X170727200Y-119643600D02*
X172727200Y-119643600D01*
X172727200Y-121883600D02*
X171727200Y-121883600D01*
%TO.C,C13*%
X204148636Y-92714400D02*
X203932964Y-92714400D01*
X204148636Y-91994400D02*
X203932964Y-91994400D01*
%TO.C,C29*%
X166432620Y-114983800D02*
X166713780Y-114983800D01*
X166432620Y-116003800D02*
X166713780Y-116003800D01*
%TO.C,FB2*%
X207658858Y-96229700D02*
X207184342Y-96229700D01*
X207658858Y-95184700D02*
X207184342Y-95184700D01*
%TO.C,SW5*%
X209162600Y-111123000D02*
X209282600Y-111123000D01*
X210292600Y-111123000D02*
X211432600Y-111123000D01*
X212442600Y-111123000D02*
X212562600Y-111123000D01*
X212562600Y-111123000D02*
X212562600Y-106723000D01*
X209162600Y-106723000D02*
X209162600Y-111123000D01*
X209282600Y-106723000D02*
X209162600Y-106723000D01*
X211432600Y-106723000D02*
X210292600Y-106723000D01*
X212562600Y-106723000D02*
X212442600Y-106723000D01*
%TO.C,C25*%
X191672800Y-110664164D02*
X191672800Y-110879836D01*
X190952800Y-110664164D02*
X190952800Y-110879836D01*
%TO.C,D1*%
X165166400Y-120257200D02*
X165166400Y-121957200D01*
X165166400Y-120257200D02*
X167826400Y-120257200D01*
X165166400Y-121957200D02*
X167826400Y-121957200D01*
D10*
%TO.C,U2*%
X205965400Y-106627400D02*
X205965400Y-107152400D01*
X201665400Y-106627400D02*
X202190400Y-106627400D01*
X201665400Y-106627400D02*
X201665400Y-107152400D01*
X205965400Y-110927400D02*
X205965400Y-110402400D01*
X205965400Y-110927400D02*
X205440400Y-110927400D01*
X201665400Y-110927400D02*
X201665400Y-110402400D01*
X201665400Y-110927400D02*
X202190400Y-110927400D01*
D12*
%TO.C,C21*%
X200027236Y-109402200D02*
X199811564Y-109402200D01*
X200027236Y-108682200D02*
X199811564Y-108682200D01*
%TO.C,C16*%
X196388400Y-82807636D02*
X196388400Y-82591964D01*
X197108400Y-82807636D02*
X197108400Y-82591964D01*
D11*
%TO.C,U5*%
X191859600Y-106806600D02*
X191859600Y-106806600D01*
X191859600Y-106906600D02*
X191859600Y-106906600D01*
X191859600Y-106906600D02*
G75*
G03*
X191859600Y-106806600I0J50000D01*
G01*
X191859600Y-106806600D02*
G75*
G03*
X191859600Y-106906600I0J-50000D01*
G01*
D12*
%TO.C,Y1*%
X205665400Y-87738200D02*
X202365400Y-87738200D01*
X202365400Y-87738200D02*
X202365400Y-91738200D01*
%TO.C,C37*%
X211021236Y-105930200D02*
X210805564Y-105930200D01*
X211021236Y-105210200D02*
X210805564Y-105210200D01*
%TO.C,C4*%
X210468036Y-87583600D02*
X210252364Y-87583600D01*
X210468036Y-86863600D02*
X210252364Y-86863600D01*
%TO.C,C18*%
X202950400Y-112264364D02*
X202950400Y-112480036D01*
X202230400Y-112264364D02*
X202230400Y-112480036D01*
%TO.C,C38*%
X207501436Y-102468000D02*
X207285764Y-102468000D01*
X207501436Y-101748000D02*
X207285764Y-101748000D01*
%TO.C,C20*%
X207319200Y-109902164D02*
X207319200Y-110117836D01*
X206599200Y-109902164D02*
X206599200Y-110117836D01*
%TO.C,C12*%
X203856764Y-86787400D02*
X204072436Y-86787400D01*
X203856764Y-87507400D02*
X204072436Y-87507400D01*
%TO.C,L4*%
X177342600Y-120662800D02*
X177342600Y-122262800D01*
X174142600Y-120662800D02*
X174142600Y-122262800D01*
%TO.C,R17*%
X171987942Y-118222500D02*
X172462458Y-118222500D01*
X171987942Y-119267500D02*
X172462458Y-119267500D01*
%TO.C,J3*%
X199054000Y-80116600D02*
X197944000Y-80116600D01*
X199054000Y-76406600D02*
X197944000Y-76406600D01*
X197354000Y-81166600D02*
X197104000Y-80666600D01*
X197104000Y-80666600D02*
X196854000Y-81166600D01*
X196854000Y-81166600D02*
X197354000Y-81166600D01*
X196264000Y-80116600D02*
X195154000Y-80116600D01*
X196264000Y-76406600D02*
X195154000Y-76406600D01*
D15*
%TO.C,U3*%
X155524000Y-96192000D02*
X158674000Y-96192000D01*
X155524000Y-105992000D02*
X155524000Y-96192000D01*
X158674000Y-105992000D02*
X155524000Y-105992000D01*
X158674000Y-106262000D02*
X158674000Y-105992000D01*
X160554000Y-93092000D02*
X161174000Y-93092000D01*
X161174000Y-86792000D02*
X172074000Y-86792000D01*
X161174000Y-93092000D02*
X161174000Y-86792000D01*
X161774000Y-108992000D02*
X160554000Y-108992000D01*
X161774000Y-112192000D02*
X161774000Y-108992000D01*
X171474000Y-108992000D02*
X171474000Y-112192000D01*
X172074000Y-86792000D02*
X172074000Y-93092000D01*
X172074000Y-93092000D02*
X172704000Y-93092000D01*
X172704000Y-108992000D02*
X171474000Y-108992000D01*
X174574000Y-96992000D02*
X176124000Y-96992000D01*
X174574000Y-105092000D02*
X174574000Y-106212000D01*
X176124000Y-96992000D02*
X176124000Y-105092000D01*
X176124000Y-105092000D02*
X174574000Y-105092000D01*
D16*
X160674000Y-87742000D02*
G75*
G03*
X160674000Y-87742000I-100000J0D01*
G01*
D12*
%TO.C,C30*%
X177827000Y-122013652D02*
X177827000Y-121491148D01*
X179297000Y-122013652D02*
X179297000Y-121491148D01*
%TO.C,C5*%
X167001364Y-84679200D02*
X167217036Y-84679200D01*
X167001364Y-85399200D02*
X167217036Y-85399200D01*
%TO.C,C27*%
X196651200Y-111980364D02*
X196651200Y-112196036D01*
X195931200Y-111980364D02*
X195931200Y-112196036D01*
%TO.C,SW3*%
X206768000Y-125166000D02*
X208268000Y-125166000D01*
X210768000Y-123916000D02*
X210768000Y-119416000D01*
X204268000Y-119416000D02*
X204268000Y-123916000D01*
X208268000Y-118166000D02*
X206768000Y-118166000D01*
%TO.C,J5*%
X162376000Y-118180000D02*
X164776000Y-118180000D01*
X162376000Y-120580000D02*
X162376000Y-118180000D01*
X164776000Y-118180000D02*
X164776000Y-120580000D01*
X164776000Y-120580000D02*
X162376000Y-120580000D01*
%TO.C,J8*%
X167850000Y-99161200D02*
X163520000Y-99161200D01*
X167850000Y-100381200D02*
X163520000Y-100381200D01*
%TO.C,R10*%
X196876400Y-112218441D02*
X196876400Y-111911159D01*
X197636400Y-112218441D02*
X197636400Y-111911159D01*
%TO.C,R13*%
X169143142Y-122311900D02*
X169617658Y-122311900D01*
X169143142Y-123356900D02*
X169617658Y-123356900D01*
%TO.C,R16*%
X163800058Y-116016300D02*
X163325542Y-116016300D01*
X163800058Y-114971300D02*
X163325542Y-114971300D01*
%TO.C,R8*%
X202084000Y-89051159D02*
X202084000Y-89358441D01*
X201324000Y-89051159D02*
X201324000Y-89358441D01*
D15*
%TO.C,U4*%
X215976000Y-96573000D02*
X219126000Y-96573000D01*
X215976000Y-106373000D02*
X215976000Y-96573000D01*
X219126000Y-106373000D02*
X215976000Y-106373000D01*
X219126000Y-106643000D02*
X219126000Y-106373000D01*
X221006000Y-93473000D02*
X221626000Y-93473000D01*
X221626000Y-87173000D02*
X232526000Y-87173000D01*
X221626000Y-93473000D02*
X221626000Y-87173000D01*
X222226000Y-109373000D02*
X221006000Y-109373000D01*
X222226000Y-112573000D02*
X222226000Y-109373000D01*
X231926000Y-109373000D02*
X231926000Y-112573000D01*
X232526000Y-87173000D02*
X232526000Y-93473000D01*
X232526000Y-93473000D02*
X233156000Y-93473000D01*
X233156000Y-109373000D02*
X231926000Y-109373000D01*
X235026000Y-97373000D02*
X236576000Y-97373000D01*
X235026000Y-105473000D02*
X235026000Y-106593000D01*
X236576000Y-97373000D02*
X236576000Y-105473000D01*
X236576000Y-105473000D02*
X235026000Y-105473000D01*
D16*
X221126000Y-88123000D02*
G75*
G03*
X221126000Y-88123000I-100000J0D01*
G01*
D12*
%TO.C,R19*%
X196643559Y-104826800D02*
X196950841Y-104826800D01*
X196643559Y-105586800D02*
X196950841Y-105586800D01*
%TO.C,SW1*%
X185432000Y-84526000D02*
X186932000Y-84526000D01*
X189432000Y-83276000D02*
X189432000Y-78776000D01*
X182932000Y-78776000D02*
X182932000Y-83276000D01*
X186932000Y-77526000D02*
X185432000Y-77526000D01*
%TO.C,C8*%
X202064000Y-91055364D02*
X202064000Y-91271036D01*
X201344000Y-91055364D02*
X201344000Y-91271036D01*
%TO.C,J1*%
X221946000Y-86267600D02*
X221946000Y-84937600D01*
X223276000Y-86267600D02*
X221946000Y-86267600D01*
X224546000Y-86267600D02*
X232226000Y-86267600D01*
X224546000Y-86267600D02*
X224546000Y-83607600D01*
X232226000Y-86267600D02*
X232226000Y-83607600D01*
X224546000Y-83607600D02*
X232226000Y-83607600D01*
%TO.C,R11*%
X196643559Y-106757200D02*
X196950841Y-106757200D01*
X196643559Y-107517200D02*
X196950841Y-107517200D01*
%TD*%
M02*
