%TF.GenerationSoftware,KiCad,Pcbnew,(6.0.0)*%
%TF.CreationDate,2022-05-06T13:51:05+05:30*%
%TF.ProjectId,Motion_Control_Board2.0,4d6f7469-6f6e-45f4-936f-6e74726f6c5f,rev?*%
%TF.SameCoordinates,Original*%
%TF.FileFunction,Profile,NP*%
%FSLAX46Y46*%
G04 Gerber Fmt 4.6, Leading zero omitted, Abs format (unit mm)*
G04 Created by KiCad (PCBNEW (6.0.0)) date 2022-05-06 13:51:05*
%MOMM*%
%LPD*%
G01*
G04 APERTURE LIST*
%TA.AperFunction,Profile*%
%ADD10C,1.959599*%
%TD*%
G04 APERTURE END LIST*
D10*
X75744299Y-59979387D02*
X217841653Y-59979387D01*
X217841653Y-59979387D02*
X218156212Y-59987467D01*
X218156212Y-59987467D02*
X218466641Y-60011446D01*
X218466641Y-60011446D02*
X218772556Y-60050934D01*
X218772556Y-60050934D02*
X219073574Y-60105541D01*
X219073574Y-60105541D02*
X219369311Y-60174877D01*
X219369311Y-60174877D02*
X219659382Y-60258551D01*
X219659382Y-60258551D02*
X219943403Y-60356174D01*
X219943403Y-60356174D02*
X220220990Y-60467356D01*
X220220990Y-60467356D02*
X220491760Y-60591706D01*
X220491760Y-60591706D02*
X220755327Y-60728833D01*
X220755327Y-60728833D02*
X221011309Y-60878349D01*
X221011309Y-60878349D02*
X221259320Y-61039863D01*
X221259320Y-61039863D02*
X221498978Y-61212984D01*
X221498978Y-61212984D02*
X221729897Y-61397322D01*
X221729897Y-61397322D02*
X221951694Y-61592488D01*
X221951694Y-61592488D02*
X222163984Y-61798091D01*
X222163984Y-61798091D02*
X222366384Y-62013742D01*
X222366384Y-62013742D02*
X222558509Y-62239049D01*
X222558509Y-62239049D02*
X222739976Y-62473622D01*
X222739976Y-62473622D02*
X222910400Y-62717073D01*
X222910400Y-62717073D02*
X223069397Y-62969009D01*
X223069397Y-62969009D02*
X223216584Y-63229042D01*
X223216584Y-63229042D02*
X223351575Y-63496781D01*
X223351575Y-63496781D02*
X223473988Y-63771836D01*
X223473988Y-63771836D02*
X223583437Y-64053817D01*
X223583437Y-64053817D02*
X223679539Y-64342334D01*
X223679539Y-64342334D02*
X223761910Y-64636996D01*
X223761910Y-64636996D02*
X223830166Y-64937413D01*
X223830166Y-64937413D02*
X223883923Y-65243195D01*
X223883923Y-65243195D02*
X223922796Y-65553953D01*
X223922796Y-65553953D02*
X223946401Y-65869296D01*
X223946401Y-65869296D02*
X223954355Y-66188833D01*
X223954355Y-66188833D02*
X223954355Y-145854841D01*
X223954355Y-145854841D02*
X223946401Y-146174378D01*
X223946401Y-146174378D02*
X223922796Y-146489721D01*
X223922796Y-146489721D02*
X223883923Y-146800478D01*
X223883923Y-146800478D02*
X223830166Y-147106261D01*
X223830166Y-147106261D02*
X223761910Y-147406678D01*
X223761910Y-147406678D02*
X223679539Y-147701340D01*
X223679539Y-147701340D02*
X223583437Y-147989856D01*
X223583437Y-147989856D02*
X223473988Y-148271837D01*
X223473988Y-148271837D02*
X223351575Y-148546892D01*
X223351575Y-148546892D02*
X223216584Y-148814631D01*
X223216584Y-148814631D02*
X223069397Y-149074663D01*
X223069397Y-149074663D02*
X222910400Y-149326600D01*
X222910400Y-149326600D02*
X222739976Y-149570050D01*
X222739976Y-149570050D02*
X222558509Y-149804624D01*
X222558509Y-149804624D02*
X222366384Y-150029930D01*
X222366384Y-150029930D02*
X222163984Y-150245580D01*
X222163984Y-150245580D02*
X221951694Y-150451183D01*
X221951694Y-150451183D02*
X221729897Y-150646349D01*
X221729897Y-150646349D02*
X221498978Y-150830687D01*
X221498978Y-150830687D02*
X221259320Y-151003808D01*
X221259320Y-151003808D02*
X221011309Y-151165322D01*
X221011309Y-151165322D02*
X220755327Y-151314837D01*
X220755327Y-151314837D02*
X220491760Y-151451965D01*
X220491760Y-151451965D02*
X220220990Y-151576314D01*
X220220990Y-151576314D02*
X219943403Y-151687496D01*
X219943403Y-151687496D02*
X219659382Y-151785119D01*
X219659382Y-151785119D02*
X219369311Y-151868793D01*
X219369311Y-151868793D02*
X219073574Y-151938129D01*
X219073574Y-151938129D02*
X218772556Y-151992736D01*
X218772556Y-151992736D02*
X218466641Y-152032224D01*
X218466641Y-152032224D02*
X218156212Y-152056203D01*
X218156212Y-152056203D02*
X217841653Y-152064283D01*
X217841653Y-152064283D02*
X75744299Y-152064283D01*
X75744299Y-152064283D02*
X75429740Y-152056203D01*
X75429740Y-152056203D02*
X75119310Y-152032224D01*
X75119310Y-152032224D02*
X74813394Y-151992736D01*
X74813394Y-151992736D02*
X74512376Y-151938129D01*
X74512376Y-151938129D02*
X74216639Y-151868793D01*
X74216639Y-151868793D02*
X73926568Y-151785119D01*
X73926568Y-151785119D02*
X73642547Y-151687496D01*
X73642547Y-151687496D02*
X73364960Y-151576314D01*
X73364960Y-151576314D02*
X73094190Y-151451965D01*
X73094190Y-151451965D02*
X72830622Y-151314837D01*
X72830622Y-151314837D02*
X72574641Y-151165322D01*
X72574641Y-151165322D02*
X72326630Y-151003808D01*
X72326630Y-151003808D02*
X72086972Y-150830687D01*
X72086972Y-150830687D02*
X71856054Y-150646349D01*
X71856054Y-150646349D02*
X71634257Y-150451183D01*
X71634257Y-150451183D02*
X71421967Y-150245580D01*
X71421967Y-150245580D02*
X71219567Y-150029930D01*
X71219567Y-150029930D02*
X71027442Y-149804624D01*
X71027442Y-149804624D02*
X70845976Y-149570050D01*
X70845976Y-149570050D02*
X70675552Y-149326600D01*
X70675552Y-149326600D02*
X70516555Y-149074663D01*
X70516555Y-149074663D02*
X70369369Y-148814631D01*
X70369369Y-148814631D02*
X70234377Y-148546892D01*
X70234377Y-148546892D02*
X70111965Y-148271837D01*
X70111965Y-148271837D02*
X70002516Y-147989856D01*
X70002516Y-147989856D02*
X69906414Y-147701340D01*
X69906414Y-147701340D02*
X69824043Y-147406678D01*
X69824043Y-147406678D02*
X69755787Y-147106261D01*
X69755787Y-147106261D02*
X69702031Y-146800478D01*
X69702031Y-146800478D02*
X69663158Y-146489721D01*
X69663158Y-146489721D02*
X69639553Y-146174378D01*
X69639553Y-146174378D02*
X69631599Y-145854841D01*
X69631599Y-145854841D02*
X69631599Y-66188833D01*
X69631599Y-66188833D02*
X69639553Y-65869296D01*
X69639553Y-65869296D02*
X69663158Y-65553953D01*
X69663158Y-65553953D02*
X69702031Y-65243195D01*
X69702031Y-65243195D02*
X69755787Y-64937413D01*
X69755787Y-64937413D02*
X69824043Y-64636996D01*
X69824043Y-64636996D02*
X69906414Y-64342334D01*
X69906414Y-64342334D02*
X70002516Y-64053817D01*
X70002516Y-64053817D02*
X70111965Y-63771836D01*
X70111965Y-63771836D02*
X70234377Y-63496781D01*
X70234377Y-63496781D02*
X70369369Y-63229042D01*
X70369369Y-63229042D02*
X70516555Y-62969009D01*
X70516555Y-62969009D02*
X70675552Y-62717073D01*
X70675552Y-62717073D02*
X70845976Y-62473622D01*
X70845976Y-62473622D02*
X71027442Y-62239049D01*
X71027442Y-62239049D02*
X71219567Y-62013742D01*
X71219567Y-62013742D02*
X71421967Y-61798091D01*
X71421967Y-61798091D02*
X71634257Y-61592488D01*
X71634257Y-61592488D02*
X71856054Y-61397322D01*
X71856054Y-61397322D02*
X72086972Y-61212984D01*
X72086972Y-61212984D02*
X72326630Y-61039863D01*
X72326630Y-61039863D02*
X72574641Y-60878349D01*
X72574641Y-60878349D02*
X72830622Y-60728833D01*
X72830622Y-60728833D02*
X73094190Y-60591706D01*
X73094190Y-60591706D02*
X73364960Y-60467356D01*
X73364960Y-60467356D02*
X73642547Y-60356174D01*
X73642547Y-60356174D02*
X73926568Y-60258551D01*
X73926568Y-60258551D02*
X74216639Y-60174877D01*
X74216639Y-60174877D02*
X74512376Y-60105541D01*
X74512376Y-60105541D02*
X74813394Y-60050934D01*
X74813394Y-60050934D02*
X75119310Y-60011446D01*
X75119310Y-60011446D02*
X75429740Y-59987467D01*
X75429740Y-59987467D02*
X75744299Y-59979387D01*
X75744299Y-59979387D02*
X75744299Y-59979387D01*
M02*
