M48
; DRILL file {KiCad (6.0.0)} date Fri May  6 13:49:46 2022
; FORMAT={-:-/ absolute / inch / decimal}
; #@! TF.CreationDate,2022-05-06T13:49:46+05:30
; #@! TF.GenerationSoftware,Kicad,Pcbnew,(6.0.0)
; #@! TF.FileFunction,Plated,1,4,PTH
FMAT,2
INCH
; #@! TA.AperFunction,Plated,PTH,ViaDrill
T1C0.0157
; #@! TA.AperFunction,Plated,PTH,ComponentDrill
T2C0.0300
; #@! TA.AperFunction,Plated,PTH,ComponentDrill
T3C0.0315
; #@! TA.AperFunction,Plated,PTH,ComponentDrill
T4C0.0362
; #@! TA.AperFunction,Plated,PTH,ComponentDrill
T5C0.0394
; #@! TA.AperFunction,Plated,PTH,ComponentDrill
T6C0.0433
; #@! TA.AperFunction,Plated,PTH,ComponentDrill
T7C0.0512
; #@! TA.AperFunction,Plated,PTH,ComponentDrill
T8C0.0917
; #@! TA.AperFunction,Plated,PTH,ComponentDrill
T9C0.1260
%
G90
G05
T1
X3.143Y-3.824
X3.233Y-3.192
X3.236Y-3.875
X3.239Y-3.082
X3.2441Y-4.6034
X3.2441Y-4.7564
X3.2441Y-4.9094
X3.2441Y-5.0584
X3.2441Y-5.2124
X3.2441Y-5.3644
X3.246Y-3.309
X3.3143Y-5.0623
X3.316Y-5.3644
X3.3161Y-4.7564
X3.3161Y-4.9084
X3.3181Y-4.6044
X3.319Y-5.211
X3.3781Y-4.6804
X3.3781Y-4.8334
X3.3781Y-4.9854
X3.3781Y-5.1364
X3.3781Y-5.2894
X3.4501Y-4.9844
X3.4501Y-5.1364
X3.4501Y-5.2884
X3.4511Y-4.8314
X3.4521Y-4.6794
X3.5135Y-5.0734
X3.516Y-3.505
X3.707Y-5.0864
X3.8065Y-5.0874
X3.8075Y-5.3344
X3.918Y-3.16
X3.953Y-3.675
X3.954Y-3.93
X3.9745Y-5.0744
X4.015Y-3.191
X4.214Y-5.0864
X4.3135Y-5.0874
X4.3145Y-5.3344
X4.3451Y-3.1294
X4.3451Y-3.5824
X4.349Y-4.93
X4.431Y-3.726
X4.432Y-5.169
X4.4611Y-3.2094
X4.4718Y-3.7979
X4.4825Y-5.0734
X4.487Y-4.78
X4.502Y-4.93
X4.5231Y-3.2814
X4.5231Y-3.3554
X4.5458Y-3.8159
X4.5821Y-3.1394
X4.6048Y-4.1139
X4.6048Y-4.3059
X4.6268Y-3.8179
X4.7108Y-3.5799
X4.7115Y-3.3294
X4.7115Y-3.4294
X4.7115Y-3.5294
X4.7118Y-3.2789
X4.7118Y-3.3799
X4.7118Y-3.4809
X4.7128Y-3.1304
X4.7128Y-3.1794
X4.7128Y-3.2294
X4.7158Y-3.7979
X4.716Y-5.0864
X4.8098Y-3.1629
X4.8155Y-5.0864
X4.8165Y-5.3344
X4.839Y-4.917
X4.9811Y-4.1494
X4.9835Y-5.0744
X4.989Y-3.771
X4.991Y-3.849
X4.992Y-3.698
X4.994Y-4.064
X4.995Y-3.918
X4.996Y-3.993
X5.002Y-3.472
X5.038Y-4.649
X5.04Y-3.508
X5.0541Y-4.1474
X5.0938Y-3.8059
X5.122Y-3.375
X5.1288Y-3.8539
X5.1288Y-4.7419
X5.132Y-4.004
X5.1728Y-3.8179
X5.1918Y-4.5169
X5.199Y-4.23
X5.205Y-4.751
X5.2121Y-4.1354
X5.214Y-3.747
X5.2158Y-4.4699
X5.218Y-5.0864
X5.224Y-4.282
X5.2588Y-4.7439
X5.2658Y-4.4499
X5.275Y-4.681
X5.2791Y-4.1354
X5.2801Y-4.2084
X5.291Y-4.063
X5.3108Y-4.4469
X5.3175Y-5.0864
X5.3185Y-5.3344
X5.3528Y-4.4459
X5.3638Y-4.3139
X5.3651Y-4.1354
X5.3651Y-4.2084
X5.3718Y-3.2559
X5.3758Y-3.9189
X5.3808Y-4.5299
X5.4008Y-4.4439
X5.4038Y-4.0749
X5.4048Y-4.6989
X5.4098Y-4.2899
X5.4228Y-4.5299
X5.4278Y-3.8999
X5.4318Y-3.8529
X5.4398Y-4.7339
X5.4491Y-4.1354
X5.4491Y-4.2084
X5.456Y-4.45
X5.458Y-3.798
X5.4648Y-4.5329
X5.4788Y-4.6999
X5.4885Y-5.0734
X5.5068Y-4.5119
X5.5188Y-4.7119
X5.5285Y-3.8519
X5.5318Y-3.9089
X5.5361Y-4.1354
X5.5361Y-4.2084
X5.5393Y-4.5424
X5.5709Y-3.8878
X5.5868Y-4.5119
X5.5933Y-4.6904
X5.5988Y-4.2049
X5.6048Y-4.7369
X5.606Y-4.864
X5.6258Y-4.4529
X5.6281Y-4.0594
X5.6281Y-4.1354
X5.6288Y-4.5329
X5.6623Y-4.4804
X5.6708Y-4.7359
X5.6838Y-3.9189
X5.6918Y-4.6979
X5.7228Y-3.8369
X5.7238Y-5.0779
X5.8111Y-4.0624
X5.8225Y-5.0864
X5.8235Y-5.3334
X5.8488Y-4.4659
X5.8493Y-4.5534
X5.8888Y-3.2909
X5.8891Y-3.8624
X5.8901Y-3.9894
X5.9008Y-4.4879
X5.9048Y-4.5329
X5.9118Y-3.1249
X5.9875Y-5.0724
X6.0521Y-3.5814
X6.0528Y-3.5269
X6.0531Y-3.1304
X6.0538Y-3.2269
X6.0538Y-3.4289
X6.1661Y-3.2084
X6.228Y-5.0854
X6.2398Y-3.7619
X6.2401Y-3.2904
X6.2401Y-3.3644
X6.2428Y-3.6989
X6.3101Y-3.1304
X6.3275Y-5.0864
X6.3285Y-5.3334
X6.4191Y-3.2784
X6.4191Y-3.3784
X6.4191Y-3.4784
X6.4191Y-3.5784
X6.4211Y-3.1294
X6.4221Y-3.1784
X6.4875Y-5.0744
X6.722Y-5.0844
X6.8128Y-3.0939
X6.8225Y-5.0864
X6.8225Y-5.3324
X6.9965Y-5.0734
X7.1095Y-3.5114
X7.1105Y-3.0734
X7.1105Y-3.1524
X7.1105Y-3.2334
X7.1105Y-3.3144
X7.1105Y-3.3924
X7.1835Y-3.3934
X7.1845Y-3.0744
X7.1845Y-3.1544
X7.1845Y-3.2334
X7.1845Y-3.5134
X7.1855Y-3.3144
X7.23Y-5.0864
X7.3295Y-5.0874
X7.3305Y-5.3344
X7.3585Y-3.2894
X7.4095Y-2.8734
X7.4165Y-3.5634
X7.4175Y-3.9624
X7.4175Y-4.0534
X7.4175Y-4.1434
X7.4175Y-4.2334
X7.4185Y-3.6534
X7.4185Y-3.7384
X7.4185Y-3.8254
X7.4205Y-3.2754
X7.4215Y-3.1944
X7.4918Y-3.2744
X7.4925Y-3.3544
X7.4925Y-3.9644
X7.4925Y-4.2344
X7.4935Y-3.6514
X7.4935Y-4.0524
X7.4935Y-4.1434
X7.4945Y-3.5644
X7.4945Y-3.7384
X7.4945Y-3.8264
X7.5055Y-2.8754
X7.6005Y-4.0024
X7.6005Y-4.0934
X7.6005Y-4.1834
X7.6015Y-3.6944
X7.6015Y-3.7844
X7.6025Y-3.6004
X7.6105Y-3.3584
X7.6115Y-3.4054
X7.6125Y-3.1564
X7.613Y-3.2074
X7.6135Y-3.0564
X7.6135Y-3.2574
X7.7315Y-3.1914
X7.7315Y-3.2664
X7.7315Y-3.3284
X7.7315Y-3.4044
X7.8605Y-3.1914
X7.8605Y-3.2664
X7.8605Y-3.3284
X7.8605Y-3.4044
X7.9795Y-3.3564
X7.9815Y-3.4074
X7.9835Y-3.0574
X8.0275Y-3.5724
X8.0275Y-3.7444
X8.0295Y-3.6574
X8.0861Y-3.2114
X8.0873Y-3.3634
X8.1005Y-3.6584
X8.1015Y-3.5714
X8.1025Y-3.7424
X8.131Y-4.577
X8.1391Y-5.2874
X8.1625Y-3.2824
X8.1645Y-3.3654
X8.2061Y-4.5774
X8.2075Y-3.6804
X8.2095Y-3.6054
X8.2141Y-5.2864
X8.2941Y-2.8734
X8.3045Y-3.6434
X8.4235Y-3.6444
X8.4985Y-3.6474
X8.5121Y-2.8744
X8.6961Y-3.1514
X8.6981Y-3.2244
T2
X7.7601Y-5.2894
X8.0651Y-4.4914
X8.2651Y-4.4904
X8.5691Y-5.2894
T3
X4.8319Y-4.1137
X4.8319Y-4.3058
T4
X8.5101Y-3.1382
X8.5101Y-3.2366
X8.5888Y-3.1382
X8.5888Y-3.2366
T5
X2.8767Y-3.06
X2.8767Y-3.1691
X2.8767Y-3.2782
X2.8767Y-3.3872
X2.8767Y-3.4963
X2.8767Y-3.6053
X2.8767Y-3.7144
X2.8777Y-4.659
X2.8777Y-4.7681
X2.8777Y-4.8772
X2.8777Y-4.9862
X2.8777Y-5.0953
X2.8777Y-5.2043
X2.8777Y-5.3134
X2.9885Y-3.0055
X2.9885Y-3.1146
X2.9885Y-3.2236
X2.9885Y-3.3327
X2.9885Y-3.4417
X2.9885Y-3.5508
X2.9885Y-3.6599
X2.9885Y-3.7689
X2.9895Y-4.6045
X2.9895Y-4.7136
X2.9895Y-4.8226
X2.9895Y-4.9317
X2.9895Y-5.0407
X2.9895Y-5.1498
X2.9895Y-5.2589
X2.9895Y-5.3679
X5.3121Y-3.5354
X5.3121Y-3.6354
X5.4121Y-3.5354
X5.4121Y-3.6354
X5.5121Y-3.5354
X5.5121Y-3.6354
T6
X5.2801Y-3.1698
X5.2801Y-3.347
X5.536Y-3.1698
X5.536Y-3.347
T7
X3.6225Y-5.7704
X3.6237Y-2.5775
X3.7603Y-5.7704
X3.7615Y-2.5775
X3.8981Y-5.7704
X3.8993Y-2.5775
X4.1265Y-5.7704
X4.1267Y-2.5774
X4.2643Y-5.7704
X4.2645Y-2.5774
X4.4021Y-5.7704
X4.4023Y-2.5774
X4.6305Y-5.7704
X4.6307Y-2.5775
X4.7683Y-5.7704
X4.7685Y-2.5775
X4.9061Y-5.7704
X4.9063Y-2.5775
X5.1309Y-2.5774
X5.1337Y-5.7705
X5.2687Y-2.5774
X5.2715Y-5.7705
X5.4065Y-2.5774
X5.4093Y-5.7705
X5.6325Y-2.5774
X5.6353Y-5.7705
X5.7703Y-2.5774
X5.7731Y-5.7705
X5.9081Y-2.5774
X5.9109Y-5.7705
X6.1353Y-2.5764
X6.1395Y-5.7705
X6.2731Y-2.5764
X6.2773Y-5.7705
X6.4109Y-2.5764
X6.4151Y-5.7705
X6.6377Y-2.5764
X6.6405Y-5.7705
X6.7755Y-2.5764
X6.7783Y-5.7705
X6.9133Y-2.5764
X6.9161Y-5.7705
X7.1415Y-5.7704
X7.1425Y-2.5754
X7.2793Y-5.7704
X7.2803Y-2.5754
X7.4171Y-5.7704
X7.4181Y-2.5754
X7.6435Y-2.5754
X7.6481Y-5.7704
X7.7813Y-2.5754
X7.7859Y-5.7704
X8.6111Y-3.8716
X8.6111Y-4.0094
T8
X8.6955Y-2.9504
X8.6955Y-3.4244
T9
X2.9326Y-2.7317
X2.9326Y-4.0427
X2.9336Y-4.3307
X2.9336Y-5.6417
T0
M30
