%TF.GenerationSoftware,KiCad,Pcbnew,(6.0.0)*%
%TF.CreationDate,2022-05-25T11:52:23+05:30*%
%TF.ProjectId,Motion_Control_HMI,4d6f7469-6f6e-45f4-936f-6e74726f6c5f,rev?*%
%TF.SameCoordinates,Original*%
%TF.FileFunction,Paste,Top*%
%TF.FilePolarity,Positive*%
%FSLAX46Y46*%
G04 Gerber Fmt 4.6, Leading zero omitted, Abs format (unit mm)*
G04 Created by KiCad (PCBNEW (6.0.0)) date 2022-05-25 11:52:23*
%MOMM*%
%LPD*%
G01*
G04 APERTURE LIST*
G04 Aperture macros list*
%AMRoundRect*
0 Rectangle with rounded corners*
0 $1 Rounding radius*
0 $2 $3 $4 $5 $6 $7 $8 $9 X,Y pos of 4 corners*
0 Add a 4 corners polygon primitive as box body*
4,1,4,$2,$3,$4,$5,$6,$7,$8,$9,$2,$3,0*
0 Add four circle primitives for the rounded corners*
1,1,$1+$1,$2,$3*
1,1,$1+$1,$4,$5*
1,1,$1+$1,$6,$7*
1,1,$1+$1,$8,$9*
0 Add four rect primitives between the rounded corners*
20,1,$1+$1,$2,$3,$4,$5,0*
20,1,$1+$1,$4,$5,$6,$7,0*
20,1,$1+$1,$6,$7,$8,$9,0*
20,1,$1+$1,$8,$9,$2,$3,0*%
%AMFreePoly0*
4,1,5,1.250000,-0.600001,-1.250000,-0.600001,-1.250000,0.600001,1.250000,0.600001,1.250000,-0.600001,1.250000,-0.600001,$1*%
%AMFreePoly1*
4,1,46,0.312869,1.975377,0.588081,1.911585,0.851560,1.809654,1.098046,1.671615,1.322624,1.500222,1.520812,1.298896,1.688656,1.071654,1.822807,0.823029,1.920587,0.557982,1.980047,0.281802,2.000001,0.000000,1.996053,-0.125581,1.958446,-0.405575,1.881762,-0.677476,1.767531,-0.935860,1.618034,-1.175571,1.436253,-1.391826,1.225813,-1.580310,0.990918,-1.737263,0.736249,-1.859553,
0.466891,-1.944740,0.188217,-1.991124,-0.094213,-1.997780,-0.374763,-1.964575,-0.647835,-1.892170,-0.907981,-1.782013,-1.150011,-1.636300,-1.369094,-1.457937,-1.560861,-1.250485,-1.721484,-1.018082,-1.847759,-0.765367,-1.937166,-0.497380,-1.987922,-0.219469,-1.999013,0.062822,-1.970219,0.343858,-1.902113,0.618034,-1.796055,0.879878,-1.654161,1.124168,-1.479262,1.346025,-1.274848,1.541026,
-1.044997,1.705281,-0.794296,1.835509,-0.527746,1.929115,-0.250666,1.984229,0.031415,1.999753,0.312869,1.975377,0.312869,1.975377,$1*%
G04 Aperture macros list end*
%ADD10FreePoly0,225.000000*%
%ADD11FreePoly0,135.000000*%
%ADD12FreePoly0,45.000000*%
%ADD13R,6.000000X1.200000*%
%ADD14R,1.200000X6.000000*%
%ADD15FreePoly0,0.000000*%
%ADD16FreePoly1,225.000000*%
%ADD17RoundRect,0.250000X-0.475000X0.250000X-0.475000X-0.250000X0.475000X-0.250000X0.475000X0.250000X0*%
G04 APERTURE END LIST*
D10*
%TO.C,SW8*%
X92704800Y-140660000D03*
D11*
X85704800Y-140660000D03*
D12*
X85704800Y-133660000D03*
D13*
X89204800Y-132960000D03*
X89204800Y-141360000D03*
D14*
X85004800Y-137160000D03*
D11*
X92704800Y-133660000D03*
D15*
X91744800Y-137160000D03*
D16*
X89204800Y-137160000D03*
%TD*%
D17*
%TO.C,C23*%
X131292600Y-128122600D03*
X131292600Y-130022600D03*
%TD*%
D14*
%TO.C,SW24*%
X174006400Y-130454400D03*
D11*
X174706400Y-133954400D03*
D13*
X178206400Y-134654400D03*
D12*
X174706400Y-126954400D03*
D11*
X181706400Y-126954400D03*
D10*
X181706400Y-133954400D03*
D13*
X178206400Y-126254400D03*
D16*
X178206400Y-130454400D03*
D15*
X180746400Y-130454400D03*
%TD*%
D17*
%TO.C,C21*%
X133299200Y-128122600D03*
X133299200Y-130022600D03*
%TD*%
D14*
%TO.C,SW12*%
X174006400Y-117652800D03*
D12*
X174706400Y-114152800D03*
D11*
X174706400Y-121152800D03*
X181706400Y-114152800D03*
D13*
X178206400Y-113452800D03*
D10*
X181706400Y-121152800D03*
D13*
X178206400Y-121852800D03*
D15*
X180746400Y-117652800D03*
D16*
X178206400Y-117652800D03*
%TD*%
D12*
%TO.C,SW15*%
X160126800Y-114102000D03*
D13*
X163626800Y-113402000D03*
D10*
X167126800Y-121102000D03*
D13*
X163626800Y-121802000D03*
D11*
X167126800Y-114102000D03*
X160126800Y-121102000D03*
D14*
X159426800Y-117602000D03*
D16*
X163626800Y-117602000D03*
D15*
X166166800Y-117602000D03*
%TD*%
D14*
%TO.C,SW25*%
X97755600Y-124510800D03*
D13*
X101955600Y-128710800D03*
D12*
X98455600Y-121010800D03*
D11*
X98455600Y-128010800D03*
D10*
X105455600Y-128010800D03*
D11*
X105455600Y-121010800D03*
D13*
X101955600Y-120310800D03*
D15*
X104495600Y-124510800D03*
D16*
X101955600Y-124510800D03*
%TD*%
D14*
%TO.C,SW6*%
X194778400Y-71724400D03*
D11*
X202478400Y-68224400D03*
D12*
X195478400Y-68224400D03*
D13*
X198978400Y-75924400D03*
D10*
X202478400Y-75224400D03*
D11*
X195478400Y-75224400D03*
D13*
X198978400Y-67524400D03*
D16*
X198978400Y-71724400D03*
D15*
X201518400Y-71724400D03*
%TD*%
D13*
%TO.C,SW16*%
X199009000Y-54753400D03*
D11*
X202509000Y-55453400D03*
D10*
X202509000Y-62453400D03*
D13*
X199009000Y-63153400D03*
D12*
X195509000Y-55453400D03*
D11*
X195509000Y-62453400D03*
D14*
X194809000Y-58953400D03*
D16*
X199009000Y-58953400D03*
D15*
X201549000Y-58953400D03*
%TD*%
D17*
%TO.C,C20*%
X135305800Y-128117600D03*
X135305800Y-130017600D03*
%TD*%
D12*
%TO.C,SW14*%
X98455600Y-108260000D03*
D11*
X105455600Y-108260000D03*
D14*
X97755600Y-111760000D03*
D13*
X101955600Y-115960000D03*
D10*
X105455600Y-115260000D03*
D13*
X101955600Y-107560000D03*
D11*
X98455600Y-115260000D03*
D16*
X101955600Y-111760000D03*
D15*
X104495600Y-111760000D03*
%TD*%
D10*
%TO.C,SW13*%
X118257200Y-115260000D03*
D11*
X111257200Y-115260000D03*
D13*
X114757200Y-107560000D03*
D14*
X110557200Y-111760000D03*
D13*
X114757200Y-115960000D03*
D11*
X118257200Y-108260000D03*
D12*
X111257200Y-108260000D03*
D15*
X117297200Y-111760000D03*
D16*
X114757200Y-111760000D03*
%TD*%
D13*
%TO.C,SW5*%
X89154000Y-120310800D03*
D14*
X84954000Y-124510800D03*
D11*
X92654000Y-121010800D03*
D13*
X89154000Y-128710800D03*
D12*
X85654000Y-121010800D03*
D10*
X92654000Y-128010800D03*
D11*
X85654000Y-128010800D03*
D16*
X89154000Y-124510800D03*
D15*
X91694000Y-124510800D03*
%TD*%
D11*
%TO.C,SW21*%
X194508000Y-126938000D03*
D14*
X186808000Y-130438000D03*
D13*
X191008000Y-134638000D03*
D12*
X187508000Y-126938000D03*
D11*
X187508000Y-133938000D03*
D13*
X191008000Y-126238000D03*
D10*
X194508000Y-133938000D03*
D15*
X193548000Y-130438000D03*
D16*
X191008000Y-130438000D03*
%TD*%
D12*
%TO.C,SW3*%
X85654000Y-108260000D03*
D10*
X92654000Y-115260000D03*
D13*
X89154000Y-115960000D03*
D14*
X84954000Y-111760000D03*
D13*
X89154000Y-107560000D03*
D11*
X92654000Y-108260000D03*
X85654000Y-115260000D03*
D15*
X91694000Y-111760000D03*
D16*
X89154000Y-111760000D03*
%TD*%
D11*
%TO.C,SW7*%
X176728000Y-68229600D03*
D14*
X169028000Y-71729600D03*
D10*
X176728000Y-75229600D03*
D13*
X173228000Y-75929600D03*
X173228000Y-67529600D03*
D12*
X169728000Y-68229600D03*
D11*
X169728000Y-75229600D03*
D16*
X173228000Y-71729600D03*
D15*
X175768000Y-71729600D03*
%TD*%
D11*
%TO.C,SW10*%
X111252000Y-128005600D03*
D14*
X110552000Y-124505600D03*
D11*
X118252000Y-121005600D03*
D13*
X114752000Y-120305600D03*
D12*
X111252000Y-121005600D03*
D10*
X118252000Y-128005600D03*
D13*
X114752000Y-128705600D03*
D16*
X114752000Y-124505600D03*
D15*
X117292000Y-124505600D03*
%TD*%
D14*
%TO.C,SW19*%
X97806400Y-137160000D03*
D11*
X105506400Y-133660000D03*
D10*
X105506400Y-140660000D03*
D11*
X98506400Y-140660000D03*
D12*
X98506400Y-133660000D03*
D13*
X102006400Y-141360000D03*
X102006400Y-132960000D03*
D16*
X102006400Y-137160000D03*
D15*
X104546400Y-137160000D03*
%TD*%
D12*
%TO.C,SW4*%
X147376000Y-114102000D03*
D13*
X150876000Y-113402000D03*
D14*
X146676000Y-117602000D03*
D11*
X147376000Y-121102000D03*
X154376000Y-114102000D03*
D13*
X150876000Y-121802000D03*
D10*
X154376000Y-121102000D03*
D16*
X150876000Y-117602000D03*
D15*
X153416000Y-117602000D03*
%TD*%
D13*
%TO.C,SW20*%
X163626800Y-126203600D03*
X163626800Y-134603600D03*
D10*
X167126800Y-133903600D03*
D14*
X159426800Y-130403600D03*
D12*
X160126800Y-126903600D03*
D11*
X160126800Y-133903600D03*
X167126800Y-126903600D03*
D16*
X163626800Y-130403600D03*
D15*
X166166800Y-130403600D03*
%TD*%
D17*
%TO.C,C25*%
X129286000Y-128117600D03*
X129286000Y-130017600D03*
%TD*%
D11*
%TO.C,SW17*%
X187508000Y-121152800D03*
D14*
X186808000Y-117652800D03*
D12*
X187508000Y-114152800D03*
D13*
X191008000Y-113452800D03*
D10*
X194508000Y-121152800D03*
D11*
X194508000Y-114152800D03*
D13*
X191008000Y-121852800D03*
D15*
X193548000Y-117652800D03*
D16*
X191008000Y-117652800D03*
%TD*%
D17*
%TO.C,C26*%
X127279400Y-128117600D03*
X127279400Y-130017600D03*
%TD*%
D12*
%TO.C,SW23*%
X200309600Y-126903600D03*
D11*
X200309600Y-133903600D03*
D14*
X199609600Y-130403600D03*
D13*
X203809600Y-126203600D03*
D10*
X207309600Y-133903600D03*
D13*
X203809600Y-134603600D03*
D11*
X207309600Y-126903600D03*
D16*
X203809600Y-130403600D03*
D15*
X206349600Y-130403600D03*
%TD*%
D11*
%TO.C,SW18*%
X118308000Y-133665200D03*
D13*
X114808000Y-141365200D03*
D10*
X118308000Y-140665200D03*
D11*
X111308000Y-140665200D03*
D14*
X110608000Y-137165200D03*
D12*
X111308000Y-133665200D03*
D13*
X114808000Y-132965200D03*
D16*
X114808000Y-137165200D03*
D15*
X117348000Y-137165200D03*
%TD*%
D10*
%TO.C,SW11*%
X176702600Y-62402600D03*
D12*
X169702600Y-55402600D03*
D11*
X169702600Y-62402600D03*
D13*
X173202600Y-54702600D03*
D14*
X169002600Y-58902600D03*
D13*
X173202600Y-63102600D03*
D11*
X176702600Y-55402600D03*
D16*
X173202600Y-58902600D03*
D15*
X175742600Y-58902600D03*
%TD*%
D14*
%TO.C,SW1*%
X181931200Y-58928000D03*
D12*
X182631200Y-55428000D03*
D10*
X189631200Y-62428000D03*
D13*
X186131200Y-63128000D03*
X186131200Y-54728000D03*
D11*
X189631200Y-55428000D03*
X182631200Y-62428000D03*
D15*
X188671200Y-58928000D03*
D16*
X186131200Y-58928000D03*
%TD*%
D12*
%TO.C,SW2*%
X182605800Y-68213200D03*
D13*
X186105800Y-75913200D03*
D11*
X182605800Y-75213200D03*
D14*
X181905800Y-71713200D03*
D10*
X189605800Y-75213200D03*
D11*
X189605800Y-68213200D03*
D13*
X186105800Y-67513200D03*
D15*
X188645800Y-71713200D03*
D16*
X186105800Y-71713200D03*
%TD*%
D14*
%TO.C,SW9*%
X146676000Y-130387200D03*
D12*
X147376000Y-126887200D03*
D10*
X154376000Y-133887200D03*
D13*
X150876000Y-134587200D03*
D11*
X147376000Y-133887200D03*
X154376000Y-126887200D03*
D13*
X150876000Y-126187200D03*
D15*
X153416000Y-130387200D03*
D16*
X150876000Y-130387200D03*
%TD*%
D17*
%TO.C,C27*%
X137312400Y-128117600D03*
X137312400Y-130017600D03*
%TD*%
D11*
%TO.C,SW22*%
X207309600Y-114152800D03*
X200309600Y-121152800D03*
D12*
X200309600Y-114152800D03*
D13*
X203809600Y-121852800D03*
X203809600Y-113452800D03*
D10*
X207309600Y-121152800D03*
D14*
X199609600Y-117652800D03*
D15*
X206349600Y-117652800D03*
D16*
X203809600Y-117652800D03*
%TD*%
M02*
