%TF.GenerationSoftware,KiCad,Pcbnew,(6.0.0)*%
%TF.CreationDate,2022-05-25T11:52:23+05:30*%
%TF.ProjectId,Motion_Control_HMI,4d6f7469-6f6e-45f4-936f-6e74726f6c5f,rev?*%
%TF.SameCoordinates,Original*%
%TF.FileFunction,Profile,NP*%
%FSLAX46Y46*%
G04 Gerber Fmt 4.6, Leading zero omitted, Abs format (unit mm)*
G04 Created by KiCad (PCBNEW (6.0.0)) date 2022-05-25 11:52:23*
%MOMM*%
%LPD*%
G01*
G04 APERTURE LIST*
%TA.AperFunction,Profile*%
%ADD10C,0.100000*%
%TD*%
G04 APERTURE END LIST*
D10*
X218795600Y-57912000D02*
X218795600Y-75336400D01*
X76073000Y-90982800D02*
X152146000Y-90982800D01*
X218795600Y-84328000D02*
X218795600Y-85445600D01*
X59944000Y-162763200D02*
X59944000Y-31953200D01*
X67665600Y-24333200D02*
G75*
G03*
X59944000Y-31953200I-50801J-7670799D01*
G01*
X218795600Y-34798000D02*
X218795600Y-35052000D01*
X218795600Y-108407200D02*
X218795600Y-134823200D01*
X218795600Y-75336400D02*
X218795600Y-84328000D01*
X218795600Y-37439600D02*
X218795600Y-38862000D01*
X67183000Y-162763200D02*
X59944000Y-162763200D01*
X218795600Y-85445600D02*
X218795600Y-102768400D01*
X76073000Y-38912800D02*
X152146000Y-38912800D01*
X218795600Y-32054800D02*
X218795600Y-33070800D01*
X218795600Y-158496000D02*
X218795600Y-159613600D01*
X218795600Y-38862000D02*
X218795600Y-41554400D01*
X218795600Y-33832800D02*
X218795600Y-34798000D01*
X218795600Y-33070800D02*
X218795600Y-33832800D01*
X218795600Y-134823200D02*
X218795600Y-158496000D01*
X218795432Y-32054799D02*
G75*
G03*
X211124800Y-24333200I-7670632J50799D01*
G01*
X67183000Y-162763200D02*
X210693000Y-162763200D01*
X218795600Y-43637200D02*
X218795600Y-47548800D01*
X218795600Y-159613600D02*
X218795600Y-162763200D01*
X218795600Y-41554400D02*
X218795600Y-43637200D01*
X67665600Y-24333200D02*
X69596000Y-24333200D01*
X76073000Y-90982800D02*
X76073000Y-38912800D01*
X152146000Y-38912800D02*
X152146000Y-90982800D01*
X218795600Y-102768400D02*
X218795600Y-108407200D01*
X218795600Y-35052000D02*
X218795600Y-37439600D01*
X218795600Y-162763200D02*
X210693000Y-162763200D01*
X218795600Y-49428400D02*
X218795600Y-57912000D01*
X218795600Y-47548800D02*
X218795600Y-49428400D01*
X69596000Y-24333200D02*
X211124800Y-24333200D01*
M02*
