%TF.GenerationSoftware,KiCad,Pcbnew,(6.0.0)*%
%TF.CreationDate,2022-05-25T11:52:23+05:30*%
%TF.ProjectId,Motion_Control_HMI,4d6f7469-6f6e-45f4-936f-6e74726f6c5f,rev?*%
%TF.SameCoordinates,Original*%
%TF.FileFunction,Soldermask,Bot*%
%TF.FilePolarity,Negative*%
%FSLAX46Y46*%
G04 Gerber Fmt 4.6, Leading zero omitted, Abs format (unit mm)*
G04 Created by KiCad (PCBNEW (6.0.0)) date 2022-05-25 11:52:23*
%MOMM*%
%LPD*%
G01*
G04 APERTURE LIST*
G04 Aperture macros list*
%AMRoundRect*
0 Rectangle with rounded corners*
0 $1 Rounding radius*
0 $2 $3 $4 $5 $6 $7 $8 $9 X,Y pos of 4 corners*
0 Add a 4 corners polygon primitive as box body*
4,1,4,$2,$3,$4,$5,$6,$7,$8,$9,$2,$3,0*
0 Add four circle primitives for the rounded corners*
1,1,$1+$1,$2,$3*
1,1,$1+$1,$4,$5*
1,1,$1+$1,$6,$7*
1,1,$1+$1,$8,$9*
0 Add four rect primitives between the rounded corners*
20,1,$1+$1,$2,$3,$4,$5,0*
20,1,$1+$1,$4,$5,$6,$7,0*
20,1,$1+$1,$6,$7,$8,$9,0*
20,1,$1+$1,$8,$9,$2,$3,0*%
G04 Aperture macros list end*
%ADD10C,4.300000*%
%ADD11C,2.340000*%
%ADD12C,3.200000*%
%ADD13RoundRect,0.250000X0.450000X-0.262500X0.450000X0.262500X-0.450000X0.262500X-0.450000X-0.262500X0*%
%ADD14RoundRect,0.243750X0.456250X-0.243750X0.456250X0.243750X-0.456250X0.243750X-0.456250X-0.243750X0*%
%ADD15RoundRect,0.250000X0.262500X0.450000X-0.262500X0.450000X-0.262500X-0.450000X0.262500X-0.450000X0*%
%ADD16RoundRect,0.250000X0.475000X-0.250000X0.475000X0.250000X-0.475000X0.250000X-0.475000X-0.250000X0*%
%ADD17R,1.500000X1.600000*%
%ADD18C,1.600000*%
%ADD19C,3.000000*%
%ADD20RoundRect,0.250000X-0.475000X0.250000X-0.475000X-0.250000X0.475000X-0.250000X0.475000X0.250000X0*%
%ADD21R,1.700000X1.700000*%
%ADD22O,1.700000X1.700000*%
%ADD23R,1.500000X2.000000*%
%ADD24R,3.800000X2.000000*%
%ADD25RoundRect,0.250000X-0.450000X0.262500X-0.450000X-0.262500X0.450000X-0.262500X0.450000X0.262500X0*%
%ADD26RoundRect,0.250000X0.250000X0.475000X-0.250000X0.475000X-0.250000X-0.475000X0.250000X-0.475000X0*%
%ADD27R,3.000000X3.000000*%
%ADD28RoundRect,0.250000X0.600000X0.750000X-0.600000X0.750000X-0.600000X-0.750000X0.600000X-0.750000X0*%
%ADD29O,1.700000X2.000000*%
%ADD30R,1.000000X0.700000*%
%ADD31RoundRect,0.250000X0.600000X0.725000X-0.600000X0.725000X-0.600000X-0.725000X0.600000X-0.725000X0*%
%ADD32O,1.700000X1.950000*%
%ADD33R,0.700000X1.000000*%
%ADD34RoundRect,0.243750X-0.456250X0.243750X-0.456250X-0.243750X0.456250X-0.243750X0.456250X0.243750X0*%
%ADD35R,2.000000X2.000000*%
%ADD36C,2.000000*%
%ADD37RoundRect,0.250000X-0.262500X-0.450000X0.262500X-0.450000X0.262500X0.450000X-0.262500X0.450000X0*%
%ADD38C,1.500000*%
%ADD39R,0.650000X1.050000*%
%ADD40RoundRect,0.075000X0.662500X0.075000X-0.662500X0.075000X-0.662500X-0.075000X0.662500X-0.075000X0*%
%ADD41RoundRect,0.075000X0.075000X0.662500X-0.075000X0.662500X-0.075000X-0.662500X0.075000X-0.662500X0*%
%ADD42RoundRect,0.150000X-0.875000X-0.150000X0.875000X-0.150000X0.875000X0.150000X-0.875000X0.150000X0*%
G04 APERTURE END LIST*
D10*
%TO.C,H4*%
X157988000Y-98044000D03*
%TD*%
D11*
%TO.C,RV3*%
X61777800Y-84291400D03*
X65577800Y-86791400D03*
X61777800Y-89291400D03*
%TD*%
D12*
%TO.C,H7*%
X215087200Y-144221200D03*
%TD*%
%TO.C,H8*%
X63398400Y-31699200D03*
%TD*%
%TO.C,H5*%
X70713600Y-144475200D03*
%TD*%
%TO.C,H2*%
X214985600Y-31648400D03*
%TD*%
D10*
%TO.C,H1*%
X70205600Y-32715200D03*
%TD*%
%TO.C,H3*%
X157988000Y-32715200D03*
%TD*%
%TO.C,H6*%
X70205600Y-98044000D03*
%TD*%
D13*
%TO.C,R1*%
X68580000Y-131597400D03*
X68580000Y-129772400D03*
%TD*%
D14*
%TO.C,D2*%
X210261200Y-144013400D03*
X210261200Y-142138400D03*
%TD*%
D15*
%TO.C,R3*%
X144043400Y-146862800D03*
X142218400Y-146862800D03*
%TD*%
D16*
%TO.C,C17*%
X201498200Y-141640600D03*
X201498200Y-139740600D03*
%TD*%
D17*
%TO.C,J1*%
X64432000Y-138644800D03*
D18*
X64432000Y-136144800D03*
X64432000Y-134144800D03*
X64432000Y-131644800D03*
D19*
X61722000Y-141714800D03*
X61722000Y-128574800D03*
%TD*%
D20*
%TO.C,C14*%
X204393800Y-152730200D03*
X204393800Y-154630200D03*
%TD*%
D16*
%TO.C,C2*%
X145719800Y-156235400D03*
X145719800Y-154335400D03*
%TD*%
%TO.C,C12*%
X197180200Y-141640600D03*
X197180200Y-139740600D03*
%TD*%
D21*
%TO.C,J4*%
X120370600Y-160731200D03*
D22*
X117830600Y-160731200D03*
X115290600Y-160731200D03*
X112750600Y-160731200D03*
X110210600Y-160731200D03*
%TD*%
D23*
%TO.C,U3*%
X201763600Y-144424000D03*
X204063600Y-144424000D03*
X206363600Y-144424000D03*
D24*
X204063600Y-150724000D03*
%TD*%
D16*
%TO.C,C11*%
X205765400Y-141640600D03*
X205765400Y-139740600D03*
%TD*%
%TO.C,C1*%
X160401000Y-157099000D03*
X160401000Y-155199000D03*
%TD*%
D20*
%TO.C,C6*%
X68503800Y-138638200D03*
X68503800Y-140538200D03*
%TD*%
D13*
%TO.C,R7*%
X92557600Y-133629400D03*
X92557600Y-131804400D03*
%TD*%
D25*
%TO.C,R5*%
X99669600Y-132613400D03*
X99669600Y-134438400D03*
%TD*%
D26*
%TO.C,C3*%
X66344800Y-124231400D03*
X64444800Y-124231400D03*
%TD*%
D16*
%TO.C,C16*%
X195021200Y-141640600D03*
X195021200Y-139740600D03*
%TD*%
D23*
%TO.C,U4*%
X194397600Y-144424000D03*
X196697600Y-144424000D03*
X198997600Y-144424000D03*
D24*
X196697600Y-150724000D03*
%TD*%
D27*
%TO.C,BT1*%
X188772800Y-149606000D03*
D19*
X168282800Y-149606000D03*
%TD*%
D13*
%TO.C,FB1*%
X206375000Y-154609800D03*
X206375000Y-152784800D03*
%TD*%
D28*
%TO.C,J7*%
X139750800Y-159893000D03*
D29*
X137250800Y-159893000D03*
%TD*%
D30*
%TO.C,Q3*%
X94456400Y-133588800D03*
X94456400Y-131688800D03*
X96856400Y-132638800D03*
%TD*%
D31*
%TO.C,RV1*%
X195195200Y-158445200D03*
D32*
X192695200Y-158445200D03*
X190195200Y-158445200D03*
%TD*%
D26*
%TO.C,C7*%
X73380600Y-137693400D03*
X71480600Y-137693400D03*
%TD*%
D20*
%TO.C,C22*%
X133273800Y-149174200D03*
X133273800Y-151074200D03*
%TD*%
D33*
%TO.C,Q1*%
X212466000Y-153873200D03*
X210566000Y-153873200D03*
X211516000Y-151473200D03*
%TD*%
D16*
%TO.C,C10*%
X199339200Y-141640600D03*
X199339200Y-139740600D03*
%TD*%
D34*
%TO.C,D1*%
X91440000Y-137388600D03*
X91440000Y-139263600D03*
%TD*%
D35*
%TO.C,BZ1*%
X136134000Y-112217200D03*
D36*
X128534000Y-112217200D03*
%TD*%
D25*
%TO.C,R11*%
X210286600Y-145770600D03*
X210286600Y-147595600D03*
%TD*%
D16*
%TO.C,C9*%
X207899000Y-141640600D03*
X207899000Y-139740600D03*
%TD*%
D15*
%TO.C,R10*%
X125171200Y-112217200D03*
X123346200Y-112217200D03*
%TD*%
D37*
%TO.C,R9*%
X125429000Y-144272000D03*
X127254000Y-144272000D03*
%TD*%
D26*
%TO.C,C4*%
X66370200Y-121691400D03*
X64470200Y-121691400D03*
%TD*%
D13*
%TO.C,R4*%
X99669600Y-128955800D03*
X99669600Y-127130800D03*
%TD*%
D20*
%TO.C,C24*%
X135940800Y-149174200D03*
X135940800Y-151074200D03*
%TD*%
D38*
%TO.C,Y1*%
X69926200Y-125374400D03*
X69926200Y-120494400D03*
%TD*%
D16*
%TO.C,C15*%
X203631800Y-141640600D03*
X203631800Y-139740600D03*
%TD*%
D28*
%TO.C,J6*%
X214934800Y-158445200D03*
D29*
X212434800Y-158445200D03*
%TD*%
D39*
%TO.C,SW26*%
X142214600Y-140411200D03*
X142214600Y-144561200D03*
X144364600Y-144536200D03*
X144364600Y-140411200D03*
%TD*%
D26*
%TO.C,C5*%
X73401000Y-130860800D03*
X71501000Y-130860800D03*
%TD*%
D30*
%TO.C,Q2*%
X94456400Y-129905800D03*
X94456400Y-128005800D03*
X96856400Y-128955800D03*
%TD*%
D16*
%TO.C,C18*%
X192862200Y-141640600D03*
X192862200Y-139740600D03*
%TD*%
D25*
%TO.C,R6*%
X92557600Y-128016000D03*
X92557600Y-129841000D03*
%TD*%
D37*
%TO.C,R12*%
X188976000Y-139369800D03*
X190801000Y-139369800D03*
%TD*%
D15*
%TO.C,FB2*%
X140077200Y-121285000D03*
X138252200Y-121285000D03*
%TD*%
D34*
%TO.C,D3*%
X189611000Y-143057400D03*
X189611000Y-144932400D03*
%TD*%
D21*
%TO.C,J2*%
X100126800Y-158496000D03*
D22*
X97586800Y-158496000D03*
X100126800Y-155956000D03*
X97586800Y-155956000D03*
X100126800Y-153416000D03*
X97586800Y-153416000D03*
X100126800Y-150876000D03*
X97586800Y-150876000D03*
%TD*%
D16*
%TO.C,C8*%
X87426800Y-139288600D03*
X87426800Y-137388600D03*
%TD*%
D40*
%TO.C,U5*%
X139908100Y-125377100D03*
X139908100Y-125877100D03*
X139908100Y-126377100D03*
X139908100Y-126877100D03*
X139908100Y-127377100D03*
X139908100Y-127877100D03*
X139908100Y-128377100D03*
X139908100Y-128877100D03*
X139908100Y-129377100D03*
X139908100Y-129877100D03*
X139908100Y-130377100D03*
X139908100Y-130877100D03*
X139908100Y-131377100D03*
X139908100Y-131877100D03*
X139908100Y-132377100D03*
X139908100Y-132877100D03*
X139908100Y-133377100D03*
X139908100Y-133877100D03*
X139908100Y-134377100D03*
X139908100Y-134877100D03*
X139908100Y-135377100D03*
X139908100Y-135877100D03*
X139908100Y-136377100D03*
X139908100Y-136877100D03*
X139908100Y-137377100D03*
D41*
X138245600Y-139039600D03*
X137745600Y-139039600D03*
X137245600Y-139039600D03*
X136745600Y-139039600D03*
X136245600Y-139039600D03*
X135745600Y-139039600D03*
X135245600Y-139039600D03*
X134745600Y-139039600D03*
X134245600Y-139039600D03*
X133745600Y-139039600D03*
X133245600Y-139039600D03*
X132745600Y-139039600D03*
X132245600Y-139039600D03*
X131745600Y-139039600D03*
X131245600Y-139039600D03*
X130745600Y-139039600D03*
X130245600Y-139039600D03*
X129745600Y-139039600D03*
X129245600Y-139039600D03*
X128745600Y-139039600D03*
X128245600Y-139039600D03*
X127745600Y-139039600D03*
X127245600Y-139039600D03*
X126745600Y-139039600D03*
X126245600Y-139039600D03*
D40*
X124583100Y-137377100D03*
X124583100Y-136877100D03*
X124583100Y-136377100D03*
X124583100Y-135877100D03*
X124583100Y-135377100D03*
X124583100Y-134877100D03*
X124583100Y-134377100D03*
X124583100Y-133877100D03*
X124583100Y-133377100D03*
X124583100Y-132877100D03*
X124583100Y-132377100D03*
X124583100Y-131877100D03*
X124583100Y-131377100D03*
X124583100Y-130877100D03*
X124583100Y-130377100D03*
X124583100Y-129877100D03*
X124583100Y-129377100D03*
X124583100Y-128877100D03*
X124583100Y-128377100D03*
X124583100Y-127877100D03*
X124583100Y-127377100D03*
X124583100Y-126877100D03*
X124583100Y-126377100D03*
X124583100Y-125877100D03*
X124583100Y-125377100D03*
D41*
X126245600Y-123714600D03*
X126745600Y-123714600D03*
X127245600Y-123714600D03*
X127745600Y-123714600D03*
X128245600Y-123714600D03*
X128745600Y-123714600D03*
X129245600Y-123714600D03*
X129745600Y-123714600D03*
X130245600Y-123714600D03*
X130745600Y-123714600D03*
X131245600Y-123714600D03*
X131745600Y-123714600D03*
X132245600Y-123714600D03*
X132745600Y-123714600D03*
X133245600Y-123714600D03*
X133745600Y-123714600D03*
X134245600Y-123714600D03*
X134745600Y-123714600D03*
X135245600Y-123714600D03*
X135745600Y-123714600D03*
X136245600Y-123714600D03*
X136745600Y-123714600D03*
X137245600Y-123714600D03*
X137745600Y-123714600D03*
X138245600Y-123714600D03*
%TD*%
D21*
%TO.C,J3*%
X130810000Y-160756600D03*
D22*
X130810000Y-158216600D03*
X128270000Y-160756600D03*
X128270000Y-158216600D03*
X125730000Y-160756600D03*
X125730000Y-158216600D03*
%TD*%
D42*
%TO.C,U1*%
X148512000Y-159181800D03*
X148512000Y-157911800D03*
X148512000Y-156641800D03*
X148512000Y-155371800D03*
X148512000Y-154101800D03*
X148512000Y-152831800D03*
X148512000Y-151561800D03*
X148512000Y-150291800D03*
X157812000Y-150291800D03*
X157812000Y-151561800D03*
X157812000Y-152831800D03*
X157812000Y-154101800D03*
X157812000Y-155371800D03*
X157812000Y-156641800D03*
X157812000Y-157911800D03*
X157812000Y-159181800D03*
%TD*%
D31*
%TO.C,RV2*%
X206298800Y-158445200D03*
D32*
X203798800Y-158445200D03*
X201298800Y-158445200D03*
%TD*%
D14*
%TO.C,F1*%
X215569800Y-153898600D03*
X215569800Y-152023600D03*
%TD*%
D15*
%TO.C,R2*%
X89966800Y-135077200D03*
X88141800Y-135077200D03*
%TD*%
D37*
%TO.C,R8*%
X125427100Y-146202400D03*
X127252100Y-146202400D03*
%TD*%
D38*
%TO.C,Y2*%
X132051400Y-145567400D03*
X136931400Y-145567400D03*
%TD*%
D42*
%TO.C,U2*%
X75692000Y-138963400D03*
X75692000Y-137693400D03*
X75692000Y-136423400D03*
X75692000Y-135153400D03*
X75692000Y-133883400D03*
X75692000Y-132613400D03*
X75692000Y-131343400D03*
X75692000Y-130073400D03*
X75692000Y-128803400D03*
X75692000Y-127533400D03*
X75692000Y-126263400D03*
X75692000Y-124993400D03*
X75692000Y-123723400D03*
X75692000Y-122453400D03*
X84992000Y-122453400D03*
X84992000Y-123723400D03*
X84992000Y-124993400D03*
X84992000Y-126263400D03*
X84992000Y-127533400D03*
X84992000Y-128803400D03*
X84992000Y-130073400D03*
X84992000Y-131343400D03*
X84992000Y-132613400D03*
X84992000Y-133883400D03*
X84992000Y-135153400D03*
X84992000Y-136423400D03*
X84992000Y-137693400D03*
X84992000Y-138963400D03*
%TD*%
D20*
%TO.C,C19*%
X140385800Y-141503400D03*
X140385800Y-143403400D03*
%TD*%
D21*
%TO.C,J5*%
X131368800Y-98094800D03*
D22*
X128828800Y-98094800D03*
X126288800Y-98094800D03*
X123748800Y-98094800D03*
X121208800Y-98094800D03*
X118668800Y-98094800D03*
X116128800Y-98094800D03*
X113588800Y-98094800D03*
X111048800Y-98094800D03*
X108508800Y-98094800D03*
X105968800Y-98094800D03*
X103428800Y-98094800D03*
X100888800Y-98094800D03*
X98348800Y-98094800D03*
X95808800Y-98094800D03*
X93268800Y-98094800D03*
X90728800Y-98094800D03*
X88188800Y-98094800D03*
X85648800Y-98094800D03*
X83108800Y-98094800D03*
%TD*%
D16*
%TO.C,C13*%
X208330800Y-154635200D03*
X208330800Y-152735200D03*
%TD*%
M02*
