M48
; DRILL file {KiCad (6.0.0)} date Wed May 25 11:52:18 2022
; FORMAT={-:-/ absolute / inch / decimal}
; #@! TF.CreationDate,2022-05-25T11:52:18+05:30
; #@! TF.GenerationSoftware,Kicad,Pcbnew,(6.0.0)
; #@! TF.FileFunction,Plated,1,4,PTH
FMAT,2
INCH
; #@! TA.AperFunction,Plated,PTH,ViaDrill
T1C0.0157
; #@! TA.AperFunction,Plated,PTH,ComponentDrill
T2C0.0315
; #@! TA.AperFunction,Plated,PTH,ComponentDrill
T3C0.0374
; #@! TA.AperFunction,Plated,PTH,ComponentDrill
T4C0.0394
; #@! TA.AperFunction,Plated,PTH,ComponentDrill
T5C0.0512
; #@! TA.AperFunction,Plated,PTH,ComponentDrill
T6C0.0591
; #@! TA.AperFunction,Plated,PTH,ComponentDrill
T7C0.0906
%
G90
G05
T1
X2.539Y-4.793
X2.539Y-4.892
X2.697Y-5.533
X2.698Y-5.457
X2.7Y-5.108
X2.7Y-5.182
X2.815Y-5.423
X2.816Y-5.153
X2.893Y-5.152
X2.98Y-4.92
X2.98Y-5.265
X2.981Y-5.22
X2.982Y-5.072
X3.2125Y-5.1255
X3.25Y-5.172
X3.347Y-5.221
X3.441Y-5.485
X3.512Y-4.398
X3.513Y-5.401
X3.541Y-5.646
X3.6Y-5.483
X3.612Y-4.12
X3.643Y-5.189
X3.649Y-5.113
X3.665Y-4.783
X3.719Y-5.113
X3.721Y-5.26
X3.877Y-4.767
X3.924Y-5.004
X3.924Y-5.292
X4.014Y-4.4
X4.016Y-5.4
X4.066Y-4.122
X4.167Y-4.78
X4.17Y-6.04
X4.381Y-4.76
X4.518Y-4.4
X4.557Y-4.138
X4.629Y-6.048
X4.659Y-5.04
X4.7199Y-4.9559
X4.727Y-6.156
X4.762Y-5.392
X4.776Y-5.235
X4.799Y-4.3
X4.8065Y-5.4255
X4.813Y-6.186
X4.841Y-5.165
X4.854Y-5.548
X4.855Y-4.417
X4.856Y-5.508
X4.86Y-4.708
X4.938Y-5.755
X4.939Y-5.678
X5.011Y-5.119
X5.012Y-5.044
X5.015Y-5.551
X5.015Y-5.598
X5.03Y-5.282
X5.032Y-5.197
X5.09Y-5.119
X5.091Y-5.044
X5.094Y-5.382
X5.095Y-5.292
X5.115Y-4.938
X5.128Y-5.255
X5.139Y-4.783
X5.144Y-5.411
X5.159Y-5.577
X5.163Y-4.936
X5.169Y-5.119
X5.17Y-5.044
X5.199Y-6.028
X5.21Y-4.782
X5.2255Y-5.3295
X5.227Y-6.089
X5.234Y-4.929
X5.247Y-5.119
X5.248Y-5.044
X5.248Y-5.948
X5.269Y-5.411
X5.326Y-5.044
X5.327Y-5.119
X5.352Y-5.948
X5.3595Y-5.5945
X5.377Y-5.255
X5.377Y-5.327
X5.388Y-5.564
X5.405Y-5.044
X5.406Y-5.119
X5.432Y-5.414
X5.516Y-4.776
X5.532Y-5.69
X5.534Y-5.486
X5.589Y-5.336
X5.599Y-5.7819
X5.601Y-5.119
X5.608Y-5.069
X5.608Y-5.438
X5.617Y-4.847
X5.63Y-5.148
X5.643Y-4.918
X5.644Y-5.018
X5.672Y-5.78
X5.684Y-5.528
X5.684Y-5.69
X5.737Y-6.076
X5.738Y-6.149
X5.74Y-5.599
X5.801Y-5.597
X5.846Y-6.066
X5.847Y-5.915
X5.847Y-5.965
X5.847Y-6.017
X5.847Y-6.217
X5.856Y-5.665
X5.8995Y-5.4625
X5.928Y-5.657
X5.94Y-4.63
X5.94Y-5.1334
X6.05Y-4.186
X6.101Y-4.281
X6.13Y-4.167
X6.162Y-4.283
X6.199Y-4.14
X6.213Y-6.067
X6.214Y-5.916
X6.214Y-5.966
X6.214Y-6.016
X6.214Y-6.116
X6.214Y-6.167
X6.243Y-4.28
X6.313Y-6.111
X6.316Y-6.186
X6.397Y-5.489
X6.442Y-5.134
X6.542Y-4.312
X6.6Y-4.325
X6.679Y-4.329
X6.823Y-2.319
X6.825Y-2.827
X6.865Y-3.106
X6.962Y-2.456
X7.016Y-4.632
X7.264Y-4.231
X7.265Y-4.179
X7.327Y-2.988
X7.329Y-2.871
X7.334Y-2.3206
X7.374Y-4.172
X7.4235Y-4.2305
X7.464Y-2.451
X7.465Y-5.705
X7.513Y-5.488
X7.517Y-4.967
X7.52Y-4.632
X7.592Y-5.502
X7.593Y-5.577
X7.653Y-5.69
X7.668Y-2.325
X7.678Y-5.502
X7.678Y-5.577
X7.699Y-2.686
X7.747Y-5.688
X7.764Y-5.502
X7.764Y-5.577
X7.834Y-2.829
X7.836Y-5.687
X7.848Y-5.577
X7.849Y-5.502
X7.933Y-5.577
X7.934Y-5.502
X7.945Y-5.687
X8.016Y-5.502
X8.016Y-5.577
X8.024Y-4.632
X8.036Y-5.686
X8.047Y-6.012
X8.047Y-6.087
X8.1Y-5.577
X8.101Y-5.502
X8.125Y-6.087
X8.126Y-5.686
X8.126Y-6.014
X8.185Y-5.577
X8.186Y-5.502
X8.202Y-6.088
X8.204Y-6.014
X8.278Y-5.595
X8.279Y-5.812
X8.29Y-6.057
X8.326Y-5.964
X8.364Y-6.057
X8.486Y-5.984
X8.488Y-6.058
T2
X2.753Y-4.7439
X2.753Y-4.936
X5.1989Y-5.731
X5.391Y-5.731
T3
X2.5367Y-5.1829
X2.5367Y-5.2813
X2.5367Y-5.36
X2.5367Y-5.4585
X7.488Y-6.238
X7.5864Y-6.238
X7.6849Y-6.238
X7.9251Y-6.238
X8.0236Y-6.238
X8.122Y-6.238
T4
X3.272Y-3.862
X3.372Y-3.862
X3.472Y-3.862
X3.572Y-3.862
X3.672Y-3.862
X3.772Y-3.862
X3.842Y-5.94
X3.842Y-6.04
X3.842Y-6.14
X3.842Y-6.24
X3.872Y-3.862
X3.942Y-5.94
X3.942Y-6.04
X3.942Y-6.14
X3.942Y-6.24
X3.972Y-3.862
X4.072Y-3.862
X4.172Y-3.862
X4.272Y-3.862
X4.339Y-6.328
X4.372Y-3.862
X4.439Y-6.328
X4.472Y-3.862
X4.539Y-6.328
X4.572Y-3.862
X4.639Y-6.328
X4.672Y-3.862
X4.739Y-6.328
X4.772Y-3.862
X4.872Y-3.862
X4.95Y-6.229
X4.95Y-6.329
X4.972Y-3.862
X5.05Y-6.229
X5.05Y-6.329
X5.0604Y-4.418
X5.072Y-3.862
X5.15Y-6.229
X5.15Y-6.329
X5.172Y-3.862
X5.3596Y-4.418
X5.4036Y-6.295
X5.502Y-6.295
X8.3636Y-6.238
X8.462Y-6.238
T5
X2.4322Y-3.3186
X2.4322Y-3.5154
X2.5818Y-3.417
T6
X6.6253Y-5.89
X7.432Y-5.89
T7
X2.43Y-5.062
X2.43Y-5.5793
T0
M30
