%TF.GenerationSoftware,KiCad,Pcbnew,(6.0.0)*%
%TF.CreationDate,2022-05-25T11:52:23+05:30*%
%TF.ProjectId,Motion_Control_HMI,4d6f7469-6f6e-45f4-936f-6e74726f6c5f,rev?*%
%TF.SameCoordinates,Original*%
%TF.FileFunction,Legend,Top*%
%TF.FilePolarity,Positive*%
%FSLAX46Y46*%
G04 Gerber Fmt 4.6, Leading zero omitted, Abs format (unit mm)*
G04 Created by KiCad (PCBNEW (6.0.0)) date 2022-05-25 11:52:23*
%MOMM*%
%LPD*%
G01*
G04 APERTURE LIST*
%ADD10C,0.150000*%
%ADD11C,0.120000*%
G04 APERTURE END LIST*
D10*
X67767200Y-43078400D02*
X67767200Y-49784000D01*
X67767200Y-49784000D02*
X67767200Y-54203600D01*
X59944000Y-101600000D02*
X218948000Y-101600000D01*
X59690000Y-147828000D02*
X218694000Y-147828000D01*
X67767200Y-101396800D02*
X67767200Y-101447600D01*
X160426400Y-29362400D02*
X160426400Y-101447600D01*
X67767200Y-54203600D02*
X67767200Y-55422800D01*
X160426400Y-101447600D02*
X67767200Y-101447600D01*
X67767200Y-55422800D02*
X67767200Y-100736400D01*
X67767200Y-36880800D02*
X67767200Y-38608000D01*
X67767200Y-29311600D02*
X160426400Y-29362400D01*
X67767200Y-38608000D02*
X67767200Y-43078400D01*
X67767200Y-29311600D02*
X67767200Y-34493200D01*
X67767200Y-34493200D02*
X67767200Y-36880800D01*
X67767200Y-100736400D02*
X67767200Y-101396800D01*
%TO.C,SW8*%
X87871466Y-145184761D02*
X88014323Y-145232380D01*
X88252419Y-145232380D01*
X88347657Y-145184761D01*
X88395276Y-145137142D01*
X88442895Y-145041904D01*
X88442895Y-144946666D01*
X88395276Y-144851428D01*
X88347657Y-144803809D01*
X88252419Y-144756190D01*
X88061942Y-144708571D01*
X87966704Y-144660952D01*
X87919085Y-144613333D01*
X87871466Y-144518095D01*
X87871466Y-144422857D01*
X87919085Y-144327619D01*
X87966704Y-144280000D01*
X88061942Y-144232380D01*
X88300038Y-144232380D01*
X88442895Y-144280000D01*
X88776228Y-144232380D02*
X89014323Y-145232380D01*
X89204800Y-144518095D01*
X89395276Y-145232380D01*
X89633371Y-144232380D01*
X90157180Y-144660952D02*
X90061942Y-144613333D01*
X90014323Y-144565714D01*
X89966704Y-144470476D01*
X89966704Y-144422857D01*
X90014323Y-144327619D01*
X90061942Y-144280000D01*
X90157180Y-144232380D01*
X90347657Y-144232380D01*
X90442895Y-144280000D01*
X90490514Y-144327619D01*
X90538133Y-144422857D01*
X90538133Y-144470476D01*
X90490514Y-144565714D01*
X90442895Y-144613333D01*
X90347657Y-144660952D01*
X90157180Y-144660952D01*
X90061942Y-144708571D01*
X90014323Y-144756190D01*
X89966704Y-144851428D01*
X89966704Y-145041904D01*
X90014323Y-145137142D01*
X90061942Y-145184761D01*
X90157180Y-145232380D01*
X90347657Y-145232380D01*
X90442895Y-145184761D01*
X90490514Y-145137142D01*
X90538133Y-145041904D01*
X90538133Y-144851428D01*
X90490514Y-144756190D01*
X90442895Y-144708571D01*
X90347657Y-144660952D01*
%TO.C,H4*%
X157226095Y-93196380D02*
X157226095Y-92196380D01*
X157226095Y-92672571D02*
X157797523Y-92672571D01*
X157797523Y-93196380D02*
X157797523Y-92196380D01*
X158702285Y-92529714D02*
X158702285Y-93196380D01*
X158464190Y-92148761D02*
X158226095Y-92863047D01*
X158845142Y-92863047D01*
%TO.C,C23*%
X131624342Y-126804657D02*
X131671961Y-126852276D01*
X131719580Y-126995133D01*
X131719580Y-127090371D01*
X131671961Y-127233228D01*
X131576723Y-127328466D01*
X131481485Y-127376085D01*
X131291009Y-127423704D01*
X131148152Y-127423704D01*
X130957676Y-127376085D01*
X130862438Y-127328466D01*
X130767200Y-127233228D01*
X130719580Y-127090371D01*
X130719580Y-126995133D01*
X130767200Y-126852276D01*
X130814819Y-126804657D01*
X130814819Y-126423704D02*
X130767200Y-126376085D01*
X130719580Y-126280847D01*
X130719580Y-126042752D01*
X130767200Y-125947514D01*
X130814819Y-125899895D01*
X130910057Y-125852276D01*
X131005295Y-125852276D01*
X131148152Y-125899895D01*
X131719580Y-126471323D01*
X131719580Y-125852276D01*
X130719580Y-125518942D02*
X130719580Y-124899895D01*
X131100533Y-125233228D01*
X131100533Y-125090371D01*
X131148152Y-124995133D01*
X131195771Y-124947514D01*
X131291009Y-124899895D01*
X131529104Y-124899895D01*
X131624342Y-124947514D01*
X131671961Y-124995133D01*
X131719580Y-125090371D01*
X131719580Y-125376085D01*
X131671961Y-125471323D01*
X131624342Y-125518942D01*
%TO.C,SW24*%
X176396876Y-138479161D02*
X176539733Y-138526780D01*
X176777828Y-138526780D01*
X176873066Y-138479161D01*
X176920685Y-138431542D01*
X176968304Y-138336304D01*
X176968304Y-138241066D01*
X176920685Y-138145828D01*
X176873066Y-138098209D01*
X176777828Y-138050590D01*
X176587352Y-138002971D01*
X176492114Y-137955352D01*
X176444495Y-137907733D01*
X176396876Y-137812495D01*
X176396876Y-137717257D01*
X176444495Y-137622019D01*
X176492114Y-137574400D01*
X176587352Y-137526780D01*
X176825447Y-137526780D01*
X176968304Y-137574400D01*
X177301638Y-137526780D02*
X177539733Y-138526780D01*
X177730209Y-137812495D01*
X177920685Y-138526780D01*
X178158780Y-137526780D01*
X178492114Y-137622019D02*
X178539733Y-137574400D01*
X178634971Y-137526780D01*
X178873066Y-137526780D01*
X178968304Y-137574400D01*
X179015923Y-137622019D01*
X179063542Y-137717257D01*
X179063542Y-137812495D01*
X179015923Y-137955352D01*
X178444495Y-138526780D01*
X179063542Y-138526780D01*
X179920685Y-137860114D02*
X179920685Y-138526780D01*
X179682590Y-137479161D02*
X179444495Y-138193447D01*
X180063542Y-138193447D01*
%TO.C,C21*%
X133630942Y-126794457D02*
X133678561Y-126842076D01*
X133726180Y-126984933D01*
X133726180Y-127080171D01*
X133678561Y-127223028D01*
X133583323Y-127318266D01*
X133488085Y-127365885D01*
X133297609Y-127413504D01*
X133154752Y-127413504D01*
X132964276Y-127365885D01*
X132869038Y-127318266D01*
X132773800Y-127223028D01*
X132726180Y-127080171D01*
X132726180Y-126984933D01*
X132773800Y-126842076D01*
X132821419Y-126794457D01*
X132821419Y-126413504D02*
X132773800Y-126365885D01*
X132726180Y-126270647D01*
X132726180Y-126032552D01*
X132773800Y-125937314D01*
X132821419Y-125889695D01*
X132916657Y-125842076D01*
X133011895Y-125842076D01*
X133154752Y-125889695D01*
X133726180Y-126461123D01*
X133726180Y-125842076D01*
X133726180Y-124889695D02*
X133726180Y-125461123D01*
X133726180Y-125175409D02*
X132726180Y-125175409D01*
X132869038Y-125270647D01*
X132964276Y-125365885D01*
X133011895Y-125461123D01*
%TO.C,SW12*%
X177336676Y-110716961D02*
X177479533Y-110764580D01*
X177717628Y-110764580D01*
X177812866Y-110716961D01*
X177860485Y-110669342D01*
X177908104Y-110574104D01*
X177908104Y-110478866D01*
X177860485Y-110383628D01*
X177812866Y-110336009D01*
X177717628Y-110288390D01*
X177527152Y-110240771D01*
X177431914Y-110193152D01*
X177384295Y-110145533D01*
X177336676Y-110050295D01*
X177336676Y-109955057D01*
X177384295Y-109859819D01*
X177431914Y-109812200D01*
X177527152Y-109764580D01*
X177765247Y-109764580D01*
X177908104Y-109812200D01*
X178241438Y-109764580D02*
X178479533Y-110764580D01*
X178670009Y-110050295D01*
X178860485Y-110764580D01*
X179098580Y-109764580D01*
X180003342Y-110764580D02*
X179431914Y-110764580D01*
X179717628Y-110764580D02*
X179717628Y-109764580D01*
X179622390Y-109907438D01*
X179527152Y-110002676D01*
X179431914Y-110050295D01*
X180384295Y-109859819D02*
X180431914Y-109812200D01*
X180527152Y-109764580D01*
X180765247Y-109764580D01*
X180860485Y-109812200D01*
X180908104Y-109859819D01*
X180955723Y-109955057D01*
X180955723Y-110050295D01*
X180908104Y-110193152D01*
X180336676Y-110764580D01*
X180955723Y-110764580D01*
%TO.C,SW15*%
X161664876Y-109827961D02*
X161807733Y-109875580D01*
X162045828Y-109875580D01*
X162141066Y-109827961D01*
X162188685Y-109780342D01*
X162236304Y-109685104D01*
X162236304Y-109589866D01*
X162188685Y-109494628D01*
X162141066Y-109447009D01*
X162045828Y-109399390D01*
X161855352Y-109351771D01*
X161760114Y-109304152D01*
X161712495Y-109256533D01*
X161664876Y-109161295D01*
X161664876Y-109066057D01*
X161712495Y-108970819D01*
X161760114Y-108923200D01*
X161855352Y-108875580D01*
X162093447Y-108875580D01*
X162236304Y-108923200D01*
X162569638Y-108875580D02*
X162807733Y-109875580D01*
X162998209Y-109161295D01*
X163188685Y-109875580D01*
X163426780Y-108875580D01*
X164331542Y-109875580D02*
X163760114Y-109875580D01*
X164045828Y-109875580D02*
X164045828Y-108875580D01*
X163950590Y-109018438D01*
X163855352Y-109113676D01*
X163760114Y-109161295D01*
X165236304Y-108875580D02*
X164760114Y-108875580D01*
X164712495Y-109351771D01*
X164760114Y-109304152D01*
X164855352Y-109256533D01*
X165093447Y-109256533D01*
X165188685Y-109304152D01*
X165236304Y-109351771D01*
X165283923Y-109447009D01*
X165283923Y-109685104D01*
X165236304Y-109780342D01*
X165188685Y-109827961D01*
X165093447Y-109875580D01*
X164855352Y-109875580D01*
X164760114Y-109827961D01*
X164712495Y-109780342D01*
%TO.C,SW25*%
X100146076Y-132535561D02*
X100288933Y-132583180D01*
X100527028Y-132583180D01*
X100622266Y-132535561D01*
X100669885Y-132487942D01*
X100717504Y-132392704D01*
X100717504Y-132297466D01*
X100669885Y-132202228D01*
X100622266Y-132154609D01*
X100527028Y-132106990D01*
X100336552Y-132059371D01*
X100241314Y-132011752D01*
X100193695Y-131964133D01*
X100146076Y-131868895D01*
X100146076Y-131773657D01*
X100193695Y-131678419D01*
X100241314Y-131630800D01*
X100336552Y-131583180D01*
X100574647Y-131583180D01*
X100717504Y-131630800D01*
X101050838Y-131583180D02*
X101288933Y-132583180D01*
X101479409Y-131868895D01*
X101669885Y-132583180D01*
X101907980Y-131583180D01*
X102241314Y-131678419D02*
X102288933Y-131630800D01*
X102384171Y-131583180D01*
X102622266Y-131583180D01*
X102717504Y-131630800D01*
X102765123Y-131678419D01*
X102812742Y-131773657D01*
X102812742Y-131868895D01*
X102765123Y-132011752D01*
X102193695Y-132583180D01*
X102812742Y-132583180D01*
X103717504Y-131583180D02*
X103241314Y-131583180D01*
X103193695Y-132059371D01*
X103241314Y-132011752D01*
X103336552Y-131964133D01*
X103574647Y-131964133D01*
X103669885Y-132011752D01*
X103717504Y-132059371D01*
X103765123Y-132154609D01*
X103765123Y-132392704D01*
X103717504Y-132487942D01*
X103669885Y-132535561D01*
X103574647Y-132583180D01*
X103336552Y-132583180D01*
X103241314Y-132535561D01*
X103193695Y-132487942D01*
%TO.C,RV3*%
X61182561Y-81093780D02*
X60849228Y-80617590D01*
X60611133Y-81093780D02*
X60611133Y-80093780D01*
X60992085Y-80093780D01*
X61087323Y-80141400D01*
X61134942Y-80189019D01*
X61182561Y-80284257D01*
X61182561Y-80427114D01*
X61134942Y-80522352D01*
X61087323Y-80569971D01*
X60992085Y-80617590D01*
X60611133Y-80617590D01*
X61468276Y-80093780D02*
X61801609Y-81093780D01*
X62134942Y-80093780D01*
X62373038Y-80093780D02*
X62992085Y-80093780D01*
X62658752Y-80474733D01*
X62801609Y-80474733D01*
X62896847Y-80522352D01*
X62944466Y-80569971D01*
X62992085Y-80665209D01*
X62992085Y-80903304D01*
X62944466Y-80998542D01*
X62896847Y-81046161D01*
X62801609Y-81093780D01*
X62515895Y-81093780D01*
X62420657Y-81046161D01*
X62373038Y-80998542D01*
%TO.C,SW6*%
X197645066Y-79749161D02*
X197787923Y-79796780D01*
X198026019Y-79796780D01*
X198121257Y-79749161D01*
X198168876Y-79701542D01*
X198216495Y-79606304D01*
X198216495Y-79511066D01*
X198168876Y-79415828D01*
X198121257Y-79368209D01*
X198026019Y-79320590D01*
X197835542Y-79272971D01*
X197740304Y-79225352D01*
X197692685Y-79177733D01*
X197645066Y-79082495D01*
X197645066Y-78987257D01*
X197692685Y-78892019D01*
X197740304Y-78844400D01*
X197835542Y-78796780D01*
X198073638Y-78796780D01*
X198216495Y-78844400D01*
X198549828Y-78796780D02*
X198787923Y-79796780D01*
X198978400Y-79082495D01*
X199168876Y-79796780D01*
X199406971Y-78796780D01*
X200216495Y-78796780D02*
X200026019Y-78796780D01*
X199930780Y-78844400D01*
X199883161Y-78892019D01*
X199787923Y-79034876D01*
X199740304Y-79225352D01*
X199740304Y-79606304D01*
X199787923Y-79701542D01*
X199835542Y-79749161D01*
X199930780Y-79796780D01*
X200121257Y-79796780D01*
X200216495Y-79749161D01*
X200264114Y-79701542D01*
X200311733Y-79606304D01*
X200311733Y-79368209D01*
X200264114Y-79272971D01*
X200216495Y-79225352D01*
X200121257Y-79177733D01*
X199930780Y-79177733D01*
X199835542Y-79225352D01*
X199787923Y-79272971D01*
X199740304Y-79368209D01*
%TO.C,H7*%
X214325295Y-140473580D02*
X214325295Y-139473580D01*
X214325295Y-139949771D02*
X214896723Y-139949771D01*
X214896723Y-140473580D02*
X214896723Y-139473580D01*
X215277676Y-139473580D02*
X215944342Y-139473580D01*
X215515771Y-140473580D01*
%TO.C,SW16*%
X193648676Y-67141761D02*
X193791533Y-67189380D01*
X194029628Y-67189380D01*
X194124866Y-67141761D01*
X194172485Y-67094142D01*
X194220104Y-66998904D01*
X194220104Y-66903666D01*
X194172485Y-66808428D01*
X194124866Y-66760809D01*
X194029628Y-66713190D01*
X193839152Y-66665571D01*
X193743914Y-66617952D01*
X193696295Y-66570333D01*
X193648676Y-66475095D01*
X193648676Y-66379857D01*
X193696295Y-66284619D01*
X193743914Y-66237000D01*
X193839152Y-66189380D01*
X194077247Y-66189380D01*
X194220104Y-66237000D01*
X194553438Y-66189380D02*
X194791533Y-67189380D01*
X194982009Y-66475095D01*
X195172485Y-67189380D01*
X195410580Y-66189380D01*
X196315342Y-67189380D02*
X195743914Y-67189380D01*
X196029628Y-67189380D02*
X196029628Y-66189380D01*
X195934390Y-66332238D01*
X195839152Y-66427476D01*
X195743914Y-66475095D01*
X197172485Y-66189380D02*
X196982009Y-66189380D01*
X196886771Y-66237000D01*
X196839152Y-66284619D01*
X196743914Y-66427476D01*
X196696295Y-66617952D01*
X196696295Y-66998904D01*
X196743914Y-67094142D01*
X196791533Y-67141761D01*
X196886771Y-67189380D01*
X197077247Y-67189380D01*
X197172485Y-67141761D01*
X197220104Y-67094142D01*
X197267723Y-66998904D01*
X197267723Y-66760809D01*
X197220104Y-66665571D01*
X197172485Y-66617952D01*
X197077247Y-66570333D01*
X196886771Y-66570333D01*
X196791533Y-66617952D01*
X196743914Y-66665571D01*
X196696295Y-66760809D01*
%TO.C,C20*%
X135535942Y-126652257D02*
X135583561Y-126699876D01*
X135631180Y-126842733D01*
X135631180Y-126937971D01*
X135583561Y-127080828D01*
X135488323Y-127176066D01*
X135393085Y-127223685D01*
X135202609Y-127271304D01*
X135059752Y-127271304D01*
X134869276Y-127223685D01*
X134774038Y-127176066D01*
X134678800Y-127080828D01*
X134631180Y-126937971D01*
X134631180Y-126842733D01*
X134678800Y-126699876D01*
X134726419Y-126652257D01*
X134726419Y-126271304D02*
X134678800Y-126223685D01*
X134631180Y-126128447D01*
X134631180Y-125890352D01*
X134678800Y-125795114D01*
X134726419Y-125747495D01*
X134821657Y-125699876D01*
X134916895Y-125699876D01*
X135059752Y-125747495D01*
X135631180Y-126318923D01*
X135631180Y-125699876D01*
X134631180Y-125080828D02*
X134631180Y-124985590D01*
X134678800Y-124890352D01*
X134726419Y-124842733D01*
X134821657Y-124795114D01*
X135012133Y-124747495D01*
X135250228Y-124747495D01*
X135440704Y-124795114D01*
X135535942Y-124842733D01*
X135583561Y-124890352D01*
X135631180Y-124985590D01*
X135631180Y-125080828D01*
X135583561Y-125176066D01*
X135535942Y-125223685D01*
X135440704Y-125271304D01*
X135250228Y-125318923D01*
X135012133Y-125318923D01*
X134821657Y-125271304D01*
X134726419Y-125223685D01*
X134678800Y-125176066D01*
X134631180Y-125080828D01*
%TO.C,SW14*%
X100146076Y-119784761D02*
X100288933Y-119832380D01*
X100527028Y-119832380D01*
X100622266Y-119784761D01*
X100669885Y-119737142D01*
X100717504Y-119641904D01*
X100717504Y-119546666D01*
X100669885Y-119451428D01*
X100622266Y-119403809D01*
X100527028Y-119356190D01*
X100336552Y-119308571D01*
X100241314Y-119260952D01*
X100193695Y-119213333D01*
X100146076Y-119118095D01*
X100146076Y-119022857D01*
X100193695Y-118927619D01*
X100241314Y-118880000D01*
X100336552Y-118832380D01*
X100574647Y-118832380D01*
X100717504Y-118880000D01*
X101050838Y-118832380D02*
X101288933Y-119832380D01*
X101479409Y-119118095D01*
X101669885Y-119832380D01*
X101907980Y-118832380D01*
X102812742Y-119832380D02*
X102241314Y-119832380D01*
X102527028Y-119832380D02*
X102527028Y-118832380D01*
X102431790Y-118975238D01*
X102336552Y-119070476D01*
X102241314Y-119118095D01*
X103669885Y-119165714D02*
X103669885Y-119832380D01*
X103431790Y-118784761D02*
X103193695Y-119499047D01*
X103812742Y-119499047D01*
%TO.C,SW13*%
X112947676Y-119784761D02*
X113090533Y-119832380D01*
X113328628Y-119832380D01*
X113423866Y-119784761D01*
X113471485Y-119737142D01*
X113519104Y-119641904D01*
X113519104Y-119546666D01*
X113471485Y-119451428D01*
X113423866Y-119403809D01*
X113328628Y-119356190D01*
X113138152Y-119308571D01*
X113042914Y-119260952D01*
X112995295Y-119213333D01*
X112947676Y-119118095D01*
X112947676Y-119022857D01*
X112995295Y-118927619D01*
X113042914Y-118880000D01*
X113138152Y-118832380D01*
X113376247Y-118832380D01*
X113519104Y-118880000D01*
X113852438Y-118832380D02*
X114090533Y-119832380D01*
X114281009Y-119118095D01*
X114471485Y-119832380D01*
X114709580Y-118832380D01*
X115614342Y-119832380D02*
X115042914Y-119832380D01*
X115328628Y-119832380D02*
X115328628Y-118832380D01*
X115233390Y-118975238D01*
X115138152Y-119070476D01*
X115042914Y-119118095D01*
X115947676Y-118832380D02*
X116566723Y-118832380D01*
X116233390Y-119213333D01*
X116376247Y-119213333D01*
X116471485Y-119260952D01*
X116519104Y-119308571D01*
X116566723Y-119403809D01*
X116566723Y-119641904D01*
X116519104Y-119737142D01*
X116471485Y-119784761D01*
X116376247Y-119832380D01*
X116090533Y-119832380D01*
X115995295Y-119784761D01*
X115947676Y-119737142D01*
%TO.C,SW5*%
X87820666Y-132535561D02*
X87963523Y-132583180D01*
X88201619Y-132583180D01*
X88296857Y-132535561D01*
X88344476Y-132487942D01*
X88392095Y-132392704D01*
X88392095Y-132297466D01*
X88344476Y-132202228D01*
X88296857Y-132154609D01*
X88201619Y-132106990D01*
X88011142Y-132059371D01*
X87915904Y-132011752D01*
X87868285Y-131964133D01*
X87820666Y-131868895D01*
X87820666Y-131773657D01*
X87868285Y-131678419D01*
X87915904Y-131630800D01*
X88011142Y-131583180D01*
X88249238Y-131583180D01*
X88392095Y-131630800D01*
X88725428Y-131583180D02*
X88963523Y-132583180D01*
X89154000Y-131868895D01*
X89344476Y-132583180D01*
X89582571Y-131583180D01*
X90439714Y-131583180D02*
X89963523Y-131583180D01*
X89915904Y-132059371D01*
X89963523Y-132011752D01*
X90058761Y-131964133D01*
X90296857Y-131964133D01*
X90392095Y-132011752D01*
X90439714Y-132059371D01*
X90487333Y-132154609D01*
X90487333Y-132392704D01*
X90439714Y-132487942D01*
X90392095Y-132535561D01*
X90296857Y-132583180D01*
X90058761Y-132583180D01*
X89963523Y-132535561D01*
X89915904Y-132487942D01*
%TO.C,SW21*%
X187725276Y-138174361D02*
X187868133Y-138221980D01*
X188106228Y-138221980D01*
X188201466Y-138174361D01*
X188249085Y-138126742D01*
X188296704Y-138031504D01*
X188296704Y-137936266D01*
X188249085Y-137841028D01*
X188201466Y-137793409D01*
X188106228Y-137745790D01*
X187915752Y-137698171D01*
X187820514Y-137650552D01*
X187772895Y-137602933D01*
X187725276Y-137507695D01*
X187725276Y-137412457D01*
X187772895Y-137317219D01*
X187820514Y-137269600D01*
X187915752Y-137221980D01*
X188153847Y-137221980D01*
X188296704Y-137269600D01*
X188630038Y-137221980D02*
X188868133Y-138221980D01*
X189058609Y-137507695D01*
X189249085Y-138221980D01*
X189487180Y-137221980D01*
X189820514Y-137317219D02*
X189868133Y-137269600D01*
X189963371Y-137221980D01*
X190201466Y-137221980D01*
X190296704Y-137269600D01*
X190344323Y-137317219D01*
X190391942Y-137412457D01*
X190391942Y-137507695D01*
X190344323Y-137650552D01*
X189772895Y-138221980D01*
X190391942Y-138221980D01*
X191344323Y-138221980D02*
X190772895Y-138221980D01*
X191058609Y-138221980D02*
X191058609Y-137221980D01*
X190963371Y-137364838D01*
X190868133Y-137460076D01*
X190772895Y-137507695D01*
%TO.C,SW3*%
X87820666Y-119784761D02*
X87963523Y-119832380D01*
X88201619Y-119832380D01*
X88296857Y-119784761D01*
X88344476Y-119737142D01*
X88392095Y-119641904D01*
X88392095Y-119546666D01*
X88344476Y-119451428D01*
X88296857Y-119403809D01*
X88201619Y-119356190D01*
X88011142Y-119308571D01*
X87915904Y-119260952D01*
X87868285Y-119213333D01*
X87820666Y-119118095D01*
X87820666Y-119022857D01*
X87868285Y-118927619D01*
X87915904Y-118880000D01*
X88011142Y-118832380D01*
X88249238Y-118832380D01*
X88392095Y-118880000D01*
X88725428Y-118832380D02*
X88963523Y-119832380D01*
X89154000Y-119118095D01*
X89344476Y-119832380D01*
X89582571Y-118832380D01*
X89868285Y-118832380D02*
X90487333Y-118832380D01*
X90154000Y-119213333D01*
X90296857Y-119213333D01*
X90392095Y-119260952D01*
X90439714Y-119308571D01*
X90487333Y-119403809D01*
X90487333Y-119641904D01*
X90439714Y-119737142D01*
X90392095Y-119784761D01*
X90296857Y-119832380D01*
X90011142Y-119832380D01*
X89915904Y-119784761D01*
X89868285Y-119737142D01*
%TO.C,SW7*%
X171894666Y-79754361D02*
X172037523Y-79801980D01*
X172275619Y-79801980D01*
X172370857Y-79754361D01*
X172418476Y-79706742D01*
X172466095Y-79611504D01*
X172466095Y-79516266D01*
X172418476Y-79421028D01*
X172370857Y-79373409D01*
X172275619Y-79325790D01*
X172085142Y-79278171D01*
X171989904Y-79230552D01*
X171942285Y-79182933D01*
X171894666Y-79087695D01*
X171894666Y-78992457D01*
X171942285Y-78897219D01*
X171989904Y-78849600D01*
X172085142Y-78801980D01*
X172323238Y-78801980D01*
X172466095Y-78849600D01*
X172799428Y-78801980D02*
X173037523Y-79801980D01*
X173228000Y-79087695D01*
X173418476Y-79801980D01*
X173656571Y-78801980D01*
X173942285Y-78801980D02*
X174608952Y-78801980D01*
X174180380Y-79801980D01*
%TO.C,SW10*%
X112942476Y-132530361D02*
X113085333Y-132577980D01*
X113323428Y-132577980D01*
X113418666Y-132530361D01*
X113466285Y-132482742D01*
X113513904Y-132387504D01*
X113513904Y-132292266D01*
X113466285Y-132197028D01*
X113418666Y-132149409D01*
X113323428Y-132101790D01*
X113132952Y-132054171D01*
X113037714Y-132006552D01*
X112990095Y-131958933D01*
X112942476Y-131863695D01*
X112942476Y-131768457D01*
X112990095Y-131673219D01*
X113037714Y-131625600D01*
X113132952Y-131577980D01*
X113371047Y-131577980D01*
X113513904Y-131625600D01*
X113847238Y-131577980D02*
X114085333Y-132577980D01*
X114275809Y-131863695D01*
X114466285Y-132577980D01*
X114704380Y-131577980D01*
X115609142Y-132577980D02*
X115037714Y-132577980D01*
X115323428Y-132577980D02*
X115323428Y-131577980D01*
X115228190Y-131720838D01*
X115132952Y-131816076D01*
X115037714Y-131863695D01*
X116228190Y-131577980D02*
X116323428Y-131577980D01*
X116418666Y-131625600D01*
X116466285Y-131673219D01*
X116513904Y-131768457D01*
X116561523Y-131958933D01*
X116561523Y-132197028D01*
X116513904Y-132387504D01*
X116466285Y-132482742D01*
X116418666Y-132530361D01*
X116323428Y-132577980D01*
X116228190Y-132577980D01*
X116132952Y-132530361D01*
X116085333Y-132482742D01*
X116037714Y-132387504D01*
X115990095Y-132197028D01*
X115990095Y-131958933D01*
X116037714Y-131768457D01*
X116085333Y-131673219D01*
X116132952Y-131625600D01*
X116228190Y-131577980D01*
%TO.C,SW19*%
X100196876Y-145184761D02*
X100339733Y-145232380D01*
X100577828Y-145232380D01*
X100673066Y-145184761D01*
X100720685Y-145137142D01*
X100768304Y-145041904D01*
X100768304Y-144946666D01*
X100720685Y-144851428D01*
X100673066Y-144803809D01*
X100577828Y-144756190D01*
X100387352Y-144708571D01*
X100292114Y-144660952D01*
X100244495Y-144613333D01*
X100196876Y-144518095D01*
X100196876Y-144422857D01*
X100244495Y-144327619D01*
X100292114Y-144280000D01*
X100387352Y-144232380D01*
X100625447Y-144232380D01*
X100768304Y-144280000D01*
X101101638Y-144232380D02*
X101339733Y-145232380D01*
X101530209Y-144518095D01*
X101720685Y-145232380D01*
X101958780Y-144232380D01*
X102863542Y-145232380D02*
X102292114Y-145232380D01*
X102577828Y-145232380D02*
X102577828Y-144232380D01*
X102482590Y-144375238D01*
X102387352Y-144470476D01*
X102292114Y-144518095D01*
X103339733Y-145232380D02*
X103530209Y-145232380D01*
X103625447Y-145184761D01*
X103673066Y-145137142D01*
X103768304Y-144994285D01*
X103815923Y-144803809D01*
X103815923Y-144422857D01*
X103768304Y-144327619D01*
X103720685Y-144280000D01*
X103625447Y-144232380D01*
X103434971Y-144232380D01*
X103339733Y-144280000D01*
X103292114Y-144327619D01*
X103244495Y-144422857D01*
X103244495Y-144660952D01*
X103292114Y-144756190D01*
X103339733Y-144803809D01*
X103434971Y-144851428D01*
X103625447Y-144851428D01*
X103720685Y-144803809D01*
X103768304Y-144756190D01*
X103815923Y-144660952D01*
%TO.C,SW4*%
X149720466Y-110539161D02*
X149863323Y-110586780D01*
X150101419Y-110586780D01*
X150196657Y-110539161D01*
X150244276Y-110491542D01*
X150291895Y-110396304D01*
X150291895Y-110301066D01*
X150244276Y-110205828D01*
X150196657Y-110158209D01*
X150101419Y-110110590D01*
X149910942Y-110062971D01*
X149815704Y-110015352D01*
X149768085Y-109967733D01*
X149720466Y-109872495D01*
X149720466Y-109777257D01*
X149768085Y-109682019D01*
X149815704Y-109634400D01*
X149910942Y-109586780D01*
X150149038Y-109586780D01*
X150291895Y-109634400D01*
X150625228Y-109586780D02*
X150863323Y-110586780D01*
X151053800Y-109872495D01*
X151244276Y-110586780D01*
X151482371Y-109586780D01*
X152291895Y-109920114D02*
X152291895Y-110586780D01*
X152053800Y-109539161D02*
X151815704Y-110253447D01*
X152434752Y-110253447D01*
%TO.C,SW20*%
X161817276Y-138428361D02*
X161960133Y-138475980D01*
X162198228Y-138475980D01*
X162293466Y-138428361D01*
X162341085Y-138380742D01*
X162388704Y-138285504D01*
X162388704Y-138190266D01*
X162341085Y-138095028D01*
X162293466Y-138047409D01*
X162198228Y-137999790D01*
X162007752Y-137952171D01*
X161912514Y-137904552D01*
X161864895Y-137856933D01*
X161817276Y-137761695D01*
X161817276Y-137666457D01*
X161864895Y-137571219D01*
X161912514Y-137523600D01*
X162007752Y-137475980D01*
X162245847Y-137475980D01*
X162388704Y-137523600D01*
X162722038Y-137475980D02*
X162960133Y-138475980D01*
X163150609Y-137761695D01*
X163341085Y-138475980D01*
X163579180Y-137475980D01*
X163912514Y-137571219D02*
X163960133Y-137523600D01*
X164055371Y-137475980D01*
X164293466Y-137475980D01*
X164388704Y-137523600D01*
X164436323Y-137571219D01*
X164483942Y-137666457D01*
X164483942Y-137761695D01*
X164436323Y-137904552D01*
X163864895Y-138475980D01*
X164483942Y-138475980D01*
X165102990Y-137475980D02*
X165198228Y-137475980D01*
X165293466Y-137523600D01*
X165341085Y-137571219D01*
X165388704Y-137666457D01*
X165436323Y-137856933D01*
X165436323Y-138095028D01*
X165388704Y-138285504D01*
X165341085Y-138380742D01*
X165293466Y-138428361D01*
X165198228Y-138475980D01*
X165102990Y-138475980D01*
X165007752Y-138428361D01*
X164960133Y-138380742D01*
X164912514Y-138285504D01*
X164864895Y-138095028D01*
X164864895Y-137856933D01*
X164912514Y-137666457D01*
X164960133Y-137571219D01*
X165007752Y-137523600D01*
X165102990Y-137475980D01*
%TO.C,C25*%
X129617742Y-126728457D02*
X129665361Y-126776076D01*
X129712980Y-126918933D01*
X129712980Y-127014171D01*
X129665361Y-127157028D01*
X129570123Y-127252266D01*
X129474885Y-127299885D01*
X129284409Y-127347504D01*
X129141552Y-127347504D01*
X128951076Y-127299885D01*
X128855838Y-127252266D01*
X128760600Y-127157028D01*
X128712980Y-127014171D01*
X128712980Y-126918933D01*
X128760600Y-126776076D01*
X128808219Y-126728457D01*
X128808219Y-126347504D02*
X128760600Y-126299885D01*
X128712980Y-126204647D01*
X128712980Y-125966552D01*
X128760600Y-125871314D01*
X128808219Y-125823695D01*
X128903457Y-125776076D01*
X128998695Y-125776076D01*
X129141552Y-125823695D01*
X129712980Y-126395123D01*
X129712980Y-125776076D01*
X128712980Y-124871314D02*
X128712980Y-125347504D01*
X129189171Y-125395123D01*
X129141552Y-125347504D01*
X129093933Y-125252266D01*
X129093933Y-125014171D01*
X129141552Y-124918933D01*
X129189171Y-124871314D01*
X129284409Y-124823695D01*
X129522504Y-124823695D01*
X129617742Y-124871314D01*
X129665361Y-124918933D01*
X129712980Y-125014171D01*
X129712980Y-125252266D01*
X129665361Y-125347504D01*
X129617742Y-125395123D01*
%TO.C,SW17*%
X189579476Y-110716961D02*
X189722333Y-110764580D01*
X189960428Y-110764580D01*
X190055666Y-110716961D01*
X190103285Y-110669342D01*
X190150904Y-110574104D01*
X190150904Y-110478866D01*
X190103285Y-110383628D01*
X190055666Y-110336009D01*
X189960428Y-110288390D01*
X189769952Y-110240771D01*
X189674714Y-110193152D01*
X189627095Y-110145533D01*
X189579476Y-110050295D01*
X189579476Y-109955057D01*
X189627095Y-109859819D01*
X189674714Y-109812200D01*
X189769952Y-109764580D01*
X190008047Y-109764580D01*
X190150904Y-109812200D01*
X190484238Y-109764580D02*
X190722333Y-110764580D01*
X190912809Y-110050295D01*
X191103285Y-110764580D01*
X191341380Y-109764580D01*
X192246142Y-110764580D02*
X191674714Y-110764580D01*
X191960428Y-110764580D02*
X191960428Y-109764580D01*
X191865190Y-109907438D01*
X191769952Y-110002676D01*
X191674714Y-110050295D01*
X192579476Y-109764580D02*
X193246142Y-109764580D01*
X192817571Y-110764580D01*
%TO.C,C26*%
X127585742Y-126677657D02*
X127633361Y-126725276D01*
X127680980Y-126868133D01*
X127680980Y-126963371D01*
X127633361Y-127106228D01*
X127538123Y-127201466D01*
X127442885Y-127249085D01*
X127252409Y-127296704D01*
X127109552Y-127296704D01*
X126919076Y-127249085D01*
X126823838Y-127201466D01*
X126728600Y-127106228D01*
X126680980Y-126963371D01*
X126680980Y-126868133D01*
X126728600Y-126725276D01*
X126776219Y-126677657D01*
X126776219Y-126296704D02*
X126728600Y-126249085D01*
X126680980Y-126153847D01*
X126680980Y-125915752D01*
X126728600Y-125820514D01*
X126776219Y-125772895D01*
X126871457Y-125725276D01*
X126966695Y-125725276D01*
X127109552Y-125772895D01*
X127680980Y-126344323D01*
X127680980Y-125725276D01*
X126680980Y-124868133D02*
X126680980Y-125058609D01*
X126728600Y-125153847D01*
X126776219Y-125201466D01*
X126919076Y-125296704D01*
X127109552Y-125344323D01*
X127490504Y-125344323D01*
X127585742Y-125296704D01*
X127633361Y-125249085D01*
X127680980Y-125153847D01*
X127680980Y-124963371D01*
X127633361Y-124868133D01*
X127585742Y-124820514D01*
X127490504Y-124772895D01*
X127252409Y-124772895D01*
X127157171Y-124820514D01*
X127109552Y-124868133D01*
X127061933Y-124963371D01*
X127061933Y-125153847D01*
X127109552Y-125249085D01*
X127157171Y-125296704D01*
X127252409Y-125344323D01*
%TO.C,SW23*%
X210458276Y-131341761D02*
X210601133Y-131389380D01*
X210839228Y-131389380D01*
X210934466Y-131341761D01*
X210982085Y-131294142D01*
X211029704Y-131198904D01*
X211029704Y-131103666D01*
X210982085Y-131008428D01*
X210934466Y-130960809D01*
X210839228Y-130913190D01*
X210648752Y-130865571D01*
X210553514Y-130817952D01*
X210505895Y-130770333D01*
X210458276Y-130675095D01*
X210458276Y-130579857D01*
X210505895Y-130484619D01*
X210553514Y-130437000D01*
X210648752Y-130389380D01*
X210886847Y-130389380D01*
X211029704Y-130437000D01*
X211363038Y-130389380D02*
X211601133Y-131389380D01*
X211791609Y-130675095D01*
X211982085Y-131389380D01*
X212220180Y-130389380D01*
X212553514Y-130484619D02*
X212601133Y-130437000D01*
X212696371Y-130389380D01*
X212934466Y-130389380D01*
X213029704Y-130437000D01*
X213077323Y-130484619D01*
X213124942Y-130579857D01*
X213124942Y-130675095D01*
X213077323Y-130817952D01*
X212505895Y-131389380D01*
X213124942Y-131389380D01*
X213458276Y-130389380D02*
X214077323Y-130389380D01*
X213743990Y-130770333D01*
X213886847Y-130770333D01*
X213982085Y-130817952D01*
X214029704Y-130865571D01*
X214077323Y-130960809D01*
X214077323Y-131198904D01*
X214029704Y-131294142D01*
X213982085Y-131341761D01*
X213886847Y-131389380D01*
X213601133Y-131389380D01*
X213505895Y-131341761D01*
X213458276Y-131294142D01*
%TO.C,SW18*%
X112998476Y-145189961D02*
X113141333Y-145237580D01*
X113379428Y-145237580D01*
X113474666Y-145189961D01*
X113522285Y-145142342D01*
X113569904Y-145047104D01*
X113569904Y-144951866D01*
X113522285Y-144856628D01*
X113474666Y-144809009D01*
X113379428Y-144761390D01*
X113188952Y-144713771D01*
X113093714Y-144666152D01*
X113046095Y-144618533D01*
X112998476Y-144523295D01*
X112998476Y-144428057D01*
X113046095Y-144332819D01*
X113093714Y-144285200D01*
X113188952Y-144237580D01*
X113427047Y-144237580D01*
X113569904Y-144285200D01*
X113903238Y-144237580D02*
X114141333Y-145237580D01*
X114331809Y-144523295D01*
X114522285Y-145237580D01*
X114760380Y-144237580D01*
X115665142Y-145237580D02*
X115093714Y-145237580D01*
X115379428Y-145237580D02*
X115379428Y-144237580D01*
X115284190Y-144380438D01*
X115188952Y-144475676D01*
X115093714Y-144523295D01*
X116236571Y-144666152D02*
X116141333Y-144618533D01*
X116093714Y-144570914D01*
X116046095Y-144475676D01*
X116046095Y-144428057D01*
X116093714Y-144332819D01*
X116141333Y-144285200D01*
X116236571Y-144237580D01*
X116427047Y-144237580D01*
X116522285Y-144285200D01*
X116569904Y-144332819D01*
X116617523Y-144428057D01*
X116617523Y-144475676D01*
X116569904Y-144570914D01*
X116522285Y-144618533D01*
X116427047Y-144666152D01*
X116236571Y-144666152D01*
X116141333Y-144713771D01*
X116093714Y-144761390D01*
X116046095Y-144856628D01*
X116046095Y-145047104D01*
X116093714Y-145142342D01*
X116141333Y-145189961D01*
X116236571Y-145237580D01*
X116427047Y-145237580D01*
X116522285Y-145189961D01*
X116569904Y-145142342D01*
X116617523Y-145047104D01*
X116617523Y-144856628D01*
X116569904Y-144761390D01*
X116522285Y-144713771D01*
X116427047Y-144666152D01*
%TO.C,SW11*%
X170179076Y-66836961D02*
X170321933Y-66884580D01*
X170560028Y-66884580D01*
X170655266Y-66836961D01*
X170702885Y-66789342D01*
X170750504Y-66694104D01*
X170750504Y-66598866D01*
X170702885Y-66503628D01*
X170655266Y-66456009D01*
X170560028Y-66408390D01*
X170369552Y-66360771D01*
X170274314Y-66313152D01*
X170226695Y-66265533D01*
X170179076Y-66170295D01*
X170179076Y-66075057D01*
X170226695Y-65979819D01*
X170274314Y-65932200D01*
X170369552Y-65884580D01*
X170607647Y-65884580D01*
X170750504Y-65932200D01*
X171083838Y-65884580D02*
X171321933Y-66884580D01*
X171512409Y-66170295D01*
X171702885Y-66884580D01*
X171940980Y-65884580D01*
X172845742Y-66884580D02*
X172274314Y-66884580D01*
X172560028Y-66884580D02*
X172560028Y-65884580D01*
X172464790Y-66027438D01*
X172369552Y-66122676D01*
X172274314Y-66170295D01*
X173798123Y-66884580D02*
X173226695Y-66884580D01*
X173512409Y-66884580D02*
X173512409Y-65884580D01*
X173417171Y-66027438D01*
X173321933Y-66122676D01*
X173226695Y-66170295D01*
%TO.C,H8*%
X62636495Y-27951580D02*
X62636495Y-26951580D01*
X62636495Y-27427771D02*
X63207923Y-27427771D01*
X63207923Y-27951580D02*
X63207923Y-26951580D01*
X63826971Y-27380152D02*
X63731733Y-27332533D01*
X63684114Y-27284914D01*
X63636495Y-27189676D01*
X63636495Y-27142057D01*
X63684114Y-27046819D01*
X63731733Y-26999200D01*
X63826971Y-26951580D01*
X64017447Y-26951580D01*
X64112685Y-26999200D01*
X64160304Y-27046819D01*
X64207923Y-27142057D01*
X64207923Y-27189676D01*
X64160304Y-27284914D01*
X64112685Y-27332533D01*
X64017447Y-27380152D01*
X63826971Y-27380152D01*
X63731733Y-27427771D01*
X63684114Y-27475390D01*
X63636495Y-27570628D01*
X63636495Y-27761104D01*
X63684114Y-27856342D01*
X63731733Y-27903961D01*
X63826971Y-27951580D01*
X64017447Y-27951580D01*
X64112685Y-27903961D01*
X64160304Y-27856342D01*
X64207923Y-27761104D01*
X64207923Y-27570628D01*
X64160304Y-27475390D01*
X64112685Y-27427771D01*
X64017447Y-27380152D01*
%TO.C,SW1*%
X184797866Y-66952761D02*
X184940723Y-67000380D01*
X185178819Y-67000380D01*
X185274057Y-66952761D01*
X185321676Y-66905142D01*
X185369295Y-66809904D01*
X185369295Y-66714666D01*
X185321676Y-66619428D01*
X185274057Y-66571809D01*
X185178819Y-66524190D01*
X184988342Y-66476571D01*
X184893104Y-66428952D01*
X184845485Y-66381333D01*
X184797866Y-66286095D01*
X184797866Y-66190857D01*
X184845485Y-66095619D01*
X184893104Y-66048000D01*
X184988342Y-66000380D01*
X185226438Y-66000380D01*
X185369295Y-66048000D01*
X185702628Y-66000380D02*
X185940723Y-67000380D01*
X186131200Y-66286095D01*
X186321676Y-67000380D01*
X186559771Y-66000380D01*
X187464533Y-67000380D02*
X186893104Y-67000380D01*
X187178819Y-67000380D02*
X187178819Y-66000380D01*
X187083580Y-66143238D01*
X186988342Y-66238476D01*
X186893104Y-66286095D01*
%TO.C,SW2*%
X184772466Y-79737961D02*
X184915323Y-79785580D01*
X185153419Y-79785580D01*
X185248657Y-79737961D01*
X185296276Y-79690342D01*
X185343895Y-79595104D01*
X185343895Y-79499866D01*
X185296276Y-79404628D01*
X185248657Y-79357009D01*
X185153419Y-79309390D01*
X184962942Y-79261771D01*
X184867704Y-79214152D01*
X184820085Y-79166533D01*
X184772466Y-79071295D01*
X184772466Y-78976057D01*
X184820085Y-78880819D01*
X184867704Y-78833200D01*
X184962942Y-78785580D01*
X185201038Y-78785580D01*
X185343895Y-78833200D01*
X185677228Y-78785580D02*
X185915323Y-79785580D01*
X186105800Y-79071295D01*
X186296276Y-79785580D01*
X186534371Y-78785580D01*
X186867704Y-78880819D02*
X186915323Y-78833200D01*
X187010561Y-78785580D01*
X187248657Y-78785580D01*
X187343895Y-78833200D01*
X187391514Y-78880819D01*
X187439133Y-78976057D01*
X187439133Y-79071295D01*
X187391514Y-79214152D01*
X186820085Y-79785580D01*
X187439133Y-79785580D01*
%TO.C,SW9*%
X149542666Y-138411961D02*
X149685523Y-138459580D01*
X149923619Y-138459580D01*
X150018857Y-138411961D01*
X150066476Y-138364342D01*
X150114095Y-138269104D01*
X150114095Y-138173866D01*
X150066476Y-138078628D01*
X150018857Y-138031009D01*
X149923619Y-137983390D01*
X149733142Y-137935771D01*
X149637904Y-137888152D01*
X149590285Y-137840533D01*
X149542666Y-137745295D01*
X149542666Y-137650057D01*
X149590285Y-137554819D01*
X149637904Y-137507200D01*
X149733142Y-137459580D01*
X149971238Y-137459580D01*
X150114095Y-137507200D01*
X150447428Y-137459580D02*
X150685523Y-138459580D01*
X150876000Y-137745295D01*
X151066476Y-138459580D01*
X151304571Y-137459580D01*
X151733142Y-138459580D02*
X151923619Y-138459580D01*
X152018857Y-138411961D01*
X152066476Y-138364342D01*
X152161714Y-138221485D01*
X152209333Y-138031009D01*
X152209333Y-137650057D01*
X152161714Y-137554819D01*
X152114095Y-137507200D01*
X152018857Y-137459580D01*
X151828380Y-137459580D01*
X151733142Y-137507200D01*
X151685523Y-137554819D01*
X151637904Y-137650057D01*
X151637904Y-137888152D01*
X151685523Y-137983390D01*
X151733142Y-138031009D01*
X151828380Y-138078628D01*
X152018857Y-138078628D01*
X152114095Y-138031009D01*
X152161714Y-137983390D01*
X152209333Y-137888152D01*
%TO.C,H5*%
X69951695Y-140727580D02*
X69951695Y-139727580D01*
X69951695Y-140203771D02*
X70523123Y-140203771D01*
X70523123Y-140727580D02*
X70523123Y-139727580D01*
X71475504Y-139727580D02*
X70999314Y-139727580D01*
X70951695Y-140203771D01*
X70999314Y-140156152D01*
X71094552Y-140108533D01*
X71332647Y-140108533D01*
X71427885Y-140156152D01*
X71475504Y-140203771D01*
X71523123Y-140299009D01*
X71523123Y-140537104D01*
X71475504Y-140632342D01*
X71427885Y-140679961D01*
X71332647Y-140727580D01*
X71094552Y-140727580D01*
X70999314Y-140679961D01*
X70951695Y-140632342D01*
%TO.C,H2*%
X214223695Y-27900780D02*
X214223695Y-26900780D01*
X214223695Y-27376971D02*
X214795123Y-27376971D01*
X214795123Y-27900780D02*
X214795123Y-26900780D01*
X215223695Y-26996019D02*
X215271314Y-26948400D01*
X215366552Y-26900780D01*
X215604647Y-26900780D01*
X215699885Y-26948400D01*
X215747504Y-26996019D01*
X215795123Y-27091257D01*
X215795123Y-27186495D01*
X215747504Y-27329352D01*
X215176076Y-27900780D01*
X215795123Y-27900780D01*
%TO.C,H1*%
X69443695Y-27867580D02*
X69443695Y-26867580D01*
X69443695Y-27343771D02*
X70015123Y-27343771D01*
X70015123Y-27867580D02*
X70015123Y-26867580D01*
X71015123Y-27867580D02*
X70443695Y-27867580D01*
X70729409Y-27867580D02*
X70729409Y-26867580D01*
X70634171Y-27010438D01*
X70538933Y-27105676D01*
X70443695Y-27153295D01*
%TO.C,C27*%
X137415542Y-126626857D02*
X137463161Y-126674476D01*
X137510780Y-126817333D01*
X137510780Y-126912571D01*
X137463161Y-127055428D01*
X137367923Y-127150666D01*
X137272685Y-127198285D01*
X137082209Y-127245904D01*
X136939352Y-127245904D01*
X136748876Y-127198285D01*
X136653638Y-127150666D01*
X136558400Y-127055428D01*
X136510780Y-126912571D01*
X136510780Y-126817333D01*
X136558400Y-126674476D01*
X136606019Y-126626857D01*
X136606019Y-126245904D02*
X136558400Y-126198285D01*
X136510780Y-126103047D01*
X136510780Y-125864952D01*
X136558400Y-125769714D01*
X136606019Y-125722095D01*
X136701257Y-125674476D01*
X136796495Y-125674476D01*
X136939352Y-125722095D01*
X137510780Y-126293523D01*
X137510780Y-125674476D01*
X136510780Y-125341142D02*
X136510780Y-124674476D01*
X137510780Y-125103047D01*
%TO.C,H3*%
X157226095Y-27867580D02*
X157226095Y-26867580D01*
X157226095Y-27343771D02*
X157797523Y-27343771D01*
X157797523Y-27867580D02*
X157797523Y-26867580D01*
X158178476Y-26867580D02*
X158797523Y-26867580D01*
X158464190Y-27248533D01*
X158607047Y-27248533D01*
X158702285Y-27296152D01*
X158749904Y-27343771D01*
X158797523Y-27439009D01*
X158797523Y-27677104D01*
X158749904Y-27772342D01*
X158702285Y-27819961D01*
X158607047Y-27867580D01*
X158321333Y-27867580D01*
X158226095Y-27819961D01*
X158178476Y-27772342D01*
%TO.C,SW22*%
X210686876Y-117981361D02*
X210829733Y-118028980D01*
X211067828Y-118028980D01*
X211163066Y-117981361D01*
X211210685Y-117933742D01*
X211258304Y-117838504D01*
X211258304Y-117743266D01*
X211210685Y-117648028D01*
X211163066Y-117600409D01*
X211067828Y-117552790D01*
X210877352Y-117505171D01*
X210782114Y-117457552D01*
X210734495Y-117409933D01*
X210686876Y-117314695D01*
X210686876Y-117219457D01*
X210734495Y-117124219D01*
X210782114Y-117076600D01*
X210877352Y-117028980D01*
X211115447Y-117028980D01*
X211258304Y-117076600D01*
X211591638Y-117028980D02*
X211829733Y-118028980D01*
X212020209Y-117314695D01*
X212210685Y-118028980D01*
X212448780Y-117028980D01*
X212782114Y-117124219D02*
X212829733Y-117076600D01*
X212924971Y-117028980D01*
X213163066Y-117028980D01*
X213258304Y-117076600D01*
X213305923Y-117124219D01*
X213353542Y-117219457D01*
X213353542Y-117314695D01*
X213305923Y-117457552D01*
X212734495Y-118028980D01*
X213353542Y-118028980D01*
X213734495Y-117124219D02*
X213782114Y-117076600D01*
X213877352Y-117028980D01*
X214115447Y-117028980D01*
X214210685Y-117076600D01*
X214258304Y-117124219D01*
X214305923Y-117219457D01*
X214305923Y-117314695D01*
X214258304Y-117457552D01*
X213686876Y-118028980D01*
X214305923Y-118028980D01*
%TO.C,H6*%
X69443695Y-93196380D02*
X69443695Y-92196380D01*
X69443695Y-92672571D02*
X70015123Y-92672571D01*
X70015123Y-93196380D02*
X70015123Y-92196380D01*
X70919885Y-92196380D02*
X70729409Y-92196380D01*
X70634171Y-92244000D01*
X70586552Y-92291619D01*
X70491314Y-92434476D01*
X70443695Y-92624952D01*
X70443695Y-93005904D01*
X70491314Y-93101142D01*
X70538933Y-93148761D01*
X70634171Y-93196380D01*
X70824647Y-93196380D01*
X70919885Y-93148761D01*
X70967504Y-93101142D01*
X71015123Y-93005904D01*
X71015123Y-92767809D01*
X70967504Y-92672571D01*
X70919885Y-92624952D01*
X70824647Y-92577333D01*
X70634171Y-92577333D01*
X70538933Y-92624952D01*
X70491314Y-92672571D01*
X70443695Y-92767809D01*
D11*
%TO.C,SW8*%
X82854800Y-142240000D02*
X84124800Y-143510000D01*
X95554800Y-132080000D02*
X94284800Y-130810000D01*
X95554800Y-142240000D02*
X95554800Y-132080000D01*
X84124800Y-130810000D02*
X82854800Y-132080000D01*
X82854800Y-132080000D02*
X82854800Y-142240000D01*
X84124800Y-143510000D02*
X94284800Y-143510000D01*
X94284800Y-143510000D02*
X95554800Y-142240000D01*
X94284800Y-130810000D02*
X84124800Y-130810000D01*
%TO.C,C23*%
X130557600Y-128811348D02*
X130557600Y-129333852D01*
X132027600Y-128811348D02*
X132027600Y-129333852D01*
%TO.C,SW24*%
X173126400Y-136804400D02*
X183286400Y-136804400D01*
X171856400Y-135534400D02*
X173126400Y-136804400D01*
X184556400Y-125374400D02*
X183286400Y-124104400D01*
X183286400Y-124104400D02*
X173126400Y-124104400D01*
X173126400Y-124104400D02*
X171856400Y-125374400D01*
X184556400Y-135534400D02*
X184556400Y-125374400D01*
X171856400Y-125374400D02*
X171856400Y-135534400D01*
X183286400Y-136804400D02*
X184556400Y-135534400D01*
%TO.C,C21*%
X132564200Y-128811348D02*
X132564200Y-129333852D01*
X134034200Y-128811348D02*
X134034200Y-129333852D01*
%TO.C,SW12*%
X173126400Y-111302800D02*
X171856400Y-112572800D01*
X184556400Y-112572800D02*
X183286400Y-111302800D01*
X173126400Y-124002800D02*
X183286400Y-124002800D01*
X171856400Y-112572800D02*
X171856400Y-122732800D01*
X183286400Y-124002800D02*
X184556400Y-122732800D01*
X171856400Y-122732800D02*
X173126400Y-124002800D01*
X184556400Y-122732800D02*
X184556400Y-112572800D01*
X183286400Y-111302800D02*
X173126400Y-111302800D01*
%TO.C,SW15*%
X157276800Y-122682000D02*
X158546800Y-123952000D01*
X158546800Y-111252000D02*
X157276800Y-112522000D01*
X169976800Y-112522000D02*
X168706800Y-111252000D01*
X169976800Y-122682000D02*
X169976800Y-112522000D01*
X158546800Y-123952000D02*
X168706800Y-123952000D01*
X168706800Y-123952000D02*
X169976800Y-122682000D01*
X157276800Y-112522000D02*
X157276800Y-122682000D01*
X168706800Y-111252000D02*
X158546800Y-111252000D01*
%TO.C,SW25*%
X96875600Y-130860800D02*
X107035600Y-130860800D01*
X95605600Y-119430800D02*
X95605600Y-129590800D01*
X107035600Y-130860800D02*
X108305600Y-129590800D01*
X108305600Y-129590800D02*
X108305600Y-119430800D01*
X108305600Y-119430800D02*
X107035600Y-118160800D01*
X107035600Y-118160800D02*
X96875600Y-118160800D01*
X96875600Y-118160800D02*
X95605600Y-119430800D01*
X95605600Y-129590800D02*
X96875600Y-130860800D01*
%TO.C,RV3*%
X66697800Y-81770400D02*
X66697800Y-85719400D01*
X61656800Y-85717400D02*
X61656800Y-87866400D01*
X66697800Y-87864400D02*
X66697800Y-91811400D01*
X61656800Y-81770400D02*
X61656800Y-82865400D01*
X63014800Y-88411400D02*
X66697800Y-88411400D01*
X66697800Y-85171400D02*
X66697800Y-85719400D01*
X63014800Y-85171400D02*
X66697800Y-85171400D01*
X61656800Y-90716400D02*
X61656800Y-91811400D01*
X61656800Y-85717400D02*
X61656800Y-87866400D01*
X66697800Y-87864400D02*
X66697800Y-88411400D01*
X61656800Y-81770400D02*
X66697800Y-81770400D01*
X61656800Y-91811400D02*
X66697800Y-91811400D01*
%TO.C,SW6*%
X205328400Y-76804400D02*
X205328400Y-66644400D01*
X205328400Y-66644400D02*
X204058400Y-65374400D01*
X193898400Y-78074400D02*
X204058400Y-78074400D01*
X204058400Y-78074400D02*
X205328400Y-76804400D01*
X193898400Y-65374400D02*
X192628400Y-66644400D01*
X192628400Y-76804400D02*
X193898400Y-78074400D01*
X204058400Y-65374400D02*
X193898400Y-65374400D01*
X192628400Y-66644400D02*
X192628400Y-76804400D01*
%TO.C,SW16*%
X204089000Y-52603400D02*
X193929000Y-52603400D01*
X204089000Y-65303400D02*
X205359000Y-64033400D01*
X193929000Y-65303400D02*
X204089000Y-65303400D01*
X192659000Y-53873400D02*
X192659000Y-64033400D01*
X205359000Y-64033400D02*
X205359000Y-53873400D01*
X192659000Y-64033400D02*
X193929000Y-65303400D01*
X205359000Y-53873400D02*
X204089000Y-52603400D01*
X193929000Y-52603400D02*
X192659000Y-53873400D01*
%TO.C,C20*%
X136040800Y-128806348D02*
X136040800Y-129328852D01*
X134570800Y-128806348D02*
X134570800Y-129328852D01*
%TO.C,SW14*%
X95605600Y-116840000D02*
X96875600Y-118110000D01*
X108305600Y-106680000D02*
X107035600Y-105410000D01*
X95605600Y-106680000D02*
X95605600Y-116840000D01*
X108305600Y-116840000D02*
X108305600Y-106680000D01*
X107035600Y-118110000D02*
X108305600Y-116840000D01*
X107035600Y-105410000D02*
X96875600Y-105410000D01*
X96875600Y-118110000D02*
X107035600Y-118110000D01*
X96875600Y-105410000D02*
X95605600Y-106680000D01*
%TO.C,SW13*%
X119837200Y-105410000D02*
X109677200Y-105410000D01*
X108407200Y-106680000D02*
X108407200Y-116840000D01*
X121107200Y-116840000D02*
X121107200Y-106680000D01*
X109677200Y-105410000D02*
X108407200Y-106680000D01*
X121107200Y-106680000D02*
X119837200Y-105410000D01*
X109677200Y-118110000D02*
X119837200Y-118110000D01*
X119837200Y-118110000D02*
X121107200Y-116840000D01*
X108407200Y-116840000D02*
X109677200Y-118110000D01*
%TO.C,SW5*%
X94234000Y-118160800D02*
X84074000Y-118160800D01*
X84074000Y-130860800D02*
X94234000Y-130860800D01*
X94234000Y-130860800D02*
X95504000Y-129590800D01*
X84074000Y-118160800D02*
X82804000Y-119430800D01*
X82804000Y-129590800D02*
X84074000Y-130860800D01*
X95504000Y-119430800D02*
X94234000Y-118160800D01*
X82804000Y-119430800D02*
X82804000Y-129590800D01*
X95504000Y-129590800D02*
X95504000Y-119430800D01*
%TO.C,SW21*%
X196088000Y-124088000D02*
X185928000Y-124088000D01*
X197358000Y-135518000D02*
X197358000Y-125358000D01*
X184658000Y-125358000D02*
X184658000Y-135518000D01*
X185928000Y-124088000D02*
X184658000Y-125358000D01*
X184658000Y-135518000D02*
X185928000Y-136788000D01*
X197358000Y-125358000D02*
X196088000Y-124088000D01*
X196088000Y-136788000D02*
X197358000Y-135518000D01*
X185928000Y-136788000D02*
X196088000Y-136788000D01*
%TO.C,SW3*%
X94234000Y-105410000D02*
X84074000Y-105410000D01*
X82804000Y-116840000D02*
X84074000Y-118110000D01*
X84074000Y-118110000D02*
X94234000Y-118110000D01*
X95504000Y-106680000D02*
X94234000Y-105410000D01*
X82804000Y-106680000D02*
X82804000Y-116840000D01*
X84074000Y-105410000D02*
X82804000Y-106680000D01*
X94234000Y-118110000D02*
X95504000Y-116840000D01*
X95504000Y-116840000D02*
X95504000Y-106680000D01*
%TO.C,SW7*%
X178308000Y-65379600D02*
X168148000Y-65379600D01*
X166878000Y-76809600D02*
X168148000Y-78079600D01*
X168148000Y-65379600D02*
X166878000Y-66649600D01*
X178308000Y-78079600D02*
X179578000Y-76809600D01*
X179578000Y-66649600D02*
X178308000Y-65379600D01*
X168148000Y-78079600D02*
X178308000Y-78079600D01*
X179578000Y-76809600D02*
X179578000Y-66649600D01*
X166878000Y-66649600D02*
X166878000Y-76809600D01*
%TO.C,SW10*%
X119832000Y-130855600D02*
X121102000Y-129585600D01*
X121102000Y-129585600D02*
X121102000Y-119425600D01*
X119832000Y-118155600D02*
X109672000Y-118155600D01*
X109672000Y-118155600D02*
X108402000Y-119425600D01*
X108402000Y-119425600D02*
X108402000Y-129585600D01*
X121102000Y-119425600D02*
X119832000Y-118155600D01*
X108402000Y-129585600D02*
X109672000Y-130855600D01*
X109672000Y-130855600D02*
X119832000Y-130855600D01*
%TO.C,SW19*%
X96926400Y-143510000D02*
X107086400Y-143510000D01*
X107086400Y-130810000D02*
X96926400Y-130810000D01*
X108356400Y-142240000D02*
X108356400Y-132080000D01*
X95656400Y-132080000D02*
X95656400Y-142240000D01*
X95656400Y-142240000D02*
X96926400Y-143510000D01*
X96926400Y-130810000D02*
X95656400Y-132080000D01*
X107086400Y-143510000D02*
X108356400Y-142240000D01*
X108356400Y-132080000D02*
X107086400Y-130810000D01*
%TO.C,SW4*%
X144526000Y-112522000D02*
X144526000Y-122682000D01*
X157226000Y-112522000D02*
X155956000Y-111252000D01*
X157226000Y-122682000D02*
X157226000Y-112522000D01*
X145796000Y-111252000D02*
X144526000Y-112522000D01*
X155956000Y-123952000D02*
X157226000Y-122682000D01*
X145796000Y-123952000D02*
X155956000Y-123952000D01*
X144526000Y-122682000D02*
X145796000Y-123952000D01*
X155956000Y-111252000D02*
X145796000Y-111252000D01*
%TO.C,SW20*%
X158546800Y-136753600D02*
X168706800Y-136753600D01*
X157276800Y-125323600D02*
X157276800Y-135483600D01*
X169976800Y-125323600D02*
X168706800Y-124053600D01*
X168706800Y-124053600D02*
X158546800Y-124053600D01*
X169976800Y-135483600D02*
X169976800Y-125323600D01*
X168706800Y-136753600D02*
X169976800Y-135483600D01*
X157276800Y-135483600D02*
X158546800Y-136753600D01*
X158546800Y-124053600D02*
X157276800Y-125323600D01*
%TO.C,C25*%
X128551000Y-128806348D02*
X128551000Y-129328852D01*
X130021000Y-128806348D02*
X130021000Y-129328852D01*
%TO.C,SW17*%
X196088000Y-124002800D02*
X197358000Y-122732800D01*
X197358000Y-122732800D02*
X197358000Y-112572800D01*
X184658000Y-122732800D02*
X185928000Y-124002800D01*
X184658000Y-112572800D02*
X184658000Y-122732800D01*
X185928000Y-111302800D02*
X184658000Y-112572800D01*
X185928000Y-124002800D02*
X196088000Y-124002800D01*
X197358000Y-112572800D02*
X196088000Y-111302800D01*
X196088000Y-111302800D02*
X185928000Y-111302800D01*
%TO.C,C26*%
X126544400Y-128806348D02*
X126544400Y-129328852D01*
X128014400Y-128806348D02*
X128014400Y-129328852D01*
%TO.C,SW23*%
X210159600Y-125323600D02*
X208889600Y-124053600D01*
X198729600Y-136753600D02*
X208889600Y-136753600D01*
X210159600Y-135483600D02*
X210159600Y-125323600D01*
X197459600Y-135483600D02*
X198729600Y-136753600D01*
X197459600Y-125323600D02*
X197459600Y-135483600D01*
X208889600Y-136753600D02*
X210159600Y-135483600D01*
X198729600Y-124053600D02*
X197459600Y-125323600D01*
X208889600Y-124053600D02*
X198729600Y-124053600D01*
%TO.C,SW18*%
X119888000Y-130815200D02*
X109728000Y-130815200D01*
X109728000Y-143515200D02*
X119888000Y-143515200D01*
X108458000Y-132085200D02*
X108458000Y-142245200D01*
X108458000Y-142245200D02*
X109728000Y-143515200D01*
X121158000Y-142245200D02*
X121158000Y-132085200D01*
X109728000Y-130815200D02*
X108458000Y-132085200D01*
X119888000Y-143515200D02*
X121158000Y-142245200D01*
X121158000Y-132085200D02*
X119888000Y-130815200D01*
%TO.C,SW11*%
X178282600Y-52552600D02*
X168122600Y-52552600D01*
X166852600Y-53822600D02*
X166852600Y-63982600D01*
X168122600Y-52552600D02*
X166852600Y-53822600D01*
X179552600Y-53822600D02*
X178282600Y-52552600D01*
X179552600Y-63982600D02*
X179552600Y-53822600D01*
X178282600Y-65252600D02*
X179552600Y-63982600D01*
X168122600Y-65252600D02*
X178282600Y-65252600D01*
X166852600Y-63982600D02*
X168122600Y-65252600D01*
%TO.C,SW1*%
X179781200Y-53848000D02*
X179781200Y-64008000D01*
X192481200Y-64008000D02*
X192481200Y-53848000D01*
X191211200Y-52578000D02*
X181051200Y-52578000D01*
X179781200Y-64008000D02*
X181051200Y-65278000D01*
X181051200Y-52578000D02*
X179781200Y-53848000D01*
X181051200Y-65278000D02*
X191211200Y-65278000D01*
X192481200Y-53848000D02*
X191211200Y-52578000D01*
X191211200Y-65278000D02*
X192481200Y-64008000D01*
%TO.C,SW2*%
X192455800Y-76793200D02*
X192455800Y-66633200D01*
X191185800Y-78063200D02*
X192455800Y-76793200D01*
X179755800Y-76793200D02*
X181025800Y-78063200D01*
X181025800Y-65363200D02*
X179755800Y-66633200D01*
X179755800Y-66633200D02*
X179755800Y-76793200D01*
X192455800Y-66633200D02*
X191185800Y-65363200D01*
X191185800Y-65363200D02*
X181025800Y-65363200D01*
X181025800Y-78063200D02*
X191185800Y-78063200D01*
%TO.C,SW9*%
X145796000Y-136737200D02*
X155956000Y-136737200D01*
X144526000Y-135467200D02*
X145796000Y-136737200D01*
X155956000Y-124037200D02*
X145796000Y-124037200D01*
X144526000Y-125307200D02*
X144526000Y-135467200D01*
X157226000Y-125307200D02*
X155956000Y-124037200D01*
X157226000Y-135467200D02*
X157226000Y-125307200D01*
X145796000Y-124037200D02*
X144526000Y-125307200D01*
X155956000Y-136737200D02*
X157226000Y-135467200D01*
%TO.C,C27*%
X136577400Y-128806348D02*
X136577400Y-129328852D01*
X138047400Y-128806348D02*
X138047400Y-129328852D01*
%TO.C,SW22*%
X197459600Y-112572800D02*
X197459600Y-122732800D01*
X210159600Y-122732800D02*
X210159600Y-112572800D01*
X208889600Y-111302800D02*
X198729600Y-111302800D01*
X197459600Y-122732800D02*
X198729600Y-124002800D01*
X198729600Y-124002800D02*
X208889600Y-124002800D01*
X210159600Y-112572800D02*
X208889600Y-111302800D01*
X208889600Y-124002800D02*
X210159600Y-122732800D01*
X198729600Y-111302800D02*
X197459600Y-112572800D01*
%TD*%
M02*
