M48
;DRILL file {KiCad (5.0.1)-3} date 11/11/2018 3:38:01 PM
;FORMAT={-:-/ absolute / inch / decimal}
FMAT,2
INCH,TZ
T1C0.0157
T2C0.0295
T3C0.0300
T4C0.0315
T5C0.0354
T6C0.0394
T7C0.0433
T8C0.0472
T9C0.0512
T10C0.0551
T11C0.0591
T12C0.0598
%
G90
G05
M72
T1
X2.6866Y-5.6832
X2.8604Y-5.3872
T2
X4.2118Y-1.92
X4.2118Y-1.97
X4.2118Y-2.02
X4.22Y-5.25
X4.22Y-5.3
X4.22Y-5.35
X4.08Y-1.27
X4.08Y-1.32
X4.08Y-1.37
X4.08Y-2.72
X4.08Y-2.77
X4.08Y-2.82
X4.08Y-4.46
X4.08Y-4.51
X4.08Y-4.56
X4.08Y-6.09
X4.08Y-6.14
X4.08Y-6.19
T3
X1.1Y-5.85
X1.1Y-5.95
X1.1Y-6.05
X1.1Y-6.15
X2.7Y-5.85
X2.7Y-5.95
X2.7Y-6.05
X2.7Y-6.15
X1.097Y-4.75
X1.097Y-4.85
X1.097Y-4.95
X1.097Y-5.05
X2.697Y-4.75
X2.697Y-4.85
X2.697Y-4.95
X2.697Y-5.05
T4
X3.2041Y-2.7275
X3.3025Y-2.7275
X3.2025Y-2.5375
X3.3009Y-2.5375
X5.12Y-2.451
X5.12Y-3.0416
X5.12Y-4.206
X5.12Y-4.7966
X5.12Y-5.82
X5.12Y-6.4106
X3.Y-2.9825
X3.1969Y-2.9825
X3.Y-3.1025
X3.1969Y-3.1025
X4.06Y-1.54
X4.06Y-1.94
X4.06Y-4.86
X4.06Y-5.26
X3.36Y-3.785
X3.36Y-4.185
X2.875Y-3.665
X3.275Y-3.665
X3.9Y-0.98
X4.3Y-0.98
X3.9Y-1.32
X3.9Y-1.72
X5.14Y-3.6272
X5.54Y-3.6272
X4.28Y-2.14
X4.28Y-2.54
X3.92Y-2.78
X3.92Y-3.18
X4.3Y-3.86
X4.3Y-4.26
X3.92Y-4.12
X3.92Y-4.52
X4.3Y-5.54
X4.3Y-5.94
X3.94Y-5.74
X3.94Y-6.14
X3.68Y-5.57
X3.68Y-5.97
X2.98Y-5.57
X2.98Y-5.97
X3.54Y-5.57
X3.54Y-5.97
X3.4Y-5.57
X3.4Y-5.97
X3.12Y-5.57
X3.12Y-5.97
X3.48Y-1.18
X3.48Y-1.3769
X3.26Y-5.57
X3.26Y-5.97
X4.3Y-1.2
X4.3Y-1.3
X4.3Y-1.4
X4.6Y-1.2
X4.6Y-1.3
X4.6Y-1.4
X2.3556Y-2.186
X2.3556Y-2.286
X2.3556Y-2.386
X2.3556Y-2.486
X2.3556Y-2.586
X2.3556Y-2.686
X2.3556Y-2.786
X2.3556Y-2.886
X2.3556Y-2.986
X2.3556Y-3.086
X2.3556Y-3.186
X2.3556Y-3.286
X2.3556Y-3.386
X2.3556Y-3.486
X2.6556Y-2.186
X2.6556Y-2.286
X2.6556Y-2.386
X2.6556Y-2.486
X2.6556Y-2.586
X2.6556Y-2.686
X2.6556Y-2.786
X2.6556Y-2.886
X2.6556Y-2.986
X2.6556Y-3.086
X2.6556Y-3.186
X2.6556Y-3.286
X2.6556Y-3.386
X2.6556Y-3.486
X4.28Y-2.66
X4.28Y-2.76
X4.28Y-2.86
X4.58Y-2.66
X4.58Y-2.76
X4.58Y-2.86
X4.46Y-3.5
X4.46Y-3.6
X4.46Y-3.7
X4.76Y-3.5
X4.76Y-3.6
X4.76Y-3.7
X4.3Y-4.4
X4.3Y-4.5
X4.3Y-4.6
X4.6Y-4.4
X4.6Y-4.5
X4.6Y-4.6
X4.3Y-6.0362
X4.3Y-6.1362
X4.3Y-6.2362
X4.6Y-6.0362
X4.6Y-6.1362
X4.6Y-6.2362
X3.0056Y-2.5339
X3.0056Y-2.726
X3.374Y-3.045
X3.4724Y-3.045
X4.3Y-2.9975
X4.3Y-3.3975
X2.0131Y-2.7875
X2.21Y-2.7875
X2.62Y-1.1831
X2.62Y-1.38
X2.38Y-1.18
X2.38Y-1.3769
X5.14Y-1.0304
X5.14Y-1.621
X1.44Y-1.18
X1.44Y-1.3769
X4.06Y-2.04
X4.06Y-2.44
X4.06Y-5.36
X4.06Y-5.76
T5
X3.82Y-6.44
X3.92Y-6.44
X2.72Y-6.44
X2.82Y-6.44
X3.6Y-6.44
X3.7Y-6.44
X3.38Y-6.44
X3.48Y-6.44
X2.94Y-6.44
X3.04Y-6.44
X3.16Y-6.44
X3.26Y-6.44
T6
X1.8998Y-5.2847
X2.4333Y-5.5158
X3.1952Y-3.3408
X3.497Y-2.012
X3.5317Y-2.4911
X3.5576Y-4.8787
X3.6506Y-2.3747
X2.64Y-3.92
X2.74Y-3.92
X2.44Y-0.98
X2.54Y-0.98
X3.48Y-0.98
X3.58Y-0.98
X2.655Y-3.6625
X2.755Y-3.6625
X3.665Y-3.51
X3.665Y-3.61
X3.665Y-3.71
X3.665Y-3.81
X3.765Y-3.51
X3.765Y-3.61
X3.765Y-3.71
X3.765Y-3.81
X2.64Y-4.02
X2.74Y-4.02
X2.43Y-3.92
X2.43Y-4.02
X2.43Y-4.12
X2.43Y-4.22
X2.43Y-4.32
X2.43Y-4.42
X2.64Y-4.12
X2.74Y-4.12
X2.64Y-4.22
X2.74Y-4.22
X1.38Y-5.38
X1.38Y-5.48
X0.86Y-5.95
X0.86Y-6.05
X2.19Y-2.986
X2.19Y-3.086
X2.19Y-3.186
X2.19Y-3.286
X2.19Y-3.386
X2.19Y-3.486
X0.86Y-4.85
X0.86Y-4.95
X2.19Y-2.185
X2.19Y-2.285
X2.19Y-2.385
X2.19Y-2.485
X2.34Y-6.44
X2.44Y-6.44
X2.815Y-2.185
X2.815Y-2.285
X2.815Y-2.385
X2.815Y-2.485
X2.815Y-2.985
X2.815Y-3.085
X2.815Y-3.185
X2.815Y-3.285
X2.815Y-3.385
X2.815Y-3.485
X0.955Y-1.37
X0.955Y-1.47
X0.955Y-1.57
X0.955Y-1.67
X3.935Y-0.805
X4.035Y-0.805
X4.135Y-0.805
X4.235Y-0.805
X4.598Y-1.606
X4.582Y-3.154
X4.604Y-4.848
X4.598Y-6.444
X4.0081Y-3.5103
X4.0081Y-3.6103
X4.0081Y-3.7103
X4.0081Y-3.8103
X3.2031Y-1.68
X3.4Y-1.68
X2.74Y-1.68
X2.9369Y-1.68
X2.0531Y-1.68
X2.25Y-1.68
X1.5831Y-1.68
X1.78Y-1.68
T7
X2.9825Y-3.8591
X2.9825Y-4.115
X3.1597Y-3.8591
X3.1597Y-4.115
X1.82Y-0.98
X1.92Y-0.98
X2.02Y-0.98
X2.96Y-0.98
X3.06Y-0.98
X3.16Y-0.98
T8
X4.88Y-1.0294
X4.88Y-1.6294
X5.3988Y-1.0294
X5.3988Y-1.6294
X4.88Y-2.456
X4.88Y-3.056
X5.397Y-2.456
X5.397Y-3.056
X4.86Y-4.206
X4.86Y-4.806
X5.4Y-4.206
X5.4Y-4.806
X4.88Y-5.82
X4.88Y-6.42
X5.4Y-5.816
X5.4Y-6.416
T9
X4.76Y-1.8647
X4.76Y-2.16
X5.3608Y-1.8647
X5.3608Y-2.16
X5.5592Y-1.8647
X5.5592Y-2.16
X5.7576Y-1.8647
X5.7576Y-2.16
X4.76Y-5.1647
X4.76Y-5.46
X5.3608Y-5.1647
X5.3608Y-5.46
X5.5592Y-5.1647
X5.5592Y-5.46
X5.7576Y-5.1647
X5.7576Y-5.46
T10
X1.72Y-1.28
X2.12Y-1.28
X2.86Y-1.28
X3.26Y-1.28
X1.24Y-2.06
X1.64Y-2.06
X1.24Y-2.46
X1.64Y-2.46
X1.24Y-2.87
X1.64Y-2.87
X4.44Y-1.8
X4.44Y-2.2
X4.46Y-5.12
X4.46Y-5.52
X2.29Y-5.45
X2.69Y-5.45
X5.4652Y-3.3372
X5.8652Y-3.3372
X5.4652Y-3.8772
X5.8652Y-3.8772
X4.86Y-3.3372
X5.26Y-3.3372
X4.86Y-3.8772
X5.26Y-3.8772
T11
X5.68Y-1.08
X5.68Y-1.2956
X5.68Y-1.5111
X5.68Y-2.526
X5.68Y-2.7416
X5.68Y-2.9571
X5.68Y-4.28
X5.68Y-4.4956
X5.68Y-4.7111
X5.68Y-5.906
X5.68Y-6.1216
X5.68Y-6.3371
T12
X6.25Y-5.03
X6.25Y-5.23
X0.92Y-2.06
X0.92Y-2.26
X0.92Y-2.46
X6.25Y-1.09
X6.25Y-1.29
X6.25Y-2.92
X6.25Y-3.12
X6.25Y-4.12
X6.25Y-4.32
X6.247Y-5.916
X6.247Y-6.116
X0.88Y-5.34
X0.88Y-5.54
X6.25Y-1.54
X6.25Y-1.74
X6.25Y-2.46
X6.25Y-2.66
X6.25Y-4.58
X6.25Y-4.78
X6.25Y-5.47
X6.25Y-5.67
X6.25Y-2.
X6.25Y-2.2
T6
X1.0319Y-3.1756G85X1.0319Y-3.2543
G05
X1.1106Y-3.4G85X1.1894Y-3.4
G05
X1.2681Y-3.1756G85X1.2681Y-3.2543
G05
T0
M30
