M48
;DRILL file {KiCad (5.0.1)-3} date 11/11/2018 4:06:19 PM
;FORMAT={-:-/ absolute / metric / decimal}
FMAT,2
METRIC,TZ
T1C0.400
T2C0.750
T3C0.762
T4C0.800
T5C0.900
T6C1.000
T7C1.100
T8C1.200
T9C1.300
T10C1.400
T11C1.500
T12C1.520
%
G90
G05
M71
T1
X68.24Y-144.353
X72.654Y-136.835
T2
X106.98Y-48.768
X106.98Y-50.038
X106.98Y-51.308
X107.188Y-133.35
X107.188Y-134.62
X107.188Y-135.89
X103.632Y-32.258
X103.632Y-33.528
X103.632Y-34.798
X103.632Y-69.088
X103.632Y-70.358
X103.632Y-71.628
X103.632Y-113.284
X103.632Y-114.554
X103.632Y-115.824
X103.632Y-154.686
X103.632Y-155.956
X103.632Y-157.226
T3
X27.94Y-148.59
X27.94Y-151.13
X27.94Y-153.67
X27.94Y-156.21
X68.58Y-148.59
X68.58Y-151.13
X68.58Y-153.67
X68.58Y-156.21
X27.865Y-120.65
X27.865Y-123.19
X27.865Y-125.73
X27.865Y-128.27
X68.505Y-120.65
X68.505Y-123.19
X68.505Y-125.73
X68.505Y-128.27
T4
X103.124Y-39.116
X103.124Y-49.276
X103.124Y-123.444
X103.124Y-133.604
X85.344Y-96.139
X85.344Y-106.299
X73.025Y-93.091
X83.185Y-93.091
X99.06Y-24.892
X109.22Y-24.892
X99.06Y-33.528
X99.06Y-43.688
X130.556Y-92.131
X140.716Y-92.131
X108.712Y-54.356
X108.712Y-64.516
X99.568Y-70.612
X99.568Y-80.772
X109.22Y-98.044
X109.22Y-108.204
X99.568Y-104.648
X99.568Y-114.808
X109.22Y-140.716
X109.22Y-150.876
X100.076Y-145.796
X100.076Y-155.956
X93.472Y-141.478
X93.472Y-151.638
X75.692Y-141.478
X75.692Y-151.638
X89.916Y-141.478
X89.916Y-151.638
X86.36Y-141.478
X86.36Y-151.638
X79.248Y-141.478
X79.248Y-151.638
X82.804Y-141.478
X82.804Y-151.638
X109.22Y-30.48
X109.22Y-33.02
X109.22Y-35.56
X116.84Y-30.48
X116.84Y-33.02
X116.84Y-35.56
X59.832Y-55.525
X59.832Y-58.065
X59.832Y-60.605
X59.832Y-63.145
X59.832Y-65.685
X59.832Y-68.225
X59.832Y-70.765
X59.832Y-73.305
X59.832Y-75.845
X59.832Y-78.385
X59.832Y-80.925
X59.832Y-83.465
X59.832Y-86.005
X59.832Y-88.545
X67.452Y-55.525
X67.452Y-58.065
X67.452Y-60.605
X67.452Y-63.145
X67.452Y-65.685
X67.452Y-68.225
X67.452Y-70.765
X67.452Y-73.305
X67.452Y-75.845
X67.452Y-78.385
X67.452Y-80.925
X67.452Y-83.465
X67.452Y-86.005
X67.452Y-88.545
X108.712Y-67.564
X108.712Y-70.104
X108.712Y-72.644
X116.332Y-67.564
X116.332Y-70.104
X116.332Y-72.644
X113.284Y-88.9
X113.284Y-91.44
X113.284Y-93.98
X120.904Y-88.9
X120.904Y-91.44
X120.904Y-93.98
X109.22Y-111.76
X109.22Y-114.3
X109.22Y-116.84
X116.84Y-111.76
X116.84Y-114.3
X116.84Y-116.84
X109.22Y-153.319
X109.22Y-155.859
X109.22Y-158.399
X116.84Y-153.319
X116.84Y-155.859
X116.84Y-158.399
X76.342Y-64.361
X76.342Y-69.241
X85.7Y-77.343
X88.2Y-77.343
X130.048Y-106.832
X130.048Y-121.832
X130.048Y-147.828
X130.048Y-162.828
X81.383Y-69.278
X83.883Y-69.278
X130.556Y-26.172
X130.556Y-41.172
X51.134Y-70.802
X56.134Y-70.802
X88.392Y-29.972
X88.392Y-34.972
X103.124Y-51.816
X103.124Y-61.976
X109.22Y-76.136
X109.22Y-86.296
X66.548Y-30.052
X66.548Y-35.052
X60.452Y-29.972
X60.452Y-34.972
X81.343Y-64.453
X83.843Y-64.453
X130.048Y-62.255
X130.048Y-77.255
X36.576Y-29.972
X36.576Y-34.972
X76.2Y-75.755
X81.2Y-75.755
X76.2Y-78.803
X81.2Y-78.803
X103.124Y-136.144
X103.124Y-146.304
T5
X69.088Y-163.576
X71.628Y-163.576
X91.44Y-163.576
X93.98Y-163.576
X85.852Y-163.576
X88.392Y-163.576
X74.676Y-163.576
X77.216Y-163.576
X80.264Y-163.576
X82.804Y-163.576
X97.028Y-163.576
X99.568Y-163.576
T6
X48.255Y-134.231
X61.806Y-140.101
X81.158Y-84.856
X88.824Y-51.105
X89.705Y-63.274
X90.363Y-123.919
X92.725Y-60.317
X67.056Y-99.568
X69.596Y-99.568
X61.976Y-24.892
X64.516Y-24.892
X88.392Y-24.892
X90.932Y-24.892
X67.437Y-93.027
X69.977Y-93.027
X93.091Y-89.154
X93.091Y-91.694
X93.091Y-94.234
X93.091Y-96.774
X95.631Y-89.154
X95.631Y-91.694
X95.631Y-94.234
X95.631Y-96.774
X67.056Y-102.108
X69.596Y-102.108
X61.722Y-99.568
X61.722Y-102.108
X61.722Y-104.648
X61.722Y-107.188
X61.722Y-109.728
X61.722Y-112.268
X67.056Y-104.648
X69.596Y-104.648
X67.056Y-107.188
X69.596Y-107.188
X35.052Y-136.652
X35.052Y-139.192
X21.844Y-151.13
X21.844Y-153.67
X55.626Y-75.845
X55.626Y-78.385
X55.626Y-80.925
X55.626Y-83.465
X55.626Y-86.005
X55.626Y-88.545
X21.844Y-123.19
X21.844Y-125.73
X59.436Y-163.576
X61.976Y-163.576
X55.626Y-55.499
X55.626Y-58.039
X55.626Y-60.579
X55.626Y-63.119
X71.501Y-55.499
X71.501Y-58.039
X71.501Y-60.579
X71.501Y-63.119
X71.501Y-75.819
X71.501Y-78.359
X71.501Y-80.899
X71.501Y-83.439
X71.501Y-85.979
X71.501Y-88.519
X24.257Y-34.798
X24.257Y-37.338
X24.257Y-39.878
X24.257Y-42.418
X99.949Y-20.447
X102.489Y-20.447
X105.029Y-20.447
X107.569Y-20.447
X116.789Y-40.792
X116.383Y-80.112
X116.942Y-123.139
X116.789Y-163.678
X101.806Y-89.162
X101.806Y-91.702
X101.806Y-94.242
X101.806Y-96.782
X81.36Y-42.672
X86.36Y-42.672
X52.15Y-42.672
X57.15Y-42.672
X69.596Y-42.672
X74.596Y-42.672
X40.212Y-42.672
X45.212Y-42.672
T7
X75.755Y-98.021
X75.755Y-104.521
X80.255Y-98.021
X80.255Y-104.521
X46.228Y-24.892
X48.768Y-24.892
X51.308Y-24.892
X75.184Y-24.892
X77.724Y-24.892
X80.264Y-24.892
T8
X123.952Y-26.147
X123.952Y-41.387
X137.13Y-26.147
X137.13Y-41.387
X123.952Y-62.382
X123.952Y-77.622
X137.084Y-62.382
X137.084Y-77.622
X123.444Y-106.832
X123.444Y-122.072
X137.16Y-106.832
X137.16Y-122.072
X123.952Y-147.828
X123.952Y-163.068
X137.16Y-147.726
X137.16Y-162.966
T9
X120.904Y-47.364
X120.904Y-54.864
X136.164Y-47.364
X136.164Y-54.864
X141.204Y-47.364
X141.204Y-54.864
X146.244Y-47.364
X146.244Y-54.864
X120.904Y-131.184
X120.904Y-138.684
X136.164Y-131.184
X136.164Y-138.684
X141.204Y-131.184
X141.204Y-138.684
X146.244Y-131.184
X146.244Y-138.684
T10
X43.688Y-32.512
X53.848Y-32.512
X72.644Y-32.512
X82.804Y-32.512
X31.496Y-52.324
X41.656Y-52.324
X31.496Y-62.484
X41.656Y-62.484
X31.496Y-72.898
X41.656Y-72.898
X112.776Y-45.72
X112.776Y-55.88
X113.284Y-130.048
X113.284Y-140.208
X58.166Y-138.43
X68.326Y-138.43
X138.816Y-84.765
X148.976Y-84.765
X138.816Y-98.481
X148.976Y-98.481
X123.444Y-84.765
X133.604Y-84.765
X123.444Y-98.481
X133.604Y-98.481
T11
X144.272Y-27.432
X144.272Y-32.907
X144.272Y-38.382
X144.272Y-64.16
X144.272Y-69.635
X144.272Y-75.11
X144.272Y-108.712
X144.272Y-114.187
X144.272Y-119.662
X144.272Y-150.012
X144.272Y-155.487
X144.272Y-160.962
T12
X158.75Y-127.762
X158.75Y-132.842
X23.368Y-52.324
X23.368Y-57.404
X23.368Y-62.484
X158.75Y-27.686
X158.75Y-32.766
X158.75Y-74.168
X158.75Y-79.248
X158.75Y-104.648
X158.75Y-109.728
X158.674Y-150.266
X158.674Y-155.346
X22.352Y-135.636
X22.352Y-140.716
X158.75Y-39.116
X158.75Y-44.196
X158.75Y-62.484
X158.75Y-67.564
X158.75Y-116.332
X158.75Y-121.412
X158.75Y-138.938
X158.75Y-144.018
X158.75Y-50.8
X158.75Y-55.88
T6
X26.21Y-80.66G85X26.21Y-82.66
G05
X28.21Y-86.36G85X30.21Y-86.36
G05
X32.21Y-80.66G85X32.21Y-82.66
G05
T0
M30
