M48
; DRILL file {KiCad (5.1.6)-1} date 01/04/21 14:37:32
; FORMAT={-:-/ absolute / inch / decimal}
; #@! TF.CreationDate,2021-01-04T14:37:32+05:30
; #@! TF.GenerationSoftware,Kicad,Pcbnew,(5.1.6)-1
; #@! TF.FileFunction,Plated,1,2,PTH
FMAT,2
INCH
T1C0.0157
T2C0.0315
T3C0.0350
T4C0.0354
T5C0.0394
T6C0.0433
T7C0.0550
%
G90
G05
T1
X2.9479Y-3.6771
X3.023Y-4.2594
X3.125Y-4.5
X3.25Y-2.95
X3.4Y-2.85
X3.45Y-4.525
X3.725Y-3.725
X3.75Y-3.85
X3.7655Y-3.6595
X3.825Y-3.7
X4.0595Y-3.6595
X4.25Y-3.675
X4.65Y-3.35
X4.65Y-3.725
X4.725Y-3.613
X4.775Y-2.925
X4.775Y-2.975
X4.9Y-3.275
X4.975Y-3.375
X5.0875Y-3.3375
X5.425Y-3.5
X5.45Y-3.375
X6.25Y-4.125
X6.4Y-4.05
X6.45Y-3.2
T2
X4.0Y-3.5
X4.0Y-3.8
X4.1Y-3.5
X4.1Y-3.8
X4.2Y-3.5
X4.2Y-3.8
X4.3Y-3.5
X4.3Y-3.8
X4.4Y-3.5
X4.4Y-3.8
X4.5Y-3.5
X4.5Y-3.8
X4.6Y-3.5
X4.6Y-3.8
X4.7Y-3.5
X4.7Y-3.8
X4.8Y-3.5
X4.8Y-3.8
X4.9Y-3.5
X4.9Y-3.8
X5.0Y-3.5
X5.0Y-3.8
X5.1Y-3.5
X5.1Y-3.8
X5.2Y-3.5
X5.2Y-3.8
X5.3Y-3.5
X5.3Y-3.8
X4.725Y-4.05
X4.9171Y-4.05
T3
X5.625Y-3.5
X5.625Y-3.6
X5.625Y-3.7
X5.925Y-4.0
X6.025Y-4.0
X6.125Y-4.0
X2.875Y-3.475
X2.875Y-3.575
X2.875Y-3.675
X3.175Y-3.975
X3.275Y-3.975
X3.375Y-3.975
T4
X5.9Y-3.1
X5.9Y-3.3
X6.15Y-3.1
X6.15Y-3.3
X3.15Y-3.075
X3.15Y-3.275
X3.4Y-3.075
X3.4Y-3.275
T5
X2.975Y-4.85
X3.075Y-4.85
X3.175Y-2.7
X3.275Y-2.7
X3.375Y-2.7
X4.55Y-3.075
X4.55Y-3.175
X4.65Y-3.075
X4.65Y-3.175
X4.75Y-3.075
X4.75Y-3.175
X4.85Y-3.075
X4.85Y-3.175
T6
X3.95Y-4.05
X3.95Y-4.2272
X4.2059Y-4.05
X4.2059Y-4.2272
X2.675Y-4.625
X3.075Y-4.625
X5.2Y-4.05
X5.2Y-4.2272
X5.4559Y-4.05
X5.4559Y-4.2272
X3.95Y-3.025
X3.95Y-3.2022
X4.2059Y-3.025
X4.2059Y-3.2022
X5.175Y-3.025
X5.175Y-3.2022
X5.4309Y-3.025
X5.4309Y-3.2022
T7
X5.725Y-3.3375
X5.725Y-3.8625
X6.325Y-3.3375
X6.325Y-3.8625
X2.975Y-3.3125
X2.975Y-3.8375
X3.575Y-3.3125
X3.575Y-3.8375
T0
M30
