%TF.GenerationSoftware,KiCad,Pcbnew,(5.1.6)-1*%
%TF.CreationDate,2021-01-04T14:37:21+05:30*%
%TF.ProjectId,JoyStick2,4a6f7953-7469-4636-9b32-2e6b69636164,rev?*%
%TF.SameCoordinates,Original*%
%TF.FileFunction,Soldermask,Bot*%
%TF.FilePolarity,Negative*%
%FSLAX46Y46*%
G04 Gerber Fmt 4.6, Leading zero omitted, Abs format (unit mm)*
G04 Created by KiCad (PCBNEW (5.1.6)-1) date 2021-01-04 14:37:21*
%MOMM*%
%LPD*%
G01*
G04 APERTURE LIST*
%ADD10R,1.800000X1.800000*%
%ADD11O,1.800000X1.800000*%
%ADD12R,1.700000X1.700000*%
%ADD13O,1.700000X1.700000*%
%ADD14C,1.600000*%
%ADD15C,1.878000*%
%ADD16C,2.386000*%
%ADD17R,2.300000X2.300000*%
%ADD18O,2.300000X2.300000*%
%ADD19C,2.100000*%
%ADD20C,2.300000*%
G04 APERTURE END LIST*
D10*
%TO.C,J3*%
X115570000Y-80645000D03*
D11*
X115570000Y-78105000D03*
X118110000Y-80645000D03*
X118110000Y-78105000D03*
X120650000Y-80645000D03*
X120650000Y-78105000D03*
X123190000Y-80645000D03*
X123190000Y-78105000D03*
%TD*%
D12*
%TO.C,U1*%
X101600000Y-96520000D03*
D13*
X134620000Y-88900000D03*
X104140000Y-96520000D03*
X132080000Y-88900000D03*
X106680000Y-96520000D03*
X129540000Y-88900000D03*
X109220000Y-96520000D03*
X127000000Y-88900000D03*
X111760000Y-96520000D03*
X124460000Y-88900000D03*
X114300000Y-96520000D03*
X121920000Y-88900000D03*
X116840000Y-96520000D03*
X119380000Y-88900000D03*
X119380000Y-96520000D03*
X116840000Y-88900000D03*
X121920000Y-96520000D03*
X114300000Y-88900000D03*
X124460000Y-96520000D03*
X111760000Y-88900000D03*
X127000000Y-96520000D03*
X109220000Y-88900000D03*
X129540000Y-96520000D03*
X106680000Y-88900000D03*
X132080000Y-96520000D03*
X104140000Y-88900000D03*
X134620000Y-96520000D03*
X101600000Y-88900000D03*
%TD*%
%TO.C,C1*%
G36*
G01*
X120296250Y-92257500D02*
X119733750Y-92257500D01*
G75*
G02*
X119490000Y-92013750I0J243750D01*
G01*
X119490000Y-91526250D01*
G75*
G02*
X119733750Y-91282500I243750J0D01*
G01*
X120296250Y-91282500D01*
G75*
G02*
X120540000Y-91526250I0J-243750D01*
G01*
X120540000Y-92013750D01*
G75*
G02*
X120296250Y-92257500I-243750J0D01*
G01*
G37*
G36*
G01*
X120296250Y-93832500D02*
X119733750Y-93832500D01*
G75*
G02*
X119490000Y-93588750I0J243750D01*
G01*
X119490000Y-93101250D01*
G75*
G02*
X119733750Y-92857500I243750J0D01*
G01*
X120296250Y-92857500D01*
G75*
G02*
X120540000Y-93101250I0J-243750D01*
G01*
X120540000Y-93588750D01*
G75*
G02*
X120296250Y-93832500I-243750J0D01*
G01*
G37*
%TD*%
%TO.C,C2*%
G36*
G01*
X117121250Y-93832500D02*
X116558750Y-93832500D01*
G75*
G02*
X116315000Y-93588750I0J243750D01*
G01*
X116315000Y-93101250D01*
G75*
G02*
X116558750Y-92857500I243750J0D01*
G01*
X117121250Y-92857500D01*
G75*
G02*
X117365000Y-93101250I0J-243750D01*
G01*
X117365000Y-93588750D01*
G75*
G02*
X117121250Y-93832500I-243750J0D01*
G01*
G37*
G36*
G01*
X117121250Y-92257500D02*
X116558750Y-92257500D01*
G75*
G02*
X116315000Y-92013750I0J243750D01*
G01*
X116315000Y-91526250D01*
G75*
G02*
X116558750Y-91282500I243750J0D01*
G01*
X117121250Y-91282500D01*
G75*
G02*
X117365000Y-91526250I0J-243750D01*
G01*
X117365000Y-92013750D01*
G75*
G02*
X117121250Y-92257500I-243750J0D01*
G01*
G37*
%TD*%
%TO.C,C3*%
G36*
G01*
X112041250Y-93985000D02*
X111478750Y-93985000D01*
G75*
G02*
X111235000Y-93741250I0J243750D01*
G01*
X111235000Y-93253750D01*
G75*
G02*
X111478750Y-93010000I243750J0D01*
G01*
X112041250Y-93010000D01*
G75*
G02*
X112285000Y-93253750I0J-243750D01*
G01*
X112285000Y-93741250D01*
G75*
G02*
X112041250Y-93985000I-243750J0D01*
G01*
G37*
G36*
G01*
X112041250Y-92410000D02*
X111478750Y-92410000D01*
G75*
G02*
X111235000Y-92166250I0J243750D01*
G01*
X111235000Y-91678750D01*
G75*
G02*
X111478750Y-91435000I243750J0D01*
G01*
X112041250Y-91435000D01*
G75*
G02*
X112285000Y-91678750I0J-243750D01*
G01*
X112285000Y-92166250D01*
G75*
G02*
X112041250Y-92410000I-243750J0D01*
G01*
G37*
%TD*%
D14*
%TO.C,Y1*%
X120015000Y-102870000D03*
X124895000Y-102870000D03*
%TD*%
D15*
%TO.C,U2*%
X73025000Y-93345000D03*
X73025000Y-90805000D03*
X73025000Y-88265000D03*
D16*
X90805000Y-84137500D03*
X90805000Y-97472500D03*
X75565000Y-97472500D03*
X75565000Y-84137500D03*
D15*
X85725000Y-100965000D03*
X83185000Y-100965000D03*
X80645000Y-100965000D03*
X86360000Y-83185000D03*
X80010000Y-83185000D03*
X86360000Y-78105000D03*
X80010000Y-78105000D03*
%TD*%
%TO.C,U3*%
X149860000Y-78740000D03*
X156210000Y-78740000D03*
X149860000Y-83820000D03*
X156210000Y-83820000D03*
X150495000Y-101600000D03*
X153035000Y-101600000D03*
X155575000Y-101600000D03*
D16*
X145415000Y-84772500D03*
X145415000Y-98107500D03*
X160655000Y-98107500D03*
X160655000Y-84772500D03*
D15*
X142875000Y-88900000D03*
X142875000Y-91440000D03*
X142875000Y-93980000D03*
%TD*%
D17*
%TO.C,D1*%
X67945000Y-117475000D03*
D18*
X78105000Y-117475000D03*
%TD*%
D10*
%TO.C,J1*%
X78105000Y-123190000D03*
D11*
X75565000Y-123190000D03*
%TD*%
%TO.C,R1*%
G36*
G01*
X105615000Y-92228750D02*
X105615000Y-93191250D01*
G75*
G02*
X105346250Y-93460000I-268750J0D01*
G01*
X104808750Y-93460000D01*
G75*
G02*
X104540000Y-93191250I0J268750D01*
G01*
X104540000Y-92228750D01*
G75*
G02*
X104808750Y-91960000I268750J0D01*
G01*
X105346250Y-91960000D01*
G75*
G02*
X105615000Y-92228750I0J-268750D01*
G01*
G37*
G36*
G01*
X103740000Y-92228750D02*
X103740000Y-93191250D01*
G75*
G02*
X103471250Y-93460000I-268750J0D01*
G01*
X102933750Y-93460000D01*
G75*
G02*
X102665000Y-93191250I0J268750D01*
G01*
X102665000Y-92228750D01*
G75*
G02*
X102933750Y-91960000I268750J0D01*
G01*
X103471250Y-91960000D01*
G75*
G02*
X103740000Y-92228750I0J-268750D01*
G01*
G37*
%TD*%
D19*
%TO.C,SW1*%
X100330000Y-81335000D03*
X100330000Y-76835000D03*
X106830000Y-81335000D03*
X106830000Y-76835000D03*
%TD*%
%TO.C,SW2*%
X106830000Y-102870000D03*
X106830000Y-107370000D03*
X100330000Y-102870000D03*
X100330000Y-107370000D03*
%TD*%
%TO.C,SW3*%
X131445000Y-81335000D03*
X131445000Y-76835000D03*
X137945000Y-81335000D03*
X137945000Y-76835000D03*
%TD*%
%TO.C,SW4*%
X138580000Y-102870000D03*
X138580000Y-107370000D03*
X132080000Y-102870000D03*
X132080000Y-107370000D03*
%TD*%
D10*
%TO.C,J2*%
X80645000Y-68580000D03*
D11*
X83185000Y-68580000D03*
X85725000Y-68580000D03*
%TD*%
D20*
%TO.C,H1*%
X84455000Y-60325000D03*
%TD*%
%TO.C,H2*%
X59055000Y-130175000D03*
%TD*%
%TO.C,H3*%
X154305000Y-60325000D03*
%TD*%
%TO.C,H4*%
X179705000Y-130175000D03*
%TD*%
M02*
