%TF.GenerationSoftware,KiCad,Pcbnew,(5.1.6)-1*%
%TF.CreationDate,2021-01-04T14:37:21+05:30*%
%TF.ProjectId,JoyStick2,4a6f7953-7469-4636-9b32-2e6b69636164,rev?*%
%TF.SameCoordinates,Original*%
%TF.FileFunction,Legend,Top*%
%TF.FilePolarity,Positive*%
%FSLAX46Y46*%
G04 Gerber Fmt 4.6, Leading zero omitted, Abs format (unit mm)*
G04 Created by KiCad (PCBNEW (5.1.6)-1) date 2021-01-04 14:37:21*
%MOMM*%
%LPD*%
G01*
G04 APERTURE LIST*
%ADD10C,0.150000*%
%ADD11C,0.200000*%
%ADD12C,0.120000*%
%ADD13C,0.127000*%
%ADD14C,0.015000*%
G04 APERTURE END LIST*
D10*
X84074047Y-121991428D02*
X84835952Y-121991428D01*
X84455000Y-122372380D02*
X84455000Y-121610476D01*
X86177380Y-66206666D02*
X85701190Y-66540000D01*
X86177380Y-66778095D02*
X85177380Y-66778095D01*
X85177380Y-66397142D01*
X85225000Y-66301904D01*
X85272619Y-66254285D01*
X85367857Y-66206666D01*
X85510714Y-66206666D01*
X85605952Y-66254285D01*
X85653571Y-66301904D01*
X85701190Y-66397142D01*
X85701190Y-66778095D01*
X85177380Y-65873333D02*
X86177380Y-65206666D01*
X85177380Y-65206666D02*
X86177380Y-65873333D01*
X82002380Y-66801904D02*
X82002380Y-66230476D01*
X83002380Y-66516190D02*
X82002380Y-66516190D01*
X82002380Y-65992380D02*
X83002380Y-65325714D01*
X82002380Y-65325714D02*
X83002380Y-65992380D01*
X81097380Y-66008095D02*
X80621190Y-66341428D01*
X81097380Y-66579523D02*
X80097380Y-66579523D01*
X80097380Y-66198571D01*
X80145000Y-66103333D01*
X80192619Y-66055714D01*
X80287857Y-66008095D01*
X80430714Y-66008095D01*
X80525952Y-66055714D01*
X80573571Y-66103333D01*
X80621190Y-66198571D01*
X80621190Y-66579523D01*
X81049761Y-65198571D02*
X81097380Y-65293809D01*
X81097380Y-65484285D01*
X81049761Y-65579523D01*
X80954523Y-65627142D01*
X80573571Y-65627142D01*
X80478333Y-65579523D01*
X80430714Y-65484285D01*
X80430714Y-65293809D01*
X80478333Y-65198571D01*
X80573571Y-65150952D01*
X80668809Y-65150952D01*
X80764047Y-65627142D01*
X81049761Y-64770000D02*
X81097380Y-64674761D01*
X81097380Y-64484285D01*
X81049761Y-64389047D01*
X80954523Y-64341428D01*
X80906904Y-64341428D01*
X80811666Y-64389047D01*
X80764047Y-64484285D01*
X80764047Y-64627142D01*
X80716428Y-64722380D01*
X80621190Y-64770000D01*
X80573571Y-64770000D01*
X80478333Y-64722380D01*
X80430714Y-64627142D01*
X80430714Y-64484285D01*
X80478333Y-64389047D01*
X81049761Y-63531904D02*
X81097380Y-63627142D01*
X81097380Y-63817619D01*
X81049761Y-63912857D01*
X80954523Y-63960476D01*
X80573571Y-63960476D01*
X80478333Y-63912857D01*
X80430714Y-63817619D01*
X80430714Y-63627142D01*
X80478333Y-63531904D01*
X80573571Y-63484285D01*
X80668809Y-63484285D01*
X80764047Y-63960476D01*
X80430714Y-63198571D02*
X80430714Y-62817619D01*
X80097380Y-63055714D02*
X80954523Y-63055714D01*
X81049761Y-63008095D01*
X81097380Y-62912857D01*
X81097380Y-62817619D01*
X123642380Y-75953809D02*
X122642380Y-75953809D01*
X123642380Y-74906190D02*
X123166190Y-75239523D01*
X123642380Y-75477619D02*
X122642380Y-75477619D01*
X122642380Y-75096666D01*
X122690000Y-75001428D01*
X122737619Y-74953809D01*
X122832857Y-74906190D01*
X122975714Y-74906190D01*
X123070952Y-74953809D01*
X123118571Y-75001428D01*
X123166190Y-75096666D01*
X123166190Y-75477619D01*
X123737619Y-73810952D02*
X123690000Y-73906190D01*
X123594761Y-74001428D01*
X123451904Y-74144285D01*
X123404285Y-74239523D01*
X123404285Y-74334761D01*
X123642380Y-74287142D02*
X123594761Y-74382380D01*
X123499523Y-74477619D01*
X123309047Y-74525238D01*
X122975714Y-74525238D01*
X122785238Y-74477619D01*
X122690000Y-74382380D01*
X122642380Y-74287142D01*
X122642380Y-74096666D01*
X122690000Y-74001428D01*
X122785238Y-73906190D01*
X122975714Y-73858571D01*
X123309047Y-73858571D01*
X123499523Y-73906190D01*
X123594761Y-74001428D01*
X123642380Y-74096666D01*
X123642380Y-74287142D01*
X123642380Y-86026428D02*
X122642380Y-86026428D01*
X123356666Y-85693095D01*
X122642380Y-85359761D01*
X123642380Y-85359761D01*
X123642380Y-84883571D02*
X122642380Y-84883571D01*
X123594761Y-84455000D02*
X123642380Y-84312142D01*
X123642380Y-84074047D01*
X123594761Y-83978809D01*
X123547142Y-83931190D01*
X123451904Y-83883571D01*
X123356666Y-83883571D01*
X123261428Y-83931190D01*
X123213809Y-83978809D01*
X123166190Y-84074047D01*
X123118571Y-84264523D01*
X123070952Y-84359761D01*
X123023333Y-84407380D01*
X122928095Y-84455000D01*
X122832857Y-84455000D01*
X122737619Y-84407380D01*
X122690000Y-84359761D01*
X122642380Y-84264523D01*
X122642380Y-84026428D01*
X122690000Y-83883571D01*
X122642380Y-83264523D02*
X122642380Y-83074047D01*
X122690000Y-82978809D01*
X122785238Y-82883571D01*
X122975714Y-82835952D01*
X123309047Y-82835952D01*
X123499523Y-82883571D01*
X123594761Y-82978809D01*
X123642380Y-83074047D01*
X123642380Y-83264523D01*
X123594761Y-83359761D01*
X123499523Y-83455000D01*
X123309047Y-83502619D01*
X122975714Y-83502619D01*
X122785238Y-83455000D01*
X122690000Y-83359761D01*
X122642380Y-83264523D01*
X120467380Y-75866428D02*
X119467380Y-75866428D01*
X120181666Y-75533095D01*
X119467380Y-75199761D01*
X120467380Y-75199761D01*
X119467380Y-74533095D02*
X119467380Y-74342619D01*
X119515000Y-74247380D01*
X119610238Y-74152142D01*
X119800714Y-74104523D01*
X120134047Y-74104523D01*
X120324523Y-74152142D01*
X120419761Y-74247380D01*
X120467380Y-74342619D01*
X120467380Y-74533095D01*
X120419761Y-74628333D01*
X120324523Y-74723571D01*
X120134047Y-74771190D01*
X119800714Y-74771190D01*
X119610238Y-74723571D01*
X119515000Y-74628333D01*
X119467380Y-74533095D01*
X120419761Y-73723571D02*
X120467380Y-73580714D01*
X120467380Y-73342619D01*
X120419761Y-73247380D01*
X120372142Y-73199761D01*
X120276904Y-73152142D01*
X120181666Y-73152142D01*
X120086428Y-73199761D01*
X120038809Y-73247380D01*
X119991190Y-73342619D01*
X119943571Y-73533095D01*
X119895952Y-73628333D01*
X119848333Y-73675952D01*
X119753095Y-73723571D01*
X119657857Y-73723571D01*
X119562619Y-73675952D01*
X119515000Y-73628333D01*
X119467380Y-73533095D01*
X119467380Y-73295000D01*
X119515000Y-73152142D01*
X120467380Y-72723571D02*
X119467380Y-72723571D01*
X121054761Y-85105714D02*
X121102380Y-84962857D01*
X121102380Y-84724761D01*
X121054761Y-84629523D01*
X121007142Y-84581904D01*
X120911904Y-84534285D01*
X120816666Y-84534285D01*
X120721428Y-84581904D01*
X120673809Y-84629523D01*
X120626190Y-84724761D01*
X120578571Y-84915238D01*
X120530952Y-85010476D01*
X120483333Y-85058095D01*
X120388095Y-85105714D01*
X120292857Y-85105714D01*
X120197619Y-85058095D01*
X120150000Y-85010476D01*
X120102380Y-84915238D01*
X120102380Y-84677142D01*
X120150000Y-84534285D01*
X121007142Y-83534285D02*
X121054761Y-83581904D01*
X121102380Y-83724761D01*
X121102380Y-83820000D01*
X121054761Y-83962857D01*
X120959523Y-84058095D01*
X120864285Y-84105714D01*
X120673809Y-84153333D01*
X120530952Y-84153333D01*
X120340476Y-84105714D01*
X120245238Y-84058095D01*
X120150000Y-83962857D01*
X120102380Y-83820000D01*
X120102380Y-83724761D01*
X120150000Y-83581904D01*
X120197619Y-83534285D01*
X121102380Y-83105714D02*
X120102380Y-83105714D01*
X121102380Y-82534285D02*
X120530952Y-82962857D01*
X120102380Y-82534285D02*
X120673809Y-83105714D01*
X118467142Y-75620476D02*
X118514761Y-75668095D01*
X118562380Y-75810952D01*
X118562380Y-75906190D01*
X118514761Y-76049047D01*
X118419523Y-76144285D01*
X118324285Y-76191904D01*
X118133809Y-76239523D01*
X117990952Y-76239523D01*
X117800476Y-76191904D01*
X117705238Y-76144285D01*
X117610000Y-76049047D01*
X117562380Y-75906190D01*
X117562380Y-75810952D01*
X117610000Y-75668095D01*
X117657619Y-75620476D01*
X118514761Y-75239523D02*
X118562380Y-75096666D01*
X118562380Y-74858571D01*
X118514761Y-74763333D01*
X118467142Y-74715714D01*
X118371904Y-74668095D01*
X118276666Y-74668095D01*
X118181428Y-74715714D01*
X118133809Y-74763333D01*
X118086190Y-74858571D01*
X118038571Y-75049047D01*
X117990952Y-75144285D01*
X117943333Y-75191904D01*
X117848095Y-75239523D01*
X117752857Y-75239523D01*
X117657619Y-75191904D01*
X117610000Y-75144285D01*
X117562380Y-75049047D01*
X117562380Y-74810952D01*
X117610000Y-74668095D01*
X118562380Y-74239523D02*
X117562380Y-74239523D01*
X118562380Y-73668095D01*
X117562380Y-73668095D01*
X118467142Y-83962857D02*
X118514761Y-84010476D01*
X118562380Y-84153333D01*
X118562380Y-84248571D01*
X118514761Y-84391428D01*
X118419523Y-84486666D01*
X118324285Y-84534285D01*
X118133809Y-84581904D01*
X117990952Y-84581904D01*
X117800476Y-84534285D01*
X117705238Y-84486666D01*
X117610000Y-84391428D01*
X117562380Y-84248571D01*
X117562380Y-84153333D01*
X117610000Y-84010476D01*
X117657619Y-83962857D01*
X118038571Y-83534285D02*
X118038571Y-83200952D01*
X118562380Y-83058095D02*
X118562380Y-83534285D01*
X117562380Y-83534285D01*
X117562380Y-83058095D01*
X115070000Y-84581904D02*
X115022380Y-84677142D01*
X115022380Y-84820000D01*
X115070000Y-84962857D01*
X115165238Y-85058095D01*
X115260476Y-85105714D01*
X115450952Y-85153333D01*
X115593809Y-85153333D01*
X115784285Y-85105714D01*
X115879523Y-85058095D01*
X115974761Y-84962857D01*
X116022380Y-84820000D01*
X116022380Y-84724761D01*
X115974761Y-84581904D01*
X115927142Y-84534285D01*
X115593809Y-84534285D01*
X115593809Y-84724761D01*
X116022380Y-84105714D02*
X115022380Y-84105714D01*
X116022380Y-83534285D01*
X115022380Y-83534285D01*
X116022380Y-83058095D02*
X115022380Y-83058095D01*
X115022380Y-82820000D01*
X115070000Y-82677142D01*
X115165238Y-82581904D01*
X115260476Y-82534285D01*
X115450952Y-82486666D01*
X115593809Y-82486666D01*
X115784285Y-82534285D01*
X115879523Y-82581904D01*
X115974761Y-82677142D01*
X116022380Y-82820000D01*
X116022380Y-83058095D01*
X115022380Y-76168095D02*
X115022380Y-75549047D01*
X115403333Y-75882380D01*
X115403333Y-75739523D01*
X115450952Y-75644285D01*
X115498571Y-75596666D01*
X115593809Y-75549047D01*
X115831904Y-75549047D01*
X115927142Y-75596666D01*
X115974761Y-75644285D01*
X116022380Y-75739523D01*
X116022380Y-76025238D01*
X115974761Y-76120476D01*
X115927142Y-76168095D01*
X115022380Y-75263333D02*
X116022380Y-74930000D01*
X115022380Y-74596666D01*
X115022380Y-74358571D02*
X115022380Y-73739523D01*
X115403333Y-74072857D01*
X115403333Y-73930000D01*
X115450952Y-73834761D01*
X115498571Y-73787142D01*
X115593809Y-73739523D01*
X115831904Y-73739523D01*
X115927142Y-73787142D01*
X115974761Y-73834761D01*
X116022380Y-73930000D01*
X116022380Y-74215714D01*
X115974761Y-74310952D01*
X115927142Y-74358571D01*
D11*
X165815000Y-120307380D02*
X165815000Y-121021666D01*
X165767380Y-121164523D01*
X165672142Y-121259761D01*
X165529285Y-121307380D01*
X165434047Y-121307380D01*
X166434047Y-121307380D02*
X166338809Y-121259761D01*
X166291190Y-121212142D01*
X166243571Y-121116904D01*
X166243571Y-120831190D01*
X166291190Y-120735952D01*
X166338809Y-120688333D01*
X166434047Y-120640714D01*
X166576904Y-120640714D01*
X166672142Y-120688333D01*
X166719761Y-120735952D01*
X166767380Y-120831190D01*
X166767380Y-121116904D01*
X166719761Y-121212142D01*
X166672142Y-121259761D01*
X166576904Y-121307380D01*
X166434047Y-121307380D01*
X167100714Y-120640714D02*
X167338809Y-121307380D01*
X167576904Y-120640714D02*
X167338809Y-121307380D01*
X167243571Y-121545476D01*
X167195952Y-121593095D01*
X167100714Y-121640714D01*
X167910238Y-121259761D02*
X168005476Y-121307380D01*
X168195952Y-121307380D01*
X168291190Y-121259761D01*
X168338809Y-121164523D01*
X168338809Y-121116904D01*
X168291190Y-121021666D01*
X168195952Y-120974047D01*
X168053095Y-120974047D01*
X167957857Y-120926428D01*
X167910238Y-120831190D01*
X167910238Y-120783571D01*
X167957857Y-120688333D01*
X168053095Y-120640714D01*
X168195952Y-120640714D01*
X168291190Y-120688333D01*
X168624523Y-120640714D02*
X169005476Y-120640714D01*
X168767380Y-120307380D02*
X168767380Y-121164523D01*
X168815000Y-121259761D01*
X168910238Y-121307380D01*
X169005476Y-121307380D01*
X169338809Y-121307380D02*
X169338809Y-120640714D01*
X169338809Y-120307380D02*
X169291190Y-120355000D01*
X169338809Y-120402619D01*
X169386428Y-120355000D01*
X169338809Y-120307380D01*
X169338809Y-120402619D01*
X170243571Y-121259761D02*
X170148333Y-121307380D01*
X169957857Y-121307380D01*
X169862619Y-121259761D01*
X169815000Y-121212142D01*
X169767380Y-121116904D01*
X169767380Y-120831190D01*
X169815000Y-120735952D01*
X169862619Y-120688333D01*
X169957857Y-120640714D01*
X170148333Y-120640714D01*
X170243571Y-120688333D01*
X170672142Y-121307380D02*
X170672142Y-120307380D01*
X170767380Y-120926428D02*
X171053095Y-121307380D01*
X171053095Y-120640714D02*
X170672142Y-121021666D01*
X172576904Y-120783571D02*
X172719761Y-120831190D01*
X172767380Y-120878809D01*
X172815000Y-120974047D01*
X172815000Y-121116904D01*
X172767380Y-121212142D01*
X172719761Y-121259761D01*
X172624523Y-121307380D01*
X172243571Y-121307380D01*
X172243571Y-120307380D01*
X172576904Y-120307380D01*
X172672142Y-120355000D01*
X172719761Y-120402619D01*
X172767380Y-120497857D01*
X172767380Y-120593095D01*
X172719761Y-120688333D01*
X172672142Y-120735952D01*
X172576904Y-120783571D01*
X172243571Y-120783571D01*
X173386428Y-121307380D02*
X173291190Y-121259761D01*
X173243571Y-121212142D01*
X173195952Y-121116904D01*
X173195952Y-120831190D01*
X173243571Y-120735952D01*
X173291190Y-120688333D01*
X173386428Y-120640714D01*
X173529285Y-120640714D01*
X173624523Y-120688333D01*
X173672142Y-120735952D01*
X173719761Y-120831190D01*
X173719761Y-121116904D01*
X173672142Y-121212142D01*
X173624523Y-121259761D01*
X173529285Y-121307380D01*
X173386428Y-121307380D01*
X174576904Y-121307380D02*
X174576904Y-120783571D01*
X174529285Y-120688333D01*
X174434047Y-120640714D01*
X174243571Y-120640714D01*
X174148333Y-120688333D01*
X174576904Y-121259761D02*
X174481666Y-121307380D01*
X174243571Y-121307380D01*
X174148333Y-121259761D01*
X174100714Y-121164523D01*
X174100714Y-121069285D01*
X174148333Y-120974047D01*
X174243571Y-120926428D01*
X174481666Y-120926428D01*
X174576904Y-120878809D01*
X175053095Y-121307380D02*
X175053095Y-120640714D01*
X175053095Y-120831190D02*
X175100714Y-120735952D01*
X175148333Y-120688333D01*
X175243571Y-120640714D01*
X175338809Y-120640714D01*
X176100714Y-121307380D02*
X176100714Y-120307380D01*
X176100714Y-121259761D02*
X176005476Y-121307380D01*
X175815000Y-121307380D01*
X175719761Y-121259761D01*
X175672142Y-121212142D01*
X175624523Y-121116904D01*
X175624523Y-120831190D01*
X175672142Y-120735952D01*
X175719761Y-120688333D01*
X175815000Y-120640714D01*
X176005476Y-120640714D01*
X176100714Y-120688333D01*
X164576904Y-122483571D02*
X164719761Y-122531190D01*
X164767380Y-122578809D01*
X164815000Y-122674047D01*
X164815000Y-122816904D01*
X164767380Y-122912142D01*
X164719761Y-122959761D01*
X164624523Y-123007380D01*
X164243571Y-123007380D01*
X164243571Y-122007380D01*
X164576904Y-122007380D01*
X164672142Y-122055000D01*
X164719761Y-122102619D01*
X164767380Y-122197857D01*
X164767380Y-122293095D01*
X164719761Y-122388333D01*
X164672142Y-122435952D01*
X164576904Y-122483571D01*
X164243571Y-122483571D01*
X165148333Y-122340714D02*
X165386428Y-123007380D01*
X165624523Y-122340714D02*
X165386428Y-123007380D01*
X165291190Y-123245476D01*
X165243571Y-123293095D01*
X165148333Y-123340714D01*
X166767380Y-123007380D02*
X166767380Y-122007380D01*
X167005476Y-122007380D01*
X167148333Y-122055000D01*
X167243571Y-122150238D01*
X167291190Y-122245476D01*
X167338809Y-122435952D01*
X167338809Y-122578809D01*
X167291190Y-122769285D01*
X167243571Y-122864523D01*
X167148333Y-122959761D01*
X167005476Y-123007380D01*
X166767380Y-123007380D01*
X167672142Y-122340714D02*
X167862619Y-123007380D01*
X168053095Y-122531190D01*
X168243571Y-123007380D01*
X168434047Y-122340714D01*
X168815000Y-123007380D02*
X168815000Y-122340714D01*
X168815000Y-122007380D02*
X168767380Y-122055000D01*
X168815000Y-122102619D01*
X168862619Y-122055000D01*
X168815000Y-122007380D01*
X168815000Y-122102619D01*
X169291190Y-122340714D02*
X169291190Y-123197857D01*
X169243571Y-123293095D01*
X169148333Y-123340714D01*
X169100714Y-123340714D01*
X169291190Y-122007380D02*
X169243571Y-122055000D01*
X169291190Y-122102619D01*
X169338809Y-122055000D01*
X169291190Y-122007380D01*
X169291190Y-122102619D01*
X170148333Y-122959761D02*
X170053095Y-123007380D01*
X169862619Y-123007380D01*
X169767380Y-122959761D01*
X169719761Y-122864523D01*
X169719761Y-122483571D01*
X169767380Y-122388333D01*
X169862619Y-122340714D01*
X170053095Y-122340714D01*
X170148333Y-122388333D01*
X170195952Y-122483571D01*
X170195952Y-122578809D01*
X169719761Y-122674047D01*
X170624523Y-122340714D02*
X170624523Y-123007380D01*
X170624523Y-122435952D02*
X170672142Y-122388333D01*
X170767380Y-122340714D01*
X170910238Y-122340714D01*
X171005476Y-122388333D01*
X171053095Y-122483571D01*
X171053095Y-123007380D01*
X171957857Y-123007380D02*
X171957857Y-122007380D01*
X171957857Y-122959761D02*
X171862619Y-123007380D01*
X171672142Y-123007380D01*
X171576904Y-122959761D01*
X171529285Y-122912142D01*
X171481666Y-122816904D01*
X171481666Y-122531190D01*
X171529285Y-122435952D01*
X171576904Y-122388333D01*
X171672142Y-122340714D01*
X171862619Y-122340714D01*
X171957857Y-122388333D01*
X172434047Y-123007380D02*
X172434047Y-122340714D01*
X172434047Y-122531190D02*
X172481666Y-122435952D01*
X172529285Y-122388333D01*
X172624523Y-122340714D01*
X172719761Y-122340714D01*
X173481666Y-123007380D02*
X173481666Y-122483571D01*
X173434047Y-122388333D01*
X173338809Y-122340714D01*
X173148333Y-122340714D01*
X173053095Y-122388333D01*
X173481666Y-122959761D02*
X173386428Y-123007380D01*
X173148333Y-123007380D01*
X173053095Y-122959761D01*
X173005476Y-122864523D01*
X173005476Y-122769285D01*
X173053095Y-122674047D01*
X173148333Y-122626428D01*
X173386428Y-122626428D01*
X173481666Y-122578809D01*
X174576904Y-122007380D02*
X174910238Y-123007380D01*
X175243571Y-122007380D01*
X176005476Y-123007380D02*
X176005476Y-122483571D01*
X175957857Y-122388333D01*
X175862619Y-122340714D01*
X175672142Y-122340714D01*
X175576904Y-122388333D01*
X176005476Y-122959761D02*
X175910238Y-123007380D01*
X175672142Y-123007380D01*
X175576904Y-122959761D01*
X175529285Y-122864523D01*
X175529285Y-122769285D01*
X175576904Y-122674047D01*
X175672142Y-122626428D01*
X175910238Y-122626428D01*
X176005476Y-122578809D01*
X176338809Y-122340714D02*
X176719761Y-122340714D01*
X176481666Y-122007380D02*
X176481666Y-122864523D01*
X176529285Y-122959761D01*
X176624523Y-123007380D01*
X176719761Y-123007380D01*
X177005476Y-122959761D02*
X177100714Y-123007380D01*
X177291190Y-123007380D01*
X177386428Y-122959761D01*
X177434047Y-122864523D01*
X177434047Y-122816904D01*
X177386428Y-122721666D01*
X177291190Y-122674047D01*
X177148333Y-122674047D01*
X177053095Y-122626428D01*
X177005476Y-122531190D01*
X177005476Y-122483571D01*
X177053095Y-122388333D01*
X177148333Y-122340714D01*
X177291190Y-122340714D01*
X177386428Y-122388333D01*
X163100714Y-123707380D02*
X163434047Y-124707380D01*
X163767380Y-123707380D01*
X164529285Y-124707380D02*
X164529285Y-124183571D01*
X164481666Y-124088333D01*
X164386428Y-124040714D01*
X164195952Y-124040714D01*
X164100714Y-124088333D01*
X164529285Y-124659761D02*
X164434047Y-124707380D01*
X164195952Y-124707380D01*
X164100714Y-124659761D01*
X164053095Y-124564523D01*
X164053095Y-124469285D01*
X164100714Y-124374047D01*
X164195952Y-124326428D01*
X164434047Y-124326428D01*
X164529285Y-124278809D01*
X164957857Y-124659761D02*
X165053095Y-124707380D01*
X165243571Y-124707380D01*
X165338809Y-124659761D01*
X165386428Y-124564523D01*
X165386428Y-124516904D01*
X165338809Y-124421666D01*
X165243571Y-124374047D01*
X165100714Y-124374047D01*
X165005476Y-124326428D01*
X164957857Y-124231190D01*
X164957857Y-124183571D01*
X165005476Y-124088333D01*
X165100714Y-124040714D01*
X165243571Y-124040714D01*
X165338809Y-124088333D01*
X165815000Y-124707380D02*
X165815000Y-123707380D01*
X166243571Y-124707380D02*
X166243571Y-124183571D01*
X166195952Y-124088333D01*
X166100714Y-124040714D01*
X165957857Y-124040714D01*
X165862619Y-124088333D01*
X165815000Y-124135952D01*
X166719761Y-124707380D02*
X166719761Y-124040714D01*
X166719761Y-123707380D02*
X166672142Y-123755000D01*
X166719761Y-123802619D01*
X166767380Y-123755000D01*
X166719761Y-123707380D01*
X166719761Y-123802619D01*
X167148333Y-124659761D02*
X167243571Y-124707380D01*
X167434047Y-124707380D01*
X167529285Y-124659761D01*
X167576904Y-124564523D01*
X167576904Y-124516904D01*
X167529285Y-124421666D01*
X167434047Y-124374047D01*
X167291190Y-124374047D01*
X167195952Y-124326428D01*
X167148333Y-124231190D01*
X167148333Y-124183571D01*
X167195952Y-124088333D01*
X167291190Y-124040714D01*
X167434047Y-124040714D01*
X167529285Y-124088333D01*
X168005476Y-124707380D02*
X168005476Y-123707380D01*
X168434047Y-124707380D02*
X168434047Y-124183571D01*
X168386428Y-124088333D01*
X168291190Y-124040714D01*
X168148333Y-124040714D01*
X168053095Y-124088333D01*
X168005476Y-124135952D01*
X168767380Y-124040714D02*
X169148333Y-124040714D01*
X168910238Y-123707380D02*
X168910238Y-124564523D01*
X168957857Y-124659761D01*
X169053095Y-124707380D01*
X169148333Y-124707380D01*
X169481666Y-124707380D02*
X169481666Y-123707380D01*
X169910238Y-124707380D02*
X169910238Y-124183571D01*
X169862619Y-124088333D01*
X169767380Y-124040714D01*
X169624523Y-124040714D01*
X169529285Y-124088333D01*
X169481666Y-124135952D01*
X170815000Y-124707380D02*
X170815000Y-124183571D01*
X170767380Y-124088333D01*
X170672142Y-124040714D01*
X170481666Y-124040714D01*
X170386428Y-124088333D01*
X170815000Y-124659761D02*
X170719761Y-124707380D01*
X170481666Y-124707380D01*
X170386428Y-124659761D01*
X170338809Y-124564523D01*
X170338809Y-124469285D01*
X170386428Y-124374047D01*
X170481666Y-124326428D01*
X170719761Y-124326428D01*
X170815000Y-124278809D01*
X172624523Y-124707380D02*
X172291190Y-124231190D01*
X172053095Y-124707380D02*
X172053095Y-123707380D01*
X172434047Y-123707380D01*
X172529285Y-123755000D01*
X172576904Y-123802619D01*
X172624523Y-123897857D01*
X172624523Y-124040714D01*
X172576904Y-124135952D01*
X172529285Y-124183571D01*
X172434047Y-124231190D01*
X172053095Y-124231190D01*
X173434047Y-124659761D02*
X173338809Y-124707380D01*
X173148333Y-124707380D01*
X173053095Y-124659761D01*
X173005476Y-124564523D01*
X173005476Y-124183571D01*
X173053095Y-124088333D01*
X173148333Y-124040714D01*
X173338809Y-124040714D01*
X173434047Y-124088333D01*
X173481666Y-124183571D01*
X173481666Y-124278809D01*
X173005476Y-124374047D01*
X173862619Y-124659761D02*
X173957857Y-124707380D01*
X174148333Y-124707380D01*
X174243571Y-124659761D01*
X174291190Y-124564523D01*
X174291190Y-124516904D01*
X174243571Y-124421666D01*
X174148333Y-124374047D01*
X174005476Y-124374047D01*
X173910238Y-124326428D01*
X173862619Y-124231190D01*
X173862619Y-124183571D01*
X173910238Y-124088333D01*
X174005476Y-124040714D01*
X174148333Y-124040714D01*
X174243571Y-124088333D01*
X175100714Y-124659761D02*
X175005476Y-124707380D01*
X174815000Y-124707380D01*
X174719761Y-124659761D01*
X174672142Y-124564523D01*
X174672142Y-124183571D01*
X174719761Y-124088333D01*
X174815000Y-124040714D01*
X175005476Y-124040714D01*
X175100714Y-124088333D01*
X175148333Y-124183571D01*
X175148333Y-124278809D01*
X174672142Y-124374047D01*
X176005476Y-124707380D02*
X176005476Y-124183571D01*
X175957857Y-124088333D01*
X175862619Y-124040714D01*
X175672142Y-124040714D01*
X175576904Y-124088333D01*
X176005476Y-124659761D02*
X175910238Y-124707380D01*
X175672142Y-124707380D01*
X175576904Y-124659761D01*
X175529285Y-124564523D01*
X175529285Y-124469285D01*
X175576904Y-124374047D01*
X175672142Y-124326428D01*
X175910238Y-124326428D01*
X176005476Y-124278809D01*
X176481666Y-124707380D02*
X176481666Y-124040714D01*
X176481666Y-124231190D02*
X176529285Y-124135952D01*
X176576904Y-124088333D01*
X176672142Y-124040714D01*
X176767380Y-124040714D01*
X177529285Y-124659761D02*
X177434047Y-124707380D01*
X177243571Y-124707380D01*
X177148333Y-124659761D01*
X177100714Y-124612142D01*
X177053095Y-124516904D01*
X177053095Y-124231190D01*
X177100714Y-124135952D01*
X177148333Y-124088333D01*
X177243571Y-124040714D01*
X177434047Y-124040714D01*
X177529285Y-124088333D01*
X177957857Y-124707380D02*
X177957857Y-123707380D01*
X178386428Y-124707380D02*
X178386428Y-124183571D01*
X178338809Y-124088333D01*
X178243571Y-124040714D01*
X178100714Y-124040714D01*
X178005476Y-124088333D01*
X177957857Y-124135952D01*
D12*
%TO.C,J3*%
X114240000Y-81975000D02*
X114240000Y-80645000D01*
X115570000Y-81975000D02*
X114240000Y-81975000D01*
X114240000Y-79375000D02*
X114240000Y-76775000D01*
X116840000Y-79375000D02*
X114240000Y-79375000D01*
X116840000Y-81975000D02*
X116840000Y-79375000D01*
X114240000Y-76775000D02*
X124520000Y-76775000D01*
X116840000Y-81975000D02*
X124520000Y-81975000D01*
X124520000Y-81975000D02*
X124520000Y-76775000D01*
%TO.C,U1*%
X100270000Y-90060000D02*
X100270000Y-91710000D01*
X135950000Y-90060000D02*
X100270000Y-90060000D01*
X135950000Y-95360000D02*
X135950000Y-90060000D01*
X100270000Y-95360000D02*
X135950000Y-95360000D01*
X100270000Y-93710000D02*
X100270000Y-95360000D01*
X100270000Y-91710000D02*
G75*
G02*
X100270000Y-93710000I0J-1000000D01*
G01*
%TO.C,C4*%
X119390279Y-108460000D02*
X119064721Y-108460000D01*
X119390279Y-107440000D02*
X119064721Y-107440000D01*
%TO.C,C5*%
X125105279Y-107440000D02*
X124779721Y-107440000D01*
X125105279Y-108460000D02*
X124779721Y-108460000D01*
%TO.C,Y1*%
X119255000Y-105395000D02*
X125655000Y-105395000D01*
X119255000Y-100345000D02*
X125655000Y-100345000D01*
X119255000Y-105395000D02*
G75*
G02*
X119255000Y-100345000I0J2525000D01*
G01*
X125655000Y-105395000D02*
G75*
G03*
X125655000Y-100345000I0J2525000D01*
G01*
D11*
%TO.C,U2*%
X77235000Y-77455000D02*
G75*
G03*
X77235000Y-77455000I-100000J0D01*
G01*
D13*
X72085000Y-85905000D02*
X75235000Y-85905000D01*
X72085000Y-95705000D02*
X72085000Y-85905000D01*
X75235000Y-95705000D02*
X72085000Y-95705000D01*
X75235000Y-95975000D02*
X75235000Y-95705000D01*
X78335000Y-98705000D02*
X77115000Y-98705000D01*
X78335000Y-101905000D02*
X78335000Y-98705000D01*
X88035000Y-98705000D02*
X88035000Y-101905000D01*
X89265000Y-98705000D02*
X88035000Y-98705000D01*
X91135000Y-94805000D02*
X91135000Y-95925000D01*
X92685000Y-94805000D02*
X91135000Y-94805000D01*
X92685000Y-86705000D02*
X92685000Y-94805000D01*
X91135000Y-86705000D02*
X92685000Y-86705000D01*
X88635000Y-82805000D02*
X89265000Y-82805000D01*
X88635000Y-76505000D02*
X88635000Y-82805000D01*
X77735000Y-76505000D02*
X88635000Y-76505000D01*
X77735000Y-82805000D02*
X77735000Y-76505000D01*
X77115000Y-82805000D02*
X77735000Y-82805000D01*
%TO.C,U3*%
X146965000Y-83440000D02*
X147585000Y-83440000D01*
X147585000Y-83440000D02*
X147585000Y-77140000D01*
X147585000Y-77140000D02*
X158485000Y-77140000D01*
X158485000Y-77140000D02*
X158485000Y-83440000D01*
X158485000Y-83440000D02*
X159115000Y-83440000D01*
X160985000Y-87340000D02*
X162535000Y-87340000D01*
X162535000Y-87340000D02*
X162535000Y-95440000D01*
X162535000Y-95440000D02*
X160985000Y-95440000D01*
X160985000Y-95440000D02*
X160985000Y-96560000D01*
X159115000Y-99340000D02*
X157885000Y-99340000D01*
X157885000Y-99340000D02*
X157885000Y-102540000D01*
X148185000Y-102540000D02*
X148185000Y-99340000D01*
X148185000Y-99340000D02*
X146965000Y-99340000D01*
X145085000Y-96610000D02*
X145085000Y-96340000D01*
X145085000Y-96340000D02*
X141935000Y-96340000D01*
X141935000Y-96340000D02*
X141935000Y-86540000D01*
X141935000Y-86540000D02*
X145085000Y-86540000D01*
D11*
X147085000Y-78090000D02*
G75*
G03*
X147085000Y-78090000I-100000J0D01*
G01*
D12*
%TO.C,C6*%
X81988922Y-105970000D02*
X82506078Y-105970000D01*
X81988922Y-107390000D02*
X82506078Y-107390000D01*
%TO.C,C7*%
X158706078Y-105970000D02*
X158188922Y-105970000D01*
X158706078Y-107390000D02*
X158188922Y-107390000D01*
%TO.C,C8*%
X82234721Y-109730000D02*
X82560279Y-109730000D01*
X82234721Y-108710000D02*
X82560279Y-108710000D01*
%TO.C,C9*%
X158430279Y-108710000D02*
X158104721Y-108710000D01*
X158430279Y-109730000D02*
X158104721Y-109730000D01*
%TO.C,C10*%
X81988922Y-113105000D02*
X82506078Y-113105000D01*
X81988922Y-111685000D02*
X82506078Y-111685000D01*
%TO.C,C11*%
X158706078Y-113105000D02*
X158188922Y-113105000D01*
X158706078Y-111685000D02*
X158188922Y-111685000D01*
%TO.C,C12*%
X82234721Y-114425000D02*
X82560279Y-114425000D01*
X82234721Y-115445000D02*
X82560279Y-115445000D01*
%TO.C,C13*%
X158430279Y-115445000D02*
X158104721Y-115445000D01*
X158430279Y-114425000D02*
X158104721Y-114425000D01*
%TO.C,D1*%
X70305000Y-116005000D02*
X70305000Y-118945000D01*
X70305000Y-118945000D02*
X75745000Y-118945000D01*
X75745000Y-118945000D02*
X75745000Y-116005000D01*
X75745000Y-116005000D02*
X70305000Y-116005000D01*
X69285000Y-117475000D02*
X70305000Y-117475000D01*
X76765000Y-117475000D02*
X75745000Y-117475000D01*
X71205000Y-116005000D02*
X71205000Y-118945000D01*
X71325000Y-116005000D02*
X71325000Y-118945000D01*
X71085000Y-116005000D02*
X71085000Y-118945000D01*
%TO.C,J1*%
X76835000Y-121860000D02*
X76835000Y-124520000D01*
X76835000Y-121860000D02*
X74235000Y-121860000D01*
X74235000Y-121860000D02*
X74235000Y-124520000D01*
X76835000Y-124520000D02*
X74235000Y-124520000D01*
X79435000Y-124520000D02*
X78105000Y-124520000D01*
X79435000Y-123190000D02*
X79435000Y-124520000D01*
%TO.C,U4*%
X77735000Y-113900000D02*
X71725000Y-113900000D01*
X75485000Y-107080000D02*
X71725000Y-107080000D01*
X71725000Y-113900000D02*
X71725000Y-112640000D01*
X71725000Y-107080000D02*
X71725000Y-108340000D01*
%TO.C,U5*%
X168940000Y-113265000D02*
X168940000Y-112005000D01*
X168940000Y-106445000D02*
X168940000Y-107705000D01*
X165180000Y-113265000D02*
X168940000Y-113265000D01*
X162930000Y-106445000D02*
X168940000Y-106445000D01*
%TO.C,R2*%
X152623922Y-74855000D02*
X153141078Y-74855000D01*
X152623922Y-76275000D02*
X153141078Y-76275000D01*
%TO.C,R3*%
X82926422Y-75640000D02*
X83443578Y-75640000D01*
X82926422Y-74220000D02*
X83443578Y-74220000D01*
%TO.C,R4*%
X105151422Y-73735000D02*
X105668578Y-73735000D01*
X105151422Y-72315000D02*
X105668578Y-72315000D01*
%TO.C,R5*%
X133726422Y-72315000D02*
X134243578Y-72315000D01*
X133726422Y-73735000D02*
X134243578Y-73735000D01*
%TO.C,R6*%
X105151422Y-110415000D02*
X105668578Y-110415000D01*
X105151422Y-111835000D02*
X105668578Y-111835000D01*
%TO.C,R7*%
X134996422Y-111835000D02*
X135513578Y-111835000D01*
X134996422Y-110415000D02*
X135513578Y-110415000D01*
%TO.C,SW1*%
X101330000Y-82335000D02*
X105830000Y-82335000D01*
X100080000Y-78335000D02*
X100080000Y-79835000D01*
X105830000Y-75835000D02*
X101330000Y-75835000D01*
X107080000Y-79835000D02*
X107080000Y-78335000D01*
%TO.C,SW2*%
X107080000Y-105870000D02*
X107080000Y-104370000D01*
X105830000Y-101870000D02*
X101330000Y-101870000D01*
X100080000Y-104370000D02*
X100080000Y-105870000D01*
X101330000Y-108370000D02*
X105830000Y-108370000D01*
%TO.C,SW3*%
X132445000Y-82335000D02*
X136945000Y-82335000D01*
X131195000Y-78335000D02*
X131195000Y-79835000D01*
X136945000Y-75835000D02*
X132445000Y-75835000D01*
X138195000Y-79835000D02*
X138195000Y-78335000D01*
%TO.C,SW4*%
X138830000Y-105870000D02*
X138830000Y-104370000D01*
X137580000Y-101870000D02*
X133080000Y-101870000D01*
X131830000Y-104370000D02*
X131830000Y-105870000D01*
X133080000Y-108370000D02*
X137580000Y-108370000D01*
%TO.C,J2*%
X81915000Y-69910000D02*
X81915000Y-67250000D01*
X81915000Y-69910000D02*
X87055000Y-69910000D01*
X87055000Y-69910000D02*
X87055000Y-67250000D01*
X81915000Y-67250000D02*
X87055000Y-67250000D01*
X79315000Y-67250000D02*
X80645000Y-67250000D01*
X79315000Y-68580000D02*
X79315000Y-67250000D01*
%TO.C,D2*%
X81832500Y-120975000D02*
X84517500Y-120975000D01*
X81832500Y-119055000D02*
X81832500Y-120975000D01*
X84517500Y-119055000D02*
X81832500Y-119055000D01*
%TO.C,D3*%
X159447500Y-117150000D02*
X156762500Y-117150000D01*
X156762500Y-117150000D02*
X156762500Y-119070000D01*
X156762500Y-119070000D02*
X159447500Y-119070000D01*
%TO.C,R8*%
X83258922Y-116765000D02*
X83776078Y-116765000D01*
X83258922Y-118185000D02*
X83776078Y-118185000D01*
%TO.C,R9*%
X158188922Y-121360000D02*
X158706078Y-121360000D01*
X158188922Y-119940000D02*
X158706078Y-119940000D01*
%TO.C,J3*%
D10*
X112692380Y-79708333D02*
X113406666Y-79708333D01*
X113549523Y-79755952D01*
X113644761Y-79851190D01*
X113692380Y-79994047D01*
X113692380Y-80089285D01*
X112692380Y-79327380D02*
X112692380Y-78708333D01*
X113073333Y-79041666D01*
X113073333Y-78898809D01*
X113120952Y-78803571D01*
X113168571Y-78755952D01*
X113263809Y-78708333D01*
X113501904Y-78708333D01*
X113597142Y-78755952D01*
X113644761Y-78803571D01*
X113692380Y-78898809D01*
X113692380Y-79184523D01*
X113644761Y-79279761D01*
X113597142Y-79327380D01*
%TO.C,U1*%
X98722380Y-93471904D02*
X99531904Y-93471904D01*
X99627142Y-93424285D01*
X99674761Y-93376666D01*
X99722380Y-93281428D01*
X99722380Y-93090952D01*
X99674761Y-92995714D01*
X99627142Y-92948095D01*
X99531904Y-92900476D01*
X98722380Y-92900476D01*
X99722380Y-91900476D02*
X99722380Y-92471904D01*
X99722380Y-92186190D02*
X98722380Y-92186190D01*
X98865238Y-92281428D01*
X98960476Y-92376666D01*
X99008095Y-92471904D01*
%TO.C,C4*%
X119848333Y-109737142D02*
X119800714Y-109784761D01*
X119657857Y-109832380D01*
X119562619Y-109832380D01*
X119419761Y-109784761D01*
X119324523Y-109689523D01*
X119276904Y-109594285D01*
X119229285Y-109403809D01*
X119229285Y-109260952D01*
X119276904Y-109070476D01*
X119324523Y-108975238D01*
X119419761Y-108880000D01*
X119562619Y-108832380D01*
X119657857Y-108832380D01*
X119800714Y-108880000D01*
X119848333Y-108927619D01*
X120705476Y-109165714D02*
X120705476Y-109832380D01*
X120467380Y-108784761D02*
X120229285Y-109499047D01*
X120848333Y-109499047D01*
%TO.C,C5*%
X124775833Y-109737142D02*
X124728214Y-109784761D01*
X124585357Y-109832380D01*
X124490119Y-109832380D01*
X124347261Y-109784761D01*
X124252023Y-109689523D01*
X124204404Y-109594285D01*
X124156785Y-109403809D01*
X124156785Y-109260952D01*
X124204404Y-109070476D01*
X124252023Y-108975238D01*
X124347261Y-108880000D01*
X124490119Y-108832380D01*
X124585357Y-108832380D01*
X124728214Y-108880000D01*
X124775833Y-108927619D01*
X125680595Y-108832380D02*
X125204404Y-108832380D01*
X125156785Y-109308571D01*
X125204404Y-109260952D01*
X125299642Y-109213333D01*
X125537738Y-109213333D01*
X125632976Y-109260952D01*
X125680595Y-109308571D01*
X125728214Y-109403809D01*
X125728214Y-109641904D01*
X125680595Y-109737142D01*
X125632976Y-109784761D01*
X125537738Y-109832380D01*
X125299642Y-109832380D01*
X125204404Y-109784761D01*
X125156785Y-109737142D01*
%TO.C,Y1*%
X122078809Y-102846190D02*
X122078809Y-103322380D01*
X121745476Y-102322380D02*
X122078809Y-102846190D01*
X122412142Y-102322380D01*
X123269285Y-103322380D02*
X122697857Y-103322380D01*
X122983571Y-103322380D02*
X122983571Y-102322380D01*
X122888333Y-102465238D01*
X122793095Y-102560476D01*
X122697857Y-102608095D01*
%TO.C,U2*%
D14*
X81788095Y-90892380D02*
X81788095Y-91701904D01*
X81835714Y-91797142D01*
X81883333Y-91844761D01*
X81978571Y-91892380D01*
X82169047Y-91892380D01*
X82264285Y-91844761D01*
X82311904Y-91797142D01*
X82359523Y-91701904D01*
X82359523Y-90892380D01*
X82788095Y-90987619D02*
X82835714Y-90940000D01*
X82930952Y-90892380D01*
X83169047Y-90892380D01*
X83264285Y-90940000D01*
X83311904Y-90987619D01*
X83359523Y-91082857D01*
X83359523Y-91178095D01*
X83311904Y-91320952D01*
X82740476Y-91892380D01*
X83359523Y-91892380D01*
%TO.C,U3*%
X152273095Y-92162380D02*
X152273095Y-92971904D01*
X152320714Y-93067142D01*
X152368333Y-93114761D01*
X152463571Y-93162380D01*
X152654047Y-93162380D01*
X152749285Y-93114761D01*
X152796904Y-93067142D01*
X152844523Y-92971904D01*
X152844523Y-92162380D01*
X153225476Y-92162380D02*
X153844523Y-92162380D01*
X153511190Y-92543333D01*
X153654047Y-92543333D01*
X153749285Y-92590952D01*
X153796904Y-92638571D01*
X153844523Y-92733809D01*
X153844523Y-92971904D01*
X153796904Y-93067142D01*
X153749285Y-93114761D01*
X153654047Y-93162380D01*
X153368333Y-93162380D01*
X153273095Y-93114761D01*
X153225476Y-93067142D01*
%TO.C,C6*%
D10*
X84923333Y-107037142D02*
X84875714Y-107084761D01*
X84732857Y-107132380D01*
X84637619Y-107132380D01*
X84494761Y-107084761D01*
X84399523Y-106989523D01*
X84351904Y-106894285D01*
X84304285Y-106703809D01*
X84304285Y-106560952D01*
X84351904Y-106370476D01*
X84399523Y-106275238D01*
X84494761Y-106180000D01*
X84637619Y-106132380D01*
X84732857Y-106132380D01*
X84875714Y-106180000D01*
X84923333Y-106227619D01*
X85780476Y-106132380D02*
X85590000Y-106132380D01*
X85494761Y-106180000D01*
X85447142Y-106227619D01*
X85351904Y-106370476D01*
X85304285Y-106560952D01*
X85304285Y-106941904D01*
X85351904Y-107037142D01*
X85399523Y-107084761D01*
X85494761Y-107132380D01*
X85685238Y-107132380D01*
X85780476Y-107084761D01*
X85828095Y-107037142D01*
X85875714Y-106941904D01*
X85875714Y-106703809D01*
X85828095Y-106608571D01*
X85780476Y-106560952D01*
X85685238Y-106513333D01*
X85494761Y-106513333D01*
X85399523Y-106560952D01*
X85351904Y-106608571D01*
X85304285Y-106703809D01*
%TO.C,C7*%
X155408333Y-107672142D02*
X155360714Y-107719761D01*
X155217857Y-107767380D01*
X155122619Y-107767380D01*
X154979761Y-107719761D01*
X154884523Y-107624523D01*
X154836904Y-107529285D01*
X154789285Y-107338809D01*
X154789285Y-107195952D01*
X154836904Y-107005476D01*
X154884523Y-106910238D01*
X154979761Y-106815000D01*
X155122619Y-106767380D01*
X155217857Y-106767380D01*
X155360714Y-106815000D01*
X155408333Y-106862619D01*
X155741666Y-106767380D02*
X156408333Y-106767380D01*
X155979761Y-107767380D01*
%TO.C,C8*%
X84923333Y-109577142D02*
X84875714Y-109624761D01*
X84732857Y-109672380D01*
X84637619Y-109672380D01*
X84494761Y-109624761D01*
X84399523Y-109529523D01*
X84351904Y-109434285D01*
X84304285Y-109243809D01*
X84304285Y-109100952D01*
X84351904Y-108910476D01*
X84399523Y-108815238D01*
X84494761Y-108720000D01*
X84637619Y-108672380D01*
X84732857Y-108672380D01*
X84875714Y-108720000D01*
X84923333Y-108767619D01*
X85494761Y-109100952D02*
X85399523Y-109053333D01*
X85351904Y-109005714D01*
X85304285Y-108910476D01*
X85304285Y-108862857D01*
X85351904Y-108767619D01*
X85399523Y-108720000D01*
X85494761Y-108672380D01*
X85685238Y-108672380D01*
X85780476Y-108720000D01*
X85828095Y-108767619D01*
X85875714Y-108862857D01*
X85875714Y-108910476D01*
X85828095Y-109005714D01*
X85780476Y-109053333D01*
X85685238Y-109100952D01*
X85494761Y-109100952D01*
X85399523Y-109148571D01*
X85351904Y-109196190D01*
X85304285Y-109291428D01*
X85304285Y-109481904D01*
X85351904Y-109577142D01*
X85399523Y-109624761D01*
X85494761Y-109672380D01*
X85685238Y-109672380D01*
X85780476Y-109624761D01*
X85828095Y-109577142D01*
X85875714Y-109481904D01*
X85875714Y-109291428D01*
X85828095Y-109196190D01*
X85780476Y-109148571D01*
X85685238Y-109100952D01*
%TO.C,C9*%
X155408333Y-109577142D02*
X155360714Y-109624761D01*
X155217857Y-109672380D01*
X155122619Y-109672380D01*
X154979761Y-109624761D01*
X154884523Y-109529523D01*
X154836904Y-109434285D01*
X154789285Y-109243809D01*
X154789285Y-109100952D01*
X154836904Y-108910476D01*
X154884523Y-108815238D01*
X154979761Y-108720000D01*
X155122619Y-108672380D01*
X155217857Y-108672380D01*
X155360714Y-108720000D01*
X155408333Y-108767619D01*
X155884523Y-109672380D02*
X156075000Y-109672380D01*
X156170238Y-109624761D01*
X156217857Y-109577142D01*
X156313095Y-109434285D01*
X156360714Y-109243809D01*
X156360714Y-108862857D01*
X156313095Y-108767619D01*
X156265476Y-108720000D01*
X156170238Y-108672380D01*
X155979761Y-108672380D01*
X155884523Y-108720000D01*
X155836904Y-108767619D01*
X155789285Y-108862857D01*
X155789285Y-109100952D01*
X155836904Y-109196190D01*
X155884523Y-109243809D01*
X155979761Y-109291428D01*
X156170238Y-109291428D01*
X156265476Y-109243809D01*
X156313095Y-109196190D01*
X156360714Y-109100952D01*
%TO.C,C10*%
X85082142Y-112752142D02*
X85034523Y-112799761D01*
X84891666Y-112847380D01*
X84796428Y-112847380D01*
X84653571Y-112799761D01*
X84558333Y-112704523D01*
X84510714Y-112609285D01*
X84463095Y-112418809D01*
X84463095Y-112275952D01*
X84510714Y-112085476D01*
X84558333Y-111990238D01*
X84653571Y-111895000D01*
X84796428Y-111847380D01*
X84891666Y-111847380D01*
X85034523Y-111895000D01*
X85082142Y-111942619D01*
X86034523Y-112847380D02*
X85463095Y-112847380D01*
X85748809Y-112847380D02*
X85748809Y-111847380D01*
X85653571Y-111990238D01*
X85558333Y-112085476D01*
X85463095Y-112133095D01*
X86653571Y-111847380D02*
X86748809Y-111847380D01*
X86844047Y-111895000D01*
X86891666Y-111942619D01*
X86939285Y-112037857D01*
X86986904Y-112228333D01*
X86986904Y-112466428D01*
X86939285Y-112656904D01*
X86891666Y-112752142D01*
X86844047Y-112799761D01*
X86748809Y-112847380D01*
X86653571Y-112847380D01*
X86558333Y-112799761D01*
X86510714Y-112752142D01*
X86463095Y-112656904D01*
X86415476Y-112466428D01*
X86415476Y-112228333D01*
X86463095Y-112037857D01*
X86510714Y-111942619D01*
X86558333Y-111895000D01*
X86653571Y-111847380D01*
%TO.C,C11*%
X154932142Y-112752142D02*
X154884523Y-112799761D01*
X154741666Y-112847380D01*
X154646428Y-112847380D01*
X154503571Y-112799761D01*
X154408333Y-112704523D01*
X154360714Y-112609285D01*
X154313095Y-112418809D01*
X154313095Y-112275952D01*
X154360714Y-112085476D01*
X154408333Y-111990238D01*
X154503571Y-111895000D01*
X154646428Y-111847380D01*
X154741666Y-111847380D01*
X154884523Y-111895000D01*
X154932142Y-111942619D01*
X155884523Y-112847380D02*
X155313095Y-112847380D01*
X155598809Y-112847380D02*
X155598809Y-111847380D01*
X155503571Y-111990238D01*
X155408333Y-112085476D01*
X155313095Y-112133095D01*
X156836904Y-112847380D02*
X156265476Y-112847380D01*
X156551190Y-112847380D02*
X156551190Y-111847380D01*
X156455952Y-111990238D01*
X156360714Y-112085476D01*
X156265476Y-112133095D01*
%TO.C,C12*%
X84929642Y-115292142D02*
X84882023Y-115339761D01*
X84739166Y-115387380D01*
X84643928Y-115387380D01*
X84501071Y-115339761D01*
X84405833Y-115244523D01*
X84358214Y-115149285D01*
X84310595Y-114958809D01*
X84310595Y-114815952D01*
X84358214Y-114625476D01*
X84405833Y-114530238D01*
X84501071Y-114435000D01*
X84643928Y-114387380D01*
X84739166Y-114387380D01*
X84882023Y-114435000D01*
X84929642Y-114482619D01*
X85882023Y-115387380D02*
X85310595Y-115387380D01*
X85596309Y-115387380D02*
X85596309Y-114387380D01*
X85501071Y-114530238D01*
X85405833Y-114625476D01*
X85310595Y-114673095D01*
X86262976Y-114482619D02*
X86310595Y-114435000D01*
X86405833Y-114387380D01*
X86643928Y-114387380D01*
X86739166Y-114435000D01*
X86786785Y-114482619D01*
X86834404Y-114577857D01*
X86834404Y-114673095D01*
X86786785Y-114815952D01*
X86215357Y-115387380D01*
X86834404Y-115387380D01*
%TO.C,C13*%
X154932142Y-115292142D02*
X154884523Y-115339761D01*
X154741666Y-115387380D01*
X154646428Y-115387380D01*
X154503571Y-115339761D01*
X154408333Y-115244523D01*
X154360714Y-115149285D01*
X154313095Y-114958809D01*
X154313095Y-114815952D01*
X154360714Y-114625476D01*
X154408333Y-114530238D01*
X154503571Y-114435000D01*
X154646428Y-114387380D01*
X154741666Y-114387380D01*
X154884523Y-114435000D01*
X154932142Y-114482619D01*
X155884523Y-115387380D02*
X155313095Y-115387380D01*
X155598809Y-115387380D02*
X155598809Y-114387380D01*
X155503571Y-114530238D01*
X155408333Y-114625476D01*
X155313095Y-114673095D01*
X156217857Y-114387380D02*
X156836904Y-114387380D01*
X156503571Y-114768333D01*
X156646428Y-114768333D01*
X156741666Y-114815952D01*
X156789285Y-114863571D01*
X156836904Y-114958809D01*
X156836904Y-115196904D01*
X156789285Y-115292142D01*
X156741666Y-115339761D01*
X156646428Y-115387380D01*
X156360714Y-115387380D01*
X156265476Y-115339761D01*
X156217857Y-115292142D01*
%TO.C,D1*%
X72286904Y-117927380D02*
X72286904Y-116927380D01*
X72525000Y-116927380D01*
X72667857Y-116975000D01*
X72763095Y-117070238D01*
X72810714Y-117165476D01*
X72858333Y-117355952D01*
X72858333Y-117498809D01*
X72810714Y-117689285D01*
X72763095Y-117784523D01*
X72667857Y-117879761D01*
X72525000Y-117927380D01*
X72286904Y-117927380D01*
X73810714Y-117927380D02*
X73239285Y-117927380D01*
X73525000Y-117927380D02*
X73525000Y-116927380D01*
X73429761Y-117070238D01*
X73334523Y-117165476D01*
X73239285Y-117213095D01*
X67683095Y-115827380D02*
X67683095Y-114827380D01*
X68254523Y-115827380D02*
X67825952Y-115255952D01*
X68254523Y-114827380D02*
X67683095Y-115398809D01*
%TO.C,J1*%
X80327380Y-123523333D02*
X81041666Y-123523333D01*
X81184523Y-123570952D01*
X81279761Y-123666190D01*
X81327380Y-123809047D01*
X81327380Y-123904285D01*
X81327380Y-122523333D02*
X81327380Y-123094761D01*
X81327380Y-122809047D02*
X80327380Y-122809047D01*
X80470238Y-122904285D01*
X80565476Y-122999523D01*
X80613095Y-123094761D01*
%TO.C,U4*%
X72898095Y-109307380D02*
X72898095Y-110116904D01*
X72945714Y-110212142D01*
X72993333Y-110259761D01*
X73088571Y-110307380D01*
X73279047Y-110307380D01*
X73374285Y-110259761D01*
X73421904Y-110212142D01*
X73469523Y-110116904D01*
X73469523Y-109307380D01*
X74374285Y-109640714D02*
X74374285Y-110307380D01*
X74136190Y-109259761D02*
X73898095Y-109974047D01*
X74517142Y-109974047D01*
%TO.C,U5*%
X166268095Y-104807380D02*
X166268095Y-105616904D01*
X166315714Y-105712142D01*
X166363333Y-105759761D01*
X166458571Y-105807380D01*
X166649047Y-105807380D01*
X166744285Y-105759761D01*
X166791904Y-105712142D01*
X166839523Y-105616904D01*
X166839523Y-104807380D01*
X167791904Y-104807380D02*
X167315714Y-104807380D01*
X167268095Y-105283571D01*
X167315714Y-105235952D01*
X167410952Y-105188333D01*
X167649047Y-105188333D01*
X167744285Y-105235952D01*
X167791904Y-105283571D01*
X167839523Y-105378809D01*
X167839523Y-105616904D01*
X167791904Y-105712142D01*
X167744285Y-105759761D01*
X167649047Y-105807380D01*
X167410952Y-105807380D01*
X167315714Y-105759761D01*
X167268095Y-105712142D01*
%TO.C,R2*%
X152715833Y-74367380D02*
X152382500Y-73891190D01*
X152144404Y-74367380D02*
X152144404Y-73367380D01*
X152525357Y-73367380D01*
X152620595Y-73415000D01*
X152668214Y-73462619D01*
X152715833Y-73557857D01*
X152715833Y-73700714D01*
X152668214Y-73795952D01*
X152620595Y-73843571D01*
X152525357Y-73891190D01*
X152144404Y-73891190D01*
X153096785Y-73462619D02*
X153144404Y-73415000D01*
X153239642Y-73367380D01*
X153477738Y-73367380D01*
X153572976Y-73415000D01*
X153620595Y-73462619D01*
X153668214Y-73557857D01*
X153668214Y-73653095D01*
X153620595Y-73795952D01*
X153049166Y-74367380D01*
X153668214Y-74367380D01*
%TO.C,R3*%
X83018333Y-73732380D02*
X82685000Y-73256190D01*
X82446904Y-73732380D02*
X82446904Y-72732380D01*
X82827857Y-72732380D01*
X82923095Y-72780000D01*
X82970714Y-72827619D01*
X83018333Y-72922857D01*
X83018333Y-73065714D01*
X82970714Y-73160952D01*
X82923095Y-73208571D01*
X82827857Y-73256190D01*
X82446904Y-73256190D01*
X83351666Y-72732380D02*
X83970714Y-72732380D01*
X83637380Y-73113333D01*
X83780238Y-73113333D01*
X83875476Y-73160952D01*
X83923095Y-73208571D01*
X83970714Y-73303809D01*
X83970714Y-73541904D01*
X83923095Y-73637142D01*
X83875476Y-73684761D01*
X83780238Y-73732380D01*
X83494523Y-73732380D01*
X83399285Y-73684761D01*
X83351666Y-73637142D01*
%TO.C,R4*%
X105243333Y-71572380D02*
X104910000Y-71096190D01*
X104671904Y-71572380D02*
X104671904Y-70572380D01*
X105052857Y-70572380D01*
X105148095Y-70620000D01*
X105195714Y-70667619D01*
X105243333Y-70762857D01*
X105243333Y-70905714D01*
X105195714Y-71000952D01*
X105148095Y-71048571D01*
X105052857Y-71096190D01*
X104671904Y-71096190D01*
X106100476Y-70905714D02*
X106100476Y-71572380D01*
X105862380Y-70524761D02*
X105624285Y-71239047D01*
X106243333Y-71239047D01*
%TO.C,R5*%
X133818333Y-71572380D02*
X133485000Y-71096190D01*
X133246904Y-71572380D02*
X133246904Y-70572380D01*
X133627857Y-70572380D01*
X133723095Y-70620000D01*
X133770714Y-70667619D01*
X133818333Y-70762857D01*
X133818333Y-70905714D01*
X133770714Y-71000952D01*
X133723095Y-71048571D01*
X133627857Y-71096190D01*
X133246904Y-71096190D01*
X134723095Y-70572380D02*
X134246904Y-70572380D01*
X134199285Y-71048571D01*
X134246904Y-71000952D01*
X134342142Y-70953333D01*
X134580238Y-70953333D01*
X134675476Y-71000952D01*
X134723095Y-71048571D01*
X134770714Y-71143809D01*
X134770714Y-71381904D01*
X134723095Y-71477142D01*
X134675476Y-71524761D01*
X134580238Y-71572380D01*
X134342142Y-71572380D01*
X134246904Y-71524761D01*
X134199285Y-71477142D01*
%TO.C,R6*%
X108720833Y-111577380D02*
X108387500Y-111101190D01*
X108149404Y-111577380D02*
X108149404Y-110577380D01*
X108530357Y-110577380D01*
X108625595Y-110625000D01*
X108673214Y-110672619D01*
X108720833Y-110767857D01*
X108720833Y-110910714D01*
X108673214Y-111005952D01*
X108625595Y-111053571D01*
X108530357Y-111101190D01*
X108149404Y-111101190D01*
X109577976Y-110577380D02*
X109387500Y-110577380D01*
X109292261Y-110625000D01*
X109244642Y-110672619D01*
X109149404Y-110815476D01*
X109101785Y-111005952D01*
X109101785Y-111386904D01*
X109149404Y-111482142D01*
X109197023Y-111529761D01*
X109292261Y-111577380D01*
X109482738Y-111577380D01*
X109577976Y-111529761D01*
X109625595Y-111482142D01*
X109673214Y-111386904D01*
X109673214Y-111148809D01*
X109625595Y-111053571D01*
X109577976Y-111005952D01*
X109482738Y-110958333D01*
X109292261Y-110958333D01*
X109197023Y-111005952D01*
X109149404Y-111053571D01*
X109101785Y-111148809D01*
%TO.C,R7*%
X138565833Y-111577380D02*
X138232500Y-111101190D01*
X137994404Y-111577380D02*
X137994404Y-110577380D01*
X138375357Y-110577380D01*
X138470595Y-110625000D01*
X138518214Y-110672619D01*
X138565833Y-110767857D01*
X138565833Y-110910714D01*
X138518214Y-111005952D01*
X138470595Y-111053571D01*
X138375357Y-111101190D01*
X137994404Y-111101190D01*
X138899166Y-110577380D02*
X139565833Y-110577380D01*
X139137261Y-111577380D01*
%TO.C,SW1*%
X101536666Y-79779761D02*
X101679523Y-79827380D01*
X101917619Y-79827380D01*
X102012857Y-79779761D01*
X102060476Y-79732142D01*
X102108095Y-79636904D01*
X102108095Y-79541666D01*
X102060476Y-79446428D01*
X102012857Y-79398809D01*
X101917619Y-79351190D01*
X101727142Y-79303571D01*
X101631904Y-79255952D01*
X101584285Y-79208333D01*
X101536666Y-79113095D01*
X101536666Y-79017857D01*
X101584285Y-78922619D01*
X101631904Y-78875000D01*
X101727142Y-78827380D01*
X101965238Y-78827380D01*
X102108095Y-78875000D01*
X102441428Y-78827380D02*
X102679523Y-79827380D01*
X102870000Y-79113095D01*
X103060476Y-79827380D01*
X103298571Y-78827380D01*
X104203333Y-79827380D02*
X103631904Y-79827380D01*
X103917619Y-79827380D02*
X103917619Y-78827380D01*
X103822380Y-78970238D01*
X103727142Y-79065476D01*
X103631904Y-79113095D01*
%TO.C,SW2*%
X102171666Y-105814761D02*
X102314523Y-105862380D01*
X102552619Y-105862380D01*
X102647857Y-105814761D01*
X102695476Y-105767142D01*
X102743095Y-105671904D01*
X102743095Y-105576666D01*
X102695476Y-105481428D01*
X102647857Y-105433809D01*
X102552619Y-105386190D01*
X102362142Y-105338571D01*
X102266904Y-105290952D01*
X102219285Y-105243333D01*
X102171666Y-105148095D01*
X102171666Y-105052857D01*
X102219285Y-104957619D01*
X102266904Y-104910000D01*
X102362142Y-104862380D01*
X102600238Y-104862380D01*
X102743095Y-104910000D01*
X103076428Y-104862380D02*
X103314523Y-105862380D01*
X103505000Y-105148095D01*
X103695476Y-105862380D01*
X103933571Y-104862380D01*
X104266904Y-104957619D02*
X104314523Y-104910000D01*
X104409761Y-104862380D01*
X104647857Y-104862380D01*
X104743095Y-104910000D01*
X104790714Y-104957619D01*
X104838333Y-105052857D01*
X104838333Y-105148095D01*
X104790714Y-105290952D01*
X104219285Y-105862380D01*
X104838333Y-105862380D01*
%TO.C,SW3*%
X133286666Y-79144761D02*
X133429523Y-79192380D01*
X133667619Y-79192380D01*
X133762857Y-79144761D01*
X133810476Y-79097142D01*
X133858095Y-79001904D01*
X133858095Y-78906666D01*
X133810476Y-78811428D01*
X133762857Y-78763809D01*
X133667619Y-78716190D01*
X133477142Y-78668571D01*
X133381904Y-78620952D01*
X133334285Y-78573333D01*
X133286666Y-78478095D01*
X133286666Y-78382857D01*
X133334285Y-78287619D01*
X133381904Y-78240000D01*
X133477142Y-78192380D01*
X133715238Y-78192380D01*
X133858095Y-78240000D01*
X134191428Y-78192380D02*
X134429523Y-79192380D01*
X134620000Y-78478095D01*
X134810476Y-79192380D01*
X135048571Y-78192380D01*
X135334285Y-78192380D02*
X135953333Y-78192380D01*
X135620000Y-78573333D01*
X135762857Y-78573333D01*
X135858095Y-78620952D01*
X135905714Y-78668571D01*
X135953333Y-78763809D01*
X135953333Y-79001904D01*
X135905714Y-79097142D01*
X135858095Y-79144761D01*
X135762857Y-79192380D01*
X135477142Y-79192380D01*
X135381904Y-79144761D01*
X135334285Y-79097142D01*
%TO.C,SW4*%
X133921666Y-105814761D02*
X134064523Y-105862380D01*
X134302619Y-105862380D01*
X134397857Y-105814761D01*
X134445476Y-105767142D01*
X134493095Y-105671904D01*
X134493095Y-105576666D01*
X134445476Y-105481428D01*
X134397857Y-105433809D01*
X134302619Y-105386190D01*
X134112142Y-105338571D01*
X134016904Y-105290952D01*
X133969285Y-105243333D01*
X133921666Y-105148095D01*
X133921666Y-105052857D01*
X133969285Y-104957619D01*
X134016904Y-104910000D01*
X134112142Y-104862380D01*
X134350238Y-104862380D01*
X134493095Y-104910000D01*
X134826428Y-104862380D02*
X135064523Y-105862380D01*
X135255000Y-105148095D01*
X135445476Y-105862380D01*
X135683571Y-104862380D01*
X136493095Y-105195714D02*
X136493095Y-105862380D01*
X136255000Y-104814761D02*
X136016904Y-105529047D01*
X136635952Y-105529047D01*
%TO.C,J2*%
X77327380Y-68913333D02*
X78041666Y-68913333D01*
X78184523Y-68960952D01*
X78279761Y-69056190D01*
X78327380Y-69199047D01*
X78327380Y-69294285D01*
X77422619Y-68484761D02*
X77375000Y-68437142D01*
X77327380Y-68341904D01*
X77327380Y-68103809D01*
X77375000Y-68008571D01*
X77422619Y-67960952D01*
X77517857Y-67913333D01*
X77613095Y-67913333D01*
X77755952Y-67960952D01*
X78327380Y-68532380D01*
X78327380Y-67913333D01*
%TO.C,H1*%
X83693095Y-57577380D02*
X83693095Y-56577380D01*
X83693095Y-57053571D02*
X84264523Y-57053571D01*
X84264523Y-57577380D02*
X84264523Y-56577380D01*
X85264523Y-57577380D02*
X84693095Y-57577380D01*
X84978809Y-57577380D02*
X84978809Y-56577380D01*
X84883571Y-56720238D01*
X84788333Y-56815476D01*
X84693095Y-56863095D01*
%TO.C,H2*%
X58293095Y-127427380D02*
X58293095Y-126427380D01*
X58293095Y-126903571D02*
X58864523Y-126903571D01*
X58864523Y-127427380D02*
X58864523Y-126427380D01*
X59293095Y-126522619D02*
X59340714Y-126475000D01*
X59435952Y-126427380D01*
X59674047Y-126427380D01*
X59769285Y-126475000D01*
X59816904Y-126522619D01*
X59864523Y-126617857D01*
X59864523Y-126713095D01*
X59816904Y-126855952D01*
X59245476Y-127427380D01*
X59864523Y-127427380D01*
%TO.C,H3*%
X153543095Y-57577380D02*
X153543095Y-56577380D01*
X153543095Y-57053571D02*
X154114523Y-57053571D01*
X154114523Y-57577380D02*
X154114523Y-56577380D01*
X154495476Y-56577380D02*
X155114523Y-56577380D01*
X154781190Y-56958333D01*
X154924047Y-56958333D01*
X155019285Y-57005952D01*
X155066904Y-57053571D01*
X155114523Y-57148809D01*
X155114523Y-57386904D01*
X155066904Y-57482142D01*
X155019285Y-57529761D01*
X154924047Y-57577380D01*
X154638333Y-57577380D01*
X154543095Y-57529761D01*
X154495476Y-57482142D01*
%TO.C,H4*%
X178943095Y-127427380D02*
X178943095Y-126427380D01*
X178943095Y-126903571D02*
X179514523Y-126903571D01*
X179514523Y-127427380D02*
X179514523Y-126427380D01*
X180419285Y-126760714D02*
X180419285Y-127427380D01*
X180181190Y-126379761D02*
X179943095Y-127094047D01*
X180562142Y-127094047D01*
%TO.C,D2*%
X85621904Y-120467380D02*
X85621904Y-119467380D01*
X85860000Y-119467380D01*
X86002857Y-119515000D01*
X86098095Y-119610238D01*
X86145714Y-119705476D01*
X86193333Y-119895952D01*
X86193333Y-120038809D01*
X86145714Y-120229285D01*
X86098095Y-120324523D01*
X86002857Y-120419761D01*
X85860000Y-120467380D01*
X85621904Y-120467380D01*
X86574285Y-119562619D02*
X86621904Y-119515000D01*
X86717142Y-119467380D01*
X86955238Y-119467380D01*
X87050476Y-119515000D01*
X87098095Y-119562619D01*
X87145714Y-119657857D01*
X87145714Y-119753095D01*
X87098095Y-119895952D01*
X86526666Y-120467380D01*
X87145714Y-120467380D01*
%TO.C,D3*%
X154836904Y-118562380D02*
X154836904Y-117562380D01*
X155075000Y-117562380D01*
X155217857Y-117610000D01*
X155313095Y-117705238D01*
X155360714Y-117800476D01*
X155408333Y-117990952D01*
X155408333Y-118133809D01*
X155360714Y-118324285D01*
X155313095Y-118419523D01*
X155217857Y-118514761D01*
X155075000Y-118562380D01*
X154836904Y-118562380D01*
X155741666Y-117562380D02*
X156360714Y-117562380D01*
X156027380Y-117943333D01*
X156170238Y-117943333D01*
X156265476Y-117990952D01*
X156313095Y-118038571D01*
X156360714Y-118133809D01*
X156360714Y-118371904D01*
X156313095Y-118467142D01*
X156265476Y-118514761D01*
X156170238Y-118562380D01*
X155884523Y-118562380D01*
X155789285Y-118514761D01*
X155741666Y-118467142D01*
%TO.C,R8*%
X86193333Y-117927380D02*
X85860000Y-117451190D01*
X85621904Y-117927380D02*
X85621904Y-116927380D01*
X86002857Y-116927380D01*
X86098095Y-116975000D01*
X86145714Y-117022619D01*
X86193333Y-117117857D01*
X86193333Y-117260714D01*
X86145714Y-117355952D01*
X86098095Y-117403571D01*
X86002857Y-117451190D01*
X85621904Y-117451190D01*
X86764761Y-117355952D02*
X86669523Y-117308333D01*
X86621904Y-117260714D01*
X86574285Y-117165476D01*
X86574285Y-117117857D01*
X86621904Y-117022619D01*
X86669523Y-116975000D01*
X86764761Y-116927380D01*
X86955238Y-116927380D01*
X87050476Y-116975000D01*
X87098095Y-117022619D01*
X87145714Y-117117857D01*
X87145714Y-117165476D01*
X87098095Y-117260714D01*
X87050476Y-117308333D01*
X86955238Y-117355952D01*
X86764761Y-117355952D01*
X86669523Y-117403571D01*
X86621904Y-117451190D01*
X86574285Y-117546428D01*
X86574285Y-117736904D01*
X86621904Y-117832142D01*
X86669523Y-117879761D01*
X86764761Y-117927380D01*
X86955238Y-117927380D01*
X87050476Y-117879761D01*
X87098095Y-117832142D01*
X87145714Y-117736904D01*
X87145714Y-117546428D01*
X87098095Y-117451190D01*
X87050476Y-117403571D01*
X86955238Y-117355952D01*
%TO.C,R9*%
X155408333Y-121102380D02*
X155075000Y-120626190D01*
X154836904Y-121102380D02*
X154836904Y-120102380D01*
X155217857Y-120102380D01*
X155313095Y-120150000D01*
X155360714Y-120197619D01*
X155408333Y-120292857D01*
X155408333Y-120435714D01*
X155360714Y-120530952D01*
X155313095Y-120578571D01*
X155217857Y-120626190D01*
X154836904Y-120626190D01*
X155884523Y-121102380D02*
X156075000Y-121102380D01*
X156170238Y-121054761D01*
X156217857Y-121007142D01*
X156313095Y-120864285D01*
X156360714Y-120673809D01*
X156360714Y-120292857D01*
X156313095Y-120197619D01*
X156265476Y-120150000D01*
X156170238Y-120102380D01*
X155979761Y-120102380D01*
X155884523Y-120150000D01*
X155836904Y-120197619D01*
X155789285Y-120292857D01*
X155789285Y-120530952D01*
X155836904Y-120626190D01*
X155884523Y-120673809D01*
X155979761Y-120721428D01*
X156170238Y-120721428D01*
X156265476Y-120673809D01*
X156313095Y-120626190D01*
X156360714Y-120530952D01*
%TD*%
M02*
