%TF.GenerationSoftware,KiCad,Pcbnew,(5.1.6)-1*%
%TF.CreationDate,2021-01-04T14:37:21+05:30*%
%TF.ProjectId,JoyStick2,4a6f7953-7469-4636-9b32-2e6b69636164,rev?*%
%TF.SameCoordinates,Original*%
%TF.FileFunction,Paste,Bot*%
%TF.FilePolarity,Positive*%
%FSLAX46Y46*%
G04 Gerber Fmt 4.6, Leading zero omitted, Abs format (unit mm)*
G04 Created by KiCad (PCBNEW (5.1.6)-1) date 2021-01-04 14:37:21*
%MOMM*%
%LPD*%
G01*
G04 APERTURE LIST*
G04 APERTURE END LIST*
%TO.C,C1*%
G36*
G01*
X120271250Y-92207500D02*
X119758750Y-92207500D01*
G75*
G02*
X119540000Y-91988750I0J218750D01*
G01*
X119540000Y-91551250D01*
G75*
G02*
X119758750Y-91332500I218750J0D01*
G01*
X120271250Y-91332500D01*
G75*
G02*
X120490000Y-91551250I0J-218750D01*
G01*
X120490000Y-91988750D01*
G75*
G02*
X120271250Y-92207500I-218750J0D01*
G01*
G37*
G36*
G01*
X120271250Y-93782500D02*
X119758750Y-93782500D01*
G75*
G02*
X119540000Y-93563750I0J218750D01*
G01*
X119540000Y-93126250D01*
G75*
G02*
X119758750Y-92907500I218750J0D01*
G01*
X120271250Y-92907500D01*
G75*
G02*
X120490000Y-93126250I0J-218750D01*
G01*
X120490000Y-93563750D01*
G75*
G02*
X120271250Y-93782500I-218750J0D01*
G01*
G37*
%TD*%
%TO.C,C2*%
G36*
G01*
X117096250Y-93782500D02*
X116583750Y-93782500D01*
G75*
G02*
X116365000Y-93563750I0J218750D01*
G01*
X116365000Y-93126250D01*
G75*
G02*
X116583750Y-92907500I218750J0D01*
G01*
X117096250Y-92907500D01*
G75*
G02*
X117315000Y-93126250I0J-218750D01*
G01*
X117315000Y-93563750D01*
G75*
G02*
X117096250Y-93782500I-218750J0D01*
G01*
G37*
G36*
G01*
X117096250Y-92207500D02*
X116583750Y-92207500D01*
G75*
G02*
X116365000Y-91988750I0J218750D01*
G01*
X116365000Y-91551250D01*
G75*
G02*
X116583750Y-91332500I218750J0D01*
G01*
X117096250Y-91332500D01*
G75*
G02*
X117315000Y-91551250I0J-218750D01*
G01*
X117315000Y-91988750D01*
G75*
G02*
X117096250Y-92207500I-218750J0D01*
G01*
G37*
%TD*%
%TO.C,C3*%
G36*
G01*
X112016250Y-93935000D02*
X111503750Y-93935000D01*
G75*
G02*
X111285000Y-93716250I0J218750D01*
G01*
X111285000Y-93278750D01*
G75*
G02*
X111503750Y-93060000I218750J0D01*
G01*
X112016250Y-93060000D01*
G75*
G02*
X112235000Y-93278750I0J-218750D01*
G01*
X112235000Y-93716250D01*
G75*
G02*
X112016250Y-93935000I-218750J0D01*
G01*
G37*
G36*
G01*
X112016250Y-92360000D02*
X111503750Y-92360000D01*
G75*
G02*
X111285000Y-92141250I0J218750D01*
G01*
X111285000Y-91703750D01*
G75*
G02*
X111503750Y-91485000I218750J0D01*
G01*
X112016250Y-91485000D01*
G75*
G02*
X112235000Y-91703750I0J-218750D01*
G01*
X112235000Y-92141250D01*
G75*
G02*
X112016250Y-92360000I-218750J0D01*
G01*
G37*
%TD*%
%TO.C,R1*%
G36*
G01*
X105565000Y-92253750D02*
X105565000Y-93166250D01*
G75*
G02*
X105321250Y-93410000I-243750J0D01*
G01*
X104833750Y-93410000D01*
G75*
G02*
X104590000Y-93166250I0J243750D01*
G01*
X104590000Y-92253750D01*
G75*
G02*
X104833750Y-92010000I243750J0D01*
G01*
X105321250Y-92010000D01*
G75*
G02*
X105565000Y-92253750I0J-243750D01*
G01*
G37*
G36*
G01*
X103690000Y-92253750D02*
X103690000Y-93166250D01*
G75*
G02*
X103446250Y-93410000I-243750J0D01*
G01*
X102958750Y-93410000D01*
G75*
G02*
X102715000Y-93166250I0J243750D01*
G01*
X102715000Y-92253750D01*
G75*
G02*
X102958750Y-92010000I243750J0D01*
G01*
X103446250Y-92010000D01*
G75*
G02*
X103690000Y-92253750I0J-243750D01*
G01*
G37*
%TD*%
M02*
