%TF.GenerationSoftware,KiCad,Pcbnew,(5.1.6)-1*%
%TF.CreationDate,2021-01-04T14:37:21+05:30*%
%TF.ProjectId,JoyStick2,4a6f7953-7469-4636-9b32-2e6b69636164,rev?*%
%TF.SameCoordinates,Original*%
%TF.FileFunction,Legend,Bot*%
%TF.FilePolarity,Positive*%
%FSLAX46Y46*%
G04 Gerber Fmt 4.6, Leading zero omitted, Abs format (unit mm)*
G04 Created by KiCad (PCBNEW (5.1.6)-1) date 2021-01-04 14:37:21*
%MOMM*%
%LPD*%
G01*
G04 APERTURE LIST*
%ADD10C,0.150000*%
%ADD11C,0.120000*%
G04 APERTURE END LIST*
D10*
X76326904Y-120150000D02*
X76422142Y-120102380D01*
X76565000Y-120102380D01*
X76707857Y-120150000D01*
X76803095Y-120245238D01*
X76850714Y-120340476D01*
X76898333Y-120530952D01*
X76898333Y-120673809D01*
X76850714Y-120864285D01*
X76803095Y-120959523D01*
X76707857Y-121054761D01*
X76565000Y-121102380D01*
X76469761Y-121102380D01*
X76326904Y-121054761D01*
X76279285Y-121007142D01*
X76279285Y-120673809D01*
X76469761Y-120673809D01*
X75850714Y-121102380D02*
X75850714Y-120102380D01*
X75279285Y-121102380D01*
X75279285Y-120102380D01*
X74803095Y-121102380D02*
X74803095Y-120102380D01*
X74565000Y-120102380D01*
X74422142Y-120150000D01*
X74326904Y-120245238D01*
X74279285Y-120340476D01*
X74231666Y-120530952D01*
X74231666Y-120673809D01*
X74279285Y-120864285D01*
X74326904Y-120959523D01*
X74422142Y-121054761D01*
X74565000Y-121102380D01*
X74803095Y-121102380D01*
X79359047Y-121102380D02*
X79168571Y-121102380D01*
X79073333Y-121054761D01*
X79025714Y-121007142D01*
X78930476Y-120864285D01*
X78882857Y-120673809D01*
X78882857Y-120292857D01*
X78930476Y-120197619D01*
X78978095Y-120150000D01*
X79073333Y-120102380D01*
X79263809Y-120102380D01*
X79359047Y-120150000D01*
X79406666Y-120197619D01*
X79454285Y-120292857D01*
X79454285Y-120530952D01*
X79406666Y-120626190D01*
X79359047Y-120673809D01*
X79263809Y-120721428D01*
X79073333Y-120721428D01*
X78978095Y-120673809D01*
X78930476Y-120626190D01*
X78882857Y-120530952D01*
X78597142Y-120102380D02*
X78263809Y-121102380D01*
X77930476Y-120102380D01*
D11*
%TO.C,C1*%
X120525000Y-92720279D02*
X120525000Y-92394721D01*
X119505000Y-92720279D02*
X119505000Y-92394721D01*
%TO.C,C2*%
X116330000Y-92720279D02*
X116330000Y-92394721D01*
X117350000Y-92720279D02*
X117350000Y-92394721D01*
%TO.C,C3*%
X111250000Y-92872779D02*
X111250000Y-92547221D01*
X112270000Y-92872779D02*
X112270000Y-92547221D01*
%TO.C,R1*%
X104398578Y-92000000D02*
X103881422Y-92000000D01*
X104398578Y-93420000D02*
X103881422Y-93420000D01*
%TO.C,C1*%
D10*
X121802142Y-92390833D02*
X121849761Y-92343214D01*
X121897380Y-92200357D01*
X121897380Y-92105119D01*
X121849761Y-91962261D01*
X121754523Y-91867023D01*
X121659285Y-91819404D01*
X121468809Y-91771785D01*
X121325952Y-91771785D01*
X121135476Y-91819404D01*
X121040238Y-91867023D01*
X120945000Y-91962261D01*
X120897380Y-92105119D01*
X120897380Y-92200357D01*
X120945000Y-92343214D01*
X120992619Y-92390833D01*
X121897380Y-93343214D02*
X121897380Y-92771785D01*
X121897380Y-93057500D02*
X120897380Y-93057500D01*
X121040238Y-92962261D01*
X121135476Y-92867023D01*
X121183095Y-92771785D01*
%TO.C,C2*%
X114657142Y-92543333D02*
X114704761Y-92495714D01*
X114752380Y-92352857D01*
X114752380Y-92257619D01*
X114704761Y-92114761D01*
X114609523Y-92019523D01*
X114514285Y-91971904D01*
X114323809Y-91924285D01*
X114180952Y-91924285D01*
X113990476Y-91971904D01*
X113895238Y-92019523D01*
X113800000Y-92114761D01*
X113752380Y-92257619D01*
X113752380Y-92352857D01*
X113800000Y-92495714D01*
X113847619Y-92543333D01*
X113847619Y-92924285D02*
X113800000Y-92971904D01*
X113752380Y-93067142D01*
X113752380Y-93305238D01*
X113800000Y-93400476D01*
X113847619Y-93448095D01*
X113942857Y-93495714D01*
X114038095Y-93495714D01*
X114180952Y-93448095D01*
X114752380Y-92876666D01*
X114752380Y-93495714D01*
%TO.C,C3*%
X109577142Y-92390833D02*
X109624761Y-92343214D01*
X109672380Y-92200357D01*
X109672380Y-92105119D01*
X109624761Y-91962261D01*
X109529523Y-91867023D01*
X109434285Y-91819404D01*
X109243809Y-91771785D01*
X109100952Y-91771785D01*
X108910476Y-91819404D01*
X108815238Y-91867023D01*
X108720000Y-91962261D01*
X108672380Y-92105119D01*
X108672380Y-92200357D01*
X108720000Y-92343214D01*
X108767619Y-92390833D01*
X108672380Y-92724166D02*
X108672380Y-93343214D01*
X109053333Y-93009880D01*
X109053333Y-93152738D01*
X109100952Y-93247976D01*
X109148571Y-93295595D01*
X109243809Y-93343214D01*
X109481904Y-93343214D01*
X109577142Y-93295595D01*
X109624761Y-93247976D01*
X109672380Y-93152738D01*
X109672380Y-92867023D01*
X109624761Y-92771785D01*
X109577142Y-92724166D01*
%TO.C,R1*%
X104306666Y-91512380D02*
X104640000Y-91036190D01*
X104878095Y-91512380D02*
X104878095Y-90512380D01*
X104497142Y-90512380D01*
X104401904Y-90560000D01*
X104354285Y-90607619D01*
X104306666Y-90702857D01*
X104306666Y-90845714D01*
X104354285Y-90940952D01*
X104401904Y-90988571D01*
X104497142Y-91036190D01*
X104878095Y-91036190D01*
X103354285Y-91512380D02*
X103925714Y-91512380D01*
X103640000Y-91512380D02*
X103640000Y-90512380D01*
X103735238Y-90655238D01*
X103830476Y-90750476D01*
X103925714Y-90798095D01*
%TD*%
M02*
