%TF.GenerationSoftware,KiCad,Pcbnew,(5.1.6)-1*%
%TF.CreationDate,2021-01-04T14:37:21+05:30*%
%TF.ProjectId,JoyStick2,4a6f7953-7469-4636-9b32-2e6b69636164,rev?*%
%TF.SameCoordinates,Original*%
%TF.FileFunction,Paste,Top*%
%TF.FilePolarity,Positive*%
%FSLAX46Y46*%
G04 Gerber Fmt 4.6, Leading zero omitted, Abs format (unit mm)*
G04 Created by KiCad (PCBNEW (5.1.6)-1) date 2021-01-04 14:37:21*
%MOMM*%
%LPD*%
G01*
G04 APERTURE LIST*
%ADD10R,2.000000X1.500000*%
%ADD11R,2.000000X3.800000*%
G04 APERTURE END LIST*
%TO.C,C4*%
G36*
G01*
X118877500Y-107693750D02*
X118877500Y-108206250D01*
G75*
G02*
X118658750Y-108425000I-218750J0D01*
G01*
X118221250Y-108425000D01*
G75*
G02*
X118002500Y-108206250I0J218750D01*
G01*
X118002500Y-107693750D01*
G75*
G02*
X118221250Y-107475000I218750J0D01*
G01*
X118658750Y-107475000D01*
G75*
G02*
X118877500Y-107693750I0J-218750D01*
G01*
G37*
G36*
G01*
X120452500Y-107693750D02*
X120452500Y-108206250D01*
G75*
G02*
X120233750Y-108425000I-218750J0D01*
G01*
X119796250Y-108425000D01*
G75*
G02*
X119577500Y-108206250I0J218750D01*
G01*
X119577500Y-107693750D01*
G75*
G02*
X119796250Y-107475000I218750J0D01*
G01*
X120233750Y-107475000D01*
G75*
G02*
X120452500Y-107693750I0J-218750D01*
G01*
G37*
%TD*%
%TO.C,C5*%
G36*
G01*
X126167500Y-107693750D02*
X126167500Y-108206250D01*
G75*
G02*
X125948750Y-108425000I-218750J0D01*
G01*
X125511250Y-108425000D01*
G75*
G02*
X125292500Y-108206250I0J218750D01*
G01*
X125292500Y-107693750D01*
G75*
G02*
X125511250Y-107475000I218750J0D01*
G01*
X125948750Y-107475000D01*
G75*
G02*
X126167500Y-107693750I0J-218750D01*
G01*
G37*
G36*
G01*
X124592500Y-107693750D02*
X124592500Y-108206250D01*
G75*
G02*
X124373750Y-108425000I-218750J0D01*
G01*
X123936250Y-108425000D01*
G75*
G02*
X123717500Y-108206250I0J218750D01*
G01*
X123717500Y-107693750D01*
G75*
G02*
X123936250Y-107475000I218750J0D01*
G01*
X124373750Y-107475000D01*
G75*
G02*
X124592500Y-107693750I0J-218750D01*
G01*
G37*
%TD*%
%TO.C,C6*%
G36*
G01*
X80822500Y-107136250D02*
X80822500Y-106223750D01*
G75*
G02*
X81066250Y-105980000I243750J0D01*
G01*
X81553750Y-105980000D01*
G75*
G02*
X81797500Y-106223750I0J-243750D01*
G01*
X81797500Y-107136250D01*
G75*
G02*
X81553750Y-107380000I-243750J0D01*
G01*
X81066250Y-107380000D01*
G75*
G02*
X80822500Y-107136250I0J243750D01*
G01*
G37*
G36*
G01*
X82697500Y-107136250D02*
X82697500Y-106223750D01*
G75*
G02*
X82941250Y-105980000I243750J0D01*
G01*
X83428750Y-105980000D01*
G75*
G02*
X83672500Y-106223750I0J-243750D01*
G01*
X83672500Y-107136250D01*
G75*
G02*
X83428750Y-107380000I-243750J0D01*
G01*
X82941250Y-107380000D01*
G75*
G02*
X82697500Y-107136250I0J243750D01*
G01*
G37*
%TD*%
%TO.C,C7*%
G36*
G01*
X157997500Y-106223750D02*
X157997500Y-107136250D01*
G75*
G02*
X157753750Y-107380000I-243750J0D01*
G01*
X157266250Y-107380000D01*
G75*
G02*
X157022500Y-107136250I0J243750D01*
G01*
X157022500Y-106223750D01*
G75*
G02*
X157266250Y-105980000I243750J0D01*
G01*
X157753750Y-105980000D01*
G75*
G02*
X157997500Y-106223750I0J-243750D01*
G01*
G37*
G36*
G01*
X159872500Y-106223750D02*
X159872500Y-107136250D01*
G75*
G02*
X159628750Y-107380000I-243750J0D01*
G01*
X159141250Y-107380000D01*
G75*
G02*
X158897500Y-107136250I0J243750D01*
G01*
X158897500Y-106223750D01*
G75*
G02*
X159141250Y-105980000I243750J0D01*
G01*
X159628750Y-105980000D01*
G75*
G02*
X159872500Y-106223750I0J-243750D01*
G01*
G37*
%TD*%
%TO.C,C8*%
G36*
G01*
X82747500Y-109476250D02*
X82747500Y-108963750D01*
G75*
G02*
X82966250Y-108745000I218750J0D01*
G01*
X83403750Y-108745000D01*
G75*
G02*
X83622500Y-108963750I0J-218750D01*
G01*
X83622500Y-109476250D01*
G75*
G02*
X83403750Y-109695000I-218750J0D01*
G01*
X82966250Y-109695000D01*
G75*
G02*
X82747500Y-109476250I0J218750D01*
G01*
G37*
G36*
G01*
X81172500Y-109476250D02*
X81172500Y-108963750D01*
G75*
G02*
X81391250Y-108745000I218750J0D01*
G01*
X81828750Y-108745000D01*
G75*
G02*
X82047500Y-108963750I0J-218750D01*
G01*
X82047500Y-109476250D01*
G75*
G02*
X81828750Y-109695000I-218750J0D01*
G01*
X81391250Y-109695000D01*
G75*
G02*
X81172500Y-109476250I0J218750D01*
G01*
G37*
%TD*%
%TO.C,C9*%
G36*
G01*
X157917500Y-108963750D02*
X157917500Y-109476250D01*
G75*
G02*
X157698750Y-109695000I-218750J0D01*
G01*
X157261250Y-109695000D01*
G75*
G02*
X157042500Y-109476250I0J218750D01*
G01*
X157042500Y-108963750D01*
G75*
G02*
X157261250Y-108745000I218750J0D01*
G01*
X157698750Y-108745000D01*
G75*
G02*
X157917500Y-108963750I0J-218750D01*
G01*
G37*
G36*
G01*
X159492500Y-108963750D02*
X159492500Y-109476250D01*
G75*
G02*
X159273750Y-109695000I-218750J0D01*
G01*
X158836250Y-109695000D01*
G75*
G02*
X158617500Y-109476250I0J218750D01*
G01*
X158617500Y-108963750D01*
G75*
G02*
X158836250Y-108745000I218750J0D01*
G01*
X159273750Y-108745000D01*
G75*
G02*
X159492500Y-108963750I0J-218750D01*
G01*
G37*
%TD*%
%TO.C,C10*%
G36*
G01*
X82697500Y-112851250D02*
X82697500Y-111938750D01*
G75*
G02*
X82941250Y-111695000I243750J0D01*
G01*
X83428750Y-111695000D01*
G75*
G02*
X83672500Y-111938750I0J-243750D01*
G01*
X83672500Y-112851250D01*
G75*
G02*
X83428750Y-113095000I-243750J0D01*
G01*
X82941250Y-113095000D01*
G75*
G02*
X82697500Y-112851250I0J243750D01*
G01*
G37*
G36*
G01*
X80822500Y-112851250D02*
X80822500Y-111938750D01*
G75*
G02*
X81066250Y-111695000I243750J0D01*
G01*
X81553750Y-111695000D01*
G75*
G02*
X81797500Y-111938750I0J-243750D01*
G01*
X81797500Y-112851250D01*
G75*
G02*
X81553750Y-113095000I-243750J0D01*
G01*
X81066250Y-113095000D01*
G75*
G02*
X80822500Y-112851250I0J243750D01*
G01*
G37*
%TD*%
%TO.C,C11*%
G36*
G01*
X159872500Y-111938750D02*
X159872500Y-112851250D01*
G75*
G02*
X159628750Y-113095000I-243750J0D01*
G01*
X159141250Y-113095000D01*
G75*
G02*
X158897500Y-112851250I0J243750D01*
G01*
X158897500Y-111938750D01*
G75*
G02*
X159141250Y-111695000I243750J0D01*
G01*
X159628750Y-111695000D01*
G75*
G02*
X159872500Y-111938750I0J-243750D01*
G01*
G37*
G36*
G01*
X157997500Y-111938750D02*
X157997500Y-112851250D01*
G75*
G02*
X157753750Y-113095000I-243750J0D01*
G01*
X157266250Y-113095000D01*
G75*
G02*
X157022500Y-112851250I0J243750D01*
G01*
X157022500Y-111938750D01*
G75*
G02*
X157266250Y-111695000I243750J0D01*
G01*
X157753750Y-111695000D01*
G75*
G02*
X157997500Y-111938750I0J-243750D01*
G01*
G37*
%TD*%
%TO.C,C12*%
G36*
G01*
X81172500Y-115191250D02*
X81172500Y-114678750D01*
G75*
G02*
X81391250Y-114460000I218750J0D01*
G01*
X81828750Y-114460000D01*
G75*
G02*
X82047500Y-114678750I0J-218750D01*
G01*
X82047500Y-115191250D01*
G75*
G02*
X81828750Y-115410000I-218750J0D01*
G01*
X81391250Y-115410000D01*
G75*
G02*
X81172500Y-115191250I0J218750D01*
G01*
G37*
G36*
G01*
X82747500Y-115191250D02*
X82747500Y-114678750D01*
G75*
G02*
X82966250Y-114460000I218750J0D01*
G01*
X83403750Y-114460000D01*
G75*
G02*
X83622500Y-114678750I0J-218750D01*
G01*
X83622500Y-115191250D01*
G75*
G02*
X83403750Y-115410000I-218750J0D01*
G01*
X82966250Y-115410000D01*
G75*
G02*
X82747500Y-115191250I0J218750D01*
G01*
G37*
%TD*%
%TO.C,C13*%
G36*
G01*
X159492500Y-114678750D02*
X159492500Y-115191250D01*
G75*
G02*
X159273750Y-115410000I-218750J0D01*
G01*
X158836250Y-115410000D01*
G75*
G02*
X158617500Y-115191250I0J218750D01*
G01*
X158617500Y-114678750D01*
G75*
G02*
X158836250Y-114460000I218750J0D01*
G01*
X159273750Y-114460000D01*
G75*
G02*
X159492500Y-114678750I0J-218750D01*
G01*
G37*
G36*
G01*
X157917500Y-114678750D02*
X157917500Y-115191250D01*
G75*
G02*
X157698750Y-115410000I-218750J0D01*
G01*
X157261250Y-115410000D01*
G75*
G02*
X157042500Y-115191250I0J218750D01*
G01*
X157042500Y-114678750D01*
G75*
G02*
X157261250Y-114460000I218750J0D01*
G01*
X157698750Y-114460000D01*
G75*
G02*
X157917500Y-114678750I0J-218750D01*
G01*
G37*
%TD*%
D10*
%TO.C,U4*%
X76785000Y-112790000D03*
X76785000Y-108190000D03*
X76785000Y-110490000D03*
D11*
X70485000Y-110490000D03*
%TD*%
%TO.C,U5*%
X170180000Y-109855000D03*
D10*
X163880000Y-109855000D03*
X163880000Y-112155000D03*
X163880000Y-107555000D03*
%TD*%
%TO.C,R2*%
G36*
G01*
X151457500Y-76021250D02*
X151457500Y-75108750D01*
G75*
G02*
X151701250Y-74865000I243750J0D01*
G01*
X152188750Y-74865000D01*
G75*
G02*
X152432500Y-75108750I0J-243750D01*
G01*
X152432500Y-76021250D01*
G75*
G02*
X152188750Y-76265000I-243750J0D01*
G01*
X151701250Y-76265000D01*
G75*
G02*
X151457500Y-76021250I0J243750D01*
G01*
G37*
G36*
G01*
X153332500Y-76021250D02*
X153332500Y-75108750D01*
G75*
G02*
X153576250Y-74865000I243750J0D01*
G01*
X154063750Y-74865000D01*
G75*
G02*
X154307500Y-75108750I0J-243750D01*
G01*
X154307500Y-76021250D01*
G75*
G02*
X154063750Y-76265000I-243750J0D01*
G01*
X153576250Y-76265000D01*
G75*
G02*
X153332500Y-76021250I0J243750D01*
G01*
G37*
%TD*%
%TO.C,R3*%
G36*
G01*
X83635000Y-75386250D02*
X83635000Y-74473750D01*
G75*
G02*
X83878750Y-74230000I243750J0D01*
G01*
X84366250Y-74230000D01*
G75*
G02*
X84610000Y-74473750I0J-243750D01*
G01*
X84610000Y-75386250D01*
G75*
G02*
X84366250Y-75630000I-243750J0D01*
G01*
X83878750Y-75630000D01*
G75*
G02*
X83635000Y-75386250I0J243750D01*
G01*
G37*
G36*
G01*
X81760000Y-75386250D02*
X81760000Y-74473750D01*
G75*
G02*
X82003750Y-74230000I243750J0D01*
G01*
X82491250Y-74230000D01*
G75*
G02*
X82735000Y-74473750I0J-243750D01*
G01*
X82735000Y-75386250D01*
G75*
G02*
X82491250Y-75630000I-243750J0D01*
G01*
X82003750Y-75630000D01*
G75*
G02*
X81760000Y-75386250I0J243750D01*
G01*
G37*
%TD*%
%TO.C,R4*%
G36*
G01*
X105860000Y-73481250D02*
X105860000Y-72568750D01*
G75*
G02*
X106103750Y-72325000I243750J0D01*
G01*
X106591250Y-72325000D01*
G75*
G02*
X106835000Y-72568750I0J-243750D01*
G01*
X106835000Y-73481250D01*
G75*
G02*
X106591250Y-73725000I-243750J0D01*
G01*
X106103750Y-73725000D01*
G75*
G02*
X105860000Y-73481250I0J243750D01*
G01*
G37*
G36*
G01*
X103985000Y-73481250D02*
X103985000Y-72568750D01*
G75*
G02*
X104228750Y-72325000I243750J0D01*
G01*
X104716250Y-72325000D01*
G75*
G02*
X104960000Y-72568750I0J-243750D01*
G01*
X104960000Y-73481250D01*
G75*
G02*
X104716250Y-73725000I-243750J0D01*
G01*
X104228750Y-73725000D01*
G75*
G02*
X103985000Y-73481250I0J243750D01*
G01*
G37*
%TD*%
%TO.C,R5*%
G36*
G01*
X132560000Y-73481250D02*
X132560000Y-72568750D01*
G75*
G02*
X132803750Y-72325000I243750J0D01*
G01*
X133291250Y-72325000D01*
G75*
G02*
X133535000Y-72568750I0J-243750D01*
G01*
X133535000Y-73481250D01*
G75*
G02*
X133291250Y-73725000I-243750J0D01*
G01*
X132803750Y-73725000D01*
G75*
G02*
X132560000Y-73481250I0J243750D01*
G01*
G37*
G36*
G01*
X134435000Y-73481250D02*
X134435000Y-72568750D01*
G75*
G02*
X134678750Y-72325000I243750J0D01*
G01*
X135166250Y-72325000D01*
G75*
G02*
X135410000Y-72568750I0J-243750D01*
G01*
X135410000Y-73481250D01*
G75*
G02*
X135166250Y-73725000I-243750J0D01*
G01*
X134678750Y-73725000D01*
G75*
G02*
X134435000Y-73481250I0J243750D01*
G01*
G37*
%TD*%
%TO.C,R6*%
G36*
G01*
X103985000Y-111581250D02*
X103985000Y-110668750D01*
G75*
G02*
X104228750Y-110425000I243750J0D01*
G01*
X104716250Y-110425000D01*
G75*
G02*
X104960000Y-110668750I0J-243750D01*
G01*
X104960000Y-111581250D01*
G75*
G02*
X104716250Y-111825000I-243750J0D01*
G01*
X104228750Y-111825000D01*
G75*
G02*
X103985000Y-111581250I0J243750D01*
G01*
G37*
G36*
G01*
X105860000Y-111581250D02*
X105860000Y-110668750D01*
G75*
G02*
X106103750Y-110425000I243750J0D01*
G01*
X106591250Y-110425000D01*
G75*
G02*
X106835000Y-110668750I0J-243750D01*
G01*
X106835000Y-111581250D01*
G75*
G02*
X106591250Y-111825000I-243750J0D01*
G01*
X106103750Y-111825000D01*
G75*
G02*
X105860000Y-111581250I0J243750D01*
G01*
G37*
%TD*%
%TO.C,R7*%
G36*
G01*
X135705000Y-111581250D02*
X135705000Y-110668750D01*
G75*
G02*
X135948750Y-110425000I243750J0D01*
G01*
X136436250Y-110425000D01*
G75*
G02*
X136680000Y-110668750I0J-243750D01*
G01*
X136680000Y-111581250D01*
G75*
G02*
X136436250Y-111825000I-243750J0D01*
G01*
X135948750Y-111825000D01*
G75*
G02*
X135705000Y-111581250I0J243750D01*
G01*
G37*
G36*
G01*
X133830000Y-111581250D02*
X133830000Y-110668750D01*
G75*
G02*
X134073750Y-110425000I243750J0D01*
G01*
X134561250Y-110425000D01*
G75*
G02*
X134805000Y-110668750I0J-243750D01*
G01*
X134805000Y-111581250D01*
G75*
G02*
X134561250Y-111825000I-243750J0D01*
G01*
X134073750Y-111825000D01*
G75*
G02*
X133830000Y-111581250I0J243750D01*
G01*
G37*
%TD*%
%TO.C,D2*%
G36*
G01*
X82092500Y-120471250D02*
X82092500Y-119558750D01*
G75*
G02*
X82336250Y-119315000I243750J0D01*
G01*
X82823750Y-119315000D01*
G75*
G02*
X83067500Y-119558750I0J-243750D01*
G01*
X83067500Y-120471250D01*
G75*
G02*
X82823750Y-120715000I-243750J0D01*
G01*
X82336250Y-120715000D01*
G75*
G02*
X82092500Y-120471250I0J243750D01*
G01*
G37*
G36*
G01*
X83967500Y-120471250D02*
X83967500Y-119558750D01*
G75*
G02*
X84211250Y-119315000I243750J0D01*
G01*
X84698750Y-119315000D01*
G75*
G02*
X84942500Y-119558750I0J-243750D01*
G01*
X84942500Y-120471250D01*
G75*
G02*
X84698750Y-120715000I-243750J0D01*
G01*
X84211250Y-120715000D01*
G75*
G02*
X83967500Y-120471250I0J243750D01*
G01*
G37*
%TD*%
%TO.C,D3*%
G36*
G01*
X158897500Y-118566250D02*
X158897500Y-117653750D01*
G75*
G02*
X159141250Y-117410000I243750J0D01*
G01*
X159628750Y-117410000D01*
G75*
G02*
X159872500Y-117653750I0J-243750D01*
G01*
X159872500Y-118566250D01*
G75*
G02*
X159628750Y-118810000I-243750J0D01*
G01*
X159141250Y-118810000D01*
G75*
G02*
X158897500Y-118566250I0J243750D01*
G01*
G37*
G36*
G01*
X157022500Y-118566250D02*
X157022500Y-117653750D01*
G75*
G02*
X157266250Y-117410000I243750J0D01*
G01*
X157753750Y-117410000D01*
G75*
G02*
X157997500Y-117653750I0J-243750D01*
G01*
X157997500Y-118566250D01*
G75*
G02*
X157753750Y-118810000I-243750J0D01*
G01*
X157266250Y-118810000D01*
G75*
G02*
X157022500Y-118566250I0J243750D01*
G01*
G37*
%TD*%
%TO.C,R8*%
G36*
G01*
X83967500Y-117931250D02*
X83967500Y-117018750D01*
G75*
G02*
X84211250Y-116775000I243750J0D01*
G01*
X84698750Y-116775000D01*
G75*
G02*
X84942500Y-117018750I0J-243750D01*
G01*
X84942500Y-117931250D01*
G75*
G02*
X84698750Y-118175000I-243750J0D01*
G01*
X84211250Y-118175000D01*
G75*
G02*
X83967500Y-117931250I0J243750D01*
G01*
G37*
G36*
G01*
X82092500Y-117931250D02*
X82092500Y-117018750D01*
G75*
G02*
X82336250Y-116775000I243750J0D01*
G01*
X82823750Y-116775000D01*
G75*
G02*
X83067500Y-117018750I0J-243750D01*
G01*
X83067500Y-117931250D01*
G75*
G02*
X82823750Y-118175000I-243750J0D01*
G01*
X82336250Y-118175000D01*
G75*
G02*
X82092500Y-117931250I0J243750D01*
G01*
G37*
%TD*%
%TO.C,R9*%
G36*
G01*
X157022500Y-121106250D02*
X157022500Y-120193750D01*
G75*
G02*
X157266250Y-119950000I243750J0D01*
G01*
X157753750Y-119950000D01*
G75*
G02*
X157997500Y-120193750I0J-243750D01*
G01*
X157997500Y-121106250D01*
G75*
G02*
X157753750Y-121350000I-243750J0D01*
G01*
X157266250Y-121350000D01*
G75*
G02*
X157022500Y-121106250I0J243750D01*
G01*
G37*
G36*
G01*
X158897500Y-121106250D02*
X158897500Y-120193750D01*
G75*
G02*
X159141250Y-119950000I243750J0D01*
G01*
X159628750Y-119950000D01*
G75*
G02*
X159872500Y-120193750I0J-243750D01*
G01*
X159872500Y-121106250D01*
G75*
G02*
X159628750Y-121350000I-243750J0D01*
G01*
X159141250Y-121350000D01*
G75*
G02*
X158897500Y-121106250I0J243750D01*
G01*
G37*
%TD*%
M02*
