%TF.GenerationSoftware,KiCad,Pcbnew,(5.1.6)-1*%
%TF.CreationDate,2021-01-04T14:37:21+05:30*%
%TF.ProjectId,JoyStick2,4a6f7953-7469-4636-9b32-2e6b69636164,rev?*%
%TF.SameCoordinates,Original*%
%TF.FileFunction,Copper,L1,Top*%
%TF.FilePolarity,Positive*%
%FSLAX46Y46*%
G04 Gerber Fmt 4.6, Leading zero omitted, Abs format (unit mm)*
G04 Created by KiCad (PCBNEW (5.1.6)-1) date 2021-01-04 14:37:21*
%MOMM*%
%LPD*%
G01*
G04 APERTURE LIST*
%TA.AperFunction,ComponentPad*%
%ADD10R,1.700000X1.700000*%
%TD*%
%TA.AperFunction,ComponentPad*%
%ADD11O,1.700000X1.700000*%
%TD*%
%TA.AperFunction,ComponentPad*%
%ADD12R,1.600000X1.600000*%
%TD*%
%TA.AperFunction,ComponentPad*%
%ADD13O,1.600000X1.600000*%
%TD*%
%TA.AperFunction,ComponentPad*%
%ADD14C,1.500000*%
%TD*%
%TA.AperFunction,ComponentPad*%
%ADD15C,1.778000*%
%TD*%
%TA.AperFunction,ComponentPad*%
%ADD16C,2.286000*%
%TD*%
%TA.AperFunction,ComponentPad*%
%ADD17R,2.200000X2.200000*%
%TD*%
%TA.AperFunction,ComponentPad*%
%ADD18O,2.200000X2.200000*%
%TD*%
%TA.AperFunction,SMDPad,CuDef*%
%ADD19R,2.000000X1.500000*%
%TD*%
%TA.AperFunction,SMDPad,CuDef*%
%ADD20R,2.000000X3.800000*%
%TD*%
%TA.AperFunction,ComponentPad*%
%ADD21C,2.000000*%
%TD*%
%TA.AperFunction,ViaPad*%
%ADD22C,0.800000*%
%TD*%
%TA.AperFunction,Conductor*%
%ADD23C,0.250000*%
%TD*%
G04 APERTURE END LIST*
D10*
%TO.P,J3,1*%
%TO.N,GND*%
X115570000Y-80645000D03*
D11*
%TO.P,J3,2*%
%TO.N,+3V3*%
X115570000Y-78105000D03*
%TO.P,J3,3*%
%TO.N,CE*%
X118110000Y-80645000D03*
%TO.P,J3,4*%
%TO.N,CSN*%
X118110000Y-78105000D03*
%TO.P,J3,5*%
%TO.N,SCK*%
X120650000Y-80645000D03*
%TO.P,J3,6*%
%TO.N,MOSI*%
X120650000Y-78105000D03*
%TO.P,J3,7*%
%TO.N,MISO*%
X123190000Y-80645000D03*
%TO.P,J3,8*%
%TO.N,IRQ*%
X123190000Y-78105000D03*
%TD*%
D12*
%TO.P,U1,1*%
%TO.N,RST*%
X101600000Y-96520000D03*
D13*
%TO.P,U1,15*%
%TO.N,Z-MINUS*%
X134620000Y-88900000D03*
%TO.P,U1,2*%
%TO.N,RX*%
X104140000Y-96520000D03*
%TO.P,U1,16*%
%TO.N,Net-(U1-Pad16)*%
X132080000Y-88900000D03*
%TO.P,U1,3*%
%TO.N,TX*%
X106680000Y-96520000D03*
%TO.P,U1,17*%
%TO.N,MOSI*%
X129540000Y-88900000D03*
%TO.P,U1,4*%
%TO.N,SW1*%
X109220000Y-96520000D03*
%TO.P,U1,18*%
%TO.N,MISO*%
X127000000Y-88900000D03*
%TO.P,U1,5*%
%TO.N,SW2*%
X111760000Y-96520000D03*
%TO.P,U1,19*%
%TO.N,SCK*%
X124460000Y-88900000D03*
%TO.P,U1,6*%
%TO.N,HOME*%
X114300000Y-96520000D03*
%TO.P,U1,20*%
%TO.N,5V_IN*%
X121920000Y-88900000D03*
%TO.P,U1,7*%
X116840000Y-96520000D03*
%TO.P,U1,21*%
%TO.N,Net-(C3-Pad1)*%
X119380000Y-88900000D03*
%TO.P,U1,8*%
%TO.N,GND*%
X119380000Y-96520000D03*
%TO.P,U1,22*%
X116840000Y-88900000D03*
%TO.P,U1,9*%
%TO.N,/XTAL1*%
X121920000Y-96520000D03*
%TO.P,U1,23*%
%TO.N,Net-(U1-Pad23)*%
X114300000Y-88900000D03*
%TO.P,U1,10*%
%TO.N,/XTAL2*%
X124460000Y-96520000D03*
%TO.P,U1,24*%
%TO.N,Z-PLUS*%
X111760000Y-88900000D03*
%TO.P,U1,11*%
%TO.N,Net-(U1-Pad11)*%
X127000000Y-96520000D03*
%TO.P,U1,25*%
%TO.N,A_DIR*%
X109220000Y-88900000D03*
%TO.P,U1,12*%
%TO.N,CE*%
X129540000Y-96520000D03*
%TO.P,U1,26*%
%TO.N,B_DIR*%
X106680000Y-88900000D03*
%TO.P,U1,13*%
%TO.N,CSN*%
X132080000Y-96520000D03*
%TO.P,U1,27*%
%TO.N,Y_DIR*%
X104140000Y-88900000D03*
%TO.P,U1,14*%
%TO.N,CANCEL*%
X134620000Y-96520000D03*
%TO.P,U1,28*%
%TO.N,X_DIR*%
X101600000Y-88900000D03*
%TD*%
%TO.P,C4,2*%
%TO.N,GND*%
%TA.AperFunction,SMDPad,CuDef*%
G36*
G01*
X118877500Y-107693750D02*
X118877500Y-108206250D01*
G75*
G02*
X118658750Y-108425000I-218750J0D01*
G01*
X118221250Y-108425000D01*
G75*
G02*
X118002500Y-108206250I0J218750D01*
G01*
X118002500Y-107693750D01*
G75*
G02*
X118221250Y-107475000I218750J0D01*
G01*
X118658750Y-107475000D01*
G75*
G02*
X118877500Y-107693750I0J-218750D01*
G01*
G37*
%TD.AperFunction*%
%TO.P,C4,1*%
%TO.N,/XTAL1*%
%TA.AperFunction,SMDPad,CuDef*%
G36*
G01*
X120452500Y-107693750D02*
X120452500Y-108206250D01*
G75*
G02*
X120233750Y-108425000I-218750J0D01*
G01*
X119796250Y-108425000D01*
G75*
G02*
X119577500Y-108206250I0J218750D01*
G01*
X119577500Y-107693750D01*
G75*
G02*
X119796250Y-107475000I218750J0D01*
G01*
X120233750Y-107475000D01*
G75*
G02*
X120452500Y-107693750I0J-218750D01*
G01*
G37*
%TD.AperFunction*%
%TD*%
%TO.P,C5,1*%
%TO.N,/XTAL2*%
%TA.AperFunction,SMDPad,CuDef*%
G36*
G01*
X126167500Y-107693750D02*
X126167500Y-108206250D01*
G75*
G02*
X125948750Y-108425000I-218750J0D01*
G01*
X125511250Y-108425000D01*
G75*
G02*
X125292500Y-108206250I0J218750D01*
G01*
X125292500Y-107693750D01*
G75*
G02*
X125511250Y-107475000I218750J0D01*
G01*
X125948750Y-107475000D01*
G75*
G02*
X126167500Y-107693750I0J-218750D01*
G01*
G37*
%TD.AperFunction*%
%TO.P,C5,2*%
%TO.N,GND*%
%TA.AperFunction,SMDPad,CuDef*%
G36*
G01*
X124592500Y-107693750D02*
X124592500Y-108206250D01*
G75*
G02*
X124373750Y-108425000I-218750J0D01*
G01*
X123936250Y-108425000D01*
G75*
G02*
X123717500Y-108206250I0J218750D01*
G01*
X123717500Y-107693750D01*
G75*
G02*
X123936250Y-107475000I218750J0D01*
G01*
X124373750Y-107475000D01*
G75*
G02*
X124592500Y-107693750I0J-218750D01*
G01*
G37*
%TD.AperFunction*%
%TD*%
D14*
%TO.P,Y1,1*%
%TO.N,/XTAL1*%
X120015000Y-102870000D03*
%TO.P,Y1,2*%
%TO.N,/XTAL2*%
X124895000Y-102870000D03*
%TD*%
D15*
%TO.P,U2,V3*%
%TO.N,GND*%
X73025000Y-93345000D03*
%TO.P,U2,V2*%
%TO.N,X_DIR*%
X73025000Y-90805000D03*
%TO.P,U2,V1*%
%TO.N,5V_IN*%
X73025000Y-88265000D03*
D16*
%TO.P,U2,S4*%
%TO.N,Net-(U2-PadS1)*%
X90805000Y-84137500D03*
%TO.P,U2,S3*%
X90805000Y-97472500D03*
%TO.P,U2,S2*%
X75565000Y-97472500D03*
%TO.P,U2,S1*%
X75565000Y-84137500D03*
D15*
%TO.P,U2,H3*%
%TO.N,GND*%
X85725000Y-100965000D03*
%TO.P,U2,H2*%
%TO.N,Y_DIR*%
X83185000Y-100965000D03*
%TO.P,U2,H1*%
%TO.N,5V_IN*%
X80645000Y-100965000D03*
%TO.P,U2,B2B*%
%TO.N,N/C*%
X86360000Y-83185000D03*
%TO.P,U2,B2A*%
%TO.N,SW1*%
X80010000Y-83185000D03*
%TO.P,U2,B1B*%
%TO.N,N/C*%
X86360000Y-78105000D03*
%TO.P,U2,B1A*%
%TO.N,5V_IN*%
X80010000Y-78105000D03*
%TD*%
%TO.P,U3,B1A*%
%TO.N,5V_IN*%
X149860000Y-78740000D03*
%TO.P,U3,B1B*%
%TO.N,N/C*%
X156210000Y-78740000D03*
%TO.P,U3,B2A*%
%TO.N,SW2*%
X149860000Y-83820000D03*
%TO.P,U3,B2B*%
%TO.N,N/C*%
X156210000Y-83820000D03*
%TO.P,U3,H1*%
%TO.N,5V_IN*%
X150495000Y-101600000D03*
%TO.P,U3,H2*%
%TO.N,B_DIR*%
X153035000Y-101600000D03*
%TO.P,U3,H3*%
%TO.N,GND*%
X155575000Y-101600000D03*
D16*
%TO.P,U3,S1*%
%TO.N,Net-(U3-PadS1)*%
X145415000Y-84772500D03*
%TO.P,U3,S2*%
X145415000Y-98107500D03*
%TO.P,U3,S3*%
X160655000Y-98107500D03*
%TO.P,U3,S4*%
X160655000Y-84772500D03*
D15*
%TO.P,U3,V1*%
%TO.N,5V_IN*%
X142875000Y-88900000D03*
%TO.P,U3,V2*%
%TO.N,A_DIR*%
X142875000Y-91440000D03*
%TO.P,U3,V3*%
%TO.N,GND*%
X142875000Y-93980000D03*
%TD*%
%TO.P,C6,1*%
%TO.N,+9V*%
%TA.AperFunction,SMDPad,CuDef*%
G36*
G01*
X80822500Y-107136250D02*
X80822500Y-106223750D01*
G75*
G02*
X81066250Y-105980000I243750J0D01*
G01*
X81553750Y-105980000D01*
G75*
G02*
X81797500Y-106223750I0J-243750D01*
G01*
X81797500Y-107136250D01*
G75*
G02*
X81553750Y-107380000I-243750J0D01*
G01*
X81066250Y-107380000D01*
G75*
G02*
X80822500Y-107136250I0J243750D01*
G01*
G37*
%TD.AperFunction*%
%TO.P,C6,2*%
%TO.N,GND*%
%TA.AperFunction,SMDPad,CuDef*%
G36*
G01*
X82697500Y-107136250D02*
X82697500Y-106223750D01*
G75*
G02*
X82941250Y-105980000I243750J0D01*
G01*
X83428750Y-105980000D01*
G75*
G02*
X83672500Y-106223750I0J-243750D01*
G01*
X83672500Y-107136250D01*
G75*
G02*
X83428750Y-107380000I-243750J0D01*
G01*
X82941250Y-107380000D01*
G75*
G02*
X82697500Y-107136250I0J243750D01*
G01*
G37*
%TD.AperFunction*%
%TD*%
%TO.P,C7,2*%
%TO.N,GND*%
%TA.AperFunction,SMDPad,CuDef*%
G36*
G01*
X157997500Y-106223750D02*
X157997500Y-107136250D01*
G75*
G02*
X157753750Y-107380000I-243750J0D01*
G01*
X157266250Y-107380000D01*
G75*
G02*
X157022500Y-107136250I0J243750D01*
G01*
X157022500Y-106223750D01*
G75*
G02*
X157266250Y-105980000I243750J0D01*
G01*
X157753750Y-105980000D01*
G75*
G02*
X157997500Y-106223750I0J-243750D01*
G01*
G37*
%TD.AperFunction*%
%TO.P,C7,1*%
%TO.N,5V_IN*%
%TA.AperFunction,SMDPad,CuDef*%
G36*
G01*
X159872500Y-106223750D02*
X159872500Y-107136250D01*
G75*
G02*
X159628750Y-107380000I-243750J0D01*
G01*
X159141250Y-107380000D01*
G75*
G02*
X158897500Y-107136250I0J243750D01*
G01*
X158897500Y-106223750D01*
G75*
G02*
X159141250Y-105980000I243750J0D01*
G01*
X159628750Y-105980000D01*
G75*
G02*
X159872500Y-106223750I0J-243750D01*
G01*
G37*
%TD.AperFunction*%
%TD*%
%TO.P,C8,2*%
%TO.N,GND*%
%TA.AperFunction,SMDPad,CuDef*%
G36*
G01*
X82747500Y-109476250D02*
X82747500Y-108963750D01*
G75*
G02*
X82966250Y-108745000I218750J0D01*
G01*
X83403750Y-108745000D01*
G75*
G02*
X83622500Y-108963750I0J-218750D01*
G01*
X83622500Y-109476250D01*
G75*
G02*
X83403750Y-109695000I-218750J0D01*
G01*
X82966250Y-109695000D01*
G75*
G02*
X82747500Y-109476250I0J218750D01*
G01*
G37*
%TD.AperFunction*%
%TO.P,C8,1*%
%TO.N,+9V*%
%TA.AperFunction,SMDPad,CuDef*%
G36*
G01*
X81172500Y-109476250D02*
X81172500Y-108963750D01*
G75*
G02*
X81391250Y-108745000I218750J0D01*
G01*
X81828750Y-108745000D01*
G75*
G02*
X82047500Y-108963750I0J-218750D01*
G01*
X82047500Y-109476250D01*
G75*
G02*
X81828750Y-109695000I-218750J0D01*
G01*
X81391250Y-109695000D01*
G75*
G02*
X81172500Y-109476250I0J218750D01*
G01*
G37*
%TD.AperFunction*%
%TD*%
%TO.P,C9,2*%
%TO.N,GND*%
%TA.AperFunction,SMDPad,CuDef*%
G36*
G01*
X157917500Y-108963750D02*
X157917500Y-109476250D01*
G75*
G02*
X157698750Y-109695000I-218750J0D01*
G01*
X157261250Y-109695000D01*
G75*
G02*
X157042500Y-109476250I0J218750D01*
G01*
X157042500Y-108963750D01*
G75*
G02*
X157261250Y-108745000I218750J0D01*
G01*
X157698750Y-108745000D01*
G75*
G02*
X157917500Y-108963750I0J-218750D01*
G01*
G37*
%TD.AperFunction*%
%TO.P,C9,1*%
%TO.N,5V_IN*%
%TA.AperFunction,SMDPad,CuDef*%
G36*
G01*
X159492500Y-108963750D02*
X159492500Y-109476250D01*
G75*
G02*
X159273750Y-109695000I-218750J0D01*
G01*
X158836250Y-109695000D01*
G75*
G02*
X158617500Y-109476250I0J218750D01*
G01*
X158617500Y-108963750D01*
G75*
G02*
X158836250Y-108745000I218750J0D01*
G01*
X159273750Y-108745000D01*
G75*
G02*
X159492500Y-108963750I0J-218750D01*
G01*
G37*
%TD.AperFunction*%
%TD*%
%TO.P,C10,2*%
%TO.N,GND*%
%TA.AperFunction,SMDPad,CuDef*%
G36*
G01*
X82697500Y-112851250D02*
X82697500Y-111938750D01*
G75*
G02*
X82941250Y-111695000I243750J0D01*
G01*
X83428750Y-111695000D01*
G75*
G02*
X83672500Y-111938750I0J-243750D01*
G01*
X83672500Y-112851250D01*
G75*
G02*
X83428750Y-113095000I-243750J0D01*
G01*
X82941250Y-113095000D01*
G75*
G02*
X82697500Y-112851250I0J243750D01*
G01*
G37*
%TD.AperFunction*%
%TO.P,C10,1*%
%TO.N,5V_IN*%
%TA.AperFunction,SMDPad,CuDef*%
G36*
G01*
X80822500Y-112851250D02*
X80822500Y-111938750D01*
G75*
G02*
X81066250Y-111695000I243750J0D01*
G01*
X81553750Y-111695000D01*
G75*
G02*
X81797500Y-111938750I0J-243750D01*
G01*
X81797500Y-112851250D01*
G75*
G02*
X81553750Y-113095000I-243750J0D01*
G01*
X81066250Y-113095000D01*
G75*
G02*
X80822500Y-112851250I0J243750D01*
G01*
G37*
%TD.AperFunction*%
%TD*%
%TO.P,C11,1*%
%TO.N,+3V3*%
%TA.AperFunction,SMDPad,CuDef*%
G36*
G01*
X159872500Y-111938750D02*
X159872500Y-112851250D01*
G75*
G02*
X159628750Y-113095000I-243750J0D01*
G01*
X159141250Y-113095000D01*
G75*
G02*
X158897500Y-112851250I0J243750D01*
G01*
X158897500Y-111938750D01*
G75*
G02*
X159141250Y-111695000I243750J0D01*
G01*
X159628750Y-111695000D01*
G75*
G02*
X159872500Y-111938750I0J-243750D01*
G01*
G37*
%TD.AperFunction*%
%TO.P,C11,2*%
%TO.N,GND*%
%TA.AperFunction,SMDPad,CuDef*%
G36*
G01*
X157997500Y-111938750D02*
X157997500Y-112851250D01*
G75*
G02*
X157753750Y-113095000I-243750J0D01*
G01*
X157266250Y-113095000D01*
G75*
G02*
X157022500Y-112851250I0J243750D01*
G01*
X157022500Y-111938750D01*
G75*
G02*
X157266250Y-111695000I243750J0D01*
G01*
X157753750Y-111695000D01*
G75*
G02*
X157997500Y-111938750I0J-243750D01*
G01*
G37*
%TD.AperFunction*%
%TD*%
%TO.P,C12,1*%
%TO.N,5V_IN*%
%TA.AperFunction,SMDPad,CuDef*%
G36*
G01*
X81172500Y-115191250D02*
X81172500Y-114678750D01*
G75*
G02*
X81391250Y-114460000I218750J0D01*
G01*
X81828750Y-114460000D01*
G75*
G02*
X82047500Y-114678750I0J-218750D01*
G01*
X82047500Y-115191250D01*
G75*
G02*
X81828750Y-115410000I-218750J0D01*
G01*
X81391250Y-115410000D01*
G75*
G02*
X81172500Y-115191250I0J218750D01*
G01*
G37*
%TD.AperFunction*%
%TO.P,C12,2*%
%TO.N,GND*%
%TA.AperFunction,SMDPad,CuDef*%
G36*
G01*
X82747500Y-115191250D02*
X82747500Y-114678750D01*
G75*
G02*
X82966250Y-114460000I218750J0D01*
G01*
X83403750Y-114460000D01*
G75*
G02*
X83622500Y-114678750I0J-218750D01*
G01*
X83622500Y-115191250D01*
G75*
G02*
X83403750Y-115410000I-218750J0D01*
G01*
X82966250Y-115410000D01*
G75*
G02*
X82747500Y-115191250I0J218750D01*
G01*
G37*
%TD.AperFunction*%
%TD*%
%TO.P,C13,1*%
%TO.N,+3V3*%
%TA.AperFunction,SMDPad,CuDef*%
G36*
G01*
X159492500Y-114678750D02*
X159492500Y-115191250D01*
G75*
G02*
X159273750Y-115410000I-218750J0D01*
G01*
X158836250Y-115410000D01*
G75*
G02*
X158617500Y-115191250I0J218750D01*
G01*
X158617500Y-114678750D01*
G75*
G02*
X158836250Y-114460000I218750J0D01*
G01*
X159273750Y-114460000D01*
G75*
G02*
X159492500Y-114678750I0J-218750D01*
G01*
G37*
%TD.AperFunction*%
%TO.P,C13,2*%
%TO.N,GND*%
%TA.AperFunction,SMDPad,CuDef*%
G36*
G01*
X157917500Y-114678750D02*
X157917500Y-115191250D01*
G75*
G02*
X157698750Y-115410000I-218750J0D01*
G01*
X157261250Y-115410000D01*
G75*
G02*
X157042500Y-115191250I0J218750D01*
G01*
X157042500Y-114678750D01*
G75*
G02*
X157261250Y-114460000I218750J0D01*
G01*
X157698750Y-114460000D01*
G75*
G02*
X157917500Y-114678750I0J-218750D01*
G01*
G37*
%TD.AperFunction*%
%TD*%
D17*
%TO.P,D1,1*%
%TO.N,+9V*%
X67945000Y-117475000D03*
D18*
%TO.P,D1,2*%
%TO.N,Net-(D1-Pad2)*%
X78105000Y-117475000D03*
%TD*%
D10*
%TO.P,J1,1*%
%TO.N,Net-(D1-Pad2)*%
X78105000Y-123190000D03*
D11*
%TO.P,J1,2*%
%TO.N,GND*%
X75565000Y-123190000D03*
%TD*%
D19*
%TO.P,U4,1*%
%TO.N,GND*%
X76785000Y-112790000D03*
%TO.P,U4,3*%
%TO.N,+9V*%
X76785000Y-108190000D03*
%TO.P,U4,2*%
%TO.N,5V_IN*%
X76785000Y-110490000D03*
D20*
X70485000Y-110490000D03*
%TD*%
%TO.P,U5,2*%
%TO.N,+3V3*%
X170180000Y-109855000D03*
D19*
X163880000Y-109855000D03*
%TO.P,U5,3*%
%TO.N,5V_IN*%
X163880000Y-112155000D03*
%TO.P,U5,1*%
%TO.N,GND*%
X163880000Y-107555000D03*
%TD*%
%TO.P,R2,1*%
%TO.N,GND*%
%TA.AperFunction,SMDPad,CuDef*%
G36*
G01*
X151457500Y-76021250D02*
X151457500Y-75108750D01*
G75*
G02*
X151701250Y-74865000I243750J0D01*
G01*
X152188750Y-74865000D01*
G75*
G02*
X152432500Y-75108750I0J-243750D01*
G01*
X152432500Y-76021250D01*
G75*
G02*
X152188750Y-76265000I-243750J0D01*
G01*
X151701250Y-76265000D01*
G75*
G02*
X151457500Y-76021250I0J243750D01*
G01*
G37*
%TD.AperFunction*%
%TO.P,R2,2*%
%TO.N,SW2*%
%TA.AperFunction,SMDPad,CuDef*%
G36*
G01*
X153332500Y-76021250D02*
X153332500Y-75108750D01*
G75*
G02*
X153576250Y-74865000I243750J0D01*
G01*
X154063750Y-74865000D01*
G75*
G02*
X154307500Y-75108750I0J-243750D01*
G01*
X154307500Y-76021250D01*
G75*
G02*
X154063750Y-76265000I-243750J0D01*
G01*
X153576250Y-76265000D01*
G75*
G02*
X153332500Y-76021250I0J243750D01*
G01*
G37*
%TD.AperFunction*%
%TD*%
%TO.P,R3,2*%
%TO.N,SW1*%
%TA.AperFunction,SMDPad,CuDef*%
G36*
G01*
X83635000Y-75386250D02*
X83635000Y-74473750D01*
G75*
G02*
X83878750Y-74230000I243750J0D01*
G01*
X84366250Y-74230000D01*
G75*
G02*
X84610000Y-74473750I0J-243750D01*
G01*
X84610000Y-75386250D01*
G75*
G02*
X84366250Y-75630000I-243750J0D01*
G01*
X83878750Y-75630000D01*
G75*
G02*
X83635000Y-75386250I0J243750D01*
G01*
G37*
%TD.AperFunction*%
%TO.P,R3,1*%
%TO.N,GND*%
%TA.AperFunction,SMDPad,CuDef*%
G36*
G01*
X81760000Y-75386250D02*
X81760000Y-74473750D01*
G75*
G02*
X82003750Y-74230000I243750J0D01*
G01*
X82491250Y-74230000D01*
G75*
G02*
X82735000Y-74473750I0J-243750D01*
G01*
X82735000Y-75386250D01*
G75*
G02*
X82491250Y-75630000I-243750J0D01*
G01*
X82003750Y-75630000D01*
G75*
G02*
X81760000Y-75386250I0J243750D01*
G01*
G37*
%TD.AperFunction*%
%TD*%
%TO.P,R4,2*%
%TO.N,GND*%
%TA.AperFunction,SMDPad,CuDef*%
G36*
G01*
X105860000Y-73481250D02*
X105860000Y-72568750D01*
G75*
G02*
X106103750Y-72325000I243750J0D01*
G01*
X106591250Y-72325000D01*
G75*
G02*
X106835000Y-72568750I0J-243750D01*
G01*
X106835000Y-73481250D01*
G75*
G02*
X106591250Y-73725000I-243750J0D01*
G01*
X106103750Y-73725000D01*
G75*
G02*
X105860000Y-73481250I0J243750D01*
G01*
G37*
%TD.AperFunction*%
%TO.P,R4,1*%
%TO.N,Z-PLUS*%
%TA.AperFunction,SMDPad,CuDef*%
G36*
G01*
X103985000Y-73481250D02*
X103985000Y-72568750D01*
G75*
G02*
X104228750Y-72325000I243750J0D01*
G01*
X104716250Y-72325000D01*
G75*
G02*
X104960000Y-72568750I0J-243750D01*
G01*
X104960000Y-73481250D01*
G75*
G02*
X104716250Y-73725000I-243750J0D01*
G01*
X104228750Y-73725000D01*
G75*
G02*
X103985000Y-73481250I0J243750D01*
G01*
G37*
%TD.AperFunction*%
%TD*%
%TO.P,R5,1*%
%TO.N,Z-MINUS*%
%TA.AperFunction,SMDPad,CuDef*%
G36*
G01*
X132560000Y-73481250D02*
X132560000Y-72568750D01*
G75*
G02*
X132803750Y-72325000I243750J0D01*
G01*
X133291250Y-72325000D01*
G75*
G02*
X133535000Y-72568750I0J-243750D01*
G01*
X133535000Y-73481250D01*
G75*
G02*
X133291250Y-73725000I-243750J0D01*
G01*
X132803750Y-73725000D01*
G75*
G02*
X132560000Y-73481250I0J243750D01*
G01*
G37*
%TD.AperFunction*%
%TO.P,R5,2*%
%TO.N,GND*%
%TA.AperFunction,SMDPad,CuDef*%
G36*
G01*
X134435000Y-73481250D02*
X134435000Y-72568750D01*
G75*
G02*
X134678750Y-72325000I243750J0D01*
G01*
X135166250Y-72325000D01*
G75*
G02*
X135410000Y-72568750I0J-243750D01*
G01*
X135410000Y-73481250D01*
G75*
G02*
X135166250Y-73725000I-243750J0D01*
G01*
X134678750Y-73725000D01*
G75*
G02*
X134435000Y-73481250I0J243750D01*
G01*
G37*
%TD.AperFunction*%
%TD*%
%TO.P,R6,1*%
%TO.N,HOME*%
%TA.AperFunction,SMDPad,CuDef*%
G36*
G01*
X103985000Y-111581250D02*
X103985000Y-110668750D01*
G75*
G02*
X104228750Y-110425000I243750J0D01*
G01*
X104716250Y-110425000D01*
G75*
G02*
X104960000Y-110668750I0J-243750D01*
G01*
X104960000Y-111581250D01*
G75*
G02*
X104716250Y-111825000I-243750J0D01*
G01*
X104228750Y-111825000D01*
G75*
G02*
X103985000Y-111581250I0J243750D01*
G01*
G37*
%TD.AperFunction*%
%TO.P,R6,2*%
%TO.N,GND*%
%TA.AperFunction,SMDPad,CuDef*%
G36*
G01*
X105860000Y-111581250D02*
X105860000Y-110668750D01*
G75*
G02*
X106103750Y-110425000I243750J0D01*
G01*
X106591250Y-110425000D01*
G75*
G02*
X106835000Y-110668750I0J-243750D01*
G01*
X106835000Y-111581250D01*
G75*
G02*
X106591250Y-111825000I-243750J0D01*
G01*
X106103750Y-111825000D01*
G75*
G02*
X105860000Y-111581250I0J243750D01*
G01*
G37*
%TD.AperFunction*%
%TD*%
%TO.P,R7,2*%
%TO.N,GND*%
%TA.AperFunction,SMDPad,CuDef*%
G36*
G01*
X135705000Y-111581250D02*
X135705000Y-110668750D01*
G75*
G02*
X135948750Y-110425000I243750J0D01*
G01*
X136436250Y-110425000D01*
G75*
G02*
X136680000Y-110668750I0J-243750D01*
G01*
X136680000Y-111581250D01*
G75*
G02*
X136436250Y-111825000I-243750J0D01*
G01*
X135948750Y-111825000D01*
G75*
G02*
X135705000Y-111581250I0J243750D01*
G01*
G37*
%TD.AperFunction*%
%TO.P,R7,1*%
%TO.N,CANCEL*%
%TA.AperFunction,SMDPad,CuDef*%
G36*
G01*
X133830000Y-111581250D02*
X133830000Y-110668750D01*
G75*
G02*
X134073750Y-110425000I243750J0D01*
G01*
X134561250Y-110425000D01*
G75*
G02*
X134805000Y-110668750I0J-243750D01*
G01*
X134805000Y-111581250D01*
G75*
G02*
X134561250Y-111825000I-243750J0D01*
G01*
X134073750Y-111825000D01*
G75*
G02*
X133830000Y-111581250I0J243750D01*
G01*
G37*
%TD.AperFunction*%
%TD*%
D21*
%TO.P,SW1,2*%
%TO.N,5V_IN*%
X100330000Y-81335000D03*
%TO.P,SW1,1*%
%TO.N,Z-PLUS*%
X100330000Y-76835000D03*
%TO.P,SW1,2*%
%TO.N,5V_IN*%
X106830000Y-81335000D03*
%TO.P,SW1,1*%
%TO.N,Z-PLUS*%
X106830000Y-76835000D03*
%TD*%
%TO.P,SW2,1*%
%TO.N,HOME*%
X106830000Y-102870000D03*
%TO.P,SW2,2*%
%TO.N,5V_IN*%
X106830000Y-107370000D03*
%TO.P,SW2,1*%
%TO.N,HOME*%
X100330000Y-102870000D03*
%TO.P,SW2,2*%
%TO.N,5V_IN*%
X100330000Y-107370000D03*
%TD*%
%TO.P,SW3,2*%
%TO.N,5V_IN*%
X131445000Y-81335000D03*
%TO.P,SW3,1*%
%TO.N,Z-MINUS*%
X131445000Y-76835000D03*
%TO.P,SW3,2*%
%TO.N,5V_IN*%
X137945000Y-81335000D03*
%TO.P,SW3,1*%
%TO.N,Z-MINUS*%
X137945000Y-76835000D03*
%TD*%
%TO.P,SW4,1*%
%TO.N,CANCEL*%
X138580000Y-102870000D03*
%TO.P,SW4,2*%
%TO.N,5V_IN*%
X138580000Y-107370000D03*
%TO.P,SW4,1*%
%TO.N,CANCEL*%
X132080000Y-102870000D03*
%TO.P,SW4,2*%
%TO.N,5V_IN*%
X132080000Y-107370000D03*
%TD*%
D10*
%TO.P,J2,1*%
%TO.N,RST*%
X80645000Y-68580000D03*
D11*
%TO.P,J2,2*%
%TO.N,TX*%
X83185000Y-68580000D03*
%TO.P,J2,3*%
%TO.N,RX*%
X85725000Y-68580000D03*
%TD*%
%TO.P,D2,1*%
%TO.N,GND*%
%TA.AperFunction,SMDPad,CuDef*%
G36*
G01*
X82092500Y-120471250D02*
X82092500Y-119558750D01*
G75*
G02*
X82336250Y-119315000I243750J0D01*
G01*
X82823750Y-119315000D01*
G75*
G02*
X83067500Y-119558750I0J-243750D01*
G01*
X83067500Y-120471250D01*
G75*
G02*
X82823750Y-120715000I-243750J0D01*
G01*
X82336250Y-120715000D01*
G75*
G02*
X82092500Y-120471250I0J243750D01*
G01*
G37*
%TD.AperFunction*%
%TO.P,D2,2*%
%TO.N,Net-(D2-Pad2)*%
%TA.AperFunction,SMDPad,CuDef*%
G36*
G01*
X83967500Y-120471250D02*
X83967500Y-119558750D01*
G75*
G02*
X84211250Y-119315000I243750J0D01*
G01*
X84698750Y-119315000D01*
G75*
G02*
X84942500Y-119558750I0J-243750D01*
G01*
X84942500Y-120471250D01*
G75*
G02*
X84698750Y-120715000I-243750J0D01*
G01*
X84211250Y-120715000D01*
G75*
G02*
X83967500Y-120471250I0J243750D01*
G01*
G37*
%TD.AperFunction*%
%TD*%
%TO.P,D3,2*%
%TO.N,Net-(D3-Pad2)*%
%TA.AperFunction,SMDPad,CuDef*%
G36*
G01*
X158897500Y-118566250D02*
X158897500Y-117653750D01*
G75*
G02*
X159141250Y-117410000I243750J0D01*
G01*
X159628750Y-117410000D01*
G75*
G02*
X159872500Y-117653750I0J-243750D01*
G01*
X159872500Y-118566250D01*
G75*
G02*
X159628750Y-118810000I-243750J0D01*
G01*
X159141250Y-118810000D01*
G75*
G02*
X158897500Y-118566250I0J243750D01*
G01*
G37*
%TD.AperFunction*%
%TO.P,D3,1*%
%TO.N,GND*%
%TA.AperFunction,SMDPad,CuDef*%
G36*
G01*
X157022500Y-118566250D02*
X157022500Y-117653750D01*
G75*
G02*
X157266250Y-117410000I243750J0D01*
G01*
X157753750Y-117410000D01*
G75*
G02*
X157997500Y-117653750I0J-243750D01*
G01*
X157997500Y-118566250D01*
G75*
G02*
X157753750Y-118810000I-243750J0D01*
G01*
X157266250Y-118810000D01*
G75*
G02*
X157022500Y-118566250I0J243750D01*
G01*
G37*
%TD.AperFunction*%
%TD*%
%TO.P,R8,2*%
%TO.N,Net-(D2-Pad2)*%
%TA.AperFunction,SMDPad,CuDef*%
G36*
G01*
X83967500Y-117931250D02*
X83967500Y-117018750D01*
G75*
G02*
X84211250Y-116775000I243750J0D01*
G01*
X84698750Y-116775000D01*
G75*
G02*
X84942500Y-117018750I0J-243750D01*
G01*
X84942500Y-117931250D01*
G75*
G02*
X84698750Y-118175000I-243750J0D01*
G01*
X84211250Y-118175000D01*
G75*
G02*
X83967500Y-117931250I0J243750D01*
G01*
G37*
%TD.AperFunction*%
%TO.P,R8,1*%
%TO.N,5V_IN*%
%TA.AperFunction,SMDPad,CuDef*%
G36*
G01*
X82092500Y-117931250D02*
X82092500Y-117018750D01*
G75*
G02*
X82336250Y-116775000I243750J0D01*
G01*
X82823750Y-116775000D01*
G75*
G02*
X83067500Y-117018750I0J-243750D01*
G01*
X83067500Y-117931250D01*
G75*
G02*
X82823750Y-118175000I-243750J0D01*
G01*
X82336250Y-118175000D01*
G75*
G02*
X82092500Y-117931250I0J243750D01*
G01*
G37*
%TD.AperFunction*%
%TD*%
%TO.P,R9,1*%
%TO.N,+3V3*%
%TA.AperFunction,SMDPad,CuDef*%
G36*
G01*
X157022500Y-121106250D02*
X157022500Y-120193750D01*
G75*
G02*
X157266250Y-119950000I243750J0D01*
G01*
X157753750Y-119950000D01*
G75*
G02*
X157997500Y-120193750I0J-243750D01*
G01*
X157997500Y-121106250D01*
G75*
G02*
X157753750Y-121350000I-243750J0D01*
G01*
X157266250Y-121350000D01*
G75*
G02*
X157022500Y-121106250I0J243750D01*
G01*
G37*
%TD.AperFunction*%
%TO.P,R9,2*%
%TO.N,Net-(D3-Pad2)*%
%TA.AperFunction,SMDPad,CuDef*%
G36*
G01*
X158897500Y-121106250D02*
X158897500Y-120193750D01*
G75*
G02*
X159141250Y-119950000I243750J0D01*
G01*
X159628750Y-119950000D01*
G75*
G02*
X159872500Y-120193750I0J-243750D01*
G01*
X159872500Y-121106250D01*
G75*
G02*
X159628750Y-121350000I-243750J0D01*
G01*
X159141250Y-121350000D01*
G75*
G02*
X158897500Y-121106250I0J243750D01*
G01*
G37*
%TD.AperFunction*%
%TD*%
D22*
%TO.N,GND*%
X82550000Y-74930000D03*
X120015000Y-91770000D03*
X74875861Y-93399139D03*
%TO.N,SW1*%
X95250000Y-97790000D03*
%TO.N,5V_IN*%
X162560000Y-102870000D03*
X158750000Y-104775000D03*
X79375000Y-114300000D03*
X87630000Y-114935000D03*
%TO.N,+9V*%
X76785000Y-108190000D03*
%TO.N,+3V3*%
X121285000Y-74295000D03*
X163830000Y-81280000D03*
%TO.N,RST*%
X103111250Y-92951250D03*
X95643750Y-92951250D03*
X86360000Y-72390000D03*
%TO.N,TX*%
X97155000Y-93980000D03*
%TO.N,RX*%
X94615000Y-94615000D03*
%TO.N,CE*%
X118110000Y-85090000D03*
X107950000Y-93345000D03*
X118110000Y-94615000D03*
%TO.N,CSN*%
X121285000Y-75565000D03*
X138430000Y-85725000D03*
X137795000Y-88900000D03*
%TO.N,MOSI*%
X129222500Y-84772500D03*
%TO.N,MISO*%
X124460000Y-83185000D03*
X126365000Y-85725000D03*
%TD*%
D23*
%TO.N,GND*%
X119380000Y-96520000D02*
X116205000Y-99695000D01*
X116205000Y-99695000D02*
X116205000Y-106680000D01*
X117170000Y-106680000D02*
X118440000Y-107950000D01*
X116205000Y-106680000D02*
X117170000Y-106680000D01*
X118440000Y-107950000D02*
X118440000Y-109550000D01*
X118440000Y-109550000D02*
X120015000Y-111125000D01*
X120980000Y-111125000D02*
X124155000Y-107950000D01*
X120015000Y-111125000D02*
X120980000Y-111125000D01*
X120015000Y-95885000D02*
X119380000Y-96520000D01*
X120015000Y-91770000D02*
X120015000Y-95885000D01*
X111760000Y-111125000D02*
X116205000Y-106680000D01*
X106347500Y-111125000D02*
X111760000Y-111125000D01*
X124155000Y-107950000D02*
X129235000Y-113030000D01*
X134287500Y-113030000D02*
X136192500Y-111125000D01*
X129235000Y-113030000D02*
X134287500Y-113030000D01*
X106347500Y-73025000D02*
X110490000Y-73025000D01*
X83185000Y-106680000D02*
X83185000Y-109220000D01*
X83185000Y-103505000D02*
X85725000Y-100965000D01*
X83185000Y-106680000D02*
X83185000Y-103505000D01*
X83185000Y-103505000D02*
X81915000Y-102235000D01*
X74821722Y-93345000D02*
X73025000Y-93345000D01*
X81915000Y-100438278D02*
X74875861Y-93399139D01*
X81915000Y-102235000D02*
X81915000Y-100438278D01*
X94615000Y-113030000D02*
X104442500Y-113030000D01*
X85725000Y-100965000D02*
X85725000Y-104140000D01*
X104442500Y-113030000D02*
X106347500Y-111125000D01*
X85725000Y-104140000D02*
X94615000Y-113030000D01*
X83185000Y-109220000D02*
X83185000Y-112395000D01*
X83185000Y-112395000D02*
X83185000Y-114935000D01*
X76785000Y-112790000D02*
X76785000Y-112980000D01*
X76785000Y-112980000D02*
X80645000Y-116840000D01*
X81280000Y-116840000D02*
X83185000Y-114935000D01*
X80645000Y-116840000D02*
X81280000Y-116840000D01*
X80645000Y-118110000D02*
X80645000Y-116840000D01*
X75565000Y-123190000D02*
X80645000Y-118110000D01*
X74875861Y-93399139D02*
X74821722Y-93345000D01*
X149405000Y-73025000D02*
X151945000Y-75565000D01*
X134922500Y-73025000D02*
X149405000Y-73025000D01*
X142875000Y-93980000D02*
X142875000Y-99695000D01*
X142875000Y-99695000D02*
X148590000Y-105410000D01*
X148590000Y-105410000D02*
X152400000Y-105410000D01*
X155575000Y-102235000D02*
X155575000Y-101600000D01*
X152400000Y-105410000D02*
X155575000Y-102235000D01*
X142875000Y-100330000D02*
X142875000Y-99695000D01*
X136192500Y-111125000D02*
X142240000Y-111125000D01*
X142875000Y-109220000D02*
X142875000Y-100330000D01*
X143510000Y-109855000D02*
X142875000Y-109220000D01*
X142240000Y-111125000D02*
X143510000Y-109855000D01*
X157925000Y-101600000D02*
X163880000Y-107555000D01*
X155575000Y-101600000D02*
X157925000Y-101600000D01*
X155575000Y-101600000D02*
X155575000Y-105410000D01*
X156845000Y-106680000D02*
X157510000Y-106680000D01*
X155575000Y-105410000D02*
X156845000Y-106680000D01*
X157510000Y-109190000D02*
X157480000Y-109220000D01*
X157510000Y-106680000D02*
X157510000Y-109190000D01*
X157480000Y-112365000D02*
X157510000Y-112395000D01*
X157480000Y-109220000D02*
X157480000Y-112365000D01*
X157510000Y-112395000D02*
X157510000Y-114905000D01*
X157510000Y-114905000D02*
X157480000Y-114935000D01*
X116840000Y-81915000D02*
X115570000Y-80645000D01*
X116840000Y-88900000D02*
X116840000Y-81915000D01*
X110490000Y-75565000D02*
X115570000Y-80645000D01*
X110490000Y-73025000D02*
X110490000Y-75565000D01*
X111515010Y-71999990D02*
X110490000Y-73025000D01*
X134922500Y-73025000D02*
X134620000Y-71755000D01*
X134375010Y-71999990D02*
X134620000Y-71755000D01*
X111515010Y-71999990D02*
X134375010Y-71999990D01*
X80675000Y-118110000D02*
X82580000Y-120015000D01*
X80645000Y-118110000D02*
X80675000Y-118110000D01*
X157480000Y-118080000D02*
X157510000Y-118110000D01*
X157480000Y-114935000D02*
X157480000Y-118080000D01*
%TO.N,/XTAL1*%
X120015000Y-102870000D02*
X120015000Y-107950000D01*
%TO.N,/XTAL2*%
X124895000Y-107115000D02*
X125730000Y-107950000D01*
X124895000Y-102870000D02*
X124895000Y-107115000D01*
%TO.N,SW2*%
X153820000Y-79860000D02*
X149860000Y-83820000D01*
X153820000Y-75565000D02*
X153820000Y-79860000D01*
%TO.N,SW1*%
X84122500Y-74930000D02*
X84122500Y-79072500D01*
X84122500Y-79072500D02*
X80010000Y-83185000D01*
X95250000Y-97790000D02*
X95250000Y-99060000D01*
X95250000Y-99060000D02*
X96520000Y-100330000D01*
X96520000Y-100330000D02*
X105410000Y-100330000D01*
X105410000Y-100330000D02*
X109220000Y-96520000D01*
%TO.N,A_DIR*%
X109220000Y-88900000D02*
X111125000Y-90805000D01*
X142240000Y-90805000D02*
X142875000Y-91440000D01*
X111125000Y-90805000D02*
X142240000Y-90805000D01*
%TO.N,Y_DIR*%
X100965000Y-92075000D02*
X104140000Y-88900000D01*
X86360000Y-92075000D02*
X100965000Y-92075000D01*
X83185000Y-100965000D02*
X83185000Y-95250000D01*
X83185000Y-95250000D02*
X86360000Y-92075000D01*
%TO.N,X_DIR*%
X99695000Y-90805000D02*
X101600000Y-88900000D01*
X73025000Y-90805000D02*
X99695000Y-90805000D01*
%TO.N,5V_IN*%
X129485000Y-81335000D02*
X121920000Y-88900000D01*
X131445000Y-81335000D02*
X129485000Y-81335000D01*
X71120000Y-90170000D02*
X73025000Y-88265000D01*
X71120000Y-95885000D02*
X71120000Y-90170000D01*
X80645000Y-100965000D02*
X76200000Y-100965000D01*
X76200000Y-100965000D02*
X71120000Y-95885000D01*
X76200000Y-100965000D02*
X74295000Y-100965000D01*
X70485000Y-104775000D02*
X70485000Y-110490000D01*
X74295000Y-100965000D02*
X70485000Y-104775000D01*
X70485000Y-110490000D02*
X76785000Y-110490000D01*
X81610000Y-112695000D02*
X81310000Y-112395000D01*
X81610000Y-114935000D02*
X81610000Y-112695000D01*
X78690000Y-112395000D02*
X76785000Y-110490000D01*
X81310000Y-112395000D02*
X78690000Y-112395000D01*
X73025000Y-83832765D02*
X73025000Y-88265000D01*
X78752765Y-78105000D02*
X73025000Y-83832765D01*
X80010000Y-78105000D02*
X78752765Y-78105000D01*
X140540000Y-78740000D02*
X137945000Y-81335000D01*
X149860000Y-78740000D02*
X140540000Y-78740000D01*
X137945000Y-81335000D02*
X144240000Y-87630000D01*
X144240000Y-87630000D02*
X149225000Y-87630000D01*
X150495000Y-88900000D02*
X150495000Y-101600000D01*
X149225000Y-87630000D02*
X150495000Y-88900000D01*
X159385000Y-108890000D02*
X159055000Y-109220000D01*
X159385000Y-106680000D02*
X159385000Y-108890000D01*
X160945000Y-109220000D02*
X163880000Y-112155000D01*
X159055000Y-109220000D02*
X160945000Y-109220000D01*
X151709001Y-100385999D02*
X160075999Y-100385999D01*
X150495000Y-101600000D02*
X151709001Y-100385999D01*
X160075999Y-100385999D02*
X162560000Y-102870000D01*
X162560000Y-102870000D02*
X162560000Y-102870000D01*
X159385000Y-106680000D02*
X159385000Y-105410000D01*
X159385000Y-105410000D02*
X158750000Y-104775000D01*
X158750000Y-104775000D02*
X158750000Y-104775000D01*
X142875000Y-88900000D02*
X144145000Y-87630000D01*
X78690000Y-112395000D02*
X78690000Y-113615000D01*
X78690000Y-113615000D02*
X79375000Y-114300000D01*
X79375000Y-114300000D02*
X79375000Y-114300000D01*
X82580000Y-117475000D02*
X82580000Y-116235000D01*
X82580000Y-116235000D02*
X82610000Y-116205000D01*
X82580000Y-116235000D02*
X86330000Y-116235000D01*
X86330000Y-116235000D02*
X87630000Y-114935000D01*
X87630000Y-114935000D02*
X87630000Y-114935000D01*
%TO.N,+9V*%
X79800000Y-108190000D02*
X81310000Y-106680000D01*
X76785000Y-108190000D02*
X76785000Y-108190000D01*
X81310000Y-108920000D02*
X81610000Y-109220000D01*
X81310000Y-106680000D02*
X81310000Y-108920000D01*
X76785000Y-108190000D02*
X79800000Y-108190000D01*
%TO.N,+3V3*%
X170180000Y-109855000D02*
X163880000Y-109855000D01*
X170180000Y-109855000D02*
X170180000Y-113665000D01*
X168910000Y-114935000D02*
X159055000Y-114935000D01*
X170180000Y-113665000D02*
X168910000Y-114935000D01*
X159385000Y-114605000D02*
X159055000Y-114935000D01*
X159385000Y-112395000D02*
X159385000Y-114605000D01*
X115570000Y-78105000D02*
X119380000Y-74295000D01*
X119380000Y-74295000D02*
X121285000Y-74295000D01*
X121285000Y-74295000D02*
X121285000Y-74295000D01*
X163830000Y-103505000D02*
X170180000Y-109855000D01*
X163830000Y-81280000D02*
X163830000Y-103505000D01*
X159055000Y-114935000D02*
X161290000Y-117170000D01*
X161290000Y-117170000D02*
X161290000Y-121920000D01*
X161290000Y-121920000D02*
X160655000Y-122555000D01*
X160655000Y-122555000D02*
X158115000Y-122555000D01*
X158115000Y-121255000D02*
X157510000Y-120650000D01*
X158115000Y-122555000D02*
X158115000Y-121255000D01*
%TO.N,Z-PLUS*%
X100662500Y-76835000D02*
X100330000Y-76835000D01*
X104472500Y-73025000D02*
X100662500Y-76835000D01*
X109855000Y-86995000D02*
X111760000Y-88900000D01*
X106830000Y-76835000D02*
X109855000Y-79860000D01*
X109855000Y-79860000D02*
X109855000Y-86995000D01*
%TO.N,Z-MINUS*%
X133047500Y-75232500D02*
X131445000Y-76835000D01*
X133047500Y-73025000D02*
X133047500Y-75232500D01*
X131445000Y-76835000D02*
X134620000Y-80010000D01*
X134620000Y-80010000D02*
X134620000Y-88900000D01*
%TO.N,HOME*%
X104472500Y-105227500D02*
X104472500Y-111125000D01*
X106830000Y-102870000D02*
X104472500Y-105227500D01*
X107950000Y-102870000D02*
X114300000Y-96520000D01*
X106830000Y-102870000D02*
X107950000Y-102870000D01*
%TO.N,CANCEL*%
X132080000Y-102870000D02*
X130175000Y-104775000D01*
X130175000Y-104775000D02*
X130175000Y-110490000D01*
X133682500Y-110490000D02*
X134317500Y-111125000D01*
X130175000Y-110490000D02*
X133682500Y-110490000D01*
X132080000Y-99060000D02*
X134620000Y-96520000D01*
X132080000Y-102870000D02*
X132080000Y-99060000D01*
%TO.N,RST*%
X103111250Y-92951250D02*
X95643750Y-92951250D01*
X95491250Y-92951250D02*
X95250000Y-92710000D01*
X95643750Y-92951250D02*
X95491250Y-92951250D01*
X83185000Y-72390000D02*
X86360000Y-72390000D01*
X80645000Y-68580000D02*
X80645000Y-69850000D01*
X80645000Y-69850000D02*
X83185000Y-72390000D01*
%TO.N,TX*%
X106680000Y-96520000D02*
X104140000Y-93980000D01*
X104140000Y-93980000D02*
X97155000Y-93980000D01*
X97155000Y-93980000D02*
X97155000Y-93980000D01*
%TO.N,RX*%
X104140000Y-96520000D02*
X100965000Y-99695000D01*
X100965000Y-99695000D02*
X99695000Y-99695000D01*
X99695000Y-99695000D02*
X94615000Y-94615000D01*
X94615000Y-94615000D02*
X94615000Y-94615000D01*
%TO.N,CE*%
X118110000Y-80645000D02*
X118110000Y-85090000D01*
X118110000Y-85090000D02*
X118110000Y-85090000D01*
X107950000Y-93345000D02*
X116840000Y-93345000D01*
X116840000Y-93345000D02*
X118110000Y-94615000D01*
X118110000Y-94615000D02*
X118110000Y-94615000D01*
%TO.N,CSN*%
X118110000Y-78105000D02*
X120650000Y-75565000D01*
X120650000Y-75565000D02*
X121285000Y-75565000D01*
X121285000Y-75565000D02*
X121285000Y-75565000D01*
X138430000Y-85725000D02*
X138430000Y-88265000D01*
X138430000Y-88265000D02*
X137795000Y-88900000D01*
X137795000Y-88900000D02*
X137795000Y-88900000D01*
%TO.N,SCK*%
X123005010Y-90354990D02*
X124460000Y-88900000D01*
X120650000Y-80645000D02*
X120650000Y-90354990D01*
X120650000Y-90354990D02*
X123005010Y-90354990D01*
%TO.N,MOSI*%
X129222500Y-88582500D02*
X129540000Y-88900000D01*
X129222500Y-84772500D02*
X129222500Y-88582500D01*
%TO.N,MISO*%
X123190000Y-80645000D02*
X123190000Y-81915000D01*
X123190000Y-81915000D02*
X124460000Y-83185000D01*
X124460000Y-83185000D02*
X124460000Y-83185000D01*
X126365000Y-88265000D02*
X127000000Y-88900000D01*
X126365000Y-85725000D02*
X126365000Y-88265000D01*
%TO.N,Net-(D2-Pad2)*%
X84455000Y-117475000D02*
X84455000Y-120015000D01*
%TO.N,Net-(D3-Pad2)*%
X159385000Y-118110000D02*
X159385000Y-120650000D01*
%TD*%
M02*
