%TF.GenerationSoftware,KiCad,Pcbnew,(5.1.6)-1*%
%TF.CreationDate,2021-07-30T14:46:14+05:30*%
%TF.ProjectId,StockPile_Final,53746f63-6b50-4696-9c65-5f46696e616c,rev?*%
%TF.SameCoordinates,Original*%
%TF.FileFunction,Legend,Top*%
%TF.FilePolarity,Positive*%
%FSLAX46Y46*%
G04 Gerber Fmt 4.6, Leading zero omitted, Abs format (unit mm)*
G04 Created by KiCad (PCBNEW (5.1.6)-1) date 2021-07-30 14:46:14*
%MOMM*%
%LPD*%
G01*
G04 APERTURE LIST*
%ADD10C,0.150000*%
%ADD11C,0.100000*%
%ADD12C,0.120000*%
G04 APERTURE END LIST*
D10*
X98298095Y-59190000D02*
X98202857Y-59142380D01*
X98060000Y-59142380D01*
X97917142Y-59190000D01*
X97821904Y-59285238D01*
X97774285Y-59380476D01*
X97726666Y-59570952D01*
X97726666Y-59713809D01*
X97774285Y-59904285D01*
X97821904Y-59999523D01*
X97917142Y-60094761D01*
X98060000Y-60142380D01*
X98155238Y-60142380D01*
X98298095Y-60094761D01*
X98345714Y-60047142D01*
X98345714Y-59713809D01*
X98155238Y-59713809D01*
X98774285Y-60142380D02*
X98774285Y-59142380D01*
X99345714Y-60142380D01*
X99345714Y-59142380D01*
X99821904Y-60142380D02*
X99821904Y-59142380D01*
X100060000Y-59142380D01*
X100202857Y-59190000D01*
X100298095Y-59285238D01*
X100345714Y-59380476D01*
X100393333Y-59570952D01*
X100393333Y-59713809D01*
X100345714Y-59904285D01*
X100298095Y-59999523D01*
X100202857Y-60094761D01*
X100060000Y-60142380D01*
X99821904Y-60142380D01*
X98440952Y-70302380D02*
X98631428Y-70302380D01*
X98726666Y-70254761D01*
X98774285Y-70207142D01*
X98869523Y-70064285D01*
X98917142Y-69873809D01*
X98917142Y-69492857D01*
X98869523Y-69397619D01*
X98821904Y-69350000D01*
X98726666Y-69302380D01*
X98536190Y-69302380D01*
X98440952Y-69350000D01*
X98393333Y-69397619D01*
X98345714Y-69492857D01*
X98345714Y-69730952D01*
X98393333Y-69826190D01*
X98440952Y-69873809D01*
X98536190Y-69921428D01*
X98726666Y-69921428D01*
X98821904Y-69873809D01*
X98869523Y-69826190D01*
X98917142Y-69730952D01*
X99202857Y-69302380D02*
X99536190Y-70302380D01*
X99869523Y-69302380D01*
X185428095Y-90336666D02*
X185904285Y-90336666D01*
X185332857Y-90622380D02*
X185666190Y-89622380D01*
X185999523Y-90622380D01*
X186332857Y-90622380D02*
X186332857Y-89622380D01*
X186570952Y-89622380D01*
X186713809Y-89670000D01*
X186809047Y-89765238D01*
X186856666Y-89860476D01*
X186904285Y-90050952D01*
X186904285Y-90193809D01*
X186856666Y-90384285D01*
X186809047Y-90479523D01*
X186713809Y-90574761D01*
X186570952Y-90622380D01*
X186332857Y-90622380D01*
X187523333Y-89622380D02*
X187713809Y-89622380D01*
X187809047Y-89670000D01*
X187904285Y-89765238D01*
X187951904Y-89955714D01*
X187951904Y-90289047D01*
X187904285Y-90479523D01*
X187809047Y-90574761D01*
X187713809Y-90622380D01*
X187523333Y-90622380D01*
X187428095Y-90574761D01*
X187332857Y-90479523D01*
X187285238Y-90289047D01*
X187285238Y-89955714D01*
X187332857Y-89765238D01*
X187428095Y-89670000D01*
X187523333Y-89622380D01*
X185070952Y-87763333D02*
X185451904Y-87763333D01*
X184994761Y-87991904D02*
X185261428Y-87191904D01*
X185528095Y-87991904D01*
X185604285Y-88068095D02*
X186213809Y-88068095D01*
X186366190Y-87953809D02*
X186480476Y-87991904D01*
X186670952Y-87991904D01*
X186747142Y-87953809D01*
X186785238Y-87915714D01*
X186823333Y-87839523D01*
X186823333Y-87763333D01*
X186785238Y-87687142D01*
X186747142Y-87649047D01*
X186670952Y-87610952D01*
X186518571Y-87572857D01*
X186442380Y-87534761D01*
X186404285Y-87496666D01*
X186366190Y-87420476D01*
X186366190Y-87344285D01*
X186404285Y-87268095D01*
X186442380Y-87230000D01*
X186518571Y-87191904D01*
X186709047Y-87191904D01*
X186823333Y-87230000D01*
X187166190Y-87991904D02*
X187166190Y-87191904D01*
X187356666Y-87191904D01*
X187470952Y-87230000D01*
X187547142Y-87306190D01*
X187585238Y-87382380D01*
X187623333Y-87534761D01*
X187623333Y-87649047D01*
X187585238Y-87801428D01*
X187547142Y-87877619D01*
X187470952Y-87953809D01*
X187356666Y-87991904D01*
X187166190Y-87991904D01*
X187928095Y-87763333D02*
X188309047Y-87763333D01*
X187851904Y-87991904D02*
X188118571Y-87191904D01*
X188385238Y-87991904D01*
X185090000Y-85223333D02*
X185470952Y-85223333D01*
X185013809Y-85451904D02*
X185280476Y-84651904D01*
X185547142Y-85451904D01*
X185623333Y-85528095D02*
X186232857Y-85528095D01*
X186385238Y-85413809D02*
X186499523Y-85451904D01*
X186690000Y-85451904D01*
X186766190Y-85413809D01*
X186804285Y-85375714D01*
X186842380Y-85299523D01*
X186842380Y-85223333D01*
X186804285Y-85147142D01*
X186766190Y-85109047D01*
X186690000Y-85070952D01*
X186537619Y-85032857D01*
X186461428Y-84994761D01*
X186423333Y-84956666D01*
X186385238Y-84880476D01*
X186385238Y-84804285D01*
X186423333Y-84728095D01*
X186461428Y-84690000D01*
X186537619Y-84651904D01*
X186728095Y-84651904D01*
X186842380Y-84690000D01*
X187642380Y-85375714D02*
X187604285Y-85413809D01*
X187490000Y-85451904D01*
X187413809Y-85451904D01*
X187299523Y-85413809D01*
X187223333Y-85337619D01*
X187185238Y-85261428D01*
X187147142Y-85109047D01*
X187147142Y-84994761D01*
X187185238Y-84842380D01*
X187223333Y-84766190D01*
X187299523Y-84690000D01*
X187413809Y-84651904D01*
X187490000Y-84651904D01*
X187604285Y-84690000D01*
X187642380Y-84728095D01*
X188366190Y-85451904D02*
X187985238Y-85451904D01*
X187985238Y-84651904D01*
X185475714Y-82954761D02*
X185618571Y-83002380D01*
X185856666Y-83002380D01*
X185951904Y-82954761D01*
X185999523Y-82907142D01*
X186047142Y-82811904D01*
X186047142Y-82716666D01*
X185999523Y-82621428D01*
X185951904Y-82573809D01*
X185856666Y-82526190D01*
X185666190Y-82478571D01*
X185570952Y-82430952D01*
X185523333Y-82383333D01*
X185475714Y-82288095D01*
X185475714Y-82192857D01*
X185523333Y-82097619D01*
X185570952Y-82050000D01*
X185666190Y-82002380D01*
X185904285Y-82002380D01*
X186047142Y-82050000D01*
X186475714Y-83002380D02*
X186475714Y-82002380D01*
X186713809Y-82002380D01*
X186856666Y-82050000D01*
X186951904Y-82145238D01*
X186999523Y-82240476D01*
X187047142Y-82430952D01*
X187047142Y-82573809D01*
X186999523Y-82764285D01*
X186951904Y-82859523D01*
X186856666Y-82954761D01*
X186713809Y-83002380D01*
X186475714Y-83002380D01*
X187428095Y-82716666D02*
X187904285Y-82716666D01*
X187332857Y-83002380D02*
X187666190Y-82002380D01*
X187999523Y-83002380D01*
X185499523Y-80414761D02*
X185642380Y-80462380D01*
X185880476Y-80462380D01*
X185975714Y-80414761D01*
X186023333Y-80367142D01*
X186070952Y-80271904D01*
X186070952Y-80176666D01*
X186023333Y-80081428D01*
X185975714Y-80033809D01*
X185880476Y-79986190D01*
X185690000Y-79938571D01*
X185594761Y-79890952D01*
X185547142Y-79843333D01*
X185499523Y-79748095D01*
X185499523Y-79652857D01*
X185547142Y-79557619D01*
X185594761Y-79510000D01*
X185690000Y-79462380D01*
X185928095Y-79462380D01*
X186070952Y-79510000D01*
X187070952Y-80367142D02*
X187023333Y-80414761D01*
X186880476Y-80462380D01*
X186785238Y-80462380D01*
X186642380Y-80414761D01*
X186547142Y-80319523D01*
X186499523Y-80224285D01*
X186451904Y-80033809D01*
X186451904Y-79890952D01*
X186499523Y-79700476D01*
X186547142Y-79605238D01*
X186642380Y-79510000D01*
X186785238Y-79462380D01*
X186880476Y-79462380D01*
X187023333Y-79510000D01*
X187070952Y-79557619D01*
X187975714Y-80462380D02*
X187499523Y-80462380D01*
X187499523Y-79462380D01*
X185928095Y-76970000D02*
X185832857Y-76922380D01*
X185690000Y-76922380D01*
X185547142Y-76970000D01*
X185451904Y-77065238D01*
X185404285Y-77160476D01*
X185356666Y-77350952D01*
X185356666Y-77493809D01*
X185404285Y-77684285D01*
X185451904Y-77779523D01*
X185547142Y-77874761D01*
X185690000Y-77922380D01*
X185785238Y-77922380D01*
X185928095Y-77874761D01*
X185975714Y-77827142D01*
X185975714Y-77493809D01*
X185785238Y-77493809D01*
X186404285Y-77922380D02*
X186404285Y-76922380D01*
X186975714Y-77922380D01*
X186975714Y-76922380D01*
X187451904Y-77922380D02*
X187451904Y-76922380D01*
X187690000Y-76922380D01*
X187832857Y-76970000D01*
X187928095Y-77065238D01*
X187975714Y-77160476D01*
X188023333Y-77350952D01*
X188023333Y-77493809D01*
X187975714Y-77684285D01*
X187928095Y-77779523D01*
X187832857Y-77874761D01*
X187690000Y-77922380D01*
X187451904Y-77922380D01*
X186499523Y-74382380D02*
X186023333Y-74382380D01*
X185975714Y-74858571D01*
X186023333Y-74810952D01*
X186118571Y-74763333D01*
X186356666Y-74763333D01*
X186451904Y-74810952D01*
X186499523Y-74858571D01*
X186547142Y-74953809D01*
X186547142Y-75191904D01*
X186499523Y-75287142D01*
X186451904Y-75334761D01*
X186356666Y-75382380D01*
X186118571Y-75382380D01*
X186023333Y-75334761D01*
X185975714Y-75287142D01*
X186832857Y-74382380D02*
X187166190Y-75382380D01*
X187499523Y-74382380D01*
X182118095Y-106180000D02*
X182022857Y-106132380D01*
X181880000Y-106132380D01*
X181737142Y-106180000D01*
X181641904Y-106275238D01*
X181594285Y-106370476D01*
X181546666Y-106560952D01*
X181546666Y-106703809D01*
X181594285Y-106894285D01*
X181641904Y-106989523D01*
X181737142Y-107084761D01*
X181880000Y-107132380D01*
X181975238Y-107132380D01*
X182118095Y-107084761D01*
X182165714Y-107037142D01*
X182165714Y-106703809D01*
X181975238Y-106703809D01*
X182594285Y-107132380D02*
X182594285Y-106132380D01*
X183165714Y-107132380D01*
X183165714Y-106132380D01*
X183641904Y-107132380D02*
X183641904Y-106132380D01*
X183880000Y-106132380D01*
X184022857Y-106180000D01*
X184118095Y-106275238D01*
X184165714Y-106370476D01*
X184213333Y-106560952D01*
X184213333Y-106703809D01*
X184165714Y-106894285D01*
X184118095Y-106989523D01*
X184022857Y-107084761D01*
X183880000Y-107132380D01*
X183641904Y-107132380D01*
X180473333Y-107029047D02*
X180473333Y-106648095D01*
X180701904Y-107105238D02*
X179901904Y-106838571D01*
X180701904Y-106571904D01*
X180778095Y-106495714D02*
X180778095Y-105886190D01*
X180663809Y-105733809D02*
X180701904Y-105619523D01*
X180701904Y-105429047D01*
X180663809Y-105352857D01*
X180625714Y-105314761D01*
X180549523Y-105276666D01*
X180473333Y-105276666D01*
X180397142Y-105314761D01*
X180359047Y-105352857D01*
X180320952Y-105429047D01*
X180282857Y-105581428D01*
X180244761Y-105657619D01*
X180206666Y-105695714D01*
X180130476Y-105733809D01*
X180054285Y-105733809D01*
X179978095Y-105695714D01*
X179940000Y-105657619D01*
X179901904Y-105581428D01*
X179901904Y-105390952D01*
X179940000Y-105276666D01*
X180701904Y-104933809D02*
X179901904Y-104933809D01*
X179901904Y-104743333D01*
X179940000Y-104629047D01*
X180016190Y-104552857D01*
X180092380Y-104514761D01*
X180244761Y-104476666D01*
X180359047Y-104476666D01*
X180511428Y-104514761D01*
X180587619Y-104552857D01*
X180663809Y-104629047D01*
X180701904Y-104743333D01*
X180701904Y-104933809D01*
X180473333Y-104171904D02*
X180473333Y-103790952D01*
X180701904Y-104248095D02*
X179901904Y-103981428D01*
X180701904Y-103714761D01*
X177933333Y-107010000D02*
X177933333Y-106629047D01*
X178161904Y-107086190D02*
X177361904Y-106819523D01*
X178161904Y-106552857D01*
X178238095Y-106476666D02*
X178238095Y-105867142D01*
X178123809Y-105714761D02*
X178161904Y-105600476D01*
X178161904Y-105410000D01*
X178123809Y-105333809D01*
X178085714Y-105295714D01*
X178009523Y-105257619D01*
X177933333Y-105257619D01*
X177857142Y-105295714D01*
X177819047Y-105333809D01*
X177780952Y-105410000D01*
X177742857Y-105562380D01*
X177704761Y-105638571D01*
X177666666Y-105676666D01*
X177590476Y-105714761D01*
X177514285Y-105714761D01*
X177438095Y-105676666D01*
X177400000Y-105638571D01*
X177361904Y-105562380D01*
X177361904Y-105371904D01*
X177400000Y-105257619D01*
X178085714Y-104457619D02*
X178123809Y-104495714D01*
X178161904Y-104610000D01*
X178161904Y-104686190D01*
X178123809Y-104800476D01*
X178047619Y-104876666D01*
X177971428Y-104914761D01*
X177819047Y-104952857D01*
X177704761Y-104952857D01*
X177552380Y-104914761D01*
X177476190Y-104876666D01*
X177400000Y-104800476D01*
X177361904Y-104686190D01*
X177361904Y-104610000D01*
X177400000Y-104495714D01*
X177438095Y-104457619D01*
X178161904Y-103733809D02*
X178161904Y-104114761D01*
X177361904Y-104114761D01*
X171243809Y-108672380D02*
X171862857Y-108672380D01*
X171529523Y-109053333D01*
X171672380Y-109053333D01*
X171767619Y-109100952D01*
X171815238Y-109148571D01*
X171862857Y-109243809D01*
X171862857Y-109481904D01*
X171815238Y-109577142D01*
X171767619Y-109624761D01*
X171672380Y-109672380D01*
X171386666Y-109672380D01*
X171291428Y-109624761D01*
X171243809Y-109577142D01*
X172291428Y-109577142D02*
X172339047Y-109624761D01*
X172291428Y-109672380D01*
X172243809Y-109624761D01*
X172291428Y-109577142D01*
X172291428Y-109672380D01*
X172672380Y-108672380D02*
X173291428Y-108672380D01*
X172958095Y-109053333D01*
X173100952Y-109053333D01*
X173196190Y-109100952D01*
X173243809Y-109148571D01*
X173291428Y-109243809D01*
X173291428Y-109481904D01*
X173243809Y-109577142D01*
X173196190Y-109624761D01*
X173100952Y-109672380D01*
X172815238Y-109672380D01*
X172720000Y-109624761D01*
X172672380Y-109577142D01*
X173577142Y-108672380D02*
X173910476Y-109672380D01*
X174243809Y-108672380D01*
X140152380Y-104322380D02*
X139676190Y-104655714D01*
X140152380Y-104893809D02*
X139152380Y-104893809D01*
X139152380Y-104512857D01*
X139200000Y-104417619D01*
X139247619Y-104370000D01*
X139342857Y-104322380D01*
X139485714Y-104322380D01*
X139580952Y-104370000D01*
X139628571Y-104417619D01*
X139676190Y-104512857D01*
X139676190Y-104893809D01*
X139628571Y-103893809D02*
X139628571Y-103560476D01*
X140152380Y-103417619D02*
X140152380Y-103893809D01*
X139152380Y-103893809D01*
X139152380Y-103417619D01*
X140104761Y-103036666D02*
X140152380Y-102893809D01*
X140152380Y-102655714D01*
X140104761Y-102560476D01*
X140057142Y-102512857D01*
X139961904Y-102465238D01*
X139866666Y-102465238D01*
X139771428Y-102512857D01*
X139723809Y-102560476D01*
X139676190Y-102655714D01*
X139628571Y-102846190D01*
X139580952Y-102941428D01*
X139533333Y-102989047D01*
X139438095Y-103036666D01*
X139342857Y-103036666D01*
X139247619Y-102989047D01*
X139200000Y-102941428D01*
X139152380Y-102846190D01*
X139152380Y-102608095D01*
X139200000Y-102465238D01*
X139628571Y-102036666D02*
X139628571Y-101703333D01*
X140152380Y-101560476D02*
X140152380Y-102036666D01*
X139152380Y-102036666D01*
X139152380Y-101560476D01*
X139152380Y-101274761D02*
X139152380Y-100703333D01*
X140152380Y-100989047D02*
X139152380Y-100989047D01*
X135874285Y-104544761D02*
X136017142Y-104592380D01*
X136255238Y-104592380D01*
X136350476Y-104544761D01*
X136398095Y-104497142D01*
X136445714Y-104401904D01*
X136445714Y-104306666D01*
X136398095Y-104211428D01*
X136350476Y-104163809D01*
X136255238Y-104116190D01*
X136064761Y-104068571D01*
X135969523Y-104020952D01*
X135921904Y-103973333D01*
X135874285Y-103878095D01*
X135874285Y-103782857D01*
X135921904Y-103687619D01*
X135969523Y-103640000D01*
X136064761Y-103592380D01*
X136302857Y-103592380D01*
X136445714Y-103640000D01*
X137445714Y-104497142D02*
X137398095Y-104544761D01*
X137255238Y-104592380D01*
X137160000Y-104592380D01*
X137017142Y-104544761D01*
X136921904Y-104449523D01*
X136874285Y-104354285D01*
X136826666Y-104163809D01*
X136826666Y-104020952D01*
X136874285Y-103830476D01*
X136921904Y-103735238D01*
X137017142Y-103640000D01*
X137160000Y-103592380D01*
X137255238Y-103592380D01*
X137398095Y-103640000D01*
X137445714Y-103687619D01*
X137874285Y-104592380D02*
X137874285Y-103592380D01*
X138445714Y-104592380D02*
X138017142Y-104020952D01*
X138445714Y-103592380D02*
X137874285Y-104163809D01*
D11*
X136374285Y-110716190D02*
X136374285Y-110216190D01*
X136540952Y-110573333D01*
X136707619Y-110216190D01*
X136707619Y-110716190D01*
X137040952Y-110216190D02*
X137136190Y-110216190D01*
X137183809Y-110240000D01*
X137231428Y-110287619D01*
X137255238Y-110382857D01*
X137255238Y-110549523D01*
X137231428Y-110644761D01*
X137183809Y-110692380D01*
X137136190Y-110716190D01*
X137040952Y-110716190D01*
X136993333Y-110692380D01*
X136945714Y-110644761D01*
X136921904Y-110549523D01*
X136921904Y-110382857D01*
X136945714Y-110287619D01*
X136993333Y-110240000D01*
X137040952Y-110216190D01*
X137445714Y-110692380D02*
X137517142Y-110716190D01*
X137636190Y-110716190D01*
X137683809Y-110692380D01*
X137707619Y-110668571D01*
X137731428Y-110620952D01*
X137731428Y-110573333D01*
X137707619Y-110525714D01*
X137683809Y-110501904D01*
X137636190Y-110478095D01*
X137540952Y-110454285D01*
X137493333Y-110430476D01*
X137469523Y-110406666D01*
X137445714Y-110359047D01*
X137445714Y-110311428D01*
X137469523Y-110263809D01*
X137493333Y-110240000D01*
X137540952Y-110216190D01*
X137660000Y-110216190D01*
X137731428Y-110240000D01*
X137945714Y-110716190D02*
X137945714Y-110216190D01*
D10*
X141478095Y-108720000D02*
X141382857Y-108672380D01*
X141240000Y-108672380D01*
X141097142Y-108720000D01*
X141001904Y-108815238D01*
X140954285Y-108910476D01*
X140906666Y-109100952D01*
X140906666Y-109243809D01*
X140954285Y-109434285D01*
X141001904Y-109529523D01*
X141097142Y-109624761D01*
X141240000Y-109672380D01*
X141335238Y-109672380D01*
X141478095Y-109624761D01*
X141525714Y-109577142D01*
X141525714Y-109243809D01*
X141335238Y-109243809D01*
X141954285Y-109672380D02*
X141954285Y-108672380D01*
X142525714Y-109672380D01*
X142525714Y-108672380D01*
X143001904Y-109672380D02*
X143001904Y-108672380D01*
X143240000Y-108672380D01*
X143382857Y-108720000D01*
X143478095Y-108815238D01*
X143525714Y-108910476D01*
X143573333Y-109100952D01*
X143573333Y-109243809D01*
X143525714Y-109434285D01*
X143478095Y-109529523D01*
X143382857Y-109624761D01*
X143240000Y-109672380D01*
X143001904Y-109672380D01*
X131889523Y-108672380D02*
X131413333Y-108672380D01*
X131365714Y-109148571D01*
X131413333Y-109100952D01*
X131508571Y-109053333D01*
X131746666Y-109053333D01*
X131841904Y-109100952D01*
X131889523Y-109148571D01*
X131937142Y-109243809D01*
X131937142Y-109481904D01*
X131889523Y-109577142D01*
X131841904Y-109624761D01*
X131746666Y-109672380D01*
X131508571Y-109672380D01*
X131413333Y-109624761D01*
X131365714Y-109577142D01*
X132222857Y-108672380D02*
X132556190Y-109672380D01*
X132889523Y-108672380D01*
X131778571Y-104592380D02*
X131778571Y-103592380D01*
X132111904Y-104306666D01*
X132445238Y-103592380D01*
X132445238Y-104592380D01*
X132921428Y-104592380D02*
X132921428Y-103592380D01*
X133350000Y-104544761D02*
X133492857Y-104592380D01*
X133730952Y-104592380D01*
X133826190Y-104544761D01*
X133873809Y-104497142D01*
X133921428Y-104401904D01*
X133921428Y-104306666D01*
X133873809Y-104211428D01*
X133826190Y-104163809D01*
X133730952Y-104116190D01*
X133540476Y-104068571D01*
X133445238Y-104020952D01*
X133397619Y-103973333D01*
X133350000Y-103878095D01*
X133350000Y-103782857D01*
X133397619Y-103687619D01*
X133445238Y-103640000D01*
X133540476Y-103592380D01*
X133778571Y-103592380D01*
X133921428Y-103640000D01*
X134540476Y-103592380D02*
X134730952Y-103592380D01*
X134826190Y-103640000D01*
X134921428Y-103735238D01*
X134969047Y-103925714D01*
X134969047Y-104259047D01*
X134921428Y-104449523D01*
X134826190Y-104544761D01*
X134730952Y-104592380D01*
X134540476Y-104592380D01*
X134445238Y-104544761D01*
X134350000Y-104449523D01*
X134302380Y-104259047D01*
X134302380Y-103925714D01*
X134350000Y-103735238D01*
X134445238Y-103640000D01*
X134540476Y-103592380D01*
X123698095Y-106180000D02*
X123602857Y-106132380D01*
X123460000Y-106132380D01*
X123317142Y-106180000D01*
X123221904Y-106275238D01*
X123174285Y-106370476D01*
X123126666Y-106560952D01*
X123126666Y-106703809D01*
X123174285Y-106894285D01*
X123221904Y-106989523D01*
X123317142Y-107084761D01*
X123460000Y-107132380D01*
X123555238Y-107132380D01*
X123698095Y-107084761D01*
X123745714Y-107037142D01*
X123745714Y-106703809D01*
X123555238Y-106703809D01*
X124174285Y-107132380D02*
X124174285Y-106132380D01*
X124745714Y-107132380D01*
X124745714Y-106132380D01*
X125221904Y-107132380D02*
X125221904Y-106132380D01*
X125460000Y-106132380D01*
X125602857Y-106180000D01*
X125698095Y-106275238D01*
X125745714Y-106370476D01*
X125793333Y-106560952D01*
X125793333Y-106703809D01*
X125745714Y-106894285D01*
X125698095Y-106989523D01*
X125602857Y-107084761D01*
X125460000Y-107132380D01*
X125221904Y-107132380D01*
X122324761Y-107894285D02*
X122372380Y-107751428D01*
X122372380Y-107513333D01*
X122324761Y-107418095D01*
X122277142Y-107370476D01*
X122181904Y-107322857D01*
X122086666Y-107322857D01*
X121991428Y-107370476D01*
X121943809Y-107418095D01*
X121896190Y-107513333D01*
X121848571Y-107703809D01*
X121800952Y-107799047D01*
X121753333Y-107846666D01*
X121658095Y-107894285D01*
X121562857Y-107894285D01*
X121467619Y-107846666D01*
X121420000Y-107799047D01*
X121372380Y-107703809D01*
X121372380Y-107465714D01*
X121420000Y-107322857D01*
X122372380Y-106894285D02*
X121372380Y-106894285D01*
X121372380Y-106656190D01*
X121420000Y-106513333D01*
X121515238Y-106418095D01*
X121610476Y-106370476D01*
X121800952Y-106322857D01*
X121943809Y-106322857D01*
X122134285Y-106370476D01*
X122229523Y-106418095D01*
X122324761Y-106513333D01*
X122372380Y-106656190D01*
X122372380Y-106894285D01*
X122086666Y-105941904D02*
X122086666Y-105465714D01*
X122372380Y-106037142D02*
X121372380Y-105703809D01*
X122372380Y-105370476D01*
X119784761Y-107870476D02*
X119832380Y-107727619D01*
X119832380Y-107489523D01*
X119784761Y-107394285D01*
X119737142Y-107346666D01*
X119641904Y-107299047D01*
X119546666Y-107299047D01*
X119451428Y-107346666D01*
X119403809Y-107394285D01*
X119356190Y-107489523D01*
X119308571Y-107680000D01*
X119260952Y-107775238D01*
X119213333Y-107822857D01*
X119118095Y-107870476D01*
X119022857Y-107870476D01*
X118927619Y-107822857D01*
X118880000Y-107775238D01*
X118832380Y-107680000D01*
X118832380Y-107441904D01*
X118880000Y-107299047D01*
X119737142Y-106299047D02*
X119784761Y-106346666D01*
X119832380Y-106489523D01*
X119832380Y-106584761D01*
X119784761Y-106727619D01*
X119689523Y-106822857D01*
X119594285Y-106870476D01*
X119403809Y-106918095D01*
X119260952Y-106918095D01*
X119070476Y-106870476D01*
X118975238Y-106822857D01*
X118880000Y-106727619D01*
X118832380Y-106584761D01*
X118832380Y-106489523D01*
X118880000Y-106346666D01*
X118927619Y-106299047D01*
X119832380Y-105394285D02*
X119832380Y-105870476D01*
X118832380Y-105870476D01*
X116649523Y-106132380D02*
X116173333Y-106132380D01*
X116125714Y-106608571D01*
X116173333Y-106560952D01*
X116268571Y-106513333D01*
X116506666Y-106513333D01*
X116601904Y-106560952D01*
X116649523Y-106608571D01*
X116697142Y-106703809D01*
X116697142Y-106941904D01*
X116649523Y-107037142D01*
X116601904Y-107084761D01*
X116506666Y-107132380D01*
X116268571Y-107132380D01*
X116173333Y-107084761D01*
X116125714Y-107037142D01*
X116982857Y-106132380D02*
X117316190Y-107132380D01*
X117649523Y-106132380D01*
X97583809Y-99782380D02*
X98202857Y-99782380D01*
X97869523Y-100163333D01*
X98012380Y-100163333D01*
X98107619Y-100210952D01*
X98155238Y-100258571D01*
X98202857Y-100353809D01*
X98202857Y-100591904D01*
X98155238Y-100687142D01*
X98107619Y-100734761D01*
X98012380Y-100782380D01*
X97726666Y-100782380D01*
X97631428Y-100734761D01*
X97583809Y-100687142D01*
X98631428Y-100687142D02*
X98679047Y-100734761D01*
X98631428Y-100782380D01*
X98583809Y-100734761D01*
X98631428Y-100687142D01*
X98631428Y-100782380D01*
X99012380Y-99782380D02*
X99631428Y-99782380D01*
X99298095Y-100163333D01*
X99440952Y-100163333D01*
X99536190Y-100210952D01*
X99583809Y-100258571D01*
X99631428Y-100353809D01*
X99631428Y-100591904D01*
X99583809Y-100687142D01*
X99536190Y-100734761D01*
X99440952Y-100782380D01*
X99155238Y-100782380D01*
X99060000Y-100734761D01*
X99012380Y-100687142D01*
X99917142Y-99782380D02*
X100250476Y-100782380D01*
X100583809Y-99782380D01*
X96329523Y-94702380D02*
X95853333Y-94702380D01*
X95805714Y-95178571D01*
X95853333Y-95130952D01*
X95948571Y-95083333D01*
X96186666Y-95083333D01*
X96281904Y-95130952D01*
X96329523Y-95178571D01*
X96377142Y-95273809D01*
X96377142Y-95511904D01*
X96329523Y-95607142D01*
X96281904Y-95654761D01*
X96186666Y-95702380D01*
X95948571Y-95702380D01*
X95853333Y-95654761D01*
X95805714Y-95607142D01*
X96662857Y-94702380D02*
X96996190Y-95702380D01*
X97329523Y-94702380D01*
X95329523Y-93114761D02*
X95472380Y-93162380D01*
X95710476Y-93162380D01*
X95805714Y-93114761D01*
X95853333Y-93067142D01*
X95900952Y-92971904D01*
X95900952Y-92876666D01*
X95853333Y-92781428D01*
X95805714Y-92733809D01*
X95710476Y-92686190D01*
X95520000Y-92638571D01*
X95424761Y-92590952D01*
X95377142Y-92543333D01*
X95329523Y-92448095D01*
X95329523Y-92352857D01*
X95377142Y-92257619D01*
X95424761Y-92210000D01*
X95520000Y-92162380D01*
X95758095Y-92162380D01*
X95900952Y-92210000D01*
X96900952Y-93067142D02*
X96853333Y-93114761D01*
X96710476Y-93162380D01*
X96615238Y-93162380D01*
X96472380Y-93114761D01*
X96377142Y-93019523D01*
X96329523Y-92924285D01*
X96281904Y-92733809D01*
X96281904Y-92590952D01*
X96329523Y-92400476D01*
X96377142Y-92305238D01*
X96472380Y-92210000D01*
X96615238Y-92162380D01*
X96710476Y-92162380D01*
X96853333Y-92210000D01*
X96900952Y-92257619D01*
X97805714Y-93162380D02*
X97329523Y-93162380D01*
X97329523Y-92162380D01*
X95305714Y-90574761D02*
X95448571Y-90622380D01*
X95686666Y-90622380D01*
X95781904Y-90574761D01*
X95829523Y-90527142D01*
X95877142Y-90431904D01*
X95877142Y-90336666D01*
X95829523Y-90241428D01*
X95781904Y-90193809D01*
X95686666Y-90146190D01*
X95496190Y-90098571D01*
X95400952Y-90050952D01*
X95353333Y-90003333D01*
X95305714Y-89908095D01*
X95305714Y-89812857D01*
X95353333Y-89717619D01*
X95400952Y-89670000D01*
X95496190Y-89622380D01*
X95734285Y-89622380D01*
X95877142Y-89670000D01*
X96305714Y-90622380D02*
X96305714Y-89622380D01*
X96543809Y-89622380D01*
X96686666Y-89670000D01*
X96781904Y-89765238D01*
X96829523Y-89860476D01*
X96877142Y-90050952D01*
X96877142Y-90193809D01*
X96829523Y-90384285D01*
X96781904Y-90479523D01*
X96686666Y-90574761D01*
X96543809Y-90622380D01*
X96305714Y-90622380D01*
X97258095Y-90336666D02*
X97734285Y-90336666D01*
X97162857Y-90622380D02*
X97496190Y-89622380D01*
X97829523Y-90622380D01*
X95186666Y-88034761D02*
X95329523Y-88082380D01*
X95567619Y-88082380D01*
X95662857Y-88034761D01*
X95710476Y-87987142D01*
X95758095Y-87891904D01*
X95758095Y-87796666D01*
X95710476Y-87701428D01*
X95662857Y-87653809D01*
X95567619Y-87606190D01*
X95377142Y-87558571D01*
X95281904Y-87510952D01*
X95234285Y-87463333D01*
X95186666Y-87368095D01*
X95186666Y-87272857D01*
X95234285Y-87177619D01*
X95281904Y-87130000D01*
X95377142Y-87082380D01*
X95615238Y-87082380D01*
X95758095Y-87130000D01*
X96091428Y-87082380D02*
X96329523Y-88082380D01*
X96520000Y-87368095D01*
X96710476Y-88082380D01*
X96948571Y-87082380D01*
X97805714Y-87082380D02*
X97329523Y-87082380D01*
X97281904Y-87558571D01*
X97329523Y-87510952D01*
X97424761Y-87463333D01*
X97662857Y-87463333D01*
X97758095Y-87510952D01*
X97805714Y-87558571D01*
X97853333Y-87653809D01*
X97853333Y-87891904D01*
X97805714Y-87987142D01*
X97758095Y-88034761D01*
X97662857Y-88082380D01*
X97424761Y-88082380D01*
X97329523Y-88034761D01*
X97281904Y-87987142D01*
X95186666Y-85494761D02*
X95329523Y-85542380D01*
X95567619Y-85542380D01*
X95662857Y-85494761D01*
X95710476Y-85447142D01*
X95758095Y-85351904D01*
X95758095Y-85256666D01*
X95710476Y-85161428D01*
X95662857Y-85113809D01*
X95567619Y-85066190D01*
X95377142Y-85018571D01*
X95281904Y-84970952D01*
X95234285Y-84923333D01*
X95186666Y-84828095D01*
X95186666Y-84732857D01*
X95234285Y-84637619D01*
X95281904Y-84590000D01*
X95377142Y-84542380D01*
X95615238Y-84542380D01*
X95758095Y-84590000D01*
X96091428Y-84542380D02*
X96329523Y-85542380D01*
X96520000Y-84828095D01*
X96710476Y-85542380D01*
X96948571Y-84542380D01*
X97758095Y-84875714D02*
X97758095Y-85542380D01*
X97520000Y-84494761D02*
X97281904Y-85209047D01*
X97900952Y-85209047D01*
X95186666Y-82954761D02*
X95329523Y-83002380D01*
X95567619Y-83002380D01*
X95662857Y-82954761D01*
X95710476Y-82907142D01*
X95758095Y-82811904D01*
X95758095Y-82716666D01*
X95710476Y-82621428D01*
X95662857Y-82573809D01*
X95567619Y-82526190D01*
X95377142Y-82478571D01*
X95281904Y-82430952D01*
X95234285Y-82383333D01*
X95186666Y-82288095D01*
X95186666Y-82192857D01*
X95234285Y-82097619D01*
X95281904Y-82050000D01*
X95377142Y-82002380D01*
X95615238Y-82002380D01*
X95758095Y-82050000D01*
X96091428Y-82002380D02*
X96329523Y-83002380D01*
X96520000Y-82288095D01*
X96710476Y-83002380D01*
X96948571Y-82002380D01*
X97234285Y-82002380D02*
X97853333Y-82002380D01*
X97520000Y-82383333D01*
X97662857Y-82383333D01*
X97758095Y-82430952D01*
X97805714Y-82478571D01*
X97853333Y-82573809D01*
X97853333Y-82811904D01*
X97805714Y-82907142D01*
X97758095Y-82954761D01*
X97662857Y-83002380D01*
X97377142Y-83002380D01*
X97281904Y-82954761D01*
X97234285Y-82907142D01*
X95186666Y-80414761D02*
X95329523Y-80462380D01*
X95567619Y-80462380D01*
X95662857Y-80414761D01*
X95710476Y-80367142D01*
X95758095Y-80271904D01*
X95758095Y-80176666D01*
X95710476Y-80081428D01*
X95662857Y-80033809D01*
X95567619Y-79986190D01*
X95377142Y-79938571D01*
X95281904Y-79890952D01*
X95234285Y-79843333D01*
X95186666Y-79748095D01*
X95186666Y-79652857D01*
X95234285Y-79557619D01*
X95281904Y-79510000D01*
X95377142Y-79462380D01*
X95615238Y-79462380D01*
X95758095Y-79510000D01*
X96091428Y-79462380D02*
X96329523Y-80462380D01*
X96520000Y-79748095D01*
X96710476Y-80462380D01*
X96948571Y-79462380D01*
X97281904Y-79557619D02*
X97329523Y-79510000D01*
X97424761Y-79462380D01*
X97662857Y-79462380D01*
X97758095Y-79510000D01*
X97805714Y-79557619D01*
X97853333Y-79652857D01*
X97853333Y-79748095D01*
X97805714Y-79890952D01*
X97234285Y-80462380D01*
X97853333Y-80462380D01*
X95186666Y-77874761D02*
X95329523Y-77922380D01*
X95567619Y-77922380D01*
X95662857Y-77874761D01*
X95710476Y-77827142D01*
X95758095Y-77731904D01*
X95758095Y-77636666D01*
X95710476Y-77541428D01*
X95662857Y-77493809D01*
X95567619Y-77446190D01*
X95377142Y-77398571D01*
X95281904Y-77350952D01*
X95234285Y-77303333D01*
X95186666Y-77208095D01*
X95186666Y-77112857D01*
X95234285Y-77017619D01*
X95281904Y-76970000D01*
X95377142Y-76922380D01*
X95615238Y-76922380D01*
X95758095Y-76970000D01*
X96091428Y-76922380D02*
X96329523Y-77922380D01*
X96520000Y-77208095D01*
X96710476Y-77922380D01*
X96948571Y-76922380D01*
X97853333Y-77922380D02*
X97281904Y-77922380D01*
X97567619Y-77922380D02*
X97567619Y-76922380D01*
X97472380Y-77065238D01*
X97377142Y-77160476D01*
X97281904Y-77208095D01*
X95758095Y-74430000D02*
X95662857Y-74382380D01*
X95520000Y-74382380D01*
X95377142Y-74430000D01*
X95281904Y-74525238D01*
X95234285Y-74620476D01*
X95186666Y-74810952D01*
X95186666Y-74953809D01*
X95234285Y-75144285D01*
X95281904Y-75239523D01*
X95377142Y-75334761D01*
X95520000Y-75382380D01*
X95615238Y-75382380D01*
X95758095Y-75334761D01*
X95805714Y-75287142D01*
X95805714Y-74953809D01*
X95615238Y-74953809D01*
X96234285Y-75382380D02*
X96234285Y-74382380D01*
X96805714Y-75382380D01*
X96805714Y-74382380D01*
X97281904Y-75382380D02*
X97281904Y-74382380D01*
X97520000Y-74382380D01*
X97662857Y-74430000D01*
X97758095Y-74525238D01*
X97805714Y-74620476D01*
X97853333Y-74810952D01*
X97853333Y-74953809D01*
X97805714Y-75144285D01*
X97758095Y-75239523D01*
X97662857Y-75334761D01*
X97520000Y-75382380D01*
X97281904Y-75382380D01*
D12*
%TO.C,J3*%
X96600000Y-100350000D02*
X102570000Y-100350000D01*
X102570000Y-100350000D02*
X102570000Y-72730000D01*
X102570000Y-72730000D02*
X96600000Y-72730000D01*
X96600000Y-72730000D02*
X96600000Y-100350000D01*
X96610000Y-97040000D02*
X97360000Y-97040000D01*
X97360000Y-97040000D02*
X97360000Y-76040000D01*
X97360000Y-76040000D02*
X96610000Y-76040000D01*
X96610000Y-76040000D02*
X96610000Y-97040000D01*
X96610000Y-100340000D02*
X97360000Y-100340000D01*
X97360000Y-100340000D02*
X97360000Y-98540000D01*
X97360000Y-98540000D02*
X96610000Y-98540000D01*
X96610000Y-98540000D02*
X96610000Y-100340000D01*
X96610000Y-74540000D02*
X97360000Y-74540000D01*
X97360000Y-74540000D02*
X97360000Y-72740000D01*
X97360000Y-72740000D02*
X96610000Y-72740000D01*
X96610000Y-72740000D02*
X96610000Y-74540000D01*
X98860000Y-100340000D02*
X98860000Y-99590000D01*
X98860000Y-99590000D02*
X100200000Y-99590000D01*
X101810000Y-86540000D02*
X101810000Y-98530000D01*
X98860000Y-72740000D02*
X98860000Y-73490000D01*
X98860000Y-73490000D02*
X101810000Y-73490000D01*
X101810000Y-73490000D02*
X101810000Y-86540000D01*
X96310000Y-99390000D02*
X96310000Y-100640000D01*
X96310000Y-100640000D02*
X97560000Y-100640000D01*
%TO.C,U1*%
X161350000Y-97280000D02*
X162050000Y-97280000D01*
X162050000Y-97280000D02*
X162050000Y-96580000D01*
X148530000Y-97280000D02*
X147830000Y-97280000D01*
X147830000Y-97280000D02*
X147830000Y-96580000D01*
X161350000Y-83060000D02*
X162050000Y-83060000D01*
X162050000Y-83060000D02*
X162050000Y-83760000D01*
X148530000Y-83060000D02*
X147830000Y-83060000D01*
X147830000Y-83060000D02*
X147830000Y-83760000D01*
X147830000Y-83760000D02*
X146540000Y-83760000D01*
%TO.C,Y2*%
X158240000Y-101615000D02*
X151840000Y-101615000D01*
X158240000Y-106665000D02*
X151840000Y-106665000D01*
X151840000Y-101615000D02*
G75*
G03*
X151840000Y-106665000I0J-2525000D01*
G01*
X158240000Y-101615000D02*
G75*
G02*
X158240000Y-106665000I0J-2525000D01*
G01*
%TO.C,R18*%
X111050000Y-88973922D02*
X111050000Y-89491078D01*
X112470000Y-88973922D02*
X112470000Y-89491078D01*
%TO.C,R17*%
X115010000Y-89491078D02*
X115010000Y-88973922D01*
X113590000Y-89491078D02*
X113590000Y-88973922D01*
%TO.C,R16*%
X108510000Y-88973922D02*
X108510000Y-89491078D01*
X109930000Y-88973922D02*
X109930000Y-89491078D01*
%TO.C,R15*%
X117550000Y-89491078D02*
X117550000Y-88973922D01*
X116130000Y-89491078D02*
X116130000Y-88973922D01*
%TO.C,R14*%
X183471078Y-83110000D02*
X182953922Y-83110000D01*
X183471078Y-84530000D02*
X182953922Y-84530000D01*
%TO.C,R13*%
X182953922Y-81990000D02*
X183471078Y-81990000D01*
X182953922Y-80570000D02*
X183471078Y-80570000D01*
%TO.C,R12*%
X144853922Y-102310000D02*
X145371078Y-102310000D01*
X144853922Y-100890000D02*
X145371078Y-100890000D01*
%TO.C,J10*%
X194230000Y-72570000D02*
X188260000Y-72570000D01*
X188260000Y-72570000D02*
X188260000Y-100190000D01*
X188260000Y-100190000D02*
X194230000Y-100190000D01*
X194230000Y-100190000D02*
X194230000Y-72570000D01*
X194220000Y-75880000D02*
X193470000Y-75880000D01*
X193470000Y-75880000D02*
X193470000Y-96880000D01*
X193470000Y-96880000D02*
X194220000Y-96880000D01*
X194220000Y-96880000D02*
X194220000Y-75880000D01*
X194220000Y-72580000D02*
X193470000Y-72580000D01*
X193470000Y-72580000D02*
X193470000Y-74380000D01*
X193470000Y-74380000D02*
X194220000Y-74380000D01*
X194220000Y-74380000D02*
X194220000Y-72580000D01*
X194220000Y-98380000D02*
X193470000Y-98380000D01*
X193470000Y-98380000D02*
X193470000Y-100180000D01*
X193470000Y-100180000D02*
X194220000Y-100180000D01*
X194220000Y-100180000D02*
X194220000Y-98380000D01*
X191970000Y-72580000D02*
X191970000Y-73330000D01*
X191970000Y-73330000D02*
X190630000Y-73330000D01*
X189020000Y-86380000D02*
X189020000Y-74390000D01*
X191970000Y-100180000D02*
X191970000Y-99430000D01*
X191970000Y-99430000D02*
X189020000Y-99430000D01*
X189020000Y-99430000D02*
X189020000Y-86380000D01*
X194520000Y-73530000D02*
X194520000Y-72280000D01*
X194520000Y-72280000D02*
X193270000Y-72280000D01*
%TO.C,J9*%
X133290000Y-106680000D02*
X133290000Y-105350000D01*
X133290000Y-105350000D02*
X134620000Y-105350000D01*
X133290000Y-107950000D02*
X135890000Y-107950000D01*
X135890000Y-107950000D02*
X135890000Y-105350000D01*
X135890000Y-105350000D02*
X141030000Y-105350000D01*
X141030000Y-110550000D02*
X141030000Y-105350000D01*
X133290000Y-110550000D02*
X141030000Y-110550000D01*
X133290000Y-110550000D02*
X133290000Y-107950000D01*
%TO.C,J8*%
X173930000Y-109220000D02*
X173930000Y-108110000D01*
X173930000Y-108110000D02*
X175260000Y-108110000D01*
X173930000Y-119310000D02*
X184210000Y-119310000D01*
X184210000Y-119310000D02*
X184210000Y-110680000D01*
X173930000Y-110680000D02*
X184210000Y-110680000D01*
X173930000Y-119310000D02*
X173930000Y-110680000D01*
X181610000Y-119310000D02*
X181610000Y-110680000D01*
X179070000Y-119310000D02*
X179070000Y-110680000D01*
X176530000Y-119310000D02*
X176530000Y-110680000D01*
X183240000Y-110680000D02*
X183240000Y-110270000D01*
X182520000Y-110680000D02*
X182520000Y-110270000D01*
X180700000Y-110680000D02*
X180700000Y-110270000D01*
X179980000Y-110680000D02*
X179980000Y-110270000D01*
X178160000Y-110680000D02*
X178160000Y-110270000D01*
X177440000Y-110680000D02*
X177440000Y-110270000D01*
X175620000Y-110680000D02*
X175620000Y-110330000D01*
X174900000Y-110680000D02*
X174900000Y-110330000D01*
X176411900Y-119310000D02*
X176411900Y-110680000D01*
X176293805Y-119310000D02*
X176293805Y-110680000D01*
X176175710Y-119310000D02*
X176175710Y-110680000D01*
X176057615Y-119310000D02*
X176057615Y-110680000D01*
X175939520Y-119310000D02*
X175939520Y-110680000D01*
X175821425Y-119310000D02*
X175821425Y-110680000D01*
X175703330Y-119310000D02*
X175703330Y-110680000D01*
X175585235Y-119310000D02*
X175585235Y-110680000D01*
X175467140Y-119310000D02*
X175467140Y-110680000D01*
X175349045Y-119310000D02*
X175349045Y-110680000D01*
X175230950Y-119310000D02*
X175230950Y-110680000D01*
X175112855Y-119310000D02*
X175112855Y-110680000D01*
X174994760Y-119310000D02*
X174994760Y-110680000D01*
X174876665Y-119310000D02*
X174876665Y-110680000D01*
X174758570Y-119310000D02*
X174758570Y-110680000D01*
X174640475Y-119310000D02*
X174640475Y-110680000D01*
X174522380Y-119310000D02*
X174522380Y-110680000D01*
X174404285Y-119310000D02*
X174404285Y-110680000D01*
X174286190Y-119310000D02*
X174286190Y-110680000D01*
X174168095Y-119310000D02*
X174168095Y-110680000D01*
X174050000Y-119310000D02*
X174050000Y-110680000D01*
%TO.C,J7*%
X115510000Y-109220000D02*
X115510000Y-108110000D01*
X115510000Y-108110000D02*
X116840000Y-108110000D01*
X115510000Y-119310000D02*
X125790000Y-119310000D01*
X125790000Y-119310000D02*
X125790000Y-110680000D01*
X115510000Y-110680000D02*
X125790000Y-110680000D01*
X115510000Y-119310000D02*
X115510000Y-110680000D01*
X123190000Y-119310000D02*
X123190000Y-110680000D01*
X120650000Y-119310000D02*
X120650000Y-110680000D01*
X118110000Y-119310000D02*
X118110000Y-110680000D01*
X124820000Y-110680000D02*
X124820000Y-110270000D01*
X124100000Y-110680000D02*
X124100000Y-110270000D01*
X122280000Y-110680000D02*
X122280000Y-110270000D01*
X121560000Y-110680000D02*
X121560000Y-110270000D01*
X119740000Y-110680000D02*
X119740000Y-110270000D01*
X119020000Y-110680000D02*
X119020000Y-110270000D01*
X117200000Y-110680000D02*
X117200000Y-110330000D01*
X116480000Y-110680000D02*
X116480000Y-110330000D01*
X117991900Y-119310000D02*
X117991900Y-110680000D01*
X117873805Y-119310000D02*
X117873805Y-110680000D01*
X117755710Y-119310000D02*
X117755710Y-110680000D01*
X117637615Y-119310000D02*
X117637615Y-110680000D01*
X117519520Y-119310000D02*
X117519520Y-110680000D01*
X117401425Y-119310000D02*
X117401425Y-110680000D01*
X117283330Y-119310000D02*
X117283330Y-110680000D01*
X117165235Y-119310000D02*
X117165235Y-110680000D01*
X117047140Y-119310000D02*
X117047140Y-110680000D01*
X116929045Y-119310000D02*
X116929045Y-110680000D01*
X116810950Y-119310000D02*
X116810950Y-110680000D01*
X116692855Y-119310000D02*
X116692855Y-110680000D01*
X116574760Y-119310000D02*
X116574760Y-110680000D01*
X116456665Y-119310000D02*
X116456665Y-110680000D01*
X116338570Y-119310000D02*
X116338570Y-110680000D01*
X116220475Y-119310000D02*
X116220475Y-110680000D01*
X116102380Y-119310000D02*
X116102380Y-110680000D01*
X115984285Y-119310000D02*
X115984285Y-110680000D01*
X115866190Y-119310000D02*
X115866190Y-110680000D01*
X115748095Y-119310000D02*
X115748095Y-110680000D01*
X115630000Y-119310000D02*
X115630000Y-110680000D01*
%TO.C,FB1*%
X147880000Y-77543922D02*
X147880000Y-78061078D01*
X149300000Y-77543922D02*
X149300000Y-78061078D01*
%TO.C,C27*%
X174668922Y-103580000D02*
X175186078Y-103580000D01*
X174668922Y-102160000D02*
X175186078Y-102160000D01*
%TO.C,C22*%
X151721078Y-108510000D02*
X151203922Y-108510000D01*
X151721078Y-109930000D02*
X151203922Y-109930000D01*
%TO.C,C21*%
X158676078Y-108510000D02*
X158158922Y-108510000D01*
X158676078Y-109930000D02*
X158158922Y-109930000D01*
%TO.C,BZ1*%
X129300000Y-97790000D02*
G75*
G03*
X129300000Y-97790000I-6100000J0D01*
G01*
%TO.C,Y1*%
X138415000Y-80770000D02*
X138415000Y-74370000D01*
X133365000Y-80770000D02*
X133365000Y-74370000D01*
X138415000Y-74370000D02*
G75*
G03*
X133365000Y-74370000I-2525000J0D01*
G01*
X138415000Y-80770000D02*
G75*
G02*
X133365000Y-80770000I-2525000J0D01*
G01*
%TO.C,R11*%
X116130000Y-62908922D02*
X116130000Y-63426078D01*
X117550000Y-62908922D02*
X117550000Y-63426078D01*
%TO.C,R10*%
X122630000Y-63426078D02*
X122630000Y-62908922D01*
X121210000Y-63426078D02*
X121210000Y-62908922D01*
%TO.C,R9*%
X120090000Y-63426078D02*
X120090000Y-62908922D01*
X118670000Y-63426078D02*
X118670000Y-62908922D01*
%TO.C,R8*%
X131520000Y-57076078D02*
X131520000Y-56558922D01*
X130100000Y-57076078D02*
X130100000Y-56558922D01*
%TO.C,JP1*%
X117110000Y-83900000D02*
X117110000Y-82500000D01*
X117810000Y-81800000D02*
X118410000Y-81800000D01*
X119110000Y-82500000D02*
X119110000Y-83900000D01*
X118410000Y-84600000D02*
X117810000Y-84600000D01*
X117810000Y-84600000D02*
G75*
G02*
X117110000Y-83900000I0J700000D01*
G01*
X119110000Y-83900000D02*
G75*
G02*
X118410000Y-84600000I-700000J0D01*
G01*
X118410000Y-81800000D02*
G75*
G02*
X119110000Y-82500000I0J-700000D01*
G01*
X117110000Y-82500000D02*
G75*
G02*
X117810000Y-81800000I700000J0D01*
G01*
%TO.C,D6*%
X113340000Y-61482500D02*
X113340000Y-64167500D01*
X115260000Y-61482500D02*
X113340000Y-61482500D01*
X115260000Y-64167500D02*
X115260000Y-61482500D01*
%TO.C,C19*%
X127710000Y-82476078D02*
X127710000Y-81958922D01*
X126290000Y-82476078D02*
X126290000Y-81958922D01*
%TO.C,C18*%
X112320000Y-81958922D02*
X112320000Y-82476078D01*
X113740000Y-81958922D02*
X113740000Y-82476078D01*
%TO.C,C17*%
X122630000Y-82476078D02*
X122630000Y-81958922D01*
X121210000Y-82476078D02*
X121210000Y-81958922D01*
%TO.C,C16*%
X142313922Y-75640000D02*
X142831078Y-75640000D01*
X142313922Y-74220000D02*
X142831078Y-74220000D01*
%TO.C,C15*%
X142313922Y-80720000D02*
X142831078Y-80720000D01*
X142313922Y-79300000D02*
X142831078Y-79300000D01*
%TO.C,R7*%
X184098000Y-77045078D02*
X184098000Y-76527922D01*
X182678000Y-77045078D02*
X182678000Y-76527922D01*
%TO.C,R6*%
X181558000Y-77045078D02*
X181558000Y-76527922D01*
X180138000Y-77045078D02*
X180138000Y-76527922D01*
%TO.C,R5*%
X167312078Y-65838000D02*
X166794922Y-65838000D01*
X167312078Y-67258000D02*
X166794922Y-67258000D01*
%TO.C,R4*%
X178002000Y-66377078D02*
X178002000Y-65859922D01*
X176582000Y-66377078D02*
X176582000Y-65859922D01*
%TO.C,R3*%
X180034000Y-66377078D02*
X180034000Y-65859922D01*
X178614000Y-66377078D02*
X178614000Y-65859922D01*
%TO.C,D5*%
X184348000Y-73899500D02*
X184348000Y-71214500D01*
X182428000Y-73899500D02*
X184348000Y-73899500D01*
X182428000Y-71214500D02*
X182428000Y-73899500D01*
%TO.C,D4*%
X181808000Y-73899500D02*
X181808000Y-71214500D01*
X179888000Y-73899500D02*
X181808000Y-73899500D01*
X179888000Y-71214500D02*
X179888000Y-73899500D01*
%TO.C,D3*%
X167076000Y-71202500D02*
X167076000Y-68517500D01*
X165156000Y-71202500D02*
X167076000Y-71202500D01*
X165156000Y-68517500D02*
X165156000Y-71202500D01*
%TO.C,C13*%
X170890000Y-81968078D02*
X170890000Y-81450922D01*
X169470000Y-81968078D02*
X169470000Y-81450922D01*
%TO.C,C12*%
X166826000Y-77396078D02*
X166826000Y-76878922D01*
X165406000Y-77396078D02*
X165406000Y-76878922D01*
%TO.C,C11*%
X174550000Y-65859922D02*
X174550000Y-66377078D01*
X175970000Y-65859922D02*
X175970000Y-66377078D01*
%TO.C,C10*%
X170486000Y-65859922D02*
X170486000Y-66377078D01*
X171906000Y-65859922D02*
X171906000Y-66377078D01*
%TO.C,C9*%
X172518000Y-65859922D02*
X172518000Y-66377078D01*
X173938000Y-65859922D02*
X173938000Y-66377078D01*
%TO.C,R2*%
X163905000Y-57408578D02*
X163905000Y-56891422D01*
X162485000Y-57408578D02*
X162485000Y-56891422D01*
%TO.C,J6*%
X158055000Y-52705000D02*
X158055000Y-51375000D01*
X158055000Y-51375000D02*
X159385000Y-51375000D01*
X160655000Y-51375000D02*
X163255000Y-51375000D01*
X163255000Y-54035000D02*
X163255000Y-51375000D01*
X160655000Y-54035000D02*
X163255000Y-54035000D01*
X160655000Y-54035000D02*
X160655000Y-51375000D01*
%TO.C,R1*%
X138503922Y-53415000D02*
X139021078Y-53415000D01*
X138503922Y-51995000D02*
X139021078Y-51995000D01*
%TO.C,D2*%
X144892500Y-51745000D02*
X142207500Y-51745000D01*
X144892500Y-53665000D02*
X144892500Y-51745000D01*
X142207500Y-53665000D02*
X144892500Y-53665000D01*
%TO.C,J5*%
X150435000Y-52705000D02*
X150435000Y-51375000D01*
X150435000Y-51375000D02*
X151765000Y-51375000D01*
X153035000Y-51375000D02*
X155635000Y-51375000D01*
X155635000Y-54035000D02*
X155635000Y-51375000D01*
X153035000Y-54035000D02*
X155635000Y-54035000D01*
X153035000Y-54035000D02*
X153035000Y-51375000D01*
D10*
%TO.C,U5*%
X168605000Y-77170000D02*
X168605000Y-78770000D01*
X178680000Y-77170000D02*
X178680000Y-71420000D01*
X168030000Y-77170000D02*
X168030000Y-71420000D01*
X178680000Y-77170000D02*
X178030000Y-77170000D01*
X178680000Y-71420000D02*
X178030000Y-71420000D01*
X168030000Y-71420000D02*
X168680000Y-71420000D01*
X168030000Y-77170000D02*
X168605000Y-77170000D01*
D12*
%TO.C,U4*%
X111835000Y-76885000D02*
X111835000Y-78700000D01*
X111590000Y-76885000D02*
X111835000Y-76885000D01*
X111590000Y-73025000D02*
X111590000Y-76885000D01*
X111590000Y-69165000D02*
X111835000Y-69165000D01*
X111590000Y-73025000D02*
X111590000Y-69165000D01*
X129710000Y-76885000D02*
X129465000Y-76885000D01*
X129710000Y-73025000D02*
X129710000Y-76885000D01*
X129710000Y-69165000D02*
X129465000Y-69165000D01*
X129710000Y-73025000D02*
X129710000Y-69165000D01*
%TO.C,J2*%
X167810000Y-55125000D02*
X167810000Y-59385000D01*
X167810000Y-59385000D02*
X180130000Y-59385000D01*
X180130000Y-59385000D02*
X180130000Y-55125000D01*
X167810000Y-51025000D02*
X167810000Y-42665000D01*
X167810000Y-42665000D02*
X180130000Y-42665000D01*
X180130000Y-42665000D02*
X180130000Y-51025000D01*
X172720000Y-59605000D02*
X172220000Y-60105000D01*
X172220000Y-60105000D02*
X173220000Y-60105000D01*
X173220000Y-60105000D02*
X172720000Y-59605000D01*
%TO.C,J1*%
X126985000Y-43300000D02*
X126985000Y-51410000D01*
X126985000Y-43300000D02*
X127635000Y-43300000D01*
X126985000Y-58260000D02*
X113665000Y-58260000D01*
X126985000Y-58260000D02*
X126985000Y-54930000D01*
X113665000Y-58260000D02*
X113665000Y-54930000D01*
X113015000Y-42780000D02*
X113015000Y-43300000D01*
X127635000Y-42780000D02*
X113015000Y-42780000D01*
X113665000Y-51410000D02*
X113665000Y-43300000D01*
X127635000Y-43300000D02*
X127635000Y-42780000D01*
X113015000Y-43300000D02*
X113665000Y-43300000D01*
X124725000Y-58480000D02*
X122925000Y-58480000D01*
%TO.C,J3*%
D10*
X101262380Y-86873333D02*
X101976666Y-86873333D01*
X102119523Y-86920952D01*
X102214761Y-87016190D01*
X102262380Y-87159047D01*
X102262380Y-87254285D01*
X101262380Y-86492380D02*
X101262380Y-85873333D01*
X101643333Y-86206666D01*
X101643333Y-86063809D01*
X101690952Y-85968571D01*
X101738571Y-85920952D01*
X101833809Y-85873333D01*
X102071904Y-85873333D01*
X102167142Y-85920952D01*
X102214761Y-85968571D01*
X102262380Y-86063809D01*
X102262380Y-86349523D01*
X102214761Y-86444761D01*
X102167142Y-86492380D01*
%TO.C,U1*%
X154178095Y-80272380D02*
X154178095Y-81081904D01*
X154225714Y-81177142D01*
X154273333Y-81224761D01*
X154368571Y-81272380D01*
X154559047Y-81272380D01*
X154654285Y-81224761D01*
X154701904Y-81177142D01*
X154749523Y-81081904D01*
X154749523Y-80272380D01*
X155749523Y-81272380D02*
X155178095Y-81272380D01*
X155463809Y-81272380D02*
X155463809Y-80272380D01*
X155368571Y-80415238D01*
X155273333Y-80510476D01*
X155178095Y-80558095D01*
%TO.C,Y2*%
X154563809Y-107641190D02*
X154563809Y-108117380D01*
X154230476Y-107117380D02*
X154563809Y-107641190D01*
X154897142Y-107117380D01*
X155182857Y-107212619D02*
X155230476Y-107165000D01*
X155325714Y-107117380D01*
X155563809Y-107117380D01*
X155659047Y-107165000D01*
X155706666Y-107212619D01*
X155754285Y-107307857D01*
X155754285Y-107403095D01*
X155706666Y-107545952D01*
X155135238Y-108117380D01*
X155754285Y-108117380D01*
%TO.C,R18*%
X112212380Y-93352857D02*
X111736190Y-93686190D01*
X112212380Y-93924285D02*
X111212380Y-93924285D01*
X111212380Y-93543333D01*
X111260000Y-93448095D01*
X111307619Y-93400476D01*
X111402857Y-93352857D01*
X111545714Y-93352857D01*
X111640952Y-93400476D01*
X111688571Y-93448095D01*
X111736190Y-93543333D01*
X111736190Y-93924285D01*
X112212380Y-92400476D02*
X112212380Y-92971904D01*
X112212380Y-92686190D02*
X111212380Y-92686190D01*
X111355238Y-92781428D01*
X111450476Y-92876666D01*
X111498095Y-92971904D01*
X111640952Y-91829047D02*
X111593333Y-91924285D01*
X111545714Y-91971904D01*
X111450476Y-92019523D01*
X111402857Y-92019523D01*
X111307619Y-91971904D01*
X111260000Y-91924285D01*
X111212380Y-91829047D01*
X111212380Y-91638571D01*
X111260000Y-91543333D01*
X111307619Y-91495714D01*
X111402857Y-91448095D01*
X111450476Y-91448095D01*
X111545714Y-91495714D01*
X111593333Y-91543333D01*
X111640952Y-91638571D01*
X111640952Y-91829047D01*
X111688571Y-91924285D01*
X111736190Y-91971904D01*
X111831428Y-92019523D01*
X112021904Y-92019523D01*
X112117142Y-91971904D01*
X112164761Y-91924285D01*
X112212380Y-91829047D01*
X112212380Y-91638571D01*
X112164761Y-91543333D01*
X112117142Y-91495714D01*
X112021904Y-91448095D01*
X111831428Y-91448095D01*
X111736190Y-91495714D01*
X111688571Y-91543333D01*
X111640952Y-91638571D01*
%TO.C,R17*%
X114752380Y-93352857D02*
X114276190Y-93686190D01*
X114752380Y-93924285D02*
X113752380Y-93924285D01*
X113752380Y-93543333D01*
X113800000Y-93448095D01*
X113847619Y-93400476D01*
X113942857Y-93352857D01*
X114085714Y-93352857D01*
X114180952Y-93400476D01*
X114228571Y-93448095D01*
X114276190Y-93543333D01*
X114276190Y-93924285D01*
X114752380Y-92400476D02*
X114752380Y-92971904D01*
X114752380Y-92686190D02*
X113752380Y-92686190D01*
X113895238Y-92781428D01*
X113990476Y-92876666D01*
X114038095Y-92971904D01*
X113752380Y-92067142D02*
X113752380Y-91400476D01*
X114752380Y-91829047D01*
%TO.C,R16*%
X109672380Y-93352857D02*
X109196190Y-93686190D01*
X109672380Y-93924285D02*
X108672380Y-93924285D01*
X108672380Y-93543333D01*
X108720000Y-93448095D01*
X108767619Y-93400476D01*
X108862857Y-93352857D01*
X109005714Y-93352857D01*
X109100952Y-93400476D01*
X109148571Y-93448095D01*
X109196190Y-93543333D01*
X109196190Y-93924285D01*
X109672380Y-92400476D02*
X109672380Y-92971904D01*
X109672380Y-92686190D02*
X108672380Y-92686190D01*
X108815238Y-92781428D01*
X108910476Y-92876666D01*
X108958095Y-92971904D01*
X108672380Y-91543333D02*
X108672380Y-91733809D01*
X108720000Y-91829047D01*
X108767619Y-91876666D01*
X108910476Y-91971904D01*
X109100952Y-92019523D01*
X109481904Y-92019523D01*
X109577142Y-91971904D01*
X109624761Y-91924285D01*
X109672380Y-91829047D01*
X109672380Y-91638571D01*
X109624761Y-91543333D01*
X109577142Y-91495714D01*
X109481904Y-91448095D01*
X109243809Y-91448095D01*
X109148571Y-91495714D01*
X109100952Y-91543333D01*
X109053333Y-91638571D01*
X109053333Y-91829047D01*
X109100952Y-91924285D01*
X109148571Y-91971904D01*
X109243809Y-92019523D01*
%TO.C,R15*%
X117292380Y-93352857D02*
X116816190Y-93686190D01*
X117292380Y-93924285D02*
X116292380Y-93924285D01*
X116292380Y-93543333D01*
X116340000Y-93448095D01*
X116387619Y-93400476D01*
X116482857Y-93352857D01*
X116625714Y-93352857D01*
X116720952Y-93400476D01*
X116768571Y-93448095D01*
X116816190Y-93543333D01*
X116816190Y-93924285D01*
X117292380Y-92400476D02*
X117292380Y-92971904D01*
X117292380Y-92686190D02*
X116292380Y-92686190D01*
X116435238Y-92781428D01*
X116530476Y-92876666D01*
X116578095Y-92971904D01*
X116292380Y-91495714D02*
X116292380Y-91971904D01*
X116768571Y-92019523D01*
X116720952Y-91971904D01*
X116673333Y-91876666D01*
X116673333Y-91638571D01*
X116720952Y-91543333D01*
X116768571Y-91495714D01*
X116863809Y-91448095D01*
X117101904Y-91448095D01*
X117197142Y-91495714D01*
X117244761Y-91543333D01*
X117292380Y-91638571D01*
X117292380Y-91876666D01*
X117244761Y-91971904D01*
X117197142Y-92019523D01*
%TO.C,R14*%
X179697142Y-84272380D02*
X179363809Y-83796190D01*
X179125714Y-84272380D02*
X179125714Y-83272380D01*
X179506666Y-83272380D01*
X179601904Y-83320000D01*
X179649523Y-83367619D01*
X179697142Y-83462857D01*
X179697142Y-83605714D01*
X179649523Y-83700952D01*
X179601904Y-83748571D01*
X179506666Y-83796190D01*
X179125714Y-83796190D01*
X180649523Y-84272380D02*
X180078095Y-84272380D01*
X180363809Y-84272380D02*
X180363809Y-83272380D01*
X180268571Y-83415238D01*
X180173333Y-83510476D01*
X180078095Y-83558095D01*
X181506666Y-83605714D02*
X181506666Y-84272380D01*
X181268571Y-83224761D02*
X181030476Y-83939047D01*
X181649523Y-83939047D01*
%TO.C,R13*%
X179697142Y-81732380D02*
X179363809Y-81256190D01*
X179125714Y-81732380D02*
X179125714Y-80732380D01*
X179506666Y-80732380D01*
X179601904Y-80780000D01*
X179649523Y-80827619D01*
X179697142Y-80922857D01*
X179697142Y-81065714D01*
X179649523Y-81160952D01*
X179601904Y-81208571D01*
X179506666Y-81256190D01*
X179125714Y-81256190D01*
X180649523Y-81732380D02*
X180078095Y-81732380D01*
X180363809Y-81732380D02*
X180363809Y-80732380D01*
X180268571Y-80875238D01*
X180173333Y-80970476D01*
X180078095Y-81018095D01*
X180982857Y-80732380D02*
X181601904Y-80732380D01*
X181268571Y-81113333D01*
X181411428Y-81113333D01*
X181506666Y-81160952D01*
X181554285Y-81208571D01*
X181601904Y-81303809D01*
X181601904Y-81541904D01*
X181554285Y-81637142D01*
X181506666Y-81684761D01*
X181411428Y-81732380D01*
X181125714Y-81732380D01*
X181030476Y-81684761D01*
X180982857Y-81637142D01*
%TO.C,R12*%
X144469642Y-100402380D02*
X144136309Y-99926190D01*
X143898214Y-100402380D02*
X143898214Y-99402380D01*
X144279166Y-99402380D01*
X144374404Y-99450000D01*
X144422023Y-99497619D01*
X144469642Y-99592857D01*
X144469642Y-99735714D01*
X144422023Y-99830952D01*
X144374404Y-99878571D01*
X144279166Y-99926190D01*
X143898214Y-99926190D01*
X145422023Y-100402380D02*
X144850595Y-100402380D01*
X145136309Y-100402380D02*
X145136309Y-99402380D01*
X145041071Y-99545238D01*
X144945833Y-99640476D01*
X144850595Y-99688095D01*
X145802976Y-99497619D02*
X145850595Y-99450000D01*
X145945833Y-99402380D01*
X146183928Y-99402380D01*
X146279166Y-99450000D01*
X146326785Y-99497619D01*
X146374404Y-99592857D01*
X146374404Y-99688095D01*
X146326785Y-99830952D01*
X145755357Y-100402380D01*
X146374404Y-100402380D01*
%TO.C,J10*%
X194772380Y-87189523D02*
X195486666Y-87189523D01*
X195629523Y-87237142D01*
X195724761Y-87332380D01*
X195772380Y-87475238D01*
X195772380Y-87570476D01*
X195772380Y-86189523D02*
X195772380Y-86760952D01*
X195772380Y-86475238D02*
X194772380Y-86475238D01*
X194915238Y-86570476D01*
X195010476Y-86665714D01*
X195058095Y-86760952D01*
X194772380Y-85570476D02*
X194772380Y-85475238D01*
X194820000Y-85380000D01*
X194867619Y-85332380D01*
X194962857Y-85284761D01*
X195153333Y-85237142D01*
X195391428Y-85237142D01*
X195581904Y-85284761D01*
X195677142Y-85332380D01*
X195724761Y-85380000D01*
X195772380Y-85475238D01*
X195772380Y-85570476D01*
X195724761Y-85665714D01*
X195677142Y-85713333D01*
X195581904Y-85760952D01*
X195391428Y-85808571D01*
X195153333Y-85808571D01*
X194962857Y-85760952D01*
X194867619Y-85713333D01*
X194820000Y-85665714D01*
X194772380Y-85570476D01*
%TO.C,J9*%
X131746666Y-106132380D02*
X131746666Y-106846666D01*
X131699047Y-106989523D01*
X131603809Y-107084761D01*
X131460952Y-107132380D01*
X131365714Y-107132380D01*
X132270476Y-107132380D02*
X132460952Y-107132380D01*
X132556190Y-107084761D01*
X132603809Y-107037142D01*
X132699047Y-106894285D01*
X132746666Y-106703809D01*
X132746666Y-106322857D01*
X132699047Y-106227619D01*
X132651428Y-106180000D01*
X132556190Y-106132380D01*
X132365714Y-106132380D01*
X132270476Y-106180000D01*
X132222857Y-106227619D01*
X132175238Y-106322857D01*
X132175238Y-106560952D01*
X132222857Y-106656190D01*
X132270476Y-106703809D01*
X132365714Y-106751428D01*
X132556190Y-106751428D01*
X132651428Y-106703809D01*
X132699047Y-106656190D01*
X132746666Y-106560952D01*
%TO.C,J8*%
X171942380Y-113933333D02*
X172656666Y-113933333D01*
X172799523Y-113980952D01*
X172894761Y-114076190D01*
X172942380Y-114219047D01*
X172942380Y-114314285D01*
X172370952Y-113314285D02*
X172323333Y-113409523D01*
X172275714Y-113457142D01*
X172180476Y-113504761D01*
X172132857Y-113504761D01*
X172037619Y-113457142D01*
X171990000Y-113409523D01*
X171942380Y-113314285D01*
X171942380Y-113123809D01*
X171990000Y-113028571D01*
X172037619Y-112980952D01*
X172132857Y-112933333D01*
X172180476Y-112933333D01*
X172275714Y-112980952D01*
X172323333Y-113028571D01*
X172370952Y-113123809D01*
X172370952Y-113314285D01*
X172418571Y-113409523D01*
X172466190Y-113457142D01*
X172561428Y-113504761D01*
X172751904Y-113504761D01*
X172847142Y-113457142D01*
X172894761Y-113409523D01*
X172942380Y-113314285D01*
X172942380Y-113123809D01*
X172894761Y-113028571D01*
X172847142Y-112980952D01*
X172751904Y-112933333D01*
X172561428Y-112933333D01*
X172466190Y-112980952D01*
X172418571Y-113028571D01*
X172370952Y-113123809D01*
%TO.C,J7*%
X113522380Y-113933333D02*
X114236666Y-113933333D01*
X114379523Y-113980952D01*
X114474761Y-114076190D01*
X114522380Y-114219047D01*
X114522380Y-114314285D01*
X113522380Y-113552380D02*
X113522380Y-112885714D01*
X114522380Y-113314285D01*
%TO.C,FB1*%
X150168571Y-78635833D02*
X150168571Y-78969166D01*
X150692380Y-78969166D02*
X149692380Y-78969166D01*
X149692380Y-78492976D01*
X150168571Y-77778690D02*
X150216190Y-77635833D01*
X150263809Y-77588214D01*
X150359047Y-77540595D01*
X150501904Y-77540595D01*
X150597142Y-77588214D01*
X150644761Y-77635833D01*
X150692380Y-77731071D01*
X150692380Y-78112023D01*
X149692380Y-78112023D01*
X149692380Y-77778690D01*
X149740000Y-77683452D01*
X149787619Y-77635833D01*
X149882857Y-77588214D01*
X149978095Y-77588214D01*
X150073333Y-77635833D01*
X150120952Y-77683452D01*
X150168571Y-77778690D01*
X150168571Y-78112023D01*
X150692380Y-76588214D02*
X150692380Y-77159642D01*
X150692380Y-76873928D02*
X149692380Y-76873928D01*
X149835238Y-76969166D01*
X149930476Y-77064404D01*
X149978095Y-77159642D01*
%TO.C,C27*%
X174284642Y-101577142D02*
X174237023Y-101624761D01*
X174094166Y-101672380D01*
X173998928Y-101672380D01*
X173856071Y-101624761D01*
X173760833Y-101529523D01*
X173713214Y-101434285D01*
X173665595Y-101243809D01*
X173665595Y-101100952D01*
X173713214Y-100910476D01*
X173760833Y-100815238D01*
X173856071Y-100720000D01*
X173998928Y-100672380D01*
X174094166Y-100672380D01*
X174237023Y-100720000D01*
X174284642Y-100767619D01*
X174665595Y-100767619D02*
X174713214Y-100720000D01*
X174808452Y-100672380D01*
X175046547Y-100672380D01*
X175141785Y-100720000D01*
X175189404Y-100767619D01*
X175237023Y-100862857D01*
X175237023Y-100958095D01*
X175189404Y-101100952D01*
X174617976Y-101672380D01*
X175237023Y-101672380D01*
X175570357Y-100672380D02*
X176237023Y-100672380D01*
X175808452Y-101672380D01*
%TO.C,C22*%
X150819642Y-111227142D02*
X150772023Y-111274761D01*
X150629166Y-111322380D01*
X150533928Y-111322380D01*
X150391071Y-111274761D01*
X150295833Y-111179523D01*
X150248214Y-111084285D01*
X150200595Y-110893809D01*
X150200595Y-110750952D01*
X150248214Y-110560476D01*
X150295833Y-110465238D01*
X150391071Y-110370000D01*
X150533928Y-110322380D01*
X150629166Y-110322380D01*
X150772023Y-110370000D01*
X150819642Y-110417619D01*
X151200595Y-110417619D02*
X151248214Y-110370000D01*
X151343452Y-110322380D01*
X151581547Y-110322380D01*
X151676785Y-110370000D01*
X151724404Y-110417619D01*
X151772023Y-110512857D01*
X151772023Y-110608095D01*
X151724404Y-110750952D01*
X151152976Y-111322380D01*
X151772023Y-111322380D01*
X152152976Y-110417619D02*
X152200595Y-110370000D01*
X152295833Y-110322380D01*
X152533928Y-110322380D01*
X152629166Y-110370000D01*
X152676785Y-110417619D01*
X152724404Y-110512857D01*
X152724404Y-110608095D01*
X152676785Y-110750952D01*
X152105357Y-111322380D01*
X152724404Y-111322380D01*
%TO.C,C21*%
X157774642Y-111227142D02*
X157727023Y-111274761D01*
X157584166Y-111322380D01*
X157488928Y-111322380D01*
X157346071Y-111274761D01*
X157250833Y-111179523D01*
X157203214Y-111084285D01*
X157155595Y-110893809D01*
X157155595Y-110750952D01*
X157203214Y-110560476D01*
X157250833Y-110465238D01*
X157346071Y-110370000D01*
X157488928Y-110322380D01*
X157584166Y-110322380D01*
X157727023Y-110370000D01*
X157774642Y-110417619D01*
X158155595Y-110417619D02*
X158203214Y-110370000D01*
X158298452Y-110322380D01*
X158536547Y-110322380D01*
X158631785Y-110370000D01*
X158679404Y-110417619D01*
X158727023Y-110512857D01*
X158727023Y-110608095D01*
X158679404Y-110750952D01*
X158107976Y-111322380D01*
X158727023Y-111322380D01*
X159679404Y-111322380D02*
X159107976Y-111322380D01*
X159393690Y-111322380D02*
X159393690Y-110322380D01*
X159298452Y-110465238D01*
X159203214Y-110560476D01*
X159107976Y-110608095D01*
%TO.C,BZ1*%
X122309047Y-100258571D02*
X122451904Y-100306190D01*
X122499523Y-100353809D01*
X122547142Y-100449047D01*
X122547142Y-100591904D01*
X122499523Y-100687142D01*
X122451904Y-100734761D01*
X122356666Y-100782380D01*
X121975714Y-100782380D01*
X121975714Y-99782380D01*
X122309047Y-99782380D01*
X122404285Y-99830000D01*
X122451904Y-99877619D01*
X122499523Y-99972857D01*
X122499523Y-100068095D01*
X122451904Y-100163333D01*
X122404285Y-100210952D01*
X122309047Y-100258571D01*
X121975714Y-100258571D01*
X122880476Y-99782380D02*
X123547142Y-99782380D01*
X122880476Y-100782380D01*
X123547142Y-100782380D01*
X124451904Y-100782380D02*
X123880476Y-100782380D01*
X124166190Y-100782380D02*
X124166190Y-99782380D01*
X124070952Y-99925238D01*
X123975714Y-100020476D01*
X123880476Y-100068095D01*
X126629047Y-100401428D02*
X127390952Y-100401428D01*
X127010000Y-100782380D02*
X127010000Y-100020476D01*
%TO.C,Y1*%
X132341190Y-78046190D02*
X132817380Y-78046190D01*
X131817380Y-78379523D02*
X132341190Y-78046190D01*
X131817380Y-77712857D01*
X132817380Y-76855714D02*
X132817380Y-77427142D01*
X132817380Y-77141428D02*
X131817380Y-77141428D01*
X131960238Y-77236666D01*
X132055476Y-77331904D01*
X132103095Y-77427142D01*
%TO.C,R11*%
X117292380Y-60332857D02*
X116816190Y-60666190D01*
X117292380Y-60904285D02*
X116292380Y-60904285D01*
X116292380Y-60523333D01*
X116340000Y-60428095D01*
X116387619Y-60380476D01*
X116482857Y-60332857D01*
X116625714Y-60332857D01*
X116720952Y-60380476D01*
X116768571Y-60428095D01*
X116816190Y-60523333D01*
X116816190Y-60904285D01*
X117292380Y-59380476D02*
X117292380Y-59951904D01*
X117292380Y-59666190D02*
X116292380Y-59666190D01*
X116435238Y-59761428D01*
X116530476Y-59856666D01*
X116578095Y-59951904D01*
X117292380Y-58428095D02*
X117292380Y-58999523D01*
X117292380Y-58713809D02*
X116292380Y-58713809D01*
X116435238Y-58809047D01*
X116530476Y-58904285D01*
X116578095Y-58999523D01*
%TO.C,R10*%
X122372380Y-60332857D02*
X121896190Y-60666190D01*
X122372380Y-60904285D02*
X121372380Y-60904285D01*
X121372380Y-60523333D01*
X121420000Y-60428095D01*
X121467619Y-60380476D01*
X121562857Y-60332857D01*
X121705714Y-60332857D01*
X121800952Y-60380476D01*
X121848571Y-60428095D01*
X121896190Y-60523333D01*
X121896190Y-60904285D01*
X122372380Y-59380476D02*
X122372380Y-59951904D01*
X122372380Y-59666190D02*
X121372380Y-59666190D01*
X121515238Y-59761428D01*
X121610476Y-59856666D01*
X121658095Y-59951904D01*
X121372380Y-58761428D02*
X121372380Y-58666190D01*
X121420000Y-58570952D01*
X121467619Y-58523333D01*
X121562857Y-58475714D01*
X121753333Y-58428095D01*
X121991428Y-58428095D01*
X122181904Y-58475714D01*
X122277142Y-58523333D01*
X122324761Y-58570952D01*
X122372380Y-58666190D01*
X122372380Y-58761428D01*
X122324761Y-58856666D01*
X122277142Y-58904285D01*
X122181904Y-58951904D01*
X121991428Y-58999523D01*
X121753333Y-58999523D01*
X121562857Y-58951904D01*
X121467619Y-58904285D01*
X121420000Y-58856666D01*
X121372380Y-58761428D01*
%TO.C,R9*%
X119832380Y-59856666D02*
X119356190Y-60190000D01*
X119832380Y-60428095D02*
X118832380Y-60428095D01*
X118832380Y-60047142D01*
X118880000Y-59951904D01*
X118927619Y-59904285D01*
X119022857Y-59856666D01*
X119165714Y-59856666D01*
X119260952Y-59904285D01*
X119308571Y-59951904D01*
X119356190Y-60047142D01*
X119356190Y-60428095D01*
X119832380Y-59380476D02*
X119832380Y-59190000D01*
X119784761Y-59094761D01*
X119737142Y-59047142D01*
X119594285Y-58951904D01*
X119403809Y-58904285D01*
X119022857Y-58904285D01*
X118927619Y-58951904D01*
X118880000Y-58999523D01*
X118832380Y-59094761D01*
X118832380Y-59285238D01*
X118880000Y-59380476D01*
X118927619Y-59428095D01*
X119022857Y-59475714D01*
X119260952Y-59475714D01*
X119356190Y-59428095D01*
X119403809Y-59380476D01*
X119451428Y-59285238D01*
X119451428Y-59094761D01*
X119403809Y-58999523D01*
X119356190Y-58951904D01*
X119260952Y-58904285D01*
%TO.C,R8*%
X129612380Y-56984166D02*
X129136190Y-57317500D01*
X129612380Y-57555595D02*
X128612380Y-57555595D01*
X128612380Y-57174642D01*
X128660000Y-57079404D01*
X128707619Y-57031785D01*
X128802857Y-56984166D01*
X128945714Y-56984166D01*
X129040952Y-57031785D01*
X129088571Y-57079404D01*
X129136190Y-57174642D01*
X129136190Y-57555595D01*
X129040952Y-56412738D02*
X128993333Y-56507976D01*
X128945714Y-56555595D01*
X128850476Y-56603214D01*
X128802857Y-56603214D01*
X128707619Y-56555595D01*
X128660000Y-56507976D01*
X128612380Y-56412738D01*
X128612380Y-56222261D01*
X128660000Y-56127023D01*
X128707619Y-56079404D01*
X128802857Y-56031785D01*
X128850476Y-56031785D01*
X128945714Y-56079404D01*
X128993333Y-56127023D01*
X129040952Y-56222261D01*
X129040952Y-56412738D01*
X129088571Y-56507976D01*
X129136190Y-56555595D01*
X129231428Y-56603214D01*
X129421904Y-56603214D01*
X129517142Y-56555595D01*
X129564761Y-56507976D01*
X129612380Y-56412738D01*
X129612380Y-56222261D01*
X129564761Y-56127023D01*
X129517142Y-56079404D01*
X129421904Y-56031785D01*
X129231428Y-56031785D01*
X129136190Y-56079404D01*
X129088571Y-56127023D01*
X129040952Y-56222261D01*
%TO.C,JP1*%
X115762380Y-84033333D02*
X116476666Y-84033333D01*
X116619523Y-84080952D01*
X116714761Y-84176190D01*
X116762380Y-84319047D01*
X116762380Y-84414285D01*
X116762380Y-83557142D02*
X115762380Y-83557142D01*
X115762380Y-83176190D01*
X115810000Y-83080952D01*
X115857619Y-83033333D01*
X115952857Y-82985714D01*
X116095714Y-82985714D01*
X116190952Y-83033333D01*
X116238571Y-83080952D01*
X116286190Y-83176190D01*
X116286190Y-83557142D01*
X116762380Y-82033333D02*
X116762380Y-82604761D01*
X116762380Y-82319047D02*
X115762380Y-82319047D01*
X115905238Y-82414285D01*
X116000476Y-82509523D01*
X116048095Y-82604761D01*
%TO.C,D6*%
X114752380Y-61033095D02*
X113752380Y-61033095D01*
X113752380Y-60795000D01*
X113800000Y-60652142D01*
X113895238Y-60556904D01*
X113990476Y-60509285D01*
X114180952Y-60461666D01*
X114323809Y-60461666D01*
X114514285Y-60509285D01*
X114609523Y-60556904D01*
X114704761Y-60652142D01*
X114752380Y-60795000D01*
X114752380Y-61033095D01*
X113752380Y-59604523D02*
X113752380Y-59795000D01*
X113800000Y-59890238D01*
X113847619Y-59937857D01*
X113990476Y-60033095D01*
X114180952Y-60080714D01*
X114561904Y-60080714D01*
X114657142Y-60033095D01*
X114704761Y-59985476D01*
X114752380Y-59890238D01*
X114752380Y-59699761D01*
X114704761Y-59604523D01*
X114657142Y-59556904D01*
X114561904Y-59509285D01*
X114323809Y-59509285D01*
X114228571Y-59556904D01*
X114180952Y-59604523D01*
X114133333Y-59699761D01*
X114133333Y-59890238D01*
X114180952Y-59985476D01*
X114228571Y-60033095D01*
X114323809Y-60080714D01*
%TO.C,C19*%
X127357142Y-87002857D02*
X127404761Y-87050476D01*
X127452380Y-87193333D01*
X127452380Y-87288571D01*
X127404761Y-87431428D01*
X127309523Y-87526666D01*
X127214285Y-87574285D01*
X127023809Y-87621904D01*
X126880952Y-87621904D01*
X126690476Y-87574285D01*
X126595238Y-87526666D01*
X126500000Y-87431428D01*
X126452380Y-87288571D01*
X126452380Y-87193333D01*
X126500000Y-87050476D01*
X126547619Y-87002857D01*
X127452380Y-86050476D02*
X127452380Y-86621904D01*
X127452380Y-86336190D02*
X126452380Y-86336190D01*
X126595238Y-86431428D01*
X126690476Y-86526666D01*
X126738095Y-86621904D01*
X127452380Y-85574285D02*
X127452380Y-85383809D01*
X127404761Y-85288571D01*
X127357142Y-85240952D01*
X127214285Y-85145714D01*
X127023809Y-85098095D01*
X126642857Y-85098095D01*
X126547619Y-85145714D01*
X126500000Y-85193333D01*
X126452380Y-85288571D01*
X126452380Y-85479047D01*
X126500000Y-85574285D01*
X126547619Y-85621904D01*
X126642857Y-85669523D01*
X126880952Y-85669523D01*
X126976190Y-85621904D01*
X127023809Y-85574285D01*
X127071428Y-85479047D01*
X127071428Y-85288571D01*
X127023809Y-85193333D01*
X126976190Y-85145714D01*
X126880952Y-85098095D01*
%TO.C,C18*%
X113387142Y-87002857D02*
X113434761Y-87050476D01*
X113482380Y-87193333D01*
X113482380Y-87288571D01*
X113434761Y-87431428D01*
X113339523Y-87526666D01*
X113244285Y-87574285D01*
X113053809Y-87621904D01*
X112910952Y-87621904D01*
X112720476Y-87574285D01*
X112625238Y-87526666D01*
X112530000Y-87431428D01*
X112482380Y-87288571D01*
X112482380Y-87193333D01*
X112530000Y-87050476D01*
X112577619Y-87002857D01*
X113482380Y-86050476D02*
X113482380Y-86621904D01*
X113482380Y-86336190D02*
X112482380Y-86336190D01*
X112625238Y-86431428D01*
X112720476Y-86526666D01*
X112768095Y-86621904D01*
X112910952Y-85479047D02*
X112863333Y-85574285D01*
X112815714Y-85621904D01*
X112720476Y-85669523D01*
X112672857Y-85669523D01*
X112577619Y-85621904D01*
X112530000Y-85574285D01*
X112482380Y-85479047D01*
X112482380Y-85288571D01*
X112530000Y-85193333D01*
X112577619Y-85145714D01*
X112672857Y-85098095D01*
X112720476Y-85098095D01*
X112815714Y-85145714D01*
X112863333Y-85193333D01*
X112910952Y-85288571D01*
X112910952Y-85479047D01*
X112958571Y-85574285D01*
X113006190Y-85621904D01*
X113101428Y-85669523D01*
X113291904Y-85669523D01*
X113387142Y-85621904D01*
X113434761Y-85574285D01*
X113482380Y-85479047D01*
X113482380Y-85288571D01*
X113434761Y-85193333D01*
X113387142Y-85145714D01*
X113291904Y-85098095D01*
X113101428Y-85098095D01*
X113006190Y-85145714D01*
X112958571Y-85193333D01*
X112910952Y-85288571D01*
%TO.C,C17*%
X122277142Y-87002857D02*
X122324761Y-87050476D01*
X122372380Y-87193333D01*
X122372380Y-87288571D01*
X122324761Y-87431428D01*
X122229523Y-87526666D01*
X122134285Y-87574285D01*
X121943809Y-87621904D01*
X121800952Y-87621904D01*
X121610476Y-87574285D01*
X121515238Y-87526666D01*
X121420000Y-87431428D01*
X121372380Y-87288571D01*
X121372380Y-87193333D01*
X121420000Y-87050476D01*
X121467619Y-87002857D01*
X122372380Y-86050476D02*
X122372380Y-86621904D01*
X122372380Y-86336190D02*
X121372380Y-86336190D01*
X121515238Y-86431428D01*
X121610476Y-86526666D01*
X121658095Y-86621904D01*
X121372380Y-85717142D02*
X121372380Y-85050476D01*
X122372380Y-85479047D01*
%TO.C,C16*%
X141929642Y-73637142D02*
X141882023Y-73684761D01*
X141739166Y-73732380D01*
X141643928Y-73732380D01*
X141501071Y-73684761D01*
X141405833Y-73589523D01*
X141358214Y-73494285D01*
X141310595Y-73303809D01*
X141310595Y-73160952D01*
X141358214Y-72970476D01*
X141405833Y-72875238D01*
X141501071Y-72780000D01*
X141643928Y-72732380D01*
X141739166Y-72732380D01*
X141882023Y-72780000D01*
X141929642Y-72827619D01*
X142882023Y-73732380D02*
X142310595Y-73732380D01*
X142596309Y-73732380D02*
X142596309Y-72732380D01*
X142501071Y-72875238D01*
X142405833Y-72970476D01*
X142310595Y-73018095D01*
X143739166Y-72732380D02*
X143548690Y-72732380D01*
X143453452Y-72780000D01*
X143405833Y-72827619D01*
X143310595Y-72970476D01*
X143262976Y-73160952D01*
X143262976Y-73541904D01*
X143310595Y-73637142D01*
X143358214Y-73684761D01*
X143453452Y-73732380D01*
X143643928Y-73732380D01*
X143739166Y-73684761D01*
X143786785Y-73637142D01*
X143834404Y-73541904D01*
X143834404Y-73303809D01*
X143786785Y-73208571D01*
X143739166Y-73160952D01*
X143643928Y-73113333D01*
X143453452Y-73113333D01*
X143358214Y-73160952D01*
X143310595Y-73208571D01*
X143262976Y-73303809D01*
%TO.C,C15*%
X141929642Y-78717142D02*
X141882023Y-78764761D01*
X141739166Y-78812380D01*
X141643928Y-78812380D01*
X141501071Y-78764761D01*
X141405833Y-78669523D01*
X141358214Y-78574285D01*
X141310595Y-78383809D01*
X141310595Y-78240952D01*
X141358214Y-78050476D01*
X141405833Y-77955238D01*
X141501071Y-77860000D01*
X141643928Y-77812380D01*
X141739166Y-77812380D01*
X141882023Y-77860000D01*
X141929642Y-77907619D01*
X142882023Y-78812380D02*
X142310595Y-78812380D01*
X142596309Y-78812380D02*
X142596309Y-77812380D01*
X142501071Y-77955238D01*
X142405833Y-78050476D01*
X142310595Y-78098095D01*
X143786785Y-77812380D02*
X143310595Y-77812380D01*
X143262976Y-78288571D01*
X143310595Y-78240952D01*
X143405833Y-78193333D01*
X143643928Y-78193333D01*
X143739166Y-78240952D01*
X143786785Y-78288571D01*
X143834404Y-78383809D01*
X143834404Y-78621904D01*
X143786785Y-78717142D01*
X143739166Y-78764761D01*
X143643928Y-78812380D01*
X143405833Y-78812380D01*
X143310595Y-78764761D01*
X143262976Y-78717142D01*
%TO.C,R7*%
X183840380Y-79414666D02*
X183364190Y-79748000D01*
X183840380Y-79986095D02*
X182840380Y-79986095D01*
X182840380Y-79605142D01*
X182888000Y-79509904D01*
X182935619Y-79462285D01*
X183030857Y-79414666D01*
X183173714Y-79414666D01*
X183268952Y-79462285D01*
X183316571Y-79509904D01*
X183364190Y-79605142D01*
X183364190Y-79986095D01*
X182840380Y-79081333D02*
X182840380Y-78414666D01*
X183840380Y-78843238D01*
%TO.C,R6*%
X181300380Y-79414666D02*
X180824190Y-79748000D01*
X181300380Y-79986095D02*
X180300380Y-79986095D01*
X180300380Y-79605142D01*
X180348000Y-79509904D01*
X180395619Y-79462285D01*
X180490857Y-79414666D01*
X180633714Y-79414666D01*
X180728952Y-79462285D01*
X180776571Y-79509904D01*
X180824190Y-79605142D01*
X180824190Y-79986095D01*
X180300380Y-78557523D02*
X180300380Y-78748000D01*
X180348000Y-78843238D01*
X180395619Y-78890857D01*
X180538476Y-78986095D01*
X180728952Y-79033714D01*
X181109904Y-79033714D01*
X181205142Y-78986095D01*
X181252761Y-78938476D01*
X181300380Y-78843238D01*
X181300380Y-78652761D01*
X181252761Y-78557523D01*
X181205142Y-78509904D01*
X181109904Y-78462285D01*
X180871809Y-78462285D01*
X180776571Y-78509904D01*
X180728952Y-78557523D01*
X180681333Y-78652761D01*
X180681333Y-78843238D01*
X180728952Y-78938476D01*
X180776571Y-78986095D01*
X180871809Y-79033714D01*
%TO.C,R5*%
X164268333Y-67000380D02*
X163935000Y-66524190D01*
X163696904Y-67000380D02*
X163696904Y-66000380D01*
X164077857Y-66000380D01*
X164173095Y-66048000D01*
X164220714Y-66095619D01*
X164268333Y-66190857D01*
X164268333Y-66333714D01*
X164220714Y-66428952D01*
X164173095Y-66476571D01*
X164077857Y-66524190D01*
X163696904Y-66524190D01*
X165173095Y-66000380D02*
X164696904Y-66000380D01*
X164649285Y-66476571D01*
X164696904Y-66428952D01*
X164792142Y-66381333D01*
X165030238Y-66381333D01*
X165125476Y-66428952D01*
X165173095Y-66476571D01*
X165220714Y-66571809D01*
X165220714Y-66809904D01*
X165173095Y-66905142D01*
X165125476Y-66952761D01*
X165030238Y-67000380D01*
X164792142Y-67000380D01*
X164696904Y-66952761D01*
X164649285Y-66905142D01*
%TO.C,R4*%
X177633333Y-63952380D02*
X177300000Y-63476190D01*
X177061904Y-63952380D02*
X177061904Y-62952380D01*
X177442857Y-62952380D01*
X177538095Y-63000000D01*
X177585714Y-63047619D01*
X177633333Y-63142857D01*
X177633333Y-63285714D01*
X177585714Y-63380952D01*
X177538095Y-63428571D01*
X177442857Y-63476190D01*
X177061904Y-63476190D01*
X178490476Y-63285714D02*
X178490476Y-63952380D01*
X178252380Y-62904761D02*
X178014285Y-63619047D01*
X178633333Y-63619047D01*
%TO.C,R3*%
X179665333Y-63952380D02*
X179332000Y-63476190D01*
X179093904Y-63952380D02*
X179093904Y-62952380D01*
X179474857Y-62952380D01*
X179570095Y-63000000D01*
X179617714Y-63047619D01*
X179665333Y-63142857D01*
X179665333Y-63285714D01*
X179617714Y-63380952D01*
X179570095Y-63428571D01*
X179474857Y-63476190D01*
X179093904Y-63476190D01*
X179998666Y-62952380D02*
X180617714Y-62952380D01*
X180284380Y-63333333D01*
X180427238Y-63333333D01*
X180522476Y-63380952D01*
X180570095Y-63428571D01*
X180617714Y-63523809D01*
X180617714Y-63761904D01*
X180570095Y-63857142D01*
X180522476Y-63904761D01*
X180427238Y-63952380D01*
X180141523Y-63952380D01*
X180046285Y-63904761D01*
X179998666Y-63857142D01*
%TO.C,D5*%
X183840380Y-70334095D02*
X182840380Y-70334095D01*
X182840380Y-70096000D01*
X182888000Y-69953142D01*
X182983238Y-69857904D01*
X183078476Y-69810285D01*
X183268952Y-69762666D01*
X183411809Y-69762666D01*
X183602285Y-69810285D01*
X183697523Y-69857904D01*
X183792761Y-69953142D01*
X183840380Y-70096000D01*
X183840380Y-70334095D01*
X182840380Y-68857904D02*
X182840380Y-69334095D01*
X183316571Y-69381714D01*
X183268952Y-69334095D01*
X183221333Y-69238857D01*
X183221333Y-69000761D01*
X183268952Y-68905523D01*
X183316571Y-68857904D01*
X183411809Y-68810285D01*
X183649904Y-68810285D01*
X183745142Y-68857904D01*
X183792761Y-68905523D01*
X183840380Y-69000761D01*
X183840380Y-69238857D01*
X183792761Y-69334095D01*
X183745142Y-69381714D01*
%TO.C,D4*%
X181300380Y-70334095D02*
X180300380Y-70334095D01*
X180300380Y-70096000D01*
X180348000Y-69953142D01*
X180443238Y-69857904D01*
X180538476Y-69810285D01*
X180728952Y-69762666D01*
X180871809Y-69762666D01*
X181062285Y-69810285D01*
X181157523Y-69857904D01*
X181252761Y-69953142D01*
X181300380Y-70096000D01*
X181300380Y-70334095D01*
X180633714Y-68905523D02*
X181300380Y-68905523D01*
X180252761Y-69143619D02*
X180967047Y-69381714D01*
X180967047Y-68762666D01*
%TO.C,D3*%
X164918380Y-70255595D02*
X163918380Y-70255595D01*
X163918380Y-70017500D01*
X163966000Y-69874642D01*
X164061238Y-69779404D01*
X164156476Y-69731785D01*
X164346952Y-69684166D01*
X164489809Y-69684166D01*
X164680285Y-69731785D01*
X164775523Y-69779404D01*
X164870761Y-69874642D01*
X164918380Y-70017500D01*
X164918380Y-70255595D01*
X163918380Y-69350833D02*
X163918380Y-68731785D01*
X164299333Y-69065119D01*
X164299333Y-68922261D01*
X164346952Y-68827023D01*
X164394571Y-68779404D01*
X164489809Y-68731785D01*
X164727904Y-68731785D01*
X164823142Y-68779404D01*
X164870761Y-68827023D01*
X164918380Y-68922261D01*
X164918380Y-69207976D01*
X164870761Y-69303214D01*
X164823142Y-69350833D01*
%TO.C,C13*%
X170537142Y-85986857D02*
X170584761Y-86034476D01*
X170632380Y-86177333D01*
X170632380Y-86272571D01*
X170584761Y-86415428D01*
X170489523Y-86510666D01*
X170394285Y-86558285D01*
X170203809Y-86605904D01*
X170060952Y-86605904D01*
X169870476Y-86558285D01*
X169775238Y-86510666D01*
X169680000Y-86415428D01*
X169632380Y-86272571D01*
X169632380Y-86177333D01*
X169680000Y-86034476D01*
X169727619Y-85986857D01*
X170632380Y-85034476D02*
X170632380Y-85605904D01*
X170632380Y-85320190D02*
X169632380Y-85320190D01*
X169775238Y-85415428D01*
X169870476Y-85510666D01*
X169918095Y-85605904D01*
X169632380Y-84701142D02*
X169632380Y-84082095D01*
X170013333Y-84415428D01*
X170013333Y-84272571D01*
X170060952Y-84177333D01*
X170108571Y-84129714D01*
X170203809Y-84082095D01*
X170441904Y-84082095D01*
X170537142Y-84129714D01*
X170584761Y-84177333D01*
X170632380Y-84272571D01*
X170632380Y-84558285D01*
X170584761Y-84653523D01*
X170537142Y-84701142D01*
%TO.C,C12*%
X164823142Y-77780357D02*
X164870761Y-77827976D01*
X164918380Y-77970833D01*
X164918380Y-78066071D01*
X164870761Y-78208928D01*
X164775523Y-78304166D01*
X164680285Y-78351785D01*
X164489809Y-78399404D01*
X164346952Y-78399404D01*
X164156476Y-78351785D01*
X164061238Y-78304166D01*
X163966000Y-78208928D01*
X163918380Y-78066071D01*
X163918380Y-77970833D01*
X163966000Y-77827976D01*
X164013619Y-77780357D01*
X164918380Y-76827976D02*
X164918380Y-77399404D01*
X164918380Y-77113690D02*
X163918380Y-77113690D01*
X164061238Y-77208928D01*
X164156476Y-77304166D01*
X164204095Y-77399404D01*
X164013619Y-76447023D02*
X163966000Y-76399404D01*
X163918380Y-76304166D01*
X163918380Y-76066071D01*
X163966000Y-75970833D01*
X164013619Y-75923214D01*
X164108857Y-75875595D01*
X164204095Y-75875595D01*
X164346952Y-75923214D01*
X164918380Y-76494642D01*
X164918380Y-75875595D01*
%TO.C,C11*%
X174617142Y-63857142D02*
X174569523Y-63904761D01*
X174426666Y-63952380D01*
X174331428Y-63952380D01*
X174188571Y-63904761D01*
X174093333Y-63809523D01*
X174045714Y-63714285D01*
X173998095Y-63523809D01*
X173998095Y-63380952D01*
X174045714Y-63190476D01*
X174093333Y-63095238D01*
X174188571Y-63000000D01*
X174331428Y-62952380D01*
X174426666Y-62952380D01*
X174569523Y-63000000D01*
X174617142Y-63047619D01*
X175569523Y-63952380D02*
X174998095Y-63952380D01*
X175283809Y-63952380D02*
X175283809Y-62952380D01*
X175188571Y-63095238D01*
X175093333Y-63190476D01*
X174998095Y-63238095D01*
X176521904Y-63952380D02*
X175950476Y-63952380D01*
X176236190Y-63952380D02*
X176236190Y-62952380D01*
X176140952Y-63095238D01*
X176045714Y-63190476D01*
X175950476Y-63238095D01*
%TO.C,C10*%
X170045142Y-63857142D02*
X169997523Y-63904761D01*
X169854666Y-63952380D01*
X169759428Y-63952380D01*
X169616571Y-63904761D01*
X169521333Y-63809523D01*
X169473714Y-63714285D01*
X169426095Y-63523809D01*
X169426095Y-63380952D01*
X169473714Y-63190476D01*
X169521333Y-63095238D01*
X169616571Y-63000000D01*
X169759428Y-62952380D01*
X169854666Y-62952380D01*
X169997523Y-63000000D01*
X170045142Y-63047619D01*
X170997523Y-63952380D02*
X170426095Y-63952380D01*
X170711809Y-63952380D02*
X170711809Y-62952380D01*
X170616571Y-63095238D01*
X170521333Y-63190476D01*
X170426095Y-63238095D01*
X171616571Y-62952380D02*
X171711809Y-62952380D01*
X171807047Y-63000000D01*
X171854666Y-63047619D01*
X171902285Y-63142857D01*
X171949904Y-63333333D01*
X171949904Y-63571428D01*
X171902285Y-63761904D01*
X171854666Y-63857142D01*
X171807047Y-63904761D01*
X171711809Y-63952380D01*
X171616571Y-63952380D01*
X171521333Y-63904761D01*
X171473714Y-63857142D01*
X171426095Y-63761904D01*
X171378476Y-63571428D01*
X171378476Y-63333333D01*
X171426095Y-63142857D01*
X171473714Y-63047619D01*
X171521333Y-63000000D01*
X171616571Y-62952380D01*
%TO.C,C9*%
X173061333Y-63857142D02*
X173013714Y-63904761D01*
X172870857Y-63952380D01*
X172775619Y-63952380D01*
X172632761Y-63904761D01*
X172537523Y-63809523D01*
X172489904Y-63714285D01*
X172442285Y-63523809D01*
X172442285Y-63380952D01*
X172489904Y-63190476D01*
X172537523Y-63095238D01*
X172632761Y-63000000D01*
X172775619Y-62952380D01*
X172870857Y-62952380D01*
X173013714Y-63000000D01*
X173061333Y-63047619D01*
X173537523Y-63952380D02*
X173728000Y-63952380D01*
X173823238Y-63904761D01*
X173870857Y-63857142D01*
X173966095Y-63714285D01*
X174013714Y-63523809D01*
X174013714Y-63142857D01*
X173966095Y-63047619D01*
X173918476Y-63000000D01*
X173823238Y-62952380D01*
X173632761Y-62952380D01*
X173537523Y-63000000D01*
X173489904Y-63047619D01*
X173442285Y-63142857D01*
X173442285Y-63380952D01*
X173489904Y-63476190D01*
X173537523Y-63523809D01*
X173632761Y-63571428D01*
X173823238Y-63571428D01*
X173918476Y-63523809D01*
X173966095Y-63476190D01*
X174013714Y-63380952D01*
%TO.C,R2*%
X161997380Y-57316666D02*
X161521190Y-57650000D01*
X161997380Y-57888095D02*
X160997380Y-57888095D01*
X160997380Y-57507142D01*
X161045000Y-57411904D01*
X161092619Y-57364285D01*
X161187857Y-57316666D01*
X161330714Y-57316666D01*
X161425952Y-57364285D01*
X161473571Y-57411904D01*
X161521190Y-57507142D01*
X161521190Y-57888095D01*
X161092619Y-56935714D02*
X161045000Y-56888095D01*
X160997380Y-56792857D01*
X160997380Y-56554761D01*
X161045000Y-56459523D01*
X161092619Y-56411904D01*
X161187857Y-56364285D01*
X161283095Y-56364285D01*
X161425952Y-56411904D01*
X161997380Y-56983333D01*
X161997380Y-56364285D01*
%TO.C,J6*%
X156067380Y-53038333D02*
X156781666Y-53038333D01*
X156924523Y-53085952D01*
X157019761Y-53181190D01*
X157067380Y-53324047D01*
X157067380Y-53419285D01*
X156067380Y-52133571D02*
X156067380Y-52324047D01*
X156115000Y-52419285D01*
X156162619Y-52466904D01*
X156305476Y-52562142D01*
X156495952Y-52609761D01*
X156876904Y-52609761D01*
X156972142Y-52562142D01*
X157019761Y-52514523D01*
X157067380Y-52419285D01*
X157067380Y-52228809D01*
X157019761Y-52133571D01*
X156972142Y-52085952D01*
X156876904Y-52038333D01*
X156638809Y-52038333D01*
X156543571Y-52085952D01*
X156495952Y-52133571D01*
X156448333Y-52228809D01*
X156448333Y-52419285D01*
X156495952Y-52514523D01*
X156543571Y-52562142D01*
X156638809Y-52609761D01*
%TO.C,R1*%
X138595833Y-51507380D02*
X138262500Y-51031190D01*
X138024404Y-51507380D02*
X138024404Y-50507380D01*
X138405357Y-50507380D01*
X138500595Y-50555000D01*
X138548214Y-50602619D01*
X138595833Y-50697857D01*
X138595833Y-50840714D01*
X138548214Y-50935952D01*
X138500595Y-50983571D01*
X138405357Y-51031190D01*
X138024404Y-51031190D01*
X139548214Y-51507380D02*
X138976785Y-51507380D01*
X139262500Y-51507380D02*
X139262500Y-50507380D01*
X139167261Y-50650238D01*
X139072023Y-50745476D01*
X138976785Y-50793095D01*
%TO.C,D2*%
X142469404Y-54807380D02*
X142469404Y-53807380D01*
X142707500Y-53807380D01*
X142850357Y-53855000D01*
X142945595Y-53950238D01*
X142993214Y-54045476D01*
X143040833Y-54235952D01*
X143040833Y-54378809D01*
X142993214Y-54569285D01*
X142945595Y-54664523D01*
X142850357Y-54759761D01*
X142707500Y-54807380D01*
X142469404Y-54807380D01*
X143421785Y-53902619D02*
X143469404Y-53855000D01*
X143564642Y-53807380D01*
X143802738Y-53807380D01*
X143897976Y-53855000D01*
X143945595Y-53902619D01*
X143993214Y-53997857D01*
X143993214Y-54093095D01*
X143945595Y-54235952D01*
X143374166Y-54807380D01*
X143993214Y-54807380D01*
%TO.C,J5*%
X148447380Y-53038333D02*
X149161666Y-53038333D01*
X149304523Y-53085952D01*
X149399761Y-53181190D01*
X149447380Y-53324047D01*
X149447380Y-53419285D01*
X148447380Y-52085952D02*
X148447380Y-52562142D01*
X148923571Y-52609761D01*
X148875952Y-52562142D01*
X148828333Y-52466904D01*
X148828333Y-52228809D01*
X148875952Y-52133571D01*
X148923571Y-52085952D01*
X149018809Y-52038333D01*
X149256904Y-52038333D01*
X149352142Y-52085952D01*
X149399761Y-52133571D01*
X149447380Y-52228809D01*
X149447380Y-52466904D01*
X149399761Y-52562142D01*
X149352142Y-52609761D01*
%TO.C,U5*%
X173696380Y-75056904D02*
X174505904Y-75056904D01*
X174601142Y-75009285D01*
X174648761Y-74961666D01*
X174696380Y-74866428D01*
X174696380Y-74675952D01*
X174648761Y-74580714D01*
X174601142Y-74533095D01*
X174505904Y-74485476D01*
X173696380Y-74485476D01*
X173696380Y-73533095D02*
X173696380Y-74009285D01*
X174172571Y-74056904D01*
X174124952Y-74009285D01*
X174077333Y-73914047D01*
X174077333Y-73675952D01*
X174124952Y-73580714D01*
X174172571Y-73533095D01*
X174267809Y-73485476D01*
X174505904Y-73485476D01*
X174601142Y-73533095D01*
X174648761Y-73580714D01*
X174696380Y-73675952D01*
X174696380Y-73914047D01*
X174648761Y-74009285D01*
X174601142Y-74056904D01*
%TO.C,U4*%
X110202380Y-73786904D02*
X111011904Y-73786904D01*
X111107142Y-73739285D01*
X111154761Y-73691666D01*
X111202380Y-73596428D01*
X111202380Y-73405952D01*
X111154761Y-73310714D01*
X111107142Y-73263095D01*
X111011904Y-73215476D01*
X110202380Y-73215476D01*
X110535714Y-72310714D02*
X111202380Y-72310714D01*
X110154761Y-72548809D02*
X110869047Y-72786904D01*
X110869047Y-72167857D01*
%TO.C,J2*%
X164402380Y-51358333D02*
X165116666Y-51358333D01*
X165259523Y-51405952D01*
X165354761Y-51501190D01*
X165402380Y-51644047D01*
X165402380Y-51739285D01*
X164497619Y-50929761D02*
X164450000Y-50882142D01*
X164402380Y-50786904D01*
X164402380Y-50548809D01*
X164450000Y-50453571D01*
X164497619Y-50405952D01*
X164592857Y-50358333D01*
X164688095Y-50358333D01*
X164830952Y-50405952D01*
X165402380Y-50977380D01*
X165402380Y-50358333D01*
%TO.C,J1*%
X116506666Y-52792380D02*
X116506666Y-53506666D01*
X116459047Y-53649523D01*
X116363809Y-53744761D01*
X116220952Y-53792380D01*
X116125714Y-53792380D01*
X117506666Y-53792380D02*
X116935238Y-53792380D01*
X117220952Y-53792380D02*
X117220952Y-52792380D01*
X117125714Y-52935238D01*
X117030476Y-53030476D01*
X116935238Y-53078095D01*
%TO.C,H4*%
X191008095Y-104202380D02*
X191008095Y-103202380D01*
X191008095Y-103678571D02*
X191579523Y-103678571D01*
X191579523Y-104202380D02*
X191579523Y-103202380D01*
X192484285Y-103535714D02*
X192484285Y-104202380D01*
X192246190Y-103154761D02*
X192008095Y-103869047D01*
X192627142Y-103869047D01*
%TO.C,H3*%
X191008095Y-50862380D02*
X191008095Y-49862380D01*
X191008095Y-50338571D02*
X191579523Y-50338571D01*
X191579523Y-50862380D02*
X191579523Y-49862380D01*
X191960476Y-49862380D02*
X192579523Y-49862380D01*
X192246190Y-50243333D01*
X192389047Y-50243333D01*
X192484285Y-50290952D01*
X192531904Y-50338571D01*
X192579523Y-50433809D01*
X192579523Y-50671904D01*
X192531904Y-50767142D01*
X192484285Y-50814761D01*
X192389047Y-50862380D01*
X192103333Y-50862380D01*
X192008095Y-50814761D01*
X191960476Y-50767142D01*
%TO.C,H2*%
X98298095Y-104202380D02*
X98298095Y-103202380D01*
X98298095Y-103678571D02*
X98869523Y-103678571D01*
X98869523Y-104202380D02*
X98869523Y-103202380D01*
X99298095Y-103297619D02*
X99345714Y-103250000D01*
X99440952Y-103202380D01*
X99679047Y-103202380D01*
X99774285Y-103250000D01*
X99821904Y-103297619D01*
X99869523Y-103392857D01*
X99869523Y-103488095D01*
X99821904Y-103630952D01*
X99250476Y-104202380D01*
X99869523Y-104202380D01*
%TO.C,H1*%
X98298095Y-50862380D02*
X98298095Y-49862380D01*
X98298095Y-50338571D02*
X98869523Y-50338571D01*
X98869523Y-50862380D02*
X98869523Y-49862380D01*
X99869523Y-50862380D02*
X99298095Y-50862380D01*
X99583809Y-50862380D02*
X99583809Y-49862380D01*
X99488571Y-50005238D01*
X99393333Y-50100476D01*
X99298095Y-50148095D01*
%TD*%
M02*
