%TF.GenerationSoftware,KiCad,Pcbnew,(5.1.6)-1*%
%TF.CreationDate,2021-07-30T14:46:14+05:30*%
%TF.ProjectId,StockPile_Final,53746f63-6b50-4696-9c65-5f46696e616c,rev?*%
%TF.SameCoordinates,Original*%
%TF.FileFunction,Soldermask,Top*%
%TF.FilePolarity,Negative*%
%FSLAX46Y46*%
G04 Gerber Fmt 4.6, Leading zero omitted, Abs format (unit mm)*
G04 Created by KiCad (PCBNEW (5.1.6)-1) date 2021-07-30 14:46:14*
%MOMM*%
%LPD*%
G01*
G04 APERTURE LIST*
%ADD10O,2.050000X1.800000*%
%ADD11C,1.300000*%
%ADD12C,1.600000*%
%ADD13O,1.800000X1.800000*%
%ADD14R,1.800000X1.800000*%
%ADD15C,2.100000*%
%ADD16R,2.100000X2.100000*%
%ADD17C,0.100000*%
%ADD18O,2.100000X1.800000*%
%ADD19R,0.550000X1.850000*%
%ADD20C,3.600000*%
%ADD21C,1.800000*%
%ADD22C,1.700000*%
%ADD23R,1.700000X1.600000*%
%ADD24C,3.100000*%
%ADD25C,3.300000*%
G04 APERTURE END LIST*
%TO.C,J3*%
G36*
G01*
X99820400Y-98690000D02*
X98299600Y-98690000D01*
G75*
G02*
X98035000Y-98425400I0J264600D01*
G01*
X98035000Y-97154600D01*
G75*
G02*
X98299600Y-96890000I264600J0D01*
G01*
X99820400Y-96890000D01*
G75*
G02*
X100085000Y-97154600I0J-264600D01*
G01*
X100085000Y-98425400D01*
G75*
G02*
X99820400Y-98690000I-264600J0D01*
G01*
G37*
D10*
X99060000Y-95290000D03*
X99060000Y-92790000D03*
X99060000Y-90290000D03*
X99060000Y-87790000D03*
X99060000Y-85290000D03*
X99060000Y-82790000D03*
X99060000Y-80290000D03*
X99060000Y-77790000D03*
X99060000Y-75290000D03*
D11*
X101060000Y-99390000D03*
%TD*%
%TO.C,U1*%
G36*
G01*
X148740000Y-83195000D02*
X148740000Y-81820000D01*
G75*
G02*
X148840000Y-81720000I100000J0D01*
G01*
X149040000Y-81720000D01*
G75*
G02*
X149140000Y-81820000I0J-100000D01*
G01*
X149140000Y-83195000D01*
G75*
G02*
X149040000Y-83295000I-100000J0D01*
G01*
X148840000Y-83295000D01*
G75*
G02*
X148740000Y-83195000I0J100000D01*
G01*
G37*
G36*
G01*
X149240000Y-83195000D02*
X149240000Y-81820000D01*
G75*
G02*
X149340000Y-81720000I100000J0D01*
G01*
X149540000Y-81720000D01*
G75*
G02*
X149640000Y-81820000I0J-100000D01*
G01*
X149640000Y-83195000D01*
G75*
G02*
X149540000Y-83295000I-100000J0D01*
G01*
X149340000Y-83295000D01*
G75*
G02*
X149240000Y-83195000I0J100000D01*
G01*
G37*
G36*
G01*
X149740000Y-83195000D02*
X149740000Y-81820000D01*
G75*
G02*
X149840000Y-81720000I100000J0D01*
G01*
X150040000Y-81720000D01*
G75*
G02*
X150140000Y-81820000I0J-100000D01*
G01*
X150140000Y-83195000D01*
G75*
G02*
X150040000Y-83295000I-100000J0D01*
G01*
X149840000Y-83295000D01*
G75*
G02*
X149740000Y-83195000I0J100000D01*
G01*
G37*
G36*
G01*
X150240000Y-83195000D02*
X150240000Y-81820000D01*
G75*
G02*
X150340000Y-81720000I100000J0D01*
G01*
X150540000Y-81720000D01*
G75*
G02*
X150640000Y-81820000I0J-100000D01*
G01*
X150640000Y-83195000D01*
G75*
G02*
X150540000Y-83295000I-100000J0D01*
G01*
X150340000Y-83295000D01*
G75*
G02*
X150240000Y-83195000I0J100000D01*
G01*
G37*
G36*
G01*
X150740000Y-83195000D02*
X150740000Y-81820000D01*
G75*
G02*
X150840000Y-81720000I100000J0D01*
G01*
X151040000Y-81720000D01*
G75*
G02*
X151140000Y-81820000I0J-100000D01*
G01*
X151140000Y-83195000D01*
G75*
G02*
X151040000Y-83295000I-100000J0D01*
G01*
X150840000Y-83295000D01*
G75*
G02*
X150740000Y-83195000I0J100000D01*
G01*
G37*
G36*
G01*
X151240000Y-83195000D02*
X151240000Y-81820000D01*
G75*
G02*
X151340000Y-81720000I100000J0D01*
G01*
X151540000Y-81720000D01*
G75*
G02*
X151640000Y-81820000I0J-100000D01*
G01*
X151640000Y-83195000D01*
G75*
G02*
X151540000Y-83295000I-100000J0D01*
G01*
X151340000Y-83295000D01*
G75*
G02*
X151240000Y-83195000I0J100000D01*
G01*
G37*
G36*
G01*
X151740000Y-83195000D02*
X151740000Y-81820000D01*
G75*
G02*
X151840000Y-81720000I100000J0D01*
G01*
X152040000Y-81720000D01*
G75*
G02*
X152140000Y-81820000I0J-100000D01*
G01*
X152140000Y-83195000D01*
G75*
G02*
X152040000Y-83295000I-100000J0D01*
G01*
X151840000Y-83295000D01*
G75*
G02*
X151740000Y-83195000I0J100000D01*
G01*
G37*
G36*
G01*
X152240000Y-83195000D02*
X152240000Y-81820000D01*
G75*
G02*
X152340000Y-81720000I100000J0D01*
G01*
X152540000Y-81720000D01*
G75*
G02*
X152640000Y-81820000I0J-100000D01*
G01*
X152640000Y-83195000D01*
G75*
G02*
X152540000Y-83295000I-100000J0D01*
G01*
X152340000Y-83295000D01*
G75*
G02*
X152240000Y-83195000I0J100000D01*
G01*
G37*
G36*
G01*
X152740000Y-83195000D02*
X152740000Y-81820000D01*
G75*
G02*
X152840000Y-81720000I100000J0D01*
G01*
X153040000Y-81720000D01*
G75*
G02*
X153140000Y-81820000I0J-100000D01*
G01*
X153140000Y-83195000D01*
G75*
G02*
X153040000Y-83295000I-100000J0D01*
G01*
X152840000Y-83295000D01*
G75*
G02*
X152740000Y-83195000I0J100000D01*
G01*
G37*
G36*
G01*
X153240000Y-83195000D02*
X153240000Y-81820000D01*
G75*
G02*
X153340000Y-81720000I100000J0D01*
G01*
X153540000Y-81720000D01*
G75*
G02*
X153640000Y-81820000I0J-100000D01*
G01*
X153640000Y-83195000D01*
G75*
G02*
X153540000Y-83295000I-100000J0D01*
G01*
X153340000Y-83295000D01*
G75*
G02*
X153240000Y-83195000I0J100000D01*
G01*
G37*
G36*
G01*
X153740000Y-83195000D02*
X153740000Y-81820000D01*
G75*
G02*
X153840000Y-81720000I100000J0D01*
G01*
X154040000Y-81720000D01*
G75*
G02*
X154140000Y-81820000I0J-100000D01*
G01*
X154140000Y-83195000D01*
G75*
G02*
X154040000Y-83295000I-100000J0D01*
G01*
X153840000Y-83295000D01*
G75*
G02*
X153740000Y-83195000I0J100000D01*
G01*
G37*
G36*
G01*
X154240000Y-83195000D02*
X154240000Y-81820000D01*
G75*
G02*
X154340000Y-81720000I100000J0D01*
G01*
X154540000Y-81720000D01*
G75*
G02*
X154640000Y-81820000I0J-100000D01*
G01*
X154640000Y-83195000D01*
G75*
G02*
X154540000Y-83295000I-100000J0D01*
G01*
X154340000Y-83295000D01*
G75*
G02*
X154240000Y-83195000I0J100000D01*
G01*
G37*
G36*
G01*
X154740000Y-83195000D02*
X154740000Y-81820000D01*
G75*
G02*
X154840000Y-81720000I100000J0D01*
G01*
X155040000Y-81720000D01*
G75*
G02*
X155140000Y-81820000I0J-100000D01*
G01*
X155140000Y-83195000D01*
G75*
G02*
X155040000Y-83295000I-100000J0D01*
G01*
X154840000Y-83295000D01*
G75*
G02*
X154740000Y-83195000I0J100000D01*
G01*
G37*
G36*
G01*
X155240000Y-83195000D02*
X155240000Y-81820000D01*
G75*
G02*
X155340000Y-81720000I100000J0D01*
G01*
X155540000Y-81720000D01*
G75*
G02*
X155640000Y-81820000I0J-100000D01*
G01*
X155640000Y-83195000D01*
G75*
G02*
X155540000Y-83295000I-100000J0D01*
G01*
X155340000Y-83295000D01*
G75*
G02*
X155240000Y-83195000I0J100000D01*
G01*
G37*
G36*
G01*
X155740000Y-83195000D02*
X155740000Y-81820000D01*
G75*
G02*
X155840000Y-81720000I100000J0D01*
G01*
X156040000Y-81720000D01*
G75*
G02*
X156140000Y-81820000I0J-100000D01*
G01*
X156140000Y-83195000D01*
G75*
G02*
X156040000Y-83295000I-100000J0D01*
G01*
X155840000Y-83295000D01*
G75*
G02*
X155740000Y-83195000I0J100000D01*
G01*
G37*
G36*
G01*
X156240000Y-83195000D02*
X156240000Y-81820000D01*
G75*
G02*
X156340000Y-81720000I100000J0D01*
G01*
X156540000Y-81720000D01*
G75*
G02*
X156640000Y-81820000I0J-100000D01*
G01*
X156640000Y-83195000D01*
G75*
G02*
X156540000Y-83295000I-100000J0D01*
G01*
X156340000Y-83295000D01*
G75*
G02*
X156240000Y-83195000I0J100000D01*
G01*
G37*
G36*
G01*
X156740000Y-83195000D02*
X156740000Y-81820000D01*
G75*
G02*
X156840000Y-81720000I100000J0D01*
G01*
X157040000Y-81720000D01*
G75*
G02*
X157140000Y-81820000I0J-100000D01*
G01*
X157140000Y-83195000D01*
G75*
G02*
X157040000Y-83295000I-100000J0D01*
G01*
X156840000Y-83295000D01*
G75*
G02*
X156740000Y-83195000I0J100000D01*
G01*
G37*
G36*
G01*
X157240000Y-83195000D02*
X157240000Y-81820000D01*
G75*
G02*
X157340000Y-81720000I100000J0D01*
G01*
X157540000Y-81720000D01*
G75*
G02*
X157640000Y-81820000I0J-100000D01*
G01*
X157640000Y-83195000D01*
G75*
G02*
X157540000Y-83295000I-100000J0D01*
G01*
X157340000Y-83295000D01*
G75*
G02*
X157240000Y-83195000I0J100000D01*
G01*
G37*
G36*
G01*
X157740000Y-83195000D02*
X157740000Y-81820000D01*
G75*
G02*
X157840000Y-81720000I100000J0D01*
G01*
X158040000Y-81720000D01*
G75*
G02*
X158140000Y-81820000I0J-100000D01*
G01*
X158140000Y-83195000D01*
G75*
G02*
X158040000Y-83295000I-100000J0D01*
G01*
X157840000Y-83295000D01*
G75*
G02*
X157740000Y-83195000I0J100000D01*
G01*
G37*
G36*
G01*
X158240000Y-83195000D02*
X158240000Y-81820000D01*
G75*
G02*
X158340000Y-81720000I100000J0D01*
G01*
X158540000Y-81720000D01*
G75*
G02*
X158640000Y-81820000I0J-100000D01*
G01*
X158640000Y-83195000D01*
G75*
G02*
X158540000Y-83295000I-100000J0D01*
G01*
X158340000Y-83295000D01*
G75*
G02*
X158240000Y-83195000I0J100000D01*
G01*
G37*
G36*
G01*
X158740000Y-83195000D02*
X158740000Y-81820000D01*
G75*
G02*
X158840000Y-81720000I100000J0D01*
G01*
X159040000Y-81720000D01*
G75*
G02*
X159140000Y-81820000I0J-100000D01*
G01*
X159140000Y-83195000D01*
G75*
G02*
X159040000Y-83295000I-100000J0D01*
G01*
X158840000Y-83295000D01*
G75*
G02*
X158740000Y-83195000I0J100000D01*
G01*
G37*
G36*
G01*
X159240000Y-83195000D02*
X159240000Y-81820000D01*
G75*
G02*
X159340000Y-81720000I100000J0D01*
G01*
X159540000Y-81720000D01*
G75*
G02*
X159640000Y-81820000I0J-100000D01*
G01*
X159640000Y-83195000D01*
G75*
G02*
X159540000Y-83295000I-100000J0D01*
G01*
X159340000Y-83295000D01*
G75*
G02*
X159240000Y-83195000I0J100000D01*
G01*
G37*
G36*
G01*
X159740000Y-83195000D02*
X159740000Y-81820000D01*
G75*
G02*
X159840000Y-81720000I100000J0D01*
G01*
X160040000Y-81720000D01*
G75*
G02*
X160140000Y-81820000I0J-100000D01*
G01*
X160140000Y-83195000D01*
G75*
G02*
X160040000Y-83295000I-100000J0D01*
G01*
X159840000Y-83295000D01*
G75*
G02*
X159740000Y-83195000I0J100000D01*
G01*
G37*
G36*
G01*
X160240000Y-83195000D02*
X160240000Y-81820000D01*
G75*
G02*
X160340000Y-81720000I100000J0D01*
G01*
X160540000Y-81720000D01*
G75*
G02*
X160640000Y-81820000I0J-100000D01*
G01*
X160640000Y-83195000D01*
G75*
G02*
X160540000Y-83295000I-100000J0D01*
G01*
X160340000Y-83295000D01*
G75*
G02*
X160240000Y-83195000I0J100000D01*
G01*
G37*
G36*
G01*
X160740000Y-83195000D02*
X160740000Y-81820000D01*
G75*
G02*
X160840000Y-81720000I100000J0D01*
G01*
X161040000Y-81720000D01*
G75*
G02*
X161140000Y-81820000I0J-100000D01*
G01*
X161140000Y-83195000D01*
G75*
G02*
X161040000Y-83295000I-100000J0D01*
G01*
X160840000Y-83295000D01*
G75*
G02*
X160740000Y-83195000I0J100000D01*
G01*
G37*
G36*
G01*
X161815000Y-84270000D02*
X161815000Y-84070000D01*
G75*
G02*
X161915000Y-83970000I100000J0D01*
G01*
X163290000Y-83970000D01*
G75*
G02*
X163390000Y-84070000I0J-100000D01*
G01*
X163390000Y-84270000D01*
G75*
G02*
X163290000Y-84370000I-100000J0D01*
G01*
X161915000Y-84370000D01*
G75*
G02*
X161815000Y-84270000I0J100000D01*
G01*
G37*
G36*
G01*
X161815000Y-84770000D02*
X161815000Y-84570000D01*
G75*
G02*
X161915000Y-84470000I100000J0D01*
G01*
X163290000Y-84470000D01*
G75*
G02*
X163390000Y-84570000I0J-100000D01*
G01*
X163390000Y-84770000D01*
G75*
G02*
X163290000Y-84870000I-100000J0D01*
G01*
X161915000Y-84870000D01*
G75*
G02*
X161815000Y-84770000I0J100000D01*
G01*
G37*
G36*
G01*
X161815000Y-85270000D02*
X161815000Y-85070000D01*
G75*
G02*
X161915000Y-84970000I100000J0D01*
G01*
X163290000Y-84970000D01*
G75*
G02*
X163390000Y-85070000I0J-100000D01*
G01*
X163390000Y-85270000D01*
G75*
G02*
X163290000Y-85370000I-100000J0D01*
G01*
X161915000Y-85370000D01*
G75*
G02*
X161815000Y-85270000I0J100000D01*
G01*
G37*
G36*
G01*
X161815000Y-85770000D02*
X161815000Y-85570000D01*
G75*
G02*
X161915000Y-85470000I100000J0D01*
G01*
X163290000Y-85470000D01*
G75*
G02*
X163390000Y-85570000I0J-100000D01*
G01*
X163390000Y-85770000D01*
G75*
G02*
X163290000Y-85870000I-100000J0D01*
G01*
X161915000Y-85870000D01*
G75*
G02*
X161815000Y-85770000I0J100000D01*
G01*
G37*
G36*
G01*
X161815000Y-86270000D02*
X161815000Y-86070000D01*
G75*
G02*
X161915000Y-85970000I100000J0D01*
G01*
X163290000Y-85970000D01*
G75*
G02*
X163390000Y-86070000I0J-100000D01*
G01*
X163390000Y-86270000D01*
G75*
G02*
X163290000Y-86370000I-100000J0D01*
G01*
X161915000Y-86370000D01*
G75*
G02*
X161815000Y-86270000I0J100000D01*
G01*
G37*
G36*
G01*
X161815000Y-86770000D02*
X161815000Y-86570000D01*
G75*
G02*
X161915000Y-86470000I100000J0D01*
G01*
X163290000Y-86470000D01*
G75*
G02*
X163390000Y-86570000I0J-100000D01*
G01*
X163390000Y-86770000D01*
G75*
G02*
X163290000Y-86870000I-100000J0D01*
G01*
X161915000Y-86870000D01*
G75*
G02*
X161815000Y-86770000I0J100000D01*
G01*
G37*
G36*
G01*
X161815000Y-87270000D02*
X161815000Y-87070000D01*
G75*
G02*
X161915000Y-86970000I100000J0D01*
G01*
X163290000Y-86970000D01*
G75*
G02*
X163390000Y-87070000I0J-100000D01*
G01*
X163390000Y-87270000D01*
G75*
G02*
X163290000Y-87370000I-100000J0D01*
G01*
X161915000Y-87370000D01*
G75*
G02*
X161815000Y-87270000I0J100000D01*
G01*
G37*
G36*
G01*
X161815000Y-87770000D02*
X161815000Y-87570000D01*
G75*
G02*
X161915000Y-87470000I100000J0D01*
G01*
X163290000Y-87470000D01*
G75*
G02*
X163390000Y-87570000I0J-100000D01*
G01*
X163390000Y-87770000D01*
G75*
G02*
X163290000Y-87870000I-100000J0D01*
G01*
X161915000Y-87870000D01*
G75*
G02*
X161815000Y-87770000I0J100000D01*
G01*
G37*
G36*
G01*
X161815000Y-88270000D02*
X161815000Y-88070000D01*
G75*
G02*
X161915000Y-87970000I100000J0D01*
G01*
X163290000Y-87970000D01*
G75*
G02*
X163390000Y-88070000I0J-100000D01*
G01*
X163390000Y-88270000D01*
G75*
G02*
X163290000Y-88370000I-100000J0D01*
G01*
X161915000Y-88370000D01*
G75*
G02*
X161815000Y-88270000I0J100000D01*
G01*
G37*
G36*
G01*
X161815000Y-88770000D02*
X161815000Y-88570000D01*
G75*
G02*
X161915000Y-88470000I100000J0D01*
G01*
X163290000Y-88470000D01*
G75*
G02*
X163390000Y-88570000I0J-100000D01*
G01*
X163390000Y-88770000D01*
G75*
G02*
X163290000Y-88870000I-100000J0D01*
G01*
X161915000Y-88870000D01*
G75*
G02*
X161815000Y-88770000I0J100000D01*
G01*
G37*
G36*
G01*
X161815000Y-89270000D02*
X161815000Y-89070000D01*
G75*
G02*
X161915000Y-88970000I100000J0D01*
G01*
X163290000Y-88970000D01*
G75*
G02*
X163390000Y-89070000I0J-100000D01*
G01*
X163390000Y-89270000D01*
G75*
G02*
X163290000Y-89370000I-100000J0D01*
G01*
X161915000Y-89370000D01*
G75*
G02*
X161815000Y-89270000I0J100000D01*
G01*
G37*
G36*
G01*
X161815000Y-89770000D02*
X161815000Y-89570000D01*
G75*
G02*
X161915000Y-89470000I100000J0D01*
G01*
X163290000Y-89470000D01*
G75*
G02*
X163390000Y-89570000I0J-100000D01*
G01*
X163390000Y-89770000D01*
G75*
G02*
X163290000Y-89870000I-100000J0D01*
G01*
X161915000Y-89870000D01*
G75*
G02*
X161815000Y-89770000I0J100000D01*
G01*
G37*
G36*
G01*
X161815000Y-90270000D02*
X161815000Y-90070000D01*
G75*
G02*
X161915000Y-89970000I100000J0D01*
G01*
X163290000Y-89970000D01*
G75*
G02*
X163390000Y-90070000I0J-100000D01*
G01*
X163390000Y-90270000D01*
G75*
G02*
X163290000Y-90370000I-100000J0D01*
G01*
X161915000Y-90370000D01*
G75*
G02*
X161815000Y-90270000I0J100000D01*
G01*
G37*
G36*
G01*
X161815000Y-90770000D02*
X161815000Y-90570000D01*
G75*
G02*
X161915000Y-90470000I100000J0D01*
G01*
X163290000Y-90470000D01*
G75*
G02*
X163390000Y-90570000I0J-100000D01*
G01*
X163390000Y-90770000D01*
G75*
G02*
X163290000Y-90870000I-100000J0D01*
G01*
X161915000Y-90870000D01*
G75*
G02*
X161815000Y-90770000I0J100000D01*
G01*
G37*
G36*
G01*
X161815000Y-91270000D02*
X161815000Y-91070000D01*
G75*
G02*
X161915000Y-90970000I100000J0D01*
G01*
X163290000Y-90970000D01*
G75*
G02*
X163390000Y-91070000I0J-100000D01*
G01*
X163390000Y-91270000D01*
G75*
G02*
X163290000Y-91370000I-100000J0D01*
G01*
X161915000Y-91370000D01*
G75*
G02*
X161815000Y-91270000I0J100000D01*
G01*
G37*
G36*
G01*
X161815000Y-91770000D02*
X161815000Y-91570000D01*
G75*
G02*
X161915000Y-91470000I100000J0D01*
G01*
X163290000Y-91470000D01*
G75*
G02*
X163390000Y-91570000I0J-100000D01*
G01*
X163390000Y-91770000D01*
G75*
G02*
X163290000Y-91870000I-100000J0D01*
G01*
X161915000Y-91870000D01*
G75*
G02*
X161815000Y-91770000I0J100000D01*
G01*
G37*
G36*
G01*
X161815000Y-92270000D02*
X161815000Y-92070000D01*
G75*
G02*
X161915000Y-91970000I100000J0D01*
G01*
X163290000Y-91970000D01*
G75*
G02*
X163390000Y-92070000I0J-100000D01*
G01*
X163390000Y-92270000D01*
G75*
G02*
X163290000Y-92370000I-100000J0D01*
G01*
X161915000Y-92370000D01*
G75*
G02*
X161815000Y-92270000I0J100000D01*
G01*
G37*
G36*
G01*
X161815000Y-92770000D02*
X161815000Y-92570000D01*
G75*
G02*
X161915000Y-92470000I100000J0D01*
G01*
X163290000Y-92470000D01*
G75*
G02*
X163390000Y-92570000I0J-100000D01*
G01*
X163390000Y-92770000D01*
G75*
G02*
X163290000Y-92870000I-100000J0D01*
G01*
X161915000Y-92870000D01*
G75*
G02*
X161815000Y-92770000I0J100000D01*
G01*
G37*
G36*
G01*
X161815000Y-93270000D02*
X161815000Y-93070000D01*
G75*
G02*
X161915000Y-92970000I100000J0D01*
G01*
X163290000Y-92970000D01*
G75*
G02*
X163390000Y-93070000I0J-100000D01*
G01*
X163390000Y-93270000D01*
G75*
G02*
X163290000Y-93370000I-100000J0D01*
G01*
X161915000Y-93370000D01*
G75*
G02*
X161815000Y-93270000I0J100000D01*
G01*
G37*
G36*
G01*
X161815000Y-93770000D02*
X161815000Y-93570000D01*
G75*
G02*
X161915000Y-93470000I100000J0D01*
G01*
X163290000Y-93470000D01*
G75*
G02*
X163390000Y-93570000I0J-100000D01*
G01*
X163390000Y-93770000D01*
G75*
G02*
X163290000Y-93870000I-100000J0D01*
G01*
X161915000Y-93870000D01*
G75*
G02*
X161815000Y-93770000I0J100000D01*
G01*
G37*
G36*
G01*
X161815000Y-94270000D02*
X161815000Y-94070000D01*
G75*
G02*
X161915000Y-93970000I100000J0D01*
G01*
X163290000Y-93970000D01*
G75*
G02*
X163390000Y-94070000I0J-100000D01*
G01*
X163390000Y-94270000D01*
G75*
G02*
X163290000Y-94370000I-100000J0D01*
G01*
X161915000Y-94370000D01*
G75*
G02*
X161815000Y-94270000I0J100000D01*
G01*
G37*
G36*
G01*
X161815000Y-94770000D02*
X161815000Y-94570000D01*
G75*
G02*
X161915000Y-94470000I100000J0D01*
G01*
X163290000Y-94470000D01*
G75*
G02*
X163390000Y-94570000I0J-100000D01*
G01*
X163390000Y-94770000D01*
G75*
G02*
X163290000Y-94870000I-100000J0D01*
G01*
X161915000Y-94870000D01*
G75*
G02*
X161815000Y-94770000I0J100000D01*
G01*
G37*
G36*
G01*
X161815000Y-95270000D02*
X161815000Y-95070000D01*
G75*
G02*
X161915000Y-94970000I100000J0D01*
G01*
X163290000Y-94970000D01*
G75*
G02*
X163390000Y-95070000I0J-100000D01*
G01*
X163390000Y-95270000D01*
G75*
G02*
X163290000Y-95370000I-100000J0D01*
G01*
X161915000Y-95370000D01*
G75*
G02*
X161815000Y-95270000I0J100000D01*
G01*
G37*
G36*
G01*
X161815000Y-95770000D02*
X161815000Y-95570000D01*
G75*
G02*
X161915000Y-95470000I100000J0D01*
G01*
X163290000Y-95470000D01*
G75*
G02*
X163390000Y-95570000I0J-100000D01*
G01*
X163390000Y-95770000D01*
G75*
G02*
X163290000Y-95870000I-100000J0D01*
G01*
X161915000Y-95870000D01*
G75*
G02*
X161815000Y-95770000I0J100000D01*
G01*
G37*
G36*
G01*
X161815000Y-96270000D02*
X161815000Y-96070000D01*
G75*
G02*
X161915000Y-95970000I100000J0D01*
G01*
X163290000Y-95970000D01*
G75*
G02*
X163390000Y-96070000I0J-100000D01*
G01*
X163390000Y-96270000D01*
G75*
G02*
X163290000Y-96370000I-100000J0D01*
G01*
X161915000Y-96370000D01*
G75*
G02*
X161815000Y-96270000I0J100000D01*
G01*
G37*
G36*
G01*
X160740000Y-98520000D02*
X160740000Y-97145000D01*
G75*
G02*
X160840000Y-97045000I100000J0D01*
G01*
X161040000Y-97045000D01*
G75*
G02*
X161140000Y-97145000I0J-100000D01*
G01*
X161140000Y-98520000D01*
G75*
G02*
X161040000Y-98620000I-100000J0D01*
G01*
X160840000Y-98620000D01*
G75*
G02*
X160740000Y-98520000I0J100000D01*
G01*
G37*
G36*
G01*
X160240000Y-98520000D02*
X160240000Y-97145000D01*
G75*
G02*
X160340000Y-97045000I100000J0D01*
G01*
X160540000Y-97045000D01*
G75*
G02*
X160640000Y-97145000I0J-100000D01*
G01*
X160640000Y-98520000D01*
G75*
G02*
X160540000Y-98620000I-100000J0D01*
G01*
X160340000Y-98620000D01*
G75*
G02*
X160240000Y-98520000I0J100000D01*
G01*
G37*
G36*
G01*
X159740000Y-98520000D02*
X159740000Y-97145000D01*
G75*
G02*
X159840000Y-97045000I100000J0D01*
G01*
X160040000Y-97045000D01*
G75*
G02*
X160140000Y-97145000I0J-100000D01*
G01*
X160140000Y-98520000D01*
G75*
G02*
X160040000Y-98620000I-100000J0D01*
G01*
X159840000Y-98620000D01*
G75*
G02*
X159740000Y-98520000I0J100000D01*
G01*
G37*
G36*
G01*
X159240000Y-98520000D02*
X159240000Y-97145000D01*
G75*
G02*
X159340000Y-97045000I100000J0D01*
G01*
X159540000Y-97045000D01*
G75*
G02*
X159640000Y-97145000I0J-100000D01*
G01*
X159640000Y-98520000D01*
G75*
G02*
X159540000Y-98620000I-100000J0D01*
G01*
X159340000Y-98620000D01*
G75*
G02*
X159240000Y-98520000I0J100000D01*
G01*
G37*
G36*
G01*
X158740000Y-98520000D02*
X158740000Y-97145000D01*
G75*
G02*
X158840000Y-97045000I100000J0D01*
G01*
X159040000Y-97045000D01*
G75*
G02*
X159140000Y-97145000I0J-100000D01*
G01*
X159140000Y-98520000D01*
G75*
G02*
X159040000Y-98620000I-100000J0D01*
G01*
X158840000Y-98620000D01*
G75*
G02*
X158740000Y-98520000I0J100000D01*
G01*
G37*
G36*
G01*
X158240000Y-98520000D02*
X158240000Y-97145000D01*
G75*
G02*
X158340000Y-97045000I100000J0D01*
G01*
X158540000Y-97045000D01*
G75*
G02*
X158640000Y-97145000I0J-100000D01*
G01*
X158640000Y-98520000D01*
G75*
G02*
X158540000Y-98620000I-100000J0D01*
G01*
X158340000Y-98620000D01*
G75*
G02*
X158240000Y-98520000I0J100000D01*
G01*
G37*
G36*
G01*
X157740000Y-98520000D02*
X157740000Y-97145000D01*
G75*
G02*
X157840000Y-97045000I100000J0D01*
G01*
X158040000Y-97045000D01*
G75*
G02*
X158140000Y-97145000I0J-100000D01*
G01*
X158140000Y-98520000D01*
G75*
G02*
X158040000Y-98620000I-100000J0D01*
G01*
X157840000Y-98620000D01*
G75*
G02*
X157740000Y-98520000I0J100000D01*
G01*
G37*
G36*
G01*
X157240000Y-98520000D02*
X157240000Y-97145000D01*
G75*
G02*
X157340000Y-97045000I100000J0D01*
G01*
X157540000Y-97045000D01*
G75*
G02*
X157640000Y-97145000I0J-100000D01*
G01*
X157640000Y-98520000D01*
G75*
G02*
X157540000Y-98620000I-100000J0D01*
G01*
X157340000Y-98620000D01*
G75*
G02*
X157240000Y-98520000I0J100000D01*
G01*
G37*
G36*
G01*
X156740000Y-98520000D02*
X156740000Y-97145000D01*
G75*
G02*
X156840000Y-97045000I100000J0D01*
G01*
X157040000Y-97045000D01*
G75*
G02*
X157140000Y-97145000I0J-100000D01*
G01*
X157140000Y-98520000D01*
G75*
G02*
X157040000Y-98620000I-100000J0D01*
G01*
X156840000Y-98620000D01*
G75*
G02*
X156740000Y-98520000I0J100000D01*
G01*
G37*
G36*
G01*
X156240000Y-98520000D02*
X156240000Y-97145000D01*
G75*
G02*
X156340000Y-97045000I100000J0D01*
G01*
X156540000Y-97045000D01*
G75*
G02*
X156640000Y-97145000I0J-100000D01*
G01*
X156640000Y-98520000D01*
G75*
G02*
X156540000Y-98620000I-100000J0D01*
G01*
X156340000Y-98620000D01*
G75*
G02*
X156240000Y-98520000I0J100000D01*
G01*
G37*
G36*
G01*
X155740000Y-98520000D02*
X155740000Y-97145000D01*
G75*
G02*
X155840000Y-97045000I100000J0D01*
G01*
X156040000Y-97045000D01*
G75*
G02*
X156140000Y-97145000I0J-100000D01*
G01*
X156140000Y-98520000D01*
G75*
G02*
X156040000Y-98620000I-100000J0D01*
G01*
X155840000Y-98620000D01*
G75*
G02*
X155740000Y-98520000I0J100000D01*
G01*
G37*
G36*
G01*
X155240000Y-98520000D02*
X155240000Y-97145000D01*
G75*
G02*
X155340000Y-97045000I100000J0D01*
G01*
X155540000Y-97045000D01*
G75*
G02*
X155640000Y-97145000I0J-100000D01*
G01*
X155640000Y-98520000D01*
G75*
G02*
X155540000Y-98620000I-100000J0D01*
G01*
X155340000Y-98620000D01*
G75*
G02*
X155240000Y-98520000I0J100000D01*
G01*
G37*
G36*
G01*
X154740000Y-98520000D02*
X154740000Y-97145000D01*
G75*
G02*
X154840000Y-97045000I100000J0D01*
G01*
X155040000Y-97045000D01*
G75*
G02*
X155140000Y-97145000I0J-100000D01*
G01*
X155140000Y-98520000D01*
G75*
G02*
X155040000Y-98620000I-100000J0D01*
G01*
X154840000Y-98620000D01*
G75*
G02*
X154740000Y-98520000I0J100000D01*
G01*
G37*
G36*
G01*
X154240000Y-98520000D02*
X154240000Y-97145000D01*
G75*
G02*
X154340000Y-97045000I100000J0D01*
G01*
X154540000Y-97045000D01*
G75*
G02*
X154640000Y-97145000I0J-100000D01*
G01*
X154640000Y-98520000D01*
G75*
G02*
X154540000Y-98620000I-100000J0D01*
G01*
X154340000Y-98620000D01*
G75*
G02*
X154240000Y-98520000I0J100000D01*
G01*
G37*
G36*
G01*
X153740000Y-98520000D02*
X153740000Y-97145000D01*
G75*
G02*
X153840000Y-97045000I100000J0D01*
G01*
X154040000Y-97045000D01*
G75*
G02*
X154140000Y-97145000I0J-100000D01*
G01*
X154140000Y-98520000D01*
G75*
G02*
X154040000Y-98620000I-100000J0D01*
G01*
X153840000Y-98620000D01*
G75*
G02*
X153740000Y-98520000I0J100000D01*
G01*
G37*
G36*
G01*
X153240000Y-98520000D02*
X153240000Y-97145000D01*
G75*
G02*
X153340000Y-97045000I100000J0D01*
G01*
X153540000Y-97045000D01*
G75*
G02*
X153640000Y-97145000I0J-100000D01*
G01*
X153640000Y-98520000D01*
G75*
G02*
X153540000Y-98620000I-100000J0D01*
G01*
X153340000Y-98620000D01*
G75*
G02*
X153240000Y-98520000I0J100000D01*
G01*
G37*
G36*
G01*
X152740000Y-98520000D02*
X152740000Y-97145000D01*
G75*
G02*
X152840000Y-97045000I100000J0D01*
G01*
X153040000Y-97045000D01*
G75*
G02*
X153140000Y-97145000I0J-100000D01*
G01*
X153140000Y-98520000D01*
G75*
G02*
X153040000Y-98620000I-100000J0D01*
G01*
X152840000Y-98620000D01*
G75*
G02*
X152740000Y-98520000I0J100000D01*
G01*
G37*
G36*
G01*
X152240000Y-98520000D02*
X152240000Y-97145000D01*
G75*
G02*
X152340000Y-97045000I100000J0D01*
G01*
X152540000Y-97045000D01*
G75*
G02*
X152640000Y-97145000I0J-100000D01*
G01*
X152640000Y-98520000D01*
G75*
G02*
X152540000Y-98620000I-100000J0D01*
G01*
X152340000Y-98620000D01*
G75*
G02*
X152240000Y-98520000I0J100000D01*
G01*
G37*
G36*
G01*
X151740000Y-98520000D02*
X151740000Y-97145000D01*
G75*
G02*
X151840000Y-97045000I100000J0D01*
G01*
X152040000Y-97045000D01*
G75*
G02*
X152140000Y-97145000I0J-100000D01*
G01*
X152140000Y-98520000D01*
G75*
G02*
X152040000Y-98620000I-100000J0D01*
G01*
X151840000Y-98620000D01*
G75*
G02*
X151740000Y-98520000I0J100000D01*
G01*
G37*
G36*
G01*
X151240000Y-98520000D02*
X151240000Y-97145000D01*
G75*
G02*
X151340000Y-97045000I100000J0D01*
G01*
X151540000Y-97045000D01*
G75*
G02*
X151640000Y-97145000I0J-100000D01*
G01*
X151640000Y-98520000D01*
G75*
G02*
X151540000Y-98620000I-100000J0D01*
G01*
X151340000Y-98620000D01*
G75*
G02*
X151240000Y-98520000I0J100000D01*
G01*
G37*
G36*
G01*
X150740000Y-98520000D02*
X150740000Y-97145000D01*
G75*
G02*
X150840000Y-97045000I100000J0D01*
G01*
X151040000Y-97045000D01*
G75*
G02*
X151140000Y-97145000I0J-100000D01*
G01*
X151140000Y-98520000D01*
G75*
G02*
X151040000Y-98620000I-100000J0D01*
G01*
X150840000Y-98620000D01*
G75*
G02*
X150740000Y-98520000I0J100000D01*
G01*
G37*
G36*
G01*
X150240000Y-98520000D02*
X150240000Y-97145000D01*
G75*
G02*
X150340000Y-97045000I100000J0D01*
G01*
X150540000Y-97045000D01*
G75*
G02*
X150640000Y-97145000I0J-100000D01*
G01*
X150640000Y-98520000D01*
G75*
G02*
X150540000Y-98620000I-100000J0D01*
G01*
X150340000Y-98620000D01*
G75*
G02*
X150240000Y-98520000I0J100000D01*
G01*
G37*
G36*
G01*
X149740000Y-98520000D02*
X149740000Y-97145000D01*
G75*
G02*
X149840000Y-97045000I100000J0D01*
G01*
X150040000Y-97045000D01*
G75*
G02*
X150140000Y-97145000I0J-100000D01*
G01*
X150140000Y-98520000D01*
G75*
G02*
X150040000Y-98620000I-100000J0D01*
G01*
X149840000Y-98620000D01*
G75*
G02*
X149740000Y-98520000I0J100000D01*
G01*
G37*
G36*
G01*
X149240000Y-98520000D02*
X149240000Y-97145000D01*
G75*
G02*
X149340000Y-97045000I100000J0D01*
G01*
X149540000Y-97045000D01*
G75*
G02*
X149640000Y-97145000I0J-100000D01*
G01*
X149640000Y-98520000D01*
G75*
G02*
X149540000Y-98620000I-100000J0D01*
G01*
X149340000Y-98620000D01*
G75*
G02*
X149240000Y-98520000I0J100000D01*
G01*
G37*
G36*
G01*
X148740000Y-98520000D02*
X148740000Y-97145000D01*
G75*
G02*
X148840000Y-97045000I100000J0D01*
G01*
X149040000Y-97045000D01*
G75*
G02*
X149140000Y-97145000I0J-100000D01*
G01*
X149140000Y-98520000D01*
G75*
G02*
X149040000Y-98620000I-100000J0D01*
G01*
X148840000Y-98620000D01*
G75*
G02*
X148740000Y-98520000I0J100000D01*
G01*
G37*
G36*
G01*
X146490000Y-96270000D02*
X146490000Y-96070000D01*
G75*
G02*
X146590000Y-95970000I100000J0D01*
G01*
X147965000Y-95970000D01*
G75*
G02*
X148065000Y-96070000I0J-100000D01*
G01*
X148065000Y-96270000D01*
G75*
G02*
X147965000Y-96370000I-100000J0D01*
G01*
X146590000Y-96370000D01*
G75*
G02*
X146490000Y-96270000I0J100000D01*
G01*
G37*
G36*
G01*
X146490000Y-95770000D02*
X146490000Y-95570000D01*
G75*
G02*
X146590000Y-95470000I100000J0D01*
G01*
X147965000Y-95470000D01*
G75*
G02*
X148065000Y-95570000I0J-100000D01*
G01*
X148065000Y-95770000D01*
G75*
G02*
X147965000Y-95870000I-100000J0D01*
G01*
X146590000Y-95870000D01*
G75*
G02*
X146490000Y-95770000I0J100000D01*
G01*
G37*
G36*
G01*
X146490000Y-95270000D02*
X146490000Y-95070000D01*
G75*
G02*
X146590000Y-94970000I100000J0D01*
G01*
X147965000Y-94970000D01*
G75*
G02*
X148065000Y-95070000I0J-100000D01*
G01*
X148065000Y-95270000D01*
G75*
G02*
X147965000Y-95370000I-100000J0D01*
G01*
X146590000Y-95370000D01*
G75*
G02*
X146490000Y-95270000I0J100000D01*
G01*
G37*
G36*
G01*
X146490000Y-94770000D02*
X146490000Y-94570000D01*
G75*
G02*
X146590000Y-94470000I100000J0D01*
G01*
X147965000Y-94470000D01*
G75*
G02*
X148065000Y-94570000I0J-100000D01*
G01*
X148065000Y-94770000D01*
G75*
G02*
X147965000Y-94870000I-100000J0D01*
G01*
X146590000Y-94870000D01*
G75*
G02*
X146490000Y-94770000I0J100000D01*
G01*
G37*
G36*
G01*
X146490000Y-94270000D02*
X146490000Y-94070000D01*
G75*
G02*
X146590000Y-93970000I100000J0D01*
G01*
X147965000Y-93970000D01*
G75*
G02*
X148065000Y-94070000I0J-100000D01*
G01*
X148065000Y-94270000D01*
G75*
G02*
X147965000Y-94370000I-100000J0D01*
G01*
X146590000Y-94370000D01*
G75*
G02*
X146490000Y-94270000I0J100000D01*
G01*
G37*
G36*
G01*
X146490000Y-93770000D02*
X146490000Y-93570000D01*
G75*
G02*
X146590000Y-93470000I100000J0D01*
G01*
X147965000Y-93470000D01*
G75*
G02*
X148065000Y-93570000I0J-100000D01*
G01*
X148065000Y-93770000D01*
G75*
G02*
X147965000Y-93870000I-100000J0D01*
G01*
X146590000Y-93870000D01*
G75*
G02*
X146490000Y-93770000I0J100000D01*
G01*
G37*
G36*
G01*
X146490000Y-93270000D02*
X146490000Y-93070000D01*
G75*
G02*
X146590000Y-92970000I100000J0D01*
G01*
X147965000Y-92970000D01*
G75*
G02*
X148065000Y-93070000I0J-100000D01*
G01*
X148065000Y-93270000D01*
G75*
G02*
X147965000Y-93370000I-100000J0D01*
G01*
X146590000Y-93370000D01*
G75*
G02*
X146490000Y-93270000I0J100000D01*
G01*
G37*
G36*
G01*
X146490000Y-92770000D02*
X146490000Y-92570000D01*
G75*
G02*
X146590000Y-92470000I100000J0D01*
G01*
X147965000Y-92470000D01*
G75*
G02*
X148065000Y-92570000I0J-100000D01*
G01*
X148065000Y-92770000D01*
G75*
G02*
X147965000Y-92870000I-100000J0D01*
G01*
X146590000Y-92870000D01*
G75*
G02*
X146490000Y-92770000I0J100000D01*
G01*
G37*
G36*
G01*
X146490000Y-92270000D02*
X146490000Y-92070000D01*
G75*
G02*
X146590000Y-91970000I100000J0D01*
G01*
X147965000Y-91970000D01*
G75*
G02*
X148065000Y-92070000I0J-100000D01*
G01*
X148065000Y-92270000D01*
G75*
G02*
X147965000Y-92370000I-100000J0D01*
G01*
X146590000Y-92370000D01*
G75*
G02*
X146490000Y-92270000I0J100000D01*
G01*
G37*
G36*
G01*
X146490000Y-91770000D02*
X146490000Y-91570000D01*
G75*
G02*
X146590000Y-91470000I100000J0D01*
G01*
X147965000Y-91470000D01*
G75*
G02*
X148065000Y-91570000I0J-100000D01*
G01*
X148065000Y-91770000D01*
G75*
G02*
X147965000Y-91870000I-100000J0D01*
G01*
X146590000Y-91870000D01*
G75*
G02*
X146490000Y-91770000I0J100000D01*
G01*
G37*
G36*
G01*
X146490000Y-91270000D02*
X146490000Y-91070000D01*
G75*
G02*
X146590000Y-90970000I100000J0D01*
G01*
X147965000Y-90970000D01*
G75*
G02*
X148065000Y-91070000I0J-100000D01*
G01*
X148065000Y-91270000D01*
G75*
G02*
X147965000Y-91370000I-100000J0D01*
G01*
X146590000Y-91370000D01*
G75*
G02*
X146490000Y-91270000I0J100000D01*
G01*
G37*
G36*
G01*
X146490000Y-90770000D02*
X146490000Y-90570000D01*
G75*
G02*
X146590000Y-90470000I100000J0D01*
G01*
X147965000Y-90470000D01*
G75*
G02*
X148065000Y-90570000I0J-100000D01*
G01*
X148065000Y-90770000D01*
G75*
G02*
X147965000Y-90870000I-100000J0D01*
G01*
X146590000Y-90870000D01*
G75*
G02*
X146490000Y-90770000I0J100000D01*
G01*
G37*
G36*
G01*
X146490000Y-90270000D02*
X146490000Y-90070000D01*
G75*
G02*
X146590000Y-89970000I100000J0D01*
G01*
X147965000Y-89970000D01*
G75*
G02*
X148065000Y-90070000I0J-100000D01*
G01*
X148065000Y-90270000D01*
G75*
G02*
X147965000Y-90370000I-100000J0D01*
G01*
X146590000Y-90370000D01*
G75*
G02*
X146490000Y-90270000I0J100000D01*
G01*
G37*
G36*
G01*
X146490000Y-89770000D02*
X146490000Y-89570000D01*
G75*
G02*
X146590000Y-89470000I100000J0D01*
G01*
X147965000Y-89470000D01*
G75*
G02*
X148065000Y-89570000I0J-100000D01*
G01*
X148065000Y-89770000D01*
G75*
G02*
X147965000Y-89870000I-100000J0D01*
G01*
X146590000Y-89870000D01*
G75*
G02*
X146490000Y-89770000I0J100000D01*
G01*
G37*
G36*
G01*
X146490000Y-89270000D02*
X146490000Y-89070000D01*
G75*
G02*
X146590000Y-88970000I100000J0D01*
G01*
X147965000Y-88970000D01*
G75*
G02*
X148065000Y-89070000I0J-100000D01*
G01*
X148065000Y-89270000D01*
G75*
G02*
X147965000Y-89370000I-100000J0D01*
G01*
X146590000Y-89370000D01*
G75*
G02*
X146490000Y-89270000I0J100000D01*
G01*
G37*
G36*
G01*
X146490000Y-88770000D02*
X146490000Y-88570000D01*
G75*
G02*
X146590000Y-88470000I100000J0D01*
G01*
X147965000Y-88470000D01*
G75*
G02*
X148065000Y-88570000I0J-100000D01*
G01*
X148065000Y-88770000D01*
G75*
G02*
X147965000Y-88870000I-100000J0D01*
G01*
X146590000Y-88870000D01*
G75*
G02*
X146490000Y-88770000I0J100000D01*
G01*
G37*
G36*
G01*
X146490000Y-88270000D02*
X146490000Y-88070000D01*
G75*
G02*
X146590000Y-87970000I100000J0D01*
G01*
X147965000Y-87970000D01*
G75*
G02*
X148065000Y-88070000I0J-100000D01*
G01*
X148065000Y-88270000D01*
G75*
G02*
X147965000Y-88370000I-100000J0D01*
G01*
X146590000Y-88370000D01*
G75*
G02*
X146490000Y-88270000I0J100000D01*
G01*
G37*
G36*
G01*
X146490000Y-87770000D02*
X146490000Y-87570000D01*
G75*
G02*
X146590000Y-87470000I100000J0D01*
G01*
X147965000Y-87470000D01*
G75*
G02*
X148065000Y-87570000I0J-100000D01*
G01*
X148065000Y-87770000D01*
G75*
G02*
X147965000Y-87870000I-100000J0D01*
G01*
X146590000Y-87870000D01*
G75*
G02*
X146490000Y-87770000I0J100000D01*
G01*
G37*
G36*
G01*
X146490000Y-87270000D02*
X146490000Y-87070000D01*
G75*
G02*
X146590000Y-86970000I100000J0D01*
G01*
X147965000Y-86970000D01*
G75*
G02*
X148065000Y-87070000I0J-100000D01*
G01*
X148065000Y-87270000D01*
G75*
G02*
X147965000Y-87370000I-100000J0D01*
G01*
X146590000Y-87370000D01*
G75*
G02*
X146490000Y-87270000I0J100000D01*
G01*
G37*
G36*
G01*
X146490000Y-86770000D02*
X146490000Y-86570000D01*
G75*
G02*
X146590000Y-86470000I100000J0D01*
G01*
X147965000Y-86470000D01*
G75*
G02*
X148065000Y-86570000I0J-100000D01*
G01*
X148065000Y-86770000D01*
G75*
G02*
X147965000Y-86870000I-100000J0D01*
G01*
X146590000Y-86870000D01*
G75*
G02*
X146490000Y-86770000I0J100000D01*
G01*
G37*
G36*
G01*
X146490000Y-86270000D02*
X146490000Y-86070000D01*
G75*
G02*
X146590000Y-85970000I100000J0D01*
G01*
X147965000Y-85970000D01*
G75*
G02*
X148065000Y-86070000I0J-100000D01*
G01*
X148065000Y-86270000D01*
G75*
G02*
X147965000Y-86370000I-100000J0D01*
G01*
X146590000Y-86370000D01*
G75*
G02*
X146490000Y-86270000I0J100000D01*
G01*
G37*
G36*
G01*
X146490000Y-85770000D02*
X146490000Y-85570000D01*
G75*
G02*
X146590000Y-85470000I100000J0D01*
G01*
X147965000Y-85470000D01*
G75*
G02*
X148065000Y-85570000I0J-100000D01*
G01*
X148065000Y-85770000D01*
G75*
G02*
X147965000Y-85870000I-100000J0D01*
G01*
X146590000Y-85870000D01*
G75*
G02*
X146490000Y-85770000I0J100000D01*
G01*
G37*
G36*
G01*
X146490000Y-85270000D02*
X146490000Y-85070000D01*
G75*
G02*
X146590000Y-84970000I100000J0D01*
G01*
X147965000Y-84970000D01*
G75*
G02*
X148065000Y-85070000I0J-100000D01*
G01*
X148065000Y-85270000D01*
G75*
G02*
X147965000Y-85370000I-100000J0D01*
G01*
X146590000Y-85370000D01*
G75*
G02*
X146490000Y-85270000I0J100000D01*
G01*
G37*
G36*
G01*
X146490000Y-84770000D02*
X146490000Y-84570000D01*
G75*
G02*
X146590000Y-84470000I100000J0D01*
G01*
X147965000Y-84470000D01*
G75*
G02*
X148065000Y-84570000I0J-100000D01*
G01*
X148065000Y-84770000D01*
G75*
G02*
X147965000Y-84870000I-100000J0D01*
G01*
X146590000Y-84870000D01*
G75*
G02*
X146490000Y-84770000I0J100000D01*
G01*
G37*
G36*
G01*
X146490000Y-84270000D02*
X146490000Y-84070000D01*
G75*
G02*
X146590000Y-83970000I100000J0D01*
G01*
X147965000Y-83970000D01*
G75*
G02*
X148065000Y-84070000I0J-100000D01*
G01*
X148065000Y-84270000D01*
G75*
G02*
X147965000Y-84370000I-100000J0D01*
G01*
X146590000Y-84370000D01*
G75*
G02*
X146490000Y-84270000I0J100000D01*
G01*
G37*
%TD*%
D12*
%TO.C,Y2*%
X152600000Y-104140000D03*
X157480000Y-104140000D03*
%TD*%
%TO.C,R18*%
G36*
G01*
X111278750Y-89632500D02*
X112241250Y-89632500D01*
G75*
G02*
X112510000Y-89901250I0J-268750D01*
G01*
X112510000Y-90438750D01*
G75*
G02*
X112241250Y-90707500I-268750J0D01*
G01*
X111278750Y-90707500D01*
G75*
G02*
X111010000Y-90438750I0J268750D01*
G01*
X111010000Y-89901250D01*
G75*
G02*
X111278750Y-89632500I268750J0D01*
G01*
G37*
G36*
G01*
X111278750Y-87757500D02*
X112241250Y-87757500D01*
G75*
G02*
X112510000Y-88026250I0J-268750D01*
G01*
X112510000Y-88563750D01*
G75*
G02*
X112241250Y-88832500I-268750J0D01*
G01*
X111278750Y-88832500D01*
G75*
G02*
X111010000Y-88563750I0J268750D01*
G01*
X111010000Y-88026250D01*
G75*
G02*
X111278750Y-87757500I268750J0D01*
G01*
G37*
%TD*%
%TO.C,R17*%
G36*
G01*
X114781250Y-88832500D02*
X113818750Y-88832500D01*
G75*
G02*
X113550000Y-88563750I0J268750D01*
G01*
X113550000Y-88026250D01*
G75*
G02*
X113818750Y-87757500I268750J0D01*
G01*
X114781250Y-87757500D01*
G75*
G02*
X115050000Y-88026250I0J-268750D01*
G01*
X115050000Y-88563750D01*
G75*
G02*
X114781250Y-88832500I-268750J0D01*
G01*
G37*
G36*
G01*
X114781250Y-90707500D02*
X113818750Y-90707500D01*
G75*
G02*
X113550000Y-90438750I0J268750D01*
G01*
X113550000Y-89901250D01*
G75*
G02*
X113818750Y-89632500I268750J0D01*
G01*
X114781250Y-89632500D01*
G75*
G02*
X115050000Y-89901250I0J-268750D01*
G01*
X115050000Y-90438750D01*
G75*
G02*
X114781250Y-90707500I-268750J0D01*
G01*
G37*
%TD*%
%TO.C,R16*%
G36*
G01*
X108738750Y-89632500D02*
X109701250Y-89632500D01*
G75*
G02*
X109970000Y-89901250I0J-268750D01*
G01*
X109970000Y-90438750D01*
G75*
G02*
X109701250Y-90707500I-268750J0D01*
G01*
X108738750Y-90707500D01*
G75*
G02*
X108470000Y-90438750I0J268750D01*
G01*
X108470000Y-89901250D01*
G75*
G02*
X108738750Y-89632500I268750J0D01*
G01*
G37*
G36*
G01*
X108738750Y-87757500D02*
X109701250Y-87757500D01*
G75*
G02*
X109970000Y-88026250I0J-268750D01*
G01*
X109970000Y-88563750D01*
G75*
G02*
X109701250Y-88832500I-268750J0D01*
G01*
X108738750Y-88832500D01*
G75*
G02*
X108470000Y-88563750I0J268750D01*
G01*
X108470000Y-88026250D01*
G75*
G02*
X108738750Y-87757500I268750J0D01*
G01*
G37*
%TD*%
%TO.C,R15*%
G36*
G01*
X117321250Y-88832500D02*
X116358750Y-88832500D01*
G75*
G02*
X116090000Y-88563750I0J268750D01*
G01*
X116090000Y-88026250D01*
G75*
G02*
X116358750Y-87757500I268750J0D01*
G01*
X117321250Y-87757500D01*
G75*
G02*
X117590000Y-88026250I0J-268750D01*
G01*
X117590000Y-88563750D01*
G75*
G02*
X117321250Y-88832500I-268750J0D01*
G01*
G37*
G36*
G01*
X117321250Y-90707500D02*
X116358750Y-90707500D01*
G75*
G02*
X116090000Y-90438750I0J268750D01*
G01*
X116090000Y-89901250D01*
G75*
G02*
X116358750Y-89632500I268750J0D01*
G01*
X117321250Y-89632500D01*
G75*
G02*
X117590000Y-89901250I0J-268750D01*
G01*
X117590000Y-90438750D01*
G75*
G02*
X117321250Y-90707500I-268750J0D01*
G01*
G37*
%TD*%
%TO.C,R14*%
G36*
G01*
X182812500Y-83338750D02*
X182812500Y-84301250D01*
G75*
G02*
X182543750Y-84570000I-268750J0D01*
G01*
X182006250Y-84570000D01*
G75*
G02*
X181737500Y-84301250I0J268750D01*
G01*
X181737500Y-83338750D01*
G75*
G02*
X182006250Y-83070000I268750J0D01*
G01*
X182543750Y-83070000D01*
G75*
G02*
X182812500Y-83338750I0J-268750D01*
G01*
G37*
G36*
G01*
X184687500Y-83338750D02*
X184687500Y-84301250D01*
G75*
G02*
X184418750Y-84570000I-268750J0D01*
G01*
X183881250Y-84570000D01*
G75*
G02*
X183612500Y-84301250I0J268750D01*
G01*
X183612500Y-83338750D01*
G75*
G02*
X183881250Y-83070000I268750J0D01*
G01*
X184418750Y-83070000D01*
G75*
G02*
X184687500Y-83338750I0J-268750D01*
G01*
G37*
%TD*%
%TO.C,R13*%
G36*
G01*
X183612500Y-81761250D02*
X183612500Y-80798750D01*
G75*
G02*
X183881250Y-80530000I268750J0D01*
G01*
X184418750Y-80530000D01*
G75*
G02*
X184687500Y-80798750I0J-268750D01*
G01*
X184687500Y-81761250D01*
G75*
G02*
X184418750Y-82030000I-268750J0D01*
G01*
X183881250Y-82030000D01*
G75*
G02*
X183612500Y-81761250I0J268750D01*
G01*
G37*
G36*
G01*
X181737500Y-81761250D02*
X181737500Y-80798750D01*
G75*
G02*
X182006250Y-80530000I268750J0D01*
G01*
X182543750Y-80530000D01*
G75*
G02*
X182812500Y-80798750I0J-268750D01*
G01*
X182812500Y-81761250D01*
G75*
G02*
X182543750Y-82030000I-268750J0D01*
G01*
X182006250Y-82030000D01*
G75*
G02*
X181737500Y-81761250I0J268750D01*
G01*
G37*
%TD*%
%TO.C,R12*%
G36*
G01*
X145512500Y-102081250D02*
X145512500Y-101118750D01*
G75*
G02*
X145781250Y-100850000I268750J0D01*
G01*
X146318750Y-100850000D01*
G75*
G02*
X146587500Y-101118750I0J-268750D01*
G01*
X146587500Y-102081250D01*
G75*
G02*
X146318750Y-102350000I-268750J0D01*
G01*
X145781250Y-102350000D01*
G75*
G02*
X145512500Y-102081250I0J268750D01*
G01*
G37*
G36*
G01*
X143637500Y-102081250D02*
X143637500Y-101118750D01*
G75*
G02*
X143906250Y-100850000I268750J0D01*
G01*
X144443750Y-100850000D01*
G75*
G02*
X144712500Y-101118750I0J-268750D01*
G01*
X144712500Y-102081250D01*
G75*
G02*
X144443750Y-102350000I-268750J0D01*
G01*
X143906250Y-102350000D01*
G75*
G02*
X143637500Y-102081250I0J268750D01*
G01*
G37*
%TD*%
%TO.C,J10*%
G36*
G01*
X191009706Y-74230000D02*
X192530294Y-74230000D01*
G75*
G02*
X192795000Y-74494706I0J-264706D01*
G01*
X192795000Y-75765294D01*
G75*
G02*
X192530294Y-76030000I-264706J0D01*
G01*
X191009706Y-76030000D01*
G75*
G02*
X190745000Y-75765294I0J264706D01*
G01*
X190745000Y-74494706D01*
G75*
G02*
X191009706Y-74230000I264706J0D01*
G01*
G37*
D10*
X191770000Y-77630000D03*
X191770000Y-80130000D03*
X191770000Y-82630000D03*
X191770000Y-85130000D03*
X191770000Y-87630000D03*
X191770000Y-90130000D03*
X191770000Y-92630000D03*
X191770000Y-95130000D03*
X191770000Y-97630000D03*
D11*
X189770000Y-73530000D03*
%TD*%
D13*
%TO.C,J9*%
X139700000Y-109220000D03*
X139700000Y-106680000D03*
X137160000Y-109220000D03*
X137160000Y-106680000D03*
X134620000Y-109220000D03*
D14*
X134620000Y-106680000D03*
%TD*%
D13*
%TO.C,J8*%
X182880000Y-109220000D03*
X180340000Y-109220000D03*
X177800000Y-109220000D03*
D14*
X175260000Y-109220000D03*
%TD*%
D13*
%TO.C,J7*%
X124460000Y-109220000D03*
X121920000Y-109220000D03*
X119380000Y-109220000D03*
D14*
X116840000Y-109220000D03*
%TD*%
%TO.C,FB1*%
G36*
G01*
X148108750Y-78202500D02*
X149071250Y-78202500D01*
G75*
G02*
X149340000Y-78471250I0J-268750D01*
G01*
X149340000Y-79008750D01*
G75*
G02*
X149071250Y-79277500I-268750J0D01*
G01*
X148108750Y-79277500D01*
G75*
G02*
X147840000Y-79008750I0J268750D01*
G01*
X147840000Y-78471250D01*
G75*
G02*
X148108750Y-78202500I268750J0D01*
G01*
G37*
G36*
G01*
X148108750Y-76327500D02*
X149071250Y-76327500D01*
G75*
G02*
X149340000Y-76596250I0J-268750D01*
G01*
X149340000Y-77133750D01*
G75*
G02*
X149071250Y-77402500I-268750J0D01*
G01*
X148108750Y-77402500D01*
G75*
G02*
X147840000Y-77133750I0J268750D01*
G01*
X147840000Y-76596250D01*
G75*
G02*
X148108750Y-76327500I268750J0D01*
G01*
G37*
%TD*%
%TO.C,C27*%
G36*
G01*
X175327500Y-103351250D02*
X175327500Y-102388750D01*
G75*
G02*
X175596250Y-102120000I268750J0D01*
G01*
X176133750Y-102120000D01*
G75*
G02*
X176402500Y-102388750I0J-268750D01*
G01*
X176402500Y-103351250D01*
G75*
G02*
X176133750Y-103620000I-268750J0D01*
G01*
X175596250Y-103620000D01*
G75*
G02*
X175327500Y-103351250I0J268750D01*
G01*
G37*
G36*
G01*
X173452500Y-103351250D02*
X173452500Y-102388750D01*
G75*
G02*
X173721250Y-102120000I268750J0D01*
G01*
X174258750Y-102120000D01*
G75*
G02*
X174527500Y-102388750I0J-268750D01*
G01*
X174527500Y-103351250D01*
G75*
G02*
X174258750Y-103620000I-268750J0D01*
G01*
X173721250Y-103620000D01*
G75*
G02*
X173452500Y-103351250I0J268750D01*
G01*
G37*
%TD*%
%TO.C,C22*%
G36*
G01*
X151062500Y-108738750D02*
X151062500Y-109701250D01*
G75*
G02*
X150793750Y-109970000I-268750J0D01*
G01*
X150256250Y-109970000D01*
G75*
G02*
X149987500Y-109701250I0J268750D01*
G01*
X149987500Y-108738750D01*
G75*
G02*
X150256250Y-108470000I268750J0D01*
G01*
X150793750Y-108470000D01*
G75*
G02*
X151062500Y-108738750I0J-268750D01*
G01*
G37*
G36*
G01*
X152937500Y-108738750D02*
X152937500Y-109701250D01*
G75*
G02*
X152668750Y-109970000I-268750J0D01*
G01*
X152131250Y-109970000D01*
G75*
G02*
X151862500Y-109701250I0J268750D01*
G01*
X151862500Y-108738750D01*
G75*
G02*
X152131250Y-108470000I268750J0D01*
G01*
X152668750Y-108470000D01*
G75*
G02*
X152937500Y-108738750I0J-268750D01*
G01*
G37*
%TD*%
%TO.C,C21*%
G36*
G01*
X158017500Y-108738750D02*
X158017500Y-109701250D01*
G75*
G02*
X157748750Y-109970000I-268750J0D01*
G01*
X157211250Y-109970000D01*
G75*
G02*
X156942500Y-109701250I0J268750D01*
G01*
X156942500Y-108738750D01*
G75*
G02*
X157211250Y-108470000I268750J0D01*
G01*
X157748750Y-108470000D01*
G75*
G02*
X158017500Y-108738750I0J-268750D01*
G01*
G37*
G36*
G01*
X159892500Y-108738750D02*
X159892500Y-109701250D01*
G75*
G02*
X159623750Y-109970000I-268750J0D01*
G01*
X159086250Y-109970000D01*
G75*
G02*
X158817500Y-109701250I0J268750D01*
G01*
X158817500Y-108738750D01*
G75*
G02*
X159086250Y-108470000I268750J0D01*
G01*
X159623750Y-108470000D01*
G75*
G02*
X159892500Y-108738750I0J-268750D01*
G01*
G37*
%TD*%
D15*
%TO.C,BZ1*%
X119400000Y-97790000D03*
D16*
X127000000Y-97790000D03*
%TD*%
D12*
%TO.C,Y1*%
X135890000Y-75130000D03*
X135890000Y-80010000D03*
%TD*%
%TO.C,R11*%
G36*
G01*
X116358750Y-63567500D02*
X117321250Y-63567500D01*
G75*
G02*
X117590000Y-63836250I0J-268750D01*
G01*
X117590000Y-64373750D01*
G75*
G02*
X117321250Y-64642500I-268750J0D01*
G01*
X116358750Y-64642500D01*
G75*
G02*
X116090000Y-64373750I0J268750D01*
G01*
X116090000Y-63836250D01*
G75*
G02*
X116358750Y-63567500I268750J0D01*
G01*
G37*
G36*
G01*
X116358750Y-61692500D02*
X117321250Y-61692500D01*
G75*
G02*
X117590000Y-61961250I0J-268750D01*
G01*
X117590000Y-62498750D01*
G75*
G02*
X117321250Y-62767500I-268750J0D01*
G01*
X116358750Y-62767500D01*
G75*
G02*
X116090000Y-62498750I0J268750D01*
G01*
X116090000Y-61961250D01*
G75*
G02*
X116358750Y-61692500I268750J0D01*
G01*
G37*
%TD*%
%TO.C,R10*%
G36*
G01*
X122401250Y-62767500D02*
X121438750Y-62767500D01*
G75*
G02*
X121170000Y-62498750I0J268750D01*
G01*
X121170000Y-61961250D01*
G75*
G02*
X121438750Y-61692500I268750J0D01*
G01*
X122401250Y-61692500D01*
G75*
G02*
X122670000Y-61961250I0J-268750D01*
G01*
X122670000Y-62498750D01*
G75*
G02*
X122401250Y-62767500I-268750J0D01*
G01*
G37*
G36*
G01*
X122401250Y-64642500D02*
X121438750Y-64642500D01*
G75*
G02*
X121170000Y-64373750I0J268750D01*
G01*
X121170000Y-63836250D01*
G75*
G02*
X121438750Y-63567500I268750J0D01*
G01*
X122401250Y-63567500D01*
G75*
G02*
X122670000Y-63836250I0J-268750D01*
G01*
X122670000Y-64373750D01*
G75*
G02*
X122401250Y-64642500I-268750J0D01*
G01*
G37*
%TD*%
%TO.C,R9*%
G36*
G01*
X119861250Y-62767500D02*
X118898750Y-62767500D01*
G75*
G02*
X118630000Y-62498750I0J268750D01*
G01*
X118630000Y-61961250D01*
G75*
G02*
X118898750Y-61692500I268750J0D01*
G01*
X119861250Y-61692500D01*
G75*
G02*
X120130000Y-61961250I0J-268750D01*
G01*
X120130000Y-62498750D01*
G75*
G02*
X119861250Y-62767500I-268750J0D01*
G01*
G37*
G36*
G01*
X119861250Y-64642500D02*
X118898750Y-64642500D01*
G75*
G02*
X118630000Y-64373750I0J268750D01*
G01*
X118630000Y-63836250D01*
G75*
G02*
X118898750Y-63567500I268750J0D01*
G01*
X119861250Y-63567500D01*
G75*
G02*
X120130000Y-63836250I0J-268750D01*
G01*
X120130000Y-64373750D01*
G75*
G02*
X119861250Y-64642500I-268750J0D01*
G01*
G37*
%TD*%
%TO.C,R8*%
G36*
G01*
X131291250Y-56417500D02*
X130328750Y-56417500D01*
G75*
G02*
X130060000Y-56148750I0J268750D01*
G01*
X130060000Y-55611250D01*
G75*
G02*
X130328750Y-55342500I268750J0D01*
G01*
X131291250Y-55342500D01*
G75*
G02*
X131560000Y-55611250I0J-268750D01*
G01*
X131560000Y-56148750D01*
G75*
G02*
X131291250Y-56417500I-268750J0D01*
G01*
G37*
G36*
G01*
X131291250Y-58292500D02*
X130328750Y-58292500D01*
G75*
G02*
X130060000Y-58023750I0J268750D01*
G01*
X130060000Y-57486250D01*
G75*
G02*
X130328750Y-57217500I268750J0D01*
G01*
X131291250Y-57217500D01*
G75*
G02*
X131560000Y-57486250I0J-268750D01*
G01*
X131560000Y-58023750D01*
G75*
G02*
X131291250Y-58292500I-268750J0D01*
G01*
G37*
%TD*%
D17*
%TO.C,JP1*%
G36*
X117310602Y-82543889D02*
G01*
X117310602Y-82525466D01*
X117310843Y-82520565D01*
X117315653Y-82471734D01*
X117316373Y-82466881D01*
X117325945Y-82418756D01*
X117327137Y-82413995D01*
X117341381Y-82367040D01*
X117343034Y-82362421D01*
X117361811Y-82317088D01*
X117363909Y-82312651D01*
X117387040Y-82269378D01*
X117389562Y-82265171D01*
X117416822Y-82224372D01*
X117419746Y-82220430D01*
X117450874Y-82182501D01*
X117454169Y-82178866D01*
X117488866Y-82144169D01*
X117492501Y-82140874D01*
X117530430Y-82109746D01*
X117534372Y-82106822D01*
X117575171Y-82079562D01*
X117579378Y-82077040D01*
X117622651Y-82053909D01*
X117627088Y-82051811D01*
X117672421Y-82033034D01*
X117677040Y-82031381D01*
X117723995Y-82017137D01*
X117728756Y-82015945D01*
X117776881Y-82006373D01*
X117781734Y-82005653D01*
X117830565Y-82000843D01*
X117835466Y-82000602D01*
X117853889Y-82000602D01*
X117860000Y-82000000D01*
X118360000Y-82000000D01*
X118366111Y-82000602D01*
X118384534Y-82000602D01*
X118389435Y-82000843D01*
X118438266Y-82005653D01*
X118443119Y-82006373D01*
X118491244Y-82015945D01*
X118496005Y-82017137D01*
X118542960Y-82031381D01*
X118547579Y-82033034D01*
X118592912Y-82051811D01*
X118597349Y-82053909D01*
X118640622Y-82077040D01*
X118644829Y-82079562D01*
X118685628Y-82106822D01*
X118689570Y-82109746D01*
X118727499Y-82140874D01*
X118731134Y-82144169D01*
X118765831Y-82178866D01*
X118769126Y-82182501D01*
X118800254Y-82220430D01*
X118803178Y-82224372D01*
X118830438Y-82265171D01*
X118832960Y-82269378D01*
X118856091Y-82312651D01*
X118858189Y-82317088D01*
X118876966Y-82362421D01*
X118878619Y-82367040D01*
X118892863Y-82413995D01*
X118894055Y-82418756D01*
X118903627Y-82466881D01*
X118904347Y-82471734D01*
X118909157Y-82520565D01*
X118909398Y-82525466D01*
X118909398Y-82543889D01*
X118910000Y-82550000D01*
X118910000Y-83050000D01*
X118909039Y-83059755D01*
X118906194Y-83069134D01*
X118901573Y-83077779D01*
X118895355Y-83085355D01*
X118887779Y-83091573D01*
X118879134Y-83096194D01*
X118869755Y-83099039D01*
X118860000Y-83100000D01*
X117360000Y-83100000D01*
X117350245Y-83099039D01*
X117340866Y-83096194D01*
X117332221Y-83091573D01*
X117324645Y-83085355D01*
X117318427Y-83077779D01*
X117313806Y-83069134D01*
X117310961Y-83059755D01*
X117310000Y-83050000D01*
X117310000Y-82550000D01*
X117310602Y-82543889D01*
G37*
G36*
X117310961Y-83340245D02*
G01*
X117313806Y-83330866D01*
X117318427Y-83322221D01*
X117324645Y-83314645D01*
X117332221Y-83308427D01*
X117340866Y-83303806D01*
X117350245Y-83300961D01*
X117360000Y-83300000D01*
X118860000Y-83300000D01*
X118869755Y-83300961D01*
X118879134Y-83303806D01*
X118887779Y-83308427D01*
X118895355Y-83314645D01*
X118901573Y-83322221D01*
X118906194Y-83330866D01*
X118909039Y-83340245D01*
X118910000Y-83350000D01*
X118910000Y-83850000D01*
X118909398Y-83856111D01*
X118909398Y-83874534D01*
X118909157Y-83879435D01*
X118904347Y-83928266D01*
X118903627Y-83933119D01*
X118894055Y-83981244D01*
X118892863Y-83986005D01*
X118878619Y-84032960D01*
X118876966Y-84037579D01*
X118858189Y-84082912D01*
X118856091Y-84087349D01*
X118832960Y-84130622D01*
X118830438Y-84134829D01*
X118803178Y-84175628D01*
X118800254Y-84179570D01*
X118769126Y-84217499D01*
X118765831Y-84221134D01*
X118731134Y-84255831D01*
X118727499Y-84259126D01*
X118689570Y-84290254D01*
X118685628Y-84293178D01*
X118644829Y-84320438D01*
X118640622Y-84322960D01*
X118597349Y-84346091D01*
X118592912Y-84348189D01*
X118547579Y-84366966D01*
X118542960Y-84368619D01*
X118496005Y-84382863D01*
X118491244Y-84384055D01*
X118443119Y-84393627D01*
X118438266Y-84394347D01*
X118389435Y-84399157D01*
X118384534Y-84399398D01*
X118366111Y-84399398D01*
X118360000Y-84400000D01*
X117860000Y-84400000D01*
X117853889Y-84399398D01*
X117835466Y-84399398D01*
X117830565Y-84399157D01*
X117781734Y-84394347D01*
X117776881Y-84393627D01*
X117728756Y-84384055D01*
X117723995Y-84382863D01*
X117677040Y-84368619D01*
X117672421Y-84366966D01*
X117627088Y-84348189D01*
X117622651Y-84346091D01*
X117579378Y-84322960D01*
X117575171Y-84320438D01*
X117534372Y-84293178D01*
X117530430Y-84290254D01*
X117492501Y-84259126D01*
X117488866Y-84255831D01*
X117454169Y-84221134D01*
X117450874Y-84217499D01*
X117419746Y-84179570D01*
X117416822Y-84175628D01*
X117389562Y-84134829D01*
X117387040Y-84130622D01*
X117363909Y-84087349D01*
X117361811Y-84082912D01*
X117343034Y-84037579D01*
X117341381Y-84032960D01*
X117327137Y-83986005D01*
X117325945Y-83981244D01*
X117316373Y-83933119D01*
X117315653Y-83928266D01*
X117310843Y-83879435D01*
X117310602Y-83874534D01*
X117310602Y-83856111D01*
X117310000Y-83850000D01*
X117310000Y-83350000D01*
X117310961Y-83340245D01*
G37*
%TD*%
%TO.C,D6*%
G36*
G01*
X113818750Y-63567500D02*
X114781250Y-63567500D01*
G75*
G02*
X115050000Y-63836250I0J-268750D01*
G01*
X115050000Y-64373750D01*
G75*
G02*
X114781250Y-64642500I-268750J0D01*
G01*
X113818750Y-64642500D01*
G75*
G02*
X113550000Y-64373750I0J268750D01*
G01*
X113550000Y-63836250D01*
G75*
G02*
X113818750Y-63567500I268750J0D01*
G01*
G37*
G36*
G01*
X113818750Y-61692500D02*
X114781250Y-61692500D01*
G75*
G02*
X115050000Y-61961250I0J-268750D01*
G01*
X115050000Y-62498750D01*
G75*
G02*
X114781250Y-62767500I-268750J0D01*
G01*
X113818750Y-62767500D01*
G75*
G02*
X113550000Y-62498750I0J268750D01*
G01*
X113550000Y-61961250D01*
G75*
G02*
X113818750Y-61692500I268750J0D01*
G01*
G37*
%TD*%
%TO.C,C19*%
G36*
G01*
X127481250Y-81817500D02*
X126518750Y-81817500D01*
G75*
G02*
X126250000Y-81548750I0J268750D01*
G01*
X126250000Y-81011250D01*
G75*
G02*
X126518750Y-80742500I268750J0D01*
G01*
X127481250Y-80742500D01*
G75*
G02*
X127750000Y-81011250I0J-268750D01*
G01*
X127750000Y-81548750D01*
G75*
G02*
X127481250Y-81817500I-268750J0D01*
G01*
G37*
G36*
G01*
X127481250Y-83692500D02*
X126518750Y-83692500D01*
G75*
G02*
X126250000Y-83423750I0J268750D01*
G01*
X126250000Y-82886250D01*
G75*
G02*
X126518750Y-82617500I268750J0D01*
G01*
X127481250Y-82617500D01*
G75*
G02*
X127750000Y-82886250I0J-268750D01*
G01*
X127750000Y-83423750D01*
G75*
G02*
X127481250Y-83692500I-268750J0D01*
G01*
G37*
%TD*%
%TO.C,C18*%
G36*
G01*
X112548750Y-82617500D02*
X113511250Y-82617500D01*
G75*
G02*
X113780000Y-82886250I0J-268750D01*
G01*
X113780000Y-83423750D01*
G75*
G02*
X113511250Y-83692500I-268750J0D01*
G01*
X112548750Y-83692500D01*
G75*
G02*
X112280000Y-83423750I0J268750D01*
G01*
X112280000Y-82886250D01*
G75*
G02*
X112548750Y-82617500I268750J0D01*
G01*
G37*
G36*
G01*
X112548750Y-80742500D02*
X113511250Y-80742500D01*
G75*
G02*
X113780000Y-81011250I0J-268750D01*
G01*
X113780000Y-81548750D01*
G75*
G02*
X113511250Y-81817500I-268750J0D01*
G01*
X112548750Y-81817500D01*
G75*
G02*
X112280000Y-81548750I0J268750D01*
G01*
X112280000Y-81011250D01*
G75*
G02*
X112548750Y-80742500I268750J0D01*
G01*
G37*
%TD*%
%TO.C,C17*%
G36*
G01*
X122401250Y-81817500D02*
X121438750Y-81817500D01*
G75*
G02*
X121170000Y-81548750I0J268750D01*
G01*
X121170000Y-81011250D01*
G75*
G02*
X121438750Y-80742500I268750J0D01*
G01*
X122401250Y-80742500D01*
G75*
G02*
X122670000Y-81011250I0J-268750D01*
G01*
X122670000Y-81548750D01*
G75*
G02*
X122401250Y-81817500I-268750J0D01*
G01*
G37*
G36*
G01*
X122401250Y-83692500D02*
X121438750Y-83692500D01*
G75*
G02*
X121170000Y-83423750I0J268750D01*
G01*
X121170000Y-82886250D01*
G75*
G02*
X121438750Y-82617500I268750J0D01*
G01*
X122401250Y-82617500D01*
G75*
G02*
X122670000Y-82886250I0J-268750D01*
G01*
X122670000Y-83423750D01*
G75*
G02*
X122401250Y-83692500I-268750J0D01*
G01*
G37*
%TD*%
%TO.C,C16*%
G36*
G01*
X142972500Y-75411250D02*
X142972500Y-74448750D01*
G75*
G02*
X143241250Y-74180000I268750J0D01*
G01*
X143778750Y-74180000D01*
G75*
G02*
X144047500Y-74448750I0J-268750D01*
G01*
X144047500Y-75411250D01*
G75*
G02*
X143778750Y-75680000I-268750J0D01*
G01*
X143241250Y-75680000D01*
G75*
G02*
X142972500Y-75411250I0J268750D01*
G01*
G37*
G36*
G01*
X141097500Y-75411250D02*
X141097500Y-74448750D01*
G75*
G02*
X141366250Y-74180000I268750J0D01*
G01*
X141903750Y-74180000D01*
G75*
G02*
X142172500Y-74448750I0J-268750D01*
G01*
X142172500Y-75411250D01*
G75*
G02*
X141903750Y-75680000I-268750J0D01*
G01*
X141366250Y-75680000D01*
G75*
G02*
X141097500Y-75411250I0J268750D01*
G01*
G37*
%TD*%
%TO.C,C15*%
G36*
G01*
X142972500Y-80491250D02*
X142972500Y-79528750D01*
G75*
G02*
X143241250Y-79260000I268750J0D01*
G01*
X143778750Y-79260000D01*
G75*
G02*
X144047500Y-79528750I0J-268750D01*
G01*
X144047500Y-80491250D01*
G75*
G02*
X143778750Y-80760000I-268750J0D01*
G01*
X143241250Y-80760000D01*
G75*
G02*
X142972500Y-80491250I0J268750D01*
G01*
G37*
G36*
G01*
X141097500Y-80491250D02*
X141097500Y-79528750D01*
G75*
G02*
X141366250Y-79260000I268750J0D01*
G01*
X141903750Y-79260000D01*
G75*
G02*
X142172500Y-79528750I0J-268750D01*
G01*
X142172500Y-80491250D01*
G75*
G02*
X141903750Y-80760000I-268750J0D01*
G01*
X141366250Y-80760000D01*
G75*
G02*
X141097500Y-80491250I0J268750D01*
G01*
G37*
%TD*%
%TO.C,R7*%
G36*
G01*
X183869250Y-76386500D02*
X182906750Y-76386500D01*
G75*
G02*
X182638000Y-76117750I0J268750D01*
G01*
X182638000Y-75580250D01*
G75*
G02*
X182906750Y-75311500I268750J0D01*
G01*
X183869250Y-75311500D01*
G75*
G02*
X184138000Y-75580250I0J-268750D01*
G01*
X184138000Y-76117750D01*
G75*
G02*
X183869250Y-76386500I-268750J0D01*
G01*
G37*
G36*
G01*
X183869250Y-78261500D02*
X182906750Y-78261500D01*
G75*
G02*
X182638000Y-77992750I0J268750D01*
G01*
X182638000Y-77455250D01*
G75*
G02*
X182906750Y-77186500I268750J0D01*
G01*
X183869250Y-77186500D01*
G75*
G02*
X184138000Y-77455250I0J-268750D01*
G01*
X184138000Y-77992750D01*
G75*
G02*
X183869250Y-78261500I-268750J0D01*
G01*
G37*
%TD*%
%TO.C,R6*%
G36*
G01*
X181329250Y-76386500D02*
X180366750Y-76386500D01*
G75*
G02*
X180098000Y-76117750I0J268750D01*
G01*
X180098000Y-75580250D01*
G75*
G02*
X180366750Y-75311500I268750J0D01*
G01*
X181329250Y-75311500D01*
G75*
G02*
X181598000Y-75580250I0J-268750D01*
G01*
X181598000Y-76117750D01*
G75*
G02*
X181329250Y-76386500I-268750J0D01*
G01*
G37*
G36*
G01*
X181329250Y-78261500D02*
X180366750Y-78261500D01*
G75*
G02*
X180098000Y-77992750I0J268750D01*
G01*
X180098000Y-77455250D01*
G75*
G02*
X180366750Y-77186500I268750J0D01*
G01*
X181329250Y-77186500D01*
G75*
G02*
X181598000Y-77455250I0J-268750D01*
G01*
X181598000Y-77992750D01*
G75*
G02*
X181329250Y-78261500I-268750J0D01*
G01*
G37*
%TD*%
%TO.C,R5*%
G36*
G01*
X166653500Y-66066750D02*
X166653500Y-67029250D01*
G75*
G02*
X166384750Y-67298000I-268750J0D01*
G01*
X165847250Y-67298000D01*
G75*
G02*
X165578500Y-67029250I0J268750D01*
G01*
X165578500Y-66066750D01*
G75*
G02*
X165847250Y-65798000I268750J0D01*
G01*
X166384750Y-65798000D01*
G75*
G02*
X166653500Y-66066750I0J-268750D01*
G01*
G37*
G36*
G01*
X168528500Y-66066750D02*
X168528500Y-67029250D01*
G75*
G02*
X168259750Y-67298000I-268750J0D01*
G01*
X167722250Y-67298000D01*
G75*
G02*
X167453500Y-67029250I0J268750D01*
G01*
X167453500Y-66066750D01*
G75*
G02*
X167722250Y-65798000I268750J0D01*
G01*
X168259750Y-65798000D01*
G75*
G02*
X168528500Y-66066750I0J-268750D01*
G01*
G37*
%TD*%
%TO.C,R4*%
G36*
G01*
X177773250Y-65718500D02*
X176810750Y-65718500D01*
G75*
G02*
X176542000Y-65449750I0J268750D01*
G01*
X176542000Y-64912250D01*
G75*
G02*
X176810750Y-64643500I268750J0D01*
G01*
X177773250Y-64643500D01*
G75*
G02*
X178042000Y-64912250I0J-268750D01*
G01*
X178042000Y-65449750D01*
G75*
G02*
X177773250Y-65718500I-268750J0D01*
G01*
G37*
G36*
G01*
X177773250Y-67593500D02*
X176810750Y-67593500D01*
G75*
G02*
X176542000Y-67324750I0J268750D01*
G01*
X176542000Y-66787250D01*
G75*
G02*
X176810750Y-66518500I268750J0D01*
G01*
X177773250Y-66518500D01*
G75*
G02*
X178042000Y-66787250I0J-268750D01*
G01*
X178042000Y-67324750D01*
G75*
G02*
X177773250Y-67593500I-268750J0D01*
G01*
G37*
%TD*%
%TO.C,R3*%
G36*
G01*
X179805250Y-65718500D02*
X178842750Y-65718500D01*
G75*
G02*
X178574000Y-65449750I0J268750D01*
G01*
X178574000Y-64912250D01*
G75*
G02*
X178842750Y-64643500I268750J0D01*
G01*
X179805250Y-64643500D01*
G75*
G02*
X180074000Y-64912250I0J-268750D01*
G01*
X180074000Y-65449750D01*
G75*
G02*
X179805250Y-65718500I-268750J0D01*
G01*
G37*
G36*
G01*
X179805250Y-67593500D02*
X178842750Y-67593500D01*
G75*
G02*
X178574000Y-67324750I0J268750D01*
G01*
X178574000Y-66787250D01*
G75*
G02*
X178842750Y-66518500I268750J0D01*
G01*
X179805250Y-66518500D01*
G75*
G02*
X180074000Y-66787250I0J-268750D01*
G01*
X180074000Y-67324750D01*
G75*
G02*
X179805250Y-67593500I-268750J0D01*
G01*
G37*
%TD*%
%TO.C,D5*%
G36*
G01*
X183869250Y-71814500D02*
X182906750Y-71814500D01*
G75*
G02*
X182638000Y-71545750I0J268750D01*
G01*
X182638000Y-71008250D01*
G75*
G02*
X182906750Y-70739500I268750J0D01*
G01*
X183869250Y-70739500D01*
G75*
G02*
X184138000Y-71008250I0J-268750D01*
G01*
X184138000Y-71545750D01*
G75*
G02*
X183869250Y-71814500I-268750J0D01*
G01*
G37*
G36*
G01*
X183869250Y-73689500D02*
X182906750Y-73689500D01*
G75*
G02*
X182638000Y-73420750I0J268750D01*
G01*
X182638000Y-72883250D01*
G75*
G02*
X182906750Y-72614500I268750J0D01*
G01*
X183869250Y-72614500D01*
G75*
G02*
X184138000Y-72883250I0J-268750D01*
G01*
X184138000Y-73420750D01*
G75*
G02*
X183869250Y-73689500I-268750J0D01*
G01*
G37*
%TD*%
%TO.C,D4*%
G36*
G01*
X181329250Y-71814500D02*
X180366750Y-71814500D01*
G75*
G02*
X180098000Y-71545750I0J268750D01*
G01*
X180098000Y-71008250D01*
G75*
G02*
X180366750Y-70739500I268750J0D01*
G01*
X181329250Y-70739500D01*
G75*
G02*
X181598000Y-71008250I0J-268750D01*
G01*
X181598000Y-71545750D01*
G75*
G02*
X181329250Y-71814500I-268750J0D01*
G01*
G37*
G36*
G01*
X181329250Y-73689500D02*
X180366750Y-73689500D01*
G75*
G02*
X180098000Y-73420750I0J268750D01*
G01*
X180098000Y-72883250D01*
G75*
G02*
X180366750Y-72614500I268750J0D01*
G01*
X181329250Y-72614500D01*
G75*
G02*
X181598000Y-72883250I0J-268750D01*
G01*
X181598000Y-73420750D01*
G75*
G02*
X181329250Y-73689500I-268750J0D01*
G01*
G37*
%TD*%
%TO.C,D3*%
G36*
G01*
X166597250Y-69117500D02*
X165634750Y-69117500D01*
G75*
G02*
X165366000Y-68848750I0J268750D01*
G01*
X165366000Y-68311250D01*
G75*
G02*
X165634750Y-68042500I268750J0D01*
G01*
X166597250Y-68042500D01*
G75*
G02*
X166866000Y-68311250I0J-268750D01*
G01*
X166866000Y-68848750D01*
G75*
G02*
X166597250Y-69117500I-268750J0D01*
G01*
G37*
G36*
G01*
X166597250Y-70992500D02*
X165634750Y-70992500D01*
G75*
G02*
X165366000Y-70723750I0J268750D01*
G01*
X165366000Y-70186250D01*
G75*
G02*
X165634750Y-69917500I268750J0D01*
G01*
X166597250Y-69917500D01*
G75*
G02*
X166866000Y-70186250I0J-268750D01*
G01*
X166866000Y-70723750D01*
G75*
G02*
X166597250Y-70992500I-268750J0D01*
G01*
G37*
%TD*%
%TO.C,C13*%
G36*
G01*
X170661250Y-81309500D02*
X169698750Y-81309500D01*
G75*
G02*
X169430000Y-81040750I0J268750D01*
G01*
X169430000Y-80503250D01*
G75*
G02*
X169698750Y-80234500I268750J0D01*
G01*
X170661250Y-80234500D01*
G75*
G02*
X170930000Y-80503250I0J-268750D01*
G01*
X170930000Y-81040750D01*
G75*
G02*
X170661250Y-81309500I-268750J0D01*
G01*
G37*
G36*
G01*
X170661250Y-83184500D02*
X169698750Y-83184500D01*
G75*
G02*
X169430000Y-82915750I0J268750D01*
G01*
X169430000Y-82378250D01*
G75*
G02*
X169698750Y-82109500I268750J0D01*
G01*
X170661250Y-82109500D01*
G75*
G02*
X170930000Y-82378250I0J-268750D01*
G01*
X170930000Y-82915750D01*
G75*
G02*
X170661250Y-83184500I-268750J0D01*
G01*
G37*
%TD*%
%TO.C,C12*%
G36*
G01*
X166597250Y-76737500D02*
X165634750Y-76737500D01*
G75*
G02*
X165366000Y-76468750I0J268750D01*
G01*
X165366000Y-75931250D01*
G75*
G02*
X165634750Y-75662500I268750J0D01*
G01*
X166597250Y-75662500D01*
G75*
G02*
X166866000Y-75931250I0J-268750D01*
G01*
X166866000Y-76468750D01*
G75*
G02*
X166597250Y-76737500I-268750J0D01*
G01*
G37*
G36*
G01*
X166597250Y-78612500D02*
X165634750Y-78612500D01*
G75*
G02*
X165366000Y-78343750I0J268750D01*
G01*
X165366000Y-77806250D01*
G75*
G02*
X165634750Y-77537500I268750J0D01*
G01*
X166597250Y-77537500D01*
G75*
G02*
X166866000Y-77806250I0J-268750D01*
G01*
X166866000Y-78343750D01*
G75*
G02*
X166597250Y-78612500I-268750J0D01*
G01*
G37*
%TD*%
%TO.C,C11*%
G36*
G01*
X174778750Y-66518500D02*
X175741250Y-66518500D01*
G75*
G02*
X176010000Y-66787250I0J-268750D01*
G01*
X176010000Y-67324750D01*
G75*
G02*
X175741250Y-67593500I-268750J0D01*
G01*
X174778750Y-67593500D01*
G75*
G02*
X174510000Y-67324750I0J268750D01*
G01*
X174510000Y-66787250D01*
G75*
G02*
X174778750Y-66518500I268750J0D01*
G01*
G37*
G36*
G01*
X174778750Y-64643500D02*
X175741250Y-64643500D01*
G75*
G02*
X176010000Y-64912250I0J-268750D01*
G01*
X176010000Y-65449750D01*
G75*
G02*
X175741250Y-65718500I-268750J0D01*
G01*
X174778750Y-65718500D01*
G75*
G02*
X174510000Y-65449750I0J268750D01*
G01*
X174510000Y-64912250D01*
G75*
G02*
X174778750Y-64643500I268750J0D01*
G01*
G37*
%TD*%
%TO.C,C10*%
G36*
G01*
X170714750Y-66518500D02*
X171677250Y-66518500D01*
G75*
G02*
X171946000Y-66787250I0J-268750D01*
G01*
X171946000Y-67324750D01*
G75*
G02*
X171677250Y-67593500I-268750J0D01*
G01*
X170714750Y-67593500D01*
G75*
G02*
X170446000Y-67324750I0J268750D01*
G01*
X170446000Y-66787250D01*
G75*
G02*
X170714750Y-66518500I268750J0D01*
G01*
G37*
G36*
G01*
X170714750Y-64643500D02*
X171677250Y-64643500D01*
G75*
G02*
X171946000Y-64912250I0J-268750D01*
G01*
X171946000Y-65449750D01*
G75*
G02*
X171677250Y-65718500I-268750J0D01*
G01*
X170714750Y-65718500D01*
G75*
G02*
X170446000Y-65449750I0J268750D01*
G01*
X170446000Y-64912250D01*
G75*
G02*
X170714750Y-64643500I268750J0D01*
G01*
G37*
%TD*%
%TO.C,C9*%
G36*
G01*
X172746750Y-66518500D02*
X173709250Y-66518500D01*
G75*
G02*
X173978000Y-66787250I0J-268750D01*
G01*
X173978000Y-67324750D01*
G75*
G02*
X173709250Y-67593500I-268750J0D01*
G01*
X172746750Y-67593500D01*
G75*
G02*
X172478000Y-67324750I0J268750D01*
G01*
X172478000Y-66787250D01*
G75*
G02*
X172746750Y-66518500I268750J0D01*
G01*
G37*
G36*
G01*
X172746750Y-64643500D02*
X173709250Y-64643500D01*
G75*
G02*
X173978000Y-64912250I0J-268750D01*
G01*
X173978000Y-65449750D01*
G75*
G02*
X173709250Y-65718500I-268750J0D01*
G01*
X172746750Y-65718500D01*
G75*
G02*
X172478000Y-65449750I0J268750D01*
G01*
X172478000Y-64912250D01*
G75*
G02*
X172746750Y-64643500I268750J0D01*
G01*
G37*
%TD*%
%TO.C,R2*%
G36*
G01*
X163676250Y-56750000D02*
X162713750Y-56750000D01*
G75*
G02*
X162445000Y-56481250I0J268750D01*
G01*
X162445000Y-55943750D01*
G75*
G02*
X162713750Y-55675000I268750J0D01*
G01*
X163676250Y-55675000D01*
G75*
G02*
X163945000Y-55943750I0J-268750D01*
G01*
X163945000Y-56481250D01*
G75*
G02*
X163676250Y-56750000I-268750J0D01*
G01*
G37*
G36*
G01*
X163676250Y-58625000D02*
X162713750Y-58625000D01*
G75*
G02*
X162445000Y-58356250I0J268750D01*
G01*
X162445000Y-57818750D01*
G75*
G02*
X162713750Y-57550000I268750J0D01*
G01*
X163676250Y-57550000D01*
G75*
G02*
X163945000Y-57818750I0J-268750D01*
G01*
X163945000Y-58356250D01*
G75*
G02*
X163676250Y-58625000I-268750J0D01*
G01*
G37*
%TD*%
D13*
%TO.C,J6*%
X161925000Y-52705000D03*
D14*
X159385000Y-52705000D03*
%TD*%
%TO.C,R1*%
G36*
G01*
X139162500Y-53186250D02*
X139162500Y-52223750D01*
G75*
G02*
X139431250Y-51955000I268750J0D01*
G01*
X139968750Y-51955000D01*
G75*
G02*
X140237500Y-52223750I0J-268750D01*
G01*
X140237500Y-53186250D01*
G75*
G02*
X139968750Y-53455000I-268750J0D01*
G01*
X139431250Y-53455000D01*
G75*
G02*
X139162500Y-53186250I0J268750D01*
G01*
G37*
G36*
G01*
X137287500Y-53186250D02*
X137287500Y-52223750D01*
G75*
G02*
X137556250Y-51955000I268750J0D01*
G01*
X138093750Y-51955000D01*
G75*
G02*
X138362500Y-52223750I0J-268750D01*
G01*
X138362500Y-53186250D01*
G75*
G02*
X138093750Y-53455000I-268750J0D01*
G01*
X137556250Y-53455000D01*
G75*
G02*
X137287500Y-53186250I0J268750D01*
G01*
G37*
%TD*%
%TO.C,D2*%
G36*
G01*
X142807500Y-52223750D02*
X142807500Y-53186250D01*
G75*
G02*
X142538750Y-53455000I-268750J0D01*
G01*
X142001250Y-53455000D01*
G75*
G02*
X141732500Y-53186250I0J268750D01*
G01*
X141732500Y-52223750D01*
G75*
G02*
X142001250Y-51955000I268750J0D01*
G01*
X142538750Y-51955000D01*
G75*
G02*
X142807500Y-52223750I0J-268750D01*
G01*
G37*
G36*
G01*
X144682500Y-52223750D02*
X144682500Y-53186250D01*
G75*
G02*
X144413750Y-53455000I-268750J0D01*
G01*
X143876250Y-53455000D01*
G75*
G02*
X143607500Y-53186250I0J268750D01*
G01*
X143607500Y-52223750D01*
G75*
G02*
X143876250Y-51955000I268750J0D01*
G01*
X144413750Y-51955000D01*
G75*
G02*
X144682500Y-52223750I0J-268750D01*
G01*
G37*
%TD*%
D13*
%TO.C,J5*%
X154305000Y-52705000D03*
D14*
X151765000Y-52705000D03*
%TD*%
%TO.C,J4*%
G36*
G01*
X99845294Y-66940000D02*
X98274706Y-66940000D01*
G75*
G02*
X98010000Y-66675294I0J264706D01*
G01*
X98010000Y-65404706D01*
G75*
G02*
X98274706Y-65140000I264706J0D01*
G01*
X99845294Y-65140000D01*
G75*
G02*
X100110000Y-65404706I0J-264706D01*
G01*
X100110000Y-66675294D01*
G75*
G02*
X99845294Y-66940000I-264706J0D01*
G01*
G37*
D18*
X99060000Y-63540000D03*
D11*
X97060000Y-67640000D03*
%TD*%
D19*
%TO.C,U5*%
X169130000Y-77895000D03*
X169780000Y-77895000D03*
X170430000Y-77895000D03*
X171080000Y-77895000D03*
X171730000Y-77895000D03*
X172380000Y-77895000D03*
X173030000Y-77895000D03*
X173680000Y-77895000D03*
X174330000Y-77895000D03*
X174980000Y-77895000D03*
X175630000Y-77895000D03*
X176280000Y-77895000D03*
X176930000Y-77895000D03*
X177580000Y-77895000D03*
X177580000Y-70695000D03*
X176930000Y-70695000D03*
X176280000Y-70695000D03*
X175630000Y-70695000D03*
X174980000Y-70695000D03*
X174330000Y-70695000D03*
X173680000Y-70695000D03*
X173030000Y-70695000D03*
X172380000Y-70695000D03*
X171730000Y-70695000D03*
X171080000Y-70695000D03*
X170430000Y-70695000D03*
X169780000Y-70695000D03*
X169130000Y-70695000D03*
%TD*%
%TO.C,U4*%
G36*
G01*
X112570000Y-78750000D02*
X112220000Y-78750000D01*
G75*
G02*
X112045000Y-78575000I0J175000D01*
G01*
X112045000Y-76775000D01*
G75*
G02*
X112220000Y-76600000I175000J0D01*
G01*
X112570000Y-76600000D01*
G75*
G02*
X112745000Y-76775000I0J-175000D01*
G01*
X112745000Y-78575000D01*
G75*
G02*
X112570000Y-78750000I-175000J0D01*
G01*
G37*
G36*
G01*
X113840000Y-78750000D02*
X113490000Y-78750000D01*
G75*
G02*
X113315000Y-78575000I0J175000D01*
G01*
X113315000Y-76775000D01*
G75*
G02*
X113490000Y-76600000I175000J0D01*
G01*
X113840000Y-76600000D01*
G75*
G02*
X114015000Y-76775000I0J-175000D01*
G01*
X114015000Y-78575000D01*
G75*
G02*
X113840000Y-78750000I-175000J0D01*
G01*
G37*
G36*
G01*
X115110000Y-78750000D02*
X114760000Y-78750000D01*
G75*
G02*
X114585000Y-78575000I0J175000D01*
G01*
X114585000Y-76775000D01*
G75*
G02*
X114760000Y-76600000I175000J0D01*
G01*
X115110000Y-76600000D01*
G75*
G02*
X115285000Y-76775000I0J-175000D01*
G01*
X115285000Y-78575000D01*
G75*
G02*
X115110000Y-78750000I-175000J0D01*
G01*
G37*
G36*
G01*
X116380000Y-78750000D02*
X116030000Y-78750000D01*
G75*
G02*
X115855000Y-78575000I0J175000D01*
G01*
X115855000Y-76775000D01*
G75*
G02*
X116030000Y-76600000I175000J0D01*
G01*
X116380000Y-76600000D01*
G75*
G02*
X116555000Y-76775000I0J-175000D01*
G01*
X116555000Y-78575000D01*
G75*
G02*
X116380000Y-78750000I-175000J0D01*
G01*
G37*
G36*
G01*
X117650000Y-78750000D02*
X117300000Y-78750000D01*
G75*
G02*
X117125000Y-78575000I0J175000D01*
G01*
X117125000Y-76775000D01*
G75*
G02*
X117300000Y-76600000I175000J0D01*
G01*
X117650000Y-76600000D01*
G75*
G02*
X117825000Y-76775000I0J-175000D01*
G01*
X117825000Y-78575000D01*
G75*
G02*
X117650000Y-78750000I-175000J0D01*
G01*
G37*
G36*
G01*
X118920000Y-78750000D02*
X118570000Y-78750000D01*
G75*
G02*
X118395000Y-78575000I0J175000D01*
G01*
X118395000Y-76775000D01*
G75*
G02*
X118570000Y-76600000I175000J0D01*
G01*
X118920000Y-76600000D01*
G75*
G02*
X119095000Y-76775000I0J-175000D01*
G01*
X119095000Y-78575000D01*
G75*
G02*
X118920000Y-78750000I-175000J0D01*
G01*
G37*
G36*
G01*
X120190000Y-78750000D02*
X119840000Y-78750000D01*
G75*
G02*
X119665000Y-78575000I0J175000D01*
G01*
X119665000Y-76775000D01*
G75*
G02*
X119840000Y-76600000I175000J0D01*
G01*
X120190000Y-76600000D01*
G75*
G02*
X120365000Y-76775000I0J-175000D01*
G01*
X120365000Y-78575000D01*
G75*
G02*
X120190000Y-78750000I-175000J0D01*
G01*
G37*
G36*
G01*
X121460000Y-78750000D02*
X121110000Y-78750000D01*
G75*
G02*
X120935000Y-78575000I0J175000D01*
G01*
X120935000Y-76775000D01*
G75*
G02*
X121110000Y-76600000I175000J0D01*
G01*
X121460000Y-76600000D01*
G75*
G02*
X121635000Y-76775000I0J-175000D01*
G01*
X121635000Y-78575000D01*
G75*
G02*
X121460000Y-78750000I-175000J0D01*
G01*
G37*
G36*
G01*
X122730000Y-78750000D02*
X122380000Y-78750000D01*
G75*
G02*
X122205000Y-78575000I0J175000D01*
G01*
X122205000Y-76775000D01*
G75*
G02*
X122380000Y-76600000I175000J0D01*
G01*
X122730000Y-76600000D01*
G75*
G02*
X122905000Y-76775000I0J-175000D01*
G01*
X122905000Y-78575000D01*
G75*
G02*
X122730000Y-78750000I-175000J0D01*
G01*
G37*
G36*
G01*
X124000000Y-78750000D02*
X123650000Y-78750000D01*
G75*
G02*
X123475000Y-78575000I0J175000D01*
G01*
X123475000Y-76775000D01*
G75*
G02*
X123650000Y-76600000I175000J0D01*
G01*
X124000000Y-76600000D01*
G75*
G02*
X124175000Y-76775000I0J-175000D01*
G01*
X124175000Y-78575000D01*
G75*
G02*
X124000000Y-78750000I-175000J0D01*
G01*
G37*
G36*
G01*
X125270000Y-78750000D02*
X124920000Y-78750000D01*
G75*
G02*
X124745000Y-78575000I0J175000D01*
G01*
X124745000Y-76775000D01*
G75*
G02*
X124920000Y-76600000I175000J0D01*
G01*
X125270000Y-76600000D01*
G75*
G02*
X125445000Y-76775000I0J-175000D01*
G01*
X125445000Y-78575000D01*
G75*
G02*
X125270000Y-78750000I-175000J0D01*
G01*
G37*
G36*
G01*
X126540000Y-78750000D02*
X126190000Y-78750000D01*
G75*
G02*
X126015000Y-78575000I0J175000D01*
G01*
X126015000Y-76775000D01*
G75*
G02*
X126190000Y-76600000I175000J0D01*
G01*
X126540000Y-76600000D01*
G75*
G02*
X126715000Y-76775000I0J-175000D01*
G01*
X126715000Y-78575000D01*
G75*
G02*
X126540000Y-78750000I-175000J0D01*
G01*
G37*
G36*
G01*
X127810000Y-78750000D02*
X127460000Y-78750000D01*
G75*
G02*
X127285000Y-78575000I0J175000D01*
G01*
X127285000Y-76775000D01*
G75*
G02*
X127460000Y-76600000I175000J0D01*
G01*
X127810000Y-76600000D01*
G75*
G02*
X127985000Y-76775000I0J-175000D01*
G01*
X127985000Y-78575000D01*
G75*
G02*
X127810000Y-78750000I-175000J0D01*
G01*
G37*
G36*
G01*
X129080000Y-78750000D02*
X128730000Y-78750000D01*
G75*
G02*
X128555000Y-78575000I0J175000D01*
G01*
X128555000Y-76775000D01*
G75*
G02*
X128730000Y-76600000I175000J0D01*
G01*
X129080000Y-76600000D01*
G75*
G02*
X129255000Y-76775000I0J-175000D01*
G01*
X129255000Y-78575000D01*
G75*
G02*
X129080000Y-78750000I-175000J0D01*
G01*
G37*
G36*
G01*
X129080000Y-69450000D02*
X128730000Y-69450000D01*
G75*
G02*
X128555000Y-69275000I0J175000D01*
G01*
X128555000Y-67475000D01*
G75*
G02*
X128730000Y-67300000I175000J0D01*
G01*
X129080000Y-67300000D01*
G75*
G02*
X129255000Y-67475000I0J-175000D01*
G01*
X129255000Y-69275000D01*
G75*
G02*
X129080000Y-69450000I-175000J0D01*
G01*
G37*
G36*
G01*
X127810000Y-69450000D02*
X127460000Y-69450000D01*
G75*
G02*
X127285000Y-69275000I0J175000D01*
G01*
X127285000Y-67475000D01*
G75*
G02*
X127460000Y-67300000I175000J0D01*
G01*
X127810000Y-67300000D01*
G75*
G02*
X127985000Y-67475000I0J-175000D01*
G01*
X127985000Y-69275000D01*
G75*
G02*
X127810000Y-69450000I-175000J0D01*
G01*
G37*
G36*
G01*
X126540000Y-69450000D02*
X126190000Y-69450000D01*
G75*
G02*
X126015000Y-69275000I0J175000D01*
G01*
X126015000Y-67475000D01*
G75*
G02*
X126190000Y-67300000I175000J0D01*
G01*
X126540000Y-67300000D01*
G75*
G02*
X126715000Y-67475000I0J-175000D01*
G01*
X126715000Y-69275000D01*
G75*
G02*
X126540000Y-69450000I-175000J0D01*
G01*
G37*
G36*
G01*
X125270000Y-69450000D02*
X124920000Y-69450000D01*
G75*
G02*
X124745000Y-69275000I0J175000D01*
G01*
X124745000Y-67475000D01*
G75*
G02*
X124920000Y-67300000I175000J0D01*
G01*
X125270000Y-67300000D01*
G75*
G02*
X125445000Y-67475000I0J-175000D01*
G01*
X125445000Y-69275000D01*
G75*
G02*
X125270000Y-69450000I-175000J0D01*
G01*
G37*
G36*
G01*
X124000000Y-69450000D02*
X123650000Y-69450000D01*
G75*
G02*
X123475000Y-69275000I0J175000D01*
G01*
X123475000Y-67475000D01*
G75*
G02*
X123650000Y-67300000I175000J0D01*
G01*
X124000000Y-67300000D01*
G75*
G02*
X124175000Y-67475000I0J-175000D01*
G01*
X124175000Y-69275000D01*
G75*
G02*
X124000000Y-69450000I-175000J0D01*
G01*
G37*
G36*
G01*
X122730000Y-69450000D02*
X122380000Y-69450000D01*
G75*
G02*
X122205000Y-69275000I0J175000D01*
G01*
X122205000Y-67475000D01*
G75*
G02*
X122380000Y-67300000I175000J0D01*
G01*
X122730000Y-67300000D01*
G75*
G02*
X122905000Y-67475000I0J-175000D01*
G01*
X122905000Y-69275000D01*
G75*
G02*
X122730000Y-69450000I-175000J0D01*
G01*
G37*
G36*
G01*
X121460000Y-69450000D02*
X121110000Y-69450000D01*
G75*
G02*
X120935000Y-69275000I0J175000D01*
G01*
X120935000Y-67475000D01*
G75*
G02*
X121110000Y-67300000I175000J0D01*
G01*
X121460000Y-67300000D01*
G75*
G02*
X121635000Y-67475000I0J-175000D01*
G01*
X121635000Y-69275000D01*
G75*
G02*
X121460000Y-69450000I-175000J0D01*
G01*
G37*
G36*
G01*
X120190000Y-69450000D02*
X119840000Y-69450000D01*
G75*
G02*
X119665000Y-69275000I0J175000D01*
G01*
X119665000Y-67475000D01*
G75*
G02*
X119840000Y-67300000I175000J0D01*
G01*
X120190000Y-67300000D01*
G75*
G02*
X120365000Y-67475000I0J-175000D01*
G01*
X120365000Y-69275000D01*
G75*
G02*
X120190000Y-69450000I-175000J0D01*
G01*
G37*
G36*
G01*
X118920000Y-69450000D02*
X118570000Y-69450000D01*
G75*
G02*
X118395000Y-69275000I0J175000D01*
G01*
X118395000Y-67475000D01*
G75*
G02*
X118570000Y-67300000I175000J0D01*
G01*
X118920000Y-67300000D01*
G75*
G02*
X119095000Y-67475000I0J-175000D01*
G01*
X119095000Y-69275000D01*
G75*
G02*
X118920000Y-69450000I-175000J0D01*
G01*
G37*
G36*
G01*
X117650000Y-69450000D02*
X117300000Y-69450000D01*
G75*
G02*
X117125000Y-69275000I0J175000D01*
G01*
X117125000Y-67475000D01*
G75*
G02*
X117300000Y-67300000I175000J0D01*
G01*
X117650000Y-67300000D01*
G75*
G02*
X117825000Y-67475000I0J-175000D01*
G01*
X117825000Y-69275000D01*
G75*
G02*
X117650000Y-69450000I-175000J0D01*
G01*
G37*
G36*
G01*
X116380000Y-69450000D02*
X116030000Y-69450000D01*
G75*
G02*
X115855000Y-69275000I0J175000D01*
G01*
X115855000Y-67475000D01*
G75*
G02*
X116030000Y-67300000I175000J0D01*
G01*
X116380000Y-67300000D01*
G75*
G02*
X116555000Y-67475000I0J-175000D01*
G01*
X116555000Y-69275000D01*
G75*
G02*
X116380000Y-69450000I-175000J0D01*
G01*
G37*
G36*
G01*
X115110000Y-69450000D02*
X114760000Y-69450000D01*
G75*
G02*
X114585000Y-69275000I0J175000D01*
G01*
X114585000Y-67475000D01*
G75*
G02*
X114760000Y-67300000I175000J0D01*
G01*
X115110000Y-67300000D01*
G75*
G02*
X115285000Y-67475000I0J-175000D01*
G01*
X115285000Y-69275000D01*
G75*
G02*
X115110000Y-69450000I-175000J0D01*
G01*
G37*
G36*
G01*
X113840000Y-69450000D02*
X113490000Y-69450000D01*
G75*
G02*
X113315000Y-69275000I0J175000D01*
G01*
X113315000Y-67475000D01*
G75*
G02*
X113490000Y-67300000I175000J0D01*
G01*
X113840000Y-67300000D01*
G75*
G02*
X114015000Y-67475000I0J-175000D01*
G01*
X114015000Y-69275000D01*
G75*
G02*
X113840000Y-69450000I-175000J0D01*
G01*
G37*
G36*
G01*
X112570000Y-69450000D02*
X112220000Y-69450000D01*
G75*
G02*
X112045000Y-69275000I0J175000D01*
G01*
X112045000Y-67475000D01*
G75*
G02*
X112220000Y-67300000I175000J0D01*
G01*
X112570000Y-67300000D01*
G75*
G02*
X112745000Y-67475000I0J-175000D01*
G01*
X112745000Y-69275000D01*
G75*
G02*
X112570000Y-69450000I-175000J0D01*
G01*
G37*
%TD*%
D20*
%TO.C,J2*%
X179990000Y-53075000D03*
X167950000Y-53075000D03*
D21*
X172720000Y-55785000D03*
X175220000Y-55785000D03*
X175220000Y-57785000D03*
D14*
X172720000Y-57785000D03*
%TD*%
D22*
%TO.C,J1*%
X116825000Y-55880000D03*
X119325000Y-55880000D03*
X121325000Y-55880000D03*
D23*
X123825000Y-55880000D03*
D24*
X113755000Y-53170000D03*
X126895000Y-53170000D03*
%TD*%
D25*
%TO.C,H4*%
X191770000Y-107950000D03*
%TD*%
%TO.C,H3*%
X191770000Y-54610000D03*
%TD*%
%TO.C,H2*%
X99060000Y-107950000D03*
%TD*%
%TO.C,H1*%
X99060000Y-54610000D03*
%TD*%
M02*
