%TF.GenerationSoftware,KiCad,Pcbnew,(5.1.6)-1*%
%TF.CreationDate,2021-07-30T14:46:14+05:30*%
%TF.ProjectId,StockPile_Final,53746f63-6b50-4696-9c65-5f46696e616c,rev?*%
%TF.SameCoordinates,Original*%
%TF.FileFunction,Soldermask,Bot*%
%TF.FilePolarity,Negative*%
%FSLAX46Y46*%
G04 Gerber Fmt 4.6, Leading zero omitted, Abs format (unit mm)*
G04 Created by KiCad (PCBNEW (5.1.6)-1) date 2021-07-30 14:46:14*
%MOMM*%
%LPD*%
G01*
G04 APERTURE LIST*
%ADD10O,2.050000X1.800000*%
%ADD11C,1.300000*%
%ADD12C,1.600000*%
%ADD13O,1.800000X1.800000*%
%ADD14R,1.800000X1.800000*%
%ADD15C,2.100000*%
%ADD16R,2.100000X2.100000*%
%ADD17O,2.100000X1.800000*%
%ADD18R,1.100000X1.100000*%
%ADD19R,1.600000X2.100000*%
%ADD20R,3.900000X2.100000*%
%ADD21C,3.600000*%
%ADD22C,1.800000*%
%ADD23C,1.700000*%
%ADD24R,1.700000X1.600000*%
%ADD25C,3.100000*%
%ADD26C,3.300000*%
G04 APERTURE END LIST*
%TO.C,J3*%
G36*
G01*
X99820400Y-98690000D02*
X98299600Y-98690000D01*
G75*
G02*
X98035000Y-98425400I0J264600D01*
G01*
X98035000Y-97154600D01*
G75*
G02*
X98299600Y-96890000I264600J0D01*
G01*
X99820400Y-96890000D01*
G75*
G02*
X100085000Y-97154600I0J-264600D01*
G01*
X100085000Y-98425400D01*
G75*
G02*
X99820400Y-98690000I-264600J0D01*
G01*
G37*
D10*
X99060000Y-95290000D03*
X99060000Y-92790000D03*
X99060000Y-90290000D03*
X99060000Y-87790000D03*
X99060000Y-85290000D03*
X99060000Y-82790000D03*
X99060000Y-80290000D03*
X99060000Y-77790000D03*
X99060000Y-75290000D03*
D11*
X101060000Y-99390000D03*
%TD*%
D12*
%TO.C,Y2*%
X152600000Y-104140000D03*
X157480000Y-104140000D03*
%TD*%
%TO.C,J10*%
G36*
G01*
X191009706Y-74230000D02*
X192530294Y-74230000D01*
G75*
G02*
X192795000Y-74494706I0J-264706D01*
G01*
X192795000Y-75765294D01*
G75*
G02*
X192530294Y-76030000I-264706J0D01*
G01*
X191009706Y-76030000D01*
G75*
G02*
X190745000Y-75765294I0J264706D01*
G01*
X190745000Y-74494706D01*
G75*
G02*
X191009706Y-74230000I264706J0D01*
G01*
G37*
D10*
X191770000Y-77630000D03*
X191770000Y-80130000D03*
X191770000Y-82630000D03*
X191770000Y-85130000D03*
X191770000Y-87630000D03*
X191770000Y-90130000D03*
X191770000Y-92630000D03*
X191770000Y-95130000D03*
X191770000Y-97630000D03*
D11*
X189770000Y-73530000D03*
%TD*%
D13*
%TO.C,J9*%
X139700000Y-109220000D03*
X139700000Y-106680000D03*
X137160000Y-109220000D03*
X137160000Y-106680000D03*
X134620000Y-109220000D03*
D14*
X134620000Y-106680000D03*
%TD*%
D13*
%TO.C,J8*%
X182880000Y-109220000D03*
X180340000Y-109220000D03*
X177800000Y-109220000D03*
D14*
X175260000Y-109220000D03*
%TD*%
D13*
%TO.C,J7*%
X124460000Y-109220000D03*
X121920000Y-109220000D03*
X119380000Y-109220000D03*
D14*
X116840000Y-109220000D03*
%TD*%
%TO.C,C26*%
G36*
G01*
X151611250Y-93247500D02*
X150648750Y-93247500D01*
G75*
G02*
X150380000Y-92978750I0J268750D01*
G01*
X150380000Y-92441250D01*
G75*
G02*
X150648750Y-92172500I268750J0D01*
G01*
X151611250Y-92172500D01*
G75*
G02*
X151880000Y-92441250I0J-268750D01*
G01*
X151880000Y-92978750D01*
G75*
G02*
X151611250Y-93247500I-268750J0D01*
G01*
G37*
G36*
G01*
X151611250Y-95122500D02*
X150648750Y-95122500D01*
G75*
G02*
X150380000Y-94853750I0J268750D01*
G01*
X150380000Y-94316250D01*
G75*
G02*
X150648750Y-94047500I268750J0D01*
G01*
X151611250Y-94047500D01*
G75*
G02*
X151880000Y-94316250I0J-268750D01*
G01*
X151880000Y-94853750D01*
G75*
G02*
X151611250Y-95122500I-268750J0D01*
G01*
G37*
%TD*%
%TO.C,C25*%
G36*
G01*
X156691250Y-93247500D02*
X155728750Y-93247500D01*
G75*
G02*
X155460000Y-92978750I0J268750D01*
G01*
X155460000Y-92441250D01*
G75*
G02*
X155728750Y-92172500I268750J0D01*
G01*
X156691250Y-92172500D01*
G75*
G02*
X156960000Y-92441250I0J-268750D01*
G01*
X156960000Y-92978750D01*
G75*
G02*
X156691250Y-93247500I-268750J0D01*
G01*
G37*
G36*
G01*
X156691250Y-95122500D02*
X155728750Y-95122500D01*
G75*
G02*
X155460000Y-94853750I0J268750D01*
G01*
X155460000Y-94316250D01*
G75*
G02*
X155728750Y-94047500I268750J0D01*
G01*
X156691250Y-94047500D01*
G75*
G02*
X156960000Y-94316250I0J-268750D01*
G01*
X156960000Y-94853750D01*
G75*
G02*
X156691250Y-95122500I-268750J0D01*
G01*
G37*
%TD*%
%TO.C,C24*%
G36*
G01*
X159231250Y-93247500D02*
X158268750Y-93247500D01*
G75*
G02*
X158000000Y-92978750I0J268750D01*
G01*
X158000000Y-92441250D01*
G75*
G02*
X158268750Y-92172500I268750J0D01*
G01*
X159231250Y-92172500D01*
G75*
G02*
X159500000Y-92441250I0J-268750D01*
G01*
X159500000Y-92978750D01*
G75*
G02*
X159231250Y-93247500I-268750J0D01*
G01*
G37*
G36*
G01*
X159231250Y-95122500D02*
X158268750Y-95122500D01*
G75*
G02*
X158000000Y-94853750I0J268750D01*
G01*
X158000000Y-94316250D01*
G75*
G02*
X158268750Y-94047500I268750J0D01*
G01*
X159231250Y-94047500D01*
G75*
G02*
X159500000Y-94316250I0J-268750D01*
G01*
X159500000Y-94853750D01*
G75*
G02*
X159231250Y-95122500I-268750J0D01*
G01*
G37*
%TD*%
%TO.C,C23*%
G36*
G01*
X154151250Y-93247500D02*
X153188750Y-93247500D01*
G75*
G02*
X152920000Y-92978750I0J268750D01*
G01*
X152920000Y-92441250D01*
G75*
G02*
X153188750Y-92172500I268750J0D01*
G01*
X154151250Y-92172500D01*
G75*
G02*
X154420000Y-92441250I0J-268750D01*
G01*
X154420000Y-92978750D01*
G75*
G02*
X154151250Y-93247500I-268750J0D01*
G01*
G37*
G36*
G01*
X154151250Y-95122500D02*
X153188750Y-95122500D01*
G75*
G02*
X152920000Y-94853750I0J268750D01*
G01*
X152920000Y-94316250D01*
G75*
G02*
X153188750Y-94047500I268750J0D01*
G01*
X154151250Y-94047500D01*
G75*
G02*
X154420000Y-94316250I0J-268750D01*
G01*
X154420000Y-94853750D01*
G75*
G02*
X154151250Y-95122500I-268750J0D01*
G01*
G37*
%TD*%
%TO.C,C20*%
G36*
G01*
X150648750Y-86760000D02*
X151611250Y-86760000D01*
G75*
G02*
X151880000Y-87028750I0J-268750D01*
G01*
X151880000Y-87566250D01*
G75*
G02*
X151611250Y-87835000I-268750J0D01*
G01*
X150648750Y-87835000D01*
G75*
G02*
X150380000Y-87566250I0J268750D01*
G01*
X150380000Y-87028750D01*
G75*
G02*
X150648750Y-86760000I268750J0D01*
G01*
G37*
G36*
G01*
X150648750Y-84885000D02*
X151611250Y-84885000D01*
G75*
G02*
X151880000Y-85153750I0J-268750D01*
G01*
X151880000Y-85691250D01*
G75*
G02*
X151611250Y-85960000I-268750J0D01*
G01*
X150648750Y-85960000D01*
G75*
G02*
X150380000Y-85691250I0J268750D01*
G01*
X150380000Y-85153750D01*
G75*
G02*
X150648750Y-84885000I268750J0D01*
G01*
G37*
%TD*%
D15*
%TO.C,BZ1*%
X119400000Y-97790000D03*
D16*
X127000000Y-97790000D03*
%TD*%
D12*
%TO.C,Y1*%
X135890000Y-75130000D03*
X135890000Y-80010000D03*
%TD*%
%TO.C,C14*%
G36*
G01*
X120250000Y-52858750D02*
X120250000Y-53821250D01*
G75*
G02*
X119981250Y-54090000I-268750J0D01*
G01*
X119443750Y-54090000D01*
G75*
G02*
X119175000Y-53821250I0J268750D01*
G01*
X119175000Y-52858750D01*
G75*
G02*
X119443750Y-52590000I268750J0D01*
G01*
X119981250Y-52590000D01*
G75*
G02*
X120250000Y-52858750I0J-268750D01*
G01*
G37*
G36*
G01*
X122125000Y-52858750D02*
X122125000Y-53821250D01*
G75*
G02*
X121856250Y-54090000I-268750J0D01*
G01*
X121318750Y-54090000D01*
G75*
G02*
X121050000Y-53821250I0J268750D01*
G01*
X121050000Y-52858750D01*
G75*
G02*
X121318750Y-52590000I268750J0D01*
G01*
X121856250Y-52590000D01*
G75*
G02*
X122125000Y-52858750I0J-268750D01*
G01*
G37*
%TD*%
D13*
%TO.C,J6*%
X161925000Y-52705000D03*
D14*
X159385000Y-52705000D03*
%TD*%
D13*
%TO.C,J5*%
X154305000Y-52705000D03*
D14*
X151765000Y-52705000D03*
%TD*%
%TO.C,J4*%
G36*
G01*
X99845294Y-66940000D02*
X98274706Y-66940000D01*
G75*
G02*
X98010000Y-66675294I0J264706D01*
G01*
X98010000Y-65404706D01*
G75*
G02*
X98274706Y-65140000I264706J0D01*
G01*
X99845294Y-65140000D01*
G75*
G02*
X100110000Y-65404706I0J-264706D01*
G01*
X100110000Y-66675294D01*
G75*
G02*
X99845294Y-66940000I-264706J0D01*
G01*
G37*
D17*
X99060000Y-63540000D03*
D11*
X97060000Y-67640000D03*
%TD*%
D18*
%TO.C,D1*%
X106680000Y-66040000D03*
X104180000Y-66040000D03*
%TD*%
%TO.C,C8*%
G36*
G01*
X145261250Y-66577500D02*
X144298750Y-66577500D01*
G75*
G02*
X144030000Y-66308750I0J268750D01*
G01*
X144030000Y-65771250D01*
G75*
G02*
X144298750Y-65502500I268750J0D01*
G01*
X145261250Y-65502500D01*
G75*
G02*
X145530000Y-65771250I0J-268750D01*
G01*
X145530000Y-66308750D01*
G75*
G02*
X145261250Y-66577500I-268750J0D01*
G01*
G37*
G36*
G01*
X145261250Y-68452500D02*
X144298750Y-68452500D01*
G75*
G02*
X144030000Y-68183750I0J268750D01*
G01*
X144030000Y-67646250D01*
G75*
G02*
X144298750Y-67377500I268750J0D01*
G01*
X145261250Y-67377500D01*
G75*
G02*
X145530000Y-67646250I0J-268750D01*
G01*
X145530000Y-68183750D01*
G75*
G02*
X145261250Y-68452500I-268750J0D01*
G01*
G37*
%TD*%
%TO.C,C7*%
G36*
G01*
X157326250Y-66577500D02*
X156363750Y-66577500D01*
G75*
G02*
X156095000Y-66308750I0J268750D01*
G01*
X156095000Y-65771250D01*
G75*
G02*
X156363750Y-65502500I268750J0D01*
G01*
X157326250Y-65502500D01*
G75*
G02*
X157595000Y-65771250I0J-268750D01*
G01*
X157595000Y-66308750D01*
G75*
G02*
X157326250Y-66577500I-268750J0D01*
G01*
G37*
G36*
G01*
X157326250Y-68452500D02*
X156363750Y-68452500D01*
G75*
G02*
X156095000Y-68183750I0J268750D01*
G01*
X156095000Y-67646250D01*
G75*
G02*
X156363750Y-67377500I268750J0D01*
G01*
X157326250Y-67377500D01*
G75*
G02*
X157595000Y-67646250I0J-268750D01*
G01*
X157595000Y-68183750D01*
G75*
G02*
X157326250Y-68452500I-268750J0D01*
G01*
G37*
%TD*%
%TO.C,C6*%
G36*
G01*
X142721250Y-66577500D02*
X141758750Y-66577500D01*
G75*
G02*
X141490000Y-66308750I0J268750D01*
G01*
X141490000Y-65771250D01*
G75*
G02*
X141758750Y-65502500I268750J0D01*
G01*
X142721250Y-65502500D01*
G75*
G02*
X142990000Y-65771250I0J-268750D01*
G01*
X142990000Y-66308750D01*
G75*
G02*
X142721250Y-66577500I-268750J0D01*
G01*
G37*
G36*
G01*
X142721250Y-68452500D02*
X141758750Y-68452500D01*
G75*
G02*
X141490000Y-68183750I0J268750D01*
G01*
X141490000Y-67646250D01*
G75*
G02*
X141758750Y-67377500I268750J0D01*
G01*
X142721250Y-67377500D01*
G75*
G02*
X142990000Y-67646250I0J-268750D01*
G01*
X142990000Y-68183750D01*
G75*
G02*
X142721250Y-68452500I-268750J0D01*
G01*
G37*
%TD*%
%TO.C,C5*%
G36*
G01*
X154786250Y-66577500D02*
X153823750Y-66577500D01*
G75*
G02*
X153555000Y-66308750I0J268750D01*
G01*
X153555000Y-65771250D01*
G75*
G02*
X153823750Y-65502500I268750J0D01*
G01*
X154786250Y-65502500D01*
G75*
G02*
X155055000Y-65771250I0J-268750D01*
G01*
X155055000Y-66308750D01*
G75*
G02*
X154786250Y-66577500I-268750J0D01*
G01*
G37*
G36*
G01*
X154786250Y-68452500D02*
X153823750Y-68452500D01*
G75*
G02*
X153555000Y-68183750I0J268750D01*
G01*
X153555000Y-67646250D01*
G75*
G02*
X153823750Y-67377500I268750J0D01*
G01*
X154786250Y-67377500D01*
G75*
G02*
X155055000Y-67646250I0J-268750D01*
G01*
X155055000Y-68183750D01*
G75*
G02*
X154786250Y-68452500I-268750J0D01*
G01*
G37*
%TD*%
%TO.C,C4*%
G36*
G01*
X139218750Y-67377500D02*
X140181250Y-67377500D01*
G75*
G02*
X140450000Y-67646250I0J-268750D01*
G01*
X140450000Y-68183750D01*
G75*
G02*
X140181250Y-68452500I-268750J0D01*
G01*
X139218750Y-68452500D01*
G75*
G02*
X138950000Y-68183750I0J268750D01*
G01*
X138950000Y-67646250D01*
G75*
G02*
X139218750Y-67377500I268750J0D01*
G01*
G37*
G36*
G01*
X139218750Y-65502500D02*
X140181250Y-65502500D01*
G75*
G02*
X140450000Y-65771250I0J-268750D01*
G01*
X140450000Y-66308750D01*
G75*
G02*
X140181250Y-66577500I-268750J0D01*
G01*
X139218750Y-66577500D01*
G75*
G02*
X138950000Y-66308750I0J268750D01*
G01*
X138950000Y-65771250D01*
G75*
G02*
X139218750Y-65502500I268750J0D01*
G01*
G37*
%TD*%
%TO.C,C3*%
G36*
G01*
X151283750Y-67377500D02*
X152246250Y-67377500D01*
G75*
G02*
X152515000Y-67646250I0J-268750D01*
G01*
X152515000Y-68183750D01*
G75*
G02*
X152246250Y-68452500I-268750J0D01*
G01*
X151283750Y-68452500D01*
G75*
G02*
X151015000Y-68183750I0J268750D01*
G01*
X151015000Y-67646250D01*
G75*
G02*
X151283750Y-67377500I268750J0D01*
G01*
G37*
G36*
G01*
X151283750Y-65502500D02*
X152246250Y-65502500D01*
G75*
G02*
X152515000Y-65771250I0J-268750D01*
G01*
X152515000Y-66308750D01*
G75*
G02*
X152246250Y-66577500I-268750J0D01*
G01*
X151283750Y-66577500D01*
G75*
G02*
X151015000Y-66308750I0J268750D01*
G01*
X151015000Y-65771250D01*
G75*
G02*
X151283750Y-65502500I268750J0D01*
G01*
G37*
%TD*%
%TO.C,C2*%
G36*
G01*
X136678750Y-67377500D02*
X137641250Y-67377500D01*
G75*
G02*
X137910000Y-67646250I0J-268750D01*
G01*
X137910000Y-68183750D01*
G75*
G02*
X137641250Y-68452500I-268750J0D01*
G01*
X136678750Y-68452500D01*
G75*
G02*
X136410000Y-68183750I0J268750D01*
G01*
X136410000Y-67646250D01*
G75*
G02*
X136678750Y-67377500I268750J0D01*
G01*
G37*
G36*
G01*
X136678750Y-65502500D02*
X137641250Y-65502500D01*
G75*
G02*
X137910000Y-65771250I0J-268750D01*
G01*
X137910000Y-66308750D01*
G75*
G02*
X137641250Y-66577500I-268750J0D01*
G01*
X136678750Y-66577500D01*
G75*
G02*
X136410000Y-66308750I0J268750D01*
G01*
X136410000Y-65771250D01*
G75*
G02*
X136678750Y-65502500I268750J0D01*
G01*
G37*
%TD*%
%TO.C,C1*%
G36*
G01*
X148743750Y-67377500D02*
X149706250Y-67377500D01*
G75*
G02*
X149975000Y-67646250I0J-268750D01*
G01*
X149975000Y-68183750D01*
G75*
G02*
X149706250Y-68452500I-268750J0D01*
G01*
X148743750Y-68452500D01*
G75*
G02*
X148475000Y-68183750I0J268750D01*
G01*
X148475000Y-67646250D01*
G75*
G02*
X148743750Y-67377500I268750J0D01*
G01*
G37*
G36*
G01*
X148743750Y-65502500D02*
X149706250Y-65502500D01*
G75*
G02*
X149975000Y-65771250I0J-268750D01*
G01*
X149975000Y-66308750D01*
G75*
G02*
X149706250Y-66577500I-268750J0D01*
G01*
X148743750Y-66577500D01*
G75*
G02*
X148475000Y-66308750I0J268750D01*
G01*
X148475000Y-65771250D01*
G75*
G02*
X148743750Y-65502500I268750J0D01*
G01*
G37*
%TD*%
D19*
%TO.C,U3*%
X143270000Y-62815000D03*
X138670000Y-62815000D03*
X140970000Y-62815000D03*
D20*
X140970000Y-56515000D03*
%TD*%
D19*
%TO.C,U2*%
X155335000Y-62815000D03*
X150735000Y-62815000D03*
X153035000Y-62815000D03*
D20*
X153035000Y-56515000D03*
%TD*%
D21*
%TO.C,J2*%
X179990000Y-53075000D03*
X167950000Y-53075000D03*
D22*
X172720000Y-55785000D03*
X175220000Y-55785000D03*
X175220000Y-57785000D03*
D14*
X172720000Y-57785000D03*
%TD*%
D23*
%TO.C,J1*%
X116825000Y-55880000D03*
X119325000Y-55880000D03*
X121325000Y-55880000D03*
D24*
X123825000Y-55880000D03*
D25*
X113755000Y-53170000D03*
X126895000Y-53170000D03*
%TD*%
D26*
%TO.C,H4*%
X191770000Y-107950000D03*
%TD*%
%TO.C,H3*%
X191770000Y-54610000D03*
%TD*%
%TO.C,H2*%
X99060000Y-107950000D03*
%TD*%
%TO.C,H1*%
X99060000Y-54610000D03*
%TD*%
M02*
