M48
; DRILL file {KiCad (5.1.6)-1} date 07/30/21 14:45:49
; FORMAT={-:-/ absolute / inch / decimal}
; #@! TF.CreationDate,2021-07-30T14:45:49+05:30
; #@! TF.GenerationSoftware,Kicad,Pcbnew,(5.1.6)-1
; #@! TF.FileFunction,Plated,1,4,PTH
FMAT,2
INCH
T1C0.0157
T2C0.0315
T3C0.0362
T4C0.0374
T5C0.0394
T6C0.0906
T7C0.0917
%
G90
G05
T1
X4.55Y-2.35
X4.6Y-3.4
X4.65Y-3.15
X4.7Y-3.15
X4.75Y-4.05
X4.8Y-3.2
X4.8Y-4.2
X5.1Y-3.25
X5.15Y-3.0
X5.25Y-3.0
X5.3Y-2.55
X5.45Y-3.55
X5.5Y-3.55
X5.55Y-2.225
X5.55Y-3.55
X5.55Y-3.9
X5.6Y-2.6
X5.6Y-3.55
X5.6Y-3.8
X5.65Y-2.45
X5.65Y-2.95
X5.65Y-3.55
X5.65Y-3.7
X5.65Y-3.75
X5.7Y-3.35
X5.7Y-3.4
X5.7Y-4.1
X5.75Y-3.85
X5.75Y-4.0
X5.75Y-4.15
X5.85Y-2.5
X5.9Y-3.5307
X5.9Y-3.6
X5.95Y-3.35
X5.95Y-3.45
X6.1Y-3.6
X6.25Y-3.6
X6.25Y-3.65
X6.2619Y-3.7119
X6.3323Y-3.9677
X6.35Y-4.2
X6.4Y-3.9
X6.4Y-4.0
X6.45Y-2.7
X6.5Y-3.9
X6.6Y-2.6
X6.6Y-3.15
X6.6Y-4.25
X6.7Y-3.25
X6.74Y-2.5662
X6.75Y-2.7
X6.81Y-2.64
X6.85Y-3.15
X6.9Y-2.9
X6.9Y-3.15
X6.905Y-2.645
X7.05Y-2.75
X7.05Y-2.95
X7.2Y-3.05
X7.25Y-3.2
T2
X6.0079Y-4.1
X6.2Y-4.1
X5.35Y-2.9579
X5.35Y-3.15
T3
X6.8Y-2.1963
X6.8Y-2.275
X6.8984Y-2.1963
X6.8984Y-2.275
T4
X3.9Y-2.9642
X3.9Y-3.0626
X3.9Y-3.161
X3.9Y-3.2594
X3.9Y-3.3579
X3.9Y-3.4563
X3.9Y-3.5547
X3.9Y-3.6531
X3.9Y-3.7516
X3.9Y-3.85
X7.55Y-2.9579
X7.55Y-3.0563
X7.55Y-3.1547
X7.55Y-3.2531
X7.55Y-3.3516
X7.55Y-3.45
X7.55Y-3.5484
X7.55Y-3.6469
X7.55Y-3.7453
X7.55Y-3.8437
X4.5994Y-2.2
X4.6978Y-2.2
X4.7766Y-2.2
X4.875Y-2.2
T5
X4.7008Y-3.85
X5.0Y-3.85
X6.9Y-4.3
X7.0Y-4.3
X7.1Y-4.3
X7.2Y-4.3
X4.6Y-4.3
X4.7Y-4.3
X4.8Y-4.3
X4.9Y-4.3
X5.975Y-2.075
X6.075Y-2.075
X5.3Y-4.2
X5.3Y-4.3
X5.4Y-4.2
X5.4Y-4.3
X5.5Y-4.2
X5.5Y-4.3
X3.9Y-2.5016
X3.9Y-2.6
X6.275Y-2.075
X6.375Y-2.075
T6
X4.4785Y-2.0933
X4.9959Y-2.0933
T7
X6.6122Y-2.0896
X7.0862Y-2.0896
T0
M30
