%TF.GenerationSoftware,KiCad,Pcbnew,(5.1.6)-1*%
%TF.CreationDate,2021-07-30T14:46:14+05:30*%
%TF.ProjectId,StockPile_Final,53746f63-6b50-4696-9c65-5f46696e616c,rev?*%
%TF.SameCoordinates,Original*%
%TF.FileFunction,Legend,Bot*%
%TF.FilePolarity,Positive*%
%FSLAX46Y46*%
G04 Gerber Fmt 4.6, Leading zero omitted, Abs format (unit mm)*
G04 Created by KiCad (PCBNEW (5.1.6)-1) date 2021-07-30 14:46:14*
%MOMM*%
%LPD*%
G01*
G04 APERTURE LIST*
%ADD10C,0.120000*%
%ADD11C,0.150000*%
G04 APERTURE END LIST*
D10*
%TO.C,C26*%
X150420000Y-93906078D02*
X150420000Y-93388922D01*
X151840000Y-93906078D02*
X151840000Y-93388922D01*
%TO.C,C25*%
X155500000Y-93906078D02*
X155500000Y-93388922D01*
X156920000Y-93906078D02*
X156920000Y-93388922D01*
%TO.C,C24*%
X158040000Y-93906078D02*
X158040000Y-93388922D01*
X159460000Y-93906078D02*
X159460000Y-93388922D01*
%TO.C,C23*%
X152960000Y-93906078D02*
X152960000Y-93388922D01*
X154380000Y-93906078D02*
X154380000Y-93388922D01*
%TO.C,C20*%
X151840000Y-86101422D02*
X151840000Y-86618578D01*
X150420000Y-86101422D02*
X150420000Y-86618578D01*
%TO.C,C14*%
X120908578Y-54050000D02*
X120391422Y-54050000D01*
X120908578Y-52630000D02*
X120391422Y-52630000D01*
%TO.C,J4*%
X101520000Y-68600000D02*
X95550000Y-68600000D01*
X95550000Y-68600000D02*
X95550000Y-60980000D01*
X95550000Y-60980000D02*
X101520000Y-60980000D01*
X101520000Y-60980000D02*
X101520000Y-68600000D01*
X101510000Y-65290000D02*
X100760000Y-65290000D01*
X100760000Y-65290000D02*
X100760000Y-64290000D01*
X100760000Y-64290000D02*
X101510000Y-64290000D01*
X101510000Y-64290000D02*
X101510000Y-65290000D01*
X101510000Y-68590000D02*
X100760000Y-68590000D01*
X100760000Y-68590000D02*
X100760000Y-66790000D01*
X100760000Y-66790000D02*
X101510000Y-66790000D01*
X101510000Y-66790000D02*
X101510000Y-68590000D01*
X101510000Y-62790000D02*
X100760000Y-62790000D01*
X100760000Y-62790000D02*
X100760000Y-60990000D01*
X100760000Y-60990000D02*
X101510000Y-60990000D01*
X101510000Y-60990000D02*
X101510000Y-62790000D01*
X99260000Y-68590000D02*
X99260000Y-67840000D01*
X99260000Y-67840000D02*
X97920000Y-67840000D01*
X96310000Y-64790000D02*
X96310000Y-66780000D01*
X99260000Y-60990000D02*
X99260000Y-61740000D01*
X99260000Y-61740000D02*
X96310000Y-61740000D01*
X96310000Y-61740000D02*
X96310000Y-64790000D01*
X101810000Y-67640000D02*
X101810000Y-68890000D01*
X101810000Y-68890000D02*
X100560000Y-68890000D01*
%TO.C,D1*%
X103530000Y-66890000D02*
X106680000Y-66890000D01*
X103530000Y-65190000D02*
X106680000Y-65190000D01*
X103530000Y-66890000D02*
X103530000Y-65190000D01*
%TO.C,C8*%
X144070000Y-67236078D02*
X144070000Y-66718922D01*
X145490000Y-67236078D02*
X145490000Y-66718922D01*
%TO.C,C7*%
X156135000Y-67236078D02*
X156135000Y-66718922D01*
X157555000Y-67236078D02*
X157555000Y-66718922D01*
%TO.C,C6*%
X141530000Y-67236078D02*
X141530000Y-66718922D01*
X142950000Y-67236078D02*
X142950000Y-66718922D01*
%TO.C,C5*%
X153595000Y-67236078D02*
X153595000Y-66718922D01*
X155015000Y-67236078D02*
X155015000Y-66718922D01*
%TO.C,C4*%
X140410000Y-66718922D02*
X140410000Y-67236078D01*
X138990000Y-66718922D02*
X138990000Y-67236078D01*
%TO.C,C3*%
X152475000Y-66718922D02*
X152475000Y-67236078D01*
X151055000Y-66718922D02*
X151055000Y-67236078D01*
%TO.C,C2*%
X137870000Y-66718922D02*
X137870000Y-67236078D01*
X136450000Y-66718922D02*
X136450000Y-67236078D01*
%TO.C,C1*%
X149935000Y-66718922D02*
X149935000Y-67236078D01*
X148515000Y-66718922D02*
X148515000Y-67236078D01*
%TO.C,U3*%
X137560000Y-57755000D02*
X138820000Y-57755000D01*
X144380000Y-57755000D02*
X143120000Y-57755000D01*
X137560000Y-61515000D02*
X137560000Y-57755000D01*
X144380000Y-63765000D02*
X144380000Y-57755000D01*
%TO.C,U2*%
X149625000Y-57755000D02*
X150885000Y-57755000D01*
X156445000Y-57755000D02*
X155185000Y-57755000D01*
X149625000Y-61515000D02*
X149625000Y-57755000D01*
X156445000Y-63765000D02*
X156445000Y-57755000D01*
%TO.C,C26*%
D11*
X151487142Y-89527142D02*
X151534761Y-89479523D01*
X151582380Y-89336666D01*
X151582380Y-89241428D01*
X151534761Y-89098571D01*
X151439523Y-89003333D01*
X151344285Y-88955714D01*
X151153809Y-88908095D01*
X151010952Y-88908095D01*
X150820476Y-88955714D01*
X150725238Y-89003333D01*
X150630000Y-89098571D01*
X150582380Y-89241428D01*
X150582380Y-89336666D01*
X150630000Y-89479523D01*
X150677619Y-89527142D01*
X150677619Y-89908095D02*
X150630000Y-89955714D01*
X150582380Y-90050952D01*
X150582380Y-90289047D01*
X150630000Y-90384285D01*
X150677619Y-90431904D01*
X150772857Y-90479523D01*
X150868095Y-90479523D01*
X151010952Y-90431904D01*
X151582380Y-89860476D01*
X151582380Y-90479523D01*
X150582380Y-91336666D02*
X150582380Y-91146190D01*
X150630000Y-91050952D01*
X150677619Y-91003333D01*
X150820476Y-90908095D01*
X151010952Y-90860476D01*
X151391904Y-90860476D01*
X151487142Y-90908095D01*
X151534761Y-90955714D01*
X151582380Y-91050952D01*
X151582380Y-91241428D01*
X151534761Y-91336666D01*
X151487142Y-91384285D01*
X151391904Y-91431904D01*
X151153809Y-91431904D01*
X151058571Y-91384285D01*
X151010952Y-91336666D01*
X150963333Y-91241428D01*
X150963333Y-91050952D01*
X151010952Y-90955714D01*
X151058571Y-90908095D01*
X151153809Y-90860476D01*
%TO.C,C25*%
X156567142Y-89527142D02*
X156614761Y-89479523D01*
X156662380Y-89336666D01*
X156662380Y-89241428D01*
X156614761Y-89098571D01*
X156519523Y-89003333D01*
X156424285Y-88955714D01*
X156233809Y-88908095D01*
X156090952Y-88908095D01*
X155900476Y-88955714D01*
X155805238Y-89003333D01*
X155710000Y-89098571D01*
X155662380Y-89241428D01*
X155662380Y-89336666D01*
X155710000Y-89479523D01*
X155757619Y-89527142D01*
X155757619Y-89908095D02*
X155710000Y-89955714D01*
X155662380Y-90050952D01*
X155662380Y-90289047D01*
X155710000Y-90384285D01*
X155757619Y-90431904D01*
X155852857Y-90479523D01*
X155948095Y-90479523D01*
X156090952Y-90431904D01*
X156662380Y-89860476D01*
X156662380Y-90479523D01*
X155662380Y-91384285D02*
X155662380Y-90908095D01*
X156138571Y-90860476D01*
X156090952Y-90908095D01*
X156043333Y-91003333D01*
X156043333Y-91241428D01*
X156090952Y-91336666D01*
X156138571Y-91384285D01*
X156233809Y-91431904D01*
X156471904Y-91431904D01*
X156567142Y-91384285D01*
X156614761Y-91336666D01*
X156662380Y-91241428D01*
X156662380Y-91003333D01*
X156614761Y-90908095D01*
X156567142Y-90860476D01*
%TO.C,C24*%
X159107142Y-89527142D02*
X159154761Y-89479523D01*
X159202380Y-89336666D01*
X159202380Y-89241428D01*
X159154761Y-89098571D01*
X159059523Y-89003333D01*
X158964285Y-88955714D01*
X158773809Y-88908095D01*
X158630952Y-88908095D01*
X158440476Y-88955714D01*
X158345238Y-89003333D01*
X158250000Y-89098571D01*
X158202380Y-89241428D01*
X158202380Y-89336666D01*
X158250000Y-89479523D01*
X158297619Y-89527142D01*
X158297619Y-89908095D02*
X158250000Y-89955714D01*
X158202380Y-90050952D01*
X158202380Y-90289047D01*
X158250000Y-90384285D01*
X158297619Y-90431904D01*
X158392857Y-90479523D01*
X158488095Y-90479523D01*
X158630952Y-90431904D01*
X159202380Y-89860476D01*
X159202380Y-90479523D01*
X158535714Y-91336666D02*
X159202380Y-91336666D01*
X158154761Y-91098571D02*
X158869047Y-90860476D01*
X158869047Y-91479523D01*
%TO.C,C23*%
X154027142Y-89527142D02*
X154074761Y-89479523D01*
X154122380Y-89336666D01*
X154122380Y-89241428D01*
X154074761Y-89098571D01*
X153979523Y-89003333D01*
X153884285Y-88955714D01*
X153693809Y-88908095D01*
X153550952Y-88908095D01*
X153360476Y-88955714D01*
X153265238Y-89003333D01*
X153170000Y-89098571D01*
X153122380Y-89241428D01*
X153122380Y-89336666D01*
X153170000Y-89479523D01*
X153217619Y-89527142D01*
X153217619Y-89908095D02*
X153170000Y-89955714D01*
X153122380Y-90050952D01*
X153122380Y-90289047D01*
X153170000Y-90384285D01*
X153217619Y-90431904D01*
X153312857Y-90479523D01*
X153408095Y-90479523D01*
X153550952Y-90431904D01*
X154122380Y-89860476D01*
X154122380Y-90479523D01*
X153122380Y-90812857D02*
X153122380Y-91431904D01*
X153503333Y-91098571D01*
X153503333Y-91241428D01*
X153550952Y-91336666D01*
X153598571Y-91384285D01*
X153693809Y-91431904D01*
X153931904Y-91431904D01*
X154027142Y-91384285D01*
X154074761Y-91336666D01*
X154122380Y-91241428D01*
X154122380Y-90955714D01*
X154074761Y-90860476D01*
X154027142Y-90812857D01*
%TO.C,C20*%
X149837142Y-85717142D02*
X149884761Y-85669523D01*
X149932380Y-85526666D01*
X149932380Y-85431428D01*
X149884761Y-85288571D01*
X149789523Y-85193333D01*
X149694285Y-85145714D01*
X149503809Y-85098095D01*
X149360952Y-85098095D01*
X149170476Y-85145714D01*
X149075238Y-85193333D01*
X148980000Y-85288571D01*
X148932380Y-85431428D01*
X148932380Y-85526666D01*
X148980000Y-85669523D01*
X149027619Y-85717142D01*
X149027619Y-86098095D02*
X148980000Y-86145714D01*
X148932380Y-86240952D01*
X148932380Y-86479047D01*
X148980000Y-86574285D01*
X149027619Y-86621904D01*
X149122857Y-86669523D01*
X149218095Y-86669523D01*
X149360952Y-86621904D01*
X149932380Y-86050476D01*
X149932380Y-86669523D01*
X148932380Y-87288571D02*
X148932380Y-87383809D01*
X148980000Y-87479047D01*
X149027619Y-87526666D01*
X149122857Y-87574285D01*
X149313333Y-87621904D01*
X149551428Y-87621904D01*
X149741904Y-87574285D01*
X149837142Y-87526666D01*
X149884761Y-87479047D01*
X149932380Y-87383809D01*
X149932380Y-87288571D01*
X149884761Y-87193333D01*
X149837142Y-87145714D01*
X149741904Y-87098095D01*
X149551428Y-87050476D01*
X149313333Y-87050476D01*
X149122857Y-87098095D01*
X149027619Y-87145714D01*
X148980000Y-87193333D01*
X148932380Y-87288571D01*
%TO.C,C14*%
X121292857Y-52047142D02*
X121340476Y-52094761D01*
X121483333Y-52142380D01*
X121578571Y-52142380D01*
X121721428Y-52094761D01*
X121816666Y-51999523D01*
X121864285Y-51904285D01*
X121911904Y-51713809D01*
X121911904Y-51570952D01*
X121864285Y-51380476D01*
X121816666Y-51285238D01*
X121721428Y-51190000D01*
X121578571Y-51142380D01*
X121483333Y-51142380D01*
X121340476Y-51190000D01*
X121292857Y-51237619D01*
X120340476Y-52142380D02*
X120911904Y-52142380D01*
X120626190Y-52142380D02*
X120626190Y-51142380D01*
X120721428Y-51285238D01*
X120816666Y-51380476D01*
X120911904Y-51428095D01*
X119483333Y-51475714D02*
X119483333Y-52142380D01*
X119721428Y-51094761D02*
X119959523Y-51809047D01*
X119340476Y-51809047D01*
%TO.C,J4*%
X102062380Y-64456666D02*
X102776666Y-64456666D01*
X102919523Y-64409047D01*
X103014761Y-64313809D01*
X103062380Y-64170952D01*
X103062380Y-64075714D01*
X102395714Y-65361428D02*
X103062380Y-65361428D01*
X102014761Y-65123333D02*
X102729047Y-64885238D01*
X102729047Y-65504285D01*
%TO.C,D1*%
X106168095Y-68342380D02*
X106168095Y-67342380D01*
X105930000Y-67342380D01*
X105787142Y-67390000D01*
X105691904Y-67485238D01*
X105644285Y-67580476D01*
X105596666Y-67770952D01*
X105596666Y-67913809D01*
X105644285Y-68104285D01*
X105691904Y-68199523D01*
X105787142Y-68294761D01*
X105930000Y-68342380D01*
X106168095Y-68342380D01*
X104644285Y-68342380D02*
X105215714Y-68342380D01*
X104930000Y-68342380D02*
X104930000Y-67342380D01*
X105025238Y-67485238D01*
X105120476Y-67580476D01*
X105215714Y-67628095D01*
%TO.C,C8*%
X145137142Y-69683333D02*
X145184761Y-69635714D01*
X145232380Y-69492857D01*
X145232380Y-69397619D01*
X145184761Y-69254761D01*
X145089523Y-69159523D01*
X144994285Y-69111904D01*
X144803809Y-69064285D01*
X144660952Y-69064285D01*
X144470476Y-69111904D01*
X144375238Y-69159523D01*
X144280000Y-69254761D01*
X144232380Y-69397619D01*
X144232380Y-69492857D01*
X144280000Y-69635714D01*
X144327619Y-69683333D01*
X144660952Y-70254761D02*
X144613333Y-70159523D01*
X144565714Y-70111904D01*
X144470476Y-70064285D01*
X144422857Y-70064285D01*
X144327619Y-70111904D01*
X144280000Y-70159523D01*
X144232380Y-70254761D01*
X144232380Y-70445238D01*
X144280000Y-70540476D01*
X144327619Y-70588095D01*
X144422857Y-70635714D01*
X144470476Y-70635714D01*
X144565714Y-70588095D01*
X144613333Y-70540476D01*
X144660952Y-70445238D01*
X144660952Y-70254761D01*
X144708571Y-70159523D01*
X144756190Y-70111904D01*
X144851428Y-70064285D01*
X145041904Y-70064285D01*
X145137142Y-70111904D01*
X145184761Y-70159523D01*
X145232380Y-70254761D01*
X145232380Y-70445238D01*
X145184761Y-70540476D01*
X145137142Y-70588095D01*
X145041904Y-70635714D01*
X144851428Y-70635714D01*
X144756190Y-70588095D01*
X144708571Y-70540476D01*
X144660952Y-70445238D01*
%TO.C,C7*%
X157202142Y-69683333D02*
X157249761Y-69635714D01*
X157297380Y-69492857D01*
X157297380Y-69397619D01*
X157249761Y-69254761D01*
X157154523Y-69159523D01*
X157059285Y-69111904D01*
X156868809Y-69064285D01*
X156725952Y-69064285D01*
X156535476Y-69111904D01*
X156440238Y-69159523D01*
X156345000Y-69254761D01*
X156297380Y-69397619D01*
X156297380Y-69492857D01*
X156345000Y-69635714D01*
X156392619Y-69683333D01*
X156297380Y-70016666D02*
X156297380Y-70683333D01*
X157297380Y-70254761D01*
%TO.C,C6*%
X142597142Y-69683333D02*
X142644761Y-69635714D01*
X142692380Y-69492857D01*
X142692380Y-69397619D01*
X142644761Y-69254761D01*
X142549523Y-69159523D01*
X142454285Y-69111904D01*
X142263809Y-69064285D01*
X142120952Y-69064285D01*
X141930476Y-69111904D01*
X141835238Y-69159523D01*
X141740000Y-69254761D01*
X141692380Y-69397619D01*
X141692380Y-69492857D01*
X141740000Y-69635714D01*
X141787619Y-69683333D01*
X141692380Y-70540476D02*
X141692380Y-70350000D01*
X141740000Y-70254761D01*
X141787619Y-70207142D01*
X141930476Y-70111904D01*
X142120952Y-70064285D01*
X142501904Y-70064285D01*
X142597142Y-70111904D01*
X142644761Y-70159523D01*
X142692380Y-70254761D01*
X142692380Y-70445238D01*
X142644761Y-70540476D01*
X142597142Y-70588095D01*
X142501904Y-70635714D01*
X142263809Y-70635714D01*
X142168571Y-70588095D01*
X142120952Y-70540476D01*
X142073333Y-70445238D01*
X142073333Y-70254761D01*
X142120952Y-70159523D01*
X142168571Y-70111904D01*
X142263809Y-70064285D01*
%TO.C,C5*%
X154662142Y-69683333D02*
X154709761Y-69635714D01*
X154757380Y-69492857D01*
X154757380Y-69397619D01*
X154709761Y-69254761D01*
X154614523Y-69159523D01*
X154519285Y-69111904D01*
X154328809Y-69064285D01*
X154185952Y-69064285D01*
X153995476Y-69111904D01*
X153900238Y-69159523D01*
X153805000Y-69254761D01*
X153757380Y-69397619D01*
X153757380Y-69492857D01*
X153805000Y-69635714D01*
X153852619Y-69683333D01*
X153757380Y-70588095D02*
X153757380Y-70111904D01*
X154233571Y-70064285D01*
X154185952Y-70111904D01*
X154138333Y-70207142D01*
X154138333Y-70445238D01*
X154185952Y-70540476D01*
X154233571Y-70588095D01*
X154328809Y-70635714D01*
X154566904Y-70635714D01*
X154662142Y-70588095D01*
X154709761Y-70540476D01*
X154757380Y-70445238D01*
X154757380Y-70207142D01*
X154709761Y-70111904D01*
X154662142Y-70064285D01*
%TO.C,C4*%
X140057142Y-69653333D02*
X140104761Y-69605714D01*
X140152380Y-69462857D01*
X140152380Y-69367619D01*
X140104761Y-69224761D01*
X140009523Y-69129523D01*
X139914285Y-69081904D01*
X139723809Y-69034285D01*
X139580952Y-69034285D01*
X139390476Y-69081904D01*
X139295238Y-69129523D01*
X139200000Y-69224761D01*
X139152380Y-69367619D01*
X139152380Y-69462857D01*
X139200000Y-69605714D01*
X139247619Y-69653333D01*
X139485714Y-70510476D02*
X140152380Y-70510476D01*
X139104761Y-70272380D02*
X139819047Y-70034285D01*
X139819047Y-70653333D01*
%TO.C,C3*%
X152122142Y-69653333D02*
X152169761Y-69605714D01*
X152217380Y-69462857D01*
X152217380Y-69367619D01*
X152169761Y-69224761D01*
X152074523Y-69129523D01*
X151979285Y-69081904D01*
X151788809Y-69034285D01*
X151645952Y-69034285D01*
X151455476Y-69081904D01*
X151360238Y-69129523D01*
X151265000Y-69224761D01*
X151217380Y-69367619D01*
X151217380Y-69462857D01*
X151265000Y-69605714D01*
X151312619Y-69653333D01*
X151217380Y-69986666D02*
X151217380Y-70605714D01*
X151598333Y-70272380D01*
X151598333Y-70415238D01*
X151645952Y-70510476D01*
X151693571Y-70558095D01*
X151788809Y-70605714D01*
X152026904Y-70605714D01*
X152122142Y-70558095D01*
X152169761Y-70510476D01*
X152217380Y-70415238D01*
X152217380Y-70129523D01*
X152169761Y-70034285D01*
X152122142Y-69986666D01*
%TO.C,C2*%
X137517142Y-69653333D02*
X137564761Y-69605714D01*
X137612380Y-69462857D01*
X137612380Y-69367619D01*
X137564761Y-69224761D01*
X137469523Y-69129523D01*
X137374285Y-69081904D01*
X137183809Y-69034285D01*
X137040952Y-69034285D01*
X136850476Y-69081904D01*
X136755238Y-69129523D01*
X136660000Y-69224761D01*
X136612380Y-69367619D01*
X136612380Y-69462857D01*
X136660000Y-69605714D01*
X136707619Y-69653333D01*
X136707619Y-70034285D02*
X136660000Y-70081904D01*
X136612380Y-70177142D01*
X136612380Y-70415238D01*
X136660000Y-70510476D01*
X136707619Y-70558095D01*
X136802857Y-70605714D01*
X136898095Y-70605714D01*
X137040952Y-70558095D01*
X137612380Y-69986666D01*
X137612380Y-70605714D01*
%TO.C,C1*%
X149279642Y-69653333D02*
X149327261Y-69605714D01*
X149374880Y-69462857D01*
X149374880Y-69367619D01*
X149327261Y-69224761D01*
X149232023Y-69129523D01*
X149136785Y-69081904D01*
X148946309Y-69034285D01*
X148803452Y-69034285D01*
X148612976Y-69081904D01*
X148517738Y-69129523D01*
X148422500Y-69224761D01*
X148374880Y-69367619D01*
X148374880Y-69462857D01*
X148422500Y-69605714D01*
X148470119Y-69653333D01*
X149374880Y-70605714D02*
X149374880Y-70034285D01*
X149374880Y-70320000D02*
X148374880Y-70320000D01*
X148517738Y-70224761D01*
X148612976Y-70129523D01*
X148660595Y-70034285D01*
%TO.C,U3*%
X144922380Y-58903095D02*
X145731904Y-58903095D01*
X145827142Y-58950714D01*
X145874761Y-58998333D01*
X145922380Y-59093571D01*
X145922380Y-59284047D01*
X145874761Y-59379285D01*
X145827142Y-59426904D01*
X145731904Y-59474523D01*
X144922380Y-59474523D01*
X144922380Y-59855476D02*
X144922380Y-60474523D01*
X145303333Y-60141190D01*
X145303333Y-60284047D01*
X145350952Y-60379285D01*
X145398571Y-60426904D01*
X145493809Y-60474523D01*
X145731904Y-60474523D01*
X145827142Y-60426904D01*
X145874761Y-60379285D01*
X145922380Y-60284047D01*
X145922380Y-59998333D01*
X145874761Y-59903095D01*
X145827142Y-59855476D01*
%TO.C,U2*%
X156987380Y-58903095D02*
X157796904Y-58903095D01*
X157892142Y-58950714D01*
X157939761Y-58998333D01*
X157987380Y-59093571D01*
X157987380Y-59284047D01*
X157939761Y-59379285D01*
X157892142Y-59426904D01*
X157796904Y-59474523D01*
X156987380Y-59474523D01*
X157082619Y-59903095D02*
X157035000Y-59950714D01*
X156987380Y-60045952D01*
X156987380Y-60284047D01*
X157035000Y-60379285D01*
X157082619Y-60426904D01*
X157177857Y-60474523D01*
X157273095Y-60474523D01*
X157415952Y-60426904D01*
X157987380Y-59855476D01*
X157987380Y-60474523D01*
%TD*%
M02*
