%TF.GenerationSoftware,KiCad,Pcbnew,(5.1.6)-1*%
%TF.CreationDate,2021-07-30T14:46:14+05:30*%
%TF.ProjectId,StockPile_Final,53746f63-6b50-4696-9c65-5f46696e616c,rev?*%
%TF.SameCoordinates,Original*%
%TF.FileFunction,Paste,Bot*%
%TF.FilePolarity,Positive*%
%FSLAX46Y46*%
G04 Gerber Fmt 4.6, Leading zero omitted, Abs format (unit mm)*
G04 Created by KiCad (PCBNEW (5.1.6)-1) date 2021-07-30 14:46:14*
%MOMM*%
%LPD*%
G01*
G04 APERTURE LIST*
%ADD10R,1.000000X1.000000*%
%ADD11R,1.500000X2.000000*%
%ADD12R,3.800000X2.000000*%
G04 APERTURE END LIST*
%TO.C,C26*%
G36*
G01*
X151586250Y-93197500D02*
X150673750Y-93197500D01*
G75*
G02*
X150430000Y-92953750I0J243750D01*
G01*
X150430000Y-92466250D01*
G75*
G02*
X150673750Y-92222500I243750J0D01*
G01*
X151586250Y-92222500D01*
G75*
G02*
X151830000Y-92466250I0J-243750D01*
G01*
X151830000Y-92953750D01*
G75*
G02*
X151586250Y-93197500I-243750J0D01*
G01*
G37*
G36*
G01*
X151586250Y-95072500D02*
X150673750Y-95072500D01*
G75*
G02*
X150430000Y-94828750I0J243750D01*
G01*
X150430000Y-94341250D01*
G75*
G02*
X150673750Y-94097500I243750J0D01*
G01*
X151586250Y-94097500D01*
G75*
G02*
X151830000Y-94341250I0J-243750D01*
G01*
X151830000Y-94828750D01*
G75*
G02*
X151586250Y-95072500I-243750J0D01*
G01*
G37*
%TD*%
%TO.C,C25*%
G36*
G01*
X156666250Y-93197500D02*
X155753750Y-93197500D01*
G75*
G02*
X155510000Y-92953750I0J243750D01*
G01*
X155510000Y-92466250D01*
G75*
G02*
X155753750Y-92222500I243750J0D01*
G01*
X156666250Y-92222500D01*
G75*
G02*
X156910000Y-92466250I0J-243750D01*
G01*
X156910000Y-92953750D01*
G75*
G02*
X156666250Y-93197500I-243750J0D01*
G01*
G37*
G36*
G01*
X156666250Y-95072500D02*
X155753750Y-95072500D01*
G75*
G02*
X155510000Y-94828750I0J243750D01*
G01*
X155510000Y-94341250D01*
G75*
G02*
X155753750Y-94097500I243750J0D01*
G01*
X156666250Y-94097500D01*
G75*
G02*
X156910000Y-94341250I0J-243750D01*
G01*
X156910000Y-94828750D01*
G75*
G02*
X156666250Y-95072500I-243750J0D01*
G01*
G37*
%TD*%
%TO.C,C24*%
G36*
G01*
X159206250Y-93197500D02*
X158293750Y-93197500D01*
G75*
G02*
X158050000Y-92953750I0J243750D01*
G01*
X158050000Y-92466250D01*
G75*
G02*
X158293750Y-92222500I243750J0D01*
G01*
X159206250Y-92222500D01*
G75*
G02*
X159450000Y-92466250I0J-243750D01*
G01*
X159450000Y-92953750D01*
G75*
G02*
X159206250Y-93197500I-243750J0D01*
G01*
G37*
G36*
G01*
X159206250Y-95072500D02*
X158293750Y-95072500D01*
G75*
G02*
X158050000Y-94828750I0J243750D01*
G01*
X158050000Y-94341250D01*
G75*
G02*
X158293750Y-94097500I243750J0D01*
G01*
X159206250Y-94097500D01*
G75*
G02*
X159450000Y-94341250I0J-243750D01*
G01*
X159450000Y-94828750D01*
G75*
G02*
X159206250Y-95072500I-243750J0D01*
G01*
G37*
%TD*%
%TO.C,C23*%
G36*
G01*
X154126250Y-93197500D02*
X153213750Y-93197500D01*
G75*
G02*
X152970000Y-92953750I0J243750D01*
G01*
X152970000Y-92466250D01*
G75*
G02*
X153213750Y-92222500I243750J0D01*
G01*
X154126250Y-92222500D01*
G75*
G02*
X154370000Y-92466250I0J-243750D01*
G01*
X154370000Y-92953750D01*
G75*
G02*
X154126250Y-93197500I-243750J0D01*
G01*
G37*
G36*
G01*
X154126250Y-95072500D02*
X153213750Y-95072500D01*
G75*
G02*
X152970000Y-94828750I0J243750D01*
G01*
X152970000Y-94341250D01*
G75*
G02*
X153213750Y-94097500I243750J0D01*
G01*
X154126250Y-94097500D01*
G75*
G02*
X154370000Y-94341250I0J-243750D01*
G01*
X154370000Y-94828750D01*
G75*
G02*
X154126250Y-95072500I-243750J0D01*
G01*
G37*
%TD*%
%TO.C,C20*%
G36*
G01*
X150673750Y-86810000D02*
X151586250Y-86810000D01*
G75*
G02*
X151830000Y-87053750I0J-243750D01*
G01*
X151830000Y-87541250D01*
G75*
G02*
X151586250Y-87785000I-243750J0D01*
G01*
X150673750Y-87785000D01*
G75*
G02*
X150430000Y-87541250I0J243750D01*
G01*
X150430000Y-87053750D01*
G75*
G02*
X150673750Y-86810000I243750J0D01*
G01*
G37*
G36*
G01*
X150673750Y-84935000D02*
X151586250Y-84935000D01*
G75*
G02*
X151830000Y-85178750I0J-243750D01*
G01*
X151830000Y-85666250D01*
G75*
G02*
X151586250Y-85910000I-243750J0D01*
G01*
X150673750Y-85910000D01*
G75*
G02*
X150430000Y-85666250I0J243750D01*
G01*
X150430000Y-85178750D01*
G75*
G02*
X150673750Y-84935000I243750J0D01*
G01*
G37*
%TD*%
%TO.C,C14*%
G36*
G01*
X120200000Y-52883750D02*
X120200000Y-53796250D01*
G75*
G02*
X119956250Y-54040000I-243750J0D01*
G01*
X119468750Y-54040000D01*
G75*
G02*
X119225000Y-53796250I0J243750D01*
G01*
X119225000Y-52883750D01*
G75*
G02*
X119468750Y-52640000I243750J0D01*
G01*
X119956250Y-52640000D01*
G75*
G02*
X120200000Y-52883750I0J-243750D01*
G01*
G37*
G36*
G01*
X122075000Y-52883750D02*
X122075000Y-53796250D01*
G75*
G02*
X121831250Y-54040000I-243750J0D01*
G01*
X121343750Y-54040000D01*
G75*
G02*
X121100000Y-53796250I0J243750D01*
G01*
X121100000Y-52883750D01*
G75*
G02*
X121343750Y-52640000I243750J0D01*
G01*
X121831250Y-52640000D01*
G75*
G02*
X122075000Y-52883750I0J-243750D01*
G01*
G37*
%TD*%
D10*
%TO.C,D1*%
X106680000Y-66040000D03*
X104180000Y-66040000D03*
%TD*%
%TO.C,C8*%
G36*
G01*
X145236250Y-66527500D02*
X144323750Y-66527500D01*
G75*
G02*
X144080000Y-66283750I0J243750D01*
G01*
X144080000Y-65796250D01*
G75*
G02*
X144323750Y-65552500I243750J0D01*
G01*
X145236250Y-65552500D01*
G75*
G02*
X145480000Y-65796250I0J-243750D01*
G01*
X145480000Y-66283750D01*
G75*
G02*
X145236250Y-66527500I-243750J0D01*
G01*
G37*
G36*
G01*
X145236250Y-68402500D02*
X144323750Y-68402500D01*
G75*
G02*
X144080000Y-68158750I0J243750D01*
G01*
X144080000Y-67671250D01*
G75*
G02*
X144323750Y-67427500I243750J0D01*
G01*
X145236250Y-67427500D01*
G75*
G02*
X145480000Y-67671250I0J-243750D01*
G01*
X145480000Y-68158750D01*
G75*
G02*
X145236250Y-68402500I-243750J0D01*
G01*
G37*
%TD*%
%TO.C,C7*%
G36*
G01*
X157301250Y-66527500D02*
X156388750Y-66527500D01*
G75*
G02*
X156145000Y-66283750I0J243750D01*
G01*
X156145000Y-65796250D01*
G75*
G02*
X156388750Y-65552500I243750J0D01*
G01*
X157301250Y-65552500D01*
G75*
G02*
X157545000Y-65796250I0J-243750D01*
G01*
X157545000Y-66283750D01*
G75*
G02*
X157301250Y-66527500I-243750J0D01*
G01*
G37*
G36*
G01*
X157301250Y-68402500D02*
X156388750Y-68402500D01*
G75*
G02*
X156145000Y-68158750I0J243750D01*
G01*
X156145000Y-67671250D01*
G75*
G02*
X156388750Y-67427500I243750J0D01*
G01*
X157301250Y-67427500D01*
G75*
G02*
X157545000Y-67671250I0J-243750D01*
G01*
X157545000Y-68158750D01*
G75*
G02*
X157301250Y-68402500I-243750J0D01*
G01*
G37*
%TD*%
%TO.C,C6*%
G36*
G01*
X142696250Y-66527500D02*
X141783750Y-66527500D01*
G75*
G02*
X141540000Y-66283750I0J243750D01*
G01*
X141540000Y-65796250D01*
G75*
G02*
X141783750Y-65552500I243750J0D01*
G01*
X142696250Y-65552500D01*
G75*
G02*
X142940000Y-65796250I0J-243750D01*
G01*
X142940000Y-66283750D01*
G75*
G02*
X142696250Y-66527500I-243750J0D01*
G01*
G37*
G36*
G01*
X142696250Y-68402500D02*
X141783750Y-68402500D01*
G75*
G02*
X141540000Y-68158750I0J243750D01*
G01*
X141540000Y-67671250D01*
G75*
G02*
X141783750Y-67427500I243750J0D01*
G01*
X142696250Y-67427500D01*
G75*
G02*
X142940000Y-67671250I0J-243750D01*
G01*
X142940000Y-68158750D01*
G75*
G02*
X142696250Y-68402500I-243750J0D01*
G01*
G37*
%TD*%
%TO.C,C5*%
G36*
G01*
X154761250Y-66527500D02*
X153848750Y-66527500D01*
G75*
G02*
X153605000Y-66283750I0J243750D01*
G01*
X153605000Y-65796250D01*
G75*
G02*
X153848750Y-65552500I243750J0D01*
G01*
X154761250Y-65552500D01*
G75*
G02*
X155005000Y-65796250I0J-243750D01*
G01*
X155005000Y-66283750D01*
G75*
G02*
X154761250Y-66527500I-243750J0D01*
G01*
G37*
G36*
G01*
X154761250Y-68402500D02*
X153848750Y-68402500D01*
G75*
G02*
X153605000Y-68158750I0J243750D01*
G01*
X153605000Y-67671250D01*
G75*
G02*
X153848750Y-67427500I243750J0D01*
G01*
X154761250Y-67427500D01*
G75*
G02*
X155005000Y-67671250I0J-243750D01*
G01*
X155005000Y-68158750D01*
G75*
G02*
X154761250Y-68402500I-243750J0D01*
G01*
G37*
%TD*%
%TO.C,C4*%
G36*
G01*
X139243750Y-67427500D02*
X140156250Y-67427500D01*
G75*
G02*
X140400000Y-67671250I0J-243750D01*
G01*
X140400000Y-68158750D01*
G75*
G02*
X140156250Y-68402500I-243750J0D01*
G01*
X139243750Y-68402500D01*
G75*
G02*
X139000000Y-68158750I0J243750D01*
G01*
X139000000Y-67671250D01*
G75*
G02*
X139243750Y-67427500I243750J0D01*
G01*
G37*
G36*
G01*
X139243750Y-65552500D02*
X140156250Y-65552500D01*
G75*
G02*
X140400000Y-65796250I0J-243750D01*
G01*
X140400000Y-66283750D01*
G75*
G02*
X140156250Y-66527500I-243750J0D01*
G01*
X139243750Y-66527500D01*
G75*
G02*
X139000000Y-66283750I0J243750D01*
G01*
X139000000Y-65796250D01*
G75*
G02*
X139243750Y-65552500I243750J0D01*
G01*
G37*
%TD*%
%TO.C,C3*%
G36*
G01*
X151308750Y-67427500D02*
X152221250Y-67427500D01*
G75*
G02*
X152465000Y-67671250I0J-243750D01*
G01*
X152465000Y-68158750D01*
G75*
G02*
X152221250Y-68402500I-243750J0D01*
G01*
X151308750Y-68402500D01*
G75*
G02*
X151065000Y-68158750I0J243750D01*
G01*
X151065000Y-67671250D01*
G75*
G02*
X151308750Y-67427500I243750J0D01*
G01*
G37*
G36*
G01*
X151308750Y-65552500D02*
X152221250Y-65552500D01*
G75*
G02*
X152465000Y-65796250I0J-243750D01*
G01*
X152465000Y-66283750D01*
G75*
G02*
X152221250Y-66527500I-243750J0D01*
G01*
X151308750Y-66527500D01*
G75*
G02*
X151065000Y-66283750I0J243750D01*
G01*
X151065000Y-65796250D01*
G75*
G02*
X151308750Y-65552500I243750J0D01*
G01*
G37*
%TD*%
%TO.C,C2*%
G36*
G01*
X136703750Y-67427500D02*
X137616250Y-67427500D01*
G75*
G02*
X137860000Y-67671250I0J-243750D01*
G01*
X137860000Y-68158750D01*
G75*
G02*
X137616250Y-68402500I-243750J0D01*
G01*
X136703750Y-68402500D01*
G75*
G02*
X136460000Y-68158750I0J243750D01*
G01*
X136460000Y-67671250D01*
G75*
G02*
X136703750Y-67427500I243750J0D01*
G01*
G37*
G36*
G01*
X136703750Y-65552500D02*
X137616250Y-65552500D01*
G75*
G02*
X137860000Y-65796250I0J-243750D01*
G01*
X137860000Y-66283750D01*
G75*
G02*
X137616250Y-66527500I-243750J0D01*
G01*
X136703750Y-66527500D01*
G75*
G02*
X136460000Y-66283750I0J243750D01*
G01*
X136460000Y-65796250D01*
G75*
G02*
X136703750Y-65552500I243750J0D01*
G01*
G37*
%TD*%
%TO.C,C1*%
G36*
G01*
X148768750Y-67427500D02*
X149681250Y-67427500D01*
G75*
G02*
X149925000Y-67671250I0J-243750D01*
G01*
X149925000Y-68158750D01*
G75*
G02*
X149681250Y-68402500I-243750J0D01*
G01*
X148768750Y-68402500D01*
G75*
G02*
X148525000Y-68158750I0J243750D01*
G01*
X148525000Y-67671250D01*
G75*
G02*
X148768750Y-67427500I243750J0D01*
G01*
G37*
G36*
G01*
X148768750Y-65552500D02*
X149681250Y-65552500D01*
G75*
G02*
X149925000Y-65796250I0J-243750D01*
G01*
X149925000Y-66283750D01*
G75*
G02*
X149681250Y-66527500I-243750J0D01*
G01*
X148768750Y-66527500D01*
G75*
G02*
X148525000Y-66283750I0J243750D01*
G01*
X148525000Y-65796250D01*
G75*
G02*
X148768750Y-65552500I243750J0D01*
G01*
G37*
%TD*%
D11*
%TO.C,U3*%
X143270000Y-62815000D03*
X138670000Y-62815000D03*
X140970000Y-62815000D03*
D12*
X140970000Y-56515000D03*
%TD*%
D11*
%TO.C,U2*%
X155335000Y-62815000D03*
X150735000Y-62815000D03*
X153035000Y-62815000D03*
D12*
X153035000Y-56515000D03*
%TD*%
M02*
