%TF.GenerationSoftware,KiCad,Pcbnew,(7.0.0)*%
%TF.CreationDate,2023-11-22T19:41:54+05:30*%
%TF.ProjectId,Drone_Controller_3.0,44726f6e-655f-4436-9f6e-74726f6c6c65,rev?*%
%TF.SameCoordinates,Original*%
%TF.FileFunction,Drillmap*%
%TF.FilePolarity,Positive*%
%FSLAX45Y45*%
G04 Gerber Fmt 4.5, Leading zero omitted, Abs format (unit mm)*
G04 Created by KiCad (PCBNEW (7.0.0)) date 2023-11-22 19:41:54*
%MOMM*%
%LPD*%
G01*
G04 APERTURE LIST*
%ADD10C,0.100000*%
%ADD11C,0.200000*%
G04 APERTURE END LIST*
D10*
X12725400Y-4571365D02*
X16230600Y-4571365D01*
X16230600Y-9093200D02*
G75*
G03*
X16738600Y-8585200I0J508000D01*
G01*
X16230600Y-9093200D02*
X12725400Y-9093200D01*
X16738600Y-5080000D02*
G75*
G03*
X16230600Y-4572000I-508000J0D01*
G01*
X16738600Y-5080000D02*
X16738600Y-8585200D01*
X12217400Y-8585200D02*
G75*
G03*
X12725400Y-9093200I508000J0D01*
G01*
X12216765Y-5080000D02*
X12216765Y-8585200D01*
X12725400Y-4571365D02*
G75*
G03*
X12216765Y-5080000I0J-508635D01*
G01*
D11*
X12459384Y-9391676D02*
X12459384Y-9191676D01*
X12459384Y-9191676D02*
X12507003Y-9191676D01*
X12507003Y-9191676D02*
X12535575Y-9201200D01*
X12535575Y-9201200D02*
X12554622Y-9220248D01*
X12554622Y-9220248D02*
X12564146Y-9239295D01*
X12564146Y-9239295D02*
X12573670Y-9277390D01*
X12573670Y-9277390D02*
X12573670Y-9305962D01*
X12573670Y-9305962D02*
X12564146Y-9344057D01*
X12564146Y-9344057D02*
X12554622Y-9363105D01*
X12554622Y-9363105D02*
X12535575Y-9382152D01*
X12535575Y-9382152D02*
X12507003Y-9391676D01*
X12507003Y-9391676D02*
X12459384Y-9391676D01*
X12659384Y-9391676D02*
X12659384Y-9258343D01*
X12659384Y-9296438D02*
X12668908Y-9277390D01*
X12668908Y-9277390D02*
X12678432Y-9267867D01*
X12678432Y-9267867D02*
X12697480Y-9258343D01*
X12697480Y-9258343D02*
X12716527Y-9258343D01*
X12783194Y-9391676D02*
X12783194Y-9258343D01*
X12783194Y-9191676D02*
X12773670Y-9201200D01*
X12773670Y-9201200D02*
X12783194Y-9210724D01*
X12783194Y-9210724D02*
X12792718Y-9201200D01*
X12792718Y-9201200D02*
X12783194Y-9191676D01*
X12783194Y-9191676D02*
X12783194Y-9210724D01*
X12907003Y-9391676D02*
X12887956Y-9382152D01*
X12887956Y-9382152D02*
X12878432Y-9363105D01*
X12878432Y-9363105D02*
X12878432Y-9191676D01*
X13011765Y-9391676D02*
X12992718Y-9382152D01*
X12992718Y-9382152D02*
X12983194Y-9363105D01*
X12983194Y-9363105D02*
X12983194Y-9191676D01*
X13207956Y-9391676D02*
X13207956Y-9191676D01*
X13207956Y-9191676D02*
X13274622Y-9334533D01*
X13274622Y-9334533D02*
X13341289Y-9191676D01*
X13341289Y-9191676D02*
X13341289Y-9391676D01*
X13522241Y-9391676D02*
X13522241Y-9286914D01*
X13522241Y-9286914D02*
X13512718Y-9267867D01*
X13512718Y-9267867D02*
X13493670Y-9258343D01*
X13493670Y-9258343D02*
X13455575Y-9258343D01*
X13455575Y-9258343D02*
X13436527Y-9267867D01*
X13522241Y-9382152D02*
X13503194Y-9391676D01*
X13503194Y-9391676D02*
X13455575Y-9391676D01*
X13455575Y-9391676D02*
X13436527Y-9382152D01*
X13436527Y-9382152D02*
X13427003Y-9363105D01*
X13427003Y-9363105D02*
X13427003Y-9344057D01*
X13427003Y-9344057D02*
X13436527Y-9325010D01*
X13436527Y-9325010D02*
X13455575Y-9315486D01*
X13455575Y-9315486D02*
X13503194Y-9315486D01*
X13503194Y-9315486D02*
X13522241Y-9305962D01*
X13617480Y-9258343D02*
X13617480Y-9458343D01*
X13617480Y-9267867D02*
X13636527Y-9258343D01*
X13636527Y-9258343D02*
X13674622Y-9258343D01*
X13674622Y-9258343D02*
X13693670Y-9267867D01*
X13693670Y-9267867D02*
X13703194Y-9277390D01*
X13703194Y-9277390D02*
X13712718Y-9296438D01*
X13712718Y-9296438D02*
X13712718Y-9353581D01*
X13712718Y-9353581D02*
X13703194Y-9372629D01*
X13703194Y-9372629D02*
X13693670Y-9382152D01*
X13693670Y-9382152D02*
X13674622Y-9391676D01*
X13674622Y-9391676D02*
X13636527Y-9391676D01*
X13636527Y-9391676D02*
X13617480Y-9382152D01*
X13798432Y-9372629D02*
X13807956Y-9382152D01*
X13807956Y-9382152D02*
X13798432Y-9391676D01*
X13798432Y-9391676D02*
X13788908Y-9382152D01*
X13788908Y-9382152D02*
X13798432Y-9372629D01*
X13798432Y-9372629D02*
X13798432Y-9391676D01*
X13798432Y-9267867D02*
X13807956Y-9277390D01*
X13807956Y-9277390D02*
X13798432Y-9286914D01*
X13798432Y-9286914D02*
X13788908Y-9277390D01*
X13788908Y-9277390D02*
X13798432Y-9267867D01*
X13798432Y-9267867D02*
X13798432Y-9286914D01*
M02*
