%TF.GenerationSoftware,KiCad,Pcbnew,(7.0.0)*%
%TF.CreationDate,2023-11-22T19:41:51+05:30*%
%TF.ProjectId,Drone_Controller_3.0,44726f6e-655f-4436-9f6e-74726f6c6c65,rev?*%
%TF.SameCoordinates,Original*%
%TF.FileFunction,Legend,Bot*%
%TF.FilePolarity,Positive*%
%FSLAX46Y46*%
G04 Gerber Fmt 4.6, Leading zero omitted, Abs format (unit mm)*
G04 Created by KiCad (PCBNEW (7.0.0)) date 2023-11-22 19:41:51*
%MOMM*%
%LPD*%
G01*
G04 APERTURE LIST*
%ADD10C,0.150000*%
%ADD11C,0.120000*%
G04 APERTURE END LIST*
D10*
%TO.C,R11*%
X129010657Y-78142180D02*
X129343990Y-77665990D01*
X129582085Y-78142180D02*
X129582085Y-77142180D01*
X129582085Y-77142180D02*
X129201133Y-77142180D01*
X129201133Y-77142180D02*
X129105895Y-77189800D01*
X129105895Y-77189800D02*
X129058276Y-77237419D01*
X129058276Y-77237419D02*
X129010657Y-77332657D01*
X129010657Y-77332657D02*
X129010657Y-77475514D01*
X129010657Y-77475514D02*
X129058276Y-77570752D01*
X129058276Y-77570752D02*
X129105895Y-77618371D01*
X129105895Y-77618371D02*
X129201133Y-77665990D01*
X129201133Y-77665990D02*
X129582085Y-77665990D01*
X128058276Y-78142180D02*
X128629704Y-78142180D01*
X128343990Y-78142180D02*
X128343990Y-77142180D01*
X128343990Y-77142180D02*
X128439228Y-77285038D01*
X128439228Y-77285038D02*
X128534466Y-77380276D01*
X128534466Y-77380276D02*
X128629704Y-77427895D01*
X127105895Y-78142180D02*
X127677323Y-78142180D01*
X127391609Y-78142180D02*
X127391609Y-77142180D01*
X127391609Y-77142180D02*
X127486847Y-77285038D01*
X127486847Y-77285038D02*
X127582085Y-77380276D01*
X127582085Y-77380276D02*
X127677323Y-77427895D01*
%TO.C,C24*%
X128963657Y-76065742D02*
X129011276Y-76113361D01*
X129011276Y-76113361D02*
X129154133Y-76160980D01*
X129154133Y-76160980D02*
X129249371Y-76160980D01*
X129249371Y-76160980D02*
X129392228Y-76113361D01*
X129392228Y-76113361D02*
X129487466Y-76018123D01*
X129487466Y-76018123D02*
X129535085Y-75922885D01*
X129535085Y-75922885D02*
X129582704Y-75732409D01*
X129582704Y-75732409D02*
X129582704Y-75589552D01*
X129582704Y-75589552D02*
X129535085Y-75399076D01*
X129535085Y-75399076D02*
X129487466Y-75303838D01*
X129487466Y-75303838D02*
X129392228Y-75208600D01*
X129392228Y-75208600D02*
X129249371Y-75160980D01*
X129249371Y-75160980D02*
X129154133Y-75160980D01*
X129154133Y-75160980D02*
X129011276Y-75208600D01*
X129011276Y-75208600D02*
X128963657Y-75256219D01*
X128582704Y-75256219D02*
X128535085Y-75208600D01*
X128535085Y-75208600D02*
X128439847Y-75160980D01*
X128439847Y-75160980D02*
X128201752Y-75160980D01*
X128201752Y-75160980D02*
X128106514Y-75208600D01*
X128106514Y-75208600D02*
X128058895Y-75256219D01*
X128058895Y-75256219D02*
X128011276Y-75351457D01*
X128011276Y-75351457D02*
X128011276Y-75446695D01*
X128011276Y-75446695D02*
X128058895Y-75589552D01*
X128058895Y-75589552D02*
X128630323Y-76160980D01*
X128630323Y-76160980D02*
X128011276Y-76160980D01*
X127154133Y-75494314D02*
X127154133Y-76160980D01*
X127392228Y-75113361D02*
X127630323Y-75827647D01*
X127630323Y-75827647D02*
X127011276Y-75827647D01*
%TO.C,C22*%
X135146057Y-81348942D02*
X135193676Y-81396561D01*
X135193676Y-81396561D02*
X135336533Y-81444180D01*
X135336533Y-81444180D02*
X135431771Y-81444180D01*
X135431771Y-81444180D02*
X135574628Y-81396561D01*
X135574628Y-81396561D02*
X135669866Y-81301323D01*
X135669866Y-81301323D02*
X135717485Y-81206085D01*
X135717485Y-81206085D02*
X135765104Y-81015609D01*
X135765104Y-81015609D02*
X135765104Y-80872752D01*
X135765104Y-80872752D02*
X135717485Y-80682276D01*
X135717485Y-80682276D02*
X135669866Y-80587038D01*
X135669866Y-80587038D02*
X135574628Y-80491800D01*
X135574628Y-80491800D02*
X135431771Y-80444180D01*
X135431771Y-80444180D02*
X135336533Y-80444180D01*
X135336533Y-80444180D02*
X135193676Y-80491800D01*
X135193676Y-80491800D02*
X135146057Y-80539419D01*
X134765104Y-80539419D02*
X134717485Y-80491800D01*
X134717485Y-80491800D02*
X134622247Y-80444180D01*
X134622247Y-80444180D02*
X134384152Y-80444180D01*
X134384152Y-80444180D02*
X134288914Y-80491800D01*
X134288914Y-80491800D02*
X134241295Y-80539419D01*
X134241295Y-80539419D02*
X134193676Y-80634657D01*
X134193676Y-80634657D02*
X134193676Y-80729895D01*
X134193676Y-80729895D02*
X134241295Y-80872752D01*
X134241295Y-80872752D02*
X134812723Y-81444180D01*
X134812723Y-81444180D02*
X134193676Y-81444180D01*
X133812723Y-80539419D02*
X133765104Y-80491800D01*
X133765104Y-80491800D02*
X133669866Y-80444180D01*
X133669866Y-80444180D02*
X133431771Y-80444180D01*
X133431771Y-80444180D02*
X133336533Y-80491800D01*
X133336533Y-80491800D02*
X133288914Y-80539419D01*
X133288914Y-80539419D02*
X133241295Y-80634657D01*
X133241295Y-80634657D02*
X133241295Y-80729895D01*
X133241295Y-80729895D02*
X133288914Y-80872752D01*
X133288914Y-80872752D02*
X133860342Y-81444180D01*
X133860342Y-81444180D02*
X133241295Y-81444180D01*
%TO.C,FB1*%
X135349833Y-82698371D02*
X135683166Y-82698371D01*
X135683166Y-83222180D02*
X135683166Y-82222180D01*
X135683166Y-82222180D02*
X135206976Y-82222180D01*
X134492690Y-82698371D02*
X134349833Y-82745990D01*
X134349833Y-82745990D02*
X134302214Y-82793609D01*
X134302214Y-82793609D02*
X134254595Y-82888847D01*
X134254595Y-82888847D02*
X134254595Y-83031704D01*
X134254595Y-83031704D02*
X134302214Y-83126942D01*
X134302214Y-83126942D02*
X134349833Y-83174561D01*
X134349833Y-83174561D02*
X134445071Y-83222180D01*
X134445071Y-83222180D02*
X134826023Y-83222180D01*
X134826023Y-83222180D02*
X134826023Y-82222180D01*
X134826023Y-82222180D02*
X134492690Y-82222180D01*
X134492690Y-82222180D02*
X134397452Y-82269800D01*
X134397452Y-82269800D02*
X134349833Y-82317419D01*
X134349833Y-82317419D02*
X134302214Y-82412657D01*
X134302214Y-82412657D02*
X134302214Y-82507895D01*
X134302214Y-82507895D02*
X134349833Y-82603133D01*
X134349833Y-82603133D02*
X134397452Y-82650752D01*
X134397452Y-82650752D02*
X134492690Y-82698371D01*
X134492690Y-82698371D02*
X134826023Y-82698371D01*
X133302214Y-83222180D02*
X133873642Y-83222180D01*
X133587928Y-83222180D02*
X133587928Y-82222180D01*
X133587928Y-82222180D02*
X133683166Y-82365038D01*
X133683166Y-82365038D02*
X133778404Y-82460276D01*
X133778404Y-82460276D02*
X133873642Y-82507895D01*
D11*
%TO.C,R11*%
X131593964Y-78459000D02*
X131139836Y-78459000D01*
X131593964Y-76989000D02*
X131139836Y-76989000D01*
%TO.C,C24*%
X131630052Y-76528600D02*
X131107548Y-76528600D01*
X131630052Y-75058600D02*
X131107548Y-75058600D01*
%TO.C,C22*%
X131158348Y-80341800D02*
X131680852Y-80341800D01*
X131158348Y-81811800D02*
X131680852Y-81811800D01*
%TO.C,FB1*%
X131190636Y-82272200D02*
X131644764Y-82272200D01*
X131190636Y-83742200D02*
X131644764Y-83742200D01*
%TD*%
M02*
