M48
; DRILL file {KiCad (7.0.0)} date Wed Nov 22 19:41:53 2023
; FORMAT={-:-/ absolute / inch / decimal}
; #@! TF.CreationDate,2023-11-22T19:41:53+05:30
; #@! TF.GenerationSoftware,Kicad,Pcbnew,(7.0.0)
; #@! TF.FileFunction,Plated,1,4,PTH
FMAT,2
INCH
; #@! TA.AperFunction,Plated,PTH,ComponentDrill
T1C0.0098
; #@! TA.AperFunction,Plated,PTH,ViaDrill
T2C0.0118
; #@! TA.AperFunction,Plated,PTH,ViaDrill
T3C0.0157
; #@! TA.AperFunction,Plated,PTH,ComponentDrill
T4C0.0197
; #@! TA.AperFunction,Plated,PTH,ComponentDrill
T5C0.0236
; #@! TA.AperFunction,Plated,PTH,ComponentDrill
T6C0.0335
; #@! TA.AperFunction,Plated,PTH,ComponentDrill
T7C0.0394
; #@! TA.AperFunction,Plated,PTH,ComponentDrill
T8C0.1260
%
G90
G05
T1
X5.1568Y-3.1254
X5.1962Y-3.1254
T2
X5.084Y-3.062
X5.086Y-3.182
X5.16Y-3.418
X5.244Y-3.3
X5.27Y-3.05
X5.29Y-2.22
X5.29Y-2.274
X5.298Y-2.68
X5.316Y-2.608
X5.322Y-2.482
X5.368Y-2.166
X5.392Y-2.684
X5.412Y-3.072
X5.412Y-3.098
X5.414Y-2.452
X5.474Y-2.966
X5.494Y-2.596
X5.532Y-3.042
X5.538Y-2.396
X5.55Y-2.74
X5.552Y-3.116
X5.558Y-3.062
X5.56Y-2.62
X5.57Y-3.09
X5.572Y-2.364
X5.58Y-2.8
X5.582Y-2.508
X5.594Y-2.958
X5.608Y-2.324
X5.618Y-2.624
X5.626Y-2.71
X5.626Y-2.744
X5.626Y-2.806
X5.63Y-2.498
X5.632Y-2.948
X5.646Y-3.324
X5.65Y-2.776
X5.656Y-2.636
X5.658Y-2.922
X5.666Y-3.118
X5.68Y-2.894
X5.718Y-2.902
X5.726Y-3.104
X5.742Y-2.63
X5.748Y-2.896
X5.78Y-2.924
X5.782Y-3.162
X5.786Y-2.628
X5.806Y-2.372
X5.806Y-3.376
X5.83Y-3.166
X5.84Y-2.35
X5.846Y-2.746
X5.86Y-2.49
X5.866Y-2.768
X5.868Y-2.846
X5.87Y-2.69
X5.87Y-2.798
X5.882Y-2.356
X5.91Y-2.606
X5.928Y-3.064
X5.96Y-3.164
X5.97Y-3.026
X5.982Y-2.5
X5.996Y-2.78
X6.006Y-2.324
X6.008Y-2.854
X6.01Y-2.82
X6.02Y-2.59
X6.024Y-3.066
X6.03Y-2.532
X6.038Y-2.432
X6.072Y-2.686
X6.084Y-2.534
X6.09Y-2.158
X6.09Y-2.712
X6.094Y-2.1
X6.104Y-2.604
X6.13Y-2.534
X6.136Y-2.37
X6.16Y-2.016
X6.182Y-2.174
X6.204Y-2.52
X6.22Y-3.126
X6.238Y-2.41
X6.264Y-2.868
X6.288Y-2.436
X6.294Y-2.784
X6.3Y-2.836
X6.324Y-2.794
X6.328Y-3.028
X6.36Y-3.078
X6.362Y-2.302
X6.362Y-2.438
X6.386Y-2.886
X6.39Y-3.074
X6.394Y-2.972
X6.396Y-2.924
X6.416Y-3.022
T3
X5.066Y-2.952
T4
X4.911Y-2.0
X4.911Y-3.3845
X4.9387Y-1.9332
X4.9387Y-2.0668
X4.9387Y-3.3177
X4.9387Y-3.4513
X5.0055Y-1.9055
X5.0055Y-2.0945
X5.0055Y-3.29
X5.0055Y-3.479
X5.0723Y-1.9332
X5.0723Y-2.0668
X5.0723Y-3.3177
X5.0723Y-3.4513
X5.1Y-2.0
X5.1Y-3.3845
X6.2955Y-2.0
X6.2955Y-3.3832
X6.3232Y-1.9332
X6.3232Y-2.0668
X6.3232Y-3.3164
X6.3232Y-3.45
X6.39Y-1.9055
X6.39Y-2.0945
X6.39Y-3.2887
X6.39Y-3.4777
X6.4568Y-1.9332
X6.4568Y-2.0668
X6.4568Y-3.3164
X6.4568Y-3.45
X6.4845Y-2.0
X6.4845Y-3.3832
T6
X5.9796Y-1.9616
X6.1764Y-1.9616
T7
X4.878Y-2.24
X4.878Y-2.34
X4.878Y-2.44
X4.878Y-2.54
X4.878Y-2.64
X4.878Y-2.74
X4.878Y-2.84
X4.878Y-2.94
X4.878Y-3.04
X4.878Y-3.14
X5.6024Y-3.512
X5.7024Y-3.512
X5.8024Y-3.512
X5.9024Y-3.512
X6.522Y-2.24
X6.522Y-2.34
X6.522Y-2.44
X6.522Y-2.54
X6.522Y-2.64
X6.522Y-2.74
X6.522Y-2.84
X6.522Y-2.94
X6.522Y-3.04
X6.522Y-3.14
T8
X5.0055Y-2.0
X5.0055Y-3.3845
X6.39Y-2.0
X6.39Y-3.3832
T5
G00X5.9402Y-1.8691
M15
G01X5.9402Y-1.8415
M16
G05
G00X6.2158Y-1.8415
M15
G01X6.2158Y-1.8691
M16
G05
T0
M30
