%TF.GenerationSoftware,KiCad,Pcbnew,(7.0.0)*%
%TF.CreationDate,2023-11-22T19:41:51+05:30*%
%TF.ProjectId,Drone_Controller_3.0,44726f6e-655f-4436-9f6e-74726f6c6c65,rev?*%
%TF.SameCoordinates,Original*%
%TF.FileFunction,Soldermask,Bot*%
%TF.FilePolarity,Negative*%
%FSLAX46Y46*%
G04 Gerber Fmt 4.6, Leading zero omitted, Abs format (unit mm)*
G04 Created by KiCad (PCBNEW (7.0.0)) date 2023-11-22 19:41:51*
%MOMM*%
%LPD*%
G01*
G04 APERTURE LIST*
G04 Aperture macros list*
%AMRoundRect*
0 Rectangle with rounded corners*
0 $1 Rounding radius*
0 $2 $3 $4 $5 $6 $7 $8 $9 X,Y pos of 4 corners*
0 Add a 4 corners polygon primitive as box body*
4,1,4,$2,$3,$4,$5,$6,$7,$8,$9,$2,$3,0*
0 Add four circle primitives for the rounded corners*
1,1,$1+$1,$2,$3*
1,1,$1+$1,$4,$5*
1,1,$1+$1,$6,$7*
1,1,$1+$1,$8,$9*
0 Add four rect primitives between the rounded corners*
20,1,$1+$1,$2,$3,$4,$5,0*
20,1,$1+$1,$4,$5,$6,$7,0*
20,1,$1+$1,$6,$7,$8,$9,0*
20,1,$1+$1,$8,$9,$2,$3,0*%
G04 Aperture macros list end*
%ADD10R,1.350000X4.200000*%
%ADD11C,0.800000*%
%ADD12C,6.400000*%
%ADD13R,1.700000X1.700000*%
%ADD14O,1.700000X1.700000*%
%ADD15O,1.200000X1.900000*%
%ADD16C,1.450000*%
%ADD17RoundRect,0.250000X0.262500X0.450000X-0.262500X0.450000X-0.262500X-0.450000X0.262500X-0.450000X0*%
%ADD18RoundRect,0.250000X0.250000X0.475000X-0.250000X0.475000X-0.250000X-0.475000X0.250000X-0.475000X0*%
%ADD19RoundRect,0.250000X-0.250000X-0.475000X0.250000X-0.475000X0.250000X0.475000X-0.250000X0.475000X0*%
%ADD20RoundRect,0.250000X-0.262500X-0.450000X0.262500X-0.450000X0.262500X0.450000X-0.262500X0.450000X0*%
G04 APERTURE END LIST*
D10*
%TO.C,J1*%
X140086599Y-47828199D03*
X134436599Y-47828199D03*
%TD*%
D11*
%TO.C,H3*%
X124740000Y-85966000D03*
X125442944Y-84268944D03*
X125442944Y-87663056D03*
X127140000Y-83566000D03*
D12*
X127140000Y-85966000D03*
D11*
X127140000Y-88366000D03*
X128837056Y-84268944D03*
X128837056Y-87663056D03*
X129540000Y-85966000D03*
%TD*%
%TO.C,H2*%
X159906000Y-50800000D03*
X160608944Y-49102944D03*
X160608944Y-52497056D03*
X162306000Y-48400000D03*
D12*
X162306000Y-50800000D03*
D11*
X162306000Y-53200000D03*
X164003056Y-49102944D03*
X164003056Y-52497056D03*
X164706000Y-50800000D03*
%TD*%
D13*
%TO.C,J5*%
X165658799Y-56895999D03*
D14*
X165658799Y-59435999D03*
X165658799Y-61975999D03*
X165658799Y-64515999D03*
X165658799Y-67055999D03*
X165658799Y-69595999D03*
X165658799Y-72135999D03*
X165658799Y-74675999D03*
X165658799Y-77215999D03*
X165658799Y-79755999D03*
%TD*%
D13*
%TO.C,J4*%
X123901199Y-56895999D03*
D14*
X123901199Y-59435999D03*
X123901199Y-61975999D03*
X123901199Y-64515999D03*
X123901199Y-67055999D03*
X123901199Y-69595999D03*
X123901199Y-72135999D03*
X123901199Y-74675999D03*
X123901199Y-77215999D03*
X123901199Y-79755999D03*
%TD*%
D15*
%TO.C,J7*%
X157881199Y-47124099D03*
D16*
X156881200Y-49824100D03*
X151881200Y-49824100D03*
D15*
X150881199Y-47124099D03*
%TD*%
D13*
%TO.C,J6*%
X142300799Y-89204799D03*
D14*
X144840799Y-89204799D03*
X147380799Y-89204799D03*
X149920799Y-89204799D03*
%TD*%
D11*
%TO.C,H4*%
X159906000Y-85932944D03*
X160608944Y-84235888D03*
X160608944Y-87630000D03*
X162306000Y-83532944D03*
D12*
X162306000Y-85932944D03*
D11*
X162306000Y-88332944D03*
X164003056Y-84235888D03*
X164003056Y-87630000D03*
X164706000Y-85932944D03*
%TD*%
%TO.C,H1*%
X124740000Y-50800000D03*
X125442944Y-49102944D03*
X125442944Y-52497056D03*
X127140000Y-48400000D03*
D12*
X127140000Y-50800000D03*
D11*
X127140000Y-53200000D03*
X128837056Y-49102944D03*
X128837056Y-52497056D03*
X129540000Y-50800000D03*
%TD*%
D17*
%TO.C,R11*%
X132279400Y-77724000D03*
X130454400Y-77724000D03*
%TD*%
D18*
%TO.C,C24*%
X132318800Y-75793600D03*
X130418800Y-75793600D03*
%TD*%
D19*
%TO.C,C22*%
X130469600Y-81076800D03*
X132369600Y-81076800D03*
%TD*%
D20*
%TO.C,FB1*%
X130505200Y-83007200D03*
X132330200Y-83007200D03*
%TD*%
M02*
