%TF.GenerationSoftware,KiCad,Pcbnew,(7.0.0)*%
%TF.CreationDate,2023-11-22T19:41:50+05:30*%
%TF.ProjectId,Drone_Controller_3.0,44726f6e-655f-4436-9f6e-74726f6c6c65,rev?*%
%TF.SameCoordinates,Original*%
%TF.FileFunction,Copper,L2,Inr*%
%TF.FilePolarity,Positive*%
%FSLAX46Y46*%
G04 Gerber Fmt 4.6, Leading zero omitted, Abs format (unit mm)*
G04 Created by KiCad (PCBNEW (7.0.0)) date 2023-11-22 19:41:50*
%MOMM*%
%LPD*%
G01*
G04 APERTURE LIST*
%TA.AperFunction,ComponentPad*%
%ADD10C,0.600000*%
%TD*%
%TA.AperFunction,ComponentPad*%
%ADD11C,0.800000*%
%TD*%
%TA.AperFunction,ComponentPad*%
%ADD12C,6.400000*%
%TD*%
%TA.AperFunction,ComponentPad*%
%ADD13R,1.700000X1.700000*%
%TD*%
%TA.AperFunction,ComponentPad*%
%ADD14O,1.700000X1.700000*%
%TD*%
%TA.AperFunction,ComponentPad*%
%ADD15O,1.200000X1.900000*%
%TD*%
%TA.AperFunction,ComponentPad*%
%ADD16C,1.450000*%
%TD*%
%TA.AperFunction,ViaPad*%
%ADD17C,0.500000*%
%TD*%
%TA.AperFunction,ViaPad*%
%ADD18C,0.800000*%
%TD*%
%TA.AperFunction,Conductor*%
%ADD19C,0.200000*%
%TD*%
%TA.AperFunction,Conductor*%
%ADD20C,0.250000*%
%TD*%
G04 APERTURE END LIST*
D10*
%TO.N,GND*%
%TO.C,U4*%
X130982400Y-79385200D03*
X131982400Y-79385200D03*
%TD*%
D11*
%TO.N,GND*%
%TO.C,H3*%
X124740000Y-85966000D03*
X125442944Y-84268944D03*
X125442944Y-87663056D03*
X127140000Y-83566000D03*
D12*
X127140000Y-85966000D03*
D11*
X127140000Y-88366000D03*
X128837056Y-84268944D03*
X128837056Y-87663056D03*
X129540000Y-85966000D03*
%TD*%
%TO.N,GND*%
%TO.C,H2*%
X159906000Y-50800000D03*
X160608944Y-49102944D03*
X160608944Y-52497056D03*
X162306000Y-48400000D03*
D12*
X162306000Y-50800000D03*
D11*
X162306000Y-53200000D03*
X164003056Y-49102944D03*
X164003056Y-52497056D03*
X164706000Y-50800000D03*
%TD*%
D13*
%TO.N,PC7*%
%TO.C,J5*%
X165658799Y-56895999D03*
D14*
%TO.N,PC6*%
X165658799Y-59435999D03*
%TO.N,EEPROM_SDA*%
X165658799Y-61975999D03*
%TO.N,EEPROM_SCL*%
X165658799Y-64515999D03*
%TO.N,PWM_3*%
X165658799Y-67055999D03*
%TO.N,PWM_4*%
X165658799Y-69595999D03*
%TO.N,SPI2_MOSI*%
X165658799Y-72135999D03*
%TO.N,SPI2_MISO*%
X165658799Y-74675999D03*
%TO.N,SPI2_SCK*%
X165658799Y-77215999D03*
%TO.N,SPI2_NSS*%
X165658799Y-79755999D03*
%TD*%
D13*
%TO.N,BOOT0*%
%TO.C,J4*%
X123901199Y-56895999D03*
D14*
%TO.N,PA10*%
X123901199Y-59435999D03*
%TO.N,PA9*%
X123901199Y-61975999D03*
%TO.N,PA8*%
X123901199Y-64515999D03*
%TO.N,PWM_2*%
X123901199Y-67055999D03*
%TO.N,PWM_1*%
X123901199Y-69595999D03*
%TO.N,PA5*%
X123901199Y-72135999D03*
%TO.N,PA4*%
X123901199Y-74675999D03*
%TO.N,UART_TX*%
X123901199Y-77215999D03*
%TO.N,UART_RX*%
X123901199Y-79755999D03*
%TD*%
D15*
%TO.N,GND*%
%TO.C,J7*%
X157881199Y-47124099D03*
D16*
X156881200Y-49824100D03*
X151881200Y-49824100D03*
D15*
X150881199Y-47124099D03*
%TD*%
D13*
%TO.N,3.3V*%
%TO.C,J6*%
X142300799Y-89204799D03*
D14*
%TO.N,SYS_SWCLK*%
X144840799Y-89204799D03*
%TO.N,SYS_SWDIO*%
X147380799Y-89204799D03*
%TO.N,GND*%
X149920799Y-89204799D03*
%TD*%
D11*
%TO.N,GND*%
%TO.C,H4*%
X159906000Y-85932944D03*
X160608944Y-84235888D03*
X160608944Y-87630000D03*
X162306000Y-83532944D03*
D12*
X162306000Y-85932944D03*
D11*
X162306000Y-88332944D03*
X164003056Y-84235888D03*
X164003056Y-87630000D03*
X164706000Y-85932944D03*
%TD*%
%TO.N,GND*%
%TO.C,H1*%
X124740000Y-50800000D03*
X125442944Y-49102944D03*
X125442944Y-52497056D03*
X127140000Y-48400000D03*
D12*
X127140000Y-50800000D03*
D11*
X127140000Y-53200000D03*
X128837056Y-49102944D03*
X128837056Y-52497056D03*
X129540000Y-50800000D03*
%TD*%
D17*
%TO.N,GND*%
X151384000Y-80365600D03*
X152908000Y-65786000D03*
X162306000Y-78079600D03*
X134569200Y-68072000D03*
X152552400Y-59029600D03*
X151638000Y-76860400D03*
X141478000Y-78486000D03*
X154533600Y-64363600D03*
X151942800Y-63500000D03*
X153365200Y-61772800D03*
X141224000Y-66548000D03*
X141732000Y-71120000D03*
X158445200Y-61214000D03*
X142087600Y-75133200D03*
X137464800Y-78028800D03*
X134366000Y-57759600D03*
X136347200Y-55016400D03*
X155041600Y-66141600D03*
X142443200Y-59029600D03*
X148082000Y-80416400D03*
X145440400Y-78841600D03*
X154686000Y-54813200D03*
X160020000Y-72034400D03*
X137464800Y-78689200D03*
X157022800Y-55219600D03*
X135026400Y-66243200D03*
%TO.N,3.3V*%
X150571200Y-77825600D03*
X135178800Y-63042800D03*
X133858000Y-77470000D03*
X160731200Y-76911200D03*
X159105600Y-72847200D03*
X141528800Y-60045600D03*
X139547600Y-65938400D03*
X141173200Y-77774800D03*
X146862800Y-80314800D03*
X153162000Y-64312800D03*
X161594800Y-61925200D03*
X150114000Y-66192400D03*
X134366000Y-56388000D03*
D18*
X128676400Y-74980800D03*
D17*
%TO.N,Filter_V_IN*%
X129184400Y-80822800D03*
%TO.N,V_IN_Sense*%
X133197600Y-83820000D03*
X143916400Y-79197200D03*
%TO.N,V_IN*%
X131064000Y-86817200D03*
%TO.N,FSYNC*%
X142900400Y-68834000D03*
X159867600Y-70713600D03*
%TO.N,MPU_I2C_SDA*%
X147472400Y-60248800D03*
X143662400Y-66954400D03*
%TO.N,MPU_I2C_SCL*%
X161594800Y-58470800D03*
X155854400Y-60198000D03*
X142697200Y-66649600D03*
X157581600Y-64008000D03*
X148336000Y-59690000D03*
%TO.N,DPS_INT*%
X142900400Y-71272400D03*
X154228800Y-68224400D03*
%TO.N,PG*%
X129133600Y-77774800D03*
%TO.N,NRF_!CS*%
X137515600Y-62280800D03*
X146964400Y-66751200D03*
%TO.N,NRF_IRQ*%
X140665200Y-60858400D03*
X145846800Y-66802000D03*
%TO.N,MPU_INT*%
X160629600Y-70967600D03*
X142900400Y-69697600D03*
%TO.N,INT{slash}DRDY*%
X155702000Y-64363600D03*
X159715200Y-61874400D03*
X143510000Y-70510400D03*
X149098000Y-68326000D03*
%TO.N,NRST*%
X140970000Y-69596000D03*
X136956800Y-68173600D03*
%TO.N,SYS_SWDIO*%
X153009600Y-77876400D03*
X154686000Y-68884800D03*
%TO.N,FLASH_IO2*%
X143408400Y-84429600D03*
X152298400Y-70612000D03*
%TO.N,FLASH_IO0*%
X149047200Y-72288400D03*
X147472400Y-85750400D03*
%TO.N,EEPROM_SDA*%
X141782800Y-63703200D03*
X149402800Y-59842400D03*
%TO.N,EEPROM_SCL*%
X157988000Y-79400400D03*
X146812000Y-74269600D03*
%TO.N,EEPROM_WP*%
X161544000Y-78181200D03*
X148844000Y-63246000D03*
%TO.N,BOOT0*%
X143002000Y-63449200D03*
%TO.N,PWM_2*%
X144272000Y-73507600D03*
%TO.N,PWM_1*%
X143713200Y-74218800D03*
%TO.N,PWM_4*%
X145999200Y-73558400D03*
%TO.N,PWM_3*%
X145237200Y-73710800D03*
%TO.N,UART_RX*%
X140512800Y-77266800D03*
%TO.N,UART_TX*%
X139039600Y-75336400D03*
%TO.N,SPI2_MOSI*%
X162204400Y-73304400D03*
%TO.N,SPI2_MISO*%
X162458400Y-74269600D03*
%TO.N,SPI2_SCK*%
X162407600Y-75488800D03*
%TO.N,VBUS*%
X156464000Y-51206400D03*
X154787600Y-53340000D03*
%TO.N,PA10*%
X148488400Y-69748400D03*
%TO.N,PA9*%
X148996400Y-70307200D03*
%TO.N,PA8*%
X149098000Y-71069200D03*
%TO.N,PA5*%
X143052800Y-74879200D03*
%TO.N,PA4*%
X141020800Y-79146400D03*
%TO.N,PC6*%
X152603200Y-72491600D03*
%TO.N,PC7*%
X152654000Y-71628000D03*
%TO.N,SPI2_NSS*%
X162966400Y-76758800D03*
%TD*%
D19*
%TO.N,GND*%
X145440400Y-78841600D02*
X146507200Y-78841600D01*
X146507200Y-78841600D02*
X148082000Y-80416400D01*
D20*
%TO.N,V_IN_Sense*%
X143916400Y-79197200D02*
X139293600Y-83820000D01*
X139293600Y-83820000D02*
X133197600Y-83820000D01*
%TO.N,FLASH_IO2*%
X146100800Y-86410800D02*
X144221200Y-84531200D01*
X144119600Y-84429600D02*
X143408400Y-84429600D01*
X149497200Y-84538400D02*
X147624800Y-86410800D01*
X152298400Y-70612000D02*
X149497200Y-73413200D01*
X147624800Y-86410800D02*
X146100800Y-86410800D01*
X143408400Y-84429600D02*
X143306800Y-84429600D01*
X149497200Y-73413200D02*
X149497200Y-84538400D01*
X144221200Y-84531200D02*
X144119600Y-84429600D01*
%TO.N,FLASH_IO0*%
X147523200Y-85750400D02*
X147472400Y-85750400D01*
X149047200Y-72288400D02*
X149047200Y-84226400D01*
X147472400Y-85750400D02*
X147472400Y-85801200D01*
X149047200Y-84226400D02*
X147523200Y-85750400D01*
X147472400Y-85801200D02*
X147523200Y-85750400D01*
%TO.N,BOOT0*%
X141071600Y-61518800D02*
X134518400Y-61518800D01*
X143002000Y-63449200D02*
X141071600Y-61518800D01*
X134518400Y-61518800D02*
X129895600Y-56896000D01*
X129895600Y-56896000D02*
X123901200Y-56896000D01*
%TO.N,PWM_1*%
X125780800Y-69596000D02*
X123901200Y-69596000D01*
X142241800Y-72747400D02*
X127509800Y-72747400D01*
X126288800Y-70104000D02*
X125780800Y-69596000D01*
X143713200Y-74218800D02*
X142241800Y-72747400D01*
X127509800Y-72747400D02*
X126288800Y-71526400D01*
X126288800Y-71526400D02*
X126288800Y-70104000D01*
%TO.N,UART_RX*%
X124155400Y-80010200D02*
X123901200Y-79756000D01*
X138734600Y-80010200D02*
X124155400Y-80010200D01*
D19*
X138734600Y-80010200D02*
X140512800Y-78232000D01*
X140512800Y-78232000D02*
X140512800Y-77266800D01*
D20*
%TO.N,UART_TX*%
X130454400Y-75336400D02*
X128574800Y-77216000D01*
X128574800Y-77216000D02*
X123901200Y-77216000D01*
X139039600Y-75336400D02*
X130454400Y-75336400D01*
%TO.N,SPI2_MOSI*%
X163372800Y-72136000D02*
X165658800Y-72136000D01*
X162204400Y-73304400D02*
X163372800Y-72136000D01*
%TO.N,SPI2_MISO*%
X162458400Y-74269600D02*
X162864800Y-74676000D01*
X162864800Y-74676000D02*
X165658800Y-74676000D01*
%TO.N,SPI2_SCK*%
X162407600Y-75488800D02*
X163931600Y-75488800D01*
X163931600Y-75488800D02*
X165658800Y-77216000D01*
%TO.N,PA10*%
X148488400Y-69748400D02*
X146999000Y-68259000D01*
X138617000Y-68259000D02*
X129794000Y-59436000D01*
X146999000Y-68259000D02*
X138617000Y-68259000D01*
X129794000Y-59436000D02*
X123901200Y-59436000D01*
%TO.N,PA9*%
X131622800Y-61976000D02*
X141494200Y-71847400D01*
X123901200Y-61976000D02*
X131622800Y-61976000D01*
X141494200Y-71847400D02*
X147456200Y-71847400D01*
X147456200Y-71847400D02*
X148996400Y-70307200D01*
%TO.N,PA8*%
X138773225Y-70803198D02*
X132486027Y-64516000D01*
X132486027Y-64516000D02*
X123901200Y-64516000D01*
X149098000Y-71069200D02*
X147869800Y-72297400D01*
X139813602Y-70803198D02*
X138773225Y-70803198D01*
X147869800Y-72297400D02*
X141307804Y-72297400D01*
X141307804Y-72297400D02*
X139813602Y-70803198D01*
%TO.N,PA5*%
X143052800Y-74879200D02*
X141674600Y-73501000D01*
X141674600Y-73501000D02*
X125266200Y-73501000D01*
X125266200Y-73501000D02*
X123901200Y-72136000D01*
%TO.N,PA4*%
X122726200Y-75851000D02*
X123901200Y-74676000D01*
X123881299Y-81397800D02*
X122726200Y-80242701D01*
X138769400Y-81397800D02*
X123881299Y-81397800D01*
X122726200Y-80242701D02*
X122726200Y-75851000D01*
X141020800Y-79146400D02*
X138769400Y-81397800D01*
%TO.N,PC6*%
X162619800Y-60646200D02*
X163830000Y-59436000D01*
X163830000Y-59436000D02*
X165658800Y-59436000D01*
X152603200Y-72491600D02*
X162619800Y-62475000D01*
X162619800Y-62475000D02*
X162619800Y-60646200D01*
%TO.N,PC7*%
X162169800Y-62214173D02*
X162169800Y-57591000D01*
X152755973Y-71628000D02*
X162169800Y-62214173D01*
X162864800Y-56896000D02*
X165658800Y-56896000D01*
X162169800Y-57591000D02*
X162864800Y-56896000D01*
X152654000Y-71628000D02*
X152755973Y-71628000D01*
%TO.N,SPI2_NSS*%
X164084000Y-79756000D02*
X165658800Y-79756000D01*
X162966400Y-76758800D02*
X162966400Y-78638400D01*
X162966400Y-78638400D02*
X164084000Y-79756000D01*
%TD*%
%TA.AperFunction,Conductor*%
%TO.N,GND*%
G36*
X150084149Y-45784048D02*
G01*
X150128001Y-45820963D01*
X150150565Y-45873655D01*
X150147020Y-45930866D01*
X150118124Y-45980370D01*
X150016682Y-46086758D01*
X150009415Y-46095999D01*
X149902228Y-46262785D01*
X149896836Y-46273243D01*
X149823150Y-46457301D01*
X149819837Y-46468584D01*
X149782317Y-46663265D01*
X149781200Y-46674966D01*
X149781200Y-46857774D01*
X149784650Y-46870649D01*
X149797526Y-46874100D01*
X151964874Y-46874100D01*
X151977749Y-46870649D01*
X151981200Y-46857774D01*
X151981200Y-46724650D01*
X151980919Y-46718760D01*
X151966796Y-46570857D01*
X151964569Y-46559306D01*
X151908712Y-46369073D01*
X151904346Y-46358167D01*
X151813495Y-46181940D01*
X151807135Y-46172044D01*
X151684582Y-46016205D01*
X151676459Y-46007686D01*
X151654332Y-45988513D01*
X151619983Y-45939789D01*
X151612342Y-45880666D01*
X151633175Y-45824809D01*
X151677667Y-45785130D01*
X151735534Y-45770800D01*
X157028381Y-45770800D01*
X157084149Y-45784048D01*
X157128001Y-45820963D01*
X157150565Y-45873655D01*
X157147020Y-45930866D01*
X157118124Y-45980370D01*
X157016682Y-46086758D01*
X157009415Y-46095999D01*
X156902228Y-46262785D01*
X156896836Y-46273243D01*
X156823150Y-46457301D01*
X156819837Y-46468584D01*
X156782317Y-46663265D01*
X156781200Y-46674966D01*
X156781200Y-46857774D01*
X156784650Y-46870649D01*
X156797526Y-46874100D01*
X158964874Y-46874100D01*
X158977749Y-46870649D01*
X158981200Y-46857774D01*
X158981200Y-46724650D01*
X158980919Y-46718760D01*
X158966796Y-46570857D01*
X158964569Y-46559306D01*
X158908712Y-46369073D01*
X158904346Y-46358167D01*
X158813495Y-46181940D01*
X158807135Y-46172044D01*
X158684582Y-46016205D01*
X158676459Y-46007686D01*
X158654332Y-45988513D01*
X158619983Y-45939789D01*
X158612342Y-45880666D01*
X158633175Y-45824809D01*
X158677667Y-45785130D01*
X158735534Y-45770800D01*
X162711838Y-45770800D01*
X162759291Y-45780239D01*
X162799519Y-45807119D01*
X164537026Y-47544626D01*
X164567927Y-47596053D01*
X164571067Y-47655967D01*
X164545711Y-47710343D01*
X164497796Y-47746450D01*
X164438538Y-47755835D01*
X164381810Y-47736302D01*
X164161266Y-47593079D01*
X164155645Y-47589833D01*
X163815883Y-47416716D01*
X163809959Y-47414079D01*
X163453955Y-47277421D01*
X163447802Y-47275422D01*
X163079462Y-47176726D01*
X163073120Y-47175378D01*
X162696491Y-47115726D01*
X162690048Y-47115049D01*
X162309244Y-47095092D01*
X162302756Y-47095092D01*
X161921951Y-47115049D01*
X161915508Y-47115726D01*
X161538879Y-47175378D01*
X161532537Y-47176726D01*
X161164197Y-47275422D01*
X161158044Y-47277421D01*
X160802040Y-47414079D01*
X160796116Y-47416716D01*
X160456354Y-47589833D01*
X160450733Y-47593079D01*
X160130939Y-47800756D01*
X160125678Y-47804578D01*
X159884194Y-48000127D01*
X159876305Y-48011393D01*
X159882971Y-48023418D01*
X165082580Y-53223027D01*
X165094606Y-53229693D01*
X165105870Y-53221806D01*
X165301425Y-52980315D01*
X165305242Y-52975061D01*
X165512920Y-52655266D01*
X165516166Y-52649645D01*
X165689283Y-52309883D01*
X165691920Y-52303959D01*
X165828578Y-51947955D01*
X165830577Y-51941802D01*
X165929273Y-51573462D01*
X165930621Y-51567120D01*
X165990273Y-51190491D01*
X165990950Y-51184048D01*
X166010908Y-50803244D01*
X166010908Y-50796756D01*
X165990950Y-50415951D01*
X165990273Y-50409508D01*
X165930621Y-50032879D01*
X165929273Y-50026537D01*
X165830577Y-49658197D01*
X165828578Y-49652044D01*
X165691920Y-49296040D01*
X165689283Y-49290116D01*
X165516166Y-48950354D01*
X165512920Y-48944733D01*
X165369697Y-48724189D01*
X165350164Y-48667461D01*
X165359549Y-48608203D01*
X165395656Y-48560288D01*
X165450032Y-48534932D01*
X165509946Y-48538072D01*
X165561373Y-48568973D01*
X167298881Y-50306481D01*
X167325761Y-50346709D01*
X167335200Y-50394162D01*
X167335200Y-85140238D01*
X167325761Y-85187691D01*
X167298881Y-85227919D01*
X166207263Y-86319535D01*
X166156663Y-86350180D01*
X166097623Y-86353894D01*
X166043581Y-86329833D01*
X166006837Y-86283473D01*
X165995752Y-86225364D01*
X166010908Y-85936188D01*
X166010908Y-85929700D01*
X165990950Y-85548895D01*
X165990273Y-85542452D01*
X165930621Y-85165823D01*
X165929273Y-85159481D01*
X165830577Y-84791141D01*
X165828578Y-84784988D01*
X165691920Y-84428984D01*
X165689283Y-84423060D01*
X165516166Y-84083298D01*
X165512920Y-84077677D01*
X165305242Y-83757882D01*
X165301425Y-83752628D01*
X165105869Y-83511135D01*
X165094606Y-83503249D01*
X165082580Y-83509915D01*
X162306000Y-86286497D01*
X159882971Y-88709524D01*
X159876305Y-88721550D01*
X159884191Y-88732813D01*
X160125684Y-88928369D01*
X160130938Y-88932186D01*
X160450733Y-89139864D01*
X160456354Y-89143110D01*
X160796116Y-89316227D01*
X160802040Y-89318864D01*
X161158044Y-89455522D01*
X161164197Y-89457521D01*
X161532537Y-89556217D01*
X161538879Y-89557565D01*
X161915508Y-89617217D01*
X161921951Y-89617894D01*
X162302756Y-89637852D01*
X162309244Y-89637852D01*
X162598420Y-89622696D01*
X162656529Y-89633781D01*
X162702889Y-89670525D01*
X162726950Y-89724567D01*
X162723236Y-89783607D01*
X162692591Y-89834207D01*
X161631619Y-90895181D01*
X161591391Y-90922061D01*
X161543938Y-90931500D01*
X127256562Y-90931500D01*
X127251437Y-90931394D01*
X127036874Y-90922519D01*
X127036590Y-90922507D01*
X126833778Y-90913652D01*
X126823849Y-90912818D01*
X126608716Y-90886001D01*
X126607868Y-90885892D01*
X126580069Y-90882232D01*
X126541411Y-90870505D01*
X126508574Y-90846974D01*
X125760978Y-90099378D01*
X140950300Y-90099378D01*
X140950301Y-90102672D01*
X140950653Y-90105950D01*
X140950654Y-90105961D01*
X140955879Y-90154568D01*
X140955880Y-90154573D01*
X140956709Y-90162283D01*
X140959419Y-90169549D01*
X140959420Y-90169553D01*
X140978294Y-90220155D01*
X141007004Y-90297131D01*
X141012318Y-90304230D01*
X141012319Y-90304231D01*
X141068167Y-90378835D01*
X141093254Y-90412346D01*
X141208469Y-90498596D01*
X141343317Y-90548891D01*
X141402927Y-90555300D01*
X143198672Y-90555299D01*
X143258283Y-90548891D01*
X143393131Y-90498596D01*
X143508346Y-90412346D01*
X143594596Y-90297131D01*
X143643610Y-90165716D01*
X143678589Y-90115337D01*
X143733434Y-90087884D01*
X143794727Y-90090073D01*
X143847473Y-90121368D01*
X143969399Y-90243295D01*
X143973831Y-90246398D01*
X143973833Y-90246400D01*
X144077927Y-90319287D01*
X144162970Y-90378835D01*
X144377137Y-90478703D01*
X144605392Y-90539863D01*
X144840800Y-90560459D01*
X145076208Y-90539863D01*
X145304463Y-90478703D01*
X145518630Y-90378835D01*
X145712201Y-90243295D01*
X145879295Y-90076201D01*
X146009224Y-89890642D01*
X146053543Y-89851776D01*
X146110800Y-89837765D01*
X146168057Y-89851776D01*
X146212375Y-89890642D01*
X146339195Y-90071761D01*
X146339201Y-90071768D01*
X146342305Y-90076201D01*
X146509399Y-90243295D01*
X146513831Y-90246398D01*
X146513833Y-90246400D01*
X146617927Y-90319287D01*
X146702970Y-90378835D01*
X146917137Y-90478703D01*
X147145392Y-90539863D01*
X147380800Y-90560459D01*
X147616208Y-90539863D01*
X147844463Y-90478703D01*
X148058630Y-90378835D01*
X148252201Y-90243295D01*
X148419295Y-90076201D01*
X148549530Y-89890205D01*
X148593848Y-89851340D01*
X148651105Y-89837329D01*
X148708362Y-89851340D01*
X148752680Y-89890205D01*
X148879584Y-90071443D01*
X148886521Y-90079709D01*
X149045890Y-90239078D01*
X149054156Y-90246015D01*
X149238791Y-90375298D01*
X149248123Y-90380686D01*
X149452402Y-90475943D01*
X149462536Y-90479631D01*
X149657019Y-90531743D01*
X149668248Y-90532111D01*
X149670800Y-90521169D01*
X150170800Y-90521169D01*
X150173351Y-90532111D01*
X150184580Y-90531743D01*
X150379063Y-90479631D01*
X150389197Y-90475943D01*
X150593476Y-90380686D01*
X150602808Y-90375298D01*
X150787443Y-90246015D01*
X150795709Y-90239078D01*
X150955078Y-90079709D01*
X150962015Y-90071443D01*
X151091298Y-89886808D01*
X151096686Y-89877476D01*
X151191943Y-89673197D01*
X151195631Y-89663063D01*
X151247743Y-89468580D01*
X151248111Y-89457351D01*
X151237169Y-89454800D01*
X150187126Y-89454800D01*
X150174250Y-89458250D01*
X150170800Y-89471126D01*
X150170800Y-90521169D01*
X149670800Y-90521169D01*
X149670800Y-88938474D01*
X150170800Y-88938474D01*
X150174250Y-88951349D01*
X150187126Y-88954800D01*
X151237169Y-88954800D01*
X151248111Y-88952248D01*
X151247743Y-88941019D01*
X151195631Y-88746536D01*
X151191943Y-88736402D01*
X151096689Y-88532132D01*
X151091291Y-88522782D01*
X150962015Y-88338157D01*
X150955080Y-88329892D01*
X150795709Y-88170521D01*
X150787443Y-88163584D01*
X150602808Y-88034301D01*
X150593476Y-88028913D01*
X150389197Y-87933656D01*
X150379063Y-87929968D01*
X150184580Y-87877856D01*
X150173351Y-87877488D01*
X150170800Y-87888431D01*
X150170800Y-88938474D01*
X149670800Y-88938474D01*
X149670800Y-87888431D01*
X149668248Y-87877488D01*
X149657019Y-87877856D01*
X149462536Y-87929968D01*
X149452402Y-87933656D01*
X149248132Y-88028910D01*
X149238782Y-88034308D01*
X149054157Y-88163584D01*
X149045892Y-88170519D01*
X148886519Y-88329892D01*
X148879588Y-88338152D01*
X148752680Y-88519396D01*
X148708362Y-88558261D01*
X148651105Y-88572272D01*
X148593848Y-88558261D01*
X148549530Y-88519395D01*
X148549225Y-88518959D01*
X148419295Y-88333399D01*
X148252201Y-88166305D01*
X148247770Y-88163202D01*
X148247766Y-88163199D01*
X148063059Y-88033866D01*
X148063057Y-88033864D01*
X148058630Y-88030765D01*
X148053733Y-88028481D01*
X148053727Y-88028478D01*
X147849372Y-87933186D01*
X147849370Y-87933185D01*
X147844463Y-87930897D01*
X147839238Y-87929497D01*
X147839230Y-87929494D01*
X147621434Y-87871137D01*
X147621430Y-87871136D01*
X147616208Y-87869737D01*
X147610820Y-87869265D01*
X147610817Y-87869265D01*
X147386195Y-87849613D01*
X147380800Y-87849141D01*
X147375405Y-87849613D01*
X147150782Y-87869265D01*
X147150777Y-87869265D01*
X147145392Y-87869737D01*
X147140171Y-87871135D01*
X147140165Y-87871137D01*
X146922369Y-87929494D01*
X146922357Y-87929498D01*
X146917137Y-87930897D01*
X146912232Y-87933183D01*
X146912227Y-87933186D01*
X146707881Y-88028475D01*
X146707877Y-88028477D01*
X146702971Y-88030765D01*
X146698538Y-88033868D01*
X146698531Y-88033873D01*
X146513834Y-88163199D01*
X146513829Y-88163202D01*
X146509399Y-88166305D01*
X146505575Y-88170128D01*
X146505569Y-88170134D01*
X146346134Y-88329569D01*
X146346128Y-88329575D01*
X146342305Y-88333399D01*
X146339202Y-88337829D01*
X146339199Y-88337834D01*
X146212375Y-88518959D01*
X146168057Y-88557825D01*
X146110800Y-88571836D01*
X146053543Y-88557825D01*
X146009225Y-88518959D01*
X145964340Y-88454856D01*
X145879295Y-88333399D01*
X145712201Y-88166305D01*
X145707770Y-88163202D01*
X145707766Y-88163199D01*
X145523059Y-88033866D01*
X145523057Y-88033864D01*
X145518630Y-88030765D01*
X145513733Y-88028481D01*
X145513727Y-88028478D01*
X145309372Y-87933186D01*
X145309370Y-87933185D01*
X145304463Y-87930897D01*
X145299238Y-87929497D01*
X145299230Y-87929494D01*
X145081434Y-87871137D01*
X145081430Y-87871136D01*
X145076208Y-87869737D01*
X145070820Y-87869265D01*
X145070817Y-87869265D01*
X144846195Y-87849613D01*
X144840800Y-87849141D01*
X144835405Y-87849613D01*
X144610782Y-87869265D01*
X144610777Y-87869265D01*
X144605392Y-87869737D01*
X144600171Y-87871135D01*
X144600165Y-87871137D01*
X144382369Y-87929494D01*
X144382357Y-87929498D01*
X144377137Y-87930897D01*
X144372232Y-87933183D01*
X144372227Y-87933186D01*
X144167881Y-88028475D01*
X144167877Y-88028477D01*
X144162971Y-88030765D01*
X144158538Y-88033868D01*
X144158531Y-88033873D01*
X143973834Y-88163199D01*
X143973829Y-88163202D01*
X143969399Y-88166305D01*
X143965574Y-88170129D01*
X143965575Y-88170129D01*
X143847473Y-88288231D01*
X143794726Y-88319526D01*
X143733433Y-88321715D01*
X143678589Y-88294262D01*
X143643610Y-88243882D01*
X143616104Y-88170136D01*
X143594596Y-88112469D01*
X143508346Y-87997254D01*
X143417830Y-87929494D01*
X143400231Y-87916319D01*
X143400230Y-87916318D01*
X143393131Y-87911004D01*
X143286242Y-87871137D01*
X143265552Y-87863420D01*
X143265550Y-87863419D01*
X143258283Y-87860709D01*
X143250570Y-87859879D01*
X143250567Y-87859879D01*
X143201980Y-87854655D01*
X143201969Y-87854654D01*
X143198673Y-87854300D01*
X143195350Y-87854300D01*
X141406239Y-87854300D01*
X141406220Y-87854300D01*
X141402928Y-87854301D01*
X141399650Y-87854653D01*
X141399638Y-87854654D01*
X141351031Y-87859879D01*
X141351025Y-87859880D01*
X141343317Y-87860709D01*
X141336052Y-87863418D01*
X141336046Y-87863420D01*
X141216780Y-87907904D01*
X141216778Y-87907904D01*
X141208469Y-87911004D01*
X141201372Y-87916316D01*
X141201368Y-87916319D01*
X141100350Y-87991941D01*
X141100346Y-87991944D01*
X141093254Y-87997254D01*
X141087944Y-88004346D01*
X141087941Y-88004350D01*
X141012319Y-88105368D01*
X141012316Y-88105372D01*
X141007004Y-88112469D01*
X141003904Y-88120778D01*
X141003904Y-88120780D01*
X140959420Y-88240047D01*
X140959419Y-88240050D01*
X140956709Y-88247317D01*
X140955879Y-88255027D01*
X140955879Y-88255032D01*
X140950655Y-88303619D01*
X140950654Y-88303631D01*
X140950300Y-88306927D01*
X140950300Y-88310248D01*
X140950300Y-88310249D01*
X140950300Y-90099360D01*
X140950300Y-90099378D01*
X125760978Y-90099378D01*
X124834812Y-89173212D01*
X124803911Y-89121785D01*
X124800771Y-89061871D01*
X124826127Y-89007495D01*
X124874042Y-88971388D01*
X124933300Y-88962003D01*
X124990028Y-88981536D01*
X125284733Y-89172920D01*
X125290354Y-89176166D01*
X125630116Y-89349283D01*
X125636040Y-89351920D01*
X125992044Y-89488578D01*
X125998197Y-89490577D01*
X126366537Y-89589273D01*
X126372879Y-89590621D01*
X126749508Y-89650273D01*
X126755951Y-89650950D01*
X127136756Y-89670908D01*
X127143244Y-89670908D01*
X127524048Y-89650950D01*
X127530491Y-89650273D01*
X127907120Y-89590621D01*
X127913462Y-89589273D01*
X128281802Y-89490577D01*
X128287955Y-89488578D01*
X128643959Y-89351920D01*
X128649883Y-89349283D01*
X128989645Y-89176166D01*
X128995266Y-89172920D01*
X129315061Y-88965242D01*
X129320315Y-88961425D01*
X129561806Y-88765870D01*
X129569693Y-88754606D01*
X129563027Y-88742580D01*
X126786447Y-85966000D01*
X127498431Y-85966000D01*
X127505095Y-85977542D01*
X129916580Y-88389027D01*
X129928606Y-88395693D01*
X129939870Y-88387806D01*
X130135425Y-88146315D01*
X130139242Y-88141061D01*
X130346920Y-87821266D01*
X130350170Y-87815638D01*
X130504952Y-87511859D01*
X130551043Y-87462184D01*
X130616365Y-87444156D01*
X130681410Y-87463160D01*
X130730415Y-87493952D01*
X130736310Y-87497656D01*
X130895941Y-87553513D01*
X131064000Y-87572449D01*
X131232059Y-87553513D01*
X131391690Y-87497656D01*
X131534890Y-87407677D01*
X131654477Y-87288090D01*
X131744456Y-87144890D01*
X131800313Y-86985259D01*
X131819249Y-86817200D01*
X131800313Y-86649141D01*
X131744456Y-86489510D01*
X131654477Y-86346310D01*
X131534890Y-86226723D01*
X131391690Y-86136744D01*
X131385124Y-86134446D01*
X131385121Y-86134445D01*
X131238633Y-86083187D01*
X131238630Y-86083186D01*
X131232059Y-86080887D01*
X131225142Y-86080107D01*
X131225135Y-86080106D01*
X131070923Y-86062731D01*
X131064000Y-86061951D01*
X131057077Y-86062731D01*
X131057076Y-86062731D01*
X130982185Y-86071169D01*
X130916458Y-86060591D01*
X130865674Y-86017545D01*
X130844472Y-85954439D01*
X130824950Y-85581951D01*
X130824273Y-85575508D01*
X130764621Y-85198879D01*
X130763273Y-85192537D01*
X130664577Y-84824197D01*
X130662578Y-84818044D01*
X130525920Y-84462040D01*
X130523283Y-84456116D01*
X130350166Y-84116354D01*
X130346920Y-84110733D01*
X130158115Y-83820000D01*
X132442351Y-83820000D01*
X132443131Y-83826923D01*
X132460506Y-83981135D01*
X132460507Y-83981142D01*
X132461287Y-83988059D01*
X132463586Y-83994630D01*
X132463587Y-83994633D01*
X132492645Y-84077677D01*
X132517144Y-84147690D01*
X132607123Y-84290890D01*
X132726710Y-84410477D01*
X132869910Y-84500456D01*
X133029541Y-84556313D01*
X133197600Y-84575249D01*
X133365659Y-84556313D01*
X133525290Y-84500456D01*
X133582504Y-84464505D01*
X133648476Y-84445500D01*
X139215825Y-84445500D01*
X139226880Y-84446021D01*
X139234267Y-84447673D01*
X139301472Y-84445561D01*
X139305368Y-84445500D01*
X139329048Y-84445500D01*
X139332950Y-84445500D01*
X139336913Y-84444999D01*
X139348563Y-84444080D01*
X139392227Y-84442709D01*
X139411461Y-84437119D01*
X139430517Y-84433174D01*
X139450392Y-84430664D01*
X139490995Y-84414587D01*
X139502050Y-84410802D01*
X139543990Y-84398618D01*
X139561229Y-84388422D01*
X139578703Y-84379862D01*
X139590074Y-84375360D01*
X139590076Y-84375358D01*
X139597332Y-84372486D01*
X139632669Y-84346811D01*
X139642424Y-84340403D01*
X139680020Y-84318170D01*
X139694184Y-84304005D01*
X139708979Y-84291368D01*
X139725187Y-84279594D01*
X139753028Y-84245938D01*
X139760879Y-84237309D01*
X143683389Y-80314800D01*
X146107551Y-80314800D01*
X146108331Y-80321723D01*
X146125706Y-80475935D01*
X146125707Y-80475942D01*
X146126487Y-80482859D01*
X146128786Y-80489430D01*
X146128787Y-80489433D01*
X146178404Y-80631232D01*
X146182344Y-80642490D01*
X146272323Y-80785690D01*
X146391910Y-80905277D01*
X146535110Y-80995256D01*
X146694741Y-81051113D01*
X146862800Y-81070049D01*
X147030859Y-81051113D01*
X147190490Y-80995256D01*
X147333690Y-80905277D01*
X147453277Y-80785690D01*
X147543256Y-80642490D01*
X147599113Y-80482859D01*
X147618049Y-80314800D01*
X147599113Y-80146741D01*
X147543256Y-79987110D01*
X147453277Y-79843910D01*
X147333690Y-79724323D01*
X147190490Y-79634344D01*
X147183924Y-79632046D01*
X147183921Y-79632045D01*
X147037433Y-79580787D01*
X147037430Y-79580786D01*
X147030859Y-79578487D01*
X147023942Y-79577707D01*
X147023935Y-79577706D01*
X146869723Y-79560331D01*
X146862800Y-79559551D01*
X146855877Y-79560331D01*
X146701664Y-79577706D01*
X146701655Y-79577707D01*
X146694741Y-79578487D01*
X146688171Y-79580785D01*
X146688166Y-79580787D01*
X146541678Y-79632045D01*
X146541672Y-79632047D01*
X146535110Y-79634344D01*
X146529219Y-79638045D01*
X146529218Y-79638046D01*
X146397810Y-79720615D01*
X146397805Y-79720618D01*
X146391910Y-79724323D01*
X146386985Y-79729247D01*
X146386981Y-79729251D01*
X146277251Y-79838981D01*
X146277247Y-79838985D01*
X146272323Y-79843910D01*
X146268618Y-79849805D01*
X146268615Y-79849810D01*
X146197124Y-79963588D01*
X146182344Y-79987110D01*
X146180047Y-79993672D01*
X146180045Y-79993678D01*
X146128787Y-80140166D01*
X146128785Y-80140171D01*
X146126487Y-80146741D01*
X146125707Y-80153655D01*
X146125706Y-80153664D01*
X146110139Y-80291831D01*
X146107551Y-80314800D01*
X143683389Y-80314800D01*
X144034603Y-79963586D01*
X144085199Y-79935629D01*
X144084459Y-79933513D01*
X144084459Y-79933512D01*
X144244090Y-79877656D01*
X144387290Y-79787677D01*
X144506877Y-79668090D01*
X144596856Y-79524890D01*
X144652713Y-79365259D01*
X144666915Y-79239214D01*
X144670869Y-79204123D01*
X144671649Y-79197200D01*
X144652713Y-79029141D01*
X144596856Y-78869510D01*
X144506877Y-78726310D01*
X144387290Y-78606723D01*
X144244090Y-78516744D01*
X144237524Y-78514446D01*
X144237521Y-78514445D01*
X144091033Y-78463187D01*
X144091030Y-78463186D01*
X144084459Y-78460887D01*
X144077542Y-78460107D01*
X144077535Y-78460106D01*
X143923323Y-78442731D01*
X143916400Y-78441951D01*
X143909477Y-78442731D01*
X143755264Y-78460106D01*
X143755255Y-78460107D01*
X143748341Y-78460887D01*
X143741771Y-78463185D01*
X143741766Y-78463187D01*
X143595278Y-78514445D01*
X143595272Y-78514447D01*
X143588710Y-78516744D01*
X143582819Y-78520445D01*
X143582818Y-78520446D01*
X143451410Y-78603015D01*
X143451405Y-78603018D01*
X143445510Y-78606723D01*
X143440585Y-78611647D01*
X143440581Y-78611651D01*
X143330851Y-78721381D01*
X143330847Y-78721385D01*
X143325923Y-78726310D01*
X143322218Y-78732205D01*
X143322215Y-78732210D01*
X143243206Y-78857953D01*
X143235944Y-78869510D01*
X143233647Y-78876072D01*
X143233645Y-78876078D01*
X143180087Y-79029141D01*
X143177976Y-79028402D01*
X143150012Y-79078995D01*
X139070828Y-83158181D01*
X139030600Y-83185061D01*
X138983147Y-83194500D01*
X133648476Y-83194500D01*
X133582504Y-83175494D01*
X133531182Y-83143246D01*
X133531180Y-83143245D01*
X133525290Y-83139544D01*
X133518724Y-83137246D01*
X133518721Y-83137245D01*
X133372233Y-83085987D01*
X133372230Y-83085986D01*
X133365659Y-83083687D01*
X133358742Y-83082907D01*
X133358735Y-83082906D01*
X133204523Y-83065531D01*
X133197600Y-83064751D01*
X133190677Y-83065531D01*
X133036464Y-83082906D01*
X133036455Y-83082907D01*
X133029541Y-83083687D01*
X133022971Y-83085985D01*
X133022966Y-83085987D01*
X132876478Y-83137245D01*
X132876472Y-83137247D01*
X132869910Y-83139544D01*
X132864019Y-83143245D01*
X132864018Y-83143246D01*
X132732610Y-83225815D01*
X132732605Y-83225818D01*
X132726710Y-83229523D01*
X132721785Y-83234447D01*
X132721781Y-83234451D01*
X132612051Y-83344181D01*
X132612047Y-83344185D01*
X132607123Y-83349110D01*
X132603418Y-83355005D01*
X132603415Y-83355010D01*
X132520846Y-83486418D01*
X132517144Y-83492310D01*
X132514847Y-83498872D01*
X132514845Y-83498878D01*
X132463587Y-83645366D01*
X132463585Y-83645371D01*
X132461287Y-83651941D01*
X132460507Y-83658855D01*
X132460506Y-83658864D01*
X132443924Y-83806038D01*
X132442351Y-83820000D01*
X130158115Y-83820000D01*
X130139242Y-83790938D01*
X130135425Y-83785684D01*
X129939869Y-83544191D01*
X129928606Y-83536305D01*
X129916580Y-83542971D01*
X127505095Y-85954457D01*
X127498431Y-85966000D01*
X126786447Y-85966000D01*
X124363418Y-83542971D01*
X124351393Y-83536305D01*
X124340127Y-83544194D01*
X124144578Y-83785678D01*
X124140756Y-83790939D01*
X123933079Y-84110733D01*
X123929833Y-84116354D01*
X123756716Y-84456116D01*
X123754079Y-84462040D01*
X123617421Y-84818044D01*
X123615422Y-84824197D01*
X123516726Y-85192537D01*
X123515378Y-85198879D01*
X123455726Y-85575508D01*
X123455049Y-85581951D01*
X123435092Y-85962756D01*
X123435092Y-85969244D01*
X123455049Y-86350048D01*
X123455726Y-86356491D01*
X123515378Y-86733120D01*
X123516726Y-86739462D01*
X123615422Y-87107802D01*
X123617421Y-87113955D01*
X123754079Y-87469959D01*
X123756716Y-87475883D01*
X123929833Y-87815645D01*
X123933079Y-87821266D01*
X124124463Y-88115971D01*
X124143996Y-88172699D01*
X124134611Y-88231957D01*
X124098504Y-88279872D01*
X124044128Y-88305228D01*
X123984214Y-88302088D01*
X123932787Y-88271187D01*
X122261119Y-86599519D01*
X122234239Y-86559291D01*
X122224800Y-86511838D01*
X122224800Y-80925253D01*
X122238315Y-80868958D01*
X122275915Y-80824935D01*
X122329402Y-80802780D01*
X122387118Y-80807322D01*
X122436481Y-80837572D01*
X123384006Y-81785097D01*
X123391455Y-81793283D01*
X123395513Y-81799677D01*
X123401198Y-81805015D01*
X123401200Y-81805018D01*
X123444538Y-81845715D01*
X123447334Y-81848425D01*
X123466829Y-81867920D01*
X123469914Y-81870313D01*
X123470000Y-81870380D01*
X123478872Y-81877958D01*
X123492179Y-81890454D01*
X123510717Y-81907862D01*
X123517547Y-81911617D01*
X123517550Y-81911619D01*
X123528270Y-81917512D01*
X123544521Y-81928186D01*
X123560363Y-81940474D01*
X123567520Y-81943571D01*
X123567522Y-81943572D01*
X123600454Y-81957822D01*
X123610949Y-81962964D01*
X123649207Y-81983997D01*
X123668611Y-81988979D01*
X123687013Y-81995280D01*
X123698240Y-82000138D01*
X123705404Y-82003238D01*
X123742996Y-82009191D01*
X123748538Y-82010069D01*
X123759981Y-82012439D01*
X123794724Y-82021360D01*
X123794725Y-82021360D01*
X123802280Y-82023300D01*
X123822316Y-82023300D01*
X123841701Y-82024825D01*
X123861495Y-82027960D01*
X123899575Y-82024360D01*
X123904975Y-82023850D01*
X123916644Y-82023300D01*
X126938732Y-82023300D01*
X126999793Y-82039376D01*
X127045021Y-82083435D01*
X127062690Y-82144054D01*
X127048218Y-82205514D01*
X127005357Y-82251881D01*
X126945222Y-82271130D01*
X126755951Y-82281049D01*
X126749508Y-82281726D01*
X126372879Y-82341378D01*
X126366537Y-82342726D01*
X125998197Y-82441422D01*
X125992044Y-82443421D01*
X125636040Y-82580079D01*
X125630116Y-82582716D01*
X125290354Y-82755833D01*
X125284733Y-82759079D01*
X124964939Y-82966756D01*
X124959678Y-82970578D01*
X124718194Y-83166127D01*
X124710305Y-83177393D01*
X124716971Y-83189418D01*
X127128457Y-85600904D01*
X127139999Y-85607568D01*
X127151542Y-85600904D01*
X129563027Y-83189418D01*
X129569693Y-83177392D01*
X129561807Y-83166129D01*
X129320315Y-82970574D01*
X129315061Y-82966757D01*
X128995266Y-82759079D01*
X128989645Y-82755833D01*
X128649883Y-82582716D01*
X128643959Y-82580079D01*
X128287955Y-82443421D01*
X128281802Y-82441422D01*
X127913462Y-82342726D01*
X127907120Y-82341378D01*
X127530491Y-82281726D01*
X127524048Y-82281049D01*
X127334778Y-82271130D01*
X127274643Y-82251881D01*
X127231782Y-82205514D01*
X127217310Y-82144054D01*
X127234979Y-82083435D01*
X127280207Y-82039376D01*
X127341268Y-82023300D01*
X138691625Y-82023300D01*
X138702680Y-82023821D01*
X138710067Y-82025473D01*
X138777272Y-82023361D01*
X138781168Y-82023300D01*
X138804848Y-82023300D01*
X138808750Y-82023300D01*
X138812713Y-82022799D01*
X138824363Y-82021880D01*
X138868027Y-82020509D01*
X138887261Y-82014919D01*
X138906317Y-82010974D01*
X138926192Y-82008464D01*
X138966795Y-81992387D01*
X138977850Y-81988602D01*
X139019790Y-81976418D01*
X139037029Y-81966222D01*
X139054503Y-81957662D01*
X139065874Y-81953160D01*
X139065876Y-81953158D01*
X139073132Y-81950286D01*
X139108469Y-81924611D01*
X139118224Y-81918203D01*
X139155820Y-81895970D01*
X139169984Y-81881805D01*
X139184779Y-81869168D01*
X139200987Y-81857394D01*
X139228828Y-81823738D01*
X139236679Y-81815109D01*
X141139003Y-79912786D01*
X141189599Y-79884829D01*
X141188859Y-79882713D01*
X141238368Y-79865389D01*
X141348490Y-79826856D01*
X141491690Y-79736877D01*
X141611277Y-79617290D01*
X141701256Y-79474090D01*
X141757113Y-79314459D01*
X141776049Y-79146400D01*
X141774257Y-79130500D01*
X141757893Y-78985264D01*
X141757113Y-78978341D01*
X141701256Y-78818710D01*
X141611277Y-78675510D01*
X141543367Y-78607599D01*
X141514006Y-78560874D01*
X141507828Y-78506036D01*
X141526054Y-78453947D01*
X141565076Y-78414925D01*
X141571087Y-78411148D01*
X141644090Y-78365277D01*
X141763677Y-78245690D01*
X141853656Y-78102490D01*
X141909513Y-77942859D01*
X141928449Y-77774800D01*
X141909513Y-77606741D01*
X141853656Y-77447110D01*
X141763677Y-77303910D01*
X141644090Y-77184323D01*
X141500890Y-77094344D01*
X141494324Y-77092046D01*
X141494321Y-77092045D01*
X141347833Y-77040787D01*
X141347830Y-77040786D01*
X141341259Y-77038487D01*
X141326897Y-77036868D01*
X141300803Y-77033928D01*
X141237372Y-77007652D01*
X141197646Y-76951658D01*
X141193256Y-76939110D01*
X141181207Y-76919935D01*
X141106984Y-76801810D01*
X141103277Y-76795910D01*
X140983690Y-76676323D01*
X140840490Y-76586344D01*
X140833924Y-76584046D01*
X140833921Y-76584045D01*
X140687433Y-76532787D01*
X140687430Y-76532786D01*
X140680859Y-76530487D01*
X140673942Y-76529707D01*
X140673935Y-76529706D01*
X140519723Y-76512331D01*
X140512800Y-76511551D01*
X140505877Y-76512331D01*
X140351664Y-76529706D01*
X140351655Y-76529707D01*
X140344741Y-76530487D01*
X140338171Y-76532785D01*
X140338166Y-76532787D01*
X140191678Y-76584045D01*
X140191672Y-76584047D01*
X140185110Y-76586344D01*
X140179219Y-76590045D01*
X140179218Y-76590046D01*
X140047810Y-76672615D01*
X140047805Y-76672618D01*
X140041910Y-76676323D01*
X140036985Y-76681247D01*
X140036981Y-76681251D01*
X139927251Y-76790981D01*
X139927247Y-76790985D01*
X139922323Y-76795910D01*
X139918618Y-76801805D01*
X139918615Y-76801810D01*
X139840042Y-76926859D01*
X139832344Y-76939110D01*
X139830047Y-76945672D01*
X139830045Y-76945678D01*
X139778787Y-77092166D01*
X139778785Y-77092171D01*
X139776487Y-77098741D01*
X139775707Y-77105655D01*
X139775706Y-77105664D01*
X139763275Y-77216000D01*
X139757551Y-77266800D01*
X139758331Y-77273723D01*
X139775706Y-77427935D01*
X139775707Y-77427942D01*
X139776487Y-77434859D01*
X139778786Y-77441430D01*
X139778787Y-77441433D01*
X139801164Y-77505384D01*
X139832344Y-77594490D01*
X139893294Y-77691491D01*
X139912300Y-77757463D01*
X139912300Y-77931903D01*
X139902861Y-77979356D01*
X139875981Y-78019584D01*
X138547184Y-79348381D01*
X138506956Y-79375261D01*
X138459503Y-79384700D01*
X132898218Y-79384700D01*
X132840277Y-79370330D01*
X132795764Y-79330552D01*
X132774998Y-79274583D01*
X132768057Y-79212981D01*
X132764976Y-79199482D01*
X132710034Y-79042465D01*
X132705384Y-79032811D01*
X132698616Y-79026042D01*
X132689180Y-79031971D01*
X132372772Y-79348381D01*
X132332544Y-79375261D01*
X132285091Y-79384700D01*
X131679709Y-79384700D01*
X131632256Y-79375261D01*
X131592028Y-79348381D01*
X131493942Y-79250295D01*
X131482400Y-79243631D01*
X131470857Y-79250295D01*
X131372772Y-79348381D01*
X131332544Y-79375261D01*
X131285091Y-79384700D01*
X130679709Y-79384700D01*
X130632256Y-79375261D01*
X130592028Y-79348381D01*
X130275619Y-79031972D01*
X130266183Y-79026043D01*
X130259413Y-79032813D01*
X130254766Y-79042464D01*
X130199823Y-79199482D01*
X130196742Y-79212981D01*
X130189802Y-79274583D01*
X130169036Y-79330552D01*
X130124523Y-79370330D01*
X130066582Y-79384700D01*
X125295000Y-79384700D01*
X125242581Y-79373076D01*
X125199990Y-79340382D01*
X125180046Y-79302039D01*
X125178356Y-79302655D01*
X125176505Y-79297569D01*
X125175103Y-79292337D01*
X125075235Y-79078171D01*
X124939695Y-78884599D01*
X124772601Y-78717505D01*
X124768168Y-78714401D01*
X124768161Y-78714395D01*
X124703305Y-78668983D01*
X130623243Y-78668983D01*
X130629172Y-78678419D01*
X130970857Y-79020104D01*
X130982400Y-79026768D01*
X130993942Y-79020104D01*
X131335628Y-78678417D01*
X131341555Y-78668983D01*
X131623243Y-78668983D01*
X131629172Y-78678419D01*
X131970857Y-79020104D01*
X131982400Y-79026768D01*
X131993942Y-79020104D01*
X132335628Y-78678417D01*
X132341556Y-78668982D01*
X132334789Y-78662215D01*
X132325131Y-78657564D01*
X132168117Y-78602623D01*
X132154619Y-78599542D01*
X131989323Y-78580918D01*
X131975477Y-78580918D01*
X131810180Y-78599542D01*
X131796682Y-78602623D01*
X131639664Y-78657566D01*
X131630013Y-78662213D01*
X131623243Y-78668983D01*
X131341555Y-78668983D01*
X131341556Y-78668982D01*
X131334789Y-78662215D01*
X131325131Y-78657564D01*
X131168117Y-78602623D01*
X131154619Y-78599542D01*
X130989323Y-78580918D01*
X130975477Y-78580918D01*
X130810180Y-78599542D01*
X130796682Y-78602623D01*
X130639664Y-78657566D01*
X130630013Y-78662213D01*
X130623243Y-78668983D01*
X124703305Y-78668983D01*
X124587042Y-78587575D01*
X124548176Y-78543257D01*
X124534165Y-78486000D01*
X124548176Y-78428743D01*
X124587042Y-78384425D01*
X124768161Y-78257604D01*
X124768161Y-78257603D01*
X124772601Y-78254495D01*
X124939695Y-78087401D01*
X125038833Y-77945818D01*
X125074853Y-77894376D01*
X125119171Y-77855511D01*
X125176428Y-77841500D01*
X128276066Y-77841500D01*
X128329869Y-77853781D01*
X128373015Y-77888190D01*
X128396659Y-77937294D01*
X128397287Y-77942859D01*
X128399583Y-77949421D01*
X128399585Y-77949429D01*
X128450845Y-78095921D01*
X128453144Y-78102490D01*
X128543123Y-78245690D01*
X128662710Y-78365277D01*
X128805910Y-78455256D01*
X128965541Y-78511113D01*
X129133600Y-78530049D01*
X129301659Y-78511113D01*
X129461290Y-78455256D01*
X129604490Y-78365277D01*
X129724077Y-78245690D01*
X129814056Y-78102490D01*
X129869913Y-77942859D01*
X129888849Y-77774800D01*
X129869913Y-77606741D01*
X129822066Y-77470000D01*
X133102751Y-77470000D01*
X133103531Y-77476923D01*
X133120906Y-77631135D01*
X133120907Y-77631142D01*
X133121687Y-77638059D01*
X133123986Y-77644630D01*
X133123987Y-77644633D01*
X133170569Y-77777758D01*
X133177544Y-77797690D01*
X133267523Y-77940890D01*
X133387110Y-78060477D01*
X133530310Y-78150456D01*
X133689941Y-78206313D01*
X133858000Y-78225249D01*
X134026059Y-78206313D01*
X134185690Y-78150456D01*
X134328890Y-78060477D01*
X134448477Y-77940890D01*
X134538456Y-77797690D01*
X134594313Y-77638059D01*
X134613249Y-77470000D01*
X134609289Y-77434859D01*
X134602654Y-77375967D01*
X134594313Y-77301941D01*
X134538456Y-77142310D01*
X134448477Y-76999110D01*
X134328890Y-76879523D01*
X134185690Y-76789544D01*
X134179124Y-76787246D01*
X134179121Y-76787245D01*
X134032633Y-76735987D01*
X134032630Y-76735986D01*
X134026059Y-76733687D01*
X134019142Y-76732907D01*
X134019135Y-76732906D01*
X133864923Y-76715531D01*
X133858000Y-76714751D01*
X133851077Y-76715531D01*
X133696864Y-76732906D01*
X133696855Y-76732907D01*
X133689941Y-76733687D01*
X133683371Y-76735985D01*
X133683366Y-76735987D01*
X133536878Y-76787245D01*
X133536872Y-76787247D01*
X133530310Y-76789544D01*
X133524419Y-76793245D01*
X133524418Y-76793246D01*
X133393010Y-76875815D01*
X133393005Y-76875818D01*
X133387110Y-76879523D01*
X133382185Y-76884447D01*
X133382181Y-76884451D01*
X133272451Y-76994181D01*
X133272447Y-76994185D01*
X133267523Y-76999110D01*
X133263818Y-77005005D01*
X133263815Y-77005010D01*
X133181246Y-77136418D01*
X133177544Y-77142310D01*
X133175247Y-77148872D01*
X133175245Y-77148878D01*
X133123987Y-77295366D01*
X133123985Y-77295371D01*
X133121687Y-77301941D01*
X133120907Y-77308855D01*
X133120906Y-77308864D01*
X133105453Y-77446017D01*
X133102751Y-77470000D01*
X129822066Y-77470000D01*
X129814056Y-77447110D01*
X129724077Y-77303910D01*
X129635459Y-77215292D01*
X129603365Y-77159705D01*
X129603365Y-77095517D01*
X129635459Y-77039930D01*
X129859451Y-76815939D01*
X130677171Y-75998219D01*
X130717400Y-75971339D01*
X130764853Y-75961900D01*
X138588724Y-75961900D01*
X138654695Y-75980905D01*
X138711910Y-76016856D01*
X138871541Y-76072713D01*
X139039600Y-76091649D01*
X139207659Y-76072713D01*
X139367290Y-76016856D01*
X139510490Y-75926877D01*
X139630077Y-75807290D01*
X139720056Y-75664090D01*
X139775913Y-75504459D01*
X139792885Y-75353830D01*
X139794069Y-75343323D01*
X139794849Y-75336400D01*
X139775913Y-75168341D01*
X139720056Y-75008710D01*
X139630077Y-74865510D01*
X139510490Y-74745923D01*
X139501843Y-74740490D01*
X139455554Y-74711404D01*
X139367290Y-74655944D01*
X139360724Y-74653646D01*
X139360721Y-74653645D01*
X139214233Y-74602387D01*
X139214230Y-74602386D01*
X139207659Y-74600087D01*
X139200742Y-74599307D01*
X139200735Y-74599306D01*
X139046523Y-74581931D01*
X139039600Y-74581151D01*
X139032677Y-74581931D01*
X138878464Y-74599306D01*
X138878455Y-74599307D01*
X138871541Y-74600087D01*
X138864971Y-74602385D01*
X138864966Y-74602387D01*
X138718478Y-74653645D01*
X138718472Y-74653647D01*
X138711910Y-74655944D01*
X138706022Y-74659643D01*
X138706017Y-74659646D01*
X138654696Y-74691894D01*
X138588724Y-74710900D01*
X130532175Y-74710900D01*
X130521119Y-74710378D01*
X130513733Y-74708727D01*
X130505945Y-74708971D01*
X130505938Y-74708971D01*
X130446527Y-74710839D01*
X130442632Y-74710900D01*
X130415050Y-74710900D01*
X130411205Y-74711385D01*
X130411180Y-74711387D01*
X130411053Y-74711404D01*
X130399434Y-74712318D01*
X130363572Y-74713445D01*
X130363565Y-74713446D01*
X130355773Y-74713691D01*
X130348288Y-74715865D01*
X130348272Y-74715868D01*
X130336526Y-74719281D01*
X130317483Y-74723225D01*
X130305349Y-74724758D01*
X130305348Y-74724758D01*
X130297608Y-74725736D01*
X130290358Y-74728605D01*
X130290351Y-74728608D01*
X130256998Y-74741813D01*
X130245954Y-74745594D01*
X130211501Y-74755604D01*
X130211490Y-74755608D01*
X130204010Y-74757782D01*
X130197298Y-74761751D01*
X130197296Y-74761752D01*
X130186764Y-74767980D01*
X130169304Y-74776534D01*
X130157919Y-74781042D01*
X130157913Y-74781044D01*
X130150668Y-74783914D01*
X130144363Y-74788494D01*
X130144355Y-74788499D01*
X130115332Y-74809585D01*
X130105574Y-74815995D01*
X130074696Y-74834257D01*
X130074690Y-74834261D01*
X130067980Y-74838230D01*
X130062467Y-74843741D01*
X130062460Y-74843748D01*
X130053810Y-74852398D01*
X130039027Y-74865024D01*
X130029126Y-74872217D01*
X130029116Y-74872226D01*
X130022813Y-74876806D01*
X130017844Y-74882811D01*
X130017841Y-74882815D01*
X129994972Y-74910459D01*
X129987111Y-74919097D01*
X129789114Y-75117094D01*
X129737272Y-75148121D01*
X129676922Y-75150966D01*
X129622391Y-75124956D01*
X129586624Y-75076263D01*
X129578113Y-75016449D01*
X129581181Y-74987265D01*
X129581181Y-74987260D01*
X129581860Y-74980800D01*
X129562074Y-74792544D01*
X129503579Y-74612516D01*
X129408933Y-74448584D01*
X129305282Y-74333469D01*
X129278003Y-74283846D01*
X129275631Y-74227265D01*
X129298665Y-74175530D01*
X129342300Y-74139432D01*
X129397435Y-74126500D01*
X141364148Y-74126500D01*
X141411601Y-74135939D01*
X141451829Y-74162819D01*
X142286411Y-74997401D01*
X142314378Y-75047996D01*
X142316487Y-75047259D01*
X142361277Y-75175264D01*
X142372344Y-75206890D01*
X142462323Y-75350090D01*
X142581910Y-75469677D01*
X142725110Y-75559656D01*
X142884741Y-75615513D01*
X143052800Y-75634449D01*
X143220859Y-75615513D01*
X143380490Y-75559656D01*
X143523690Y-75469677D01*
X143643277Y-75350090D01*
X143733256Y-75206890D01*
X143789113Y-75047259D01*
X143789293Y-75045658D01*
X143821457Y-74987457D01*
X143879658Y-74955293D01*
X143881259Y-74955113D01*
X144040890Y-74899256D01*
X144184090Y-74809277D01*
X144303677Y-74689690D01*
X144393656Y-74546490D01*
X144449513Y-74386859D01*
X144457944Y-74312024D01*
X144484217Y-74248597D01*
X144540206Y-74208869D01*
X144565710Y-74199945D01*
X144634252Y-74196097D01*
X144694340Y-74229307D01*
X144766310Y-74301277D01*
X144909510Y-74391256D01*
X145069141Y-74447113D01*
X145237200Y-74466049D01*
X145405259Y-74447113D01*
X145564890Y-74391256D01*
X145708090Y-74301277D01*
X145709607Y-74303692D01*
X145752957Y-74283993D01*
X145815157Y-74289120D01*
X145831141Y-74294713D01*
X145964253Y-74309711D01*
X146016339Y-74327936D01*
X146055361Y-74366956D01*
X146073589Y-74419041D01*
X146075687Y-74437659D01*
X146077986Y-74444230D01*
X146077987Y-74444233D01*
X146126169Y-74581931D01*
X146131544Y-74597290D01*
X146221523Y-74740490D01*
X146341110Y-74860077D01*
X146484310Y-74950056D01*
X146643941Y-75005913D01*
X146650864Y-75006693D01*
X146802778Y-75023810D01*
X146812000Y-75024849D01*
X146821222Y-75023810D01*
X146886551Y-75016449D01*
X146980059Y-75005913D01*
X147139690Y-74950056D01*
X147282890Y-74860077D01*
X147402477Y-74740490D01*
X147492456Y-74597290D01*
X147548313Y-74437659D01*
X147567249Y-74269600D01*
X147564882Y-74248597D01*
X147549093Y-74108464D01*
X147548313Y-74101541D01*
X147492456Y-73941910D01*
X147402477Y-73798710D01*
X147282890Y-73679123D01*
X147272015Y-73672290D01*
X147217413Y-73637981D01*
X147139690Y-73589144D01*
X147133124Y-73586846D01*
X147133121Y-73586845D01*
X146986633Y-73535587D01*
X146986630Y-73535586D01*
X146980059Y-73533287D01*
X146973142Y-73532507D01*
X146973135Y-73532506D01*
X146846945Y-73518288D01*
X146794855Y-73500061D01*
X146755833Y-73461037D01*
X146737609Y-73408951D01*
X146735513Y-73390341D01*
X146679656Y-73230710D01*
X146605612Y-73112871D01*
X146586656Y-73050378D01*
X146602079Y-72986919D01*
X146647606Y-72940097D01*
X146710607Y-72922900D01*
X147792025Y-72922900D01*
X147803080Y-72923421D01*
X147810467Y-72925073D01*
X147877672Y-72922961D01*
X147881568Y-72922900D01*
X147905248Y-72922900D01*
X147909150Y-72922900D01*
X147913113Y-72922399D01*
X147924763Y-72921480D01*
X147968427Y-72920109D01*
X147987661Y-72914519D01*
X148006717Y-72910574D01*
X148026592Y-72908064D01*
X148067195Y-72891987D01*
X148078250Y-72888202D01*
X148120190Y-72876018D01*
X148137429Y-72865822D01*
X148154903Y-72857262D01*
X148166274Y-72852760D01*
X148166276Y-72852758D01*
X148173532Y-72849886D01*
X148208869Y-72824211D01*
X148218619Y-72817806D01*
X148234584Y-72808364D01*
X148296730Y-72791104D01*
X148359139Y-72807391D01*
X148404925Y-72852820D01*
X148421700Y-72915100D01*
X148421700Y-83915947D01*
X148412261Y-83963400D01*
X148385381Y-84003628D01*
X147414564Y-84974443D01*
X147380686Y-84998482D01*
X147340769Y-85009982D01*
X147311256Y-85013307D01*
X147311248Y-85013308D01*
X147304341Y-85014087D01*
X147297774Y-85016384D01*
X147297773Y-85016385D01*
X147151278Y-85067645D01*
X147151272Y-85067647D01*
X147144710Y-85069944D01*
X147138819Y-85073645D01*
X147138818Y-85073646D01*
X147007410Y-85156215D01*
X147007405Y-85156218D01*
X147001510Y-85159923D01*
X146996585Y-85164847D01*
X146996581Y-85164851D01*
X146886851Y-85274581D01*
X146886847Y-85274585D01*
X146881923Y-85279510D01*
X146878218Y-85285405D01*
X146878215Y-85285410D01*
X146795646Y-85416818D01*
X146791944Y-85422710D01*
X146789647Y-85429272D01*
X146789645Y-85429278D01*
X146738387Y-85575766D01*
X146738385Y-85575771D01*
X146736087Y-85582341D01*
X146735307Y-85589255D01*
X146735306Y-85589264D01*
X146725626Y-85675184D01*
X146704860Y-85731152D01*
X146660347Y-85770930D01*
X146602406Y-85785300D01*
X146411252Y-85785300D01*
X146363799Y-85775861D01*
X146323571Y-85748981D01*
X145489262Y-84914672D01*
X144635671Y-84061080D01*
X144635668Y-84061078D01*
X144616882Y-84042291D01*
X144609441Y-84034112D01*
X144605386Y-84027723D01*
X144556372Y-83981696D01*
X144553575Y-83978985D01*
X144536826Y-83962235D01*
X144536824Y-83962234D01*
X144534071Y-83959480D01*
X144530997Y-83957095D01*
X144530991Y-83957090D01*
X144530890Y-83957012D01*
X144522014Y-83949430D01*
X144495869Y-83924878D01*
X144495867Y-83924876D01*
X144490182Y-83919538D01*
X144483349Y-83915782D01*
X144483343Y-83915777D01*
X144472625Y-83909885D01*
X144456366Y-83899206D01*
X144446695Y-83891704D01*
X144446692Y-83891702D01*
X144440536Y-83886927D01*
X144433379Y-83883829D01*
X144433376Y-83883828D01*
X144400449Y-83869578D01*
X144389963Y-83864441D01*
X144358532Y-83847162D01*
X144358523Y-83847158D01*
X144351692Y-83843403D01*
X144344135Y-83841462D01*
X144344131Y-83841461D01*
X144332288Y-83838420D01*
X144313884Y-83832119D01*
X144302657Y-83827260D01*
X144302650Y-83827258D01*
X144295496Y-83824162D01*
X144287792Y-83822941D01*
X144287790Y-83822941D01*
X144252359Y-83817329D01*
X144240924Y-83814961D01*
X144206171Y-83806038D01*
X144206163Y-83806037D01*
X144198619Y-83804100D01*
X144190823Y-83804100D01*
X144178583Y-83804100D01*
X144159197Y-83802574D01*
X144139404Y-83799440D01*
X144131638Y-83800174D01*
X144131635Y-83800174D01*
X144095924Y-83803550D01*
X144084255Y-83804100D01*
X143859276Y-83804100D01*
X143793304Y-83785094D01*
X143741982Y-83752846D01*
X143741980Y-83752845D01*
X143736090Y-83749144D01*
X143729524Y-83746846D01*
X143729521Y-83746845D01*
X143583033Y-83695587D01*
X143583030Y-83695586D01*
X143576459Y-83693287D01*
X143569542Y-83692507D01*
X143569535Y-83692506D01*
X143415323Y-83675131D01*
X143408400Y-83674351D01*
X143401477Y-83675131D01*
X143247264Y-83692506D01*
X143247255Y-83692507D01*
X143240341Y-83693287D01*
X143233771Y-83695585D01*
X143233766Y-83695587D01*
X143087278Y-83746845D01*
X143087272Y-83746847D01*
X143080710Y-83749144D01*
X143074819Y-83752845D01*
X143074818Y-83752846D01*
X142943410Y-83835415D01*
X142943405Y-83835418D01*
X142937510Y-83839123D01*
X142932585Y-83844047D01*
X142932581Y-83844051D01*
X142822851Y-83953781D01*
X142822847Y-83953785D01*
X142817923Y-83958710D01*
X142814218Y-83964605D01*
X142814215Y-83964610D01*
X142731646Y-84096018D01*
X142727944Y-84101910D01*
X142725647Y-84108472D01*
X142725645Y-84108478D01*
X142674387Y-84254966D01*
X142674385Y-84254971D01*
X142672087Y-84261541D01*
X142671307Y-84268455D01*
X142671306Y-84268464D01*
X142653931Y-84422677D01*
X142653151Y-84429600D01*
X142653931Y-84436523D01*
X142671306Y-84590735D01*
X142671307Y-84590742D01*
X142672087Y-84597659D01*
X142674386Y-84604230D01*
X142674387Y-84604233D01*
X142712899Y-84714296D01*
X142727944Y-84757290D01*
X142817923Y-84900490D01*
X142937510Y-85020077D01*
X143080710Y-85110056D01*
X143240341Y-85165913D01*
X143408400Y-85184849D01*
X143576459Y-85165913D01*
X143736090Y-85110056D01*
X143762519Y-85093448D01*
X143814606Y-85075223D01*
X143869445Y-85081401D01*
X143916171Y-85110761D01*
X144759848Y-85954439D01*
X145603507Y-86798098D01*
X145610959Y-86806287D01*
X145615014Y-86812677D01*
X145664023Y-86858700D01*
X145666820Y-86861411D01*
X145686329Y-86880920D01*
X145689509Y-86883387D01*
X145698371Y-86890955D01*
X145711680Y-86903454D01*
X145724532Y-86915523D01*
X145724534Y-86915524D01*
X145730218Y-86920862D01*
X145737051Y-86924618D01*
X145737052Y-86924619D01*
X145747773Y-86930513D01*
X145764034Y-86941194D01*
X145779864Y-86953473D01*
X145819954Y-86970821D01*
X145830431Y-86975954D01*
X145868708Y-86996997D01*
X145885757Y-87001374D01*
X145888105Y-87001977D01*
X145906519Y-87008281D01*
X145924904Y-87016238D01*
X145968065Y-87023073D01*
X145979464Y-87025434D01*
X146021781Y-87036300D01*
X146041817Y-87036300D01*
X146061202Y-87037825D01*
X146080996Y-87040960D01*
X146119076Y-87037360D01*
X146124476Y-87036850D01*
X146136145Y-87036300D01*
X147547025Y-87036300D01*
X147558080Y-87036821D01*
X147565467Y-87038473D01*
X147632672Y-87036361D01*
X147636568Y-87036300D01*
X147660248Y-87036300D01*
X147664150Y-87036300D01*
X147668113Y-87035799D01*
X147679763Y-87034880D01*
X147723427Y-87033509D01*
X147742661Y-87027919D01*
X147761717Y-87023974D01*
X147781592Y-87021464D01*
X147822195Y-87005387D01*
X147833250Y-87001602D01*
X147875190Y-86989418D01*
X147892429Y-86979222D01*
X147909903Y-86970662D01*
X147921274Y-86966160D01*
X147921276Y-86966158D01*
X147928532Y-86963286D01*
X147963869Y-86937611D01*
X147973624Y-86931203D01*
X148011220Y-86908970D01*
X148025384Y-86894805D01*
X148040179Y-86882168D01*
X148056387Y-86870394D01*
X148084228Y-86836738D01*
X148092079Y-86828109D01*
X148984000Y-85936188D01*
X158601092Y-85936188D01*
X158621049Y-86316992D01*
X158621726Y-86323435D01*
X158681378Y-86700064D01*
X158682726Y-86706406D01*
X158781422Y-87074746D01*
X158783421Y-87080899D01*
X158920079Y-87436903D01*
X158922716Y-87442827D01*
X159095833Y-87782589D01*
X159099079Y-87788210D01*
X159306757Y-88108005D01*
X159310574Y-88113259D01*
X159506129Y-88354751D01*
X159517392Y-88362637D01*
X159529418Y-88355971D01*
X161940904Y-85944486D01*
X161947568Y-85932944D01*
X161940904Y-85921401D01*
X159529418Y-83509915D01*
X159517393Y-83503249D01*
X159506127Y-83511138D01*
X159310578Y-83752622D01*
X159306756Y-83757883D01*
X159099079Y-84077677D01*
X159095833Y-84083298D01*
X158922716Y-84423060D01*
X158920079Y-84428984D01*
X158783421Y-84784988D01*
X158781422Y-84791141D01*
X158682726Y-85159481D01*
X158681378Y-85165823D01*
X158621726Y-85542452D01*
X158621049Y-85548895D01*
X158601092Y-85929700D01*
X158601092Y-85936188D01*
X148984000Y-85936188D01*
X149884511Y-85035678D01*
X149892681Y-85028244D01*
X149899077Y-85024186D01*
X149945118Y-84975156D01*
X149947735Y-84972454D01*
X149967320Y-84952871D01*
X149969785Y-84949692D01*
X149977367Y-84940816D01*
X150007262Y-84908982D01*
X150016913Y-84891423D01*
X150027590Y-84875170D01*
X150039873Y-84859336D01*
X150057218Y-84819252D01*
X150062351Y-84808771D01*
X150083397Y-84770492D01*
X150088379Y-84751084D01*
X150094682Y-84732676D01*
X150102637Y-84714296D01*
X150109471Y-84671144D01*
X150111833Y-84659738D01*
X150122700Y-84617419D01*
X150122700Y-84597383D01*
X150124227Y-84577985D01*
X150126139Y-84565913D01*
X150126138Y-84565913D01*
X150127360Y-84558204D01*
X150123250Y-84514724D01*
X150122700Y-84503055D01*
X150122700Y-83144337D01*
X159876305Y-83144337D01*
X159882971Y-83156362D01*
X162294457Y-85567848D01*
X162306000Y-85574512D01*
X162317542Y-85567848D01*
X164729027Y-83156362D01*
X164735693Y-83144336D01*
X164727807Y-83133073D01*
X164486315Y-82937518D01*
X164481061Y-82933701D01*
X164161266Y-82726023D01*
X164155645Y-82722777D01*
X163815883Y-82549660D01*
X163809959Y-82547023D01*
X163453955Y-82410365D01*
X163447802Y-82408366D01*
X163079462Y-82309670D01*
X163073120Y-82308322D01*
X162696491Y-82248670D01*
X162690048Y-82247993D01*
X162309244Y-82228036D01*
X162302756Y-82228036D01*
X161921951Y-82247993D01*
X161915508Y-82248670D01*
X161538879Y-82308322D01*
X161532537Y-82309670D01*
X161164197Y-82408366D01*
X161158044Y-82410365D01*
X160802040Y-82547023D01*
X160796116Y-82549660D01*
X160456354Y-82722777D01*
X160450733Y-82726023D01*
X160130939Y-82933700D01*
X160125678Y-82937522D01*
X159884194Y-83133071D01*
X159876305Y-83144337D01*
X150122700Y-83144337D01*
X150122700Y-79400400D01*
X157232751Y-79400400D01*
X157233531Y-79407323D01*
X157250906Y-79561535D01*
X157250907Y-79561542D01*
X157251687Y-79568459D01*
X157253986Y-79575030D01*
X157253987Y-79575033D01*
X157288273Y-79673018D01*
X157307544Y-79728090D01*
X157397523Y-79871290D01*
X157517110Y-79990877D01*
X157660310Y-80080856D01*
X157819941Y-80136713D01*
X157826864Y-80137493D01*
X157955055Y-80151937D01*
X157988000Y-80155649D01*
X158020945Y-80151937D01*
X158097616Y-80143298D01*
X158156059Y-80136713D01*
X158315690Y-80080856D01*
X158458890Y-79990877D01*
X158578477Y-79871290D01*
X158668456Y-79728090D01*
X158724313Y-79568459D01*
X158743249Y-79400400D01*
X158740416Y-79375261D01*
X158725093Y-79239264D01*
X158724313Y-79232341D01*
X158668456Y-79072710D01*
X158578477Y-78929510D01*
X158458890Y-78809923D01*
X158315690Y-78719944D01*
X158309124Y-78717646D01*
X158309121Y-78717645D01*
X158162633Y-78666387D01*
X158162630Y-78666386D01*
X158156059Y-78664087D01*
X158149142Y-78663307D01*
X158149135Y-78663306D01*
X157994923Y-78645931D01*
X157988000Y-78645151D01*
X157981077Y-78645931D01*
X157826864Y-78663306D01*
X157826855Y-78663307D01*
X157819941Y-78664087D01*
X157813371Y-78666385D01*
X157813366Y-78666387D01*
X157666878Y-78717645D01*
X157666872Y-78717647D01*
X157660310Y-78719944D01*
X157654419Y-78723645D01*
X157654418Y-78723646D01*
X157523010Y-78806215D01*
X157523005Y-78806218D01*
X157517110Y-78809923D01*
X157512185Y-78814847D01*
X157512181Y-78814851D01*
X157402451Y-78924581D01*
X157402447Y-78924585D01*
X157397523Y-78929510D01*
X157393818Y-78935405D01*
X157393815Y-78935410D01*
X157332614Y-79032811D01*
X157307544Y-79072710D01*
X157305247Y-79079272D01*
X157305245Y-79079278D01*
X157253987Y-79225766D01*
X157253985Y-79225771D01*
X157251687Y-79232341D01*
X157250907Y-79239255D01*
X157250906Y-79239264D01*
X157234520Y-79384700D01*
X157232751Y-79400400D01*
X150122700Y-79400400D01*
X150122700Y-78638545D01*
X150136533Y-78581631D01*
X150174945Y-78537416D01*
X150229366Y-78515763D01*
X150287654Y-78521503D01*
X150309849Y-78529269D01*
X150403141Y-78561913D01*
X150410064Y-78562693D01*
X150555384Y-78579067D01*
X150571200Y-78580849D01*
X150587016Y-78579067D01*
X150673290Y-78569346D01*
X150739259Y-78561913D01*
X150898890Y-78506056D01*
X151042090Y-78416077D01*
X151161677Y-78296490D01*
X151251656Y-78153290D01*
X151307513Y-77993659D01*
X151320725Y-77876400D01*
X152254351Y-77876400D01*
X152255131Y-77883323D01*
X152272506Y-78037535D01*
X152272507Y-78037542D01*
X152273287Y-78044459D01*
X152275586Y-78051030D01*
X152275587Y-78051033D01*
X152313429Y-78159181D01*
X152329144Y-78204090D01*
X152419123Y-78347290D01*
X152538710Y-78466877D01*
X152681910Y-78556856D01*
X152841541Y-78612713D01*
X153009600Y-78631649D01*
X153177659Y-78612713D01*
X153337290Y-78556856D01*
X153480490Y-78466877D01*
X153600077Y-78347290D01*
X153690056Y-78204090D01*
X153745913Y-78044459D01*
X153764849Y-77876400D01*
X153745913Y-77708341D01*
X153690056Y-77548710D01*
X153600077Y-77405510D01*
X153480490Y-77285923D01*
X153337290Y-77195944D01*
X153330724Y-77193646D01*
X153330721Y-77193645D01*
X153184233Y-77142387D01*
X153184230Y-77142386D01*
X153177659Y-77140087D01*
X153170742Y-77139307D01*
X153170735Y-77139306D01*
X153016523Y-77121931D01*
X153009600Y-77121151D01*
X153002677Y-77121931D01*
X152848464Y-77139306D01*
X152848455Y-77139307D01*
X152841541Y-77140087D01*
X152834971Y-77142385D01*
X152834966Y-77142387D01*
X152688478Y-77193645D01*
X152688472Y-77193647D01*
X152681910Y-77195944D01*
X152676019Y-77199645D01*
X152676018Y-77199646D01*
X152544610Y-77282215D01*
X152544605Y-77282218D01*
X152538710Y-77285923D01*
X152533785Y-77290847D01*
X152533781Y-77290851D01*
X152424051Y-77400581D01*
X152424047Y-77400585D01*
X152419123Y-77405510D01*
X152415418Y-77411405D01*
X152415415Y-77411410D01*
X152332846Y-77542818D01*
X152329144Y-77548710D01*
X152326847Y-77555272D01*
X152326845Y-77555278D01*
X152275587Y-77701766D01*
X152275585Y-77701771D01*
X152273287Y-77708341D01*
X152272507Y-77715255D01*
X152272506Y-77715264D01*
X152256705Y-77855511D01*
X152254351Y-77876400D01*
X151320725Y-77876400D01*
X151324603Y-77841984D01*
X151325669Y-77832523D01*
X151326449Y-77825600D01*
X151307513Y-77657541D01*
X151251656Y-77497910D01*
X151161677Y-77354710D01*
X151042090Y-77235123D01*
X151019699Y-77221054D01*
X150976078Y-77193645D01*
X150898890Y-77145144D01*
X150892324Y-77142846D01*
X150892321Y-77142845D01*
X150745833Y-77091587D01*
X150745830Y-77091586D01*
X150739259Y-77089287D01*
X150732342Y-77088507D01*
X150732335Y-77088506D01*
X150578123Y-77071131D01*
X150571200Y-77070351D01*
X150564277Y-77071131D01*
X150410064Y-77088506D01*
X150410055Y-77088507D01*
X150403141Y-77089287D01*
X150396571Y-77091585D01*
X150396566Y-77091587D01*
X150287654Y-77129697D01*
X150229366Y-77135437D01*
X150174945Y-77113784D01*
X150136533Y-77069569D01*
X150122700Y-77012655D01*
X150122700Y-73723652D01*
X150132139Y-73676199D01*
X150159019Y-73635971D01*
X150922943Y-72872047D01*
X151695580Y-72099409D01*
X151752961Y-72066851D01*
X151818921Y-72068331D01*
X151874785Y-72103432D01*
X151904739Y-72162218D01*
X151900301Y-72228045D01*
X151869188Y-72316963D01*
X151869186Y-72316968D01*
X151866887Y-72323541D01*
X151866107Y-72330455D01*
X151866106Y-72330464D01*
X151860276Y-72382210D01*
X151847951Y-72491600D01*
X151848731Y-72498523D01*
X151866106Y-72652735D01*
X151866107Y-72652742D01*
X151866887Y-72659659D01*
X151869186Y-72666230D01*
X151869187Y-72666233D01*
X151919117Y-72808927D01*
X151922744Y-72819290D01*
X152012723Y-72962490D01*
X152132310Y-73082077D01*
X152275510Y-73172056D01*
X152435141Y-73227913D01*
X152603200Y-73246849D01*
X152771259Y-73227913D01*
X152930890Y-73172056D01*
X153074090Y-73082077D01*
X153193677Y-72962490D01*
X153266119Y-72847200D01*
X158350351Y-72847200D01*
X158351131Y-72854123D01*
X158368506Y-73008335D01*
X158368507Y-73008342D01*
X158369287Y-73015259D01*
X158371586Y-73021830D01*
X158371587Y-73021833D01*
X158414077Y-73143264D01*
X158425144Y-73174890D01*
X158515123Y-73318090D01*
X158634710Y-73437677D01*
X158777910Y-73527656D01*
X158937541Y-73583513D01*
X159105600Y-73602449D01*
X159273659Y-73583513D01*
X159433290Y-73527656D01*
X159576490Y-73437677D01*
X159696077Y-73318090D01*
X159786056Y-73174890D01*
X159841913Y-73015259D01*
X159860849Y-72847200D01*
X159859945Y-72839181D01*
X159845414Y-72710215D01*
X159841913Y-72679141D01*
X159786056Y-72519510D01*
X159696077Y-72376310D01*
X159576490Y-72256723D01*
X159433290Y-72166744D01*
X159426724Y-72164446D01*
X159426721Y-72164445D01*
X159280233Y-72113187D01*
X159280230Y-72113186D01*
X159273659Y-72110887D01*
X159266742Y-72110107D01*
X159266735Y-72110106D01*
X159112523Y-72092731D01*
X159105600Y-72091951D01*
X159098677Y-72092731D01*
X158944464Y-72110106D01*
X158944455Y-72110107D01*
X158937541Y-72110887D01*
X158930971Y-72113185D01*
X158930966Y-72113187D01*
X158784478Y-72164445D01*
X158784472Y-72164447D01*
X158777910Y-72166744D01*
X158772019Y-72170445D01*
X158772018Y-72170446D01*
X158640610Y-72253015D01*
X158640605Y-72253018D01*
X158634710Y-72256723D01*
X158629785Y-72261647D01*
X158629781Y-72261651D01*
X158520051Y-72371381D01*
X158520047Y-72371385D01*
X158515123Y-72376310D01*
X158511418Y-72382205D01*
X158511415Y-72382210D01*
X158447031Y-72484677D01*
X158425144Y-72519510D01*
X158422847Y-72526072D01*
X158422845Y-72526078D01*
X158371587Y-72672566D01*
X158371585Y-72672571D01*
X158369287Y-72679141D01*
X158368507Y-72686055D01*
X158368506Y-72686064D01*
X158351229Y-72839410D01*
X158350351Y-72847200D01*
X153266119Y-72847200D01*
X153283656Y-72819290D01*
X153339513Y-72659659D01*
X153341630Y-72660400D01*
X153369586Y-72609802D01*
X155265788Y-70713600D01*
X159112351Y-70713600D01*
X159113131Y-70720523D01*
X159130506Y-70874735D01*
X159130507Y-70874742D01*
X159131287Y-70881659D01*
X159133586Y-70888230D01*
X159133587Y-70888233D01*
X159176271Y-71010219D01*
X159187144Y-71041290D01*
X159224874Y-71101336D01*
X159268511Y-71170785D01*
X159277123Y-71184490D01*
X159396710Y-71304077D01*
X159539910Y-71394056D01*
X159699541Y-71449913D01*
X159765510Y-71457346D01*
X159851784Y-71467067D01*
X159867600Y-71468849D01*
X159989700Y-71455091D01*
X160044536Y-71461269D01*
X160091263Y-71490630D01*
X160158710Y-71558077D01*
X160301910Y-71648056D01*
X160461541Y-71703913D01*
X160545570Y-71713381D01*
X160592750Y-71718697D01*
X160629600Y-71722849D01*
X160797659Y-71703913D01*
X160957290Y-71648056D01*
X161100490Y-71558077D01*
X161220077Y-71438490D01*
X161310056Y-71295290D01*
X161365913Y-71135659D01*
X161382751Y-70986218D01*
X161384069Y-70974523D01*
X161384849Y-70967600D01*
X161365913Y-70799541D01*
X161310056Y-70639910D01*
X161220077Y-70496710D01*
X161100490Y-70377123D01*
X161065792Y-70355321D01*
X161029822Y-70332719D01*
X160957290Y-70287144D01*
X160950724Y-70284846D01*
X160950721Y-70284845D01*
X160804233Y-70233587D01*
X160804230Y-70233586D01*
X160797659Y-70231287D01*
X160790742Y-70230507D01*
X160790735Y-70230506D01*
X160636523Y-70213131D01*
X160629600Y-70212351D01*
X160622677Y-70213131D01*
X160622676Y-70213131D01*
X160507500Y-70226108D01*
X160452662Y-70219929D01*
X160405936Y-70190569D01*
X160343418Y-70128051D01*
X160338490Y-70123123D01*
X160195290Y-70033144D01*
X160188724Y-70030846D01*
X160188721Y-70030845D01*
X160042233Y-69979587D01*
X160042230Y-69979586D01*
X160035659Y-69977287D01*
X160028742Y-69976507D01*
X160028735Y-69976506D01*
X159874523Y-69959131D01*
X159867600Y-69958351D01*
X159860677Y-69959131D01*
X159706464Y-69976506D01*
X159706455Y-69976507D01*
X159699541Y-69977287D01*
X159692971Y-69979585D01*
X159692966Y-69979587D01*
X159546478Y-70030845D01*
X159546472Y-70030847D01*
X159539910Y-70033144D01*
X159534019Y-70036845D01*
X159534018Y-70036846D01*
X159402610Y-70119415D01*
X159402605Y-70119418D01*
X159396710Y-70123123D01*
X159391785Y-70128047D01*
X159391781Y-70128051D01*
X159282051Y-70237781D01*
X159282047Y-70237785D01*
X159277123Y-70242710D01*
X159273418Y-70248605D01*
X159273415Y-70248610D01*
X159194995Y-70373415D01*
X159187144Y-70385910D01*
X159184847Y-70392472D01*
X159184845Y-70392478D01*
X159133587Y-70538966D01*
X159133585Y-70538971D01*
X159131287Y-70545541D01*
X159130507Y-70552455D01*
X159130506Y-70552464D01*
X159115920Y-70681923D01*
X159112351Y-70713600D01*
X155265788Y-70713600D01*
X163007106Y-62972282D01*
X163015282Y-62964843D01*
X163021677Y-62960786D01*
X163067733Y-62911740D01*
X163070350Y-62909038D01*
X163089920Y-62889470D01*
X163092365Y-62886316D01*
X163099955Y-62877428D01*
X163129862Y-62845582D01*
X163139509Y-62828032D01*
X163150193Y-62811766D01*
X163162474Y-62795936D01*
X163179818Y-62755851D01*
X163184960Y-62745356D01*
X163205997Y-62707092D01*
X163210979Y-62687689D01*
X163217280Y-62669283D01*
X163225238Y-62650895D01*
X163232069Y-62607756D01*
X163234439Y-62596315D01*
X163243360Y-62561574D01*
X163243359Y-62561574D01*
X163245300Y-62554019D01*
X163245300Y-62533983D01*
X163246825Y-62514597D01*
X163249960Y-62494804D01*
X163245850Y-62451324D01*
X163245300Y-62439655D01*
X163245300Y-60956652D01*
X163254739Y-60909199D01*
X163281619Y-60868971D01*
X164052772Y-60097819D01*
X164093000Y-60070939D01*
X164140453Y-60061500D01*
X164383572Y-60061500D01*
X164440829Y-60075511D01*
X164485147Y-60114376D01*
X164617199Y-60302966D01*
X164617202Y-60302970D01*
X164620305Y-60307401D01*
X164787399Y-60474495D01*
X164791832Y-60477599D01*
X164791838Y-60477604D01*
X164972958Y-60604425D01*
X165011824Y-60648743D01*
X165025835Y-60706000D01*
X165011824Y-60763257D01*
X164972959Y-60807575D01*
X164791841Y-60934395D01*
X164787399Y-60937505D01*
X164783575Y-60941328D01*
X164783569Y-60941334D01*
X164624134Y-61100769D01*
X164624128Y-61100775D01*
X164620305Y-61104599D01*
X164617202Y-61109029D01*
X164617199Y-61109034D01*
X164487873Y-61293731D01*
X164487868Y-61293738D01*
X164484765Y-61298171D01*
X164482477Y-61303077D01*
X164482475Y-61303081D01*
X164387186Y-61507427D01*
X164387183Y-61507432D01*
X164384897Y-61512337D01*
X164383498Y-61517557D01*
X164383494Y-61517569D01*
X164325137Y-61735365D01*
X164325135Y-61735371D01*
X164323737Y-61740592D01*
X164323265Y-61745977D01*
X164323265Y-61745982D01*
X164307514Y-61926014D01*
X164303141Y-61976000D01*
X164303613Y-61981395D01*
X164322921Y-62202090D01*
X164323737Y-62211408D01*
X164325136Y-62216630D01*
X164325137Y-62216634D01*
X164383494Y-62434430D01*
X164383497Y-62434438D01*
X164384897Y-62439663D01*
X164387185Y-62444570D01*
X164387186Y-62444572D01*
X164482478Y-62648927D01*
X164482481Y-62648933D01*
X164484765Y-62653830D01*
X164487864Y-62658257D01*
X164487866Y-62658259D01*
X164617199Y-62842966D01*
X164617202Y-62842970D01*
X164620305Y-62847401D01*
X164787399Y-63014495D01*
X164791832Y-63017599D01*
X164791838Y-63017604D01*
X164972958Y-63144425D01*
X165011824Y-63188743D01*
X165025835Y-63246000D01*
X165011824Y-63303257D01*
X164972959Y-63347575D01*
X164866025Y-63422451D01*
X164787399Y-63477505D01*
X164783575Y-63481328D01*
X164783569Y-63481334D01*
X164624134Y-63640769D01*
X164624128Y-63640775D01*
X164620305Y-63644599D01*
X164617202Y-63649029D01*
X164617199Y-63649034D01*
X164487873Y-63833731D01*
X164487868Y-63833738D01*
X164484765Y-63838171D01*
X164482477Y-63843077D01*
X164482475Y-63843081D01*
X164387186Y-64047427D01*
X164387183Y-64047432D01*
X164384897Y-64052337D01*
X164383498Y-64057557D01*
X164383494Y-64057569D01*
X164325137Y-64275365D01*
X164325135Y-64275371D01*
X164323737Y-64280592D01*
X164323265Y-64285977D01*
X164323265Y-64285982D01*
X164305957Y-64483818D01*
X164303141Y-64516000D01*
X164303613Y-64521395D01*
X164318992Y-64697181D01*
X164323737Y-64751408D01*
X164325136Y-64756630D01*
X164325137Y-64756634D01*
X164383494Y-64974430D01*
X164383497Y-64974438D01*
X164384897Y-64979663D01*
X164387185Y-64984570D01*
X164387186Y-64984572D01*
X164482478Y-65188927D01*
X164482481Y-65188933D01*
X164484765Y-65193830D01*
X164487864Y-65198257D01*
X164487866Y-65198259D01*
X164617199Y-65382966D01*
X164617202Y-65382970D01*
X164620305Y-65387401D01*
X164787399Y-65554495D01*
X164791832Y-65557599D01*
X164791838Y-65557604D01*
X164972958Y-65684425D01*
X165011824Y-65728743D01*
X165025835Y-65786000D01*
X165011824Y-65843257D01*
X164972959Y-65887575D01*
X164791841Y-66014395D01*
X164787399Y-66017505D01*
X164783575Y-66021328D01*
X164783569Y-66021334D01*
X164624134Y-66180769D01*
X164624128Y-66180775D01*
X164620305Y-66184599D01*
X164617202Y-66189029D01*
X164617199Y-66189034D01*
X164487873Y-66373731D01*
X164487868Y-66373738D01*
X164484765Y-66378171D01*
X164482477Y-66383077D01*
X164482475Y-66383081D01*
X164387186Y-66587427D01*
X164387183Y-66587432D01*
X164384897Y-66592337D01*
X164383498Y-66597557D01*
X164383494Y-66597569D01*
X164325137Y-66815365D01*
X164325135Y-66815371D01*
X164323737Y-66820592D01*
X164323265Y-66825977D01*
X164323265Y-66825982D01*
X164312030Y-66954400D01*
X164303141Y-67056000D01*
X164303613Y-67061395D01*
X164322921Y-67282090D01*
X164323737Y-67291408D01*
X164325136Y-67296630D01*
X164325137Y-67296634D01*
X164383494Y-67514430D01*
X164383497Y-67514438D01*
X164384897Y-67519663D01*
X164387185Y-67524570D01*
X164387186Y-67524572D01*
X164482478Y-67728927D01*
X164482481Y-67728933D01*
X164484765Y-67733830D01*
X164487864Y-67738257D01*
X164487866Y-67738259D01*
X164617199Y-67922966D01*
X164617202Y-67922970D01*
X164620305Y-67927401D01*
X164787399Y-68094495D01*
X164791832Y-68097599D01*
X164791838Y-68097604D01*
X164972958Y-68224425D01*
X165011824Y-68268743D01*
X165025835Y-68326000D01*
X165011824Y-68383257D01*
X164972959Y-68427575D01*
X164791841Y-68554395D01*
X164787399Y-68557505D01*
X164783575Y-68561328D01*
X164783569Y-68561334D01*
X164624134Y-68720769D01*
X164624128Y-68720775D01*
X164620305Y-68724599D01*
X164617202Y-68729029D01*
X164617199Y-68729034D01*
X164487873Y-68913731D01*
X164487868Y-68913738D01*
X164484765Y-68918171D01*
X164482477Y-68923077D01*
X164482475Y-68923081D01*
X164387186Y-69127427D01*
X164387183Y-69127432D01*
X164384897Y-69132337D01*
X164383498Y-69137557D01*
X164383494Y-69137569D01*
X164325137Y-69355365D01*
X164325135Y-69355371D01*
X164323737Y-69360592D01*
X164323265Y-69365977D01*
X164323265Y-69365982D01*
X164308350Y-69536464D01*
X164303141Y-69596000D01*
X164303613Y-69601395D01*
X164321647Y-69807527D01*
X164323737Y-69831408D01*
X164325136Y-69836630D01*
X164325137Y-69836634D01*
X164383494Y-70054430D01*
X164383497Y-70054438D01*
X164384897Y-70059663D01*
X164387185Y-70064570D01*
X164387186Y-70064572D01*
X164482478Y-70268927D01*
X164482481Y-70268933D01*
X164484765Y-70273830D01*
X164487864Y-70278257D01*
X164487866Y-70278259D01*
X164617199Y-70462966D01*
X164617202Y-70462970D01*
X164620305Y-70467401D01*
X164787399Y-70634495D01*
X164791832Y-70637599D01*
X164791838Y-70637604D01*
X164972958Y-70764425D01*
X165011824Y-70808743D01*
X165025835Y-70866000D01*
X165011824Y-70923257D01*
X164972959Y-70967575D01*
X164791841Y-71094395D01*
X164787399Y-71097505D01*
X164783575Y-71101328D01*
X164783569Y-71101334D01*
X164624134Y-71260769D01*
X164624128Y-71260775D01*
X164620305Y-71264599D01*
X164617202Y-71269029D01*
X164617199Y-71269034D01*
X164563397Y-71345872D01*
X164490548Y-71449913D01*
X164485149Y-71457623D01*
X164440831Y-71496489D01*
X164383574Y-71510500D01*
X163450572Y-71510500D01*
X163439519Y-71509979D01*
X163432133Y-71508328D01*
X163424335Y-71508573D01*
X163364945Y-71510439D01*
X163361051Y-71510500D01*
X163333450Y-71510500D01*
X163329599Y-71510986D01*
X163329568Y-71510988D01*
X163329440Y-71511005D01*
X163317829Y-71511918D01*
X163281972Y-71513045D01*
X163281965Y-71513046D01*
X163274173Y-71513291D01*
X163266688Y-71515465D01*
X163266672Y-71515468D01*
X163254926Y-71518881D01*
X163235883Y-71522825D01*
X163223749Y-71524358D01*
X163223748Y-71524358D01*
X163216008Y-71525336D01*
X163208758Y-71528205D01*
X163208751Y-71528208D01*
X163175398Y-71541413D01*
X163164354Y-71545194D01*
X163129905Y-71555203D01*
X163129895Y-71555207D01*
X163122410Y-71557382D01*
X163115700Y-71561349D01*
X163115698Y-71561351D01*
X163112305Y-71563357D01*
X163105160Y-71567583D01*
X163087700Y-71576136D01*
X163069068Y-71583514D01*
X163062765Y-71588092D01*
X163062758Y-71588097D01*
X163033739Y-71609181D01*
X163023979Y-71615592D01*
X162993094Y-71633857D01*
X162993084Y-71633864D01*
X162986379Y-71637830D01*
X162980863Y-71643345D01*
X162980860Y-71643348D01*
X162972207Y-71652000D01*
X162957424Y-71664626D01*
X162947527Y-71671817D01*
X162947520Y-71671823D01*
X162941213Y-71676406D01*
X162936246Y-71682408D01*
X162936235Y-71682420D01*
X162913370Y-71710059D01*
X162905510Y-71718697D01*
X162086195Y-72538012D01*
X162035602Y-72565976D01*
X162036341Y-72568087D01*
X161883278Y-72621645D01*
X161883272Y-72621647D01*
X161876710Y-72623944D01*
X161870819Y-72627645D01*
X161870818Y-72627646D01*
X161739410Y-72710215D01*
X161739405Y-72710218D01*
X161733510Y-72713923D01*
X161728585Y-72718847D01*
X161728581Y-72718851D01*
X161618851Y-72828581D01*
X161618847Y-72828585D01*
X161613923Y-72833510D01*
X161610218Y-72839405D01*
X161610215Y-72839410D01*
X161529465Y-72967923D01*
X161523944Y-72976710D01*
X161521647Y-72983272D01*
X161521645Y-72983278D01*
X161470387Y-73129766D01*
X161470385Y-73129771D01*
X161468087Y-73136341D01*
X161467307Y-73143255D01*
X161467306Y-73143264D01*
X161449931Y-73297477D01*
X161449151Y-73304400D01*
X161449931Y-73311323D01*
X161467306Y-73465535D01*
X161467307Y-73465542D01*
X161468087Y-73472459D01*
X161470386Y-73479030D01*
X161470387Y-73479033D01*
X161508916Y-73589144D01*
X161523944Y-73632090D01*
X161613923Y-73775290D01*
X161618851Y-73780218D01*
X161723523Y-73884890D01*
X161756733Y-73944978D01*
X161752884Y-74013524D01*
X161724388Y-74094963D01*
X161724386Y-74094968D01*
X161722087Y-74101541D01*
X161721307Y-74108455D01*
X161721306Y-74108464D01*
X161703931Y-74262677D01*
X161703151Y-74269600D01*
X161703931Y-74276523D01*
X161721306Y-74430735D01*
X161721307Y-74430738D01*
X161722087Y-74437659D01*
X161724386Y-74444230D01*
X161724387Y-74444233D01*
X161772569Y-74581931D01*
X161777944Y-74597290D01*
X161867923Y-74740490D01*
X161872850Y-74745417D01*
X161872851Y-74745418D01*
X161893552Y-74766119D01*
X161925646Y-74821706D01*
X161925646Y-74885894D01*
X161893552Y-74941481D01*
X161822051Y-75012981D01*
X161822047Y-75012985D01*
X161817123Y-75017910D01*
X161813418Y-75023805D01*
X161813415Y-75023810D01*
X161733518Y-75150966D01*
X161727144Y-75161110D01*
X161724847Y-75167672D01*
X161724845Y-75167678D01*
X161673587Y-75314166D01*
X161673585Y-75314171D01*
X161671287Y-75320741D01*
X161670507Y-75327655D01*
X161670506Y-75327664D01*
X161657363Y-75444319D01*
X161652351Y-75488800D01*
X161653131Y-75495723D01*
X161670506Y-75649935D01*
X161670507Y-75649942D01*
X161671287Y-75656859D01*
X161673586Y-75663430D01*
X161673587Y-75663433D01*
X161723924Y-75807290D01*
X161727144Y-75816490D01*
X161817123Y-75959690D01*
X161936710Y-76079277D01*
X162079910Y-76169256D01*
X162236921Y-76224196D01*
X162283648Y-76253556D01*
X162313008Y-76300283D01*
X162319187Y-76355120D01*
X162300962Y-76407209D01*
X162289645Y-76425219D01*
X162289643Y-76425222D01*
X162285944Y-76431110D01*
X162283647Y-76437672D01*
X162283645Y-76437678D01*
X162232387Y-76584166D01*
X162232385Y-76584171D01*
X162230087Y-76590741D01*
X162229307Y-76597655D01*
X162229306Y-76597664D01*
X162213721Y-76735987D01*
X162211151Y-76758800D01*
X162211931Y-76765723D01*
X162229306Y-76919935D01*
X162229307Y-76919942D01*
X162230087Y-76926859D01*
X162232386Y-76933430D01*
X162232387Y-76933433D01*
X162283413Y-77079259D01*
X162285944Y-77086490D01*
X162319130Y-77139306D01*
X162321894Y-77143704D01*
X162340900Y-77209676D01*
X162340900Y-77617371D01*
X162327385Y-77673666D01*
X162289785Y-77717689D01*
X162236298Y-77739844D01*
X162178582Y-77735302D01*
X162129219Y-77705052D01*
X162019818Y-77595651D01*
X162014890Y-77590723D01*
X161871690Y-77500744D01*
X161865124Y-77498446D01*
X161865121Y-77498445D01*
X161718633Y-77447187D01*
X161718630Y-77447186D01*
X161712059Y-77444887D01*
X161705142Y-77444107D01*
X161705135Y-77444106D01*
X161550923Y-77426731D01*
X161544000Y-77425951D01*
X161537077Y-77426731D01*
X161537076Y-77426731D01*
X161530845Y-77427433D01*
X161466314Y-77417398D01*
X161415832Y-77375967D01*
X161393401Y-77314633D01*
X161405243Y-77250410D01*
X161407954Y-77244781D01*
X161411656Y-77238890D01*
X161467513Y-77079259D01*
X161486449Y-76911200D01*
X161467513Y-76743141D01*
X161411656Y-76583510D01*
X161321677Y-76440310D01*
X161202090Y-76320723D01*
X161058890Y-76230744D01*
X161052324Y-76228446D01*
X161052321Y-76228445D01*
X160905833Y-76177187D01*
X160905830Y-76177186D01*
X160899259Y-76174887D01*
X160892342Y-76174107D01*
X160892335Y-76174106D01*
X160738123Y-76156731D01*
X160731200Y-76155951D01*
X160724277Y-76156731D01*
X160570064Y-76174106D01*
X160570055Y-76174107D01*
X160563141Y-76174887D01*
X160556571Y-76177185D01*
X160556566Y-76177187D01*
X160410078Y-76228445D01*
X160410072Y-76228447D01*
X160403510Y-76230744D01*
X160397619Y-76234445D01*
X160397618Y-76234446D01*
X160266210Y-76317015D01*
X160266205Y-76317018D01*
X160260310Y-76320723D01*
X160255385Y-76325647D01*
X160255381Y-76325651D01*
X160145651Y-76435381D01*
X160145647Y-76435385D01*
X160140723Y-76440310D01*
X160137018Y-76446205D01*
X160137015Y-76446210D01*
X160054446Y-76577618D01*
X160050744Y-76583510D01*
X160048447Y-76590072D01*
X160048445Y-76590078D01*
X159997187Y-76736566D01*
X159997185Y-76736571D01*
X159994887Y-76743141D01*
X159994107Y-76750055D01*
X159994106Y-76750064D01*
X159979938Y-76875815D01*
X159975951Y-76911200D01*
X159976731Y-76918123D01*
X159994106Y-77072335D01*
X159994107Y-77072342D01*
X159994887Y-77079259D01*
X159997186Y-77085830D01*
X159997187Y-77085833D01*
X160042486Y-77215292D01*
X160050744Y-77238890D01*
X160140723Y-77382090D01*
X160260310Y-77501677D01*
X160403510Y-77591656D01*
X160563141Y-77647513D01*
X160731200Y-77666449D01*
X160744347Y-77664967D01*
X160808877Y-77674998D01*
X160859363Y-77716425D01*
X160881798Y-77777758D01*
X160869959Y-77841984D01*
X160867243Y-77847621D01*
X160863544Y-77853510D01*
X160861247Y-77860071D01*
X160861244Y-77860080D01*
X160809987Y-78006566D01*
X160809985Y-78006571D01*
X160807687Y-78013141D01*
X160806907Y-78020055D01*
X160806906Y-78020064D01*
X160792636Y-78146721D01*
X160788751Y-78181200D01*
X160789531Y-78188123D01*
X160806906Y-78342335D01*
X160806907Y-78342342D01*
X160807687Y-78349259D01*
X160809986Y-78355830D01*
X160809987Y-78355833D01*
X160858099Y-78493331D01*
X160863544Y-78508890D01*
X160953523Y-78652090D01*
X161073110Y-78771677D01*
X161216310Y-78861656D01*
X161375941Y-78917513D01*
X161438670Y-78924581D01*
X161534778Y-78935410D01*
X161544000Y-78936449D01*
X161553222Y-78935410D01*
X161605584Y-78929510D01*
X161712059Y-78917513D01*
X161871690Y-78861656D01*
X162014890Y-78771677D01*
X162132245Y-78654321D01*
X162190974Y-78621431D01*
X162258239Y-78624073D01*
X162314211Y-78661471D01*
X162342396Y-78722603D01*
X162343445Y-78729231D01*
X162343691Y-78737027D01*
X162345866Y-78744516D01*
X162345868Y-78744523D01*
X162349279Y-78756262D01*
X162353225Y-78775315D01*
X162355736Y-78795192D01*
X162358606Y-78802442D01*
X162358608Y-78802448D01*
X162371814Y-78835804D01*
X162375597Y-78846851D01*
X162387782Y-78888790D01*
X162391753Y-78895505D01*
X162391754Y-78895507D01*
X162397981Y-78906037D01*
X162406536Y-78923499D01*
X162411042Y-78934880D01*
X162411043Y-78934883D01*
X162413914Y-78942132D01*
X162435444Y-78971766D01*
X162439581Y-78977460D01*
X162445993Y-78987222D01*
X162464256Y-79018102D01*
X162464259Y-79018107D01*
X162468230Y-79024820D01*
X162473745Y-79030335D01*
X162482390Y-79038980D01*
X162495026Y-79053774D01*
X162502219Y-79063675D01*
X162502223Y-79063679D01*
X162506806Y-79069987D01*
X162512815Y-79074958D01*
X162512816Y-79074959D01*
X162540458Y-79097826D01*
X162549099Y-79105689D01*
X163586707Y-80143298D01*
X163594159Y-80151487D01*
X163598214Y-80157877D01*
X163625359Y-80183368D01*
X163647223Y-80203900D01*
X163650019Y-80206610D01*
X163669529Y-80226120D01*
X163672709Y-80228587D01*
X163681571Y-80236155D01*
X163695020Y-80248785D01*
X163707732Y-80260723D01*
X163707734Y-80260724D01*
X163713418Y-80266062D01*
X163720251Y-80269818D01*
X163720252Y-80269819D01*
X163730973Y-80275713D01*
X163747234Y-80286394D01*
X163763064Y-80298673D01*
X163803155Y-80316021D01*
X163813635Y-80321155D01*
X163851908Y-80342197D01*
X163871316Y-80347180D01*
X163889719Y-80353481D01*
X163900944Y-80358339D01*
X163900946Y-80358339D01*
X163908104Y-80361437D01*
X163951258Y-80368271D01*
X163962644Y-80370629D01*
X164004981Y-80381500D01*
X164025017Y-80381500D01*
X164044415Y-80383027D01*
X164056486Y-80384939D01*
X164056487Y-80384939D01*
X164064196Y-80386160D01*
X164102276Y-80382560D01*
X164107676Y-80382050D01*
X164119345Y-80381500D01*
X164383572Y-80381500D01*
X164440829Y-80395511D01*
X164485147Y-80434376D01*
X164617199Y-80622966D01*
X164617202Y-80622970D01*
X164620305Y-80627401D01*
X164787399Y-80794495D01*
X164791831Y-80797598D01*
X164791833Y-80797600D01*
X164848919Y-80837572D01*
X164980970Y-80930035D01*
X165195137Y-81029903D01*
X165423392Y-81091063D01*
X165658800Y-81111659D01*
X165894208Y-81091063D01*
X166122463Y-81029903D01*
X166336630Y-80930035D01*
X166530201Y-80794495D01*
X166697295Y-80627401D01*
X166832835Y-80433830D01*
X166932703Y-80219663D01*
X166993863Y-79991408D01*
X167014459Y-79756000D01*
X166993863Y-79520592D01*
X166932703Y-79292337D01*
X166832835Y-79078171D01*
X166697295Y-78884599D01*
X166530201Y-78717505D01*
X166525768Y-78714401D01*
X166525761Y-78714395D01*
X166344642Y-78587575D01*
X166305776Y-78543257D01*
X166291765Y-78486000D01*
X166305776Y-78428743D01*
X166344642Y-78384425D01*
X166525761Y-78257604D01*
X166525761Y-78257603D01*
X166530201Y-78254495D01*
X166697295Y-78087401D01*
X166832835Y-77893830D01*
X166932703Y-77679663D01*
X166993863Y-77451408D01*
X167014459Y-77216000D01*
X166993863Y-76980592D01*
X166932703Y-76752337D01*
X166832835Y-76538171D01*
X166697295Y-76344599D01*
X166530201Y-76177505D01*
X166525768Y-76174401D01*
X166525761Y-76174395D01*
X166344642Y-76047575D01*
X166305776Y-76003257D01*
X166291765Y-75946000D01*
X166305776Y-75888743D01*
X166344642Y-75844425D01*
X166525761Y-75717604D01*
X166525761Y-75717603D01*
X166530201Y-75714495D01*
X166697295Y-75547401D01*
X166832835Y-75353830D01*
X166932703Y-75139663D01*
X166993863Y-74911408D01*
X167014459Y-74676000D01*
X166993863Y-74440592D01*
X166936703Y-74227265D01*
X166934105Y-74217569D01*
X166934104Y-74217567D01*
X166932703Y-74212337D01*
X166832835Y-73998171D01*
X166697295Y-73804599D01*
X166530201Y-73637505D01*
X166525768Y-73634401D01*
X166525761Y-73634395D01*
X166344642Y-73507575D01*
X166305776Y-73463257D01*
X166291765Y-73406000D01*
X166305776Y-73348743D01*
X166344642Y-73304425D01*
X166525761Y-73177604D01*
X166525761Y-73177603D01*
X166530201Y-73174495D01*
X166697295Y-73007401D01*
X166832835Y-72813830D01*
X166932703Y-72599663D01*
X166993863Y-72371408D01*
X167014459Y-72136000D01*
X166993863Y-71900592D01*
X166932703Y-71672337D01*
X166832835Y-71458171D01*
X166697295Y-71264599D01*
X166530201Y-71097505D01*
X166525768Y-71094401D01*
X166525761Y-71094395D01*
X166344642Y-70967575D01*
X166305776Y-70923257D01*
X166291765Y-70866000D01*
X166305776Y-70808743D01*
X166344642Y-70764425D01*
X166525761Y-70637604D01*
X166525761Y-70637603D01*
X166530201Y-70634495D01*
X166697295Y-70467401D01*
X166832835Y-70273830D01*
X166932703Y-70059663D01*
X166993863Y-69831408D01*
X167014459Y-69596000D01*
X166993863Y-69360592D01*
X166932703Y-69132337D01*
X166832835Y-68918171D01*
X166697295Y-68724599D01*
X166530201Y-68557505D01*
X166525768Y-68554401D01*
X166525761Y-68554395D01*
X166344642Y-68427575D01*
X166305776Y-68383257D01*
X166291765Y-68326000D01*
X166305776Y-68268743D01*
X166344642Y-68224425D01*
X166525761Y-68097604D01*
X166525761Y-68097603D01*
X166530201Y-68094495D01*
X166697295Y-67927401D01*
X166832835Y-67733830D01*
X166932703Y-67519663D01*
X166993863Y-67291408D01*
X167014459Y-67056000D01*
X166993863Y-66820592D01*
X166939809Y-66618856D01*
X166934105Y-66597569D01*
X166934104Y-66597567D01*
X166932703Y-66592337D01*
X166832835Y-66378171D01*
X166697295Y-66184599D01*
X166530201Y-66017505D01*
X166525768Y-66014401D01*
X166525761Y-66014395D01*
X166344642Y-65887575D01*
X166305776Y-65843257D01*
X166291765Y-65786000D01*
X166305776Y-65728743D01*
X166344642Y-65684425D01*
X166525761Y-65557604D01*
X166525761Y-65557603D01*
X166530201Y-65554495D01*
X166697295Y-65387401D01*
X166832835Y-65193830D01*
X166932703Y-64979663D01*
X166993863Y-64751408D01*
X167014459Y-64516000D01*
X166993863Y-64280592D01*
X166932703Y-64052337D01*
X166832835Y-63838171D01*
X166697295Y-63644599D01*
X166530201Y-63477505D01*
X166525770Y-63474402D01*
X166525766Y-63474399D01*
X166344641Y-63347574D01*
X166305776Y-63303256D01*
X166291765Y-63245999D01*
X166305776Y-63188742D01*
X166344639Y-63144426D01*
X166530201Y-63014495D01*
X166697295Y-62847401D01*
X166832835Y-62653830D01*
X166932703Y-62439663D01*
X166993863Y-62211408D01*
X167014459Y-61976000D01*
X166993863Y-61740592D01*
X166932703Y-61512337D01*
X166832835Y-61298171D01*
X166697295Y-61104599D01*
X166530201Y-60937505D01*
X166525768Y-60934401D01*
X166525761Y-60934395D01*
X166344642Y-60807575D01*
X166305776Y-60763257D01*
X166291765Y-60706000D01*
X166305776Y-60648743D01*
X166344642Y-60604425D01*
X166525761Y-60477604D01*
X166525761Y-60477603D01*
X166530201Y-60474495D01*
X166697295Y-60307401D01*
X166832835Y-60113830D01*
X166932703Y-59899663D01*
X166993863Y-59671408D01*
X167014459Y-59436000D01*
X166993863Y-59200592D01*
X166932703Y-58972337D01*
X166832835Y-58758171D01*
X166697295Y-58564599D01*
X166575369Y-58442673D01*
X166544073Y-58389927D01*
X166541884Y-58328634D01*
X166569337Y-58273789D01*
X166619716Y-58238810D01*
X166751131Y-58189796D01*
X166866346Y-58103546D01*
X166952596Y-57988331D01*
X167002891Y-57853483D01*
X167009300Y-57793873D01*
X167009299Y-55998128D01*
X167002891Y-55938517D01*
X166952596Y-55803669D01*
X166866346Y-55688454D01*
X166816188Y-55650906D01*
X166758231Y-55607519D01*
X166758230Y-55607518D01*
X166751131Y-55602204D01*
X166616283Y-55551909D01*
X166608570Y-55551079D01*
X166608567Y-55551079D01*
X166559980Y-55545855D01*
X166559969Y-55545854D01*
X166556673Y-55545500D01*
X166553350Y-55545500D01*
X164764239Y-55545500D01*
X164764220Y-55545500D01*
X164760928Y-55545501D01*
X164757650Y-55545853D01*
X164757638Y-55545854D01*
X164709031Y-55551079D01*
X164709025Y-55551080D01*
X164701317Y-55551909D01*
X164694052Y-55554618D01*
X164694046Y-55554620D01*
X164574780Y-55599104D01*
X164574778Y-55599104D01*
X164566469Y-55602204D01*
X164559372Y-55607516D01*
X164559368Y-55607519D01*
X164458350Y-55683141D01*
X164458346Y-55683144D01*
X164451254Y-55688454D01*
X164445944Y-55695546D01*
X164445941Y-55695550D01*
X164370319Y-55796568D01*
X164370316Y-55796572D01*
X164365004Y-55803669D01*
X164361904Y-55811978D01*
X164361904Y-55811980D01*
X164317420Y-55931247D01*
X164317419Y-55931250D01*
X164314709Y-55938517D01*
X164313879Y-55946227D01*
X164313879Y-55946232D01*
X164308655Y-55994819D01*
X164308654Y-55994831D01*
X164308300Y-55998127D01*
X164308300Y-56001449D01*
X164308300Y-56146500D01*
X164291687Y-56208500D01*
X164246300Y-56253887D01*
X164184300Y-56270500D01*
X162942571Y-56270500D01*
X162931518Y-56269979D01*
X162924132Y-56268328D01*
X162916334Y-56268573D01*
X162856944Y-56270439D01*
X162853050Y-56270500D01*
X162825450Y-56270500D01*
X162821599Y-56270986D01*
X162821568Y-56270988D01*
X162821440Y-56271005D01*
X162809829Y-56271918D01*
X162773971Y-56273045D01*
X162773964Y-56273046D01*
X162766172Y-56273291D01*
X162758688Y-56275465D01*
X162758677Y-56275467D01*
X162746928Y-56278881D01*
X162727883Y-56282825D01*
X162715747Y-56284358D01*
X162715744Y-56284358D01*
X162708008Y-56285336D01*
X162700760Y-56288205D01*
X162700750Y-56288208D01*
X162667392Y-56301415D01*
X162656350Y-56305196D01*
X162621897Y-56315207D01*
X162621892Y-56315208D01*
X162614410Y-56317383D01*
X162607702Y-56321349D01*
X162607697Y-56321352D01*
X162597164Y-56327581D01*
X162579700Y-56336136D01*
X162568324Y-56340640D01*
X162568317Y-56340643D01*
X162561068Y-56343514D01*
X162554762Y-56348094D01*
X162554757Y-56348098D01*
X162525727Y-56369189D01*
X162515969Y-56375598D01*
X162485098Y-56393856D01*
X162478379Y-56397830D01*
X162472863Y-56403344D01*
X162472856Y-56403351D01*
X162464207Y-56412000D01*
X162449424Y-56424626D01*
X162439527Y-56431817D01*
X162439520Y-56431823D01*
X162433213Y-56436406D01*
X162428246Y-56442408D01*
X162428235Y-56442420D01*
X162405370Y-56470059D01*
X162397510Y-56478697D01*
X161782496Y-57093711D01*
X161774311Y-57101159D01*
X161767923Y-57105214D01*
X161762588Y-57110894D01*
X161762583Y-57110899D01*
X161721896Y-57154225D01*
X161719192Y-57157016D01*
X161702428Y-57173780D01*
X161702421Y-57173787D01*
X161699680Y-57176529D01*
X161697300Y-57179596D01*
X161697289Y-57179609D01*
X161697200Y-57179725D01*
X161689642Y-57188570D01*
X161665080Y-57214727D01*
X161665073Y-57214736D01*
X161659738Y-57220418D01*
X161655982Y-57227249D01*
X161655979Y-57227254D01*
X161650085Y-57237975D01*
X161639409Y-57254227D01*
X161631909Y-57263896D01*
X161631901Y-57263907D01*
X161627127Y-57270064D01*
X161624034Y-57277208D01*
X161624029Y-57277219D01*
X161609774Y-57310160D01*
X161604638Y-57320643D01*
X161583603Y-57358908D01*
X161581664Y-57366456D01*
X161581663Y-57366461D01*
X161578622Y-57378307D01*
X161572321Y-57396711D01*
X161567458Y-57407948D01*
X161567456Y-57407952D01*
X161564362Y-57415104D01*
X161563142Y-57422803D01*
X161563142Y-57422805D01*
X161557529Y-57458241D01*
X161555161Y-57469676D01*
X161546238Y-57504428D01*
X161546236Y-57504436D01*
X161544300Y-57511981D01*
X161544300Y-57519777D01*
X161544300Y-57532017D01*
X161542774Y-57551402D01*
X161539640Y-57571196D01*
X161540374Y-57578962D01*
X161540374Y-57578966D01*
X161542261Y-57598928D01*
X161531863Y-57661539D01*
X161491848Y-57710804D01*
X161440162Y-57730912D01*
X161440447Y-57732159D01*
X161433663Y-57733707D01*
X161426741Y-57734487D01*
X161420171Y-57736785D01*
X161420166Y-57736787D01*
X161273678Y-57788045D01*
X161273672Y-57788047D01*
X161267110Y-57790344D01*
X161261219Y-57794045D01*
X161261218Y-57794046D01*
X161129810Y-57876615D01*
X161129805Y-57876618D01*
X161123910Y-57880323D01*
X161118985Y-57885247D01*
X161118981Y-57885251D01*
X161009251Y-57994981D01*
X161009247Y-57994985D01*
X161004323Y-57999910D01*
X161000618Y-58005805D01*
X161000615Y-58005810D01*
X160935866Y-58108858D01*
X160914344Y-58143110D01*
X160912047Y-58149672D01*
X160912045Y-58149678D01*
X160860787Y-58296166D01*
X160860785Y-58296171D01*
X160858487Y-58302741D01*
X160857707Y-58309655D01*
X160857706Y-58309664D01*
X160848663Y-58389926D01*
X160839551Y-58470800D01*
X160840331Y-58477723D01*
X160857706Y-58631935D01*
X160857707Y-58631942D01*
X160858487Y-58638859D01*
X160860786Y-58645430D01*
X160860787Y-58645433D01*
X160900235Y-58758171D01*
X160914344Y-58798490D01*
X161004323Y-58941690D01*
X161123910Y-59061277D01*
X161267110Y-59151256D01*
X161426741Y-59207113D01*
X161434191Y-59207952D01*
X161434616Y-59208110D01*
X161440447Y-59209441D01*
X161440271Y-59210208D01*
X161490155Y-59228721D01*
X161529931Y-59273233D01*
X161544300Y-59331172D01*
X161544300Y-61064828D01*
X161529931Y-61122767D01*
X161490155Y-61167279D01*
X161440271Y-61185791D01*
X161440447Y-61186559D01*
X161434616Y-61187889D01*
X161434191Y-61188047D01*
X161433911Y-61188079D01*
X161433661Y-61188107D01*
X161433658Y-61188107D01*
X161426741Y-61188887D01*
X161420171Y-61191185D01*
X161420166Y-61191187D01*
X161273678Y-61242445D01*
X161273672Y-61242447D01*
X161267110Y-61244744D01*
X161261219Y-61248445D01*
X161261218Y-61248446D01*
X161129810Y-61331015D01*
X161129805Y-61331018D01*
X161123910Y-61334723D01*
X161118985Y-61339647D01*
X161118981Y-61339651D01*
X161009251Y-61449381D01*
X161009247Y-61449385D01*
X161004323Y-61454310D01*
X161000618Y-61460205D01*
X161000615Y-61460210D01*
X160949966Y-61540818D01*
X160914344Y-61597510D01*
X160912047Y-61604072D01*
X160912045Y-61604078D01*
X160860787Y-61750566D01*
X160860785Y-61750571D01*
X160858487Y-61757141D01*
X160857707Y-61764055D01*
X160857706Y-61764064D01*
X160846055Y-61867477D01*
X160839551Y-61925200D01*
X160840331Y-61932123D01*
X160857706Y-62086335D01*
X160857707Y-62086342D01*
X160858487Y-62093259D01*
X160860786Y-62099830D01*
X160860787Y-62099833D01*
X160901657Y-62216634D01*
X160914344Y-62252890D01*
X160918045Y-62258780D01*
X160918046Y-62258782D01*
X160989901Y-62373139D01*
X161008127Y-62425228D01*
X161001948Y-62480066D01*
X160972588Y-62526792D01*
X155256394Y-68242986D01*
X155209668Y-68272347D01*
X155154829Y-68278525D01*
X155102741Y-68260299D01*
X155029917Y-68214540D01*
X154990897Y-68175519D01*
X154972672Y-68123436D01*
X154965113Y-68056341D01*
X154909256Y-67896710D01*
X154819277Y-67753510D01*
X154699690Y-67633923D01*
X154691600Y-67628840D01*
X154641216Y-67597181D01*
X154556490Y-67543944D01*
X154549924Y-67541646D01*
X154549921Y-67541645D01*
X154403433Y-67490387D01*
X154403430Y-67490386D01*
X154396859Y-67488087D01*
X154389942Y-67487307D01*
X154389935Y-67487306D01*
X154235723Y-67469931D01*
X154228800Y-67469151D01*
X154221877Y-67469931D01*
X154067664Y-67487306D01*
X154067655Y-67487307D01*
X154060741Y-67488087D01*
X154054171Y-67490385D01*
X154054166Y-67490387D01*
X153907678Y-67541645D01*
X153907672Y-67541647D01*
X153901110Y-67543944D01*
X153895219Y-67547645D01*
X153895218Y-67547646D01*
X153763810Y-67630215D01*
X153763805Y-67630218D01*
X153757910Y-67633923D01*
X153752985Y-67638847D01*
X153752981Y-67638851D01*
X153643251Y-67748581D01*
X153643247Y-67748585D01*
X153638323Y-67753510D01*
X153634618Y-67759405D01*
X153634615Y-67759410D01*
X153564062Y-67871695D01*
X153548344Y-67896710D01*
X153546047Y-67903272D01*
X153546045Y-67903278D01*
X153494787Y-68049766D01*
X153494787Y-68049768D01*
X153492487Y-68056341D01*
X153491707Y-68063255D01*
X153491706Y-68063264D01*
X153477120Y-68192723D01*
X153473551Y-68224400D01*
X153474331Y-68231323D01*
X153491706Y-68385535D01*
X153491707Y-68385542D01*
X153492487Y-68392459D01*
X153494786Y-68399030D01*
X153494787Y-68399033D01*
X153530338Y-68500633D01*
X153548344Y-68552090D01*
X153638323Y-68695290D01*
X153757910Y-68814877D01*
X153884879Y-68894657D01*
X153923901Y-68933679D01*
X153942127Y-68985766D01*
X153944617Y-69007861D01*
X153949687Y-69052859D01*
X153951986Y-69059430D01*
X153951987Y-69059433D01*
X154002058Y-69202530D01*
X154005544Y-69212490D01*
X154046399Y-69277510D01*
X154061499Y-69301541D01*
X154079725Y-69353629D01*
X154073547Y-69408467D01*
X154044186Y-69455194D01*
X153178627Y-70320754D01*
X153128602Y-70351217D01*
X153070175Y-70355321D01*
X153016383Y-70332150D01*
X152980145Y-70287995D01*
X152978856Y-70284310D01*
X152888877Y-70141110D01*
X152769290Y-70021523D01*
X152626090Y-69931544D01*
X152619524Y-69929246D01*
X152619521Y-69929245D01*
X152473033Y-69877987D01*
X152473030Y-69877986D01*
X152466459Y-69875687D01*
X152459542Y-69874907D01*
X152459535Y-69874906D01*
X152305323Y-69857531D01*
X152298400Y-69856751D01*
X152291477Y-69857531D01*
X152137264Y-69874906D01*
X152137255Y-69874907D01*
X152130341Y-69875687D01*
X152123771Y-69877985D01*
X152123766Y-69877987D01*
X151977278Y-69929245D01*
X151977272Y-69929247D01*
X151970710Y-69931544D01*
X151964819Y-69935245D01*
X151964818Y-69935246D01*
X151833410Y-70017815D01*
X151833405Y-70017818D01*
X151827510Y-70021523D01*
X151822585Y-70026447D01*
X151822581Y-70026451D01*
X151712851Y-70136181D01*
X151712847Y-70136185D01*
X151707923Y-70141110D01*
X151704218Y-70147005D01*
X151704215Y-70147010D01*
X151647180Y-70237781D01*
X151617944Y-70284310D01*
X151615647Y-70290872D01*
X151615645Y-70290878D01*
X151562087Y-70443941D01*
X151559981Y-70443204D01*
X151532011Y-70493797D01*
X149954669Y-72071138D01*
X149901316Y-72102611D01*
X149839395Y-72104348D01*
X149784361Y-72075917D01*
X149749946Y-72024412D01*
X149729953Y-71967275D01*
X149727656Y-71960710D01*
X149637677Y-71817510D01*
X149612048Y-71791881D01*
X149579954Y-71736294D01*
X149579954Y-71672106D01*
X149612048Y-71616519D01*
X149647201Y-71581366D01*
X149688477Y-71540090D01*
X149778456Y-71396890D01*
X149834313Y-71237259D01*
X149848514Y-71111214D01*
X149852469Y-71076123D01*
X149853249Y-71069200D01*
X149834313Y-70901141D01*
X149778456Y-70741510D01*
X149721004Y-70650077D01*
X149702778Y-70597988D01*
X149708957Y-70543149D01*
X149711428Y-70536087D01*
X149732713Y-70475259D01*
X149751649Y-70307200D01*
X149732713Y-70139141D01*
X149676856Y-69979510D01*
X149586877Y-69836310D01*
X149467290Y-69716723D01*
X149324090Y-69626744D01*
X149317527Y-69624447D01*
X149317524Y-69624446D01*
X149296783Y-69617189D01*
X149285713Y-69613315D01*
X149238988Y-69583955D01*
X149209627Y-69537228D01*
X149180922Y-69455194D01*
X149168856Y-69420710D01*
X149078877Y-69277510D01*
X149075458Y-69274091D01*
X149049980Y-69214947D01*
X149058200Y-69150159D01*
X149098198Y-69098532D01*
X149158877Y-69074389D01*
X149266059Y-69062313D01*
X149425690Y-69006456D01*
X149568890Y-68916477D01*
X149688477Y-68796890D01*
X149778456Y-68653690D01*
X149834313Y-68494059D01*
X149853249Y-68326000D01*
X149852393Y-68318407D01*
X149841021Y-68217477D01*
X149834313Y-68157941D01*
X149778456Y-67998310D01*
X149688477Y-67855110D01*
X149568890Y-67735523D01*
X149545942Y-67721104D01*
X149469072Y-67672803D01*
X149425690Y-67645544D01*
X149419124Y-67643246D01*
X149419121Y-67643245D01*
X149272633Y-67591987D01*
X149272630Y-67591986D01*
X149266059Y-67589687D01*
X149259142Y-67588907D01*
X149259135Y-67588906D01*
X149104923Y-67571531D01*
X149098000Y-67570751D01*
X149091077Y-67571531D01*
X148936864Y-67588906D01*
X148936855Y-67588907D01*
X148929941Y-67589687D01*
X148923371Y-67591985D01*
X148923366Y-67591987D01*
X148776878Y-67643245D01*
X148776872Y-67643247D01*
X148770310Y-67645544D01*
X148764419Y-67649245D01*
X148764418Y-67649246D01*
X148633010Y-67731815D01*
X148633005Y-67731818D01*
X148627110Y-67735523D01*
X148622185Y-67740447D01*
X148622181Y-67740451D01*
X148512451Y-67850181D01*
X148512447Y-67850185D01*
X148507523Y-67855110D01*
X148503818Y-67861005D01*
X148503815Y-67861010D01*
X148464886Y-67922966D01*
X148417544Y-67998310D01*
X148415247Y-68004872D01*
X148415245Y-68004878D01*
X148363987Y-68151366D01*
X148363985Y-68151371D01*
X148361687Y-68157941D01*
X148360907Y-68164855D01*
X148360906Y-68164864D01*
X148343531Y-68319077D01*
X148342751Y-68326000D01*
X148343531Y-68332923D01*
X148343531Y-68332924D01*
X148352870Y-68415815D01*
X148344736Y-68475863D01*
X148309118Y-68524886D01*
X148254523Y-68551178D01*
X148193987Y-68548459D01*
X148141969Y-68517379D01*
X148052165Y-68427575D01*
X147496286Y-67871695D01*
X147488842Y-67863514D01*
X147484786Y-67857123D01*
X147435775Y-67811098D01*
X147432978Y-67808387D01*
X147416227Y-67791636D01*
X147413471Y-67788880D01*
X147410290Y-67786412D01*
X147401414Y-67778830D01*
X147375269Y-67754278D01*
X147375267Y-67754276D01*
X147369582Y-67748938D01*
X147362749Y-67745182D01*
X147362743Y-67745177D01*
X147352025Y-67739285D01*
X147335766Y-67728606D01*
X147326095Y-67721104D01*
X147326092Y-67721102D01*
X147319936Y-67716327D01*
X147312779Y-67713229D01*
X147312776Y-67713228D01*
X147279849Y-67698978D01*
X147269363Y-67693841D01*
X147231093Y-67672803D01*
X147232331Y-67670550D01*
X147195743Y-67644438D01*
X147168988Y-67591155D01*
X147170194Y-67531543D01*
X147199083Y-67479386D01*
X147248976Y-67446742D01*
X147292090Y-67431656D01*
X147435290Y-67341677D01*
X147554877Y-67222090D01*
X147644856Y-67078890D01*
X147700713Y-66919259D01*
X147715662Y-66786584D01*
X147718869Y-66758123D01*
X147719649Y-66751200D01*
X147700713Y-66583141D01*
X147644856Y-66423510D01*
X147554877Y-66280310D01*
X147466967Y-66192400D01*
X149358751Y-66192400D01*
X149359531Y-66199323D01*
X149376906Y-66353535D01*
X149376907Y-66353542D01*
X149377687Y-66360459D01*
X149379986Y-66367030D01*
X149379987Y-66367033D01*
X149422808Y-66489410D01*
X149433544Y-66520090D01*
X149523523Y-66663290D01*
X149643110Y-66782877D01*
X149786310Y-66872856D01*
X149945941Y-66928713D01*
X150114000Y-66947649D01*
X150282059Y-66928713D01*
X150441690Y-66872856D01*
X150584890Y-66782877D01*
X150704477Y-66663290D01*
X150794456Y-66520090D01*
X150850313Y-66360459D01*
X150869249Y-66192400D01*
X150868371Y-66184612D01*
X150851093Y-66031264D01*
X150850313Y-66024341D01*
X150794456Y-65864710D01*
X150704477Y-65721510D01*
X150584890Y-65601923D01*
X150441690Y-65511944D01*
X150435124Y-65509646D01*
X150435121Y-65509645D01*
X150288633Y-65458387D01*
X150288630Y-65458386D01*
X150282059Y-65456087D01*
X150275142Y-65455307D01*
X150275135Y-65455306D01*
X150120923Y-65437931D01*
X150114000Y-65437151D01*
X150107077Y-65437931D01*
X149952864Y-65455306D01*
X149952855Y-65455307D01*
X149945941Y-65456087D01*
X149939371Y-65458385D01*
X149939366Y-65458387D01*
X149792878Y-65509645D01*
X149792872Y-65509647D01*
X149786310Y-65511944D01*
X149780419Y-65515645D01*
X149780418Y-65515646D01*
X149649010Y-65598215D01*
X149649005Y-65598218D01*
X149643110Y-65601923D01*
X149638185Y-65606847D01*
X149638181Y-65606851D01*
X149528451Y-65716581D01*
X149528447Y-65716585D01*
X149523523Y-65721510D01*
X149519818Y-65727405D01*
X149519815Y-65727410D01*
X149492840Y-65770341D01*
X149433544Y-65864710D01*
X149431247Y-65871272D01*
X149431245Y-65871278D01*
X149379987Y-66017766D01*
X149379985Y-66017771D01*
X149377687Y-66024341D01*
X149376907Y-66031255D01*
X149376906Y-66031264D01*
X149359531Y-66185477D01*
X149358751Y-66192400D01*
X147466967Y-66192400D01*
X147435290Y-66160723D01*
X147292090Y-66070744D01*
X147285524Y-66068446D01*
X147285521Y-66068445D01*
X147139033Y-66017187D01*
X147139030Y-66017186D01*
X147132459Y-66014887D01*
X147125542Y-66014107D01*
X147125535Y-66014106D01*
X146971323Y-65996731D01*
X146964400Y-65995951D01*
X146957477Y-65996731D01*
X146803264Y-66014106D01*
X146803255Y-66014107D01*
X146796341Y-66014887D01*
X146789771Y-66017185D01*
X146789766Y-66017187D01*
X146643278Y-66068445D01*
X146643272Y-66068447D01*
X146636710Y-66070744D01*
X146630819Y-66074445D01*
X146630818Y-66074446D01*
X146499410Y-66157015D01*
X146499405Y-66157018D01*
X146493510Y-66160723D01*
X146488585Y-66165647D01*
X146488585Y-66165648D01*
X146464390Y-66189843D01*
X146417663Y-66219202D01*
X146362826Y-66225380D01*
X146310738Y-66207154D01*
X146180382Y-66125246D01*
X146180380Y-66125245D01*
X146174490Y-66121544D01*
X146167924Y-66119246D01*
X146167921Y-66119245D01*
X146021433Y-66067987D01*
X146021430Y-66067986D01*
X146014859Y-66065687D01*
X146007942Y-66064907D01*
X146007935Y-66064906D01*
X145853723Y-66047531D01*
X145846800Y-66046751D01*
X145839877Y-66047531D01*
X145685664Y-66064906D01*
X145685655Y-66064907D01*
X145678741Y-66065687D01*
X145672171Y-66067985D01*
X145672166Y-66067987D01*
X145525678Y-66119245D01*
X145525672Y-66119247D01*
X145519110Y-66121544D01*
X145513219Y-66125245D01*
X145513218Y-66125246D01*
X145381810Y-66207815D01*
X145381805Y-66207818D01*
X145375910Y-66211523D01*
X145370985Y-66216447D01*
X145370981Y-66216451D01*
X145261251Y-66326181D01*
X145261247Y-66326185D01*
X145256323Y-66331110D01*
X145252618Y-66337005D01*
X145252615Y-66337010D01*
X145201966Y-66417618D01*
X145166344Y-66474310D01*
X145164047Y-66480872D01*
X145164045Y-66480878D01*
X145112787Y-66627366D01*
X145112785Y-66627371D01*
X145110487Y-66633941D01*
X145109707Y-66640855D01*
X145109706Y-66640864D01*
X145103847Y-66692869D01*
X145091551Y-66802000D01*
X145092331Y-66808923D01*
X145109706Y-66963135D01*
X145109707Y-66963142D01*
X145110487Y-66970059D01*
X145112786Y-66976630D01*
X145112787Y-66976633D01*
X145163813Y-67122459D01*
X145166344Y-67129690D01*
X145256323Y-67272890D01*
X145375910Y-67392477D01*
X145381810Y-67396184D01*
X145395054Y-67404506D01*
X145438276Y-67450740D01*
X145453051Y-67512282D01*
X145435530Y-67573100D01*
X145390277Y-67617348D01*
X145329082Y-67633500D01*
X144343326Y-67633500D01*
X144277353Y-67614493D01*
X144231605Y-67563300D01*
X144220106Y-67495614D01*
X144246381Y-67432185D01*
X144247951Y-67430215D01*
X144252877Y-67425290D01*
X144342856Y-67282090D01*
X144398713Y-67122459D01*
X144417649Y-66954400D01*
X144413689Y-66919259D01*
X144399493Y-66793264D01*
X144398713Y-66786341D01*
X144342856Y-66626710D01*
X144252877Y-66483510D01*
X144133290Y-66363923D01*
X143990090Y-66273944D01*
X143983524Y-66271646D01*
X143983521Y-66271645D01*
X143837033Y-66220387D01*
X143837030Y-66220386D01*
X143830459Y-66218087D01*
X143823542Y-66217307D01*
X143823535Y-66217306D01*
X143669323Y-66199931D01*
X143662400Y-66199151D01*
X143655477Y-66199931D01*
X143501264Y-66217306D01*
X143501255Y-66217307D01*
X143494341Y-66218087D01*
X143487768Y-66220386D01*
X143487763Y-66220388D01*
X143438544Y-66237610D01*
X143383707Y-66243788D01*
X143331619Y-66225562D01*
X143295939Y-66189882D01*
X143295725Y-66190053D01*
X143294208Y-66188151D01*
X143292598Y-66186541D01*
X143291386Y-66184612D01*
X143291383Y-66184608D01*
X143287677Y-66178710D01*
X143168090Y-66059123D01*
X143024890Y-65969144D01*
X143018324Y-65966846D01*
X143018321Y-65966845D01*
X142871833Y-65915587D01*
X142871830Y-65915586D01*
X142865259Y-65913287D01*
X142858342Y-65912507D01*
X142858335Y-65912506D01*
X142704123Y-65895131D01*
X142697200Y-65894351D01*
X142690277Y-65895131D01*
X142536064Y-65912506D01*
X142536055Y-65912507D01*
X142529141Y-65913287D01*
X142522571Y-65915585D01*
X142522566Y-65915587D01*
X142376078Y-65966845D01*
X142376072Y-65966847D01*
X142369510Y-65969144D01*
X142363619Y-65972845D01*
X142363618Y-65972846D01*
X142232210Y-66055415D01*
X142232205Y-66055418D01*
X142226310Y-66059123D01*
X142221385Y-66064047D01*
X142221381Y-66064051D01*
X142111651Y-66173781D01*
X142111647Y-66173785D01*
X142106723Y-66178710D01*
X142103018Y-66184605D01*
X142103015Y-66184610D01*
X142046883Y-66273944D01*
X142016744Y-66321910D01*
X142014447Y-66328472D01*
X142014445Y-66328478D01*
X141963187Y-66474966D01*
X141963185Y-66474971D01*
X141960887Y-66481541D01*
X141960107Y-66488455D01*
X141960106Y-66488464D01*
X141945832Y-66615153D01*
X141941951Y-66649600D01*
X141942731Y-66656523D01*
X141960106Y-66810735D01*
X141960107Y-66810742D01*
X141960887Y-66817659D01*
X141963186Y-66824230D01*
X141963187Y-66824233D01*
X142014213Y-66970059D01*
X142016744Y-66977290D01*
X142106723Y-67120490D01*
X142226310Y-67240077D01*
X142369510Y-67330056D01*
X142529141Y-67385913D01*
X142536065Y-67386693D01*
X142542847Y-67388241D01*
X142542421Y-67390105D01*
X142590270Y-67408371D01*
X142630234Y-67455699D01*
X142642319Y-67516453D01*
X142623508Y-67575472D01*
X142578495Y-67618028D01*
X142518514Y-67633500D01*
X138927453Y-67633500D01*
X138880000Y-67624061D01*
X138839772Y-67597181D01*
X137180991Y-65938400D01*
X138792351Y-65938400D01*
X138793131Y-65945323D01*
X138810506Y-66099535D01*
X138810507Y-66099542D01*
X138811287Y-66106459D01*
X138813586Y-66113030D01*
X138813587Y-66113033D01*
X138852962Y-66225562D01*
X138867144Y-66266090D01*
X138957123Y-66409290D01*
X139076710Y-66528877D01*
X139219910Y-66618856D01*
X139379541Y-66674713D01*
X139547600Y-66693649D01*
X139715659Y-66674713D01*
X139875290Y-66618856D01*
X140018490Y-66528877D01*
X140138077Y-66409290D01*
X140228056Y-66266090D01*
X140283913Y-66106459D01*
X140302849Y-65938400D01*
X140283913Y-65770341D01*
X140228056Y-65610710D01*
X140138077Y-65467510D01*
X140018490Y-65347923D01*
X139875290Y-65257944D01*
X139868724Y-65255646D01*
X139868721Y-65255645D01*
X139722233Y-65204387D01*
X139722230Y-65204386D01*
X139715659Y-65202087D01*
X139708742Y-65201307D01*
X139708735Y-65201306D01*
X139554523Y-65183931D01*
X139547600Y-65183151D01*
X139540677Y-65183931D01*
X139386464Y-65201306D01*
X139386455Y-65201307D01*
X139379541Y-65202087D01*
X139372971Y-65204385D01*
X139372966Y-65204387D01*
X139226478Y-65255645D01*
X139226472Y-65255647D01*
X139219910Y-65257944D01*
X139214019Y-65261645D01*
X139214018Y-65261646D01*
X139082610Y-65344215D01*
X139082605Y-65344218D01*
X139076710Y-65347923D01*
X139071785Y-65352847D01*
X139071781Y-65352851D01*
X138962051Y-65462581D01*
X138962047Y-65462585D01*
X138957123Y-65467510D01*
X138953418Y-65473405D01*
X138953415Y-65473410D01*
X138874995Y-65598215D01*
X138867144Y-65610710D01*
X138864847Y-65617272D01*
X138864845Y-65617278D01*
X138813587Y-65763766D01*
X138813585Y-65763771D01*
X138811287Y-65770341D01*
X138810507Y-65777255D01*
X138810506Y-65777264D01*
X138794921Y-65915587D01*
X138792351Y-65938400D01*
X137180991Y-65938400D01*
X135236701Y-63994110D01*
X135203491Y-63934021D01*
X135207341Y-63865473D01*
X135247071Y-63809480D01*
X135310495Y-63783210D01*
X135346859Y-63779113D01*
X135506490Y-63723256D01*
X135649690Y-63633277D01*
X135769277Y-63513690D01*
X135859256Y-63370490D01*
X135915113Y-63210859D01*
X135929314Y-63084814D01*
X135933269Y-63049723D01*
X135934049Y-63042800D01*
X135915113Y-62874741D01*
X135859256Y-62715110D01*
X135769277Y-62571910D01*
X135649690Y-62452323D01*
X135638949Y-62445574D01*
X135523917Y-62373294D01*
X135480695Y-62327059D01*
X135465920Y-62265517D01*
X135483441Y-62204700D01*
X135528694Y-62160452D01*
X135589889Y-62144300D01*
X136637131Y-62144300D01*
X136699131Y-62160913D01*
X136744518Y-62206300D01*
X136761131Y-62268300D01*
X136761131Y-62273877D01*
X136760351Y-62280800D01*
X136761131Y-62287723D01*
X136778506Y-62441935D01*
X136778507Y-62441942D01*
X136779287Y-62448859D01*
X136781586Y-62455430D01*
X136781587Y-62455433D01*
X136830883Y-62596315D01*
X136835144Y-62608490D01*
X136925123Y-62751690D01*
X137044710Y-62871277D01*
X137187910Y-62961256D01*
X137347541Y-63017113D01*
X137515600Y-63036049D01*
X137683659Y-63017113D01*
X137843290Y-62961256D01*
X137986490Y-62871277D01*
X138106077Y-62751690D01*
X138196056Y-62608490D01*
X138251913Y-62448859D01*
X138270849Y-62280800D01*
X138270069Y-62273877D01*
X138270069Y-62268300D01*
X138286682Y-62206300D01*
X138332069Y-62160913D01*
X138394069Y-62144300D01*
X140761148Y-62144300D01*
X140808601Y-62153739D01*
X140848829Y-62180619D01*
X141491303Y-62823093D01*
X141521766Y-62873117D01*
X141525871Y-62931542D01*
X141502702Y-62985334D01*
X141458617Y-63021516D01*
X141455110Y-63022744D01*
X141449218Y-63026445D01*
X141449214Y-63026448D01*
X141317810Y-63109015D01*
X141317805Y-63109018D01*
X141311910Y-63112723D01*
X141306985Y-63117647D01*
X141306981Y-63117651D01*
X141197251Y-63227381D01*
X141197247Y-63227385D01*
X141192323Y-63232310D01*
X141188618Y-63238205D01*
X141188615Y-63238210D01*
X141132483Y-63327544D01*
X141102344Y-63375510D01*
X141100047Y-63382072D01*
X141100045Y-63382078D01*
X141048787Y-63528566D01*
X141048785Y-63528571D01*
X141046487Y-63535141D01*
X141045707Y-63542055D01*
X141045706Y-63542064D01*
X141034585Y-63640769D01*
X141027551Y-63703200D01*
X141028331Y-63710123D01*
X141045706Y-63864335D01*
X141045707Y-63864342D01*
X141046487Y-63871259D01*
X141048786Y-63877830D01*
X141048787Y-63877833D01*
X141087032Y-63987133D01*
X141102344Y-64030890D01*
X141192323Y-64174090D01*
X141311910Y-64293677D01*
X141455110Y-64383656D01*
X141614741Y-64439513D01*
X141782800Y-64458449D01*
X141950859Y-64439513D01*
X142110490Y-64383656D01*
X142223256Y-64312800D01*
X152406751Y-64312800D01*
X152407531Y-64319723D01*
X152424906Y-64473935D01*
X152424907Y-64473942D01*
X152425687Y-64480859D01*
X152427986Y-64487430D01*
X152427987Y-64487433D01*
X152443462Y-64531659D01*
X152481544Y-64640490D01*
X152571523Y-64783690D01*
X152691110Y-64903277D01*
X152834310Y-64993256D01*
X152993941Y-65049113D01*
X153162000Y-65068049D01*
X153330059Y-65049113D01*
X153489690Y-64993256D01*
X153632890Y-64903277D01*
X153752477Y-64783690D01*
X153842456Y-64640490D01*
X153898313Y-64480859D01*
X153911525Y-64363600D01*
X154946751Y-64363600D01*
X154947531Y-64370523D01*
X154964906Y-64524735D01*
X154964907Y-64524742D01*
X154965687Y-64531659D01*
X154967986Y-64538230D01*
X154967987Y-64538233D01*
X155005829Y-64646381D01*
X155021544Y-64691290D01*
X155111523Y-64834490D01*
X155231110Y-64954077D01*
X155374310Y-65044056D01*
X155533941Y-65099913D01*
X155702000Y-65118849D01*
X155870059Y-65099913D01*
X156029690Y-65044056D01*
X156172890Y-64954077D01*
X156292477Y-64834490D01*
X156382456Y-64691290D01*
X156438313Y-64531659D01*
X156457249Y-64363600D01*
X156438313Y-64195541D01*
X156382456Y-64035910D01*
X156364919Y-64008000D01*
X156826351Y-64008000D01*
X156827131Y-64014923D01*
X156844506Y-64169135D01*
X156844507Y-64169142D01*
X156845287Y-64176059D01*
X156847586Y-64182630D01*
X156847587Y-64182633D01*
X156883750Y-64285982D01*
X156901144Y-64335690D01*
X156991123Y-64478890D01*
X157110710Y-64598477D01*
X157253910Y-64688456D01*
X157413541Y-64744313D01*
X157581600Y-64763249D01*
X157749659Y-64744313D01*
X157909290Y-64688456D01*
X158052490Y-64598477D01*
X158172077Y-64478890D01*
X158262056Y-64335690D01*
X158317913Y-64176059D01*
X158336849Y-64008000D01*
X158317913Y-63839941D01*
X158262056Y-63680310D01*
X158172077Y-63537110D01*
X158052490Y-63417523D01*
X157909290Y-63327544D01*
X157902724Y-63325246D01*
X157902721Y-63325245D01*
X157756233Y-63273987D01*
X157756230Y-63273986D01*
X157749659Y-63271687D01*
X157742742Y-63270907D01*
X157742735Y-63270906D01*
X157588523Y-63253531D01*
X157581600Y-63252751D01*
X157574677Y-63253531D01*
X157420464Y-63270906D01*
X157420455Y-63270907D01*
X157413541Y-63271687D01*
X157406971Y-63273985D01*
X157406966Y-63273987D01*
X157260478Y-63325245D01*
X157260472Y-63325247D01*
X157253910Y-63327544D01*
X157248019Y-63331245D01*
X157248018Y-63331246D01*
X157116610Y-63413815D01*
X157116605Y-63413818D01*
X157110710Y-63417523D01*
X157105785Y-63422447D01*
X157105781Y-63422451D01*
X156996051Y-63532181D01*
X156996047Y-63532185D01*
X156991123Y-63537110D01*
X156987418Y-63543005D01*
X156987415Y-63543010D01*
X156920796Y-63649034D01*
X156901144Y-63680310D01*
X156898847Y-63686872D01*
X156898845Y-63686878D01*
X156847587Y-63833366D01*
X156847585Y-63833371D01*
X156845287Y-63839941D01*
X156844507Y-63846855D01*
X156844506Y-63846864D01*
X156829245Y-63982313D01*
X156826351Y-64008000D01*
X156364919Y-64008000D01*
X156292477Y-63892710D01*
X156172890Y-63773123D01*
X156029690Y-63683144D01*
X156023124Y-63680846D01*
X156023121Y-63680845D01*
X155876633Y-63629587D01*
X155876630Y-63629586D01*
X155870059Y-63627287D01*
X155863142Y-63626507D01*
X155863135Y-63626506D01*
X155708923Y-63609131D01*
X155702000Y-63608351D01*
X155695077Y-63609131D01*
X155540864Y-63626506D01*
X155540855Y-63626507D01*
X155533941Y-63627287D01*
X155527371Y-63629585D01*
X155527366Y-63629587D01*
X155380878Y-63680845D01*
X155380872Y-63680847D01*
X155374310Y-63683144D01*
X155368419Y-63686845D01*
X155368418Y-63686846D01*
X155237010Y-63769415D01*
X155237005Y-63769418D01*
X155231110Y-63773123D01*
X155226185Y-63778047D01*
X155226181Y-63778051D01*
X155116451Y-63887781D01*
X155116447Y-63887785D01*
X155111523Y-63892710D01*
X155107818Y-63898605D01*
X155107815Y-63898610D01*
X155043813Y-64000469D01*
X155021544Y-64035910D01*
X155019247Y-64042472D01*
X155019245Y-64042478D01*
X154967987Y-64188966D01*
X154967985Y-64188971D01*
X154965687Y-64195541D01*
X154964907Y-64202455D01*
X154964906Y-64202464D01*
X154953255Y-64305877D01*
X154946751Y-64363600D01*
X153911525Y-64363600D01*
X153917249Y-64312800D01*
X153898313Y-64144741D01*
X153842456Y-63985110D01*
X153752477Y-63841910D01*
X153632890Y-63722323D01*
X153624243Y-63716890D01*
X153556650Y-63674418D01*
X153489690Y-63632344D01*
X153483124Y-63630046D01*
X153483121Y-63630045D01*
X153336633Y-63578787D01*
X153336630Y-63578786D01*
X153330059Y-63576487D01*
X153323142Y-63575707D01*
X153323135Y-63575706D01*
X153168923Y-63558331D01*
X153162000Y-63557551D01*
X153155077Y-63558331D01*
X153000864Y-63575706D01*
X153000855Y-63575707D01*
X152993941Y-63576487D01*
X152987371Y-63578785D01*
X152987366Y-63578787D01*
X152840878Y-63630045D01*
X152840872Y-63630047D01*
X152834310Y-63632344D01*
X152828419Y-63636045D01*
X152828418Y-63636046D01*
X152697010Y-63718615D01*
X152697005Y-63718618D01*
X152691110Y-63722323D01*
X152686185Y-63727247D01*
X152686181Y-63727251D01*
X152576451Y-63836981D01*
X152576447Y-63836985D01*
X152571523Y-63841910D01*
X152567818Y-63847805D01*
X152567815Y-63847810D01*
X152485246Y-63979218D01*
X152481544Y-63985110D01*
X152479247Y-63991672D01*
X152479245Y-63991678D01*
X152427987Y-64138166D01*
X152427985Y-64138171D01*
X152425687Y-64144741D01*
X152424907Y-64151655D01*
X152424906Y-64151664D01*
X152419047Y-64203669D01*
X152406751Y-64312800D01*
X142223256Y-64312800D01*
X142253690Y-64293677D01*
X142373277Y-64174090D01*
X142412533Y-64111613D01*
X142459583Y-64067958D01*
X142522161Y-64053675D01*
X142583496Y-64072593D01*
X142674310Y-64129656D01*
X142833941Y-64185513D01*
X143002000Y-64204449D01*
X143170059Y-64185513D01*
X143329690Y-64129656D01*
X143472890Y-64039677D01*
X143592477Y-63920090D01*
X143682456Y-63776890D01*
X143738313Y-63617259D01*
X143757249Y-63449200D01*
X143753289Y-63414059D01*
X143739093Y-63288064D01*
X143738313Y-63281141D01*
X143726017Y-63246000D01*
X148088751Y-63246000D01*
X148089531Y-63252923D01*
X148106906Y-63407135D01*
X148106907Y-63407142D01*
X148107687Y-63414059D01*
X148109986Y-63420630D01*
X148109987Y-63420633D01*
X148158169Y-63558331D01*
X148163544Y-63573690D01*
X148253523Y-63716890D01*
X148373110Y-63836477D01*
X148516310Y-63926456D01*
X148675941Y-63982313D01*
X148844000Y-64001249D01*
X149012059Y-63982313D01*
X149171690Y-63926456D01*
X149314890Y-63836477D01*
X149434477Y-63716890D01*
X149524456Y-63573690D01*
X149580313Y-63414059D01*
X149594515Y-63288014D01*
X149598469Y-63252923D01*
X149599249Y-63246000D01*
X149597706Y-63232310D01*
X149581093Y-63084864D01*
X149580313Y-63077941D01*
X149524456Y-62918310D01*
X149434477Y-62775110D01*
X149314890Y-62655523D01*
X149171690Y-62565544D01*
X149165124Y-62563246D01*
X149165121Y-62563245D01*
X149018633Y-62511987D01*
X149018630Y-62511986D01*
X149012059Y-62509687D01*
X149005142Y-62508907D01*
X149005135Y-62508906D01*
X148850923Y-62491531D01*
X148844000Y-62490751D01*
X148837077Y-62491531D01*
X148682864Y-62508906D01*
X148682855Y-62508907D01*
X148675941Y-62509687D01*
X148669371Y-62511985D01*
X148669366Y-62511987D01*
X148522878Y-62563245D01*
X148522872Y-62563247D01*
X148516310Y-62565544D01*
X148510419Y-62569245D01*
X148510418Y-62569246D01*
X148379010Y-62651815D01*
X148379005Y-62651818D01*
X148373110Y-62655523D01*
X148368185Y-62660447D01*
X148368181Y-62660451D01*
X148258451Y-62770181D01*
X148258447Y-62770185D01*
X148253523Y-62775110D01*
X148249818Y-62781005D01*
X148249815Y-62781010D01*
X148183640Y-62886327D01*
X148163544Y-62918310D01*
X148161247Y-62924872D01*
X148161245Y-62924878D01*
X148109987Y-63071366D01*
X148109985Y-63071371D01*
X148107687Y-63077941D01*
X148106907Y-63084855D01*
X148106906Y-63084864D01*
X148089629Y-63238210D01*
X148088751Y-63246000D01*
X143726017Y-63246000D01*
X143682456Y-63121510D01*
X143592477Y-62978310D01*
X143472890Y-62858723D01*
X143329690Y-62768744D01*
X143323124Y-62766446D01*
X143323121Y-62766445D01*
X143170059Y-62712887D01*
X143170796Y-62710778D01*
X143120201Y-62682811D01*
X142352127Y-61914737D01*
X142311790Y-61874400D01*
X158959951Y-61874400D01*
X158960731Y-61881323D01*
X158978106Y-62035535D01*
X158978107Y-62035542D01*
X158978887Y-62042459D01*
X158981186Y-62049030D01*
X158981187Y-62049033D01*
X159020335Y-62160913D01*
X159034744Y-62202090D01*
X159124723Y-62345290D01*
X159244310Y-62464877D01*
X159387510Y-62554856D01*
X159547141Y-62610713D01*
X159715200Y-62629649D01*
X159883259Y-62610713D01*
X160042890Y-62554856D01*
X160186090Y-62464877D01*
X160305677Y-62345290D01*
X160395656Y-62202090D01*
X160451513Y-62042459D01*
X160470449Y-61874400D01*
X160451513Y-61706341D01*
X160395656Y-61546710D01*
X160305677Y-61403510D01*
X160186090Y-61283923D01*
X160042890Y-61193944D01*
X160036324Y-61191646D01*
X160036321Y-61191645D01*
X159889833Y-61140387D01*
X159889830Y-61140386D01*
X159883259Y-61138087D01*
X159876342Y-61137307D01*
X159876335Y-61137306D01*
X159722123Y-61119931D01*
X159715200Y-61119151D01*
X159708277Y-61119931D01*
X159554064Y-61137306D01*
X159554055Y-61137307D01*
X159547141Y-61138087D01*
X159540571Y-61140385D01*
X159540566Y-61140387D01*
X159394078Y-61191645D01*
X159394072Y-61191647D01*
X159387510Y-61193944D01*
X159381619Y-61197645D01*
X159381618Y-61197646D01*
X159250210Y-61280215D01*
X159250205Y-61280218D01*
X159244310Y-61283923D01*
X159239385Y-61288847D01*
X159239381Y-61288851D01*
X159129651Y-61398581D01*
X159129647Y-61398585D01*
X159124723Y-61403510D01*
X159121018Y-61409405D01*
X159121015Y-61409410D01*
X159038446Y-61540818D01*
X159034744Y-61546710D01*
X159032447Y-61553272D01*
X159032445Y-61553278D01*
X158981187Y-61699766D01*
X158981185Y-61699771D01*
X158978887Y-61706341D01*
X158978107Y-61713255D01*
X158978106Y-61713264D01*
X158960731Y-61867477D01*
X158959951Y-61874400D01*
X142311790Y-61874400D01*
X141568886Y-61131495D01*
X141561442Y-61123314D01*
X141557386Y-61116923D01*
X141508375Y-61070898D01*
X141505578Y-61068187D01*
X141488827Y-61051436D01*
X141486071Y-61048680D01*
X141482890Y-61046212D01*
X141474014Y-61038630D01*
X141452503Y-61018430D01*
X141420998Y-60970815D01*
X141414168Y-60914135D01*
X141414616Y-60910158D01*
X141435390Y-60854204D01*
X141479900Y-60814435D01*
X141528960Y-60802269D01*
X141528800Y-60800849D01*
X141696859Y-60781913D01*
X141856490Y-60726056D01*
X141999690Y-60636077D01*
X142119277Y-60516490D01*
X142209256Y-60373290D01*
X142252817Y-60248800D01*
X146717151Y-60248800D01*
X146717931Y-60255723D01*
X146735306Y-60409935D01*
X146735307Y-60409942D01*
X146736087Y-60416859D01*
X146738386Y-60423430D01*
X146738387Y-60423433D01*
X146789644Y-60569919D01*
X146791944Y-60576490D01*
X146881923Y-60719690D01*
X147001510Y-60839277D01*
X147144710Y-60929256D01*
X147304341Y-60985113D01*
X147472400Y-61004049D01*
X147640459Y-60985113D01*
X147800090Y-60929256D01*
X147943290Y-60839277D01*
X148062877Y-60719690D01*
X148152856Y-60576490D01*
X148171323Y-60523712D01*
X148200683Y-60476985D01*
X148247410Y-60447625D01*
X148302248Y-60441446D01*
X148336000Y-60445249D01*
X148504059Y-60426313D01*
X148663690Y-60370456D01*
X148706347Y-60343652D01*
X148758431Y-60325426D01*
X148813270Y-60331604D01*
X148859998Y-60360964D01*
X148931910Y-60432877D01*
X149075110Y-60522856D01*
X149234741Y-60578713D01*
X149402800Y-60597649D01*
X149570859Y-60578713D01*
X149730490Y-60522856D01*
X149873690Y-60432877D01*
X149993277Y-60313290D01*
X150065719Y-60198000D01*
X155099151Y-60198000D01*
X155099931Y-60204923D01*
X155117306Y-60359135D01*
X155117307Y-60359142D01*
X155118087Y-60366059D01*
X155120386Y-60372630D01*
X155120387Y-60372633D01*
X155170724Y-60516490D01*
X155173944Y-60525690D01*
X155263923Y-60668890D01*
X155383510Y-60788477D01*
X155526710Y-60878456D01*
X155686341Y-60934313D01*
X155854400Y-60953249D01*
X156022459Y-60934313D01*
X156182090Y-60878456D01*
X156325290Y-60788477D01*
X156444877Y-60668890D01*
X156534856Y-60525690D01*
X156590713Y-60366059D01*
X156609649Y-60198000D01*
X156590713Y-60029941D01*
X156534856Y-59870310D01*
X156444877Y-59727110D01*
X156325290Y-59607523D01*
X156182090Y-59517544D01*
X156175524Y-59515246D01*
X156175521Y-59515245D01*
X156029033Y-59463987D01*
X156029030Y-59463986D01*
X156022459Y-59461687D01*
X156015542Y-59460907D01*
X156015535Y-59460906D01*
X155861323Y-59443531D01*
X155854400Y-59442751D01*
X155847477Y-59443531D01*
X155693264Y-59460906D01*
X155693255Y-59460907D01*
X155686341Y-59461687D01*
X155679771Y-59463985D01*
X155679766Y-59463987D01*
X155533278Y-59515245D01*
X155533272Y-59515247D01*
X155526710Y-59517544D01*
X155520819Y-59521245D01*
X155520818Y-59521246D01*
X155389410Y-59603815D01*
X155389405Y-59603818D01*
X155383510Y-59607523D01*
X155378585Y-59612447D01*
X155378581Y-59612451D01*
X155268851Y-59722181D01*
X155268847Y-59722185D01*
X155263923Y-59727110D01*
X155260218Y-59733005D01*
X155260215Y-59733010D01*
X155195831Y-59835477D01*
X155173944Y-59870310D01*
X155171647Y-59876872D01*
X155171645Y-59876878D01*
X155120387Y-60023366D01*
X155120385Y-60023371D01*
X155118087Y-60029941D01*
X155117307Y-60036855D01*
X155117306Y-60036864D01*
X155107792Y-60121306D01*
X155099151Y-60198000D01*
X150065719Y-60198000D01*
X150083256Y-60170090D01*
X150139113Y-60010459D01*
X150153314Y-59884414D01*
X150157269Y-59849323D01*
X150158049Y-59842400D01*
X150139113Y-59674341D01*
X150083256Y-59514710D01*
X149993277Y-59371510D01*
X149873690Y-59251923D01*
X149730490Y-59161944D01*
X149723924Y-59159646D01*
X149723921Y-59159645D01*
X149577433Y-59108387D01*
X149577430Y-59108386D01*
X149570859Y-59106087D01*
X149563942Y-59105307D01*
X149563935Y-59105306D01*
X149409723Y-59087931D01*
X149402800Y-59087151D01*
X149395877Y-59087931D01*
X149241664Y-59105306D01*
X149241655Y-59105307D01*
X149234741Y-59106087D01*
X149228171Y-59108385D01*
X149228166Y-59108387D01*
X149081678Y-59159645D01*
X149081672Y-59159647D01*
X149075110Y-59161944D01*
X149069222Y-59165643D01*
X149069215Y-59165647D01*
X149032451Y-59188747D01*
X148980363Y-59206972D01*
X148925526Y-59200793D01*
X148878800Y-59171433D01*
X148811818Y-59104451D01*
X148806890Y-59099523D01*
X148663690Y-59009544D01*
X148657124Y-59007246D01*
X148657121Y-59007245D01*
X148510633Y-58955987D01*
X148510630Y-58955986D01*
X148504059Y-58953687D01*
X148497142Y-58952907D01*
X148497135Y-58952906D01*
X148342923Y-58935531D01*
X148336000Y-58934751D01*
X148329077Y-58935531D01*
X148174864Y-58952906D01*
X148174855Y-58952907D01*
X148167941Y-58953687D01*
X148161371Y-58955985D01*
X148161366Y-58955987D01*
X148014878Y-59007245D01*
X148014872Y-59007247D01*
X148008310Y-59009544D01*
X148002419Y-59013245D01*
X148002418Y-59013246D01*
X147871010Y-59095815D01*
X147871005Y-59095818D01*
X147865110Y-59099523D01*
X147860185Y-59104447D01*
X147860181Y-59104451D01*
X147750451Y-59214181D01*
X147750447Y-59214185D01*
X147745523Y-59219110D01*
X147741818Y-59225005D01*
X147741815Y-59225010D01*
X147659248Y-59356413D01*
X147659243Y-59356422D01*
X147655544Y-59362310D01*
X147653245Y-59368879D01*
X147653245Y-59368880D01*
X147637075Y-59415090D01*
X147607715Y-59461815D01*
X147560990Y-59491174D01*
X147506153Y-59497353D01*
X147472400Y-59493551D01*
X147465477Y-59494331D01*
X147311264Y-59511706D01*
X147311255Y-59511707D01*
X147304341Y-59512487D01*
X147297771Y-59514785D01*
X147297766Y-59514787D01*
X147151278Y-59566045D01*
X147151272Y-59566047D01*
X147144710Y-59568344D01*
X147138819Y-59572045D01*
X147138818Y-59572046D01*
X147007410Y-59654615D01*
X147007405Y-59654618D01*
X147001510Y-59658323D01*
X146996585Y-59663247D01*
X146996581Y-59663251D01*
X146886851Y-59772981D01*
X146886847Y-59772985D01*
X146881923Y-59777910D01*
X146878218Y-59783805D01*
X146878215Y-59783810D01*
X146795646Y-59915218D01*
X146791944Y-59921110D01*
X146789647Y-59927672D01*
X146789645Y-59927678D01*
X146738387Y-60074166D01*
X146738385Y-60074171D01*
X146736087Y-60080741D01*
X146735307Y-60087655D01*
X146735306Y-60087664D01*
X146720370Y-60220233D01*
X146717151Y-60248800D01*
X142252817Y-60248800D01*
X142265113Y-60213659D01*
X142279315Y-60087614D01*
X142283269Y-60052523D01*
X142284049Y-60045600D01*
X142280089Y-60010459D01*
X142265893Y-59884464D01*
X142265113Y-59877541D01*
X142209256Y-59717910D01*
X142119277Y-59574710D01*
X141999690Y-59455123D01*
X141856490Y-59365144D01*
X141849924Y-59362846D01*
X141849921Y-59362845D01*
X141703433Y-59311587D01*
X141703430Y-59311586D01*
X141696859Y-59309287D01*
X141689942Y-59308507D01*
X141689935Y-59308506D01*
X141535723Y-59291131D01*
X141528800Y-59290351D01*
X141521877Y-59291131D01*
X141367664Y-59308506D01*
X141367655Y-59308507D01*
X141360741Y-59309287D01*
X141354171Y-59311585D01*
X141354166Y-59311587D01*
X141207678Y-59362845D01*
X141207672Y-59362847D01*
X141201110Y-59365144D01*
X141195219Y-59368845D01*
X141195218Y-59368846D01*
X141063810Y-59451415D01*
X141063805Y-59451418D01*
X141057910Y-59455123D01*
X141052985Y-59460047D01*
X141052981Y-59460051D01*
X140943251Y-59569781D01*
X140943247Y-59569785D01*
X140938323Y-59574710D01*
X140934618Y-59580605D01*
X140934615Y-59580610D01*
X140871370Y-59681264D01*
X140848344Y-59717910D01*
X140846047Y-59724472D01*
X140846045Y-59724478D01*
X140794787Y-59870966D01*
X140794785Y-59870971D01*
X140792487Y-59877541D01*
X140791707Y-59884455D01*
X140791706Y-59884464D01*
X140779386Y-59993815D01*
X140758620Y-60049783D01*
X140714107Y-60089561D01*
X140665039Y-60101730D01*
X140665200Y-60103151D01*
X140504064Y-60121306D01*
X140504055Y-60121307D01*
X140497141Y-60122087D01*
X140490571Y-60124385D01*
X140490566Y-60124387D01*
X140344078Y-60175645D01*
X140344072Y-60175647D01*
X140337510Y-60177944D01*
X140331619Y-60181645D01*
X140331618Y-60181646D01*
X140200210Y-60264215D01*
X140200205Y-60264218D01*
X140194310Y-60267923D01*
X140189385Y-60272847D01*
X140189381Y-60272851D01*
X140079651Y-60382581D01*
X140079647Y-60382585D01*
X140074723Y-60387510D01*
X140071018Y-60393405D01*
X140071015Y-60393410D01*
X139988446Y-60524818D01*
X139984744Y-60530710D01*
X139982447Y-60537272D01*
X139982445Y-60537278D01*
X139931187Y-60683766D01*
X139931185Y-60683771D01*
X139928887Y-60690341D01*
X139928107Y-60697255D01*
X139928106Y-60697264D01*
X139918426Y-60783184D01*
X139897660Y-60839152D01*
X139853147Y-60878930D01*
X139795206Y-60893300D01*
X134828853Y-60893300D01*
X134781400Y-60883861D01*
X134741172Y-60856981D01*
X130392886Y-56508695D01*
X130385442Y-56500514D01*
X130381386Y-56494123D01*
X130332375Y-56448098D01*
X130329578Y-56445387D01*
X130312827Y-56428636D01*
X130312826Y-56428635D01*
X130310071Y-56425880D01*
X130306890Y-56423412D01*
X130298014Y-56415830D01*
X130271869Y-56391278D01*
X130271867Y-56391276D01*
X130268378Y-56388000D01*
X133610751Y-56388000D01*
X133611531Y-56394923D01*
X133628906Y-56549135D01*
X133628907Y-56549142D01*
X133629687Y-56556059D01*
X133685544Y-56715690D01*
X133775523Y-56858890D01*
X133895110Y-56978477D01*
X134038310Y-57068456D01*
X134197941Y-57124313D01*
X134366000Y-57143249D01*
X134534059Y-57124313D01*
X134693690Y-57068456D01*
X134836890Y-56978477D01*
X134956477Y-56858890D01*
X135046456Y-56715690D01*
X135102313Y-56556059D01*
X135121249Y-56388000D01*
X135119129Y-56369189D01*
X135103093Y-56226864D01*
X135102313Y-56219941D01*
X135046456Y-56060310D01*
X134956477Y-55917110D01*
X134836890Y-55797523D01*
X134693690Y-55707544D01*
X134687124Y-55705246D01*
X134687121Y-55705245D01*
X134540633Y-55653987D01*
X134540630Y-55653986D01*
X134534059Y-55651687D01*
X134527142Y-55650907D01*
X134527135Y-55650906D01*
X134372923Y-55633531D01*
X134366000Y-55632751D01*
X134359077Y-55633531D01*
X134204864Y-55650906D01*
X134204855Y-55650907D01*
X134197941Y-55651687D01*
X134191371Y-55653985D01*
X134191366Y-55653987D01*
X134044878Y-55705245D01*
X134044872Y-55705247D01*
X134038310Y-55707544D01*
X134032419Y-55711245D01*
X134032418Y-55711246D01*
X133901010Y-55793815D01*
X133901005Y-55793818D01*
X133895110Y-55797523D01*
X133890185Y-55802447D01*
X133890181Y-55802451D01*
X133780451Y-55912181D01*
X133780447Y-55912185D01*
X133775523Y-55917110D01*
X133771818Y-55923005D01*
X133771815Y-55923010D01*
X133722535Y-56001439D01*
X133685544Y-56060310D01*
X133683247Y-56066872D01*
X133683245Y-56066878D01*
X133631987Y-56213366D01*
X133631985Y-56213371D01*
X133629687Y-56219941D01*
X133628907Y-56226855D01*
X133628906Y-56226864D01*
X133612484Y-56372621D01*
X133610751Y-56388000D01*
X130268378Y-56388000D01*
X130266182Y-56385938D01*
X130259349Y-56382182D01*
X130259343Y-56382177D01*
X130248625Y-56376285D01*
X130232366Y-56365606D01*
X130222695Y-56358104D01*
X130222692Y-56358102D01*
X130216536Y-56353327D01*
X130209379Y-56350229D01*
X130209376Y-56350228D01*
X130176449Y-56335978D01*
X130165963Y-56330841D01*
X130134532Y-56313562D01*
X130134523Y-56313558D01*
X130127692Y-56309803D01*
X130120135Y-56307862D01*
X130120131Y-56307861D01*
X130108288Y-56304820D01*
X130089884Y-56298519D01*
X130078657Y-56293660D01*
X130078650Y-56293658D01*
X130071496Y-56290562D01*
X130063792Y-56289341D01*
X130063790Y-56289341D01*
X130028359Y-56283729D01*
X130016924Y-56281361D01*
X129982171Y-56272438D01*
X129982163Y-56272437D01*
X129974619Y-56270500D01*
X129966823Y-56270500D01*
X129954583Y-56270500D01*
X129935197Y-56268974D01*
X129915404Y-56265840D01*
X129907638Y-56266574D01*
X129907635Y-56266574D01*
X129871924Y-56269950D01*
X129860255Y-56270500D01*
X125375699Y-56270500D01*
X125313699Y-56253887D01*
X125268312Y-56208500D01*
X125251699Y-56146500D01*
X125251699Y-56001439D01*
X125251699Y-55998128D01*
X125245291Y-55938517D01*
X125194996Y-55803669D01*
X125108746Y-55688454D01*
X125058588Y-55650906D01*
X125000631Y-55607519D01*
X125000630Y-55607518D01*
X124993531Y-55602204D01*
X124858683Y-55551909D01*
X124850970Y-55551079D01*
X124850967Y-55551079D01*
X124802380Y-55545855D01*
X124802369Y-55545854D01*
X124799073Y-55545500D01*
X124795750Y-55545500D01*
X123006639Y-55545500D01*
X123006620Y-55545500D01*
X123003328Y-55545501D01*
X123000050Y-55545853D01*
X123000038Y-55545854D01*
X122951431Y-55551079D01*
X122951425Y-55551080D01*
X122943717Y-55551909D01*
X122936452Y-55554618D01*
X122936446Y-55554620D01*
X122817180Y-55599104D01*
X122817178Y-55599104D01*
X122808869Y-55602204D01*
X122801772Y-55607516D01*
X122801768Y-55607519D01*
X122700750Y-55683141D01*
X122700746Y-55683144D01*
X122693654Y-55688454D01*
X122688344Y-55695546D01*
X122688341Y-55695550D01*
X122612719Y-55796568D01*
X122612716Y-55796572D01*
X122607404Y-55803669D01*
X122604304Y-55811978D01*
X122604304Y-55811980D01*
X122559820Y-55931247D01*
X122559819Y-55931250D01*
X122557109Y-55938517D01*
X122556279Y-55946227D01*
X122556279Y-55946232D01*
X122551055Y-55994819D01*
X122551054Y-55994831D01*
X122550700Y-55998127D01*
X122550700Y-56001448D01*
X122550700Y-56001449D01*
X122550700Y-57790560D01*
X122550700Y-57790578D01*
X122550701Y-57793872D01*
X122551053Y-57797150D01*
X122551054Y-57797161D01*
X122556279Y-57845768D01*
X122556280Y-57845773D01*
X122557109Y-57853483D01*
X122559819Y-57860749D01*
X122559820Y-57860753D01*
X122575000Y-57901452D01*
X122607404Y-57988331D01*
X122693654Y-58103546D01*
X122808869Y-58189796D01*
X122918605Y-58230725D01*
X122940282Y-58238810D01*
X122990662Y-58273789D01*
X123018115Y-58328633D01*
X123015926Y-58389926D01*
X122984631Y-58442672D01*
X122862705Y-58564599D01*
X122859602Y-58569029D01*
X122859599Y-58569034D01*
X122730273Y-58753731D01*
X122730268Y-58753738D01*
X122727165Y-58758171D01*
X122724877Y-58763077D01*
X122724875Y-58763081D01*
X122629586Y-58967427D01*
X122629583Y-58967432D01*
X122627297Y-58972337D01*
X122625898Y-58977557D01*
X122625894Y-58977569D01*
X122567537Y-59195365D01*
X122567535Y-59195371D01*
X122566137Y-59200592D01*
X122565665Y-59205977D01*
X122565665Y-59205982D01*
X122551416Y-59368846D01*
X122545541Y-59436000D01*
X122546013Y-59441395D01*
X122564667Y-59654615D01*
X122566137Y-59671408D01*
X122567536Y-59676630D01*
X122567537Y-59676634D01*
X122625894Y-59894430D01*
X122625897Y-59894438D01*
X122627297Y-59899663D01*
X122629585Y-59904570D01*
X122629586Y-59904572D01*
X122724878Y-60108927D01*
X122724881Y-60108933D01*
X122727165Y-60113830D01*
X122730264Y-60118257D01*
X122730266Y-60118259D01*
X122859599Y-60302966D01*
X122859602Y-60302970D01*
X122862705Y-60307401D01*
X123029799Y-60474495D01*
X123034232Y-60477599D01*
X123034238Y-60477604D01*
X123215358Y-60604425D01*
X123254224Y-60648743D01*
X123268235Y-60706000D01*
X123254224Y-60763257D01*
X123215359Y-60807575D01*
X123034241Y-60934395D01*
X123029799Y-60937505D01*
X123025975Y-60941328D01*
X123025969Y-60941334D01*
X122866534Y-61100769D01*
X122866528Y-61100775D01*
X122862705Y-61104599D01*
X122859602Y-61109029D01*
X122859599Y-61109034D01*
X122730273Y-61293731D01*
X122730268Y-61293738D01*
X122727165Y-61298171D01*
X122724877Y-61303077D01*
X122724875Y-61303081D01*
X122629586Y-61507427D01*
X122629583Y-61507432D01*
X122627297Y-61512337D01*
X122625898Y-61517557D01*
X122625894Y-61517569D01*
X122567537Y-61735365D01*
X122567535Y-61735371D01*
X122566137Y-61740592D01*
X122565665Y-61745977D01*
X122565665Y-61745982D01*
X122549914Y-61926014D01*
X122545541Y-61976000D01*
X122546013Y-61981395D01*
X122565321Y-62202090D01*
X122566137Y-62211408D01*
X122567536Y-62216630D01*
X122567537Y-62216634D01*
X122625894Y-62434430D01*
X122625897Y-62434438D01*
X122627297Y-62439663D01*
X122629585Y-62444570D01*
X122629586Y-62444572D01*
X122724878Y-62648927D01*
X122724881Y-62648933D01*
X122727165Y-62653830D01*
X122730264Y-62658257D01*
X122730266Y-62658259D01*
X122859599Y-62842966D01*
X122859602Y-62842970D01*
X122862705Y-62847401D01*
X123029799Y-63014495D01*
X123034232Y-63017599D01*
X123034238Y-63017604D01*
X123215358Y-63144425D01*
X123254224Y-63188743D01*
X123268235Y-63246000D01*
X123254224Y-63303257D01*
X123215359Y-63347575D01*
X123108425Y-63422451D01*
X123029799Y-63477505D01*
X123025975Y-63481328D01*
X123025969Y-63481334D01*
X122866534Y-63640769D01*
X122866528Y-63640775D01*
X122862705Y-63644599D01*
X122859602Y-63649029D01*
X122859599Y-63649034D01*
X122730273Y-63833731D01*
X122730268Y-63833738D01*
X122727165Y-63838171D01*
X122724877Y-63843077D01*
X122724875Y-63843081D01*
X122629586Y-64047427D01*
X122629583Y-64047432D01*
X122627297Y-64052337D01*
X122625898Y-64057557D01*
X122625894Y-64057569D01*
X122567537Y-64275365D01*
X122567535Y-64275371D01*
X122566137Y-64280592D01*
X122565665Y-64285977D01*
X122565665Y-64285982D01*
X122548357Y-64483818D01*
X122545541Y-64516000D01*
X122546013Y-64521395D01*
X122561392Y-64697181D01*
X122566137Y-64751408D01*
X122567536Y-64756630D01*
X122567537Y-64756634D01*
X122625894Y-64974430D01*
X122625897Y-64974438D01*
X122627297Y-64979663D01*
X122629585Y-64984570D01*
X122629586Y-64984572D01*
X122724878Y-65188927D01*
X122724881Y-65188933D01*
X122727165Y-65193830D01*
X122730264Y-65198257D01*
X122730266Y-65198259D01*
X122859599Y-65382966D01*
X122859602Y-65382970D01*
X122862705Y-65387401D01*
X123029799Y-65554495D01*
X123034232Y-65557599D01*
X123034238Y-65557604D01*
X123215358Y-65684425D01*
X123254224Y-65728743D01*
X123268235Y-65786000D01*
X123254224Y-65843257D01*
X123215359Y-65887575D01*
X123034241Y-66014395D01*
X123029799Y-66017505D01*
X123025975Y-66021328D01*
X123025969Y-66021334D01*
X122866534Y-66180769D01*
X122866528Y-66180775D01*
X122862705Y-66184599D01*
X122859602Y-66189029D01*
X122859599Y-66189034D01*
X122730273Y-66373731D01*
X122730268Y-66373738D01*
X122727165Y-66378171D01*
X122724877Y-66383077D01*
X122724875Y-66383081D01*
X122629586Y-66587427D01*
X122629583Y-66587432D01*
X122627297Y-66592337D01*
X122625898Y-66597557D01*
X122625894Y-66597569D01*
X122567537Y-66815365D01*
X122567535Y-66815371D01*
X122566137Y-66820592D01*
X122565665Y-66825977D01*
X122565665Y-66825982D01*
X122554430Y-66954400D01*
X122545541Y-67056000D01*
X122546013Y-67061395D01*
X122565321Y-67282090D01*
X122566137Y-67291408D01*
X122567536Y-67296630D01*
X122567537Y-67296634D01*
X122625894Y-67514430D01*
X122625897Y-67514438D01*
X122627297Y-67519663D01*
X122629585Y-67524570D01*
X122629586Y-67524572D01*
X122724878Y-67728927D01*
X122724881Y-67728933D01*
X122727165Y-67733830D01*
X122730264Y-67738257D01*
X122730266Y-67738259D01*
X122859599Y-67922966D01*
X122859602Y-67922970D01*
X122862705Y-67927401D01*
X123029799Y-68094495D01*
X123034232Y-68097599D01*
X123034238Y-68097604D01*
X123215358Y-68224425D01*
X123254224Y-68268743D01*
X123268235Y-68326000D01*
X123254224Y-68383257D01*
X123215359Y-68427575D01*
X123034241Y-68554395D01*
X123029799Y-68557505D01*
X123025975Y-68561328D01*
X123025969Y-68561334D01*
X122866534Y-68720769D01*
X122866528Y-68720775D01*
X122862705Y-68724599D01*
X122859602Y-68729029D01*
X122859599Y-68729034D01*
X122730273Y-68913731D01*
X122730268Y-68913738D01*
X122727165Y-68918171D01*
X122724877Y-68923077D01*
X122724875Y-68923081D01*
X122629586Y-69127427D01*
X122629583Y-69127432D01*
X122627297Y-69132337D01*
X122625898Y-69137557D01*
X122625894Y-69137569D01*
X122567537Y-69355365D01*
X122567535Y-69355371D01*
X122566137Y-69360592D01*
X122565665Y-69365977D01*
X122565665Y-69365982D01*
X122550750Y-69536464D01*
X122545541Y-69596000D01*
X122546013Y-69601395D01*
X122564047Y-69807527D01*
X122566137Y-69831408D01*
X122567536Y-69836630D01*
X122567537Y-69836634D01*
X122625894Y-70054430D01*
X122625897Y-70054438D01*
X122627297Y-70059663D01*
X122629585Y-70064570D01*
X122629586Y-70064572D01*
X122724878Y-70268927D01*
X122724881Y-70268933D01*
X122727165Y-70273830D01*
X122730264Y-70278257D01*
X122730266Y-70278259D01*
X122859599Y-70462966D01*
X122859602Y-70462970D01*
X122862705Y-70467401D01*
X123029799Y-70634495D01*
X123034232Y-70637599D01*
X123034238Y-70637604D01*
X123215358Y-70764425D01*
X123254224Y-70808743D01*
X123268235Y-70866000D01*
X123254224Y-70923257D01*
X123215359Y-70967575D01*
X123034241Y-71094395D01*
X123029799Y-71097505D01*
X123025975Y-71101328D01*
X123025969Y-71101334D01*
X122866534Y-71260769D01*
X122866528Y-71260775D01*
X122862705Y-71264599D01*
X122859602Y-71269029D01*
X122859599Y-71269034D01*
X122730273Y-71453731D01*
X122730268Y-71453738D01*
X122727165Y-71458171D01*
X122724877Y-71463077D01*
X122724875Y-71463081D01*
X122629586Y-71667427D01*
X122629583Y-71667432D01*
X122627297Y-71672337D01*
X122625898Y-71677557D01*
X122625894Y-71677569D01*
X122567537Y-71895365D01*
X122567535Y-71895371D01*
X122566137Y-71900592D01*
X122565665Y-71905977D01*
X122565665Y-71905982D01*
X122561316Y-71955690D01*
X122545541Y-72136000D01*
X122546013Y-72141395D01*
X122562554Y-72330464D01*
X122566137Y-72371408D01*
X122567536Y-72376630D01*
X122567537Y-72376634D01*
X122625894Y-72594430D01*
X122625897Y-72594438D01*
X122627297Y-72599663D01*
X122629585Y-72604570D01*
X122629586Y-72604572D01*
X122724878Y-72808927D01*
X122724881Y-72808933D01*
X122727165Y-72813830D01*
X122730264Y-72818257D01*
X122730266Y-72818259D01*
X122859599Y-73002966D01*
X122859602Y-73002970D01*
X122862705Y-73007401D01*
X123029799Y-73174495D01*
X123034232Y-73177599D01*
X123034238Y-73177604D01*
X123215358Y-73304425D01*
X123254224Y-73348743D01*
X123268235Y-73406000D01*
X123254224Y-73463257D01*
X123215359Y-73507575D01*
X123034241Y-73634395D01*
X123029799Y-73637505D01*
X123025975Y-73641328D01*
X123025969Y-73641334D01*
X122866534Y-73800769D01*
X122866528Y-73800775D01*
X122862705Y-73804599D01*
X122859602Y-73809029D01*
X122859599Y-73809034D01*
X122730273Y-73993731D01*
X122730268Y-73993738D01*
X122727165Y-73998171D01*
X122724877Y-74003077D01*
X122724875Y-74003081D01*
X122629586Y-74207427D01*
X122629583Y-74207432D01*
X122627297Y-74212337D01*
X122625898Y-74217557D01*
X122625894Y-74217569D01*
X122567537Y-74435365D01*
X122567535Y-74435371D01*
X122566137Y-74440592D01*
X122565665Y-74445977D01*
X122565665Y-74445982D01*
X122551095Y-74612516D01*
X122545541Y-74676000D01*
X122546013Y-74681395D01*
X122565073Y-74899256D01*
X122566137Y-74911408D01*
X122567537Y-74916634D01*
X122567538Y-74916637D01*
X122593055Y-75011873D01*
X122593055Y-75076059D01*
X122560962Y-75131645D01*
X122436479Y-75256128D01*
X122387118Y-75286377D01*
X122329402Y-75290919D01*
X122275915Y-75268764D01*
X122238315Y-75224741D01*
X122224800Y-75168446D01*
X122224800Y-53588606D01*
X124710305Y-53588606D01*
X124718191Y-53599869D01*
X124959684Y-53795425D01*
X124964938Y-53799242D01*
X125284733Y-54006920D01*
X125290354Y-54010166D01*
X125630116Y-54183283D01*
X125636040Y-54185920D01*
X125992044Y-54322578D01*
X125998197Y-54324577D01*
X126366537Y-54423273D01*
X126372879Y-54424621D01*
X126749508Y-54484273D01*
X126755951Y-54484950D01*
X127136756Y-54504908D01*
X127143244Y-54504908D01*
X127524048Y-54484950D01*
X127530491Y-54484273D01*
X127907120Y-54424621D01*
X127913462Y-54423273D01*
X128281802Y-54324577D01*
X128287955Y-54322578D01*
X128643959Y-54185920D01*
X128649883Y-54183283D01*
X128989645Y-54010166D01*
X128995266Y-54006920D01*
X129315061Y-53799242D01*
X129320315Y-53795425D01*
X129561806Y-53599870D01*
X129569693Y-53588606D01*
X129563027Y-53576580D01*
X129326447Y-53340000D01*
X154032351Y-53340000D01*
X154033131Y-53346923D01*
X154050506Y-53501135D01*
X154050507Y-53501142D01*
X154051287Y-53508059D01*
X154053586Y-53514630D01*
X154053587Y-53514633D01*
X154083412Y-53599869D01*
X154107144Y-53667690D01*
X154197123Y-53810890D01*
X154316710Y-53930477D01*
X154459910Y-54020456D01*
X154619541Y-54076313D01*
X154787600Y-54095249D01*
X154955659Y-54076313D01*
X155115290Y-54020456D01*
X155258490Y-53930477D01*
X155378077Y-53810890D01*
X155468056Y-53667690D01*
X155495729Y-53588606D01*
X159876305Y-53588606D01*
X159884191Y-53599869D01*
X160125684Y-53795425D01*
X160130938Y-53799242D01*
X160450733Y-54006920D01*
X160456354Y-54010166D01*
X160796116Y-54183283D01*
X160802040Y-54185920D01*
X161158044Y-54322578D01*
X161164197Y-54324577D01*
X161532537Y-54423273D01*
X161538879Y-54424621D01*
X161915508Y-54484273D01*
X161921951Y-54484950D01*
X162302756Y-54504908D01*
X162309244Y-54504908D01*
X162690048Y-54484950D01*
X162696491Y-54484273D01*
X163073120Y-54424621D01*
X163079462Y-54423273D01*
X163447802Y-54324577D01*
X163453955Y-54322578D01*
X163809959Y-54185920D01*
X163815883Y-54183283D01*
X164155645Y-54010166D01*
X164161266Y-54006920D01*
X164481061Y-53799242D01*
X164486315Y-53795425D01*
X164727806Y-53599870D01*
X164735693Y-53588606D01*
X164729027Y-53576580D01*
X162317542Y-51165095D01*
X162306000Y-51158431D01*
X162294457Y-51165095D01*
X159882971Y-53576580D01*
X159876305Y-53588606D01*
X155495729Y-53588606D01*
X155523913Y-53508059D01*
X155542849Y-53340000D01*
X155523913Y-53171941D01*
X155468056Y-53012310D01*
X155378077Y-52869110D01*
X155258490Y-52749523D01*
X155115290Y-52659544D01*
X155108724Y-52657246D01*
X155108721Y-52657245D01*
X154962233Y-52605987D01*
X154962230Y-52605986D01*
X154955659Y-52603687D01*
X154948742Y-52602907D01*
X154948735Y-52602906D01*
X154794523Y-52585531D01*
X154787600Y-52584751D01*
X154780677Y-52585531D01*
X154626464Y-52602906D01*
X154626455Y-52602907D01*
X154619541Y-52603687D01*
X154612971Y-52605985D01*
X154612966Y-52605987D01*
X154466478Y-52657245D01*
X154466472Y-52657247D01*
X154459910Y-52659544D01*
X154454019Y-52663245D01*
X154454018Y-52663246D01*
X154322610Y-52745815D01*
X154322605Y-52745818D01*
X154316710Y-52749523D01*
X154311785Y-52754447D01*
X154311781Y-52754451D01*
X154202051Y-52864181D01*
X154202047Y-52864185D01*
X154197123Y-52869110D01*
X154193418Y-52875005D01*
X154193415Y-52875010D01*
X154130549Y-52975061D01*
X154107144Y-53012310D01*
X154104847Y-53018872D01*
X154104845Y-53018878D01*
X154053587Y-53165366D01*
X154053585Y-53165371D01*
X154051287Y-53171941D01*
X154050507Y-53178855D01*
X154050506Y-53178864D01*
X154033131Y-53333077D01*
X154032351Y-53340000D01*
X129326447Y-53340000D01*
X127151542Y-51165095D01*
X127140000Y-51158431D01*
X127128457Y-51165095D01*
X124716971Y-53576580D01*
X124710305Y-53588606D01*
X122224800Y-53588606D01*
X122224800Y-50812214D01*
X122224800Y-50800000D01*
X122221766Y-50796966D01*
X122218847Y-50782289D01*
X122221803Y-50722102D01*
X122252780Y-50670419D01*
X123420648Y-49502551D01*
X123478746Y-49469815D01*
X123545404Y-49471909D01*
X123601337Y-49508230D01*
X123630365Y-49568273D01*
X123624091Y-49634668D01*
X123617421Y-49652043D01*
X123615422Y-49658197D01*
X123516726Y-50026537D01*
X123515378Y-50032879D01*
X123455726Y-50409508D01*
X123455049Y-50415951D01*
X123435092Y-50796756D01*
X123435092Y-50803244D01*
X123455049Y-51184048D01*
X123455726Y-51190491D01*
X123515378Y-51567120D01*
X123516726Y-51573462D01*
X123615422Y-51941802D01*
X123617421Y-51947955D01*
X123754079Y-52303959D01*
X123756716Y-52309883D01*
X123929833Y-52649645D01*
X123933079Y-52655266D01*
X124140757Y-52975061D01*
X124144574Y-52980315D01*
X124340129Y-53221807D01*
X124351392Y-53229693D01*
X124363418Y-53223027D01*
X126786448Y-50799999D01*
X127498431Y-50799999D01*
X127505095Y-50811542D01*
X129916580Y-53223027D01*
X129928606Y-53229693D01*
X129939870Y-53221806D01*
X130135425Y-52980315D01*
X130139242Y-52975061D01*
X130346920Y-52655266D01*
X130350166Y-52649645D01*
X130523283Y-52309883D01*
X130525920Y-52303959D01*
X130662578Y-51947955D01*
X130664577Y-51941802D01*
X130763273Y-51573462D01*
X130764621Y-51567120D01*
X130824273Y-51190491D01*
X130824950Y-51184048D01*
X130842512Y-50848951D01*
X151213270Y-50848951D01*
X151220702Y-50857062D01*
X151261922Y-50885925D01*
X151271267Y-50891321D01*
X151455718Y-50977332D01*
X151465852Y-50981020D01*
X151662445Y-51033697D01*
X151673056Y-51035568D01*
X151875805Y-51053307D01*
X151886595Y-51053307D01*
X152089343Y-51035568D01*
X152099954Y-51033697D01*
X152296547Y-50981020D01*
X152306681Y-50977332D01*
X152491134Y-50891320D01*
X152500472Y-50885929D01*
X152541697Y-50857061D01*
X152549129Y-50848952D01*
X152543215Y-50839669D01*
X151892742Y-50189195D01*
X151881200Y-50182531D01*
X151869657Y-50189195D01*
X151219183Y-50839669D01*
X151213270Y-50848951D01*
X130842512Y-50848951D01*
X130844908Y-50803244D01*
X130844908Y-50796756D01*
X130824950Y-50415951D01*
X130824273Y-50409508D01*
X130764621Y-50032879D01*
X130763273Y-50026537D01*
X130710476Y-49829495D01*
X150651993Y-49829495D01*
X150669731Y-50032243D01*
X150671602Y-50042854D01*
X150724279Y-50239447D01*
X150727967Y-50249581D01*
X150813980Y-50434037D01*
X150819368Y-50443369D01*
X150848237Y-50484598D01*
X150856346Y-50492029D01*
X150865629Y-50486115D01*
X151516103Y-49835642D01*
X151522767Y-49824100D01*
X151522766Y-49824099D01*
X152239631Y-49824099D01*
X152246295Y-49835642D01*
X152896769Y-50486115D01*
X152906052Y-50492029D01*
X152914161Y-50484597D01*
X152943029Y-50443372D01*
X152948420Y-50434034D01*
X153034432Y-50249581D01*
X153038120Y-50239447D01*
X153090797Y-50042854D01*
X153092668Y-50032243D01*
X153110407Y-49829495D01*
X155651993Y-49829495D01*
X155669731Y-50032243D01*
X155671602Y-50042854D01*
X155724279Y-50239447D01*
X155727967Y-50249581D01*
X155813980Y-50434037D01*
X155819372Y-50443375D01*
X155902305Y-50561817D01*
X155923421Y-50614967D01*
X155918437Y-50671941D01*
X155888414Y-50720618D01*
X155878453Y-50730579D01*
X155878449Y-50730583D01*
X155873523Y-50735510D01*
X155869818Y-50741405D01*
X155869815Y-50741410D01*
X155825326Y-50812214D01*
X155783544Y-50878710D01*
X155781247Y-50885272D01*
X155781245Y-50885278D01*
X155729987Y-51031766D01*
X155729985Y-51031771D01*
X155727687Y-51038341D01*
X155726907Y-51045255D01*
X155726906Y-51045264D01*
X155709531Y-51199477D01*
X155708751Y-51206400D01*
X155709531Y-51213323D01*
X155726906Y-51367535D01*
X155726907Y-51367542D01*
X155727687Y-51374459D01*
X155783544Y-51534090D01*
X155873523Y-51677290D01*
X155993110Y-51796877D01*
X156136310Y-51886856D01*
X156295941Y-51942713D01*
X156464000Y-51961649D01*
X156632059Y-51942713D01*
X156791690Y-51886856D01*
X156934890Y-51796877D01*
X157054477Y-51677290D01*
X157144456Y-51534090D01*
X157200313Y-51374459D01*
X157219249Y-51206400D01*
X157218469Y-51199477D01*
X157208812Y-51113770D01*
X157216055Y-51056008D01*
X157248860Y-51007916D01*
X157292024Y-50984433D01*
X157291457Y-50982873D01*
X157306685Y-50977330D01*
X157491134Y-50891320D01*
X157500472Y-50885929D01*
X157541697Y-50857061D01*
X157549129Y-50848952D01*
X157543215Y-50839669D01*
X157506790Y-50803244D01*
X158601092Y-50803244D01*
X158621049Y-51184048D01*
X158621726Y-51190491D01*
X158681378Y-51567120D01*
X158682726Y-51573462D01*
X158781422Y-51941802D01*
X158783421Y-51947955D01*
X158920079Y-52303959D01*
X158922716Y-52309883D01*
X159095833Y-52649645D01*
X159099079Y-52655266D01*
X159306757Y-52975061D01*
X159310574Y-52980315D01*
X159506129Y-53221807D01*
X159517392Y-53229693D01*
X159529418Y-53223027D01*
X161940904Y-50811542D01*
X161947568Y-50800000D01*
X161940904Y-50788457D01*
X159529418Y-48376971D01*
X159517393Y-48370305D01*
X159506127Y-48378194D01*
X159310578Y-48619678D01*
X159306756Y-48624939D01*
X159099079Y-48944733D01*
X159095833Y-48950354D01*
X158922716Y-49290116D01*
X158920079Y-49296040D01*
X158783421Y-49652044D01*
X158781422Y-49658197D01*
X158682726Y-50026537D01*
X158681378Y-50032879D01*
X158621726Y-50409508D01*
X158621049Y-50415951D01*
X158601092Y-50796756D01*
X158601092Y-50803244D01*
X157506790Y-50803244D01*
X156881200Y-50177653D01*
X156527646Y-49824099D01*
X157239631Y-49824099D01*
X157246295Y-49835642D01*
X157896769Y-50486115D01*
X157906052Y-50492029D01*
X157914161Y-50484597D01*
X157943029Y-50443372D01*
X157948420Y-50434034D01*
X158034432Y-50249581D01*
X158038120Y-50239447D01*
X158090797Y-50042854D01*
X158092668Y-50032243D01*
X158110407Y-49829495D01*
X158110407Y-49818705D01*
X158092668Y-49615956D01*
X158090797Y-49605345D01*
X158038120Y-49408752D01*
X158034432Y-49398618D01*
X157948422Y-49214171D01*
X157943024Y-49204821D01*
X157914162Y-49163602D01*
X157906051Y-49156169D01*
X157896772Y-49162080D01*
X157246295Y-49812557D01*
X157239631Y-49824099D01*
X156527646Y-49824099D01*
X155865626Y-49162080D01*
X155856347Y-49156169D01*
X155848236Y-49163602D01*
X155819373Y-49204825D01*
X155813978Y-49214169D01*
X155727967Y-49398618D01*
X155724279Y-49408752D01*
X155671602Y-49605345D01*
X155669731Y-49615956D01*
X155651993Y-49818705D01*
X155651993Y-49829495D01*
X153110407Y-49829495D01*
X153110407Y-49818705D01*
X153092668Y-49615956D01*
X153090797Y-49605345D01*
X153038120Y-49408752D01*
X153034432Y-49398618D01*
X152948422Y-49214171D01*
X152943024Y-49204821D01*
X152914162Y-49163602D01*
X152906051Y-49156169D01*
X152896772Y-49162080D01*
X152246295Y-49812557D01*
X152239631Y-49824099D01*
X151522766Y-49824099D01*
X151516103Y-49812557D01*
X150865626Y-49162080D01*
X150856347Y-49156169D01*
X150848236Y-49163602D01*
X150819373Y-49204825D01*
X150813978Y-49214169D01*
X150727967Y-49398618D01*
X150724279Y-49408752D01*
X150671602Y-49605345D01*
X150669731Y-49615956D01*
X150651993Y-49818705D01*
X150651993Y-49829495D01*
X130710476Y-49829495D01*
X130664577Y-49658197D01*
X130662578Y-49652044D01*
X130525920Y-49296040D01*
X130523283Y-49290116D01*
X130350166Y-48950354D01*
X130346920Y-48944733D01*
X130139242Y-48624938D01*
X130135425Y-48619684D01*
X129939869Y-48378191D01*
X129928606Y-48370305D01*
X129916580Y-48376971D01*
X127505095Y-50788457D01*
X127498431Y-50799999D01*
X126786448Y-50799999D01*
X127140000Y-50446447D01*
X129563027Y-48023418D01*
X129569693Y-48011392D01*
X129561807Y-48000129D01*
X129320315Y-47804574D01*
X129315061Y-47800757D01*
X128995266Y-47593079D01*
X128989645Y-47589833D01*
X128859557Y-47523550D01*
X149781200Y-47523550D01*
X149781480Y-47529439D01*
X149795603Y-47677342D01*
X149797830Y-47688893D01*
X149853687Y-47879126D01*
X149858053Y-47890032D01*
X149948904Y-48066259D01*
X149955264Y-48076155D01*
X150077817Y-48231994D01*
X150085935Y-48240508D01*
X150235772Y-48370343D01*
X150245349Y-48377162D01*
X150417046Y-48476291D01*
X150427749Y-48481179D01*
X150615104Y-48546024D01*
X150620688Y-48547379D01*
X150628881Y-48546793D01*
X150631200Y-48536136D01*
X150631200Y-48531281D01*
X151131200Y-48531281D01*
X151133705Y-48542172D01*
X151144882Y-48542039D01*
X151166516Y-48536791D01*
X151236293Y-48540110D01*
X151293204Y-48580620D01*
X151319185Y-48645465D01*
X151305993Y-48714064D01*
X151264950Y-48757152D01*
X151266361Y-48759167D01*
X151220702Y-48791136D01*
X151213269Y-48799247D01*
X151219180Y-48808526D01*
X151869657Y-49459003D01*
X151881200Y-49465667D01*
X151892742Y-49459003D01*
X152543215Y-48808529D01*
X152549128Y-48799247D01*
X156213269Y-48799247D01*
X156219180Y-48808526D01*
X156869657Y-49459003D01*
X156881200Y-49465667D01*
X156892742Y-49459003D01*
X157543215Y-48808529D01*
X157549129Y-48799246D01*
X157541698Y-48791137D01*
X157504673Y-48765212D01*
X157465959Y-48721184D01*
X157451799Y-48664292D01*
X157465357Y-48607254D01*
X157503604Y-48562820D01*
X157557988Y-48540922D01*
X157609089Y-48545768D01*
X157609365Y-48544632D01*
X157620688Y-48547379D01*
X157628881Y-48546793D01*
X157631200Y-48536136D01*
X157631200Y-48531281D01*
X158131200Y-48531281D01*
X158133705Y-48542172D01*
X158144879Y-48542039D01*
X158236870Y-48519722D01*
X158247988Y-48515874D01*
X158428321Y-48433519D01*
X158438519Y-48427631D01*
X158600006Y-48312636D01*
X158608903Y-48304927D01*
X158745717Y-48161441D01*
X158752984Y-48152200D01*
X158860171Y-47985414D01*
X158865563Y-47974956D01*
X158939249Y-47790898D01*
X158942562Y-47779615D01*
X158980082Y-47584934D01*
X158981200Y-47573234D01*
X158981200Y-47390426D01*
X158977749Y-47377550D01*
X158964874Y-47374100D01*
X158147526Y-47374100D01*
X158134650Y-47377550D01*
X158131200Y-47390426D01*
X158131200Y-48531281D01*
X157631200Y-48531281D01*
X157631200Y-47390426D01*
X157627749Y-47377550D01*
X157614874Y-47374100D01*
X156797526Y-47374100D01*
X156784650Y-47377550D01*
X156781200Y-47390426D01*
X156781200Y-47523550D01*
X156781480Y-47529439D01*
X156795603Y-47677342D01*
X156797830Y-47688893D01*
X156853687Y-47879126D01*
X156858053Y-47890032D01*
X156948904Y-48066259D01*
X156955264Y-48076155D01*
X157077817Y-48231994D01*
X157085935Y-48240508D01*
X157235772Y-48370343D01*
X157245345Y-48377160D01*
X157322671Y-48421803D01*
X157365252Y-48462565D01*
X157384200Y-48518383D01*
X157375233Y-48576643D01*
X157340378Y-48624180D01*
X157287511Y-48650252D01*
X157228579Y-48648966D01*
X157099958Y-48614503D01*
X157089343Y-48612631D01*
X156886595Y-48594893D01*
X156875805Y-48594893D01*
X156673056Y-48612631D01*
X156662445Y-48614502D01*
X156465852Y-48667179D01*
X156455718Y-48670867D01*
X156271269Y-48756878D01*
X156261925Y-48762273D01*
X156220702Y-48791136D01*
X156213269Y-48799247D01*
X152549128Y-48799247D01*
X152549129Y-48799246D01*
X152541698Y-48791137D01*
X152500469Y-48762268D01*
X152491137Y-48756880D01*
X152306681Y-48670867D01*
X152296547Y-48667179D01*
X152099954Y-48614502D01*
X152089343Y-48612631D01*
X151886595Y-48594893D01*
X151875805Y-48594893D01*
X151673056Y-48612631D01*
X151662442Y-48614503D01*
X151546553Y-48645555D01*
X151478394Y-48644419D01*
X151421135Y-48607428D01*
X151392080Y-48545761D01*
X151400012Y-48478055D01*
X151442533Y-48424773D01*
X151600006Y-48312636D01*
X151608903Y-48304927D01*
X151745717Y-48161441D01*
X151752984Y-48152200D01*
X151860171Y-47985414D01*
X151865563Y-47974956D01*
X151939249Y-47790898D01*
X151942562Y-47779615D01*
X151980082Y-47584934D01*
X151981200Y-47573234D01*
X151981200Y-47390426D01*
X151977749Y-47377550D01*
X151964874Y-47374100D01*
X151147526Y-47374100D01*
X151134650Y-47377550D01*
X151131200Y-47390426D01*
X151131200Y-48531281D01*
X150631200Y-48531281D01*
X150631200Y-47390426D01*
X150627749Y-47377550D01*
X150614874Y-47374100D01*
X149797526Y-47374100D01*
X149784650Y-47377550D01*
X149781200Y-47390426D01*
X149781200Y-47523550D01*
X128859557Y-47523550D01*
X128649883Y-47416716D01*
X128643959Y-47414079D01*
X128287955Y-47277421D01*
X128281802Y-47275422D01*
X127913462Y-47176726D01*
X127907120Y-47175378D01*
X127530491Y-47115726D01*
X127524048Y-47115049D01*
X127143244Y-47095092D01*
X127136756Y-47095092D01*
X126755951Y-47115049D01*
X126749508Y-47115726D01*
X126372879Y-47175378D01*
X126366537Y-47176726D01*
X125998197Y-47275422D01*
X125992043Y-47277421D01*
X125974668Y-47284091D01*
X125908273Y-47290365D01*
X125848230Y-47261337D01*
X125811909Y-47205404D01*
X125809815Y-47138746D01*
X125842551Y-47080648D01*
X127116081Y-45807119D01*
X127156309Y-45780239D01*
X127203762Y-45770800D01*
X150028381Y-45770800D01*
X150084149Y-45784048D01*
G37*
%TD.AperFunction*%
%TA.AperFunction,Conductor*%
G36*
X132223028Y-65150939D02*
G01*
X132263256Y-65177819D01*
X138275932Y-71190495D01*
X138283381Y-71198681D01*
X138287439Y-71205075D01*
X138293124Y-71210413D01*
X138293126Y-71210416D01*
X138336464Y-71251113D01*
X138339260Y-71253823D01*
X138358755Y-71273318D01*
X138361840Y-71275711D01*
X138361926Y-71275778D01*
X138370798Y-71283356D01*
X138383507Y-71295290D01*
X138402643Y-71313260D01*
X138409473Y-71317015D01*
X138409476Y-71317017D01*
X138420196Y-71322910D01*
X138436447Y-71333584D01*
X138452289Y-71345872D01*
X138459446Y-71348969D01*
X138459448Y-71348970D01*
X138492380Y-71363220D01*
X138502875Y-71368362D01*
X138541133Y-71389395D01*
X138560537Y-71394377D01*
X138578939Y-71400678D01*
X138590166Y-71405536D01*
X138597330Y-71408636D01*
X138634922Y-71414589D01*
X138640464Y-71415467D01*
X138651907Y-71417837D01*
X138686650Y-71426758D01*
X138686651Y-71426758D01*
X138694206Y-71428698D01*
X138714242Y-71428698D01*
X138733627Y-71430223D01*
X138753421Y-71433358D01*
X138791501Y-71429758D01*
X138796901Y-71429248D01*
X138808570Y-71428698D01*
X139503150Y-71428698D01*
X139550603Y-71438137D01*
X139590831Y-71465017D01*
X140036033Y-71910219D01*
X140066283Y-71959582D01*
X140070825Y-72017298D01*
X140048670Y-72070785D01*
X140004647Y-72108385D01*
X139948352Y-72121900D01*
X127820252Y-72121900D01*
X127772799Y-72112461D01*
X127732571Y-72085581D01*
X126950619Y-71303628D01*
X126923739Y-71263400D01*
X126914300Y-71215947D01*
X126914300Y-70181771D01*
X126914820Y-70170718D01*
X126916472Y-70163332D01*
X126914361Y-70096144D01*
X126914300Y-70092250D01*
X126914300Y-70068545D01*
X126914300Y-70064650D01*
X126913798Y-70060681D01*
X126912880Y-70049024D01*
X126912766Y-70045410D01*
X126911509Y-70005372D01*
X126905920Y-69986139D01*
X126901974Y-69967082D01*
X126900441Y-69954946D01*
X126899464Y-69947208D01*
X126883381Y-69906587D01*
X126879599Y-69895540D01*
X126873604Y-69874906D01*
X126867417Y-69853610D01*
X126860675Y-69842210D01*
X126857222Y-69836370D01*
X126848660Y-69818892D01*
X126844160Y-69807527D01*
X126844159Y-69807526D01*
X126841286Y-69800268D01*
X126815612Y-69764931D01*
X126809209Y-69755184D01*
X126786970Y-69717579D01*
X126772806Y-69703415D01*
X126760168Y-69688618D01*
X126752984Y-69678729D01*
X126752978Y-69678723D01*
X126748394Y-69672413D01*
X126714746Y-69644577D01*
X126706105Y-69636714D01*
X126278086Y-69208695D01*
X126270642Y-69200514D01*
X126266586Y-69194123D01*
X126217575Y-69148098D01*
X126214778Y-69145387D01*
X126198027Y-69128636D01*
X126195271Y-69125880D01*
X126192090Y-69123412D01*
X126183214Y-69115830D01*
X126157069Y-69091278D01*
X126157067Y-69091276D01*
X126151382Y-69085938D01*
X126144549Y-69082182D01*
X126144543Y-69082177D01*
X126133825Y-69076285D01*
X126117566Y-69065606D01*
X126107895Y-69058104D01*
X126107892Y-69058102D01*
X126101736Y-69053327D01*
X126094579Y-69050229D01*
X126094576Y-69050228D01*
X126061649Y-69035978D01*
X126051163Y-69030841D01*
X126019732Y-69013562D01*
X126019723Y-69013558D01*
X126012892Y-69009803D01*
X126005335Y-69007862D01*
X126005331Y-69007861D01*
X125993488Y-69004820D01*
X125975084Y-68998519D01*
X125963857Y-68993660D01*
X125963850Y-68993658D01*
X125956696Y-68990562D01*
X125948992Y-68989341D01*
X125948990Y-68989341D01*
X125913559Y-68983729D01*
X125902124Y-68981361D01*
X125867371Y-68972438D01*
X125867363Y-68972437D01*
X125859819Y-68970500D01*
X125852023Y-68970500D01*
X125839783Y-68970500D01*
X125820397Y-68968974D01*
X125800604Y-68965840D01*
X125792838Y-68966574D01*
X125792835Y-68966574D01*
X125757124Y-68969950D01*
X125745455Y-68970500D01*
X125176426Y-68970500D01*
X125119169Y-68956489D01*
X125074851Y-68917623D01*
X125074048Y-68916476D01*
X124939695Y-68724599D01*
X124772601Y-68557505D01*
X124768168Y-68554401D01*
X124768161Y-68554395D01*
X124587042Y-68427575D01*
X124548176Y-68383257D01*
X124534165Y-68326000D01*
X124548176Y-68268743D01*
X124587042Y-68224425D01*
X124768161Y-68097604D01*
X124768161Y-68097603D01*
X124772601Y-68094495D01*
X124939695Y-67927401D01*
X125075235Y-67733830D01*
X125175103Y-67519663D01*
X125236263Y-67291408D01*
X125256859Y-67056000D01*
X125236263Y-66820592D01*
X125182209Y-66618856D01*
X125176505Y-66597569D01*
X125176504Y-66597567D01*
X125175103Y-66592337D01*
X125075235Y-66378171D01*
X124939695Y-66184599D01*
X124772601Y-66017505D01*
X124768168Y-66014401D01*
X124768161Y-66014395D01*
X124587042Y-65887575D01*
X124548176Y-65843257D01*
X124534165Y-65786000D01*
X124548176Y-65728743D01*
X124587042Y-65684425D01*
X124768161Y-65557604D01*
X124768161Y-65557603D01*
X124772601Y-65554495D01*
X124939695Y-65387401D01*
X125067843Y-65204387D01*
X125074853Y-65194376D01*
X125119171Y-65155511D01*
X125176428Y-65141500D01*
X132175575Y-65141500D01*
X132223028Y-65150939D01*
G37*
%TD.AperFunction*%
%TA.AperFunction,Conductor*%
G36*
X142097967Y-68898869D02*
G01*
X142142479Y-68938645D01*
X142160991Y-68988528D01*
X142161759Y-68988353D01*
X142163089Y-68994183D01*
X142163247Y-68994608D01*
X142164087Y-69002059D01*
X142166386Y-69008630D01*
X142166387Y-69008633D01*
X142211503Y-69137569D01*
X142219944Y-69161690D01*
X142223645Y-69167580D01*
X142223646Y-69167582D01*
X142243907Y-69199827D01*
X142262913Y-69265798D01*
X142243908Y-69331768D01*
X142223649Y-69364010D01*
X142223641Y-69364024D01*
X142219944Y-69369910D01*
X142217647Y-69376472D01*
X142217645Y-69376478D01*
X142166387Y-69522966D01*
X142166385Y-69522971D01*
X142164087Y-69529541D01*
X142163307Y-69536455D01*
X142163306Y-69536464D01*
X142152011Y-69636714D01*
X142145151Y-69697600D01*
X142145931Y-69704523D01*
X142163306Y-69858735D01*
X142163307Y-69858742D01*
X142164087Y-69865659D01*
X142166386Y-69872230D01*
X142166387Y-69872233D01*
X142215703Y-70013172D01*
X142219944Y-70025290D01*
X142309923Y-70168490D01*
X142429510Y-70288077D01*
X142549549Y-70363503D01*
X142572710Y-70378056D01*
X142571711Y-70379644D01*
X142615781Y-70419029D01*
X142634787Y-70485000D01*
X142615781Y-70550971D01*
X142571711Y-70590355D01*
X142572710Y-70591944D01*
X142435410Y-70678215D01*
X142435405Y-70678218D01*
X142429510Y-70681923D01*
X142424585Y-70686847D01*
X142424581Y-70686851D01*
X142314851Y-70796581D01*
X142314847Y-70796585D01*
X142309923Y-70801510D01*
X142306218Y-70807405D01*
X142306215Y-70807410D01*
X142247320Y-70901141D01*
X142219944Y-70944710D01*
X142217647Y-70951272D01*
X142217645Y-70951278D01*
X142166387Y-71097766D01*
X142166385Y-71097771D01*
X142164087Y-71104341D01*
X142163307Y-71111258D01*
X142163307Y-71111261D01*
X142163248Y-71111790D01*
X142163089Y-71112216D01*
X142161759Y-71118047D01*
X142160991Y-71117871D01*
X142142479Y-71167755D01*
X142097967Y-71207531D01*
X142040028Y-71221900D01*
X141804652Y-71221900D01*
X141757199Y-71212461D01*
X141716971Y-71185581D01*
X141072682Y-70541292D01*
X141040293Y-70484582D01*
X141041210Y-70419281D01*
X141075178Y-70363503D01*
X141132326Y-70332958D01*
X141138059Y-70332313D01*
X141297690Y-70276456D01*
X141440890Y-70186477D01*
X141560477Y-70066890D01*
X141650456Y-69923690D01*
X141706313Y-69764059D01*
X141725249Y-69596000D01*
X141706313Y-69427941D01*
X141650456Y-69268310D01*
X141560477Y-69125110D01*
X141531548Y-69096181D01*
X141501298Y-69046818D01*
X141496756Y-68989102D01*
X141518911Y-68935615D01*
X141562934Y-68898015D01*
X141619229Y-68884500D01*
X142040028Y-68884500D01*
X142097967Y-68898869D01*
G37*
%TD.AperFunction*%
%TD*%
M02*
