%TF.GenerationSoftware,KiCad,Pcbnew,(7.0.0)*%
%TF.CreationDate,2023-11-22T19:41:51+05:30*%
%TF.ProjectId,Drone_Controller_3.0,44726f6e-655f-4436-9f6e-74726f6c6c65,rev?*%
%TF.SameCoordinates,Original*%
%TF.FileFunction,Soldermask,Top*%
%TF.FilePolarity,Negative*%
%FSLAX46Y46*%
G04 Gerber Fmt 4.6, Leading zero omitted, Abs format (unit mm)*
G04 Created by KiCad (PCBNEW (7.0.0)) date 2023-11-22 19:41:51*
%MOMM*%
%LPD*%
G01*
G04 APERTURE LIST*
G04 Aperture macros list*
%AMRoundRect*
0 Rectangle with rounded corners*
0 $1 Rounding radius*
0 $2 $3 $4 $5 $6 $7 $8 $9 X,Y pos of 4 corners*
0 Add a 4 corners polygon primitive as box body*
4,1,4,$2,$3,$4,$5,$6,$7,$8,$9,$2,$3,0*
0 Add four circle primitives for the rounded corners*
1,1,$1+$1,$2,$3*
1,1,$1+$1,$4,$5*
1,1,$1+$1,$6,$7*
1,1,$1+$1,$8,$9*
0 Add four rect primitives between the rounded corners*
20,1,$1+$1,$2,$3,$4,$5,0*
20,1,$1+$1,$4,$5,$6,$7,0*
20,1,$1+$1,$6,$7,$8,$9,0*
20,1,$1+$1,$8,$9,$2,$3,0*%
G04 Aperture macros list end*
%ADD10RoundRect,0.140000X-0.140000X-0.170000X0.140000X-0.170000X0.140000X0.170000X-0.140000X0.170000X0*%
%ADD11RoundRect,0.135000X-0.135000X-0.185000X0.135000X-0.185000X0.135000X0.185000X-0.135000X0.185000X0*%
%ADD12R,1.800000X1.100000*%
%ADD13RoundRect,0.135000X0.185000X-0.135000X0.185000X0.135000X-0.185000X0.135000X-0.185000X-0.135000X0*%
%ADD14RoundRect,0.062500X0.062500X-0.350000X0.062500X0.350000X-0.062500X0.350000X-0.062500X-0.350000X0*%
%ADD15RoundRect,0.062500X0.350000X-0.062500X0.350000X0.062500X-0.350000X0.062500X-0.350000X-0.062500X0*%
%ADD16R,2.500000X2.500000*%
%ADD17RoundRect,0.140000X0.140000X0.170000X-0.140000X0.170000X-0.140000X-0.170000X0.140000X-0.170000X0*%
%ADD18RoundRect,0.218750X0.256250X-0.218750X0.256250X0.218750X-0.256250X0.218750X-0.256250X-0.218750X0*%
%ADD19R,1.270000X3.600000*%
%ADD20R,1.350000X4.200000*%
%ADD21RoundRect,0.140000X0.170000X-0.140000X0.170000X0.140000X-0.170000X0.140000X-0.170000X-0.140000X0*%
%ADD22RoundRect,0.150000X-0.150000X0.587500X-0.150000X-0.587500X0.150000X-0.587500X0.150000X0.587500X0*%
%ADD23RoundRect,0.200000X0.275000X-0.200000X0.275000X0.200000X-0.275000X0.200000X-0.275000X-0.200000X0*%
%ADD24RoundRect,0.075000X-0.350000X-0.075000X0.350000X-0.075000X0.350000X0.075000X-0.350000X0.075000X0*%
%ADD25RoundRect,0.075000X0.075000X-0.350000X0.075000X0.350000X-0.075000X0.350000X-0.075000X-0.350000X0*%
%ADD26RoundRect,0.218750X-0.218750X-0.256250X0.218750X-0.256250X0.218750X0.256250X-0.218750X0.256250X0*%
%ADD27R,0.250000X0.500000*%
%ADD28R,1.600000X0.900000*%
%ADD29RoundRect,0.135000X-0.185000X0.135000X-0.185000X-0.135000X0.185000X-0.135000X0.185000X0.135000X0*%
%ADD30RoundRect,0.150000X-0.825000X-0.150000X0.825000X-0.150000X0.825000X0.150000X-0.825000X0.150000X0*%
%ADD31C,0.800000*%
%ADD32C,6.400000*%
%ADD33RoundRect,0.140000X-0.170000X0.140000X-0.170000X-0.140000X0.170000X-0.140000X0.170000X0.140000X0*%
%ADD34RoundRect,0.150000X-0.650000X-0.150000X0.650000X-0.150000X0.650000X0.150000X-0.650000X0.150000X0*%
%ADD35RoundRect,0.135000X0.135000X0.185000X-0.135000X0.185000X-0.135000X-0.185000X0.135000X-0.185000X0*%
%ADD36RoundRect,0.147500X0.147500X0.172500X-0.147500X0.172500X-0.147500X-0.172500X0.147500X-0.172500X0*%
%ADD37R,1.700000X1.700000*%
%ADD38O,1.700000X1.700000*%
%ADD39R,2.000000X2.000000*%
%ADD40R,0.300000X0.350000*%
%ADD41R,0.350000X0.300000*%
%ADD42R,0.400000X1.350000*%
%ADD43O,1.200000X1.900000*%
%ADD44R,1.200000X1.900000*%
%ADD45C,1.450000*%
%ADD46R,1.500000X1.900000*%
%ADD47R,1.200000X1.400000*%
%ADD48R,2.750000X1.000000*%
%ADD49RoundRect,0.147500X-0.147500X-0.172500X0.147500X-0.172500X0.147500X0.172500X-0.147500X0.172500X0*%
%ADD50RoundRect,0.112500X0.112500X-0.187500X0.112500X0.187500X-0.112500X0.187500X-0.112500X-0.187500X0*%
%ADD51RoundRect,0.147500X0.172500X-0.147500X0.172500X0.147500X-0.172500X0.147500X-0.172500X-0.147500X0*%
%ADD52RoundRect,0.250000X-0.425000X0.450000X-0.425000X-0.450000X0.425000X-0.450000X0.425000X0.450000X0*%
%ADD53R,1.000000X0.700000*%
%ADD54R,0.600000X0.700000*%
%ADD55R,0.350000X0.350000*%
%ADD56RoundRect,0.075000X-0.700000X-0.075000X0.700000X-0.075000X0.700000X0.075000X-0.700000X0.075000X0*%
%ADD57RoundRect,0.075000X-0.075000X-0.700000X0.075000X-0.700000X0.075000X0.700000X-0.075000X0.700000X0*%
G04 APERTURE END LIST*
D10*
%TO.C,C4*%
X140772000Y-58953400D03*
X141732000Y-58953400D03*
%TD*%
D11*
%TO.C,R7*%
X130198400Y-81889600D03*
X131218400Y-81889600D03*
%TD*%
D12*
%TO.C,SW1*%
X126998799Y-61040399D03*
X133198799Y-61040399D03*
X126998799Y-64740399D03*
X133198799Y-64740399D03*
%TD*%
D13*
%TO.C,R4*%
X147421600Y-61976000D03*
X147421600Y-60956000D03*
%TD*%
D14*
%TO.C,U1*%
X136497000Y-60280600D03*
X136997000Y-60280600D03*
X137497000Y-60280600D03*
X137997000Y-60280600D03*
X138497000Y-60280600D03*
D15*
X139434500Y-59343100D03*
X139434500Y-58843100D03*
X139434500Y-58343100D03*
X139434500Y-57843100D03*
X139434500Y-57343100D03*
D14*
X138497000Y-56405600D03*
X137997000Y-56405600D03*
X137497000Y-56405600D03*
X136997000Y-56405600D03*
X136497000Y-56405600D03*
D15*
X135559500Y-57343100D03*
X135559500Y-57843100D03*
X135559500Y-58343100D03*
X135559500Y-58843100D03*
X135559500Y-59343100D03*
D16*
X137496999Y-58343099D03*
%TD*%
D17*
%TO.C,C5*%
X135430200Y-54279800D03*
X134470200Y-54279800D03*
%TD*%
D13*
%TO.C,R16*%
X135940800Y-68478400D03*
X135940800Y-67458400D03*
%TD*%
D18*
%TO.C,D3*%
X157835600Y-54127500D03*
X157835600Y-52552500D03*
%TD*%
D13*
%TO.C,R12*%
X149352000Y-61976000D03*
X149352000Y-60956000D03*
%TD*%
D19*
%TO.C,J1*%
X137261599Y-47628199D03*
D20*
X140086599Y-47828199D03*
X134436599Y-47828199D03*
%TD*%
D21*
%TO.C,C19*%
X160172400Y-58341200D03*
X160172400Y-57381200D03*
%TD*%
D22*
%TO.C,Q1*%
X133284000Y-85297800D03*
X131384000Y-85297800D03*
X132334000Y-87172800D03*
%TD*%
D10*
%TO.C,C13*%
X161114800Y-68630800D03*
X162074800Y-68630800D03*
%TD*%
D23*
%TO.C,FB2*%
X134061200Y-76087800D03*
X134061200Y-74437800D03*
%TD*%
D24*
%TO.C,U2*%
X156038000Y-66161600D03*
X156038000Y-66661600D03*
X156038000Y-67161600D03*
X156038000Y-67661600D03*
X156038000Y-68161600D03*
X156038000Y-68661600D03*
D25*
X156738000Y-69361600D03*
X157238000Y-69361600D03*
X157738000Y-69361600D03*
X158238000Y-69361600D03*
X158738000Y-69361600D03*
X159238000Y-69361600D03*
D24*
X159938000Y-68661600D03*
X159938000Y-68161600D03*
X159938000Y-67661600D03*
X159938000Y-67161600D03*
X159938000Y-66661600D03*
X159938000Y-66161600D03*
D25*
X159238000Y-65461600D03*
X158738000Y-65461600D03*
X158238000Y-65461600D03*
X157738000Y-65461600D03*
X157238000Y-65461600D03*
X156738000Y-65461600D03*
%TD*%
D26*
%TO.C,D2*%
X135153300Y-72999600D03*
X136728300Y-72999600D03*
%TD*%
D21*
%TO.C,C8*%
X140157200Y-55166200D03*
X140157200Y-54206200D03*
%TD*%
D10*
%TO.C,C23*%
X132108000Y-81889600D03*
X133068000Y-81889600D03*
%TD*%
%TO.C,C31*%
X150904000Y-66090800D03*
X151864000Y-66090800D03*
%TD*%
D27*
%TO.C,U4*%
X130732399Y-80335199D03*
X131232399Y-80335199D03*
X131732399Y-80335199D03*
X132232399Y-80335199D03*
X132232399Y-78435199D03*
X131732399Y-78435199D03*
X131232399Y-78435199D03*
X130732399Y-78435199D03*
D28*
X131482399Y-79385199D03*
%TD*%
D29*
%TO.C,R14*%
X134823200Y-64310800D03*
X134823200Y-65330800D03*
%TD*%
D30*
%TO.C,U7*%
X154547800Y-76885800D03*
X154547800Y-78155800D03*
X154547800Y-79425800D03*
X154547800Y-80695800D03*
X159497800Y-80695800D03*
X159497800Y-79425800D03*
X159497800Y-78155800D03*
X159497800Y-76885800D03*
%TD*%
D31*
%TO.C,H3*%
X124740000Y-85966000D03*
X125442944Y-84268944D03*
X125442944Y-87663056D03*
X127140000Y-83566000D03*
D32*
X127140000Y-85966000D03*
D31*
X127140000Y-88366000D03*
X128837056Y-84268944D03*
X128837056Y-87663056D03*
X129540000Y-85966000D03*
%TD*%
D21*
%TO.C,C34*%
X139547600Y-64996000D03*
X139547600Y-64036000D03*
%TD*%
D33*
%TO.C,C29*%
X137515600Y-74224000D03*
X137515600Y-75184000D03*
%TD*%
D34*
%TO.C,U6*%
X142094400Y-81915000D03*
X142094400Y-83185000D03*
X142094400Y-84455000D03*
X142094400Y-85725000D03*
X149294400Y-85725000D03*
X149294400Y-84455000D03*
X149294400Y-83185000D03*
X149294400Y-81915000D03*
%TD*%
D17*
%TO.C,C20*%
X161668400Y-62534800D03*
X160708400Y-62534800D03*
%TD*%
%TO.C,C16*%
X158366400Y-60198000D03*
X157406400Y-60198000D03*
%TD*%
D35*
%TO.C,R1*%
X133656800Y-57099200D03*
X132636800Y-57099200D03*
%TD*%
D31*
%TO.C,H2*%
X159906000Y-50800000D03*
X160608944Y-49102944D03*
X160608944Y-52497056D03*
X162306000Y-48400000D03*
D32*
X162306000Y-50800000D03*
D31*
X162306000Y-53200000D03*
X164003056Y-49102944D03*
X164003056Y-52497056D03*
X164706000Y-50800000D03*
%TD*%
D13*
%TO.C,R17*%
X135940800Y-70815200D03*
X135940800Y-69795200D03*
%TD*%
D21*
%TO.C,C37*%
X135788400Y-65278000D03*
X135788400Y-64318000D03*
%TD*%
D33*
%TO.C,C12*%
X156768800Y-70792400D03*
X156768800Y-71752400D03*
%TD*%
D10*
%TO.C,C39*%
X133327200Y-66294000D03*
X134287200Y-66294000D03*
%TD*%
%TO.C,C32*%
X149786400Y-76454000D03*
X150746400Y-76454000D03*
%TD*%
D36*
%TO.C,L3*%
X139222400Y-54229000D03*
X138252400Y-54229000D03*
%TD*%
D10*
%TO.C,C27*%
X161216400Y-76911200D03*
X162176400Y-76911200D03*
%TD*%
D37*
%TO.C,J5*%
X165658799Y-56895999D03*
D38*
X165658799Y-59435999D03*
X165658799Y-61975999D03*
X165658799Y-64515999D03*
X165658799Y-67055999D03*
X165658799Y-69595999D03*
X165658799Y-72135999D03*
X165658799Y-74675999D03*
X165658799Y-77215999D03*
X165658799Y-79755999D03*
%TD*%
D39*
%TO.C,J2*%
X132079999Y-89661999D03*
%TD*%
D21*
%TO.C,C30*%
X140512800Y-64996000D03*
X140512800Y-64036000D03*
%TD*%
D17*
%TO.C,C11*%
X139164000Y-51460400D03*
X138204000Y-51460400D03*
%TD*%
D35*
%TO.C,R15*%
X137873200Y-71780400D03*
X136853200Y-71780400D03*
%TD*%
D10*
%TO.C,C26*%
X150802400Y-82397600D03*
X151762400Y-82397600D03*
%TD*%
D40*
%TO.C,U3*%
X161227199Y-59701999D03*
X160727199Y-59701999D03*
X160227199Y-59701999D03*
X159727199Y-59701999D03*
D41*
X159727199Y-60201999D03*
X159727199Y-60701999D03*
D40*
X159727199Y-61201999D03*
X160227199Y-61201999D03*
X160727199Y-61201999D03*
X161227199Y-61201999D03*
D41*
X161227199Y-60701999D03*
X161227199Y-60201999D03*
%TD*%
D33*
%TO.C,C14*%
X158038800Y-70792400D03*
X158038800Y-71752400D03*
%TD*%
D39*
%TO.C,J3*%
X135127999Y-89661999D03*
%TD*%
D37*
%TO.C,J4*%
X123901199Y-56895999D03*
D38*
X123901199Y-59435999D03*
X123901199Y-61975999D03*
X123901199Y-64515999D03*
X123901199Y-67055999D03*
X123901199Y-69595999D03*
X123901199Y-72135999D03*
X123901199Y-74675999D03*
X123901199Y-77215999D03*
X123901199Y-79755999D03*
%TD*%
D13*
%TO.C,R5*%
X148386800Y-61976000D03*
X148386800Y-60956000D03*
%TD*%
D42*
%TO.C,J7*%
X155681199Y-49824099D03*
X155031199Y-49824099D03*
X154381199Y-49824099D03*
X153731199Y-49824099D03*
X153081199Y-49824099D03*
D43*
X157881199Y-47124099D03*
D44*
X157281199Y-47124099D03*
D45*
X156881200Y-49824100D03*
D46*
X155381199Y-47124099D03*
X153381199Y-47124099D03*
D45*
X151881200Y-49824100D03*
D44*
X151481199Y-47124099D03*
D43*
X150881199Y-47124099D03*
%TD*%
D35*
%TO.C,R18*%
X158396400Y-51358800D03*
X157376400Y-51358800D03*
%TD*%
D21*
%TO.C,C10*%
X137289600Y-52372200D03*
X137289600Y-51412200D03*
%TD*%
D29*
%TO.C,R2*%
X142189200Y-56944800D03*
X142189200Y-57964800D03*
%TD*%
D47*
%TO.C,Y1*%
X143551599Y-56888199D03*
X143551599Y-59088199D03*
X145251599Y-59088199D03*
X145251599Y-56888199D03*
%TD*%
D48*
%TO.C,L4*%
X131470399Y-76874399D03*
X131470399Y-74574399D03*
%TD*%
D17*
%TO.C,C2*%
X135432800Y-55219600D03*
X134472800Y-55219600D03*
%TD*%
D13*
%TO.C,R13*%
X146964400Y-79453200D03*
X146964400Y-78433200D03*
%TD*%
D10*
%TO.C,C25*%
X150802400Y-81432400D03*
X151762400Y-81432400D03*
%TD*%
D49*
%TO.C,L1*%
X137261800Y-55219600D03*
X138231800Y-55219600D03*
%TD*%
D11*
%TO.C,R9*%
X131062000Y-83820000D03*
X132082000Y-83820000D03*
%TD*%
D50*
%TO.C,D1*%
X135026400Y-87156000D03*
X135026400Y-85056000D03*
%TD*%
D17*
%TO.C,C1*%
X133626800Y-59334400D03*
X132666800Y-59334400D03*
%TD*%
D51*
%TO.C,L2*%
X137289600Y-54256800D03*
X137289600Y-53286800D03*
%TD*%
D37*
%TO.C,J6*%
X142300799Y-89204799D03*
D38*
X144840799Y-89204799D03*
X147380799Y-89204799D03*
X149920799Y-89204799D03*
%TD*%
D31*
%TO.C,H4*%
X159906000Y-85932944D03*
X160608944Y-84235888D03*
X160608944Y-87630000D03*
X162306000Y-83532944D03*
D32*
X162306000Y-85932944D03*
D31*
X162306000Y-88332944D03*
X164003056Y-84235888D03*
X164003056Y-87630000D03*
X164706000Y-85932944D03*
%TD*%
D17*
%TO.C,C40*%
X134310000Y-71727600D03*
X133350000Y-71727600D03*
%TD*%
D10*
%TO.C,C15*%
X158778000Y-64312800D03*
X159738000Y-64312800D03*
%TD*%
D31*
%TO.C,H1*%
X124740000Y-50800000D03*
X125442944Y-49102944D03*
X125442944Y-52497056D03*
X127140000Y-48400000D03*
D32*
X127140000Y-50800000D03*
D31*
X127140000Y-53200000D03*
X128837056Y-49102944D03*
X128837056Y-52497056D03*
X129540000Y-50800000D03*
%TD*%
D17*
%TO.C,C7*%
X144932400Y-60579000D03*
X143972400Y-60579000D03*
%TD*%
D29*
%TO.C,R3*%
X159004000Y-70762400D03*
X159004000Y-71782400D03*
%TD*%
D17*
%TO.C,C3*%
X133626800Y-58369200D03*
X132666800Y-58369200D03*
%TD*%
D33*
%TO.C,C18*%
X153974800Y-62562800D03*
X153974800Y-63522800D03*
%TD*%
D52*
%TO.C,C28*%
X135890000Y-74776400D03*
X135890000Y-77476400D03*
%TD*%
D33*
%TO.C,C17*%
X152704800Y-62562800D03*
X152704800Y-63522800D03*
%TD*%
D21*
%TO.C,C9*%
X141097000Y-55166200D03*
X141097000Y-54206200D03*
%TD*%
D13*
%TO.C,R6*%
X154940000Y-63552800D03*
X154940000Y-62532800D03*
%TD*%
D53*
%TO.C,D4*%
X153935999Y-54339999D03*
D54*
X155635999Y-54339999D03*
X155635999Y-52339999D03*
X153735999Y-52339999D03*
%TD*%
D47*
%TO.C,Y2*%
X132906399Y-68036799D03*
X132906399Y-70236799D03*
X134606399Y-70236799D03*
X134606399Y-68036799D03*
%TD*%
D33*
%TO.C,C38*%
X147929600Y-78463200D03*
X147929600Y-79423200D03*
%TD*%
D17*
%TO.C,C21*%
X161668400Y-63500000D03*
X160708400Y-63500000D03*
%TD*%
D33*
%TO.C,C33*%
X142240000Y-77853600D03*
X142240000Y-78813600D03*
%TD*%
D55*
%TO.C,IC1*%
X152694999Y-59879399D03*
X153344999Y-59879399D03*
X153994999Y-59879399D03*
X154644999Y-59879399D03*
X154644999Y-61329399D03*
X153994999Y-61329399D03*
X153344999Y-61329399D03*
X152694999Y-61329399D03*
%TD*%
D10*
%TO.C,C6*%
X143870800Y-55397400D03*
X144830800Y-55397400D03*
%TD*%
D11*
%TO.C,R10*%
X132078000Y-82854800D03*
X133098000Y-82854800D03*
%TD*%
D56*
%TO.C,U5*%
X139511400Y-66963600D03*
X139511400Y-67463600D03*
X139511400Y-67963600D03*
X139511400Y-68463600D03*
X139511400Y-68963600D03*
X139511400Y-69463600D03*
X139511400Y-69963600D03*
X139511400Y-70463600D03*
X139511400Y-70963600D03*
X139511400Y-71463600D03*
X139511400Y-71963600D03*
X139511400Y-72463600D03*
X139511400Y-72963600D03*
X139511400Y-73463600D03*
X139511400Y-73963600D03*
X139511400Y-74463600D03*
D57*
X141436400Y-76388600D03*
X141936400Y-76388600D03*
X142436400Y-76388600D03*
X142936400Y-76388600D03*
X143436400Y-76388600D03*
X143936400Y-76388600D03*
X144436400Y-76388600D03*
X144936400Y-76388600D03*
X145436400Y-76388600D03*
X145936400Y-76388600D03*
X146436400Y-76388600D03*
X146936400Y-76388600D03*
X147436400Y-76388600D03*
X147936400Y-76388600D03*
X148436400Y-76388600D03*
X148936400Y-76388600D03*
D56*
X150861400Y-74463600D03*
X150861400Y-73963600D03*
X150861400Y-73463600D03*
X150861400Y-72963600D03*
X150861400Y-72463600D03*
X150861400Y-71963600D03*
X150861400Y-71463600D03*
X150861400Y-70963600D03*
X150861400Y-70463600D03*
X150861400Y-69963600D03*
X150861400Y-69463600D03*
X150861400Y-68963600D03*
X150861400Y-68463600D03*
X150861400Y-67963600D03*
X150861400Y-67463600D03*
X150861400Y-66963600D03*
D57*
X148936400Y-65038600D03*
X148436400Y-65038600D03*
X147936400Y-65038600D03*
X147436400Y-65038600D03*
X146936400Y-65038600D03*
X146436400Y-65038600D03*
X145936400Y-65038600D03*
X145436400Y-65038600D03*
X144936400Y-65038600D03*
X144436400Y-65038600D03*
X143936400Y-65038600D03*
X143436400Y-65038600D03*
X142936400Y-65038600D03*
X142436400Y-65038600D03*
X141936400Y-65038600D03*
X141436400Y-65038600D03*
%TD*%
M02*
